// Created by Crowbar 0.74
version 1
nodes
  0 "static_prop" -1
end
skeleton
  time 0
    0 0.000000 0.000000 0.000000 0.000000 0.000000 0.000000
end
triangles
  phy
    0 7.625000 -2.000000 4.000000 0.790115 -0.592586 0.156717 0 0
    0 -7.500000 1.000000 4.000000 -0.790115 -0.592586 -0.156717 0 0
    0 -7.500000 -2.000000 4.000000 0.964711 -0.180883 -0.191348 0 0
  phy
    0 7.625000 -2.000000 4.000000 0.790115 -0.592586 0.156717 0 0
    0 7.625000 1.000000 4.000000 -0.964711 -0.180883 0.191348 0 0
    0 -7.500000 1.000000 4.000000 -0.790115 -0.592586 -0.156717 0 0
  phy
    0 -7.500000 -2.000000 4.000000 0.964711 -0.180883 -0.191348 0 0
    0 7.625000 -2.000000 -4.000000 0.920588 0.345220 0.182596 0 0
    0 7.625000 -2.000000 4.000000 0.790115 -0.592586 0.156717 0 0
  phy
    0 -7.500000 -2.000000 4.000000 0.964711 -0.180883 -0.191348 0 0
    0 -7.500000 -2.000000 -4.000000 0.920588 0.345220 -0.182596 0 0
    0 7.625000 -2.000000 -4.000000 0.920588 0.345220 0.182596 0 0
  phy
    0 -7.500000 -2.000000 -4.000000 0.920588 0.345220 -0.182596 0 0
    0 -7.500000 -2.000000 4.000000 0.964711 -0.180883 -0.191348 0 0
    0 -7.500000 1.000000 -4.000000 -0.920588 0.345220 -0.182596 0 0
  phy
    0 -7.500000 1.000000 -4.000000 -0.920588 0.345220 -0.182596 0 0
    0 -7.500000 -2.000000 4.000000 0.964711 -0.180883 -0.191348 0 0
    0 -7.500000 1.000000 4.000000 -0.790115 -0.592586 -0.156717 0 0
  phy
    0 7.625000 -2.000000 -4.000000 0.920588 0.345220 0.182596 0 0
    0 7.625000 1.000000 4.000000 -0.964711 -0.180883 0.191348 0 0
    0 7.625000 -2.000000 4.000000 0.790115 -0.592586 0.156717 0 0
  phy
    0 7.625000 -2.000000 -4.000000 0.920588 0.345220 0.182596 0 0
    0 7.625000 1.000000 -4.000000 -0.920588 0.345220 0.182596 0 0
    0 7.625000 1.000000 4.000000 -0.964711 -0.180883 0.191348 0 0
  phy
    0 7.625000 -2.000000 -4.000000 0.920588 0.345220 0.182596 0 0
    0 -7.500000 -2.000000 -4.000000 0.920588 0.345220 -0.182596 0 0
    0 -7.500000 1.000000 -4.000000 -0.920588 0.345220 -0.182596 0 0
  phy
    0 7.625000 -2.000000 -4.000000 0.920588 0.345220 0.182596 0 0
    0 -7.500000 1.000000 -4.000000 -0.920588 0.345220 -0.182596 0 0
    0 7.625000 1.000000 -4.000000 -0.920588 0.345220 0.182596 0 0
  phy
    0 7.625000 1.000000 -4.000000 -0.920588 0.345220 0.182596 0 0
    0 -7.500000 1.000000 -4.000000 -0.920588 0.345220 -0.182596 0 0
    0 7.625000 1.000000 4.000000 -0.964711 -0.180883 0.191348 0 0
  phy
    0 7.625000 1.000000 4.000000 -0.964711 -0.180883 0.191348 0 0
    0 -7.500000 1.000000 -4.000000 -0.920588 0.345220 -0.182596 0 0
    0 -7.500000 1.000000 4.000000 -0.790115 -0.592586 -0.156717 0 0
  phy
    0 -0.250000 -2.000000 -0.250000 -0.679744 0.000000 -0.733450 0 0
    0 -0.250000 -6.000000 -0.250000 0.144901 0.000000 -0.989446 0 0
    0 0.335786 -6.000000 1.164213 0.447214 -0.632456 -0.632456 0 0
  phy
    0 -0.250000 -2.000000 -0.250000 -0.679744 0.000000 -0.733450 0 0
    0 0.335786 -6.000000 1.164213 0.447214 -0.632456 -0.632456 0 0
    0 0.335786 -2.000000 1.164213 -0.144901 -0.699644 -0.699644 0 0
  phy
    0 -0.250000 -6.000000 -0.250000 0.144901 0.000000 -0.989446 0 0
    0 -0.250000 -2.000000 -0.250000 -0.679744 0.000000 -0.733450 0 0
    0 0.335786 -6.000000 -1.664214 0.242536 0.685994 -0.685994 0 0
  phy
    0 0.335786 -6.000000 -1.664214 0.242536 0.685994 -0.685994 0 0
    0 -0.250000 -2.000000 -0.250000 -0.679744 0.000000 -0.733450 0 0
    0 0.335786 -2.000000 -1.664214 -0.144901 0.699644 -0.699644 0 0
  phy
    0 -0.250000 -6.000000 -0.250000 0.144901 0.000000 -0.989446 0 0
    0 0.335786 -6.000000 -1.664214 0.242536 0.685994 -0.685994 0 0
    0 0.335786 -6.000000 1.164213 0.447214 -0.632456 -0.632456 0 0
  phy
    0 0.335786 -6.000000 -1.664214 0.242536 0.685994 -0.685994 0 0
    0 1.750000 -6.000000 -2.250000 0.862856 0.505450 0.000000 0 0
    0 0.335786 -6.000000 1.164213 0.447214 -0.632456 -0.632456 0 0
  phy
    0 1.750000 -6.000000 -2.250000 0.862856 0.505450 0.000000 0 0
    0 1.750000 -6.000000 1.750000 0.804305 -0.594217 0.000000 0 0
    0 0.335786 -6.000000 1.164213 0.447214 -0.632456 -0.632456 0 0
  phy
    0 1.750000 -6.000000 -2.250000 0.862856 0.505450 0.000000 0 0
    0 3.750000 -6.000000 -0.250000 0.447214 0.000000 0.894427 0 0
    0 1.750000 -6.000000 1.750000 0.804305 -0.594217 0.000000 0 0
  phy
    0 1.750000 -6.000000 -2.250000 0.862856 0.505450 0.000000 0 0
    0 3.164214 -6.000000 -1.664214 0.096264 0.793473 0.600944 0 0
    0 3.750000 -6.000000 -0.250000 0.447214 0.000000 0.894427 0 0
  phy
    0 3.750000 -6.000000 -0.250000 0.447214 0.000000 0.894427 0 0
    0 3.164214 -2.000000 1.164213 -0.491047 -0.525945 0.694446 0 0
    0 3.164214 -6.000000 1.164213 0.096264 -0.793473 0.600944 0 0
  phy
    0 3.750000 -6.000000 -0.250000 0.447214 0.000000 0.894427 0 0
    0 3.750000 -2.000000 -0.250000 -0.804305 0.000000 0.594217 0 0
    0 3.164214 -2.000000 1.164213 -0.491047 -0.525945 0.694446 0 0
  phy
    0 3.750000 -6.000000 -0.250000 0.447214 0.000000 0.894427 0 0
    0 3.164214 -2.000000 -1.664214 -0.096265 0.600944 0.793473 0 0
    0 3.750000 -2.000000 -0.250000 -0.804305 0.000000 0.594217 0 0
  phy
    0 3.750000 -6.000000 -0.250000 0.447214 0.000000 0.894427 0 0
    0 3.164214 -6.000000 -1.664214 0.096264 0.793473 0.600944 0 0
    0 3.164214 -2.000000 -1.664214 -0.096265 0.600944 0.793473 0 0
  phy
    0 3.750000 -6.000000 -0.250000 0.447214 0.000000 0.894427 0 0
    0 3.164214 -6.000000 1.164213 0.096264 -0.793473 0.600944 0 0
    0 1.750000 -6.000000 1.750000 0.804305 -0.594217 0.000000 0 0
  phy
    0 0.335786 -2.000000 1.164213 -0.144901 -0.699644 -0.699644 0 0
    0 1.750000 -2.000000 1.750000 -0.242536 -0.970143 0.000000 0 0
    0 -0.250000 -2.000000 -0.250000 -0.679744 0.000000 -0.733450 0 0
  phy
    0 -0.250000 -2.000000 -0.250000 -0.679744 0.000000 -0.733450 0 0
    0 1.750000 -2.000000 1.750000 -0.242536 -0.970143 0.000000 0 0
    0 3.164214 -2.000000 1.164213 -0.491047 -0.525945 0.694446 0 0
  phy
    0 -0.250000 -2.000000 -0.250000 -0.679744 0.000000 -0.733450 0 0
    0 3.164214 -2.000000 1.164213 -0.491047 -0.525945 0.694446 0 0
    0 3.750000 -2.000000 -0.250000 -0.804305 0.000000 0.594217 0 0
  phy
    0 -0.250000 -2.000000 -0.250000 -0.679744 0.000000 -0.733450 0 0
    0 3.750000 -2.000000 -0.250000 -0.804305 0.000000 0.594217 0 0
    0 1.750000 -2.000000 -2.250000 -0.447214 0.894427 0.000000 0 0
  phy
    0 -0.250000 -2.000000 -0.250000 -0.679744 0.000000 -0.733450 0 0
    0 1.750000 -2.000000 -2.250000 -0.447214 0.894427 0.000000 0 0
    0 0.335786 -2.000000 -1.664214 -0.144901 0.699644 -0.699644 0 0
  phy
    0 1.750000 -2.000000 -2.250000 -0.447214 0.894427 0.000000 0 0
    0 3.750000 -2.000000 -0.250000 -0.804305 0.000000 0.594217 0 0
    0 3.164214 -2.000000 -1.664214 -0.096265 0.600944 0.793473 0 0
  phy
    0 3.164214 -6.000000 -1.664214 0.096264 0.793473 0.600944 0 0
    0 1.750000 -6.000000 -2.250000 0.862856 0.505450 0.000000 0 0
    0 1.750000 -2.000000 -2.250000 -0.447214 0.894427 0.000000 0 0
  phy
    0 3.164214 -6.000000 -1.664214 0.096264 0.793473 0.600944 0 0
    0 1.750000 -2.000000 -2.250000 -0.447214 0.894427 0.000000 0 0
    0 3.164214 -2.000000 -1.664214 -0.096265 0.600944 0.793473 0 0
  phy
    0 0.335786 -2.000000 -1.664214 -0.144901 0.699644 -0.699644 0 0
    0 1.750000 -2.000000 -2.250000 -0.447214 0.894427 0.000000 0 0
    0 0.335786 -6.000000 -1.664214 0.242536 0.685994 -0.685994 0 0
  phy
    0 0.335786 -6.000000 -1.664214 0.242536 0.685994 -0.685994 0 0
    0 1.750000 -2.000000 -2.250000 -0.447214 0.894427 0.000000 0 0
    0 1.750000 -6.000000 -2.250000 0.862856 0.505450 0.000000 0 0
  phy
    0 0.335786 -2.000000 1.164213 -0.144901 -0.699644 -0.699644 0 0
    0 0.335786 -6.000000 1.164213 0.447214 -0.632456 -0.632456 0 0
    0 1.750000 -2.000000 1.750000 -0.242536 -0.970143 0.000000 0 0
  phy
    0 0.335786 -6.000000 1.164213 0.447214 -0.632456 -0.632456 0 0
    0 1.750000 -6.000000 1.750000 0.804305 -0.594217 0.000000 0 0
    0 1.750000 -2.000000 1.750000 -0.242536 -0.970143 0.000000 0 0
  phy
    0 1.750000 -6.000000 1.750000 0.804305 -0.594217 0.000000 0 0
    0 3.164214 -6.000000 1.164213 0.096264 -0.793473 0.600944 0 0
    0 1.750000 -2.000000 1.750000 -0.242536 -0.970143 0.000000 0 0
  phy
    0 1.750000 -2.000000 1.750000 -0.242536 -0.970143 0.000000 0 0
    0 3.164214 -6.000000 1.164213 0.096264 -0.793473 0.600944 0 0
    0 3.164214 -2.000000 1.164213 -0.491047 -0.525945 0.694446 0 0
end
