// Created by Crowbar 0.74
version 1
nodes
  0 "root" -1
  1 "spine" 0
  2 "bip_collar_L" 1
  3 "bip_upperArm_L" 2
  4 "bip_lowerArm_L" 3
  5 "bip_hand_L" 4
  6 "bip_thumb_0_L" 5
  7 "bip_thumb_1_L" 6
  8 "bip_thumb_2_L" 7
  9 "bip_index_meta_0_L" 5
  10 "bip_index_0_L" 9
  11 "bip_index_1_L" 10
  12 "bip_index_2_L" 11
  13 "bip_middle_meta_0_L" 5
  14 "bip_middle_0_L" 13
  15 "bip_middle_1_L" 14
  16 "bip_middle_2_L" 15
  17 "bip_ring_meta_0_L" 5
  18 "bip_ring_0_L" 17
  19 "bip_ring_1_L" 18
  20 "bip_ring_2_L" 19
  21 "bip_pinky_meta_0_L" 5
  22 "bip_pinky_0_L" 21
  23 "bip_pinky_1_L" 22
  24 "bip_pinky_2_L" 23
  25 "bip_helper_L" 4
  26 "bip_collar_R" 1
  27 "bip_upperArm_R" 26
  28 "bip_lowerArm_R" 27
  29 "bip_hand_R" 28
  30 "bip_thumb_0_R" 29
  31 "bip_thumb_1_R" 30
  32 "bip_thumb_2_R" 31
  33 "bip_index_meta_0_R" 29
  34 "bip_index_0_R" 33
  35 "bip_index_1_R" 34
  36 "bip_index_2_R" 35
  37 "bip_middle_meta_0_R" 29
  38 "bip_middle_0_R" 37
  39 "bip_middle_1_R" 38
  40 "bip_middle_2_R" 39
  41 "bip_ring_meta_0_R" 29
  42 "bip_ring_0_R" 41
  43 "bip_ring_1_R" 42
  44 "bip_ring_2_R" 43
  45 "bip_pinky_meta_0_R" 29
  46 "bip_pinky_0_R" 45
  47 "bip_pinky_1_R" 46
  48 "bip_pinky_2_R" 47
  49 "bip_helper_R" 28
  50 "weapon_bone_L" 0
end
skeleton
  time 0
    0 0.000000 -12.125000 -83.062500 1.549470 0.000004 -0.000004
    1 0.000000 65.928001 -3.788860 0.000000 0.000000 0.000000
    2 2.328150 0.000000 0.000000 -0.313426 0.000000 0.000000
    3 8.600150 -0.022797 -0.051090 0.082837 0.223866 -3.039575
    4 0.000000 10.075568 -0.000001 1.768849 -0.125304 -0.171992
    5 0.000002 17.373682 0.000000 0.968132 0.720660 0.733648
    6 0.679043 0.802172 1.783102 0.793913 -0.098345 2.654861
    7 0.000000 -0.000002 2.508970 -0.030906 -0.055064 0.003399
    8 0.000000 0.000001 1.809536 -0.214961 0.000383 -0.005248
    9 0.219777 1.615330 1.611036 -0.507118 1.408360 1.183619
    10 0.000000 -0.000002 3.981597 0.377689 0.007012 -0.156099
    11 0.000000 0.000000 2.375985 0.800987 -0.017328 -0.006860
    12 0.000001 -0.000001 1.603097 0.592164 0.070386 0.010805
    13 -0.091869 1.886059 0.634829 5.076717 1.356014 0.205581
    14 0.000000 0.000000 3.698122 0.753268 0.034549 -0.107612
    15 0.000000 0.000001 2.366730 1.475578 -0.002247 -0.000783
    16 0.000001 -0.000001 2.035123 0.308140 -0.006524 -0.001048
    17 -0.156257 1.870642 -0.501948 4.683136 1.391675 -0.403799
    18 0.000000 0.000001 3.281008 0.692695 -0.009265 -0.168082
    19 0.000000 0.000001 2.688646 1.547853 -0.027354 -0.007996
    20 0.000001 0.000000 1.713443 0.628658 -0.006322 -0.001410
    21 0.146424 1.721204 -1.673858 4.631842 1.387486 -0.616416
    22 -0.000001 0.000000 3.209387 0.584265 -0.034501 -0.532687
    23 0.000000 0.000001 1.943288 1.730861 -0.029961 -0.007493
    24 0.000000 -0.000001 1.241907 0.544731 0.049495 -0.000144
    25 0.000000 10.746529 0.000000 0.000000 0.000000 0.000000
    26 -2.328150 0.000000 0.000000 2.828156 0.000000 0.000000
    27 -8.600150 0.022796 0.051090 3.150332 0.321301 -2.851971
    28 0.000021 10.075568 0.000001 1.928175 0.116914 0.186971
    29 0.000001 17.373682 0.000001 0.802218 -0.663305 -0.656314
    30 -0.679044 0.802172 1.783101 1.088991 -0.652080 -2.442852
    31 0.000001 -0.000001 2.508970 -0.233631 -0.190740 -0.292386
    32 0.000000 -0.000002 1.809535 0.179447 -0.031042 -0.272878
    33 -0.219778 1.615330 1.611036 -0.507118 -1.408360 -1.183618
    34 -0.000001 -0.000002 3.981597 0.150143 -0.103205 -0.057573
    35 0.000001 0.000000 2.375986 0.764030 0.017328 0.006860
    36 0.000000 0.000000 1.603096 0.621906 -0.070387 -0.010803
    37 0.091868 1.886060 0.634828 2.832865 -1.561694 1.957981
    38 0.000000 0.000000 3.698122 0.131223 -0.039264 0.152226
    39 -0.000001 0.000001 2.366730 1.076329 -0.170783 0.211730
    40 0.000001 0.000001 2.035123 0.812749 0.006524 0.001049
    41 0.156257 1.870642 -0.501948 2.828150 -1.480673 2.199620
    42 -0.000001 -0.000001 3.281011 0.464660 0.077693 -0.070272
    43 -0.000001 0.000000 2.688646 1.366424 -0.122134 0.235756
    44 -0.000001 0.000000 1.713443 0.476017 0.006321 0.001410
    45 -0.146424 1.721204 -1.673859 1.045794 -1.484741 4.097058
    46 0.000000 0.000001 3.209387 0.600306 -0.329135 0.218327
    47 0.000000 0.000000 1.943288 1.308968 -0.158256 0.204603
    48 0.000000 0.000000 1.241909 0.221947 -0.049495 0.000143
    49 0.000002 10.746529 0.000001 0.000000 0.000000 0.000000
    50 0.015625 70.203555 15.352807 -0.291850 0.042689 0.037512
  time 1
    0 0.000000 -12.125000 -83.062500 1.549470 0.000004 -0.000004
    1 0.000000 65.928001 -3.788860 0.000000 0.000000 0.000000
    2 2.328150 0.000000 0.000000 -0.313426 0.000000 0.000000
    3 8.600150 -0.022797 -0.051090 0.082810 0.223866 -3.039587
    4 0.000000 10.075568 -0.000001 1.768849 -0.125304 -0.171992
    5 0.000002 17.373682 0.000000 0.968162 0.720660 0.733671
    6 0.679043 0.802172 1.783102 0.793913 -0.098345 2.654861
    7 0.000000 -0.000002 2.508970 -0.030906 -0.055064 0.003399
    8 0.000000 0.000001 1.809536 -0.214961 0.000383 -0.005248
    9 0.219777 1.615330 1.611036 -0.507118 1.408360 1.183619
    10 0.000000 -0.000002 3.981597 0.377689 0.007012 -0.156099
    11 0.000000 0.000000 2.375985 0.800987 -0.017328 -0.006860
    12 0.000001 -0.000001 1.603097 0.592164 0.070386 0.010805
    13 -0.091869 1.886059 0.634829 5.076717 1.356014 0.205515
    14 0.000000 0.000000 3.698122 0.753268 0.034549 -0.107612
    15 0.000000 0.000001 2.366730 1.475578 -0.002247 -0.000783
    16 0.000001 -0.000001 2.035123 0.308140 -0.006524 -0.001048
    17 -0.156257 1.870642 -0.501948 4.683136 1.391675 -0.403799
    18 0.000000 0.000001 3.281008 0.692695 -0.009265 -0.168082
    19 0.000000 0.000001 2.688646 1.547853 -0.027354 -0.007996
    20 0.000001 0.000000 1.713443 0.628658 -0.006322 -0.001410
    21 0.146424 1.721204 -1.673858 4.631842 1.387486 -0.616416
    22 -0.000001 0.000000 3.209387 0.584265 -0.034501 -0.532687
    23 0.000000 0.000001 1.943288 1.730861 -0.029961 -0.007493
    24 0.000000 -0.000001 1.241907 0.544731 0.049495 -0.000144
    25 0.000000 10.746529 0.000000 0.000000 0.000000 0.000000
    26 -2.328150 0.000000 0.000000 2.828156 0.000000 0.000000
    27 -8.600150 0.022796 0.051090 3.150288 0.321313 -2.851995
    28 0.000021 10.075568 0.000001 1.928219 0.116914 0.186971
    29 0.000001 17.373682 0.000001 0.802267 -0.663305 -0.656334
    30 -0.679044 0.802172 1.783101 1.088991 -0.652080 -2.442852
    31 0.000001 -0.000001 2.508970 -0.233631 -0.190740 -0.292386
    32 0.000000 -0.000002 1.809535 0.179447 -0.031042 -0.272878
    33 -0.219778 1.615330 1.611036 -0.507118 -1.408360 -1.183618
    34 -0.000001 -0.000002 3.981597 0.150143 -0.103205 -0.057573
    35 0.000001 0.000000 2.375986 0.764030 0.017328 0.006860
    36 0.000000 0.000000 1.603096 0.621906 -0.070387 -0.010803
    37 0.091868 1.886060 0.634828 2.832853 -1.561694 1.957981
    38 0.000000 0.000000 3.698122 0.131223 -0.039264 0.152226
    39 -0.000001 0.000001 2.366730 1.076329 -0.170783 0.211730
    40 0.000001 0.000001 2.035123 0.812749 0.006524 0.001049
    41 0.156257 1.870642 -0.501948 2.828150 -1.480673 2.199620
    42 -0.000001 -0.000001 3.281011 0.464660 0.077693 -0.070272
    43 -0.000001 0.000000 2.688646 1.366424 -0.122134 0.235756
    44 -0.000001 0.000000 1.713443 0.476017 0.006321 0.001410
    45 -0.146424 1.721204 -1.673859 1.045794 -1.484741 4.097058
    46 0.000000 0.000001 3.209387 0.600306 -0.329135 0.218327
    47 0.000000 0.000000 1.943288 1.309000 -0.158256 0.204603
    48 0.000000 0.000000 1.241909 0.221947 -0.049495 0.000143
    49 0.000002 10.746529 0.000001 0.000000 0.000000 0.000000
    50 0.015625 70.203555 15.352807 -0.291850 0.042689 0.037512
  time 2
    0 0.000000 -12.125000 -83.062500 1.549470 0.000004 -0.000004
    1 0.000000 65.928001 -3.788860 0.000000 0.000000 0.000000
    2 2.328150 0.000000 0.000000 -0.313426 0.000000 0.000000
    3 8.600150 -0.022797 -0.051090 0.082702 0.223878 -3.039599
    4 0.000000 10.075568 -0.000001 1.768849 -0.125304 -0.171992
    5 0.000002 17.373682 0.000000 0.968251 0.720610 0.733715
    6 0.679043 0.802172 1.783102 0.793913 -0.098345 2.654861
    7 0.000000 -0.000002 2.508970 -0.030906 -0.055064 0.003399
    8 0.000000 0.000001 1.809536 -0.214961 0.000383 -0.005248
    9 0.219777 1.615330 1.611036 -0.507118 1.408360 1.183619
    10 0.000000 -0.000002 3.981597 0.377689 0.007012 -0.156099
    11 0.000000 0.000000 2.375985 0.800969 -0.017328 -0.006860
    12 0.000001 -0.000001 1.603097 0.592164 0.070386 0.010805
    13 -0.091869 1.886059 0.634829 5.076717 1.356014 0.205515
    14 0.000000 0.000000 3.698122 0.753268 0.034549 -0.107612
    15 0.000000 0.000001 2.366730 1.475617 -0.002247 -0.000783
    16 0.000001 -0.000001 2.035123 0.308140 -0.006524 -0.001048
    17 -0.156257 1.870642 -0.501948 4.683136 1.391675 -0.403799
    18 0.000000 0.000001 3.281008 0.692695 -0.009265 -0.168082
    19 0.000000 0.000001 2.688646 1.547853 -0.027354 -0.007996
    20 0.000001 0.000000 1.713443 0.628658 -0.006322 -0.001410
    21 0.146424 1.721204 -1.673858 4.631842 1.387486 -0.616416
    22 -0.000001 0.000000 3.209387 0.584265 -0.034501 -0.532687
    23 0.000000 0.000001 1.943288 1.730861 -0.029961 -0.007493
    24 0.000000 -0.000001 1.241907 0.544731 0.049495 -0.000144
    25 0.000000 10.746529 0.000000 0.000000 0.000000 0.000000
    26 -2.328150 0.000000 0.000000 2.828156 0.000000 0.000000
    27 -8.600150 0.022796 0.051090 3.150201 0.321350 -2.852031
    28 0.000021 10.075568 0.000001 1.928219 0.116914 0.186971
    29 0.000001 17.373682 0.000001 0.802366 -0.663252 -0.656414
    30 -0.679044 0.802172 1.783101 1.088991 -0.652080 -2.442852
    31 0.000001 -0.000001 2.508970 -0.233631 -0.190740 -0.292386
    32 0.000000 -0.000002 1.809535 0.179447 -0.031042 -0.272878
    33 -0.219778 1.615330 1.611036 -0.507118 -1.408360 -1.183618
    34 -0.000001 -0.000002 3.981597 0.150143 -0.103205 -0.057573
    35 0.000001 0.000000 2.375986 0.764030 0.017328 0.006860
    36 0.000000 0.000000 1.603096 0.621906 -0.070387 -0.010803
    37 0.091868 1.886060 0.634828 2.832865 -1.561694 1.957981
    38 0.000000 0.000000 3.698122 0.131223 -0.039264 0.152226
    39 -0.000001 0.000001 2.366730 1.076329 -0.170783 0.211730
    40 0.000001 0.000001 2.035123 0.812749 0.006524 0.001049
    41 0.156257 1.870642 -0.501948 2.828150 -1.480673 2.199620
    42 -0.000001 -0.000001 3.281011 0.464660 0.077693 -0.070272
    43 -0.000001 0.000000 2.688646 1.366424 -0.122134 0.235756
    44 -0.000001 0.000000 1.713443 0.476017 0.006321 0.001410
    45 -0.146424 1.721204 -1.673859 1.045794 -1.484741 4.097058
    46 0.000000 0.000001 3.209387 0.600306 -0.329135 0.218327
    47 0.000000 0.000000 1.943288 1.308968 -0.158256 0.204603
    48 0.000000 0.000000 1.241909 0.221947 -0.049495 0.000143
    49 0.000002 10.746529 0.000001 0.000000 0.000000 0.000000
    50 0.015625 70.199648 15.352807 -0.291850 0.042689 0.037512
  time 3
    0 0.000000 -12.125000 -83.062500 1.549470 0.000004 -0.000004
    1 0.000000 65.928001 -3.788860 0.000000 0.000000 0.000000
    2 2.328150 0.000000 0.000000 -0.313426 0.000000 0.000000
    3 8.600150 -0.022797 -0.051090 0.082567 0.223890 -3.039635
    4 0.000000 10.075568 -0.000001 1.768849 -0.125304 -0.171992
    5 0.000002 17.373682 0.000000 0.968400 0.720536 0.733783
    6 0.679043 0.802172 1.783102 0.793913 -0.098345 2.654861
    7 0.000000 -0.000002 2.508970 -0.030906 -0.055064 0.003399
    8 0.000000 0.000001 1.809536 -0.214961 0.000383 -0.005248
    9 0.219777 1.615330 1.611036 -0.507118 1.408360 1.183619
    10 0.000000 -0.000002 3.981597 0.377689 0.007012 -0.156099
    11 0.000000 0.000000 2.375985 0.800969 -0.017328 -0.006860
    12 0.000001 -0.000001 1.603097 0.592164 0.070386 0.010805
    13 -0.091869 1.886059 0.634829 5.076717 1.356014 0.205515
    14 0.000000 0.000000 3.698122 0.753268 0.034549 -0.107612
    15 0.000000 0.000001 2.366730 1.475578 -0.002247 -0.000783
    16 0.000001 -0.000001 2.035123 0.308140 -0.006524 -0.001048
    17 -0.156257 1.870642 -0.501948 4.683136 1.391675 -0.403799
    18 0.000000 0.000001 3.281008 0.692695 -0.009265 -0.168082
    19 0.000000 0.000001 2.688646 1.547853 -0.027354 -0.007996
    20 0.000001 0.000000 1.713443 0.628658 -0.006322 -0.001410
    21 0.146424 1.721204 -1.673858 4.631842 1.387486 -0.616416
    22 -0.000001 0.000000 3.209387 0.584265 -0.034501 -0.532687
    23 0.000000 0.000001 1.943288 1.730861 -0.029961 -0.007493
    24 0.000000 -0.000001 1.241907 0.544731 0.049495 -0.000144
    25 0.000000 10.746529 0.000000 0.000000 0.000000 0.000000
    26 -2.328150 0.000000 0.000000 2.828156 0.000000 0.000000
    27 -8.600150 0.022796 0.051090 3.150047 0.321388 -2.852091
    28 0.000021 10.075568 0.000001 1.928219 0.116902 0.186971
    29 0.000001 17.373682 0.000001 0.802537 -0.663225 -0.656514
    30 -0.679044 0.802172 1.783101 1.088991 -0.652080 -2.442852
    31 0.000001 -0.000001 2.508970 -0.233631 -0.190740 -0.292386
    32 0.000000 -0.000002 1.809535 0.179447 -0.031042 -0.272878
    33 -0.219778 1.615330 1.611036 -0.507118 -1.408360 -1.183618
    34 -0.000001 -0.000002 3.981597 0.150143 -0.103205 -0.057573
    35 0.000001 0.000000 2.375986 0.764030 0.017328 0.006860
    36 0.000000 0.000000 1.603096 0.621906 -0.070387 -0.010803
    37 0.091868 1.886060 0.634828 2.832853 -1.561694 1.957981
    38 0.000000 0.000000 3.698122 0.131223 -0.039264 0.152226
    39 -0.000001 0.000001 2.366730 1.076329 -0.170783 0.211730
    40 0.000001 0.000001 2.035123 0.812749 0.006524 0.001049
    41 0.156257 1.870642 -0.501948 2.828150 -1.480673 2.199620
    42 -0.000001 -0.000001 3.281011 0.464660 0.077693 -0.070272
    43 -0.000001 0.000000 2.688646 1.366424 -0.122134 0.235756
    44 -0.000001 0.000000 1.713443 0.476017 0.006321 0.001410
    45 -0.146424 1.721204 -1.673859 1.045794 -1.484741 4.097058
    46 0.000000 0.000001 3.209387 0.600306 -0.329135 0.218327
    47 0.000000 0.000000 1.943288 1.308968 -0.158256 0.204603
    48 0.000000 0.000000 1.241909 0.221947 -0.049495 0.000143
    49 0.000002 10.746529 0.000001 0.000000 0.000000 0.000000
    50 0.015625 70.199648 15.352807 -0.291850 0.042689 0.037512
  time 4
    0 0.000000 -12.125000 -83.062500 1.549470 0.000004 -0.000004
    1 0.000000 65.928001 -3.788860 0.000000 0.000000 0.000000
    2 2.328150 0.000000 0.000000 -0.313426 0.000000 0.000000
    3 8.600150 -0.022797 -0.051090 0.082405 0.223902 -3.039671
    4 0.000000 10.075568 -0.000001 1.768889 -0.125304 -0.171992
    5 0.000002 17.373682 0.000000 0.968549 0.720437 0.733872
    6 0.679043 0.802172 1.783102 0.793913 -0.098345 2.654861
    7 0.000000 -0.000002 2.508970 -0.030906 -0.055064 0.003399
    8 0.000000 0.000001 1.809536 -0.214961 0.000383 -0.005248
    9 0.219777 1.615330 1.611036 -0.507118 1.408360 1.183619
    10 0.000000 -0.000002 3.981597 0.377689 0.007012 -0.156099
    11 0.000000 0.000000 2.375985 0.800969 -0.017328 -0.006860
    12 0.000001 -0.000001 1.603097 0.592164 0.070386 0.010805
    13 -0.091869 1.886059 0.634829 5.076717 1.356014 0.205515
    14 0.000000 0.000000 3.698122 0.753268 0.034549 -0.107612
    15 0.000000 0.000001 2.366730 1.475578 -0.002247 -0.000783
    16 0.000001 -0.000001 2.035123 0.308140 -0.006524 -0.001048
    17 -0.156257 1.870642 -0.501948 4.683136 1.391675 -0.403799
    18 0.000000 0.000001 3.281008 0.692695 -0.009265 -0.168082
    19 0.000000 0.000001 2.688646 1.547853 -0.027354 -0.007996
    20 0.000001 0.000000 1.713443 0.628658 -0.006322 -0.001410
    21 0.146424 1.721204 -1.673858 4.631842 1.387486 -0.616416
    22 -0.000001 0.000000 3.209387 0.584265 -0.034501 -0.532687
    23 0.000000 0.000001 1.943288 1.730861 -0.029961 -0.007493
    24 0.000000 -0.000001 1.241907 0.544731 0.049495 -0.000144
    25 0.000000 10.746529 0.000000 0.000000 0.000000 0.000000
    26 -2.328150 0.000000 0.000000 2.828156 0.000000 0.000000
    27 -8.600150 0.022796 0.051090 3.149849 0.321438 -2.852175
    28 0.000021 10.075568 0.000001 1.928219 0.116902 0.186971
    29 0.000001 17.373682 0.000001 0.802758 -0.663172 -0.656635
    30 -0.679044 0.802172 1.783101 1.088991 -0.652080 -2.442852
    31 0.000001 -0.000001 2.508970 -0.233631 -0.190740 -0.292386
    32 0.000000 -0.000002 1.809535 0.179447 -0.031042 -0.272878
    33 -0.219778 1.615330 1.611036 -0.507118 -1.408360 -1.183618
    34 -0.000001 -0.000002 3.981597 0.150143 -0.103205 -0.057573
    35 0.000001 0.000000 2.375986 0.764030 0.017328 0.006860
    36 0.000000 0.000000 1.603096 0.621906 -0.070387 -0.010803
    37 0.091868 1.886060 0.634828 2.832853 -1.561694 1.957981
    38 0.000000 0.000000 3.698122 0.131223 -0.039264 0.152226
    39 -0.000001 0.000001 2.366730 1.076329 -0.170783 0.211730
    40 0.000001 0.000001 2.035123 0.812749 0.006524 0.001049
    41 0.156257 1.870642 -0.501948 2.828150 -1.480673 2.199620
    42 -0.000001 -0.000001 3.281011 0.464660 0.077693 -0.070272
    43 -0.000001 0.000000 2.688646 1.366424 -0.122134 0.235756
    44 -0.000001 0.000000 1.713443 0.476017 0.006321 0.001410
    45 -0.146424 1.721204 -1.673859 1.045794 -1.484741 4.097058
    46 0.000000 0.000001 3.209387 0.600306 -0.329135 0.218327
    47 0.000000 0.000000 1.943288 1.308968 -0.158256 0.204603
    48 0.000000 0.000000 1.241909 0.221947 -0.049495 0.000143
    49 0.000002 10.746529 0.000001 0.000000 0.000000 0.000000
    50 0.015625 70.195742 15.352807 -0.291850 0.042689 0.037512
  time 5
    0 0.000000 -12.125000 -83.062500 1.549470 0.000004 -0.000004
    1 0.000000 65.928001 -3.788860 0.000000 0.000000 0.000000
    2 2.328150 0.000000 0.000000 -0.313426 0.000000 0.000000
    3 8.600150 -0.022797 -0.051090 0.082216 0.223914 -3.039707
    4 0.000000 10.075568 -0.000001 1.768889 -0.125304 -0.171992
    5 0.000002 17.373682 0.000000 0.968728 0.720314 0.733984
    6 0.679043 0.802172 1.783102 0.793913 -0.098345 2.654861
    7 0.000000 -0.000002 2.508970 -0.030906 -0.055064 0.003399
    8 0.000000 0.000001 1.809536 -0.214961 0.000383 -0.005248
    9 0.219777 1.615330 1.611036 -0.507118 1.408360 1.183619
    10 0.000000 -0.000002 3.981597 0.377689 0.007012 -0.156099
    11 0.000000 0.000000 2.375985 0.800987 -0.017328 -0.006860
    12 0.000001 -0.000001 1.603097 0.592164 0.070386 0.010805
    13 -0.091869 1.886059 0.634829 5.076717 1.356014 0.205515
    14 0.000000 0.000000 3.698122 0.753268 0.034549 -0.107612
    15 0.000000 0.000001 2.366730 1.475578 -0.002247 -0.000783
    16 0.000001 -0.000001 2.035123 0.308140 -0.006524 -0.001048
    17 -0.156257 1.870642 -0.501948 4.683136 1.391675 -0.403799
    18 0.000000 0.000001 3.281008 0.692695 -0.009265 -0.168082
    19 0.000000 0.000001 2.688646 1.547853 -0.027354 -0.007996
    20 0.000001 0.000000 1.713443 0.628658 -0.006322 -0.001410
    21 0.146424 1.721204 -1.673858 4.631842 1.387486 -0.616416
    22 -0.000001 0.000000 3.209387 0.584265 -0.034501 -0.532687
    23 0.000000 0.000001 1.943288 1.730861 -0.029961 -0.007493
    24 0.000000 -0.000001 1.241907 0.544731 0.049495 -0.000144
    25 0.000000 10.746529 0.000000 0.000000 0.000000 0.000000
    26 -2.328150 0.000000 0.000000 2.828156 0.000000 0.000000
    27 -8.600150 0.022796 0.051090 3.149652 0.321500 -2.852258
    28 0.000021 10.075568 0.000001 1.928263 0.116902 0.186971
    29 0.000001 17.373682 0.000001 0.802979 -0.663119 -0.656795
    30 -0.679044 0.802172 1.783101 1.088991 -0.652080 -2.442852
    31 0.000001 -0.000001 2.508970 -0.233631 -0.190740 -0.292386
    32 0.000000 -0.000002 1.809535 0.179447 -0.031042 -0.272878
    33 -0.219778 1.615330 1.611036 -0.507118 -1.408360 -1.183618
    34 -0.000001 -0.000002 3.981597 0.150143 -0.103205 -0.057573
    35 0.000001 0.000000 2.375986 0.764030 0.017328 0.006860
    36 0.000000 0.000000 1.603096 0.621906 -0.070387 -0.010803
    37 0.091868 1.886060 0.634828 2.832853 -1.561694 1.957981
    38 0.000000 0.000000 3.698122 0.131223 -0.039264 0.152226
    39 -0.000001 0.000001 2.366730 1.076329 -0.170783 0.211730
    40 0.000001 0.000001 2.035123 0.812749 0.006524 0.001049
    41 0.156257 1.870642 -0.501948 2.828138 -1.480673 2.199620
    42 -0.000001 -0.000001 3.281011 0.464660 0.077693 -0.070272
    43 -0.000001 0.000000 2.688646 1.366424 -0.122134 0.235756
    44 -0.000001 0.000000 1.713443 0.476017 0.006321 0.001410
    45 -0.146424 1.721204 -1.673859 1.045794 -1.484741 4.097058
    46 0.000000 0.000001 3.209387 0.600306 -0.329135 0.218327
    47 0.000000 0.000000 1.943288 1.308968 -0.158256 0.204603
    48 0.000000 0.000000 1.241909 0.221947 -0.049495 0.000143
    49 0.000002 10.746529 0.000001 0.000000 0.000000 0.000000
    50 0.015625 70.191836 15.352807 -0.291850 0.042689 0.037512
  time 6
    0 0.000000 -12.125000 -83.062500 1.549470 0.000004 -0.000004
    1 0.000000 65.928001 -3.788860 0.000000 0.000000 0.000000
    2 2.328150 0.000000 0.000000 -0.313426 0.000000 0.000000
    3 8.600150 -0.022797 -0.051090 0.082026 0.223926 -3.039755
    4 0.000000 10.075568 -0.000001 1.768889 -0.125304 -0.171992
    5 0.000002 17.373682 0.000000 0.968936 0.720215 0.734074
    6 0.679043 0.802172 1.783102 0.793913 -0.098345 2.654861
    7 0.000000 -0.000002 2.508970 -0.030906 -0.055064 0.003399
    8 0.000000 0.000001 1.809536 -0.214961 0.000383 -0.005248
    9 0.219777 1.615330 1.611036 -0.507118 1.408360 1.183619
    10 0.000000 -0.000002 3.981597 0.377689 0.007012 -0.156099
    11 0.000000 0.000000 2.375985 0.800987 -0.017328 -0.006860
    12 0.000001 -0.000001 1.603097 0.592164 0.070386 0.010805
    13 -0.091869 1.886059 0.634829 5.076717 1.356014 0.205515
    14 0.000000 0.000000 3.698122 0.753268 0.034549 -0.107612
    15 0.000000 0.000001 2.366730 1.475578 -0.002247 -0.000783
    16 0.000001 -0.000001 2.035123 0.308140 -0.006524 -0.001048
    17 -0.156257 1.870642 -0.501948 4.683136 1.391675 -0.403799
    18 0.000000 0.000001 3.281008 0.692695 -0.009265 -0.168082
    19 0.000000 0.000001 2.688646 1.547853 -0.027354 -0.007996
    20 0.000001 0.000000 1.713443 0.628658 -0.006322 -0.001410
    21 0.146424 1.721204 -1.673858 4.631842 1.387486 -0.616416
    22 -0.000001 0.000000 3.209387 0.584265 -0.034501 -0.532687
    23 0.000000 0.000001 1.943288 1.730861 -0.029961 -0.007493
    24 0.000000 -0.000001 1.241907 0.544731 0.049495 -0.000144
    25 0.000000 10.746529 0.000000 0.000000 0.000000 0.000000
    26 -2.328150 0.000000 0.000000 2.828156 0.000000 0.000000
    27 -8.600150 0.022796 0.051090 3.149432 0.321562 -2.852342
    28 0.000021 10.075568 0.000001 1.928263 0.116902 0.186971
    29 0.000001 17.373682 0.000001 0.803224 -0.663038 -0.656936
    30 -0.679044 0.802172 1.783101 1.088991 -0.652080 -2.442852
    31 0.000001 -0.000001 2.508970 -0.233631 -0.190740 -0.292386
    32 0.000000 -0.000002 1.809535 0.179447 -0.031042 -0.272878
    33 -0.219778 1.615330 1.611036 -0.507118 -1.408360 -1.183618
    34 -0.000001 -0.000002 3.981597 0.150143 -0.103205 -0.057573
    35 0.000001 0.000000 2.375986 0.764030 0.017328 0.006860
    36 0.000000 0.000000 1.603096 0.621906 -0.070387 -0.010803
    37 0.091868 1.886060 0.634828 2.832853 -1.561694 1.957981
    38 0.000000 0.000000 3.698122 0.131223 -0.039264 0.152226
    39 -0.000001 0.000001 2.366730 1.076329 -0.170783 0.211730
    40 0.000001 0.000001 2.035123 0.812749 0.006524 0.001049
    41 0.156257 1.870642 -0.501948 2.828150 -1.480673 2.199620
    42 -0.000001 -0.000001 3.281011 0.464660 0.077693 -0.070272
    43 -0.000001 0.000000 2.688646 1.366424 -0.122134 0.235756
    44 -0.000001 0.000000 1.713443 0.476017 0.006321 0.001410
    45 -0.146424 1.721204 -1.673859 1.045794 -1.484741 4.097058
    46 0.000000 0.000001 3.209387 0.600306 -0.329135 0.218327
    47 0.000000 0.000000 1.943288 1.309000 -0.158256 0.204603
    48 0.000000 0.000000 1.241909 0.221947 -0.049495 0.000143
    49 0.000002 10.746529 0.000001 0.000000 0.000000 0.000000
    50 0.015625 70.187929 15.352807 -0.291850 0.042689 0.037512
  time 7
    0 0.000000 -12.125000 -83.062500 1.549470 0.000004 -0.000004
    1 0.000000 65.928001 -3.788860 0.000000 0.000000 0.000000
    2 2.328150 0.000000 0.000000 -0.313426 0.000000 0.000000
    3 8.600150 -0.022797 -0.051090 0.081837 0.223938 -3.039791
    4 0.000000 10.075568 -0.000001 1.768889 -0.125304 -0.171992
    5 0.000002 17.373682 0.000000 0.969115 0.720116 0.734164
    6 0.679043 0.802172 1.783102 0.793913 -0.098345 2.654861
    7 0.000000 -0.000002 2.508970 -0.030906 -0.055064 0.003399
    8 0.000000 0.000001 1.809536 -0.214961 0.000383 -0.005248
    9 0.219777 1.615330 1.611036 -0.507118 1.408360 1.183619
    10 0.000000 -0.000002 3.981597 0.377689 0.007012 -0.156099
    11 0.000000 0.000000 2.375985 0.800987 -0.017328 -0.006860
    12 0.000001 -0.000001 1.603097 0.592164 0.070386 0.010805
    13 -0.091869 1.886059 0.634829 5.076717 1.356014 0.205515
    14 0.000000 0.000000 3.698122 0.753268 0.034549 -0.107612
    15 0.000000 0.000001 2.366730 1.475617 -0.002247 -0.000783
    16 0.000001 -0.000001 2.035123 0.308140 -0.006524 -0.001048
    17 -0.156257 1.870642 -0.501948 4.683136 1.391675 -0.403799
    18 0.000000 0.000001 3.281008 0.692695 -0.009265 -0.168082
    19 0.000000 0.000001 2.688646 1.547853 -0.027354 -0.007996
    20 0.000001 0.000000 1.713443 0.628658 -0.006322 -0.001410
    21 0.146424 1.721204 -1.673858 4.631842 1.387486 -0.616416
    22 -0.000001 0.000000 3.209387 0.584282 -0.034501 -0.532687
    23 0.000000 0.000001 1.943288 1.730861 -0.029961 -0.007493
    24 0.000000 -0.000001 1.241907 0.544731 0.049495 -0.000144
    25 0.000000 10.746529 0.000000 0.000000 0.000000 0.000000
    26 -2.328150 0.000000 0.000000 2.828156 0.000000 0.000000
    27 -8.600150 0.022796 0.051090 3.149234 0.321612 -2.852438
    28 0.000021 10.075568 0.000001 1.928263 0.116902 0.186971
    29 0.000001 17.373682 0.000001 0.803445 -0.662985 -0.657076
    30 -0.679044 0.802172 1.783101 1.088991 -0.652080 -2.442852
    31 0.000001 -0.000001 2.508970 -0.233631 -0.190740 -0.292386
    32 0.000000 -0.000002 1.809535 0.179447 -0.031042 -0.272878
    33 -0.219778 1.615330 1.611036 -0.507118 -1.408360 -1.183618
    34 -0.000001 -0.000002 3.981597 0.150143 -0.103205 -0.057573
    35 0.000001 0.000000 2.375986 0.764030 0.017328 0.006860
    36 0.000000 0.000000 1.603096 0.621906 -0.070387 -0.010803
    37 0.091868 1.886060 0.634828 2.832853 -1.561694 1.957969
    38 0.000000 0.000000 3.698122 0.131223 -0.039264 0.152226
    39 -0.000001 0.000001 2.366730 1.076329 -0.170783 0.211730
    40 0.000001 0.000001 2.035123 0.812749 0.006524 0.001049
    41 0.156257 1.870642 -0.501948 2.828138 -1.480673 2.199620
    42 -0.000001 -0.000001 3.281011 0.464660 0.077693 -0.070272
    43 -0.000001 0.000000 2.688646 1.366424 -0.122134 0.235756
    44 -0.000001 0.000000 1.713443 0.476017 0.006321 0.001410
    45 -0.146424 1.721204 -1.673859 1.045794 -1.484741 4.097123
    46 0.000000 0.000001 3.209387 0.600306 -0.329135 0.218327
    47 0.000000 0.000000 1.943288 1.309000 -0.158256 0.204603
    48 0.000000 0.000000 1.241909 0.221947 -0.049495 0.000143
    49 0.000002 10.746529 0.000001 0.000000 0.000000 0.000000
    50 0.015625 70.187929 15.352807 -0.291850 0.042689 0.037512
  time 8
    0 0.000000 -12.125000 -83.062500 1.549470 0.000004 -0.000004
    1 0.000000 65.928001 -3.788860 0.000000 0.000000 0.000000
    2 2.328150 0.000000 0.000000 -0.313426 0.000000 0.000000
    3 8.600150 -0.022797 -0.051090 0.081675 0.223950 -3.039827
    4 0.000000 10.075568 -0.000001 1.768889 -0.125304 -0.172004
    5 0.000002 17.373682 0.000000 0.969264 0.720017 0.734253
    6 0.679043 0.802172 1.783102 0.793913 -0.098345 2.654861
    7 0.000000 -0.000002 2.508970 -0.030906 -0.055064 0.003399
    8 0.000000 0.000001 1.809536 -0.214961 0.000383 -0.005248
    9 0.219777 1.615330 1.611036 -0.507118 1.408360 1.183619
    10 0.000000 -0.000002 3.981597 0.377689 0.007012 -0.156099
    11 0.000000 0.000000 2.375985 0.800987 -0.017328 -0.006860
    12 0.000001 -0.000001 1.603097 0.592164 0.070386 0.010805
    13 -0.091869 1.886059 0.634829 5.076717 1.356014 0.205515
    14 0.000000 0.000000 3.698122 0.753268 0.034549 -0.107612
    15 0.000000 0.000001 2.366730 1.475578 -0.002247 -0.000783
    16 0.000001 -0.000001 2.035123 0.308140 -0.006524 -0.001048
    17 -0.156257 1.870642 -0.501948 4.683136 1.391675 -0.403799
    18 0.000000 0.000001 3.281008 0.692695 -0.009265 -0.168082
    19 0.000000 0.000001 2.688646 1.547853 -0.027354 -0.007996
    20 0.000001 0.000000 1.713443 0.628658 -0.006322 -0.001410
    21 0.146424 1.721204 -1.673858 4.631842 1.387486 -0.616416
    22 -0.000001 0.000000 3.209387 0.584265 -0.034501 -0.532687
    23 0.000000 0.000001 1.943288 1.730861 -0.029961 -0.007493
    24 0.000000 -0.000001 1.241907 0.544731 0.049495 -0.000144
    25 0.000000 10.746529 0.000000 0.000000 0.000000 0.000000
    26 -2.328150 0.000000 0.000000 2.828156 0.000000 0.000000
    27 -8.600150 0.022796 0.051090 3.149037 0.321674 -2.852510
    28 0.000021 10.075568 0.000001 1.928307 0.116902 0.186971
    29 0.000001 17.373682 0.000001 0.803666 -0.662932 -0.657217
    30 -0.679044 0.802172 1.783101 1.088991 -0.652080 -2.442852
    31 0.000001 -0.000001 2.508970 -0.233631 -0.190740 -0.292386
    32 0.000000 -0.000002 1.809535 0.179447 -0.031042 -0.272878
    33 -0.219778 1.615330 1.611036 -0.507118 -1.408360 -1.183618
    34 -0.000001 -0.000002 3.981597 0.150143 -0.103205 -0.057573
    35 0.000001 0.000000 2.375986 0.764030 0.017328 0.006860
    36 0.000000 0.000000 1.603096 0.621906 -0.070387 -0.010803
    37 0.091868 1.886060 0.634828 2.832865 -1.561694 1.957981
    38 0.000000 0.000000 3.698122 0.131223 -0.039264 0.152226
    39 -0.000001 0.000001 2.366730 1.076329 -0.170783 0.211730
    40 0.000001 0.000001 2.035123 0.812749 0.006524 0.001049
    41 0.156257 1.870642 -0.501948 2.828150 -1.480673 2.199620
    42 -0.000001 -0.000001 3.281011 0.464660 0.077693 -0.070272
    43 -0.000001 0.000000 2.688646 1.366424 -0.122134 0.235756
    44 -0.000001 0.000000 1.713443 0.476017 0.006321 0.001410
    45 -0.146424 1.721204 -1.673859 1.045794 -1.484741 4.097058
    46 0.000000 0.000001 3.209387 0.600306 -0.329135 0.218327
    47 0.000000 0.000000 1.943288 1.308968 -0.158256 0.204603
    48 0.000000 0.000000 1.241909 0.221947 -0.049495 0.000143
    49 0.000002 10.746529 0.000001 0.000000 0.000000 0.000000
    50 0.015625 70.184023 15.352807 -0.291850 0.042689 0.037512
  time 9
    0 0.000000 -12.125000 -83.062500 1.549470 0.000004 -0.000004
    1 0.000000 65.928001 -3.788860 0.000000 0.000000 0.000000
    2 2.328150 0.000000 0.000000 -0.313426 0.000000 0.000000
    3 8.600150 -0.022797 -0.051090 0.081540 0.223950 -3.039851
    4 0.000000 10.075568 -0.000001 1.768889 -0.125304 -0.172004
    5 0.000002 17.373682 0.000000 0.969413 0.719943 0.734321
    6 0.679043 0.802172 1.783102 0.793913 -0.098345 2.654861
    7 0.000000 -0.000002 2.508970 -0.030906 -0.055064 0.003399
    8 0.000000 0.000001 1.809536 -0.214961 0.000383 -0.005248
    9 0.219777 1.615330 1.611036 -0.507118 1.408360 1.183619
    10 0.000000 -0.000002 3.981597 0.377689 0.007012 -0.156099
    11 0.000000 0.000000 2.375985 0.800969 -0.017328 -0.006860
    12 0.000001 -0.000001 1.603097 0.592164 0.070386 0.010805
    13 -0.091869 1.886059 0.634829 5.076717 1.356014 0.205515
    14 0.000000 0.000000 3.698122 0.753268 0.034549 -0.107612
    15 0.000000 0.000001 2.366730 1.475578 -0.002247 -0.000783
    16 0.000001 -0.000001 2.035123 0.308140 -0.006524 -0.001048
    17 -0.156257 1.870642 -0.501948 4.683136 1.391675 -0.403799
    18 0.000000 0.000001 3.281008 0.692695 -0.009265 -0.168082
    19 0.000000 0.000001 2.688646 1.547853 -0.027354 -0.007996
    20 0.000001 0.000000 1.713443 0.628658 -0.006322 -0.001410
    21 0.146424 1.721204 -1.673858 4.631842 1.387486 -0.616416
    22 -0.000001 0.000000 3.209387 0.584265 -0.034501 -0.532687
    23 0.000000 0.000001 1.943288 1.730861 -0.029961 -0.007493
    24 0.000000 -0.000001 1.241907 0.544731 0.049495 -0.000144
    25 0.000000 10.746529 0.000000 0.000000 0.000000 0.000000
    26 -2.328150 0.000000 0.000000 2.828156 0.000000 0.000000
    27 -8.600150 0.022796 0.051090 3.148883 0.321711 -2.852570
    28 0.000021 10.075568 0.000001 1.928307 0.116902 0.186971
    29 0.000001 17.373682 0.000001 0.803838 -0.662905 -0.657317
    30 -0.679044 0.802172 1.783101 1.088991 -0.652080 -2.442852
    31 0.000001 -0.000001 2.508970 -0.233631 -0.190740 -0.292386
    32 0.000000 -0.000002 1.809535 0.179447 -0.031042 -0.272878
    33 -0.219778 1.615330 1.611036 -0.507118 -1.408360 -1.183618
    34 -0.000001 -0.000002 3.981597 0.150143 -0.103205 -0.057573
    35 0.000001 0.000000 2.375986 0.764046 0.017328 0.006860
    36 0.000000 0.000000 1.603096 0.621906 -0.070387 -0.010803
    37 0.091868 1.886060 0.634828 2.832853 -1.561694 1.957981
    38 0.000000 0.000000 3.698122 0.131223 -0.039264 0.152226
    39 -0.000001 0.000001 2.366730 1.076329 -0.170783 0.211730
    40 0.000001 0.000001 2.035123 0.812749 0.006524 0.001049
    41 0.156257 1.870642 -0.501948 2.828138 -1.480673 2.199620
    42 -0.000001 -0.000001 3.281011 0.464660 0.077693 -0.070272
    43 -0.000001 0.000000 2.688646 1.366424 -0.122134 0.235756
    44 -0.000001 0.000000 1.713443 0.476017 0.006321 0.001410
    45 -0.146424 1.721204 -1.673859 1.045794 -1.484741 4.097058
    46 0.000000 0.000001 3.209387 0.600306 -0.329135 0.218327
    47 0.000000 0.000000 1.943288 1.308968 -0.158256 0.204603
    48 0.000000 0.000000 1.241909 0.221947 -0.049495 0.000143
    49 0.000002 10.746529 0.000001 0.000000 0.000000 0.000000
    50 0.015625 70.180117 15.352807 -0.291850 0.042689 0.037512
  time 10
    0 0.000000 -12.125000 -83.062500 1.549470 0.000004 -0.000004
    1 0.000000 65.928001 -3.788860 0.000000 0.000000 0.000000
    2 2.328150 0.000000 0.000000 -0.313426 0.000000 0.000000
    3 8.600150 -0.022797 -0.051090 0.081459 0.223950 -3.039863
    4 0.000000 10.075568 -0.000001 1.768889 -0.125304 -0.172004
    5 0.000002 17.373682 0.000000 0.969472 0.719894 0.734365
    6 0.679043 0.802172 1.783102 0.793913 -0.098345 2.654861
    7 0.000000 -0.000002 2.508970 -0.030906 -0.055064 0.003399
    8 0.000000 0.000001 1.809536 -0.214961 0.000383 -0.005248
    9 0.219777 1.615330 1.611036 -0.507118 1.408360 1.183619
    10 0.000000 -0.000002 3.981597 0.377689 0.007012 -0.156099
    11 0.000000 0.000000 2.375985 0.800969 -0.017328 -0.006860
    12 0.000001 -0.000001 1.603097 0.592164 0.070386 0.010805
    13 -0.091869 1.886059 0.634829 5.076717 1.356014 0.205515
    14 0.000000 0.000000 3.698122 0.753268 0.034549 -0.107612
    15 0.000000 0.000001 2.366730 1.475578 -0.002247 -0.000783
    16 0.000001 -0.000001 2.035123 0.308140 -0.006524 -0.001048
    17 -0.156257 1.870642 -0.501948 4.683136 1.391675 -0.403799
    18 0.000000 0.000001 3.281008 0.692695 -0.009265 -0.168082
    19 0.000000 0.000001 2.688646 1.547853 -0.027354 -0.007996
    20 0.000001 0.000000 1.713443 0.628658 -0.006322 -0.001410
    21 0.146424 1.721204 -1.673858 4.631842 1.387486 -0.616416
    22 -0.000001 0.000000 3.209387 0.584265 -0.034501 -0.532687
    23 0.000000 0.000001 1.943288 1.730861 -0.029961 -0.007493
    24 0.000000 -0.000001 1.241907 0.544731 0.049495 -0.000144
    25 0.000000 10.746529 0.000000 0.000000 0.000000 0.000000
    26 -2.328150 0.000000 0.000000 2.828156 0.000000 0.000000
    27 -8.600150 0.022796 0.051090 3.148795 0.321749 -2.852618
    28 0.000021 10.075568 0.000001 1.928307 0.116902 0.186971
    29 0.000001 17.373682 0.000001 0.803960 -0.662878 -0.657397
    30 -0.679044 0.802172 1.783101 1.088991 -0.652080 -2.442852
    31 0.000001 -0.000001 2.508970 -0.233631 -0.190740 -0.292386
    32 0.000000 -0.000002 1.809535 0.179447 -0.031042 -0.272878
    33 -0.219778 1.615330 1.611036 -0.507118 -1.408360 -1.183618
    34 -0.000001 -0.000002 3.981597 0.150143 -0.103205 -0.057573
    35 0.000001 0.000000 2.375986 0.764030 0.017328 0.006860
    36 0.000000 0.000000 1.603096 0.621906 -0.070387 -0.010803
    37 0.091868 1.886060 0.634828 2.832853 -1.561694 1.957969
    38 0.000000 0.000000 3.698122 0.131223 -0.039264 0.152226
    39 -0.000001 0.000001 2.366730 1.076329 -0.170783 0.211730
    40 0.000001 0.000001 2.035123 0.812749 0.006524 0.001049
    41 0.156257 1.870642 -0.501948 2.828138 -1.480673 2.199620
    42 -0.000001 -0.000001 3.281011 0.464660 0.077693 -0.070272
    43 -0.000001 0.000000 2.688646 1.366424 -0.122134 0.235756
    44 -0.000001 0.000000 1.713443 0.476017 0.006321 0.001410
    45 -0.146424 1.721204 -1.673859 1.045794 -1.484741 4.097058
    46 0.000000 0.000001 3.209387 0.600306 -0.329135 0.218327
    47 0.000000 0.000000 1.943288 1.308968 -0.158256 0.204603
    48 0.000000 0.000000 1.241909 0.221947 -0.049495 0.000143
    49 0.000002 10.746529 0.000001 0.000000 0.000000 0.000000
    50 0.015625 70.180117 15.352807 -0.291850 0.042689 0.037512
  time 11
    0 0.000000 -12.125000 -83.062500 1.549470 0.000004 -0.000004
    1 0.000000 65.928001 -3.788860 0.000000 0.000000 0.000000
    2 2.328150 0.000000 0.000000 -0.313426 0.000000 0.000000
    3 8.600150 -0.022797 -0.051090 0.081432 0.223950 -3.039863
    4 0.000000 10.075568 -0.000001 1.768889 -0.125304 -0.172004
    5 0.000002 17.373682 0.000000 0.969502 0.719869 0.734365
    6 0.679043 0.802172 1.783102 0.793913 -0.098345 2.654861
    7 0.000000 -0.000002 2.508970 -0.030906 -0.055064 0.003399
    8 0.000000 0.000001 1.809536 -0.214961 0.000383 -0.005248
    9 0.219777 1.615330 1.611036 -0.507118 1.408360 1.183619
    10 0.000000 -0.000002 3.981597 0.377689 0.007012 -0.156099
    11 0.000000 0.000000 2.375985 0.800969 -0.017328 -0.006860
    12 0.000001 -0.000001 1.603097 0.592164 0.070386 0.010805
    13 -0.091869 1.886059 0.634829 5.076717 1.356014 0.205581
    14 0.000000 0.000000 3.698122 0.753268 0.034549 -0.107612
    15 0.000000 0.000001 2.366730 1.475578 -0.002247 -0.000783
    16 0.000001 -0.000001 2.035123 0.308140 -0.006524 -0.001048
    17 -0.156257 1.870642 -0.501948 4.683136 1.391675 -0.403799
    18 0.000000 0.000001 3.281008 0.692695 -0.009265 -0.168082
    19 0.000000 0.000001 2.688646 1.547853 -0.027354 -0.007996
    20 0.000001 0.000000 1.713443 0.628658 -0.006322 -0.001410
    21 0.146424 1.721204 -1.673858 4.631842 1.387486 -0.616416
    22 -0.000001 0.000000 3.209387 0.584265 -0.034501 -0.532687
    23 0.000000 0.000001 1.943288 1.730861 -0.029961 -0.007493
    24 0.000000 -0.000001 1.241907 0.544731 0.049495 -0.000144
    25 0.000000 10.746529 0.000000 0.000000 0.000000 0.000000
    26 -2.328150 0.000000 0.000000 2.828156 0.000000 0.000000
    27 -8.600150 0.022796 0.051090 3.148751 0.321761 -2.852642
    28 0.000021 10.075568 0.000001 1.928307 0.116902 0.186971
    29 0.000001 17.373682 0.000001 0.803985 -0.662878 -0.657417
    30 -0.679044 0.802172 1.783101 1.088991 -0.652080 -2.442852
    31 0.000001 -0.000001 2.508970 -0.233631 -0.190740 -0.292386
    32 0.000000 -0.000002 1.809535 0.179447 -0.031042 -0.272878
    33 -0.219778 1.615330 1.611036 -0.507118 -1.408360 -1.183618
    34 -0.000001 -0.000002 3.981597 0.150143 -0.103205 -0.057573
    35 0.000001 0.000000 2.375986 0.764030 0.017328 0.006860
    36 0.000000 0.000000 1.603096 0.621921 -0.070387 -0.010803
    37 0.091868 1.886060 0.634828 2.832853 -1.561694 1.957969
    38 0.000000 0.000000 3.698122 0.131223 -0.039264 0.152226
    39 -0.000001 0.000001 2.366730 1.076329 -0.170783 0.211730
    40 0.000001 0.000001 2.035123 0.812749 0.006524 0.001049
    41 0.156257 1.870642 -0.501948 2.828138 -1.480673 2.199608
    42 -0.000001 -0.000001 3.281011 0.464660 0.077693 -0.070272
    43 -0.000001 0.000000 2.688646 1.366424 -0.122134 0.235756
    44 -0.000001 0.000000 1.713443 0.476017 0.006321 0.001410
    45 -0.146424 1.721204 -1.673859 1.045794 -1.484741 4.097058
    46 0.000000 0.000001 3.209387 0.600323 -0.329135 0.218327
    47 0.000000 0.000000 1.943288 1.308968 -0.158256 0.204603
    48 0.000000 0.000000 1.241909 0.221947 -0.049495 0.000143
    49 0.000002 10.746529 0.000001 0.000000 0.000000 0.000000
    50 0.019532 70.180117 15.352807 -0.291850 0.042689 0.037512
  time 12
    0 0.000000 -12.125000 -83.062500 1.549470 0.000004 -0.000004
    1 0.000000 65.928001 -3.788860 0.000000 0.000000 0.000000
    2 2.328150 0.000000 0.000000 -0.313426 0.000000 0.000000
    3 8.600150 -0.022797 -0.051090 0.081432 0.223950 -3.039863
    4 0.000000 10.075568 -0.000001 1.768889 -0.125304 -0.172004
    5 0.000002 17.373682 0.000000 0.969502 0.719869 0.734365
    6 0.679043 0.802172 1.783102 0.793913 -0.098345 2.654861
    7 0.000000 -0.000002 2.508970 -0.030906 -0.055064 0.003399
    8 0.000000 0.000001 1.809536 -0.214961 0.000383 -0.005248
    9 0.219777 1.615330 1.611036 -0.507118 1.408360 1.183619
    10 0.000000 -0.000002 3.981597 0.377689 0.007012 -0.156099
    11 0.000000 0.000000 2.375985 0.800987 -0.017328 -0.006860
    12 0.000001 -0.000001 1.603097 0.592164 0.070386 0.010805
    13 -0.091869 1.886059 0.634829 5.076717 1.356014 0.205515
    14 0.000000 0.000000 3.698122 0.753268 0.034549 -0.107612
    15 0.000000 0.000001 2.366730 1.475578 -0.002247 -0.000783
    16 0.000001 -0.000001 2.035123 0.308140 -0.006524 -0.001048
    17 -0.156257 1.870642 -0.501948 4.683136 1.391675 -0.403799
    18 0.000000 0.000001 3.281008 0.692695 -0.009265 -0.168082
    19 0.000000 0.000001 2.688646 1.547853 -0.027354 -0.007996
    20 0.000001 0.000000 1.713443 0.628658 -0.006322 -0.001410
    21 0.146424 1.721204 -1.673858 4.631842 1.387486 -0.616416
    22 -0.000001 0.000000 3.209387 0.584265 -0.034501 -0.532687
    23 0.000000 0.000001 1.943288 1.730861 -0.029961 -0.007493
    24 0.000000 -0.000001 1.241907 0.544731 0.049495 -0.000144
    25 0.000000 10.746529 0.000000 0.000000 0.000000 0.000000
    26 -2.328150 0.000000 0.000000 2.828156 0.000000 0.000000
    27 -8.600150 0.022796 0.051090 3.148773 0.321773 -2.852642
    28 0.000021 10.075568 0.000001 1.928307 0.116902 0.186971
    29 0.000001 17.373682 0.000001 0.803985 -0.662878 -0.657417
    30 -0.679044 0.802172 1.783101 1.088991 -0.652080 -2.442852
    31 0.000001 -0.000001 2.508970 -0.233631 -0.190740 -0.292386
    32 0.000000 -0.000002 1.809535 0.179447 -0.031042 -0.272878
    33 -0.219778 1.615330 1.611036 -0.507118 -1.408360 -1.183618
    34 -0.000001 -0.000002 3.981597 0.150143 -0.103205 -0.057573
    35 0.000001 0.000000 2.375986 0.764030 0.017328 0.006860
    36 0.000000 0.000000 1.603096 0.621906 -0.070387 -0.010803
    37 0.091868 1.886060 0.634828 2.832865 -1.561694 1.957981
    38 0.000000 0.000000 3.698122 0.131223 -0.039264 0.152226
    39 -0.000001 0.000001 2.366730 1.076329 -0.170783 0.211730
    40 0.000001 0.000001 2.035123 0.812749 0.006524 0.001049
    41 0.156257 1.870642 -0.501948 2.828150 -1.480673 2.199620
    42 -0.000001 -0.000001 3.281011 0.464660 0.077693 -0.070272
    43 -0.000001 0.000000 2.688646 1.366424 -0.122134 0.235756
    44 -0.000001 0.000000 1.713443 0.476017 0.006321 0.001410
    45 -0.146424 1.721204 -1.673859 1.045794 -1.484741 4.097058
    46 0.000000 0.000001 3.209387 0.600306 -0.329135 0.218327
    47 0.000000 0.000000 1.943288 1.308968 -0.158256 0.204603
    48 0.000000 0.000000 1.241909 0.221947 -0.049495 0.000143
    49 0.000002 10.746529 0.000001 0.000000 0.000000 0.000000
    50 0.019532 70.180117 15.352807 -0.291850 0.042689 0.037512
  time 13
    0 0.000000 -12.125000 -83.062500 1.549470 0.000004 -0.000004
    1 0.000000 65.928001 -3.788860 0.000000 0.000000 0.000000
    2 2.328150 0.000000 0.000000 -0.313426 0.000000 0.000000
    3 8.600150 -0.022797 -0.051090 0.081459 0.223938 -3.039851
    4 0.000000 10.075568 -0.000001 1.768889 -0.125304 -0.172004
    5 0.000002 17.373682 0.000000 0.969443 0.719869 0.734343
    6 0.679043 0.802172 1.783102 0.793913 -0.098345 2.654861
    7 0.000000 -0.000002 2.508970 -0.030906 -0.055064 0.003399
    8 0.000000 0.000001 1.809536 -0.214961 0.000383 -0.005248
    9 0.219777 1.615330 1.611036 -0.507118 1.408360 1.183619
    10 0.000000 -0.000002 3.981597 0.377689 0.007012 -0.156099
    11 0.000000 0.000000 2.375985 0.800987 -0.017328 -0.006860
    12 0.000001 -0.000001 1.603097 0.592164 0.070386 0.010805
    13 -0.091869 1.886059 0.634829 5.076717 1.356014 0.205515
    14 0.000000 0.000000 3.698122 0.753268 0.034549 -0.107612
    15 0.000000 0.000001 2.366730 1.475617 -0.002247 -0.000783
    16 0.000001 -0.000001 2.035123 0.308140 -0.006524 -0.001048
    17 -0.156257 1.870642 -0.501948 4.683136 1.391675 -0.403799
    18 0.000000 0.000001 3.281008 0.692695 -0.009265 -0.168082
    19 0.000000 0.000001 2.688646 1.547853 -0.027354 -0.007996
    20 0.000001 0.000000 1.713443 0.628658 -0.006322 -0.001410
    21 0.146424 1.721204 -1.673858 4.631842 1.387486 -0.616416
    22 -0.000001 0.000000 3.209387 0.584265 -0.034501 -0.532704
    23 0.000000 0.000001 1.943288 1.730861 -0.029961 -0.007493
    24 0.000000 -0.000001 1.241907 0.544731 0.049495 -0.000144
    25 0.000000 10.746529 0.000000 0.000000 0.000000 0.000000
    26 -2.328150 0.000000 0.000000 2.828156 0.000000 0.000000
    27 -8.600150 0.022796 0.051090 3.148817 0.321761 -2.852630
    28 0.000021 10.075568 0.000001 1.928307 0.116902 0.186971
    29 0.000001 17.373682 0.000001 0.803936 -0.662905 -0.657397
    30 -0.679044 0.802172 1.783101 1.088991 -0.652080 -2.442852
    31 0.000001 -0.000001 2.508970 -0.233631 -0.190740 -0.292386
    32 0.000000 -0.000002 1.809535 0.179447 -0.031042 -0.272878
    33 -0.219778 1.615330 1.611036 -0.507118 -1.408360 -1.183618
    34 -0.000001 -0.000002 3.981597 0.150143 -0.103205 -0.057573
    35 0.000001 0.000000 2.375986 0.764030 0.017328 0.006860
    36 0.000000 0.000000 1.603096 0.621906 -0.070387 -0.010803
    37 0.091868 1.886060 0.634828 2.832853 -1.561694 1.957969
    38 0.000000 0.000000 3.698122 0.131223 -0.039264 0.152226
    39 -0.000001 0.000001 2.366730 1.076329 -0.170783 0.211730
    40 0.000001 0.000001 2.035123 0.812749 0.006524 0.001049
    41 0.156257 1.870642 -0.501948 2.828138 -1.480673 2.199620
    42 -0.000001 -0.000001 3.281011 0.464660 0.077693 -0.070272
    43 -0.000001 0.000000 2.688646 1.366424 -0.122134 0.235756
    44 -0.000001 0.000000 1.713443 0.476017 0.006321 0.001410
    45 -0.146424 1.721204 -1.673859 1.045794 -1.484741 4.097058
    46 0.000000 0.000001 3.209387 0.600306 -0.329135 0.218327
    47 0.000000 0.000000 1.943288 1.308968 -0.158256 0.204603
    48 0.000000 0.000000 1.241909 0.221947 -0.049495 0.000143
    49 0.000002 10.746529 0.000001 0.000000 0.000000 0.000000
    50 0.019532 70.180117 15.352807 -0.291850 0.042689 0.037512
  time 14
    0 0.000000 -12.125000 -83.062500 1.549470 0.000004 -0.000004
    1 0.000000 65.928001 -3.788860 0.000000 0.000000 0.000000
    2 2.328150 0.000000 0.000000 -0.313426 0.000000 0.000000
    3 8.600150 -0.022797 -0.051090 0.081540 0.223926 -3.039827
    4 0.000000 10.075568 -0.000001 1.768889 -0.125304 -0.172004
    5 0.000002 17.373682 0.000000 0.969383 0.719894 0.734298
    6 0.679043 0.802172 1.783102 0.793913 -0.098345 2.654861
    7 0.000000 -0.000002 2.508970 -0.030906 -0.055064 0.003399
    8 0.000000 0.000001 1.809536 -0.214961 0.000383 -0.005248
    9 0.219777 1.615330 1.611036 -0.507118 1.408360 1.183619
    10 0.000000 -0.000002 3.981597 0.377689 0.007012 -0.156099
    11 0.000000 0.000000 2.375985 0.800969 -0.017328 -0.006860
    12 0.000001 -0.000001 1.603097 0.592164 0.070386 0.010805
    13 -0.091869 1.886059 0.634829 5.076717 1.356014 0.205515
    14 0.000000 0.000000 3.698122 0.753268 0.034549 -0.107612
    15 0.000000 0.000001 2.366730 1.475578 -0.002247 -0.000783
    16 0.000001 -0.000001 2.035123 0.308140 -0.006524 -0.001048
    17 -0.156257 1.870642 -0.501948 4.683136 1.391675 -0.403799
    18 0.000000 0.000001 3.281008 0.692695 -0.009265 -0.168082
    19 0.000000 0.000001 2.688646 1.547853 -0.027354 -0.007996
    20 0.000001 0.000000 1.713443 0.628658 -0.006322 -0.001410
    21 0.146424 1.721204 -1.673858 4.631842 1.387486 -0.616416
    22 -0.000001 0.000000 3.209387 0.584265 -0.034501 -0.532687
    23 0.000000 0.000001 1.943288 1.730861 -0.029961 -0.007493
    24 0.000000 -0.000001 1.241907 0.544731 0.049495 -0.000144
    25 0.000000 10.746529 0.000000 0.000000 0.000000 0.000000
    26 -2.328150 0.000000 0.000000 2.828156 0.000000 0.000000
    27 -8.600150 0.022796 0.051090 3.148883 0.321749 -2.852606
    28 0.000021 10.075568 0.000001 1.928307 0.116902 0.186971
    29 0.000001 17.373682 0.000001 0.803887 -0.662932 -0.657377
    30 -0.679044 0.802172 1.783101 1.088991 -0.652080 -2.442852
    31 0.000001 -0.000001 2.508970 -0.233631 -0.190740 -0.292386
    32 0.000000 -0.000002 1.809535 0.179447 -0.031042 -0.272878
    33 -0.219778 1.615330 1.611036 -0.507118 -1.408360 -1.183618
    34 -0.000001 -0.000002 3.981597 0.150143 -0.103205 -0.057573
    35 0.000001 0.000000 2.375986 0.764030 0.017328 0.006860
    36 0.000000 0.000000 1.603096 0.621906 -0.070387 -0.010803
    37 0.091868 1.886060 0.634828 2.832865 -1.561694 1.957981
    38 0.000000 0.000000 3.698122 0.131223 -0.039264 0.152226
    39 -0.000001 0.000001 2.366730 1.076329 -0.170783 0.211730
    40 0.000001 0.000001 2.035123 0.812749 0.006524 0.001049
    41 0.156257 1.870642 -0.501948 2.828150 -1.480673 2.199620
    42 -0.000001 -0.000001 3.281011 0.464660 0.077693 -0.070272
    43 -0.000001 0.000000 2.688646 1.366424 -0.122134 0.235756
    44 -0.000001 0.000000 1.713443 0.476017 0.006321 0.001410
    45 -0.146424 1.721204 -1.673859 1.045794 -1.484741 4.097058
    46 0.000000 0.000001 3.209387 0.600306 -0.329135 0.218327
    47 0.000000 0.000000 1.943288 1.308968 -0.158256 0.204603
    48 0.000000 0.000000 1.241909 0.221947 -0.049495 0.000143
    49 0.000002 10.746529 0.000001 0.000000 0.000000 0.000000
    50 0.019532 70.180117 15.352807 -0.291850 0.042689 0.037512
  time 15
    0 0.000000 -12.125000 -83.062500 1.549470 0.000004 -0.000004
    1 0.000000 65.928001 -3.788860 0.000000 0.000000 0.000000
    2 2.328150 0.000000 0.000000 -0.313426 0.000000 0.000000
    3 8.600150 -0.022797 -0.051090 0.081594 0.223914 -3.039803
    4 0.000000 10.075568 -0.000001 1.768889 -0.125304 -0.172004
    5 0.000002 17.373682 0.000000 0.969323 0.719943 0.734253
    6 0.679043 0.802172 1.783102 0.793913 -0.098345 2.654861
    7 0.000000 -0.000002 2.508970 -0.030906 -0.055064 0.003399
    8 0.000000 0.000001 1.809536 -0.214961 0.000383 -0.005248
    9 0.219777 1.615330 1.611036 -0.507118 1.408360 1.183619
    10 0.000000 -0.000002 3.981597 0.377689 0.007012 -0.156099
    11 0.000000 0.000000 2.375985 0.800987 -0.017328 -0.006860
    12 0.000001 -0.000001 1.603097 0.592164 0.070386 0.010805
    13 -0.091869 1.886059 0.634829 5.076717 1.356014 0.205515
    14 0.000000 0.000000 3.698122 0.753268 0.034549 -0.107612
    15 0.000000 0.000001 2.366730 1.475578 -0.002247 -0.000783
    16 0.000001 -0.000001 2.035123 0.308140 -0.006524 -0.001048
    17 -0.156257 1.870642 -0.501948 4.683136 1.391675 -0.403799
    18 0.000000 0.000001 3.281008 0.692695 -0.009265 -0.168082
    19 0.000000 0.000001 2.688646 1.547853 -0.027354 -0.007996
    20 0.000001 0.000000 1.713443 0.628658 -0.006322 -0.001410
    21 0.146424 1.721204 -1.673858 4.631842 1.387486 -0.616416
    22 -0.000001 0.000000 3.209387 0.584265 -0.034501 -0.532687
    23 0.000000 0.000001 1.943288 1.730861 -0.029961 -0.007493
    24 0.000000 -0.000001 1.241907 0.544749 0.049495 -0.000144
    25 0.000000 10.746529 0.000000 0.000000 0.000000 0.000000
    26 -2.328150 0.000000 0.000000 2.828156 0.000000 0.000000
    27 -8.600150 0.022796 0.051090 3.148971 0.321736 -2.852582
    28 0.000021 10.075568 0.000001 1.928307 0.116902 0.186971
    29 0.000001 17.373682 0.000001 0.803789 -0.662958 -0.657317
    30 -0.679044 0.802172 1.783101 1.088991 -0.652080 -2.442852
    31 0.000001 -0.000001 2.508970 -0.233631 -0.190740 -0.292386
    32 0.000000 -0.000002 1.809535 0.179447 -0.031042 -0.272878
    33 -0.219778 1.615330 1.611036 -0.507118 -1.408360 -1.183618
    34 -0.000001 -0.000002 3.981597 0.150143 -0.103205 -0.057573
    35 0.000001 0.000000 2.375986 0.764030 0.017328 0.006860
    36 0.000000 0.000000 1.603096 0.621921 -0.070387 -0.010803
    37 0.091868 1.886060 0.634828 2.832841 -1.561694 1.957969
    38 0.000000 0.000000 3.698122 0.131223 -0.039264 0.152226
    39 -0.000001 0.000001 2.366730 1.076329 -0.170783 0.211730
    40 0.000001 0.000001 2.035123 0.812749 0.006524 0.001049
    41 0.156257 1.870642 -0.501948 2.828138 -1.480673 2.199608
    42 -0.000001 -0.000001 3.281011 0.464660 0.077693 -0.070272
    43 -0.000001 0.000000 2.688646 1.366424 -0.122134 0.235756
    44 -0.000001 0.000000 1.713443 0.476017 0.006321 0.001410
    45 -0.146424 1.721204 -1.673859 1.045794 -1.484741 4.097058
    46 0.000000 0.000001 3.209387 0.600306 -0.329135 0.218327
    47 0.000000 0.000000 1.943288 1.309000 -0.158256 0.204603
    48 0.000000 0.000000 1.241909 0.221947 -0.049495 0.000143
    49 0.000002 10.746529 0.000001 0.000000 0.000000 0.000000
    50 0.019532 70.180117 15.352807 -0.291850 0.042689 0.037512
  time 16
    0 0.000000 -12.125000 -83.062500 1.549470 0.000004 -0.000004
    1 0.000000 65.928001 -3.788860 0.000000 0.000000 0.000000
    2 2.328150 0.000000 0.000000 -0.313426 0.000000 0.000000
    3 8.600150 -0.022797 -0.051090 0.081675 0.223902 -3.039779
    4 0.000000 10.075568 -0.000001 1.768889 -0.125304 -0.172004
    5 0.000002 17.373682 0.000000 0.969204 0.719993 0.734186
    6 0.679043 0.802172 1.783102 0.793913 -0.098345 2.654861
    7 0.000000 -0.000002 2.508970 -0.030906 -0.055064 0.003399
    8 0.000000 0.000001 1.809536 -0.214961 0.000383 -0.005248
    9 0.219777 1.615330 1.611036 -0.507118 1.408360 1.183619
    10 0.000000 -0.000002 3.981597 0.377689 0.007012 -0.156099
    11 0.000000 0.000000 2.375985 0.800969 -0.017328 -0.006860
    12 0.000001 -0.000001 1.603097 0.592164 0.070386 0.010805
    13 -0.091869 1.886059 0.634829 5.076717 1.356014 0.205515
    14 0.000000 0.000000 3.698122 0.753268 0.034549 -0.107612
    15 0.000000 0.000001 2.366730 1.475578 -0.002247 -0.000783
    16 0.000001 -0.000001 2.035123 0.308140 -0.006524 -0.001048
    17 -0.156257 1.870642 -0.501948 4.683136 1.391675 -0.403799
    18 0.000000 0.000001 3.281008 0.692695 -0.009265 -0.168082
    19 0.000000 0.000001 2.688646 1.547853 -0.027354 -0.007996
    20 0.000001 0.000000 1.713443 0.628658 -0.006322 -0.001410
    21 0.146424 1.721204 -1.673858 4.631842 1.387486 -0.616416
    22 -0.000001 0.000000 3.209387 0.584265 -0.034501 -0.532687
    23 0.000000 0.000001 1.943288 1.730861 -0.029961 -0.007493
    24 0.000000 -0.000001 1.241907 0.544731 0.049495 -0.000144
    25 0.000000 10.746529 0.000000 0.000000 0.000000 0.000000
    26 -2.328150 0.000000 0.000000 2.828156 0.000000 0.000000
    27 -8.600150 0.022796 0.051090 3.149081 0.321724 -2.852546
    28 0.000021 10.075568 0.000001 1.928263 0.116902 0.186971
    29 0.000001 17.373682 0.000001 0.803691 -0.662985 -0.657257
    30 -0.679044 0.802172 1.783101 1.088991 -0.652080 -2.442852
    31 0.000001 -0.000001 2.508970 -0.233631 -0.190740 -0.292386
    32 0.000000 -0.000002 1.809535 0.179447 -0.031042 -0.272878
    33 -0.219778 1.615330 1.611036 -0.507118 -1.408360 -1.183618
    34 -0.000001 -0.000002 3.981597 0.150143 -0.103205 -0.057573
    35 0.000001 0.000000 2.375986 0.764030 0.017328 0.006860
    36 0.000000 0.000000 1.603096 0.621906 -0.070387 -0.010803
    37 0.091868 1.886060 0.634828 2.832853 -1.561694 1.957969
    38 0.000000 0.000000 3.698122 0.131223 -0.039264 0.152226
    39 -0.000001 0.000001 2.366730 1.076329 -0.170783 0.211730
    40 0.000001 0.000001 2.035123 0.812749 0.006524 0.001049
    41 0.156257 1.870642 -0.501948 2.828138 -1.480673 2.199608
    42 -0.000001 -0.000001 3.281011 0.464660 0.077693 -0.070272
    43 -0.000001 0.000000 2.688646 1.366424 -0.122134 0.235756
    44 -0.000001 0.000000 1.713443 0.476017 0.006321 0.001410
    45 -0.146424 1.721204 -1.673859 1.045794 -1.484741 4.097058
    46 0.000000 0.000001 3.209387 0.600306 -0.329135 0.218327
    47 0.000000 0.000000 1.943288 1.308968 -0.158256 0.204603
    48 0.000000 0.000000 1.241909 0.221947 -0.049495 0.000143
    49 0.000002 10.746529 0.000001 0.000000 0.000000 0.000000
    50 0.019532 70.184023 15.352807 -0.291850 0.042689 0.037512
  time 17
    0 0.000000 -12.125000 -83.062500 1.549470 0.000004 -0.000004
    1 0.000000 65.928001 -3.788860 0.000000 0.000000 0.000000
    2 2.328150 0.000000 0.000000 -0.313426 0.000000 0.000000
    3 8.600150 -0.022797 -0.051090 0.081783 0.223890 -3.039755
    4 0.000000 10.075568 -0.000001 1.768889 -0.125304 -0.171992
    5 0.000002 17.373682 0.000000 0.969115 0.720042 0.734119
    6 0.679043 0.802172 1.783102 0.793913 -0.098345 2.654861
    7 0.000000 -0.000002 2.508970 -0.030906 -0.055064 0.003399
    8 0.000000 0.000001 1.809536 -0.214961 0.000383 -0.005248
    9 0.219777 1.615330 1.611036 -0.507118 1.408360 1.183619
    10 0.000000 -0.000002 3.981597 0.377689 0.007012 -0.156099
    11 0.000000 0.000000 2.375985 0.800987 -0.017328 -0.006860
    12 0.000001 -0.000001 1.603097 0.592164 0.070386 0.010805
    13 -0.091869 1.886059 0.634829 5.076717 1.356014 0.205515
    14 0.000000 0.000000 3.698122 0.753268 0.034549 -0.107612
    15 0.000000 0.000001 2.366730 1.475578 -0.002247 -0.000783
    16 0.000001 -0.000001 2.035123 0.308140 -0.006524 -0.001048
    17 -0.156257 1.870642 -0.501948 4.683136 1.391675 -0.403799
    18 0.000000 0.000001 3.281008 0.692695 -0.009265 -0.168082
    19 0.000000 0.000001 2.688646 1.547853 -0.027354 -0.007996
    20 0.000001 0.000000 1.713443 0.628658 -0.006322 -0.001410
    21 0.146424 1.721204 -1.673858 4.631842 1.387486 -0.616416
    22 -0.000001 0.000000 3.209387 0.584265 -0.034501 -0.532687
    23 0.000000 0.000001 1.943288 1.730861 -0.029961 -0.007493
    24 0.000000 -0.000001 1.241907 0.544731 0.049495 -0.000144
    25 0.000000 10.746529 0.000000 0.000000 0.000000 0.000000
    26 -2.328150 0.000000 0.000000 2.828156 0.000000 0.000000
    27 -8.600150 0.022796 0.051090 3.149191 0.321699 -2.852510
    28 0.000021 10.075568 0.000001 1.928263 0.116902 0.186971
    29 0.000001 17.373682 0.000001 0.803568 -0.663038 -0.657196
    30 -0.679044 0.802172 1.783101 1.088991 -0.652080 -2.442852
    31 0.000001 -0.000001 2.508970 -0.233631 -0.190740 -0.292386
    32 0.000000 -0.000002 1.809535 0.179447 -0.031042 -0.272878
    33 -0.219778 1.615330 1.611036 -0.507118 -1.408360 -1.183618
    34 -0.000001 -0.000002 3.981597 0.150143 -0.103205 -0.057573
    35 0.000001 0.000000 2.375986 0.764030 0.017328 0.006860
    36 0.000000 0.000000 1.603096 0.621906 -0.070387 -0.010803
    37 0.091868 1.886060 0.634828 2.832853 -1.561694 1.957969
    38 0.000000 0.000000 3.698122 0.131223 -0.039264 0.152226
    39 -0.000001 0.000001 2.366730 1.076329 -0.170783 0.211730
    40 0.000001 0.000001 2.035123 0.812749 0.006524 0.001049
    41 0.156257 1.870642 -0.501948 2.828138 -1.480673 2.199608
    42 -0.000001 -0.000001 3.281011 0.464660 0.077693 -0.070272
    43 -0.000001 0.000000 2.688646 1.366424 -0.122134 0.235756
    44 -0.000001 0.000000 1.713443 0.476017 0.006321 0.001410
    45 -0.146424 1.721204 -1.673859 1.045794 -1.484741 4.097058
    46 0.000000 0.000001 3.209387 0.600306 -0.329135 0.218327
    47 0.000000 0.000000 1.943288 1.308968 -0.158256 0.204603
    48 0.000000 0.000000 1.241909 0.221947 -0.049495 0.000143
    49 0.000002 10.746529 0.000001 0.000000 0.000000 0.000000
    50 0.019532 70.184023 15.352807 -0.291850 0.042689 0.037512
  time 18
    0 0.000000 -12.125000 -83.062500 1.549470 0.000004 -0.000004
    1 0.000000 65.928001 -3.788860 0.000000 0.000000 0.000000
    2 2.328150 0.000000 0.000000 -0.313426 0.000000 0.000000
    3 8.600150 -0.022797 -0.051090 0.081891 0.223866 -3.039719
    4 0.000000 10.075568 -0.000001 1.768889 -0.125304 -0.171992
    5 0.000002 17.373682 0.000000 0.968996 0.720092 0.734052
    6 0.679043 0.802172 1.783102 0.793913 -0.098345 2.654861
    7 0.000000 -0.000002 2.508970 -0.030906 -0.055064 0.003399
    8 0.000000 0.000001 1.809536 -0.214961 0.000383 -0.005248
    9 0.219777 1.615330 1.611036 -0.507118 1.408360 1.183619
    10 0.000000 -0.000002 3.981597 0.377689 0.007012 -0.156099
    11 0.000000 0.000000 2.375985 0.800969 -0.017328 -0.006860
    12 0.000001 -0.000001 1.603097 0.592164 0.070386 0.010805
    13 -0.091869 1.886059 0.634829 5.076717 1.356014 0.205515
    14 0.000000 0.000000 3.698122 0.753268 0.034549 -0.107612
    15 0.000000 0.000001 2.366730 1.475578 -0.002247 -0.000783
    16 0.000001 -0.000001 2.035123 0.308140 -0.006524 -0.001048
    17 -0.156257 1.870642 -0.501948 4.683136 1.391675 -0.403799
    18 0.000000 0.000001 3.281008 0.692695 -0.009265 -0.168082
    19 0.000000 0.000001 2.688646 1.547853 -0.027354 -0.007996
    20 0.000001 0.000000 1.713443 0.628658 -0.006322 -0.001410
    21 0.146424 1.721204 -1.673858 4.631842 1.387486 -0.616416
    22 -0.000001 0.000000 3.209387 0.584265 -0.034501 -0.532687
    23 0.000000 0.000001 1.943288 1.730861 -0.029961 -0.007493
    24 0.000000 -0.000001 1.241907 0.544731 0.049495 -0.000144
    25 0.000000 10.746529 0.000000 0.000000 0.000000 0.000000
    26 -2.328150 0.000000 0.000000 2.828156 0.000000 0.000000
    27 -8.600150 0.022796 0.051090 3.149322 0.321661 -2.852462
    28 0.000021 10.075568 0.000001 1.928263 0.116902 0.186971
    29 0.000001 17.373682 0.000001 0.803445 -0.663065 -0.657116
    30 -0.679044 0.802172 1.783101 1.088991 -0.652080 -2.442852
    31 0.000001 -0.000001 2.508970 -0.233631 -0.190740 -0.292386
    32 0.000000 -0.000002 1.809535 0.179447 -0.031042 -0.272878
    33 -0.219778 1.615330 1.611036 -0.507118 -1.408360 -1.183618
    34 -0.000001 -0.000002 3.981597 0.150143 -0.103205 -0.057573
    35 0.000001 0.000000 2.375986 0.764030 0.017328 0.006860
    36 0.000000 0.000000 1.603096 0.621906 -0.070387 -0.010803
    37 0.091868 1.886060 0.634828 2.832865 -1.561694 1.957981
    38 0.000000 0.000000 3.698122 0.131223 -0.039264 0.152226
    39 -0.000001 0.000001 2.366730 1.076329 -0.170783 0.211730
    40 0.000001 0.000001 2.035123 0.812749 0.006524 0.001049
    41 0.156257 1.870642 -0.501948 2.828150 -1.480673 2.199620
    42 -0.000001 -0.000001 3.281011 0.464660 0.077693 -0.070272
    43 -0.000001 0.000000 2.688646 1.366424 -0.122134 0.235756
    44 -0.000001 0.000000 1.713443 0.476017 0.006321 0.001410
    45 -0.146424 1.721204 -1.673859 1.045794 -1.484741 4.097058
    46 0.000000 0.000001 3.209387 0.600306 -0.329135 0.218327
    47 0.000000 0.000000 1.943288 1.308968 -0.158256 0.204603
    48 0.000000 0.000000 1.241909 0.221947 -0.049495 0.000143
    49 0.000002 10.746529 0.000001 0.000000 0.000000 0.000000
    50 0.019532 70.187929 15.352807 -0.291850 0.042689 0.037512
  time 19
    0 0.000000 -12.125000 -83.062500 1.549470 0.000004 -0.000004
    1 0.000000 65.928001 -3.788860 0.000000 0.000000 0.000000
    2 2.328150 0.000000 0.000000 -0.313426 0.000000 0.000000
    3 8.600150 -0.022797 -0.051090 0.081999 0.223854 -3.039695
    4 0.000000 10.075568 -0.000001 1.768889 -0.125304 -0.171992
    5 0.000002 17.373682 0.000000 0.968877 0.720141 0.733984
    6 0.679043 0.802172 1.783102 0.793913 -0.098345 2.654861
    7 0.000000 -0.000002 2.508970 -0.030906 -0.055064 0.003399
    8 0.000000 0.000001 1.809536 -0.214961 0.000383 -0.005248
    9 0.219777 1.615330 1.611036 -0.507118 1.408360 1.183619
    10 0.000000 -0.000002 3.981597 0.377689 0.007012 -0.156099
    11 0.000000 0.000000 2.375985 0.800987 -0.017328 -0.006860
    12 0.000001 -0.000001 1.603097 0.592164 0.070386 0.010805
    13 -0.091869 1.886059 0.634829 5.076717 1.356014 0.205515
    14 0.000000 0.000000 3.698122 0.753268 0.034549 -0.107612
    15 0.000000 0.000001 2.366730 1.475578 -0.002247 -0.000783
    16 0.000001 -0.000001 2.035123 0.308140 -0.006524 -0.001048
    17 -0.156257 1.870642 -0.501948 4.683136 1.391675 -0.403799
    18 0.000000 0.000001 3.281008 0.692695 -0.009265 -0.168082
    19 0.000000 0.000001 2.688646 1.547853 -0.027354 -0.007996
    20 0.000001 0.000000 1.713443 0.628658 -0.006322 -0.001410
    21 0.146424 1.721204 -1.673858 4.631842 1.387486 -0.616416
    22 -0.000001 0.000000 3.209387 0.584265 -0.034501 -0.532687
    23 0.000000 0.000001 1.943288 1.730861 -0.029961 -0.007493
    24 0.000000 -0.000001 1.241907 0.544731 0.049495 -0.000144
    25 0.000000 10.746529 0.000000 0.000000 0.000000 0.000000
    26 -2.328150 0.000000 0.000000 2.828156 0.000000 0.000000
    27 -8.600150 0.022796 0.051090 3.149454 0.321637 -2.852414
    28 0.000021 10.075568 0.000001 1.928263 0.116902 0.186971
    29 0.000001 17.373682 0.000001 0.803298 -0.663119 -0.657036
    30 -0.679044 0.802172 1.783101 1.088991 -0.652080 -2.442852
    31 0.000001 -0.000001 2.508970 -0.233631 -0.190740 -0.292386
    32 0.000000 -0.000002 1.809535 0.179447 -0.031042 -0.272878
    33 -0.219778 1.615330 1.611036 -0.507118 -1.408360 -1.183618
    34 -0.000001 -0.000002 3.981597 0.150143 -0.103205 -0.057573
    35 0.000001 0.000000 2.375986 0.764030 0.017328 0.006860
    36 0.000000 0.000000 1.603096 0.621906 -0.070387 -0.010803
    37 0.091868 1.886060 0.634828 2.832853 -1.561694 1.957981
    38 0.000000 0.000000 3.698122 0.131223 -0.039264 0.152226
    39 -0.000001 0.000001 2.366730 1.076329 -0.170783 0.211730
    40 0.000001 0.000001 2.035123 0.812749 0.006524 0.001049
    41 0.156257 1.870642 -0.501948 2.828138 -1.480673 2.199620
    42 -0.000001 -0.000001 3.281011 0.464660 0.077693 -0.070272
    43 -0.000001 0.000000 2.688646 1.366424 -0.122134 0.235756
    44 -0.000001 0.000000 1.713443 0.476017 0.006321 0.001410
    45 -0.146424 1.721204 -1.673859 1.045794 -1.484741 4.097058
    46 0.000000 0.000001 3.209387 0.600306 -0.329135 0.218327
    47 0.000000 0.000000 1.943288 1.308968 -0.158256 0.204603
    48 0.000000 0.000000 1.241909 0.221947 -0.049495 0.000143
    49 0.000002 10.746529 0.000001 0.000000 0.000000 0.000000
    50 0.019532 70.187929 15.352807 -0.291850 0.042689 0.037512
  time 20
    0 0.000000 -12.125000 -83.062500 1.549470 0.000004 -0.000004
    1 0.000000 65.928001 -3.788860 0.000000 0.000000 0.000000
    2 2.328150 0.000000 0.000000 -0.313426 0.000000 0.000000
    3 8.600150 -0.022797 -0.051090 0.082134 0.223842 -3.039671
    4 0.000000 10.075568 -0.000001 1.768889 -0.125304 -0.171992
    5 0.000002 17.373682 0.000000 0.968757 0.720215 0.733917
    6 0.679043 0.802172 1.783102 0.793913 -0.098345 2.654861
    7 0.000000 -0.000002 2.508970 -0.030906 -0.055064 0.003399
    8 0.000000 0.000001 1.809536 -0.214961 0.000383 -0.005248
    9 0.219777 1.615330 1.611036 -0.507118 1.408360 1.183619
    10 0.000000 -0.000002 3.981597 0.377689 0.007012 -0.156099
    11 0.000000 0.000000 2.375985 0.800969 -0.017328 -0.006860
    12 0.000001 -0.000001 1.603097 0.592164 0.070386 0.010805
    13 -0.091869 1.886059 0.634829 5.076717 1.356014 0.205515
    14 0.000000 0.000000 3.698122 0.753268 0.034549 -0.107612
    15 0.000000 0.000001 2.366730 1.475578 -0.002247 -0.000783
    16 0.000001 -0.000001 2.035123 0.308140 -0.006524 -0.001048
    17 -0.156257 1.870642 -0.501948 4.683136 1.391675 -0.403799
    18 0.000000 0.000001 3.281008 0.692695 -0.009265 -0.168082
    19 0.000000 0.000001 2.688646 1.547853 -0.027354 -0.007996
    20 0.000001 0.000000 1.713443 0.628658 -0.006322 -0.001410
    21 0.146424 1.721204 -1.673858 4.631842 1.387486 -0.616416
    22 -0.000001 0.000000 3.209387 0.584265 -0.034501 -0.532687
    23 0.000000 0.000001 1.943288 1.730861 -0.029961 -0.007493
    24 0.000000 -0.000001 1.241907 0.544731 0.049495 -0.000144
    25 0.000000 10.746529 0.000000 0.000000 0.000000 0.000000
    26 -2.328150 0.000000 0.000000 2.828156 0.000000 0.000000
    27 -8.600150 0.022796 0.051090 3.149586 0.321599 -2.852366
    28 0.000021 10.075568 0.000001 1.928219 0.116902 0.186971
    29 0.000001 17.373682 0.000001 0.803151 -0.663145 -0.656956
    30 -0.679044 0.802172 1.783101 1.088991 -0.652080 -2.442852
    31 0.000001 -0.000001 2.508970 -0.233631 -0.190740 -0.292386
    32 0.000000 -0.000002 1.809535 0.179447 -0.031042 -0.272878
    33 -0.219778 1.615330 1.611036 -0.507118 -1.408360 -1.183618
    34 -0.000001 -0.000002 3.981597 0.150143 -0.103205 -0.057573
    35 0.000001 0.000000 2.375986 0.764046 0.017328 0.006860
    36 0.000000 0.000000 1.603096 0.621906 -0.070387 -0.010803
    37 0.091868 1.886060 0.634828 2.832865 -1.561694 1.957981
    38 0.000000 0.000000 3.698122 0.131223 -0.039264 0.152226
    39 -0.000001 0.000001 2.366730 1.076329 -0.170783 0.211730
    40 0.000001 0.000001 2.035123 0.812749 0.006524 0.001049
    41 0.156257 1.870642 -0.501948 2.828150 -1.480673 2.199620
    42 -0.000001 -0.000001 3.281011 0.464660 0.077693 -0.070272
    43 -0.000001 0.000000 2.688646 1.366424 -0.122134 0.235756
    44 -0.000001 0.000000 1.713443 0.476017 0.006321 0.001410
    45 -0.146424 1.721204 -1.673859 1.045794 -1.484741 4.097058
    46 0.000000 0.000001 3.209387 0.600306 -0.329135 0.218327
    47 0.000000 0.000000 1.943288 1.308968 -0.158256 0.204603
    48 0.000000 0.000000 1.241909 0.221947 -0.049495 0.000143
    49 0.000002 10.746529 0.000001 0.000000 0.000000 0.000000
    50 0.019532 70.191836 15.352807 -0.291850 0.042689 0.037512
  time 21
    0 0.000000 -12.125000 -83.062500 1.549470 0.000004 -0.000004
    1 0.000000 65.928001 -3.788860 0.000000 0.000000 0.000000
    2 2.328150 0.000000 0.000000 -0.313426 0.000000 0.000000
    3 8.600150 -0.022797 -0.051090 0.082243 0.223830 -3.039635
    4 0.000000 10.075568 -0.000001 1.768889 -0.125304 -0.171992
    5 0.000002 17.373682 0.000000 0.968638 0.720264 0.733850
    6 0.679043 0.802172 1.783102 0.793913 -0.098345 2.654861
    7 0.000000 -0.000002 2.508970 -0.030906 -0.055064 0.003399
    8 0.000000 0.000001 1.809536 -0.214961 0.000383 -0.005248
    9 0.219777 1.615330 1.611036 -0.507118 1.408360 1.183619
    10 0.000000 -0.000002 3.981597 0.377689 0.007012 -0.156099
    11 0.000000 0.000000 2.375985 0.800969 -0.017328 -0.006860
    12 0.000001 -0.000001 1.603097 0.592164 0.070386 0.010805
    13 -0.091869 1.886059 0.634829 5.076717 1.356014 0.205515
    14 0.000000 0.000000 3.698122 0.753268 0.034549 -0.107612
    15 0.000000 0.000001 2.366730 1.475578 -0.002247 -0.000783
    16 0.000001 -0.000001 2.035123 0.308140 -0.006524 -0.001048
    17 -0.156257 1.870642 -0.501948 4.683136 1.391675 -0.403799
    18 0.000000 0.000001 3.281008 0.692695 -0.009265 -0.168082
    19 0.000000 0.000001 2.688646 1.547853 -0.027354 -0.007996
    20 0.000001 0.000000 1.713443 0.628658 -0.006322 -0.001410
    21 0.146424 1.721204 -1.673858 4.631842 1.387486 -0.616416
    22 -0.000001 0.000000 3.209387 0.584265 -0.034501 -0.532687
    23 0.000000 0.000001 1.943288 1.730861 -0.029961 -0.007493
    24 0.000000 -0.000001 1.241907 0.544731 0.049495 -0.000144
    25 0.000000 10.746529 0.000000 0.000000 0.000000 0.000000
    26 -2.328150 0.000000 0.000000 2.828156 0.000000 0.000000
    27 -8.600150 0.022796 0.051090 3.149718 0.321574 -2.852306
    28 0.000021 10.075568 0.000001 1.928219 0.116902 0.186971
    29 0.000001 17.373682 0.000001 0.803004 -0.663199 -0.656855
    30 -0.679044 0.802172 1.783101 1.088991 -0.652080 -2.442852
    31 0.000001 -0.000001 2.508970 -0.233631 -0.190740 -0.292386
    32 0.000000 -0.000002 1.809535 0.179447 -0.031042 -0.272878
    33 -0.219778 1.615330 1.611036 -0.507118 -1.408360 -1.183618
    34 -0.000001 -0.000002 3.981597 0.150143 -0.103205 -0.057573
    35 0.000001 0.000000 2.375986 0.764030 0.017328 0.006860
    36 0.000000 0.000000 1.603096 0.621906 -0.070387 -0.010803
    37 0.091868 1.886060 0.634828 2.832877 -1.561694 1.957993
    38 0.000000 0.000000 3.698122 0.131223 -0.039264 0.152226
    39 -0.000001 0.000001 2.366730 1.076329 -0.170783 0.211730
    40 0.000001 0.000001 2.035123 0.812749 0.006524 0.001049
    41 0.156257 1.870642 -0.501948 2.828150 -1.480673 2.199620
    42 -0.000001 -0.000001 3.281011 0.464660 0.077693 -0.070272
    43 -0.000001 0.000000 2.688646 1.366424 -0.122134 0.235756
    44 -0.000001 0.000000 1.713443 0.476017 0.006321 0.001410
    45 -0.146424 1.721204 -1.673859 1.045794 -1.484741 4.097058
    46 0.000000 0.000001 3.209387 0.600306 -0.329135 0.218327
    47 0.000000 0.000000 1.943288 1.308968 -0.158256 0.204603
    48 0.000000 0.000000 1.241909 0.221947 -0.049495 0.000143
    49 0.000002 10.746529 0.000001 0.000000 0.000000 0.000000
    50 0.019532 70.191836 15.352807 -0.291850 0.042689 0.037512
  time 22
    0 0.000000 -12.125000 -83.062500 1.549470 0.000004 -0.000004
    1 0.000000 65.928001 -3.788860 0.000000 0.000000 0.000000
    2 2.328150 0.000000 0.000000 -0.313426 0.000000 0.000000
    3 8.600150 -0.022797 -0.051090 0.082351 0.223830 -3.039611
    4 0.000000 10.075568 -0.000001 1.768889 -0.125304 -0.171992
    5 0.000002 17.373682 0.000000 0.968519 0.720339 0.733805
    6 0.679043 0.802172 1.783102 0.793913 -0.098345 2.654861
    7 0.000000 -0.000002 2.508970 -0.030906 -0.055064 0.003399
    8 0.000000 0.000001 1.809536 -0.214961 0.000383 -0.005248
    9 0.219777 1.615330 1.611036 -0.507118 1.408360 1.183619
    10 0.000000 -0.000002 3.981597 0.377689 0.007012 -0.156099
    11 0.000000 0.000000 2.375985 0.800969 -0.017328 -0.006860
    12 0.000001 -0.000001 1.603097 0.592164 0.070386 0.010805
    13 -0.091869 1.886059 0.634829 5.076717 1.356014 0.205515
    14 0.000000 0.000000 3.698122 0.753268 0.034549 -0.107612
    15 0.000000 0.000001 2.366730 1.475578 -0.002247 -0.000783
    16 0.000001 -0.000001 2.035123 0.308140 -0.006524 -0.001048
    17 -0.156257 1.870642 -0.501948 4.683136 1.391675 -0.403799
    18 0.000000 0.000001 3.281008 0.692695 -0.009265 -0.168082
    19 0.000000 0.000001 2.688646 1.547853 -0.027354 -0.007996
    20 0.000001 0.000000 1.713443 0.628676 -0.006322 -0.001410
    21 0.146424 1.721204 -1.673858 4.631842 1.387486 -0.616416
    22 -0.000001 0.000000 3.209387 0.584265 -0.034501 -0.532687
    23 0.000000 0.000001 1.943288 1.730861 -0.029961 -0.007493
    24 0.000000 -0.000001 1.241907 0.544731 0.049495 -0.000144
    25 0.000000 10.746529 0.000000 0.000000 0.000000 0.000000
    26 -2.328150 0.000000 0.000000 2.828156 0.000000 0.000000
    27 -8.600150 0.022796 0.051090 3.149849 0.321537 -2.852258
    28 0.000021 10.075568 0.000001 1.928219 0.116902 0.186971
    29 0.000001 17.373682 0.000001 0.802856 -0.663225 -0.656775
    30 -0.679044 0.802172 1.783101 1.088991 -0.652080 -2.442852
    31 0.000001 -0.000001 2.508970 -0.233631 -0.190740 -0.292386
    32 0.000000 -0.000002 1.809535 0.179447 -0.031042 -0.272878
    33 -0.219778 1.615330 1.611036 -0.507118 -1.408360 -1.183618
    34 -0.000001 -0.000002 3.981597 0.150143 -0.103205 -0.057573
    35 0.000001 0.000000 2.375986 0.764030 0.017328 0.006860
    36 0.000000 0.000000 1.603096 0.621906 -0.070387 -0.010803
    37 0.091868 1.886060 0.634828 2.832853 -1.561694 1.957969
    38 0.000000 0.000000 3.698122 0.131223 -0.039264 0.152226
    39 -0.000001 0.000001 2.366730 1.076329 -0.170783 0.211730
    40 0.000001 0.000001 2.035123 0.812749 0.006524 0.001049
    41 0.156257 1.870642 -0.501948 2.828138 -1.480673 2.199608
    42 -0.000001 -0.000001 3.281011 0.464660 0.077693 -0.070272
    43 -0.000001 0.000000 2.688646 1.366424 -0.122134 0.235756
    44 -0.000001 0.000000 1.713443 0.476017 0.006321 0.001410
    45 -0.146424 1.721204 -1.673859 1.045794 -1.484741 4.097058
    46 0.000000 0.000001 3.209387 0.600306 -0.329135 0.218327
    47 0.000000 0.000000 1.943288 1.308968 -0.158256 0.204603
    48 0.000000 0.000000 1.241909 0.221947 -0.049495 0.000143
    49 0.000002 10.746529 0.000001 0.000000 0.000000 0.000000
    50 0.019532 70.195742 15.352807 -0.291850 0.042689 0.037512
  time 23
    0 0.000000 -12.125000 -83.062500 1.549470 0.000004 -0.000004
    1 0.000000 65.928001 -3.788860 0.000000 0.000000 0.000000
    2 2.328150 0.000000 0.000000 -0.313426 0.000000 0.000000
    3 8.600150 -0.022797 -0.051090 0.082459 0.223830 -3.039599
    4 0.000000 10.075568 -0.000001 1.768849 -0.125304 -0.171992
    5 0.000002 17.373682 0.000000 0.968430 0.720413 0.733760
    6 0.679043 0.802172 1.783102 0.793913 -0.098345 2.654861
    7 0.000000 -0.000002 2.508970 -0.030906 -0.055064 0.003399
    8 0.000000 0.000001 1.809536 -0.214961 0.000383 -0.005248
    9 0.219777 1.615330 1.611036 -0.507118 1.408360 1.183619
    10 0.000000 -0.000002 3.981597 0.377689 0.007012 -0.156099
    11 0.000000 0.000000 2.375985 0.800969 -0.017328 -0.006860
    12 0.000001 -0.000001 1.603097 0.592164 0.070386 0.010805
    13 -0.091869 1.886059 0.634829 5.076717 1.356014 0.205515
    14 0.000000 0.000000 3.698122 0.753268 0.034549 -0.107612
    15 0.000000 0.000001 2.366730 1.475578 -0.002247 -0.000783
    16 0.000001 -0.000001 2.035123 0.308140 -0.006524 -0.001048
    17 -0.156257 1.870642 -0.501948 4.683136 1.391675 -0.403799
    18 0.000000 0.000001 3.281008 0.692695 -0.009265 -0.168082
    19 0.000000 0.000001 2.688646 1.547853 -0.027354 -0.007996
    20 0.000001 0.000000 1.713443 0.628658 -0.006322 -0.001410
    21 0.146424 1.721204 -1.673858 4.631842 1.387486 -0.616416
    22 -0.000001 0.000000 3.209387 0.584265 -0.034501 -0.532687
    23 0.000000 0.000001 1.943288 1.730861 -0.029961 -0.007493
    24 0.000000 -0.000001 1.241907 0.544731 0.049495 -0.000144
    25 0.000000 10.746529 0.000000 0.000000 0.000000 0.000000
    26 -2.328150 0.000000 0.000000 2.828156 0.000000 0.000000
    27 -8.600150 0.022796 0.051090 3.149959 0.321487 -2.852198
    28 0.000021 10.075568 0.000001 1.928219 0.116902 0.186971
    29 0.000001 17.373682 0.000001 0.802734 -0.663252 -0.656675
    30 -0.679044 0.802172 1.783101 1.088991 -0.652080 -2.442852
    31 0.000001 -0.000001 2.508970 -0.233631 -0.190740 -0.292386
    32 0.000000 -0.000002 1.809535 0.179447 -0.031042 -0.272878
    33 -0.219778 1.615330 1.611036 -0.507118 -1.408360 -1.183618
    34 -0.000001 -0.000002 3.981597 0.150143 -0.103205 -0.057573
    35 0.000001 0.000000 2.375986 0.764030 0.017328 0.006860
    36 0.000000 0.000000 1.603096 0.621906 -0.070387 -0.010803
    37 0.091868 1.886060 0.634828 2.832853 -1.561694 1.957981
    38 0.000000 0.000000 3.698122 0.131223 -0.039264 0.152226
    39 -0.000001 0.000001 2.366730 1.076329 -0.170783 0.211730
    40 0.000001 0.000001 2.035123 0.812749 0.006524 0.001049
    41 0.156257 1.870642 -0.501948 2.828150 -1.480673 2.199608
    42 -0.000001 -0.000001 3.281011 0.464660 0.077693 -0.070272
    43 -0.000001 0.000000 2.688646 1.366424 -0.122134 0.235756
    44 -0.000001 0.000000 1.713443 0.476017 0.006321 0.001410
    45 -0.146424 1.721204 -1.673859 1.045794 -1.484741 4.097058
    46 0.000000 0.000001 3.209387 0.600306 -0.329135 0.218327
    47 0.000000 0.000000 1.943288 1.308968 -0.158256 0.204603
    48 0.000000 0.000000 1.241909 0.221947 -0.049495 0.000143
    49 0.000002 10.746529 0.000001 0.000000 0.000000 0.000000
    50 0.019532 70.195742 15.352807 -0.291850 0.042689 0.037512
  time 24
    0 0.000000 -12.125000 -83.062500 1.549470 0.000004 -0.000004
    1 0.000000 65.928001 -3.788860 0.000000 0.000000 0.000000
    2 2.328150 0.000000 0.000000 -0.313426 0.000000 0.000000
    3 8.600150 -0.022797 -0.051090 0.082567 0.223830 -3.039587
    4 0.000000 10.075568 -0.000001 1.768849 -0.125304 -0.171992
    5 0.000002 17.373682 0.000000 0.968340 0.720462 0.733715
    6 0.679043 0.802172 1.783102 0.793913 -0.098345 2.654861
    7 0.000000 -0.000002 2.508970 -0.030906 -0.055064 0.003399
    8 0.000000 0.000001 1.809536 -0.214961 0.000383 -0.005248
    9 0.219777 1.615330 1.611036 -0.507118 1.408360 1.183619
    10 0.000000 -0.000002 3.981597 0.377689 0.007012 -0.156099
    11 0.000000 0.000000 2.375985 0.800987 -0.017328 -0.006860
    12 0.000001 -0.000001 1.603097 0.592164 0.070386 0.010805
    13 -0.091869 1.886059 0.634829 5.076717 1.356014 0.205515
    14 0.000000 0.000000 3.698122 0.753268 0.034549 -0.107612
    15 0.000000 0.000001 2.366730 1.475578 -0.002247 -0.000783
    16 0.000001 -0.000001 2.035123 0.308140 -0.006524 -0.001048
    17 -0.156257 1.870642 -0.501948 4.683136 1.391675 -0.403799
    18 0.000000 0.000001 3.281008 0.692695 -0.009265 -0.168082
    19 0.000000 0.000001 2.688646 1.547853 -0.027354 -0.007996
    20 0.000001 0.000000 1.713443 0.628658 -0.006322 -0.001410
    21 0.146424 1.721204 -1.673858 4.631842 1.387486 -0.616416
    22 -0.000001 0.000000 3.209387 0.584265 -0.034501 -0.532687
    23 0.000000 0.000001 1.943288 1.730861 -0.029961 -0.007493
    24 0.000000 -0.000001 1.241907 0.544731 0.049495 -0.000144
    25 0.000000 10.746529 0.000000 0.000000 0.000000 0.000000
    26 -2.328150 0.000000 0.000000 2.828156 0.000000 0.000000
    27 -8.600150 0.022796 0.051090 3.150069 0.321450 -2.852139
    28 0.000021 10.075568 0.000001 1.928219 0.116914 0.186971
    29 0.000001 17.373682 0.000001 0.802586 -0.663279 -0.656595
    30 -0.679044 0.802172 1.783101 1.088991 -0.652080 -2.442852
    31 0.000001 -0.000001 2.508970 -0.233631 -0.190740 -0.292386
    32 0.000000 -0.000002 1.809535 0.179447 -0.031042 -0.272878
    33 -0.219778 1.615330 1.611036 -0.507118 -1.408360 -1.183618
    34 -0.000001 -0.000002 3.981597 0.150143 -0.103205 -0.057573
    35 0.000001 0.000000 2.375986 0.764030 0.017328 0.006860
    36 0.000000 0.000000 1.603096 0.621906 -0.070387 -0.010803
    37 0.091868 1.886060 0.634828 2.832853 -1.561694 1.957969
    38 0.000000 0.000000 3.698122 0.131223 -0.039264 0.152226
    39 -0.000001 0.000001 2.366730 1.076329 -0.170783 0.211730
    40 0.000001 0.000001 2.035123 0.812749 0.006524 0.001049
    41 0.156257 1.870642 -0.501948 2.828138 -1.480673 2.199620
    42 -0.000001 -0.000001 3.281011 0.464660 0.077693 -0.070272
    43 -0.000001 0.000000 2.688646 1.366424 -0.122134 0.235756
    44 -0.000001 0.000000 1.713443 0.476017 0.006321 0.001410
    45 -0.146424 1.721204 -1.673859 1.045794 -1.484741 4.097058
    46 0.000000 0.000001 3.209387 0.600306 -0.329135 0.218327
    47 0.000000 0.000000 1.943288 1.308968 -0.158256 0.204603
    48 0.000000 0.000000 1.241909 0.221947 -0.049495 0.000143
    49 0.000002 10.746529 0.000001 0.000000 0.000000 0.000000
    50 0.019532 70.199648 15.352807 -0.291850 0.042689 0.037512
  time 25
    0 0.000000 -12.125000 -83.062500 1.549470 0.000004 -0.000004
    1 0.000000 65.928001 -3.788860 0.000000 0.000000 0.000000
    2 2.328150 0.000000 0.000000 -0.313426 0.000000 0.000000
    3 8.600150 -0.022797 -0.051090 0.082648 0.223842 -3.039575
    4 0.000000 10.075568 -0.000001 1.768849 -0.125304 -0.171992
    5 0.000002 17.373682 0.000000 0.968281 0.720536 0.733693
    6 0.679043 0.802172 1.783102 0.793913 -0.098345 2.654861
    7 0.000000 -0.000002 2.508970 -0.030906 -0.055064 0.003399
    8 0.000000 0.000001 1.809536 -0.214961 0.000383 -0.005248
    9 0.219777 1.615330 1.611036 -0.507118 1.408360 1.183619
    10 0.000000 -0.000002 3.981597 0.377689 0.007012 -0.156099
    11 0.000000 0.000000 2.375985 0.800969 -0.017328 -0.006860
    12 0.000001 -0.000001 1.603097 0.592164 0.070386 0.010805
    13 -0.091869 1.886059 0.634829 5.076717 1.356014 0.205515
    14 0.000000 0.000000 3.698122 0.753268 0.034549 -0.107612
    15 0.000000 0.000001 2.366730 1.475578 -0.002247 -0.000783
    16 0.000001 -0.000001 2.035123 0.308140 -0.006524 -0.001048
    17 -0.156257 1.870642 -0.501948 4.683136 1.391675 -0.403752
    18 0.000000 0.000001 3.281008 0.692695 -0.009265 -0.168082
    19 0.000000 0.000001 2.688646 1.547853 -0.027354 -0.007996
    20 0.000001 0.000000 1.713443 0.628658 -0.006322 -0.001410
    21 0.146424 1.721204 -1.673858 4.631842 1.387486 -0.616376
    22 -0.000001 0.000000 3.209387 0.584265 -0.034501 -0.532704
    23 0.000000 0.000001 1.943288 1.730861 -0.029961 -0.007493
    24 0.000000 -0.000001 1.241907 0.544731 0.049495 -0.000144
    25 0.000000 10.746529 0.000000 0.000000 0.000000 0.000000
    26 -2.328150 0.000000 0.000000 2.828156 0.000000 0.000000
    27 -8.600150 0.022796 0.051090 3.150157 0.321400 -2.852091
    28 0.000021 10.075568 0.000001 1.928219 0.116914 0.186971
    29 0.000001 17.373682 0.000001 0.802464 -0.663279 -0.656494
    30 -0.679044 0.802172 1.783101 1.088991 -0.652080 -2.442852
    31 0.000001 -0.000001 2.508970 -0.233631 -0.190740 -0.292386
    32 0.000000 -0.000002 1.809535 0.179447 -0.031042 -0.272878
    33 -0.219778 1.615330 1.611036 -0.507118 -1.408360 -1.183618
    34 -0.000001 -0.000002 3.981597 0.150143 -0.103205 -0.057573
    35 0.000001 0.000000 2.375986 0.764030 0.017328 0.006860
    36 0.000000 0.000000 1.603096 0.621906 -0.070387 -0.010803
    37 0.091868 1.886060 0.634828 2.832841 -1.561694 1.957969
    38 0.000000 0.000000 3.698122 0.131223 -0.039264 0.152226
    39 -0.000001 0.000001 2.366730 1.076329 -0.170783 0.211730
    40 0.000001 0.000001 2.035123 0.812749 0.006524 0.001049
    41 0.156257 1.870642 -0.501948 2.828138 -1.480673 2.199608
    42 -0.000001 -0.000001 3.281011 0.464660 0.077693 -0.070272
    43 -0.000001 0.000000 2.688646 1.366424 -0.122134 0.235756
    44 -0.000001 0.000000 1.713443 0.476017 0.006321 0.001410
    45 -0.146424 1.721204 -1.673859 1.045794 -1.484741 4.097058
    46 0.000000 0.000001 3.209387 0.600306 -0.329135 0.218327
    47 0.000000 0.000000 1.943288 1.308968 -0.158256 0.204603
    48 0.000000 0.000000 1.241909 0.221947 -0.049495 0.000143
    49 0.000002 10.746529 0.000001 0.000000 0.000000 0.000000
    50 0.015625 70.199648 15.352807 -0.291850 0.042689 0.037512
  time 26
    0 0.000000 -12.125000 -83.062500 1.549470 0.000004 -0.000004
    1 0.000000 65.928001 -3.788860 0.000000 0.000000 0.000000
    2 2.328150 0.000000 0.000000 -0.313426 0.000000 0.000000
    3 8.600150 -0.022797 -0.051090 0.082729 0.223842 -3.039575
    4 0.000000 10.075568 -0.000001 1.768849 -0.125304 -0.171992
    5 0.000002 17.373682 0.000000 0.968221 0.720586 0.733671
    6 0.679043 0.802172 1.783102 0.793913 -0.098345 2.654861
    7 0.000000 -0.000002 2.508970 -0.030906 -0.055064 0.003399
    8 0.000000 0.000001 1.809536 -0.214961 0.000383 -0.005248
    9 0.219777 1.615330 1.611036 -0.507118 1.408360 1.183619
    10 0.000000 -0.000002 3.981597 0.377689 0.007012 -0.156099
    11 0.000000 0.000000 2.375985 0.800969 -0.017328 -0.006860
    12 0.000001 -0.000001 1.603097 0.592164 0.070386 0.010805
    13 -0.091869 1.886059 0.634829 5.076717 1.356014 0.205515
    14 0.000000 0.000000 3.698122 0.753268 0.034549 -0.107612
    15 0.000000 0.000001 2.366730 1.475578 -0.002247 -0.000783
    16 0.000001 -0.000001 2.035123 0.308140 -0.006524 -0.001048
    17 -0.156257 1.870642 -0.501948 4.683136 1.391675 -0.403799
    18 0.000000 0.000001 3.281008 0.692695 -0.009265 -0.168082
    19 0.000000 0.000001 2.688646 1.547853 -0.027354 -0.007996
    20 0.000001 0.000000 1.713443 0.628658 -0.006322 -0.001410
    21 0.146424 1.721204 -1.673858 4.631842 1.387486 -0.616416
    22 -0.000001 0.000000 3.209387 0.584265 -0.034501 -0.532687
    23 0.000000 0.000001 1.943288 1.730861 -0.029961 -0.007493
    24 0.000000 -0.000001 1.241907 0.544731 0.049495 -0.000144
    25 0.000000 10.746529 0.000000 0.000000 0.000000 0.000000
    26 -2.328150 0.000000 0.000000 2.828156 0.000000 0.000000
    27 -8.600150 0.022796 0.051090 3.150222 0.321363 -2.852043
    28 0.000021 10.075568 0.000001 1.928219 0.116914 0.186971
    29 0.000001 17.373682 0.000001 0.802366 -0.663305 -0.656434
    30 -0.679044 0.802172 1.783101 1.088991 -0.652080 -2.442852
    31 0.000001 -0.000001 2.508970 -0.233631 -0.190740 -0.292386
    32 0.000000 -0.000002 1.809535 0.179447 -0.031042 -0.272878
    33 -0.219778 1.615330 1.611036 -0.507118 -1.408360 -1.183618
    34 -0.000001 -0.000002 3.981597 0.150143 -0.103205 -0.057573
    35 0.000001 0.000000 2.375986 0.764046 0.017328 0.006860
    36 0.000000 0.000000 1.603096 0.621906 -0.070387 -0.010803
    37 0.091868 1.886060 0.634828 2.832853 -1.561694 1.957969
    38 0.000000 0.000000 3.698122 0.131223 -0.039264 0.152226
    39 -0.000001 0.000001 2.366730 1.076329 -0.170783 0.211730
    40 0.000001 0.000001 2.035123 0.812749 0.006524 0.001049
    41 0.156257 1.870642 -0.501948 2.828138 -1.480673 2.199608
    42 -0.000001 -0.000001 3.281011 0.464660 0.077693 -0.070272
    43 -0.000001 0.000000 2.688646 1.366424 -0.122134 0.235756
    44 -0.000001 0.000000 1.713443 0.476017 0.006321 0.001410
    45 -0.146424 1.721204 -1.673859 1.045794 -1.484741 4.097058
    46 0.000000 0.000001 3.209387 0.600306 -0.329135 0.218327
    47 0.000000 0.000000 1.943288 1.308968 -0.158256 0.204603
    48 0.000000 0.000000 1.241909 0.221947 -0.049495 0.000143
    49 0.000002 10.746529 0.000001 0.000000 0.000000 0.000000
    50 0.015625 70.203555 15.352807 -0.291850 0.042689 0.037512
  time 27
    0 0.000000 -12.125000 -83.062500 1.549470 0.000004 -0.000004
    1 0.000000 65.928001 -3.788860 0.000000 0.000000 0.000000
    2 2.328150 0.000000 0.000000 -0.313426 0.000000 0.000000
    3 8.600150 -0.022797 -0.051090 0.082783 0.223854 -3.039575
    4 0.000000 10.075568 -0.000001 1.768849 -0.125304 -0.171992
    5 0.000002 17.373682 0.000000 0.968162 0.720635 0.733671
    6 0.679043 0.802172 1.783102 0.793913 -0.098345 2.654861
    7 0.000000 -0.000002 2.508970 -0.030906 -0.055064 0.003399
    8 0.000000 0.000001 1.809536 -0.214961 0.000383 -0.005248
    9 0.219777 1.615330 1.611036 -0.507118 1.408360 1.183619
    10 0.000000 -0.000002 3.981597 0.377689 0.007012 -0.156099
    11 0.000000 0.000000 2.375985 0.800987 -0.017328 -0.006860
    12 0.000001 -0.000001 1.603097 0.592164 0.070386 0.010805
    13 -0.091869 1.886059 0.634829 5.076717 1.356026 0.205515
    14 0.000000 0.000000 3.698122 0.753268 0.034549 -0.107612
    15 0.000000 0.000001 2.366730 1.475578 -0.002247 -0.000783
    16 0.000001 -0.000001 2.035123 0.308140 -0.006524 -0.001048
    17 -0.156257 1.870642 -0.501948 4.683136 1.391675 -0.403799
    18 0.000000 0.000001 3.281008 0.692695 -0.009265 -0.168082
    19 0.000000 0.000001 2.688646 1.547853 -0.027354 -0.007996
    20 0.000001 0.000000 1.713443 0.628658 -0.006322 -0.001410
    21 0.146424 1.721204 -1.673858 4.631842 1.387486 -0.616416
    22 -0.000001 0.000000 3.209387 0.584265 -0.034501 -0.532687
    23 0.000000 0.000001 1.943288 1.730861 -0.029961 -0.007493
    24 0.000000 -0.000001 1.241907 0.544749 0.049495 -0.000144
    25 0.000000 10.746529 0.000000 0.000000 0.000000 0.000000
    26 -2.328150 0.000000 0.000000 2.828156 0.000000 0.000000
    27 -8.600150 0.022796 0.051090 3.150288 0.321338 -2.852007
    28 0.000021 10.075568 0.000001 1.928175 0.116914 0.186971
    29 0.000001 17.373682 0.000001 0.802292 -0.663305 -0.656374
    30 -0.679044 0.802172 1.783101 1.088991 -0.652080 -2.442852
    31 0.000001 -0.000001 2.508970 -0.233631 -0.190740 -0.292386
    32 0.000000 -0.000002 1.809535 0.179447 -0.031042 -0.272878
    33 -0.219778 1.615330 1.611036 -0.507118 -1.408360 -1.183618
    34 -0.000001 -0.000002 3.981597 0.150143 -0.103205 -0.057573
    35 0.000001 0.000000 2.375986 0.764046 0.017328 0.006860
    36 0.000000 0.000000 1.603096 0.621906 -0.070387 -0.010803
    37 0.091868 1.886060 0.634828 2.832853 -1.561694 1.957969
    38 0.000000 0.000000 3.698122 0.131223 -0.039264 0.152226
    39 -0.000001 0.000001 2.366730 1.076329 -0.170783 0.211730
    40 0.000001 0.000001 2.035123 0.812749 0.006524 0.001049
    41 0.156257 1.870642 -0.501948 2.828138 -1.480673 2.199608
    42 -0.000001 -0.000001 3.281011 0.464660 0.077693 -0.070272
    43 -0.000001 0.000000 2.688646 1.366424 -0.122134 0.235756
    44 -0.000001 0.000000 1.713443 0.476017 0.006321 0.001410
    45 -0.146424 1.721204 -1.673859 1.045794 -1.484741 4.097058
    46 0.000000 0.000001 3.209387 0.600306 -0.329135 0.218327
    47 0.000000 0.000000 1.943288 1.308968 -0.158256 0.204603
    48 0.000000 0.000000 1.241909 0.221947 -0.049495 0.000143
    49 0.000002 10.746529 0.000001 0.000000 0.000000 0.000000
    50 0.015625 70.203555 15.352807 -0.291850 0.042689 0.037512
  time 28
    0 0.000000 -12.125000 -83.062500 1.549470 0.000004 -0.000004
    1 0.000000 65.928001 -3.788860 0.000000 0.000000 0.000000
    2 2.328150 0.000000 0.000000 -0.313426 0.000000 0.000000
    3 8.600150 -0.022797 -0.051090 0.082810 0.223866 -3.039575
    4 0.000000 10.075568 -0.000001 1.768849 -0.125304 -0.171992
    5 0.000002 17.373682 0.000000 0.968132 0.720660 0.733648
    6 0.679043 0.802172 1.783102 0.793913 -0.098345 2.654861
    7 0.000000 -0.000002 2.508970 -0.030906 -0.055064 0.003399
    8 0.000000 0.000001 1.809536 -0.214961 0.000383 -0.005248
    9 0.219777 1.615330 1.611036 -0.507118 1.408360 1.183619
    10 0.000000 -0.000002 3.981597 0.377689 0.007012 -0.156099
    11 0.000000 0.000000 2.375985 0.800987 -0.017328 -0.006860
    12 0.000001 -0.000001 1.603097 0.592164 0.070386 0.010805
    13 -0.091869 1.886059 0.634829 5.076717 1.356014 0.205515
    14 0.000000 0.000000 3.698122 0.753268 0.034549 -0.107612
    15 0.000000 0.000001 2.366730 1.475578 -0.002247 -0.000783
    16 0.000001 -0.000001 2.035123 0.308140 -0.006524 -0.001048
    17 -0.156257 1.870642 -0.501948 4.683136 1.391675 -0.403799
    18 0.000000 0.000001 3.281008 0.692695 -0.009265 -0.168082
    19 0.000000 0.000001 2.688646 1.547853 -0.027354 -0.007996
    20 0.000001 0.000000 1.713443 0.628658 -0.006322 -0.001410
    21 0.146424 1.721204 -1.673858 4.631842 1.387486 -0.616416
    22 -0.000001 0.000000 3.209387 0.584265 -0.034501 -0.532687
    23 0.000000 0.000001 1.943288 1.730861 -0.029961 -0.007493
    24 0.000000 -0.000001 1.241907 0.544731 0.049495 -0.000144
    25 0.000000 10.746529 0.000000 0.000000 0.000000 0.000000
    26 -2.328150 0.000000 0.000000 2.828156 0.000000 0.000000
    27 -8.600150 0.022796 0.051090 3.150332 0.321313 -2.851983
    28 0.000021 10.075568 0.000001 1.928175 0.116914 0.186971
    29 0.000001 17.373682 0.000001 0.802243 -0.663305 -0.656334
    30 -0.679044 0.802172 1.783101 1.088991 -0.652080 -2.442852
    31 0.000001 -0.000001 2.508970 -0.233631 -0.190740 -0.292386
    32 0.000000 -0.000002 1.809535 0.179447 -0.031042 -0.272878
    33 -0.219778 1.615330 1.611036 -0.507118 -1.408360 -1.183618
    34 -0.000001 -0.000002 3.981597 0.150143 -0.103205 -0.057573
    35 0.000001 0.000000 2.375986 0.764030 0.017328 0.006860
    36 0.000000 0.000000 1.603096 0.621906 -0.070387 -0.010803
    37 0.091868 1.886060 0.634828 2.832853 -1.561694 1.957969
    38 0.000000 0.000000 3.698122 0.131223 -0.039264 0.152226
    39 -0.000001 0.000001 2.366730 1.076329 -0.170783 0.211730
    40 0.000001 0.000001 2.035123 0.812749 0.006524 0.001049
    41 0.156257 1.870642 -0.501948 2.828138 -1.480673 2.199608
    42 -0.000001 -0.000001 3.281011 0.464660 0.077693 -0.070272
    43 -0.000001 0.000000 2.688646 1.366424 -0.122134 0.235756
    44 -0.000001 0.000000 1.713443 0.476017 0.006321 0.001410
    45 -0.146424 1.721204 -1.673859 1.045794 -1.484741 4.097058
    46 0.000000 0.000001 3.209387 0.600306 -0.329135 0.218327
    47 0.000000 0.000000 1.943288 1.309000 -0.158256 0.204603
    48 0.000000 0.000000 1.241909 0.221947 -0.049495 0.000143
    49 0.000002 10.746529 0.000001 0.000000 0.000000 0.000000
    50 0.015625 70.203555 15.352807 -0.291850 0.042689 0.037512
  time 29
    0 0.000000 -12.125000 -83.062500 1.549470 0.000004 -0.000004
    1 0.000000 65.928001 -3.788860 0.000000 0.000000 0.000000
    2 2.328150 0.000000 0.000000 -0.313426 0.000000 0.000000
    3 8.600150 -0.022797 -0.051090 0.082837 0.223866 -3.039575
    4 0.000000 10.075568 -0.000001 1.768849 -0.125304 -0.171992
    5 0.000002 17.373682 0.000000 0.968132 0.720660 0.733648
    6 0.679043 0.802172 1.783102 0.793913 -0.098345 2.654861
    7 0.000000 -0.000002 2.508970 -0.030906 -0.055064 0.003399
    8 0.000000 0.000001 1.809536 -0.214961 0.000383 -0.005248
    9 0.219777 1.615330 1.611036 -0.507118 1.408360 1.183619
    10 0.000000 -0.000002 3.981597 0.377689 0.007012 -0.156099
    11 0.000000 0.000000 2.375985 0.800987 -0.017328 -0.006860
    12 0.000001 -0.000001 1.603097 0.592164 0.070386 0.010805
    13 -0.091869 1.886059 0.634829 5.076717 1.356014 0.205581
    14 0.000000 0.000000 3.698122 0.753268 0.034549 -0.107612
    15 0.000000 0.000001 2.366730 1.475578 -0.002247 -0.000783
    16 0.000001 -0.000001 2.035123 0.308140 -0.006524 -0.001048
    17 -0.156257 1.870642 -0.501948 4.683136 1.391675 -0.403799
    18 0.000000 0.000001 3.281008 0.692695 -0.009265 -0.168082
    19 0.000000 0.000001 2.688646 1.547853 -0.027354 -0.007996
    20 0.000001 0.000000 1.713443 0.628658 -0.006322 -0.001410
    21 0.146424 1.721204 -1.673858 4.631842 1.387486 -0.616416
    22 -0.000001 0.000000 3.209387 0.584265 -0.034501 -0.532687
    23 0.000000 0.000001 1.943288 1.730861 -0.029961 -0.007493
    24 0.000000 -0.000001 1.241907 0.544731 0.049495 -0.000144
    25 0.000000 10.746529 0.000000 0.000000 0.000000 0.000000
    26 -2.328150 0.000000 0.000000 2.828156 0.000000 0.000000
    27 -8.600150 0.022796 0.051090 3.150332 0.321301 -2.851971
    28 0.000021 10.075568 0.000001 1.928175 0.116914 0.186971
    29 0.000001 17.373682 0.000001 0.802218 -0.663305 -0.656314
    30 -0.679044 0.802172 1.783101 1.088991 -0.652080 -2.442852
    31 0.000001 -0.000001 2.508970 -0.233631 -0.190740 -0.292386
    32 0.000000 -0.000002 1.809535 0.179447 -0.031042 -0.272878
    33 -0.219778 1.615330 1.611036 -0.507118 -1.408360 -1.183618
    34 -0.000001 -0.000002 3.981597 0.150143 -0.103205 -0.057573
    35 0.000001 0.000000 2.375986 0.764030 0.017328 0.006860
    36 0.000000 0.000000 1.603096 0.621906 -0.070387 -0.010803
    37 0.091868 1.886060 0.634828 2.832865 -1.561694 1.957981
    38 0.000000 0.000000 3.698122 0.131223 -0.039264 0.152226
    39 -0.000001 0.000001 2.366730 1.076329 -0.170783 0.211730
    40 0.000001 0.000001 2.035123 0.812749 0.006524 0.001049
    41 0.156257 1.870642 -0.501948 2.828150 -1.480673 2.199620
    42 -0.000001 -0.000001 3.281011 0.464660 0.077693 -0.070272
    43 -0.000001 0.000000 2.688646 1.366424 -0.122134 0.235756
    44 -0.000001 0.000000 1.713443 0.476017 0.006321 0.001410
    45 -0.146424 1.721204 -1.673859 1.045794 -1.484741 4.097058
    46 0.000000 0.000001 3.209387 0.600306 -0.329135 0.218327
    47 0.000000 0.000000 1.943288 1.308968 -0.158256 0.204603
    48 0.000000 0.000000 1.241909 0.221947 -0.049495 0.000143
    49 0.000002 10.746529 0.000001 0.000000 0.000000 0.000000
    50 0.015625 70.203555 15.352807 -0.291850 0.042689 0.037512
end
