// Created by Crowbar 0.74
version 1
nodes
  0 "root" -1
  1 "spine" 0
  2 "bip_collar_L" 1
  3 "bip_upperArm_L" 2
  4 "bip_lowerArm_L" 3
  5 "bip_hand_L" 4
  6 "bip_thumb_0_L" 5
  7 "bip_thumb_1_L" 6
  8 "bip_thumb_2_L" 7
  9 "bip_index_meta_0_L" 5
  10 "bip_index_0_L" 9
  11 "bip_index_1_L" 10
  12 "bip_index_2_L" 11
  13 "bip_middle_meta_0_L" 5
  14 "bip_middle_0_L" 13
  15 "bip_middle_1_L" 14
  16 "bip_middle_2_L" 15
  17 "bip_ring_meta_0_L" 5
  18 "bip_ring_0_L" 17
  19 "bip_ring_1_L" 18
  20 "bip_ring_2_L" 19
  21 "bip_pinky_meta_0_L" 5
  22 "bip_pinky_0_L" 21
  23 "bip_pinky_1_L" 22
  24 "bip_pinky_2_L" 23
  25 "bip_helper_L" 4
  26 "bip_collar_R" 1
  27 "bip_upperArm_R" 26
  28 "bip_lowerArm_R" 27
  29 "bip_hand_R" 28
  30 "bip_thumb_0_R" 29
  31 "bip_thumb_1_R" 30
  32 "bip_thumb_2_R" 31
  33 "bip_index_meta_0_R" 29
  34 "bip_index_0_R" 33
  35 "bip_index_1_R" 34
  36 "bip_index_2_R" 35
  37 "bip_middle_meta_0_R" 29
  38 "bip_middle_0_R" 37
  39 "bip_middle_1_R" 38
  40 "bip_middle_2_R" 39
  41 "bip_ring_meta_0_R" 29
  42 "bip_ring_0_R" 41
  43 "bip_ring_1_R" 42
  44 "bip_ring_2_R" 43
  45 "bip_pinky_meta_0_R" 29
  46 "bip_pinky_0_R" 45
  47 "bip_pinky_1_R" 46
  48 "bip_pinky_2_R" 47
  49 "bip_helper_R" 28
  50 "weapon_bone_L" 0
end
skeleton
  time 0
    0 0.000000 -0.785180 -69.529466 1.549464 0.000000 0.000000
    1 0.000000 65.928001 -3.788860 0.000000 0.000000 0.000000
    2 2.328150 0.000000 0.000000 -0.313426 0.000000 0.000000
    3 8.600150 -0.022797 -0.051090 -0.453460 0.225172 -3.139359
    4 0.000000 10.075568 -0.000001 1.401160 -0.144539 -0.137368
    5 0.000002 17.373682 0.000000 0.688144 0.694151 0.523756
    6 0.679043 0.802172 1.783102 0.793913 -0.098345 2.654861
    7 0.000000 -0.000002 2.508970 -0.030906 -0.055064 0.003399
    8 0.000000 0.000001 1.809536 -0.214961 0.000383 -0.005248
    9 0.219777 1.615330 1.611036 -0.507118 1.408360 1.183619
    10 0.000000 -0.000002 3.981597 0.377689 0.007012 -0.156099
    11 0.000000 0.000000 2.375985 0.800969 -0.017328 -0.006860
    12 0.000001 -0.000001 1.603097 0.592164 0.070386 0.010805
    13 -0.091869 1.886059 0.634829 5.076717 1.356014 0.205515
    14 0.000000 0.000000 3.698122 0.753268 0.034549 -0.107612
    15 0.000000 0.000001 2.366730 1.475578 -0.002247 -0.000783
    16 0.000001 -0.000001 2.035123 0.308129 -0.006525 -0.001049
    17 -0.156257 1.870642 -0.501948 4.683136 1.391675 -0.403799
    18 0.000000 0.000001 3.281008 0.692695 -0.009265 -0.168082
    19 0.000000 0.000001 2.688646 1.547853 -0.027354 -0.007996
    20 0.000001 0.000000 1.713443 0.628658 -0.006322 -0.001410
    21 0.146424 1.721204 -1.673858 4.631842 1.387486 -0.616416
    22 -0.000001 0.000000 3.209387 0.584265 -0.034501 -0.532687
    23 0.000000 0.000001 1.943288 1.730861 -0.029961 -0.007493
    24 0.000000 -0.000001 1.241907 0.544748 0.049494 -0.000142
    25 0.000000 10.746529 0.000000 0.000000 0.000000 0.000000
    26 -2.328150 0.000000 0.000000 2.828156 0.000000 0.000000
    27 -8.600150 0.022796 0.051090 2.633763 0.456233 -3.097799
    28 0.000021 10.075568 0.000001 1.621324 0.133046 0.158112
    29 0.000001 17.373682 0.000001 0.465765 -0.744720 -0.450925
    30 -0.679044 0.802172 1.783101 1.088987 -0.652061 -2.442862
    31 0.000001 -0.000001 2.508970 -0.233631 -0.190740 -0.292386
    32 0.000000 -0.000002 1.809535 0.179447 -0.031042 -0.272878
    33 -0.219778 1.615330 1.611036 -0.507118 -1.408360 -1.183618
    34 -0.000001 -0.000002 3.981597 0.150143 -0.103205 -0.057575
    35 0.000001 0.000000 2.375986 0.764030 0.017328 0.006860
    36 0.000000 0.000000 1.603096 0.621906 -0.070387 -0.010803
    37 0.091868 1.886060 0.634828 2.832841 -1.561694 1.957969
    38 0.000000 0.000000 3.698122 0.131223 -0.039264 0.152226
    39 -0.000001 0.000001 2.366730 1.076303 -0.170774 0.211724
    40 0.000001 0.000001 2.035123 0.812749 0.006524 0.001049
    41 0.156257 1.870642 -0.501948 2.828138 -1.480673 2.199608
    42 -0.000001 -0.000001 3.281011 0.464660 0.077693 -0.070272
    43 -0.000001 0.000000 2.688646 1.366424 -0.122134 0.235756
    44 -0.000001 0.000000 1.713443 0.476017 0.006321 0.001410
    45 -0.146424 1.721204 -1.673859 1.045794 -1.484741 4.097123
    46 0.000000 0.000001 3.209387 0.600306 -0.329135 0.218327
    47 0.000000 0.000000 1.943288 1.308968 -0.158256 0.204603
    48 0.000000 0.000000 1.241909 0.221947 -0.049495 0.000143
    49 0.000002 10.746529 0.000001 0.000000 0.000000 0.000000
    50 0.773461 52.558485 15.524687 0.753886 0.000000 0.000000
  time 1
    0 0.000000 -3.222755 -70.275582 1.549464 0.000000 0.000000
    1 0.000000 65.928001 -3.788860 0.000000 0.000000 0.000000
    2 2.328150 0.000000 0.000000 -0.313426 0.000000 0.000000
    3 8.600150 -0.022797 -0.051090 0.056427 0.208082 -3.058931
    4 0.000000 10.075568 -0.000001 0.906358 -0.170102 -0.090557
    5 0.000002 17.373682 0.000000 0.695710 0.664776 0.514163
    6 0.679043 0.802172 1.783102 0.793913 -0.098345 2.654861
    7 0.000000 -0.000002 2.508970 -0.030906 -0.055064 0.003399
    8 0.000000 0.000001 1.809536 -0.214961 0.000383 -0.005248
    9 0.219777 1.615330 1.611036 -0.507118 1.408360 1.183619
    10 0.000000 -0.000002 3.981597 0.377689 0.007012 -0.156099
    11 0.000000 0.000000 2.375985 0.800969 -0.017328 -0.006860
    12 0.000001 -0.000001 1.603097 0.592164 0.070386 0.010805
    13 -0.091869 1.886059 0.634829 5.076717 1.356014 0.205515
    14 0.000000 0.000000 3.698122 0.753268 0.034549 -0.107612
    15 0.000000 0.000001 2.366730 1.475578 -0.002247 -0.000783
    16 0.000001 -0.000001 2.035123 0.308129 -0.006525 -0.001049
    17 -0.156257 1.870642 -0.501948 4.683136 1.391675 -0.403799
    18 0.000000 0.000001 3.281008 0.692695 -0.009265 -0.168082
    19 0.000000 0.000001 2.688646 1.547853 -0.027354 -0.007996
    20 0.000001 0.000000 1.713443 0.628658 -0.006322 -0.001410
    21 0.146424 1.721204 -1.673858 4.631842 1.387486 -0.616416
    22 -0.000001 0.000000 3.209387 0.584265 -0.034501 -0.532687
    23 0.000000 0.000001 1.943288 1.730861 -0.029961 -0.007493
    24 0.000000 -0.000001 1.241907 0.544748 0.049494 -0.000142
    25 0.000000 10.746529 0.000000 0.000000 0.000000 0.000000
    26 -2.328150 0.000000 0.000000 2.828156 0.000000 0.000000
    27 -8.600150 0.022796 0.051090 3.152308 0.401902 -2.971781
    28 0.000021 10.075568 0.000001 1.143228 0.157914 0.113002
    29 0.000001 17.373682 0.000001 0.456391 -0.672168 -0.392600
    30 -0.679044 0.802172 1.783101 1.088987 -0.652061 -2.442862
    31 0.000001 -0.000001 2.508970 -0.233631 -0.190740 -0.292386
    32 0.000000 -0.000002 1.809535 0.179447 -0.031042 -0.272878
    33 -0.219778 1.615330 1.611036 -0.507118 -1.408360 -1.183618
    34 -0.000001 -0.000002 3.981597 0.123465 -0.103205 -0.057575
    35 0.000001 0.000000 2.375986 0.746655 0.017328 0.006860
    36 0.000000 0.000000 1.603096 0.605753 -0.070387 -0.010803
    37 0.091868 1.886060 0.634828 2.832853 -1.561694 1.957981
    38 0.000000 0.000000 3.698122 0.131223 -0.039264 0.152226
    39 -0.000001 0.000001 2.366730 1.076303 -0.170774 0.211724
    40 0.000001 0.000001 2.035123 0.812749 0.006524 0.001049
    41 0.156257 1.870642 -0.501948 2.828150 -1.480673 2.199620
    42 -0.000001 -0.000001 3.281011 0.464660 0.077693 -0.070272
    43 -0.000001 0.000000 2.688646 1.366424 -0.122134 0.235756
    44 -0.000001 0.000000 1.713443 0.476017 0.006321 0.001410
    45 -0.146424 1.721204 -1.673859 1.045794 -1.484741 4.097058
    46 0.000000 0.000001 3.209387 0.600306 -0.329135 0.218327
    47 0.000000 0.000000 1.943288 1.308968 -0.158256 0.204603
    48 0.000000 0.000000 1.241909 0.221947 -0.049495 0.000143
    49 0.000002 10.746529 0.000001 0.000000 0.000000 0.000000
    50 0.761742 53.296789 20.450619 0.722457 -0.000276 0.013303
  time 2
    0 0.000000 -7.332255 -71.361553 1.549464 0.000000 0.000000
    1 0.000000 65.928001 -3.788860 0.000000 0.000000 0.000000
    2 2.328150 0.000000 0.000000 -0.313426 0.000000 0.000000
    3 8.600150 -0.022797 -0.051090 0.767056 0.167083 -2.984123
    4 0.000000 10.075568 -0.000001 0.002448 -0.214313 -0.000600
    5 0.000002 17.373682 0.000000 0.975966 0.532503 0.638283
    6 0.679043 0.802172 1.783102 0.793913 -0.098345 2.654861
    7 0.000000 -0.000002 2.508970 -0.030906 -0.055064 0.003399
    8 0.000000 0.000001 1.809536 -0.214961 0.000383 -0.005248
    9 0.219777 1.615330 1.611036 -0.507118 1.408360 1.183619
    10 0.000000 -0.000002 3.981597 0.377689 0.007012 -0.156099
    11 0.000000 0.000000 2.375985 0.800987 -0.017328 -0.006860
    12 0.000001 -0.000001 1.603097 0.592164 0.070386 0.010805
    13 -0.091869 1.886059 0.634829 5.076717 1.356014 0.205515
    14 0.000000 0.000000 3.698122 0.753268 0.034549 -0.107612
    15 0.000000 0.000001 2.366730 1.475617 -0.002247 -0.000783
    16 0.000001 -0.000001 2.035123 0.308129 -0.006525 -0.001049
    17 -0.156257 1.870642 -0.501948 4.683136 1.391675 -0.403799
    18 0.000000 0.000001 3.281008 0.692695 -0.009265 -0.168082
    19 0.000000 0.000001 2.688646 1.547853 -0.027354 -0.007996
    20 0.000001 0.000000 1.713443 0.628658 -0.006322 -0.001410
    21 0.146424 1.721204 -1.673858 4.631842 1.387486 -0.616416
    22 -0.000001 0.000000 3.209387 0.584265 -0.034501 -0.532687
    23 0.000000 0.000001 1.943288 1.730861 -0.029961 -0.007493
    24 0.000000 -0.000001 1.241907 0.544748 0.049494 -0.000142
    25 0.000000 10.746529 0.000000 0.000000 0.000000 0.000000
    26 -2.328150 0.000000 0.000000 2.828156 0.000000 0.000000
    27 -8.600150 0.022796 0.051090 3.742319 0.346078 -2.880051
    28 0.000021 10.075568 0.000001 0.434829 0.193939 0.045253
    29 0.000001 17.373682 0.000001 0.671705 -0.552981 -0.471590
    30 -0.679044 0.802172 1.783101 1.088987 -0.652061 -2.442862
    31 0.000001 -0.000001 2.508970 -0.233631 -0.190740 -0.292386
    32 0.000000 -0.000002 1.809535 0.179447 -0.031042 -0.272878
    33 -0.219778 1.615330 1.611036 -0.507118 -1.408360 -1.183618
    34 -0.000001 -0.000002 3.981597 0.074137 -0.103205 -0.057575
    35 0.000001 0.000000 2.375986 0.706560 0.017328 0.006860
    36 0.000000 0.000000 1.603096 0.563008 -0.070387 -0.010803
    37 0.091868 1.886060 0.634828 2.832853 -1.561694 1.957969
    38 0.000000 0.000000 3.698122 0.131223 -0.039264 0.152226
    39 -0.000001 0.000001 2.366730 1.076303 -0.170774 0.211724
    40 0.000001 0.000001 2.035123 0.812749 0.006524 0.001049
    41 0.156257 1.870642 -0.501948 2.828138 -1.480673 2.199608
    42 -0.000001 -0.000001 3.281011 0.464660 0.077693 -0.070272
    43 -0.000001 0.000000 2.688646 1.366424 -0.122134 0.235756
    44 -0.000001 0.000000 1.713443 0.476017 0.006321 0.001410
    45 -0.146424 1.721204 -1.673859 1.045794 -1.484741 4.097058
    46 0.000000 0.000001 3.209387 0.600323 -0.329135 0.218327
    47 0.000000 0.000000 1.943288 1.309000 -0.158256 0.204603
    48 0.000000 0.000000 1.241909 0.221947 -0.049495 0.000143
    49 0.000002 10.746529 0.000001 0.000000 0.000000 0.000000
    50 0.730491 54.695269 24.774969 0.643680 -0.000551 0.026582
  time 3
    0 0.000000 -11.930052 -72.693625 1.549464 0.000000 0.000000
    1 0.000000 65.928001 -3.788860 0.000000 0.000000 0.000000
    2 2.328150 0.000000 0.000000 -0.313426 0.000000 0.000000
    3 8.600150 -0.022797 -0.051090 0.223893 0.193161 -3.031390
    4 0.000000 10.075568 -0.000001 0.875691 -0.171660 -0.087656
    5 0.000002 17.373682 0.000000 0.749473 0.647803 0.547199
    6 0.679043 0.802172 1.783102 0.793913 -0.098345 2.654861
    7 0.000000 -0.000002 2.508970 -0.030906 -0.055064 0.003399
    8 0.000000 0.000001 1.809536 -0.214961 0.000383 -0.005248
    9 0.219777 1.615330 1.611036 -0.507118 1.408360 1.183619
    10 0.000000 -0.000002 3.981597 0.377689 0.007012 -0.156099
    11 0.000000 0.000000 2.375985 0.800969 -0.017328 -0.006860
    12 0.000001 -0.000001 1.603097 0.592164 0.070386 0.010805
    13 -0.091869 1.886059 0.634829 5.076717 1.356014 0.205515
    14 0.000000 0.000000 3.698122 0.753268 0.034549 -0.107612
    15 0.000000 0.000001 2.366730 1.475578 -0.002247 -0.000783
    16 0.000001 -0.000001 2.035123 0.308129 -0.006525 -0.001049
    17 -0.156257 1.870642 -0.501948 4.683136 1.391675 -0.403799
    18 0.000000 0.000001 3.281008 0.692695 -0.009265 -0.168082
    19 0.000000 0.000001 2.688646 1.547853 -0.027354 -0.007996
    20 0.000001 0.000000 1.713443 0.628658 -0.006322 -0.001410
    21 0.146424 1.721204 -1.673858 4.631842 1.387486 -0.616416
    22 -0.000001 0.000000 3.209387 0.584265 -0.034501 -0.532687
    23 0.000000 0.000001 1.943288 1.730861 -0.029961 -0.007493
    24 0.000000 -0.000001 1.241907 0.544748 0.049494 -0.000142
    25 0.000000 10.746529 0.000000 0.000000 0.000000 0.000000
    26 -2.328150 0.000000 0.000000 2.828156 0.000000 0.000000
    27 -8.600150 0.022796 0.051090 3.305909 0.363952 -2.922260
    28 0.000021 10.075568 0.000001 1.130177 0.158585 0.111767
    29 0.000001 17.373682 0.000001 0.514986 -0.666936 -0.428434
    30 -0.679044 0.802172 1.783101 1.088987 -0.652061 -2.442862
    31 0.000001 -0.000001 2.508970 -0.233631 -0.190740 -0.292386
    32 0.000000 -0.000002 1.809535 0.179447 -0.031042 -0.272878
    33 -0.219778 1.615330 1.611036 -0.507118 -1.408360 -1.183618
    34 -0.000001 -0.000002 3.981597 0.048609 -0.103205 -0.057575
    35 0.000001 0.000000 2.375986 0.662499 0.017328 0.006860
    36 0.000000 0.000000 1.603096 0.503009 -0.070387 -0.010803
    37 0.091868 1.886060 0.634828 2.832853 -1.561694 1.957981
    38 0.000000 0.000000 3.698122 0.131223 -0.039264 0.152226
    39 -0.000001 0.000001 2.366730 1.076303 -0.170774 0.211724
    40 0.000001 0.000001 2.035123 0.812749 0.006524 0.001049
    41 0.156257 1.870642 -0.501948 2.828150 -1.480673 2.199620
    42 -0.000001 -0.000001 3.281011 0.464660 0.077693 -0.070272
    43 -0.000001 0.000000 2.688646 1.366424 -0.122134 0.235756
    44 -0.000001 0.000000 1.713443 0.476017 0.006321 0.001410
    45 -0.146424 1.721204 -1.673859 1.045794 -1.484741 4.097058
    46 0.000000 0.000001 3.209387 0.600306 -0.329135 0.218327
    47 0.000000 0.000000 1.943288 1.309000 -0.158256 0.204603
    48 0.000000 0.000000 1.241909 0.221947 -0.049495 0.000143
    49 0.000002 10.746529 0.000001 0.000000 0.000000 0.000000
    50 0.679708 56.964870 22.044417 0.542102 0.000755 0.015963
  time 4
    0 0.000000 -15.902829 -74.201483 1.549464 0.000000 0.000000
    1 0.000000 65.928001 -3.788860 0.000000 0.000000 0.000000
    2 2.328150 0.000000 0.000000 -0.313426 0.000000 0.000000
    3 8.600150 -0.022797 -0.051090 -0.071437 0.208034 -3.071395
    4 0.000000 10.075568 -0.000001 1.378705 -0.145713 -0.135247
    5 0.000002 17.373682 0.000000 0.645908 0.714360 0.504638
    6 0.679043 0.802172 1.783102 0.793913 -0.098345 2.654861
    7 0.000000 -0.000002 2.508970 -0.030906 -0.055064 0.003399
    8 0.000000 0.000001 1.809536 -0.214961 0.000383 -0.005248
    9 0.219777 1.615330 1.611036 -0.507118 1.408360 1.183619
    10 0.000000 -0.000002 3.981597 0.377689 0.007012 -0.156099
    11 0.000000 0.000000 2.375985 0.800969 -0.017328 -0.006860
    12 0.000001 -0.000001 1.603097 0.592164 0.070386 0.010805
    13 -0.091869 1.886059 0.634829 5.076717 1.356014 0.205515
    14 0.000000 0.000000 3.698122 0.753268 0.034549 -0.107612
    15 0.000000 0.000001 2.366730 1.475578 -0.002247 -0.000783
    16 0.000001 -0.000001 2.035123 0.308129 -0.006525 -0.001049
    17 -0.156257 1.870642 -0.501948 4.683136 1.391675 -0.403799
    18 0.000000 0.000001 3.281008 0.692695 -0.009265 -0.168082
    19 0.000000 0.000001 2.688646 1.547853 -0.027354 -0.007996
    20 0.000001 0.000000 1.713443 0.628658 -0.006322 -0.001410
    21 0.146424 1.721204 -1.673858 4.631842 1.387486 -0.616416
    22 -0.000001 0.000000 3.209387 0.584265 -0.034501 -0.532687
    23 0.000000 0.000001 1.943288 1.730861 -0.029961 -0.007493
    24 0.000000 -0.000001 1.241907 0.544748 0.049494 -0.000142
    25 0.000000 10.746529 0.000000 0.000000 0.000000 0.000000
    26 -2.328150 0.000000 0.000000 2.828156 0.000000 0.000000
    27 -8.600150 0.022796 0.051090 3.052345 0.374400 -2.951503
    28 0.000021 10.075568 0.000001 1.588982 0.134735 0.155068
    29 0.000001 17.373682 0.000001 0.415046 -0.781958 -0.376128
    30 -0.679044 0.802172 1.783101 1.088987 -0.652061 -2.442862
    31 0.000001 -0.000001 2.508970 -0.233631 -0.190740 -0.292386
    32 0.000000 -0.000002 1.809535 0.179447 -0.031042 -0.272878
    33 -0.219778 1.615330 1.611036 -0.507118 -1.408360 -1.183618
    34 -0.000001 -0.000002 3.981597 0.093336 -0.103205 -0.057575
    35 0.000001 0.000000 2.375986 0.590502 0.017328 0.006860
    36 0.000000 0.000000 1.603096 0.434081 -0.070387 -0.010803
    37 0.091868 1.886060 0.634828 2.832841 -1.561694 1.957969
    38 0.000000 0.000000 3.698122 0.131223 -0.039264 0.152226
    39 -0.000001 0.000001 2.366730 1.076303 -0.170774 0.211724
    40 0.000001 0.000001 2.035123 0.812749 0.006524 0.001049
    41 0.156257 1.870642 -0.501948 2.828138 -1.480673 2.199608
    42 -0.000001 -0.000001 3.281011 0.464660 0.077693 -0.070272
    43 -0.000001 0.000000 2.688646 1.366424 -0.122134 0.235756
    44 -0.000001 0.000000 1.713443 0.476017 0.006321 0.001410
    45 -0.146424 1.721204 -1.673859 1.045794 -1.484741 4.097058
    46 0.000000 0.000001 3.209387 0.600306 -0.329135 0.218327
    47 0.000000 0.000000 1.943288 1.308968 -0.158256 0.204603
    48 0.000000 0.000000 1.241909 0.221947 -0.049495 0.000143
    49 0.000002 10.746529 0.000001 0.000000 0.000000 0.000000
    50 0.613300 60.035276 19.317772 0.440501 0.004267 -0.007418
  time 5
    0 0.000000 -18.094302 -75.814814 1.549464 0.000000 0.000000
    1 0.000000 65.928001 -3.788860 0.000000 0.000000 0.000000
    2 2.328150 0.000000 0.000000 -0.313426 0.000000 0.000000
    3 8.600150 -0.022797 -0.051090 -0.183595 0.226574 -3.095016
    4 0.000000 10.075568 -0.000001 1.665382 -0.130733 -0.162260
    5 0.000002 17.373682 0.000000 0.565218 0.764339 0.475793
    6 0.679043 0.802172 1.783102 0.793913 -0.098345 2.654861
    7 0.000000 -0.000002 2.508970 -0.030906 -0.055064 0.003399
    8 0.000000 0.000001 1.809536 -0.214961 0.000383 -0.005248
    9 0.219777 1.615330 1.611036 -0.507118 1.408360 1.183619
    10 0.000000 -0.000002 3.981597 0.377689 0.007012 -0.156099
    11 0.000000 0.000000 2.375985 0.800969 -0.017328 -0.006860
    12 0.000001 -0.000001 1.603097 0.592164 0.070386 0.010805
    13 -0.091869 1.886059 0.634829 5.076717 1.356014 0.205515
    14 0.000000 0.000000 3.698122 0.753268 0.034549 -0.107612
    15 0.000000 0.000001 2.366730 1.475578 -0.002247 -0.000783
    16 0.000001 -0.000001 2.035123 0.308129 -0.006525 -0.001049
    17 -0.156257 1.870642 -0.501948 4.683136 1.391675 -0.403799
    18 0.000000 0.000001 3.281008 0.692695 -0.009265 -0.168082
    19 0.000000 0.000001 2.688646 1.547853 -0.027354 -0.007996
    20 0.000001 0.000000 1.713443 0.628658 -0.006322 -0.001410
    21 0.146424 1.721204 -1.673858 4.631842 1.387486 -0.616416
    22 -0.000001 0.000000 3.209387 0.584282 -0.034501 -0.532687
    23 0.000000 0.000001 1.943288 1.730861 -0.029961 -0.007493
    24 0.000000 -0.000001 1.241907 0.544748 0.049494 -0.000142
    25 0.000000 10.746529 0.000000 0.000000 0.000000 0.000000
    26 -2.328150 0.000000 0.000000 2.828156 0.000000 0.000000
    27 -8.600150 0.022796 0.051090 2.987115 0.375657 -2.942538
    28 0.000021 10.075568 0.000001 1.850704 0.121001 0.179684
    29 0.000001 17.373682 0.000001 0.292508 -0.861157 -0.279282
    30 -0.679044 0.802172 1.783101 1.088987 -0.652061 -2.442862
    31 0.000001 -0.000001 2.508970 -0.233631 -0.190740 -0.292386
    32 0.000000 -0.000002 1.809535 0.179447 -0.031042 -0.272878
    33 -0.219778 1.615330 1.611036 -0.507118 -1.408360 -1.183618
    34 -0.000001 -0.000002 3.981597 0.175215 -0.103205 -0.057575
    35 0.000001 0.000000 2.375986 0.498909 0.017328 0.006860
    36 0.000000 0.000000 1.603096 0.365032 -0.070387 -0.010803
    37 0.091868 1.886060 0.634828 2.832865 -1.561694 1.957993
    38 0.000000 0.000000 3.698122 0.131223 -0.039264 0.152226
    39 -0.000001 0.000001 2.366730 1.076303 -0.170774 0.211724
    40 0.000001 0.000001 2.035123 0.812749 0.006524 0.001049
    41 0.156257 1.870642 -0.501948 2.828150 -1.480673 2.199620
    42 -0.000001 -0.000001 3.281011 0.464660 0.077693 -0.070272
    43 -0.000001 0.000000 2.688646 1.366424 -0.122134 0.235756
    44 -0.000001 0.000000 1.713443 0.476017 0.006321 0.001410
    45 -0.146424 1.721204 -1.673859 1.045738 -1.484741 4.097058
    46 0.000000 0.000001 3.209387 0.600306 -0.329135 0.218327
    47 0.000000 0.000000 1.943288 1.308968 -0.158256 0.204603
    48 0.000000 0.000000 1.241909 0.221947 -0.049495 0.000143
    49 0.000002 10.746529 0.000001 0.000000 0.000000 0.000000
    50 0.535173 63.347877 17.602876 0.346101 0.009276 -0.030812
  time 6
    0 0.000000 -18.188055 -77.432050 1.549464 0.000000 0.000000
    1 0.000000 65.928001 -3.788860 0.000000 0.000000 0.000000
    2 2.328150 0.000000 0.000000 -0.313426 0.000000 0.000000
    3 8.600150 -0.022797 -0.051090 -0.149372 0.237828 -3.091157
    4 0.000000 10.075568 -0.000001 1.771825 -0.125148 -0.172268
    5 0.000002 17.373682 0.000000 0.524381 0.793516 0.469652
    6 0.679043 0.802172 1.783102 0.793913 -0.098345 2.654861
    7 0.000000 -0.000002 2.508970 -0.030906 -0.055064 0.003399
    8 0.000000 0.000001 1.809536 -0.214961 0.000383 -0.005248
    9 0.219777 1.615330 1.611036 -0.507118 1.408360 1.183619
    10 0.000000 -0.000002 3.981597 0.377689 0.007012 -0.156099
    11 0.000000 0.000000 2.375985 0.800987 -0.017328 -0.006860
    12 0.000001 -0.000001 1.603097 0.592164 0.070386 0.010805
    13 -0.091869 1.886059 0.634829 5.076717 1.356014 0.205515
    14 0.000000 0.000000 3.698122 0.753268 0.034549 -0.107612
    15 0.000000 0.000001 2.366730 1.475578 -0.002247 -0.000783
    16 0.000001 -0.000001 2.035123 0.308129 -0.006525 -0.001049
    17 -0.156257 1.870642 -0.501948 4.683136 1.391675 -0.403799
    18 0.000000 0.000001 3.281008 0.692695 -0.009265 -0.168082
    19 0.000000 0.000001 2.688646 1.547853 -0.027354 -0.007996
    20 0.000001 0.000000 1.713443 0.628658 -0.006322 -0.001410
    21 0.146424 1.721204 -1.673858 4.631842 1.387486 -0.616416
    22 -0.000001 0.000000 3.209387 0.584265 -0.034501 -0.532687
    23 0.000000 0.000001 1.943288 1.730861 -0.029961 -0.007493
    24 0.000000 -0.000001 1.241907 0.544748 0.049494 -0.000142
    25 0.000000 10.746529 0.000000 0.000000 0.000000 0.000000
    26 -2.328150 0.000000 0.000000 2.828156 0.000000 0.000000
    27 -8.600150 0.022796 0.051090 3.062005 0.356190 -2.898711
    28 0.000021 10.075568 0.000001 1.929801 0.116831 0.187114
    29 0.000001 17.373682 0.000001 0.215682 -0.874664 -0.209121
    30 -0.679044 0.802172 1.783101 1.088987 -0.652061 -2.442862
    31 0.000001 -0.000001 2.508970 -0.233631 -0.190740 -0.292386
    32 0.000000 -0.000002 1.809535 0.179447 -0.031042 -0.272878
    33 -0.219778 1.615330 1.611036 -0.507118 -1.408360 -1.183618
    34 -0.000001 -0.000002 3.981597 0.220157 -0.103205 -0.057575
    35 0.000001 0.000000 2.375986 0.454256 0.017328 0.006860
    36 0.000000 0.000000 1.603096 0.305243 -0.070387 -0.010803
    37 0.091868 1.886060 0.634828 2.832865 -1.561694 1.957981
    38 0.000000 0.000000 3.698122 0.131223 -0.039264 0.152226
    39 -0.000001 0.000001 2.366730 1.076303 -0.170774 0.211724
    40 0.000001 0.000001 2.035123 0.812749 0.006524 0.001049
    41 0.156257 1.870642 -0.501948 2.828150 -1.480673 2.199620
    42 -0.000001 -0.000001 3.281011 0.464660 0.077693 -0.070272
    43 -0.000001 0.000000 2.688646 1.366424 -0.122134 0.235756
    44 -0.000001 0.000000 1.713443 0.476017 0.006321 0.001410
    45 -0.146424 1.721204 -1.673859 1.045738 -1.484741 4.097058
    46 0.000000 0.000001 3.209387 0.600306 -0.329135 0.218327
    47 0.000000 0.000000 1.943288 1.308968 -0.158256 0.204603
    48 0.000000 0.000000 1.241909 0.221947 -0.049495 0.000143
    49 0.000002 10.746529 0.000001 0.000000 0.000000 0.000000
    50 0.453139 66.082335 16.981763 0.249125 0.015029 -0.041275
  time 7
    0 0.000000 -17.039582 -78.998505 1.549464 0.000000 0.000000
    1 0.000000 65.928001 -3.788860 0.000000 0.000000 0.000000
    2 2.328150 0.000000 0.000000 -0.313426 0.000000 0.000000
    3 8.600150 -0.022797 -0.051090 -0.071032 0.238092 -3.074882
    4 0.000000 10.075568 -0.000001 1.794121 -0.123973 -0.174377
    5 0.000002 17.373682 0.000000 0.544070 0.809526 0.491392
    6 0.679043 0.802172 1.783102 0.793913 -0.098345 2.654861
    7 0.000000 -0.000002 2.508970 -0.030906 -0.055064 0.003399
    8 0.000000 0.000001 1.809536 -0.214961 0.000383 -0.005248
    9 0.219777 1.615330 1.611036 -0.507118 1.408360 1.183619
    10 0.000000 -0.000002 3.981597 0.377689 0.007012 -0.156099
    11 0.000000 0.000000 2.375985 0.800969 -0.017328 -0.006860
    12 0.000001 -0.000001 1.603097 0.592164 0.070386 0.010805
    13 -0.091869 1.886059 0.634829 5.076717 1.356014 0.205515
    14 0.000000 0.000000 3.698122 0.753268 0.034549 -0.107612
    15 0.000000 0.000001 2.366730 1.475578 -0.002247 -0.000783
    16 0.000001 -0.000001 2.035123 0.308129 -0.006525 -0.001049
    17 -0.156257 1.870642 -0.501948 4.683136 1.391675 -0.403799
    18 0.000000 0.000001 3.281008 0.692695 -0.009265 -0.168082
    19 0.000000 0.000001 2.688646 1.547853 -0.027354 -0.007996
    20 0.000001 0.000000 1.713443 0.628658 -0.006322 -0.001410
    21 0.146424 1.721204 -1.673858 4.631842 1.387486 -0.616416
    22 -0.000001 0.000000 3.209387 0.584265 -0.034501 -0.532687
    23 0.000000 0.000001 1.943288 1.730861 -0.029961 -0.007493
    24 0.000000 -0.000001 1.241907 0.544748 0.049494 -0.000142
    25 0.000000 10.746529 0.000000 0.000000 0.000000 0.000000
    26 -2.328150 0.000000 0.000000 2.828156 0.000000 0.000000
    27 -8.600150 0.022796 0.051090 3.142823 0.332122 -2.861343
    28 0.000021 10.075568 0.000001 1.934019 0.116603 0.187510
    29 0.000001 17.373682 0.000001 0.246353 -0.851467 -0.229405
    30 -0.679044 0.802172 1.783101 1.088987 -0.652079 -2.442862
    31 0.000001 -0.000001 2.508970 -0.233631 -0.190740 -0.292386
    32 0.000000 -0.000002 1.809535 0.179447 -0.031042 -0.272878
    33 -0.219778 1.615330 1.611036 -0.507118 -1.408360 -1.183618
    34 -0.000001 -0.000002 3.981597 0.214272 -0.103205 -0.057575
    35 0.000001 0.000000 2.375986 0.486849 0.017328 0.006860
    36 0.000000 0.000000 1.603096 0.233449 -0.070387 -0.010803
    37 0.091868 1.886060 0.634828 2.832853 -1.561694 1.957969
    38 0.000000 0.000000 3.698122 0.131223 -0.039264 0.152226
    39 -0.000001 0.000001 2.366730 1.076303 -0.170774 0.211724
    40 0.000001 0.000001 2.035123 0.812749 0.006524 0.001049
    41 0.156257 1.870642 -0.501948 2.828138 -1.480673 2.199608
    42 -0.000001 -0.000001 3.281011 0.464660 0.077693 -0.070272
    43 -0.000001 0.000000 2.688646 1.366424 -0.122134 0.235756
    44 -0.000001 0.000000 1.713443 0.476017 0.006321 0.001410
    45 -0.146424 1.721204 -1.673859 1.045794 -1.484741 4.097058
    46 0.000000 0.000001 3.209387 0.600306 -0.329135 0.218327
    47 0.000000 0.000000 1.943288 1.309000 -0.158256 0.204603
    48 0.000000 0.000000 1.241909 0.221947 -0.049495 0.000143
    49 0.000002 10.746529 0.000001 0.000000 0.000000 0.000000
    50 0.363292 67.980831 16.723943 0.145407 0.021009 -0.032646
  time 8
    0 0.000000 -15.250465 -80.428236 1.549464 0.000000 0.000000
    1 0.000000 65.928001 -3.788860 0.000000 0.000000 0.000000
    2 2.328150 0.000000 0.000000 -0.313426 0.000000 0.000000
    3 8.600150 -0.022797 -0.051090 0.004632 0.230433 -3.058235
    4 0.000000 10.075568 -0.000001 1.767302 -0.125387 -0.171848
    5 0.000002 17.373682 0.000000 0.641380 0.799989 0.552040
    6 0.679043 0.802172 1.783102 0.793913 -0.098345 2.654861
    7 0.000000 -0.000002 2.508970 -0.030906 -0.055064 0.003399
    8 0.000000 0.000001 1.809536 -0.214961 0.000383 -0.005248
    9 0.219777 1.615330 1.611036 -0.507118 1.408360 1.183619
    10 0.000000 -0.000002 3.981597 0.377689 0.007012 -0.156099
    11 0.000000 0.000000 2.375985 0.800987 -0.017328 -0.006860
    12 0.000001 -0.000001 1.603097 0.592164 0.070386 0.010805
    13 -0.091869 1.886059 0.634829 5.076717 1.356014 0.205515
    14 0.000000 0.000000 3.698122 0.753268 0.034549 -0.107612
    15 0.000000 0.000001 2.366730 1.475617 -0.002247 -0.000783
    16 0.000001 -0.000001 2.035123 0.308129 -0.006525 -0.001049
    17 -0.156257 1.870642 -0.501948 4.683136 1.391675 -0.403799
    18 0.000000 0.000001 3.281008 0.692695 -0.009265 -0.168082
    19 0.000000 0.000001 2.688646 1.547853 -0.027354 -0.007996
    20 0.000001 0.000000 1.713443 0.628658 -0.006322 -0.001410
    21 0.146424 1.721204 -1.673858 4.631842 1.387486 -0.616416
    22 -0.000001 0.000000 3.209387 0.584265 -0.034501 -0.532687
    23 0.000000 0.000001 1.943288 1.730861 -0.029961 -0.007493
    24 0.000000 -0.000001 1.241907 0.544748 0.049494 -0.000142
    25 0.000000 10.746529 0.000000 0.000000 0.000000 0.000000
    26 -2.328150 0.000000 0.000000 2.828156 0.000000 0.000000
    27 -8.600150 0.022796 0.051090 3.183287 0.317955 -2.846542
    28 0.000021 10.075568 0.000001 1.908840 0.117933 0.185149
    29 0.000001 17.373682 0.000001 0.386289 -0.811534 -0.338770
    30 -0.679044 0.802172 1.783101 1.088987 -0.652061 -2.442862
    31 0.000001 -0.000001 2.508970 -0.233631 -0.190740 -0.292386
    32 0.000000 -0.000002 1.809535 0.179447 -0.031042 -0.272878
    33 -0.219778 1.615330 1.611036 -0.507118 -1.408360 -1.183618
    34 -0.000001 -0.000002 3.981597 0.197015 -0.103205 -0.057575
    35 0.000001 0.000000 2.375986 0.563996 0.017328 0.006860
    36 0.000000 0.000000 1.603096 0.225018 -0.070387 -0.010803
    37 0.091868 1.886060 0.634828 2.832853 -1.561694 1.957969
    38 0.000000 0.000000 3.698122 0.131223 -0.039264 0.152226
    39 -0.000001 0.000001 2.366730 1.076330 -0.170774 0.211724
    40 0.000001 0.000001 2.035123 0.812749 0.006524 0.001049
    41 0.156257 1.870642 -0.501948 2.828138 -1.480673 2.199608
    42 -0.000001 -0.000001 3.281011 0.464660 0.077693 -0.070272
    43 -0.000001 0.000000 2.688646 1.366424 -0.122134 0.235756
    44 -0.000001 0.000000 1.713443 0.476017 0.006321 0.001410
    45 -0.146424 1.721204 -1.673859 1.045794 -1.484741 4.097058
    46 0.000000 0.000001 3.209387 0.600306 -0.329135 0.218327
    47 0.000000 0.000000 1.943288 1.308968 -0.158256 0.204603
    48 0.000000 0.000000 1.241909 0.221947 -0.049495 0.000143
    49 0.000002 10.746529 0.000001 0.000000 0.000000 0.000000
    50 0.273446 68.949610 16.641909 0.031543 0.026965 -0.012620
  time 9
    0 0.000000 -13.441816 -81.631397 1.549464 0.000000 0.000000
    1 0.000000 65.928001 -3.788860 0.000000 0.000000 0.000000
    2 2.328150 0.000000 0.000000 -0.313426 0.000000 0.000000
    3 8.600150 -0.022797 -0.051090 0.072916 0.218808 -3.043842
    4 0.000000 10.075568 -0.000001 1.708586 -0.128468 -0.166323
    5 0.000002 17.373682 0.000000 0.827096 0.742302 0.657715
    6 0.679043 0.802172 1.783102 0.793913 -0.098345 2.654861
    7 0.000000 -0.000002 2.508970 -0.030906 -0.055064 0.003399
    8 0.000000 0.000001 1.809536 -0.214961 0.000383 -0.005248
    9 0.219777 1.615330 1.611036 -0.507118 1.408360 1.183619
    10 0.000000 -0.000002 3.981597 0.377689 0.007012 -0.156099
    11 0.000000 0.000000 2.375985 0.800987 -0.017328 -0.006860
    12 0.000001 -0.000001 1.603097 0.592164 0.070386 0.010805
    13 -0.091869 1.886059 0.634829 5.076717 1.356014 0.205581
    14 0.000000 0.000000 3.698122 0.753268 0.034549 -0.107612
    15 0.000000 0.000001 2.366730 1.475578 -0.002247 -0.000783
    16 0.000001 -0.000001 2.035123 0.308129 -0.006525 -0.001049
    17 -0.156257 1.870642 -0.501948 4.683136 1.391675 -0.403752
    18 0.000000 0.000001 3.281008 0.692695 -0.009265 -0.168082
    19 0.000000 0.000001 2.688646 1.547853 -0.027354 -0.007996
    20 0.000001 0.000000 1.713443 0.628658 -0.006322 -0.001410
    21 0.146424 1.721204 -1.673858 4.631842 1.387486 -0.616376
    22 -0.000001 0.000000 3.209387 0.584282 -0.034501 -0.532687
    23 0.000000 0.000001 1.943288 1.730861 -0.029961 -0.007493
    24 0.000000 -0.000001 1.241907 0.544748 0.049494 -0.000142
    25 0.000000 10.746529 0.000000 0.000000 0.000000 0.000000
    26 -2.328150 0.000000 0.000000 2.828156 0.000000 0.000000
    27 -8.600150 0.022796 0.051090 3.191872 0.314534 -2.849154
    28 0.000021 10.075568 0.000001 1.869028 0.120030 0.181410
    29 0.000001 17.373682 0.000001 0.628912 -0.739755 -0.522691
    30 -0.679044 0.802172 1.783101 1.088987 -0.652061 -2.442862
    31 0.000001 -0.000001 2.508970 -0.233631 -0.190740 -0.292386
    32 0.000000 -0.000002 1.809535 0.179447 -0.031042 -0.272878
    33 -0.219778 1.615330 1.611036 -0.507118 -1.408360 -1.183618
    34 -0.000001 -0.000002 3.981597 0.175826 -0.103205 -0.057575
    35 0.000001 0.000000 2.375986 0.655276 0.017328 0.006860
    36 0.000000 0.000000 1.603096 0.360175 -0.070387 -0.010803
    37 0.091868 1.886060 0.634828 2.832853 -1.561694 1.957981
    38 0.000000 0.000000 3.698122 0.131223 -0.039264 0.152226
    39 -0.000001 0.000001 2.366730 1.076303 -0.170774 0.211724
    40 0.000001 0.000001 2.035123 0.812749 0.006524 0.001049
    41 0.156257 1.870642 -0.501948 2.828138 -1.480673 2.199620
    42 -0.000001 -0.000001 3.281011 0.464660 0.077693 -0.070272
    43 -0.000001 0.000000 2.688646 1.366424 -0.122134 0.235756
    44 -0.000001 0.000000 1.713443 0.476017 0.006321 0.001410
    45 -0.146424 1.721204 -1.673859 1.045794 -1.484741 4.097058
    46 0.000000 0.000001 3.209387 0.600306 -0.329135 0.218327
    47 0.000000 0.000000 1.943288 1.308968 -0.158256 0.204603
    48 0.000000 0.000000 1.241909 0.221947 -0.049495 0.000143
    49 0.000002 10.746529 0.000001 0.000000 0.000000 0.000000
    50 0.187506 69.308996 16.552062 -0.124355 0.032598 0.010295
  time 10
    0 0.000000 -12.199591 -82.549394 1.549464 0.000000 0.000000
    1 0.000000 65.928001 -3.788860 0.000000 0.000000 0.000000
    2 2.328150 0.000000 0.000000 -0.313426 0.000000 0.000000
    3 8.600150 -0.022797 -0.051090 0.121305 0.211678 -3.033523
    4 0.000000 10.075568 -0.000001 1.680180 -0.129966 -0.163651
    5 0.000002 17.373682 0.000000 0.955830 0.693558 0.723607
    6 0.679043 0.802172 1.783102 0.793913 -0.098345 2.654861
    7 0.000000 -0.000002 2.508970 -0.030906 -0.055064 0.003399
    8 0.000000 0.000001 1.809536 -0.214961 0.000383 -0.005248
    9 0.219777 1.615330 1.611036 -0.507118 1.408360 1.183619
    10 0.000000 -0.000002 3.981597 0.377689 0.007012 -0.156099
    11 0.000000 0.000000 2.375985 0.800969 -0.017328 -0.006860
    12 0.000001 -0.000001 1.603097 0.592164 0.070386 0.010805
    13 -0.091869 1.886059 0.634829 5.076717 1.356014 0.205515
    14 0.000000 0.000000 3.698122 0.753268 0.034549 -0.107612
    15 0.000000 0.000001 2.366730 1.475578 -0.002247 -0.000783
    16 0.000001 -0.000001 2.035123 0.308129 -0.006525 -0.001049
    17 -0.156257 1.870642 -0.501948 4.683136 1.391675 -0.403799
    18 0.000000 0.000001 3.281008 0.692695 -0.009265 -0.168082
    19 0.000000 0.000001 2.688646 1.547853 -0.027354 -0.007996
    20 0.000001 0.000000 1.713443 0.628658 -0.006322 -0.001410
    21 0.146424 1.721204 -1.673858 4.631842 1.387486 -0.616416
    22 -0.000001 0.000000 3.209387 0.584265 -0.034501 -0.532687
    23 0.000000 0.000001 1.943288 1.730861 -0.029961 -0.007493
    24 0.000000 -0.000001 1.241907 0.544748 0.049494 -0.000142
    25 0.000000 10.746529 0.000000 0.000000 0.000000 0.000000
    26 -2.328150 0.000000 0.000000 2.828156 0.000000 0.000000
    27 -8.600150 0.022796 0.051090 3.198327 0.312519 -2.849454
    28 0.000021 10.075568 0.000001 1.849781 0.121049 0.179600
    29 0.000001 17.373682 0.000001 0.789238 -0.667523 -0.641045
    30 -0.679044 0.802172 1.783101 1.088987 -0.652061 -2.442862
    31 0.000001 -0.000001 2.508970 -0.233631 -0.190740 -0.292386
    32 0.000000 -0.000002 1.809535 0.179447 -0.031042 -0.272878
    33 -0.219778 1.615330 1.611036 -0.507118 -1.408360 -1.183618
    34 -0.000001 -0.000002 3.981597 0.157765 -0.103205 -0.057575
    35 0.000001 0.000000 2.375986 0.731914 0.017328 0.006860
    36 0.000000 0.000000 1.603096 0.535195 -0.070387 -0.010803
    37 0.091868 1.886060 0.634828 2.832853 -1.561694 1.957969
    38 0.000000 0.000000 3.698122 0.131223 -0.039264 0.152226
    39 -0.000001 0.000001 2.366730 1.076303 -0.170774 0.211724
    40 0.000001 0.000001 2.035123 0.812749 0.006524 0.001049
    41 0.156257 1.870642 -0.501948 2.828138 -1.480673 2.199620
    42 -0.000001 -0.000001 3.281011 0.464660 0.077693 -0.070272
    43 -0.000001 0.000000 2.688646 1.366424 -0.122134 0.235756
    44 -0.000001 0.000000 1.713443 0.476017 0.006321 0.001410
    45 -0.146424 1.721204 -1.673859 1.045794 -1.484741 4.097058
    46 0.000000 0.000001 3.209387 0.600306 -0.329135 0.218327
    47 0.000000 0.000000 1.943288 1.309000 -0.158256 0.204603
    48 0.000000 0.000000 1.241909 0.221947 -0.049495 0.000143
    49 0.000002 10.746529 0.000001 0.000000 0.000000 0.000000
    50 0.105472 69.711352 16.274710 -0.253059 0.037680 0.028032
  time 11
    0 0.000000 -12.129276 -83.088473 1.549464 0.000000 0.000000
    1 0.000000 65.928001 -3.788860 0.000000 0.000000 0.000000
    2 2.328150 0.000000 0.000000 -0.313426 0.000000 0.000000
    3 8.600150 -0.022797 -0.051090 0.082837 0.223866 -3.039575
    4 0.000000 10.075568 -0.000001 1.768849 -0.125304 -0.171992
    5 0.000002 17.373682 0.000000 0.968132 0.720684 0.733648
    6 0.679043 0.802172 1.783102 0.793913 -0.098345 2.654861
    7 0.000000 -0.000002 2.508970 -0.030906 -0.055064 0.003399
    8 0.000000 0.000001 1.809536 -0.214961 0.000383 -0.005248
    9 0.219777 1.615330 1.611036 -0.507118 1.408360 1.183619
    10 0.000000 -0.000002 3.981597 0.377689 0.007012 -0.156099
    11 0.000000 0.000000 2.375985 0.800969 -0.017328 -0.006860
    12 0.000001 -0.000001 1.603097 0.592164 0.070386 0.010805
    13 -0.091869 1.886059 0.634829 5.076717 1.356014 0.205515
    14 0.000000 0.000000 3.698122 0.753268 0.034549 -0.107612
    15 0.000000 0.000001 2.366730 1.475578 -0.002247 -0.000783
    16 0.000001 -0.000001 2.035123 0.308141 -0.006525 -0.001049
    17 -0.156257 1.870642 -0.501948 4.683136 1.391675 -0.403799
    18 0.000000 0.000001 3.281008 0.692695 -0.009265 -0.168082
    19 0.000000 0.000001 2.688646 1.547853 -0.027354 -0.007996
    20 0.000001 0.000000 1.713443 0.628676 -0.006322 -0.001410
    21 0.146424 1.721204 -1.673858 4.631842 1.387486 -0.616416
    22 -0.000001 0.000000 3.209387 0.584265 -0.034501 -0.532687
    23 0.000000 0.000001 1.943288 1.730861 -0.029961 -0.007493
    24 0.000000 -0.000001 1.241907 0.544748 0.049494 -0.000142
    25 0.000000 10.746529 0.000000 0.000000 0.000000 0.000000
    26 -2.328150 0.000000 0.000000 2.828156 0.000000 0.000000
    27 -8.600150 0.022796 0.051090 3.150354 0.321301 -2.851971
    28 0.000021 10.075568 0.000001 1.928175 0.116914 0.186959
    29 0.000001 17.373682 0.000001 0.802194 -0.663305 -0.656294
    30 -0.679044 0.802172 1.783101 1.088987 -0.652061 -2.442862
    31 0.000001 -0.000001 2.508970 -0.233631 -0.190740 -0.292386
    32 0.000000 -0.000002 1.809535 0.179447 -0.031042 -0.272878
    33 -0.219778 1.615330 1.611036 -0.507118 -1.408360 -1.183618
    34 -0.000001 -0.000002 3.981597 0.150143 -0.103205 -0.057575
    35 0.000001 0.000000 2.375986 0.764030 0.017328 0.006860
    36 0.000000 0.000000 1.603096 0.621906 -0.070387 -0.010803
    37 0.091868 1.886060 0.634828 2.832865 -1.561694 1.957981
    38 0.000000 0.000000 3.698122 0.131223 -0.039264 0.152226
    39 -0.000001 0.000001 2.366730 1.076303 -0.170774 0.211724
    40 0.000001 0.000001 2.035123 0.812749 0.006524 0.001049
    41 0.156257 1.870642 -0.501948 2.828150 -1.480673 2.199620
    42 -0.000001 -0.000001 3.281011 0.464660 0.077693 -0.070272
    43 -0.000001 0.000000 2.688646 1.366424 -0.122134 0.235756
    44 -0.000001 0.000000 1.713443 0.476017 0.006321 0.001410
    45 -0.146424 1.721204 -1.673859 1.045794 -1.484741 4.097058
    46 0.000000 0.000001 3.209387 0.600306 -0.329135 0.218327
    47 0.000000 0.000000 1.943288 1.308968 -0.158256 0.204603
    48 0.000000 0.000000 1.241909 0.221947 -0.049495 0.000143
    49 0.000002 10.746529 0.000001 0.000000 0.000000 0.000000
    50 0.015625 70.203555 15.352807 -0.291850 0.042689 0.037512
end
