// Created by Crowbar 0.74
version 1
nodes
  0 "ValveBiped.Bip01" -1
  1 "ValveBiped.Bip01_Spine" 0
  2 "ValveBiped.Bip01_Spine1" 1
  3 "ValveBiped.Bip01_Spine2" 2
  4 "ValveBiped.Bip01_Spine4" 3
  5 "ValveBiped.Bip01_L_Clavicle" 4
  6 "ValveBiped.Bip01_L_UpperArm" 5
  7 "ValveBiped.Bip01_L_Forearm" 6
  8 "ValveBiped.Bip01_L_Hand" 7
  9 "ValveBiped.Bip01_L_Finger4" 8
  10 "ValveBiped.Bip01_L_Finger41" 9
  11 "ValveBiped.Bip01_L_Finger42" 10
  12 "ValveBiped.Bip01_L_Finger3" 8
  13 "ValveBiped.Bip01_L_Finger31" 12
  14 "ValveBiped.Bip01_L_Finger32" 13
  15 "ValveBiped.Bip01_L_Finger2" 8
  16 "ValveBiped.Bip01_L_Finger21" 15
  17 "ValveBiped.Bip01_L_Finger22" 16
  18 "ValveBiped.Bip01_L_Finger1" 8
  19 "ValveBiped.Bip01_L_Finger11" 18
  20 "ValveBiped.Bip01_L_Finger12" 19
  21 "ValveBiped.Bip01_L_Finger0" 8
  22 "ValveBiped.Bip01_L_Finger01" 21
  23 "ValveBiped.Bip01_L_Finger02" 22
  24 "ValveBiped.Bip01_R_Clavicle" 4
  25 "ValveBiped.Bip01_R_UpperArm" 24
  26 "ValveBiped.Bip01_R_Forearm" 25
  27 "ValveBiped.Bip01_R_Hand" 26
  28 "ValveBiped.Bip01_R_Finger4" 27
  29 "ValveBiped.Bip01_R_Finger41" 28
  30 "ValveBiped.Bip01_R_Finger42" 29
  31 "ValveBiped.Bip01_R_Finger3" 27
  32 "ValveBiped.Bip01_R_Finger31" 31
  33 "ValveBiped.Bip01_R_Finger32" 32
  34 "ValveBiped.Bip01_R_Finger2" 27
  35 "ValveBiped.Bip01_R_Finger21" 34
  36 "ValveBiped.Bip01_R_Finger22" 35
  37 "ValveBiped.Bip01_R_Finger1" 27
  38 "ValveBiped.Bip01_R_Finger11" 37
  39 "ValveBiped.Bip01_R_Finger12" 38
  40 "ValveBiped.Bip01_R_Finger0" 27
  41 "ValveBiped.Bip01_R_Finger01" 40
  42 "ValveBiped.Bip01_R_Finger02" 41
  43 "ValveBiped.Photograph" 27
  44 "ValveBiped.paper1" 43
  45 "ValveBiped.paper2" 44
  46 "ValveBiped.paper3" 45
  47 "ValveBiped.Camera" 27
end
skeleton
  time 0
    0 -0.000003 -13.531250 -29.421875 1.570792 0.000003 -0.000003
    1 0.000000 3.345131 -2.981898 1.570796 0.083192 1.570795
    2 4.015625 0.000001 0.000000 0.000000 -0.000001 -0.028819
    3 3.520294 0.000005 -0.000006 0.000000 0.000000 0.097311
    4 8.929688 -0.000001 0.000000 0.000000 0.000001 0.186405
    5 2.035156 0.997070 1.937500 1.589735 -1.286517 2.950158
    6 6.028159 -0.000069 0.000009 -1.575890 0.049155 -1.169438
    7 11.692566 0.000046 0.000011 -0.000002 0.000000 -0.060376
    8 11.481682 0.000088 -0.000031 1.568292 -0.038710 0.036026
    9 3.857422 -0.139526 -1.191406 -0.363882 0.112047 -0.355498
    10 1.312565 -0.000008 0.000000 -0.000002 0.054404 -0.409012
    11 0.729366 0.000002 -0.000002 -0.000001 0.040754 -0.240990
    12 3.941406 0.046936 -0.435059 -0.101499 0.042182 -0.269683
    13 1.539091 0.000008 -0.000002 0.000000 0.003737 -0.247812
    14 1.196321 0.000000 -0.000002 -0.000001 0.006168 -0.430818
    15 3.880859 -0.043091 0.427490 0.090105 -0.011419 -0.132542
    16 1.719578 0.000023 -0.000021 -0.000005 -0.020423 -0.365964
    17 1.209181 -0.000004 -0.000001 0.000001 -0.011427 -0.216116
    18 3.863281 -0.136475 1.332031 0.320642 -0.041405 -0.125801
    19 1.719431 -0.000023 0.000019 0.000001 -0.106227 -0.347813
    20 1.099676 0.000000 0.000006 0.000004 -0.067955 -0.234890
    21 0.807129 -0.346924 1.320313 -1.243196 -0.551768 -0.740654
    22 1.789787 0.000006 0.000006 -0.000002 -0.003712 0.228604
    23 1.207012 0.000011 0.000000 -0.000001 -0.005667 0.362993
    24 2.035156 0.997070 -1.937500 -1.661572 1.286515 2.950150
    25 6.028144 -0.000011 0.000002 1.654691 0.250634 -0.605785
    26 12.301971 -1.003936 0.937532 0.596469 -0.472151 -0.589943
    27 11.481657 0.000043 0.000019 -2.191231 0.497741 -0.036143
    28 3.858240 -0.131699 1.199994 0.390527 -0.101410 -0.916423
    29 1.312567 0.000000 0.000000 0.094358 -0.148302 -1.023361
    30 0.729362 0.000004 0.000003 0.246478 -0.201514 -1.343121
    31 3.941981 0.050872 0.435162 0.108940 0.058963 -0.470260
    32 1.539089 0.000008 0.000003 0.081999 -0.072597 -1.490887
    33 1.196316 0.000004 0.000005 0.030667 -0.074741 -1.027947
    34 3.880859 -0.047028 -0.427490 -0.079035 0.162996 -0.514648
    35 1.719567 0.000023 0.000016 -0.048600 0.058563 -1.498659
    36 1.209175 0.000008 0.000005 -0.038127 -0.010975 -1.196747
    37 3.867399 -0.148186 -1.324350 -0.424017 0.413272 -0.567318
    38 1.719419 -0.000008 -0.000008 -0.103004 0.275398 -0.995724
    39 1.099667 -0.000004 -0.000001 -0.048647 0.108807 -0.506629
    40 0.807129 -0.358643 -1.316406 1.391888 0.446144 -0.556730
    41 1.789783 -0.000002 -0.000002 0.030307 -0.047272 0.412865
    42 1.207001 0.000009 0.000000 -0.006740 -0.074456 -0.170110
    43 5.073761 -4.063510 -2.918343 3.826595 -0.063820 -1.771607
    44 0.000000 0.196712 0.000000 1.570797 0.000000 0.000001
    45 0.000002 2.032589 0.000000 0.000000 0.000000 0.000000
    46 0.000002 1.571991 0.000000 -0.060294 0.000000 0.000000
    47 3.775905 -5.485672 -0.527956 -2.248292 -0.133225 -1.641886
  time 1
    0 -0.000003 -13.531250 -29.421875 1.570792 0.000003 -0.000003
    1 0.000000 3.345131 -2.981898 1.570796 0.083192 1.570795
    2 4.015625 0.000001 0.000000 0.000000 -0.000001 -0.028819
    3 3.520294 0.000005 -0.000006 0.000000 0.000000 0.097311
    4 8.929688 -0.000001 0.000000 0.000000 0.000001 0.186405
    5 2.035156 0.997070 1.937500 1.589735 -1.286517 2.950158
    6 6.028159 -0.000069 0.000009 -1.575890 0.049155 -1.169438
    7 11.692566 0.000046 0.000011 -0.000002 0.000000 -0.060376
    8 11.481682 0.000088 -0.000031 1.568292 -0.038710 0.036026
    9 3.857422 -0.139526 -1.191406 -0.363882 0.112047 -0.355498
    10 1.312565 -0.000008 0.000000 -0.000002 0.054404 -0.409012
    11 0.729366 0.000002 -0.000002 -0.000001 0.040754 -0.240990
    12 3.941406 0.046936 -0.435059 -0.101499 0.042182 -0.269683
    13 1.539091 0.000008 -0.000002 0.000000 0.003737 -0.247812
    14 1.196321 0.000000 -0.000002 -0.000001 0.006168 -0.430818
    15 3.880859 -0.043091 0.427490 0.090105 -0.011419 -0.132542
    16 1.719578 0.000023 -0.000021 -0.000005 -0.020423 -0.365964
    17 1.209181 -0.000004 -0.000001 0.000001 -0.011427 -0.216116
    18 3.863281 -0.136475 1.332031 0.320642 -0.041405 -0.125801
    19 1.719431 -0.000023 0.000019 0.000001 -0.106227 -0.347813
    20 1.099676 0.000000 0.000006 0.000004 -0.067955 -0.234890
    21 0.807129 -0.346924 1.320313 -1.243196 -0.551768 -0.740654
    22 1.789787 0.000006 0.000006 -0.000002 -0.003712 0.228604
    23 1.207012 0.000011 0.000000 -0.000001 -0.005667 0.362993
    24 2.035156 0.997070 -1.937500 -1.661572 1.286515 2.950150
    25 6.028144 -0.000011 0.000002 1.657016 0.253337 -0.604790
    26 12.301971 -1.003936 0.937532 0.583416 -0.466358 -0.601596
    27 11.481657 0.000043 0.000019 -2.187581 0.497300 -0.038756
    28 3.858240 -0.131699 1.199994 0.390527 -0.101410 -0.916423
    29 1.312567 0.000000 0.000000 0.094358 -0.148302 -1.023380
    30 0.729362 0.000004 0.000003 0.246478 -0.201514 -1.343121
    31 3.941981 0.050872 0.435162 0.108940 0.058963 -0.470260
    32 1.539089 0.000008 0.000003 0.081999 -0.072597 -1.490925
    33 1.196316 0.000004 0.000005 0.030667 -0.074741 -1.027947
    34 3.880859 -0.047028 -0.427490 -0.079035 0.162996 -0.514648
    35 1.719567 0.000023 0.000016 -0.048600 0.058563 -1.498693
    36 1.209175 0.000008 0.000005 -0.038127 -0.010975 -1.196747
    37 3.867399 -0.148186 -1.324350 -0.424029 0.413272 -0.567318
    38 1.719419 -0.000008 -0.000008 -0.103004 0.275398 -0.995724
    39 1.099667 -0.000004 -0.000001 -0.048647 0.108807 -0.506629
    40 0.807129 -0.358643 -1.316406 1.391888 0.446144 -0.556730
    41 1.789783 -0.000002 -0.000002 0.030307 -0.047272 0.412865
    42 1.207001 0.000009 0.000000 -0.006740 -0.074456 -0.170110
    43 5.073761 -4.063510 -2.918343 3.826595 -0.063820 -1.771607
    44 0.000000 0.196712 0.000000 1.570797 0.000000 0.000001
    45 0.000002 2.032589 0.000000 -0.008689 0.000000 0.000000
    46 0.000002 1.571991 0.000000 -0.060294 0.000000 0.000000
    47 3.775905 -5.485672 -0.527956 -2.248292 -0.133225 -1.641886
  time 2
    0 -0.000003 -13.531250 -29.421875 1.570792 0.000003 -0.000003
    1 0.000000 3.345131 -2.981898 1.570796 0.083192 1.570795
    2 4.015625 0.000001 0.000000 0.000000 -0.000001 -0.028819
    3 3.520294 0.000005 -0.000006 0.000000 0.000000 0.097311
    4 8.929688 -0.000001 0.000000 0.000000 0.000001 0.186405
    5 2.035156 0.997070 1.937500 1.589735 -1.286517 2.950158
    6 6.028159 -0.000069 0.000009 -1.575890 0.049155 -1.169438
    7 11.692566 0.000046 0.000011 -0.000002 0.000000 -0.060376
    8 11.481682 0.000088 -0.000031 1.568292 -0.038710 0.036026
    9 3.857422 -0.139526 -1.191406 -0.363882 0.112047 -0.355498
    10 1.312565 -0.000008 0.000000 -0.000002 0.054404 -0.409012
    11 0.729366 0.000002 -0.000002 -0.000001 0.040754 -0.240990
    12 3.941406 0.046936 -0.435059 -0.101499 0.042182 -0.269683
    13 1.539091 0.000008 -0.000002 0.000000 0.003737 -0.247812
    14 1.196321 0.000000 -0.000002 -0.000001 0.006168 -0.430818
    15 3.880859 -0.043091 0.427490 0.090105 -0.011419 -0.132542
    16 1.719578 0.000023 -0.000021 -0.000005 -0.020423 -0.365964
    17 1.209181 -0.000004 -0.000001 0.000001 -0.011427 -0.216116
    18 3.863281 -0.136475 1.332031 0.320642 -0.041405 -0.125801
    19 1.719431 -0.000023 0.000019 0.000001 -0.106227 -0.347813
    20 1.099676 0.000000 0.000006 0.000004 -0.067955 -0.234890
    21 0.807129 -0.346924 1.320313 -1.243196 -0.551768 -0.740654
    22 1.789787 0.000006 0.000006 -0.000002 -0.003712 0.228604
    23 1.207012 0.000011 0.000000 -0.000001 -0.005667 0.362993
    24 2.035156 0.997070 -1.937500 -1.661572 1.286515 2.950150
    25 6.028144 -0.000011 0.000002 1.664099 0.261521 -0.601770
    26 12.301971 -1.003936 0.937532 0.544460 -0.448375 -0.637892
    27 11.481657 0.000043 0.000019 -2.176574 0.495932 -0.046654
    28 3.854334 -0.131699 1.199994 0.390527 -0.101410 -0.916423
    29 1.312567 0.000000 0.000000 0.094358 -0.148302 -1.023361
    30 0.729362 0.000004 0.000003 0.246478 -0.201514 -1.343121
    31 3.938074 0.050872 0.435162 0.108940 0.058963 -0.470260
    32 1.539089 0.000008 0.000003 0.081999 -0.072597 -1.490925
    33 1.196316 0.000004 0.000005 0.030667 -0.074741 -1.027947
    34 3.880859 -0.047028 -0.427490 -0.079035 0.162996 -0.514648
    35 1.719567 0.000023 0.000016 -0.048600 0.058563 -1.498659
    36 1.209175 0.000008 0.000005 -0.038127 -0.010975 -1.196747
    37 3.863493 -0.148186 -1.324350 -0.424017 0.413272 -0.567318
    38 1.719419 -0.000008 -0.000008 -0.103004 0.275398 -0.995724
    39 1.099667 -0.000004 -0.000001 -0.048647 0.108807 -0.506629
    40 0.807129 -0.358643 -1.316406 1.391888 0.446144 -0.556730
    41 1.789783 -0.000002 -0.000002 0.030307 -0.047272 0.412865
    42 1.207001 0.000009 0.000000 -0.006740 -0.074456 -0.170110
    43 5.073761 -4.063510 -2.918343 3.826595 -0.063820 -1.771607
    44 0.000000 0.196712 0.000000 1.570797 0.000000 0.000001
    45 0.000002 2.032589 0.000000 -0.031436 0.000000 0.000000
    46 0.000002 1.571991 0.000000 -0.060294 0.000000 0.000000
    47 3.775905 -5.485672 -0.527956 -2.248292 -0.133225 -1.641886
  time 3
    0 -0.000003 -13.531250 -29.421875 1.570792 0.000003 -0.000003
    1 0.000000 3.345131 -2.981898 1.570796 0.083192 1.570795
    2 4.015625 0.000001 0.000000 0.000000 -0.000001 -0.028819
    3 3.520294 0.000005 -0.000006 0.000000 0.000000 0.097311
    4 8.929688 -0.000001 0.000000 0.000000 0.000001 0.186405
    5 2.035156 0.997070 1.937500 1.589735 -1.286517 2.950158
    6 6.028159 -0.000069 0.000009 -1.575890 0.049155 -1.169438
    7 11.692566 0.000046 0.000011 -0.000002 0.000000 -0.060376
    8 11.481682 0.000088 -0.000031 1.568292 -0.038710 0.036026
    9 3.857422 -0.139526 -1.191406 -0.363882 0.112047 -0.355498
    10 1.312565 -0.000008 0.000000 -0.000002 0.054404 -0.409012
    11 0.729366 0.000002 -0.000002 -0.000001 0.040754 -0.240990
    12 3.941406 0.046936 -0.435059 -0.101499 0.042182 -0.269683
    13 1.539091 0.000008 -0.000002 0.000000 0.003737 -0.247812
    14 1.196321 0.000000 -0.000002 -0.000001 0.006168 -0.430818
    15 3.880859 -0.043091 0.427490 0.090105 -0.011419 -0.132542
    16 1.719578 0.000023 -0.000021 -0.000005 -0.020423 -0.365964
    17 1.209181 -0.000004 -0.000001 0.000001 -0.011427 -0.216116
    18 3.863281 -0.136475 1.332031 0.320642 -0.041405 -0.125801
    19 1.719431 -0.000023 0.000019 0.000001 -0.106227 -0.347813
    20 1.099676 0.000000 0.000006 0.000004 -0.067955 -0.234890
    21 0.807129 -0.346924 1.320313 -1.243196 -0.551768 -0.740654
    22 1.789787 0.000006 0.000006 -0.000002 -0.003712 0.228604
    23 1.207012 0.000011 0.000000 -0.000001 -0.005667 0.362993
    24 2.035156 0.997070 -1.937500 -1.661572 1.286515 2.950150
    25 6.028144 -0.000011 0.000002 1.675988 0.275111 -0.596736
    26 12.301971 -1.003936 0.937532 0.483147 -0.418332 -0.698669
    27 11.481657 0.000043 0.000019 -2.158210 0.493594 -0.059753
    28 3.858240 -0.131699 1.199994 0.390527 -0.101410 -0.916423
    29 1.312567 0.000000 0.000000 0.094358 -0.148302 -1.023361
    30 0.729362 0.000004 0.000003 0.246466 -0.201514 -1.343121
    31 3.941981 0.050872 0.435162 0.108940 0.058963 -0.470260
    32 1.539089 0.000008 0.000003 0.081999 -0.072597 -1.490887
    33 1.196316 0.000004 0.000005 0.030667 -0.074741 -1.027947
    34 3.880859 -0.047028 -0.427490 -0.079035 0.162996 -0.514648
    35 1.719567 0.000023 0.000016 -0.048600 0.058563 -1.498659
    36 1.209175 0.000008 0.000005 -0.038127 -0.010975 -1.196747
    37 3.867399 -0.148186 -1.324350 -0.424029 0.413272 -0.567318
    38 1.719419 -0.000008 -0.000008 -0.103004 0.275398 -0.995724
    39 1.099667 -0.000004 -0.000001 -0.048647 0.108807 -0.506629
    40 0.807129 -0.358643 -1.316406 1.391888 0.446144 -0.556730
    41 1.789783 -0.000002 -0.000002 0.030307 -0.047272 0.412865
    42 1.207001 0.000009 0.000000 -0.006740 -0.074456 -0.170110
    43 5.073761 -4.063510 -2.918343 3.826595 -0.063820 -1.771607
    44 0.000000 0.196712 0.000000 1.570797 0.000000 0.000001
    45 0.000002 2.032589 0.000000 -0.054182 0.000000 0.000000
    46 0.000002 1.571991 0.000000 -0.060294 0.000000 0.000000
    47 3.775905 -5.485672 -0.527956 -2.248292 -0.133225 -1.641886
  time 4
    0 -0.000003 -13.531250 -29.421875 1.570792 0.000003 -0.000003
    1 0.000000 3.345131 -2.981898 1.570796 0.083192 1.570795
    2 4.015625 0.000001 0.000000 0.000000 -0.000001 -0.028819
    3 3.520294 0.000005 -0.000006 0.000000 0.000000 0.097311
    4 8.929688 -0.000001 0.000000 0.000000 0.000001 0.186405
    5 2.035156 0.997070 1.937500 1.589735 -1.286517 2.950158
    6 6.028159 -0.000069 0.000009 -1.575890 0.049155 -1.169438
    7 11.692566 0.000046 0.000011 -0.000002 0.000000 -0.060376
    8 11.481682 0.000088 -0.000031 1.568292 -0.038710 0.036026
    9 3.857422 -0.139526 -1.191406 -0.363882 0.112047 -0.355498
    10 1.312565 -0.000008 0.000000 -0.000002 0.054404 -0.409012
    11 0.729366 0.000002 -0.000002 -0.000001 0.040754 -0.240990
    12 3.941406 0.046936 -0.435059 -0.101499 0.042182 -0.269683
    13 1.539091 0.000008 -0.000002 0.000000 0.003737 -0.247812
    14 1.196321 0.000000 -0.000002 -0.000001 0.006168 -0.430818
    15 3.880859 -0.043091 0.427490 0.090105 -0.011419 -0.132542
    16 1.719578 0.000023 -0.000021 -0.000005 -0.020423 -0.365964
    17 1.209181 -0.000004 -0.000001 0.000001 -0.011427 -0.216116
    18 3.863281 -0.136475 1.332031 0.320642 -0.041405 -0.125801
    19 1.719431 -0.000023 0.000019 0.000001 -0.106227 -0.347813
    20 1.099676 0.000000 0.000006 0.000004 -0.067955 -0.234890
    21 0.807129 -0.346924 1.320313 -1.243196 -0.551768 -0.740654
    22 1.789787 0.000006 0.000006 -0.000002 -0.003712 0.228604
    23 1.207012 0.000011 0.000000 -0.000001 -0.005667 0.362993
    24 2.035156 0.997070 -1.937500 -1.661572 1.286515 2.950150
    25 6.028144 -0.000011 0.000002 1.692598 0.293862 -0.589737
    26 12.301971 -1.003936 0.937532 0.408443 -0.378519 -0.779705
    27 11.481657 0.000043 0.000019 -2.132774 0.490271 -0.077766
    28 3.854334 -0.131699 1.199994 0.390527 -0.101410 -0.916423
    29 1.312567 0.000000 0.000000 0.094358 -0.148302 -1.023361
    30 0.729362 0.000004 0.000003 0.246478 -0.201514 -1.343121
    31 3.938074 0.050872 0.435162 0.108940 0.058963 -0.470260
    32 1.539089 0.000008 0.000003 0.081999 -0.072597 -1.490925
    33 1.196316 0.000004 0.000005 0.030667 -0.074741 -1.027947
    34 3.880859 -0.047028 -0.427490 -0.079035 0.162996 -0.514648
    35 1.719567 0.000023 0.000016 -0.048600 0.058563 -1.498659
    36 1.209175 0.000008 0.000005 -0.038127 -0.010975 -1.196747
    37 3.863493 -0.148186 -1.324350 -0.424029 0.413272 -0.567318
    38 1.719419 -0.000008 -0.000008 -0.103004 0.275398 -0.995724
    39 1.099667 -0.000004 -0.000001 -0.048647 0.108807 -0.506629
    40 0.807129 -0.358643 -1.316406 1.391888 0.446144 -0.556730
    41 1.789783 -0.000002 -0.000002 0.030307 -0.047272 0.412865
    42 1.207001 0.000009 0.000000 -0.006740 -0.074456 -0.170110
    43 5.073761 -4.063510 -2.918343 3.826595 -0.063832 -1.771607
    44 0.000000 0.196712 0.000000 1.570797 0.000000 0.000001
    45 0.000002 2.032589 0.000000 -0.062883 0.000000 0.000000
    46 0.000002 1.571991 0.000000 -0.060294 0.000000 0.000000
    47 3.775905 -5.485672 -0.527956 -2.248292 -0.133225 -1.641886
  time 5
    0 -0.000003 -13.531250 -29.421875 1.570792 0.000003 -0.000003
    1 0.000000 3.345131 -2.981898 1.570796 0.083192 1.570795
    2 4.015625 0.000001 0.000000 0.000000 -0.000001 -0.028819
    3 3.520294 0.000005 -0.000006 0.000000 0.000000 0.097311
    4 8.929688 -0.000001 0.000000 0.000000 0.000001 0.186405
    5 2.035156 0.997070 1.937500 1.589735 -1.286517 2.950158
    6 6.028159 -0.000069 0.000009 -1.575890 0.049155 -1.169438
    7 11.692566 0.000046 0.000011 -0.000002 0.000000 -0.060376
    8 11.481682 0.000088 -0.000031 1.568292 -0.038710 0.036026
    9 3.857422 -0.139526 -1.191406 -0.363882 0.112047 -0.355498
    10 1.312565 -0.000008 0.000000 -0.000002 0.054404 -0.409012
    11 0.729366 0.000002 -0.000002 -0.000001 0.040754 -0.240990
    12 3.941406 0.046936 -0.435059 -0.101499 0.042182 -0.269683
    13 1.539091 0.000008 -0.000002 0.000000 0.003737 -0.247812
    14 1.196321 0.000000 -0.000002 -0.000001 0.006168 -0.430818
    15 3.880859 -0.043091 0.427490 0.090105 -0.011419 -0.132542
    16 1.719578 0.000023 -0.000021 -0.000005 -0.020423 -0.365964
    17 1.209181 -0.000004 -0.000001 0.000001 -0.011427 -0.216116
    18 3.863281 -0.136475 1.332031 0.320642 -0.041405 -0.125801
    19 1.719431 -0.000023 0.000019 0.000001 -0.106227 -0.347813
    20 1.099676 0.000000 0.000006 0.000004 -0.067955 -0.234890
    21 0.807129 -0.346924 1.320313 -1.243196 -0.551768 -0.740654
    22 1.789787 0.000006 0.000006 -0.000002 -0.003712 0.228604
    23 1.207012 0.000011 0.000000 -0.000001 -0.005667 0.362993
    24 2.035156 0.997070 -1.937500 -1.661572 1.286515 2.950150
    25 6.028144 -0.000011 0.000002 1.713583 0.317136 -0.580940
    26 12.301971 -1.003936 0.937532 0.333738 -0.333360 -0.872233
    27 11.481657 0.000043 0.000019 -2.100988 0.485977 -0.100057
    28 3.858240 -0.131699 1.199994 0.390527 -0.101410 -0.916423
    29 1.312567 0.000000 0.000000 0.094358 -0.148302 -1.023361
    30 0.729362 0.000004 0.000003 0.246478 -0.201514 -1.343121
    31 3.941981 0.050872 0.435162 0.108940 0.058963 -0.470260
    32 1.539089 0.000008 0.000003 0.081999 -0.072597 -1.490887
    33 1.196316 0.000004 0.000005 0.030667 -0.074741 -1.027947
    34 3.880859 -0.047028 -0.427490 -0.079035 0.162996 -0.514648
    35 1.719567 0.000023 0.000016 -0.048600 0.058551 -1.498659
    36 1.209175 0.000008 0.000005 -0.038127 -0.010975 -1.196747
    37 3.867399 -0.148186 -1.324350 -0.424029 0.413272 -0.567318
    38 1.719419 -0.000008 -0.000008 -0.103004 0.275398 -0.995724
    39 1.099667 -0.000004 -0.000001 -0.048647 0.108807 -0.506629
    40 0.807129 -0.358643 -1.316406 1.391888 0.446144 -0.556730
    41 1.789783 -0.000002 -0.000002 0.030307 -0.047272 0.412865
    42 1.207001 0.000009 0.000000 -0.006740 -0.074456 -0.170110
    43 5.073761 -4.063510 -2.918343 3.826665 -0.063832 -1.771591
    44 0.000000 0.196712 0.000000 1.570797 0.000000 0.000001
    45 0.000002 2.032589 0.000000 -0.043935 0.000000 0.000000
    46 0.000002 1.571991 0.000000 -0.041766 0.000000 0.000000
    47 3.775905 -5.485672 -0.527956 -2.248292 -0.133225 -1.641886
  time 6
    0 -0.000003 -13.531250 -29.421875 1.570792 0.000003 -0.000003
    1 0.000000 3.345131 -2.981898 1.570796 0.083192 1.570795
    2 4.015625 0.000001 0.000000 0.000000 -0.000001 -0.028819
    3 3.520294 0.000005 -0.000006 0.000000 0.000000 0.097311
    4 8.929688 -0.000001 0.000000 0.000000 0.000001 0.186405
    5 2.035156 0.997070 1.937500 1.589735 -1.286517 2.950158
    6 6.028159 -0.000069 0.000009 -1.575890 0.049155 -1.169438
    7 11.692566 0.000046 0.000011 -0.000002 0.000000 -0.060376
    8 11.481682 0.000088 -0.000031 1.568292 -0.038710 0.036026
    9 3.857422 -0.139526 -1.191406 -0.363882 0.112047 -0.355498
    10 1.312565 -0.000008 0.000000 -0.000002 0.054404 -0.409012
    11 0.729366 0.000002 -0.000002 -0.000001 0.040754 -0.240990
    12 3.941406 0.046936 -0.435059 -0.101499 0.042182 -0.269683
    13 1.539091 0.000008 -0.000002 0.000000 0.003737 -0.247812
    14 1.196321 0.000000 -0.000002 -0.000001 0.006168 -0.430818
    15 3.880859 -0.043091 0.427490 0.090105 -0.011419 -0.132542
    16 1.719578 0.000023 -0.000021 -0.000005 -0.020423 -0.365964
    17 1.209181 -0.000004 -0.000001 0.000001 -0.011427 -0.216116
    18 3.863281 -0.136475 1.332031 0.320642 -0.041405 -0.125801
    19 1.719431 -0.000023 0.000019 0.000001 -0.106227 -0.347813
    20 1.099676 0.000000 0.000006 0.000004 -0.067955 -0.234890
    21 0.807129 -0.346924 1.320313 -1.243196 -0.551768 -0.740654
    22 1.789787 0.000006 0.000006 -0.000002 -0.003712 0.228604
    23 1.207012 0.000011 0.000000 -0.000001 -0.005667 0.362993
    24 2.035156 0.997070 -1.937500 -1.661572 1.286515 2.950150
    25 6.028144 -0.000011 0.000002 1.738320 0.344021 -0.570622
    26 12.301971 -1.003936 0.937532 0.272426 -0.288100 -0.965831
    27 11.481657 0.000043 0.000019 -2.064051 0.480771 -0.125680
    28 3.854334 -0.131699 1.199994 0.390527 -0.101410 -0.916423
    29 1.312567 0.000000 0.000000 0.094358 -0.148302 -1.023361
    30 0.729362 0.000004 0.000003 0.246466 -0.201514 -1.343121
    31 3.941981 0.050872 0.435162 0.108940 0.058963 -0.470260
    32 1.539089 0.000008 0.000003 0.081999 -0.072597 -1.490887
    33 1.196316 0.000004 0.000005 0.030667 -0.074741 -1.027947
    34 3.880859 -0.047028 -0.427490 -0.079035 0.162996 -0.514648
    35 1.719567 0.000023 0.000016 -0.048600 0.058563 -1.498659
    36 1.209175 0.000008 0.000005 -0.038127 -0.010975 -1.196747
    37 3.863493 -0.148186 -1.324350 -0.424029 0.413272 -0.567318
    38 1.719419 -0.000008 -0.000008 -0.103004 0.275398 -0.995724
    39 1.099667 -0.000004 -0.000001 -0.048647 0.108807 -0.506629
    40 0.807129 -0.358643 -1.316406 1.391888 0.446144 -0.556730
    41 1.789783 -0.000002 -0.000002 0.030307 -0.047272 0.412865
    42 1.207001 0.000009 0.000000 -0.006740 -0.074456 -0.170110
    43 5.073761 -4.063510 -2.918343 3.826595 -0.063832 -1.771607
    44 0.000000 0.196712 0.000000 1.570797 0.000000 0.000001
    45 0.000002 2.032589 0.000000 0.005693 0.000000 0.000000
    46 0.000002 1.571991 0.000000 0.006711 0.000000 0.000000
    47 3.775905 -5.485672 -0.527956 -2.248292 -0.133225 -1.641886
  time 7
    0 -0.000003 -13.531250 -29.421875 1.570792 0.000003 -0.000003
    1 0.000000 3.345131 -2.981898 1.570796 0.083192 1.570795
    2 4.015625 0.000001 0.000000 0.000000 -0.000001 -0.028819
    3 3.520294 0.000005 -0.000006 0.000000 0.000000 0.097311
    4 8.929688 -0.000001 0.000000 0.000000 0.000001 0.186405
    5 2.035156 0.997070 1.937500 1.589735 -1.286517 2.950158
    6 6.028159 -0.000069 0.000009 -1.575890 0.049155 -1.169438
    7 11.692566 0.000046 0.000011 -0.000002 0.000000 -0.060376
    8 11.481682 0.000088 -0.000031 1.568292 -0.038710 0.036026
    9 3.857422 -0.139526 -1.191406 -0.363882 0.112047 -0.355498
    10 1.312565 -0.000008 0.000000 -0.000002 0.054404 -0.409012
    11 0.729366 0.000002 -0.000002 -0.000001 0.040754 -0.240990
    12 3.941406 0.046936 -0.435059 -0.101499 0.042182 -0.269683
    13 1.539091 0.000008 -0.000002 0.000000 0.003737 -0.247812
    14 1.196321 0.000000 -0.000002 -0.000001 0.006168 -0.430818
    15 3.880859 -0.043091 0.427490 0.090105 -0.011419 -0.132542
    16 1.719578 0.000023 -0.000021 -0.000005 -0.020423 -0.365964
    17 1.209181 -0.000004 -0.000001 0.000001 -0.011427 -0.216116
    18 3.863281 -0.136475 1.332031 0.320642 -0.041405 -0.125801
    19 1.719431 -0.000023 0.000019 0.000001 -0.106227 -0.347813
    20 1.099676 0.000000 0.000006 0.000004 -0.067955 -0.234890
    21 0.807129 -0.346924 1.320313 -1.243196 -0.551768 -0.740654
    22 1.789787 0.000006 0.000006 -0.000002 -0.003712 0.228604
    23 1.207012 0.000011 0.000000 -0.000001 -0.005667 0.362993
    24 2.035156 0.997070 -1.937500 -1.661572 1.286515 2.950150
    25 6.028144 -0.000011 0.000002 1.765824 0.373168 -0.559176
    26 12.301971 -1.003936 0.937532 0.233470 -0.246976 -1.051892
    27 11.481657 0.000043 0.000019 -2.023597 0.474831 -0.153364
    28 3.858240 -0.131699 1.199994 0.390527 -0.101410 -0.916423
    29 1.312567 0.000000 0.000000 0.094358 -0.148302 -1.023361
    30 0.729362 0.000004 0.000003 0.246466 -0.201514 -1.343121
    31 3.941981 0.050872 0.435162 0.108940 0.058963 -0.470260
    32 1.539089 0.000008 0.000003 0.081999 -0.072597 -1.490887
    33 1.196316 0.000004 0.000005 0.030667 -0.074741 -1.027947
    34 3.880859 -0.047028 -0.427490 -0.079035 0.162996 -0.514648
    35 1.719567 0.000023 0.000016 -0.048600 0.058563 -1.498659
    36 1.209175 0.000008 0.000005 -0.038127 -0.010975 -1.196747
    37 3.863493 -0.148186 -1.324350 -0.424029 0.413272 -0.567318
    38 1.719419 -0.000008 -0.000008 -0.103004 0.275398 -0.995724
    39 1.099667 -0.000004 -0.000001 -0.048647 0.108807 -0.506629
    40 0.807129 -0.358643 -1.316406 1.391888 0.446144 -0.556730
    41 1.789783 -0.000002 -0.000002 0.030307 -0.047272 0.412865
    42 1.207001 0.000009 0.000000 -0.006740 -0.074456 -0.170110
    43 5.073761 -4.063510 -2.918343 3.826595 -0.063820 -1.771607
    44 0.000000 0.196712 0.000000 1.570797 0.000000 0.000001
    45 0.000002 2.032589 0.000000 0.055321 0.000000 0.000000
    46 0.000002 1.571991 0.000000 0.055213 0.000000 0.000000
    47 3.775905 -5.485672 -0.527956 -2.248292 -0.133225 -1.641886
  time 8
    0 -0.000003 -13.531250 -29.421875 1.570792 0.000003 -0.000003
    1 0.000000 3.345131 -2.981898 1.570796 0.083192 1.570795
    2 4.015625 0.000001 0.000000 0.000000 -0.000001 -0.028819
    3 3.520294 0.000005 -0.000006 0.000000 0.000000 0.097311
    4 8.929688 -0.000001 0.000000 0.000000 0.000001 0.186405
    5 2.035156 0.997070 1.937500 1.589735 -1.286517 2.950158
    6 6.028159 -0.000069 0.000009 -1.575890 0.049155 -1.169438
    7 11.692566 0.000046 0.000011 -0.000002 0.000000 -0.060376
    8 11.481682 0.000088 -0.000031 1.568292 -0.038710 0.036026
    9 3.857422 -0.139526 -1.191406 -0.363882 0.112047 -0.355498
    10 1.312565 -0.000008 0.000000 -0.000002 0.054404 -0.409012
    11 0.729366 0.000002 -0.000002 -0.000001 0.040754 -0.240990
    12 3.941406 0.046936 -0.435059 -0.101499 0.042182 -0.269683
    13 1.539091 0.000008 -0.000002 0.000000 0.003737 -0.247812
    14 1.196321 0.000000 -0.000002 -0.000001 0.006168 -0.430818
    15 3.880859 -0.043091 0.427490 0.090105 -0.011419 -0.132542
    16 1.719578 0.000023 -0.000021 -0.000005 -0.020423 -0.365964
    17 1.209181 -0.000004 -0.000001 0.000001 -0.011427 -0.216116
    18 3.863281 -0.136475 1.332031 0.320642 -0.041405 -0.125801
    19 1.719431 -0.000023 0.000019 0.000001 -0.106227 -0.347813
    20 1.099676 0.000000 0.000006 0.000004 -0.067955 -0.234890
    21 0.807129 -0.346924 1.320313 -1.243196 -0.551768 -0.740654
    22 1.789787 0.000006 0.000006 -0.000002 -0.003712 0.228604
    23 1.207012 0.000011 0.000000 -0.000001 -0.005667 0.362993
    24 2.035156 0.997070 -1.937500 -1.661572 1.286515 2.950150
    25 6.028144 -0.000011 0.000002 1.794803 0.403101 -0.547144
    26 12.301971 -1.003936 0.937532 0.220417 -0.212379 -1.125551
    27 11.481657 0.000043 0.000019 -1.981697 0.468449 -0.181648
    28 3.858240 -0.131699 1.199994 0.390527 -0.101410 -0.916423
    29 1.312567 0.000000 0.000000 0.094358 -0.148302 -1.023361
    30 0.729362 0.000004 0.000003 0.246478 -0.201514 -1.343121
    31 3.941981 0.050872 0.435162 0.108940 0.058963 -0.470260
    32 1.539089 0.000008 0.000003 0.081999 -0.072597 -1.490925
    33 1.196316 0.000004 0.000005 0.030667 -0.074741 -1.027947
    34 3.880859 -0.047028 -0.427490 -0.079035 0.162996 -0.514648
    35 1.719567 0.000023 0.000016 -0.048600 0.058563 -1.498659
    36 1.209175 0.000008 0.000005 -0.038127 -0.010975 -1.196747
    37 3.867399 -0.148186 -1.324350 -0.424029 0.413272 -0.567318
    38 1.719419 -0.000008 -0.000008 -0.103004 0.275398 -0.995724
    39 1.099667 -0.000004 -0.000001 -0.048647 0.108807 -0.506629
    40 0.807129 -0.358643 -1.316406 1.391888 0.446144 -0.556730
    41 1.789783 -0.000002 -0.000002 0.030307 -0.047272 0.412865
    42 1.207001 0.000009 0.000000 -0.006740 -0.074456 -0.170110
    43 5.073761 -4.063510 -2.918343 3.826595 -0.063832 -1.771607
    44 0.000000 0.196712 0.000000 1.570797 0.000000 0.000001
    45 0.000002 2.032589 0.000000 0.074281 0.000000 0.000000
    46 0.000002 1.571991 0.000000 0.073741 0.000000 0.000000
    47 3.775905 -5.485672 -0.527956 -2.248292 -0.133225 -1.641886
  time 9
    0 -0.000003 -13.531250 -29.421875 1.570792 0.000003 -0.000003
    1 0.000000 3.345131 -2.981898 1.570796 0.083192 1.570795
    2 4.015625 0.000001 0.000000 0.000000 -0.000001 -0.028819
    3 3.520294 0.000005 -0.000006 0.000000 0.000000 0.097311
    4 8.929688 -0.000001 0.000000 0.000000 0.000001 0.186405
    5 2.035156 0.997070 1.937500 1.589735 -1.286517 2.950158
    6 6.028159 -0.000069 0.000009 -1.575890 0.049155 -1.169438
    7 11.692566 0.000046 0.000011 -0.000002 0.000000 -0.060376
    8 11.481682 0.000088 -0.000031 1.568292 -0.038710 0.036026
    9 3.857422 -0.139526 -1.191406 -0.363882 0.112047 -0.355498
    10 1.312565 -0.000008 0.000000 -0.000002 0.054404 -0.409012
    11 0.729366 0.000002 -0.000002 -0.000001 0.040754 -0.240990
    12 3.941406 0.046936 -0.435059 -0.101499 0.042182 -0.269683
    13 1.539091 0.000008 -0.000002 0.000000 0.003737 -0.247812
    14 1.196321 0.000000 -0.000002 -0.000001 0.006168 -0.430818
    15 3.880859 -0.043091 0.427490 0.090105 -0.011419 -0.132542
    16 1.719578 0.000023 -0.000021 -0.000005 -0.020423 -0.365964
    17 1.209181 -0.000004 -0.000001 0.000001 -0.011427 -0.216116
    18 3.863281 -0.136475 1.332031 0.320642 -0.041405 -0.125801
    19 1.719431 -0.000023 0.000019 0.000001 -0.106227 -0.347813
    20 1.099676 0.000000 0.000006 0.000004 -0.067955 -0.234890
    21 0.807129 -0.346924 1.320313 -1.243196 -0.551768 -0.740654
    22 1.789787 0.000006 0.000006 -0.000002 -0.003712 0.228604
    23 1.207012 0.000011 0.000000 -0.000001 -0.005667 0.362993
    24 2.035156 0.997070 -1.937500 -1.661572 1.286515 2.950150
    25 6.028144 -0.000011 0.000002 1.823698 0.432150 -0.535123
    26 12.301971 -1.003936 0.937532 0.243994 -0.178244 -1.200012
    27 11.481657 0.000043 0.000019 -1.940578 0.461964 -0.208997
    28 3.854334 -0.131699 1.199994 0.390527 -0.101410 -0.916423
    29 1.312567 0.000000 0.000000 0.094358 -0.148302 -1.023361
    30 0.729362 0.000004 0.000003 0.246466 -0.201514 -1.343121
    31 3.941981 0.050872 0.435162 0.108940 0.058963 -0.470260
    32 1.539089 0.000008 0.000003 0.081999 -0.072597 -1.490925
    33 1.196316 0.000004 0.000005 0.030667 -0.074741 -1.027947
    34 3.880859 -0.047028 -0.427490 -0.079035 0.162996 -0.514648
    35 1.719567 0.000023 0.000016 -0.048600 0.058563 -1.498659
    36 1.209175 0.000008 0.000005 -0.038127 -0.010975 -1.196747
    37 3.863493 -0.148186 -1.324350 -0.424017 0.413272 -0.567318
    38 1.719419 -0.000008 -0.000008 -0.103004 0.275398 -0.995724
    39 1.099667 -0.000004 -0.000001 -0.048647 0.108807 -0.506629
    40 0.807129 -0.358643 -1.316406 1.391888 0.446144 -0.556730
    41 1.789783 -0.000002 -0.000002 0.030307 -0.047272 0.412865
    42 1.207001 0.000009 0.000000 -0.006740 -0.074456 -0.170110
    43 5.073761 -4.063510 -2.918343 3.826595 -0.063820 -1.771607
    44 0.000000 0.196712 0.000000 1.570797 0.000000 0.000001
    45 0.000002 2.032589 0.000000 0.070913 0.000000 0.000000
    46 0.000002 1.571991 0.000000 0.070398 0.000000 0.000000
    47 3.775905 -5.485672 -0.527956 -2.248292 -0.133225 -1.641886
  time 10
    0 -0.000003 -13.531250 -29.421875 1.570792 0.000003 -0.000003
    1 0.000000 3.345131 -2.981898 1.570796 0.083192 1.570795
    2 4.015625 0.000001 0.000000 0.000000 -0.000001 -0.028819
    3 3.520294 0.000005 -0.000006 0.000000 0.000000 0.097311
    4 8.929688 -0.000001 0.000000 0.000000 0.000001 0.186405
    5 2.035156 0.997070 1.937500 1.589735 -1.286517 2.950158
    6 6.028159 -0.000069 0.000009 -1.575890 0.049155 -1.169438
    7 11.692566 0.000046 0.000011 -0.000002 0.000000 -0.060376
    8 11.481682 0.000088 -0.000031 1.568292 -0.038710 0.036026
    9 3.857422 -0.139526 -1.191406 -0.363882 0.112047 -0.355498
    10 1.312565 -0.000008 0.000000 -0.000002 0.054404 -0.409012
    11 0.729366 0.000002 -0.000002 -0.000001 0.040754 -0.240990
    12 3.941406 0.046936 -0.435059 -0.101499 0.042182 -0.269683
    13 1.539091 0.000008 -0.000002 0.000000 0.003737 -0.247812
    14 1.196321 0.000000 -0.000002 -0.000001 0.006168 -0.430818
    15 3.880859 -0.043091 0.427490 0.090105 -0.011419 -0.132542
    16 1.719578 0.000023 -0.000021 -0.000005 -0.020423 -0.365964
    17 1.209181 -0.000004 -0.000001 0.000001 -0.011427 -0.216116
    18 3.863281 -0.136475 1.332031 0.320642 -0.041405 -0.125801
    19 1.719431 -0.000023 0.000019 0.000001 -0.106227 -0.347813
    20 1.099676 0.000000 0.000006 0.000004 -0.067955 -0.234890
    21 0.807129 -0.346924 1.320313 -1.243196 -0.551768 -0.740654
    22 1.789787 0.000006 0.000006 -0.000002 -0.003712 0.228604
    23 1.207012 0.000011 0.000000 -0.000001 -0.005667 0.362993
    24 2.035156 0.997070 -1.937500 -1.661572 1.286515 2.950150
    25 6.028144 -0.000011 0.000002 1.850939 0.458839 -0.523762
    26 12.301971 -1.003936 0.937532 0.313707 -0.138834 -1.287623
    27 11.481657 0.000043 0.000019 -1.902443 0.455773 -0.234009
    28 3.858240 -0.131699 1.199994 0.390527 -0.101410 -0.916423
    29 1.312567 0.000000 0.000000 0.094358 -0.148302 -1.023380
    30 0.729362 0.000004 0.000003 0.246466 -0.201514 -1.343121
    31 3.941981 0.050872 0.435162 0.108940 0.058963 -0.470260
    32 1.539089 0.000008 0.000003 0.081999 -0.072597 -1.490925
    33 1.196316 0.000004 0.000005 0.030667 -0.074741 -1.027947
    34 3.880859 -0.047028 -0.427490 -0.079035 0.162996 -0.514648
    35 1.719567 0.000023 0.000016 -0.048600 0.058563 -1.498659
    36 1.209175 0.000008 0.000005 -0.038127 -0.010975 -1.196747
    37 3.867399 -0.148186 -1.324350 -0.424017 0.413272 -0.567318
    38 1.719419 -0.000008 -0.000008 -0.103004 0.275398 -0.995724
    39 1.099667 -0.000004 -0.000001 -0.048647 0.108807 -0.506629
    40 0.807129 -0.358643 -1.316406 1.391888 0.446144 -0.556730
    41 1.789783 -0.000002 -0.000002 0.030307 -0.047272 0.412865
    42 1.207001 0.000009 0.000000 -0.006740 -0.074456 -0.170110
    43 5.073761 -4.063510 -2.918343 3.826595 -0.063820 -1.771607
    44 0.000000 0.196712 0.000000 1.570797 0.000000 0.000001
    45 0.000002 2.032589 0.000000 0.060942 0.000000 0.000000
    46 0.000002 1.571991 0.000000 0.060498 0.000000 0.000000
    47 3.775905 -5.485672 -0.527956 -2.248292 -0.133225 -1.641886
  time 11
    0 -0.000003 -13.531250 -29.421875 1.570792 0.000003 -0.000003
    1 0.000000 3.345131 -2.981898 1.570796 0.083192 1.570795
    2 4.015625 0.000001 0.000000 0.000000 -0.000001 -0.028819
    3 3.520294 0.000005 -0.000006 0.000000 0.000000 0.097311
    4 8.929688 -0.000001 0.000000 0.000000 0.000001 0.186405
    5 2.035156 0.997070 1.937500 1.589735 -1.286517 2.950158
    6 6.028159 -0.000069 0.000009 -1.575890 0.049155 -1.169438
    7 11.692566 0.000046 0.000011 -0.000002 0.000000 -0.060376
    8 11.481682 0.000088 -0.000031 1.568292 -0.038710 0.036026
    9 3.857422 -0.139526 -1.191406 -0.363882 0.112047 -0.355498
    10 1.312565 -0.000008 0.000000 -0.000002 0.054404 -0.409012
    11 0.729366 0.000002 -0.000002 -0.000001 0.040754 -0.240990
    12 3.941406 0.046936 -0.435059 -0.101499 0.042182 -0.269683
    13 1.539091 0.000008 -0.000002 0.000000 0.003737 -0.247812
    14 1.196321 0.000000 -0.000002 -0.000001 0.006168 -0.430818
    15 3.880859 -0.043091 0.427490 0.090105 -0.011419 -0.132542
    16 1.719578 0.000023 -0.000021 -0.000005 -0.020423 -0.365964
    17 1.209181 -0.000004 -0.000001 0.000001 -0.011427 -0.216116
    18 3.863281 -0.136475 1.332031 0.320642 -0.041405 -0.125801
    19 1.719431 -0.000023 0.000019 0.000001 -0.106227 -0.347813
    20 1.099676 0.000000 0.000006 0.000004 -0.067955 -0.234890
    21 0.807129 -0.346924 1.320313 -1.243196 -0.551768 -0.740654
    22 1.789787 0.000006 0.000006 -0.000002 -0.003712 0.228604
    23 1.207012 0.000011 0.000000 -0.000001 -0.005667 0.362993
    24 2.035156 0.997070 -1.937500 -1.661572 1.286515 2.950150
    25 6.028144 -0.000011 0.000002 1.875028 0.481866 -0.513659
    26 12.301971 -1.003936 0.937532 0.419938 -0.097436 -1.380954
    27 11.481657 0.000043 0.000019 -1.869194 0.450259 -0.255557
    28 3.854334 -0.131699 1.199994 0.390527 -0.101410 -0.916423
    29 1.312567 0.000000 0.000000 0.094358 -0.148302 -1.023361
    30 0.729362 0.000004 0.000003 0.246466 -0.201514 -1.343121
    31 3.941981 0.050872 0.435162 0.108940 0.058963 -0.470260
    32 1.539089 0.000008 0.000003 0.081999 -0.072597 -1.490925
    33 1.196316 0.000004 0.000005 0.030667 -0.074741 -1.027947
    34 3.880859 -0.047028 -0.427490 -0.079035 0.162996 -0.514648
    35 1.719567 0.000023 0.000016 -0.048600 0.058551 -1.498693
    36 1.209175 0.000008 0.000005 -0.038127 -0.010975 -1.196747
    37 3.863493 -0.148186 -1.324350 -0.424029 0.413272 -0.567318
    38 1.719419 -0.000008 -0.000008 -0.103004 0.275398 -0.995724
    39 1.099667 -0.000004 -0.000001 -0.048647 0.108807 -0.506629
    40 0.807129 -0.358643 -1.316406 1.391888 0.446144 -0.556730
    41 1.789783 -0.000002 -0.000002 0.030307 -0.047272 0.412865
    42 1.207001 0.000009 0.000000 -0.006740 -0.074456 -0.170110
    43 5.073761 -4.063510 -2.918343 3.826595 -0.063832 -1.771607
    44 0.000000 0.196712 0.000000 1.570797 0.000000 0.000001
    45 0.000002 2.032589 0.000000 0.045745 0.000000 0.000000
    46 0.000002 1.571991 0.000000 0.045422 0.000000 0.000000
    47 3.775905 -5.485672 -0.527956 -2.248292 -0.133225 -1.641886
  time 12
    0 -0.000003 -13.531250 -29.421875 1.570792 0.000003 -0.000003
    1 0.000000 3.345131 -2.981898 1.570796 0.083192 1.570795
    2 4.015625 0.000001 0.000000 0.000000 -0.000001 -0.028819
    3 3.520294 0.000005 -0.000006 0.000000 0.000000 0.097311
    4 8.929688 -0.000001 0.000000 0.000000 0.000001 0.186405
    5 2.035156 0.997070 1.937500 1.589735 -1.286517 2.950158
    6 6.028159 -0.000069 0.000009 -1.575890 0.049155 -1.169438
    7 11.692566 0.000046 0.000011 -0.000002 0.000000 -0.060376
    8 11.481682 0.000088 -0.000031 1.568292 -0.038710 0.036026
    9 3.857422 -0.139526 -1.191406 -0.363882 0.112047 -0.355498
    10 1.312565 -0.000008 0.000000 -0.000002 0.054404 -0.409012
    11 0.729366 0.000002 -0.000002 -0.000001 0.040754 -0.240990
    12 3.941406 0.046936 -0.435059 -0.101499 0.042182 -0.269683
    13 1.539091 0.000008 -0.000002 0.000000 0.003737 -0.247812
    14 1.196321 0.000000 -0.000002 -0.000001 0.006168 -0.430818
    15 3.880859 -0.043091 0.427490 0.090105 -0.011419 -0.132542
    16 1.719578 0.000023 -0.000021 -0.000005 -0.020423 -0.365964
    17 1.209181 -0.000004 -0.000001 0.000001 -0.011427 -0.216116
    18 3.863281 -0.136475 1.332031 0.320642 -0.041405 -0.125801
    19 1.719431 -0.000023 0.000019 0.000001 -0.106227 -0.347813
    20 1.099676 0.000000 0.000006 0.000004 -0.067955 -0.234890
    21 0.807129 -0.346924 1.320313 -1.243196 -0.551768 -0.740654
    22 1.789787 0.000006 0.000006 -0.000002 -0.003712 0.228604
    23 1.207012 0.000011 0.000000 -0.000001 -0.005667 0.362993
    24 2.035156 0.997070 -1.937500 -1.661572 1.286515 2.950150
    25 6.028144 -0.000011 0.000002 1.894778 0.500372 -0.505342
    26 12.301971 -1.003936 0.937532 0.540440 -0.059294 -1.467870
    27 11.481657 0.000043 0.000019 -1.842275 0.445700 -0.272803
    28 3.854334 -0.131699 1.199994 0.390527 -0.101410 -0.916423
    29 1.312567 0.000000 0.000000 0.094358 -0.148302 -1.023361
    30 0.729362 0.000004 0.000003 0.246478 -0.201514 -1.343121
    31 3.941981 0.050872 0.435162 0.108940 0.058963 -0.470260
    32 1.539089 0.000008 0.000003 0.081999 -0.072597 -1.490887
    33 1.196316 0.000004 0.000005 0.030667 -0.074741 -1.027947
    34 3.880859 -0.047028 -0.427490 -0.079035 0.162996 -0.514648
    35 1.719567 0.000023 0.000016 -0.048600 0.058563 -1.498659
    36 1.209175 0.000008 0.000005 -0.038127 -0.010975 -1.196747
    37 3.867399 -0.148186 -1.324350 -0.424029 0.413272 -0.567318
    38 1.719419 -0.000008 -0.000008 -0.103004 0.275398 -0.995724
    39 1.099667 -0.000004 -0.000001 -0.048647 0.108807 -0.506629
    40 0.807129 -0.358643 -1.316406 1.391888 0.446144 -0.556730
    41 1.789783 -0.000002 -0.000002 0.030307 -0.047272 0.412865
    42 1.207001 0.000009 0.000000 -0.006740 -0.074456 -0.170110
    43 5.073761 -4.063510 -2.918343 3.826595 -0.063820 -1.771607
    44 0.000000 0.196712 0.000000 1.570797 0.000000 0.000001
    45 0.000002 2.032589 0.000000 0.028523 0.000000 0.000000
    46 0.000002 1.571991 0.000000 0.028320 0.000000 0.000000
    47 3.775905 -5.485672 -0.527956 -2.248292 -0.133225 -1.641886
  time 13
    0 -0.000003 -13.531250 -29.421875 1.570792 0.000003 -0.000003
    1 0.000000 3.345131 -2.981898 1.570796 0.083192 1.570795
    2 4.015625 0.000001 0.000000 0.000000 -0.000001 -0.028819
    3 3.520294 0.000005 -0.000006 0.000000 0.000000 0.097311
    4 8.929688 -0.000001 0.000000 0.000000 0.000001 0.186405
    5 2.035156 0.997070 1.937500 1.589735 -1.286517 2.950158
    6 6.028159 -0.000069 0.000009 -1.575890 0.049155 -1.169438
    7 11.692566 0.000046 0.000011 -0.000002 0.000000 -0.060376
    8 11.481682 0.000088 -0.000031 1.568292 -0.038710 0.036026
    9 3.857422 -0.139526 -1.191406 -0.363882 0.112047 -0.355498
    10 1.312565 -0.000008 0.000000 -0.000002 0.054404 -0.409012
    11 0.729366 0.000002 -0.000002 -0.000001 0.040754 -0.240990
    12 3.941406 0.046936 -0.435059 -0.101499 0.042182 -0.269683
    13 1.539091 0.000008 -0.000002 0.000000 0.003737 -0.247812
    14 1.196321 0.000000 -0.000002 -0.000001 0.006168 -0.430818
    15 3.880859 -0.043091 0.427490 0.090105 -0.011419 -0.132542
    16 1.719578 0.000023 -0.000021 -0.000005 -0.020423 -0.365964
    17 1.209181 -0.000004 -0.000001 0.000001 -0.011427 -0.216116
    18 3.863281 -0.136475 1.332031 0.320642 -0.041405 -0.125801
    19 1.719431 -0.000023 0.000019 0.000001 -0.106227 -0.347813
    20 1.099676 0.000000 0.000006 0.000004 -0.067955 -0.234890
    21 0.807129 -0.346924 1.320313 -1.243196 -0.551768 -0.740654
    22 1.789787 0.000006 0.000006 -0.000002 -0.003712 0.228604
    23 1.207012 0.000011 0.000000 -0.000001 -0.005667 0.362993
    24 2.035156 0.997070 -1.937500 -1.661572 1.286515 2.950150
    25 6.028144 -0.000011 0.000002 1.909316 0.513790 -0.499182
    26 12.301971 -1.003936 0.937532 0.646671 -0.029755 -1.535703
    27 11.481657 0.000043 0.000019 -1.822675 0.442333 -0.285279
    28 3.854334 -0.131699 1.199994 0.390527 -0.101410 -0.916423
    29 1.312567 0.000000 0.000000 0.094358 -0.148302 -1.023361
    30 0.729362 0.000004 0.000003 0.246478 -0.201514 -1.343121
    31 3.941981 0.050872 0.435162 0.108940 0.058963 -0.470260
    32 1.539089 0.000008 0.000003 0.081999 -0.072597 -1.490887
    33 1.196316 0.000004 0.000005 0.030667 -0.074741 -1.027947
    34 3.880859 -0.047028 -0.427490 -0.079035 0.162996 -0.514648
    35 1.719567 0.000023 0.000016 -0.048600 0.058563 -1.498659
    36 1.209175 0.000008 0.000005 -0.038127 -0.010975 -1.196747
    37 3.867399 -0.148186 -1.324350 -0.424029 0.413272 -0.567318
    38 1.719419 -0.000008 -0.000008 -0.103004 0.275398 -0.995724
    39 1.099667 -0.000004 -0.000001 -0.048647 0.108807 -0.506629
    40 0.807129 -0.358643 -1.316406 1.391888 0.446144 -0.556730
    41 1.789783 -0.000002 -0.000002 0.030307 -0.047272 0.412865
    42 1.207001 0.000009 0.000000 -0.006740 -0.074456 -0.170110
    43 5.073761 -4.063510 -2.918343 3.826595 -0.063832 -1.771607
    44 0.000000 0.196712 0.000000 1.570797 0.000000 0.000001
    45 0.000002 2.032589 0.000000 0.013327 0.000000 0.000000
    46 0.000002 1.571991 0.000000 0.013231 0.000000 0.000000
    47 3.775905 -5.485672 -0.527956 -2.248292 -0.133225 -1.641886
  time 14
    0 -0.000003 -13.531250 -29.421875 1.570792 0.000003 -0.000003
    1 0.000000 3.345131 -2.981898 1.570796 0.083192 1.570795
    2 4.015625 0.000001 0.000000 0.000000 -0.000001 -0.028819
    3 3.520294 0.000005 -0.000006 0.000000 0.000000 0.097311
    4 8.929688 -0.000001 0.000000 0.000000 0.000001 0.186405
    5 2.035156 0.997070 1.937500 1.589735 -1.286517 2.950158
    6 6.028159 -0.000069 0.000009 -1.575890 0.049155 -1.169438
    7 11.692566 0.000046 0.000011 -0.000002 0.000000 -0.060376
    8 11.481682 0.000088 -0.000031 1.568292 -0.038710 0.036026
    9 3.857422 -0.139526 -1.191406 -0.363882 0.112047 -0.355498
    10 1.312565 -0.000008 0.000000 -0.000002 0.054404 -0.409012
    11 0.729366 0.000002 -0.000002 -0.000001 0.040754 -0.240990
    12 3.941406 0.046936 -0.435059 -0.101499 0.042182 -0.269683
    13 1.539091 0.000008 -0.000002 0.000000 0.003737 -0.247812
    14 1.196321 0.000000 -0.000002 -0.000001 0.006168 -0.430818
    15 3.880859 -0.043091 0.427490 0.090105 -0.011419 -0.132542
    16 1.719578 0.000023 -0.000021 -0.000005 -0.020423 -0.365964
    17 1.209181 -0.000004 -0.000001 0.000001 -0.011427 -0.216116
    18 3.863281 -0.136475 1.332031 0.320642 -0.041405 -0.125801
    19 1.719431 -0.000023 0.000019 0.000001 -0.106227 -0.347813
    20 1.099676 0.000000 0.000006 0.000004 -0.067955 -0.234890
    21 0.807129 -0.346924 1.320313 -1.243196 -0.551768 -0.740654
    22 1.789787 0.000006 0.000006 -0.000002 -0.003712 0.228604
    23 1.207012 0.000011 0.000000 -0.000001 -0.005667 0.362993
    24 2.035156 0.997070 -1.937500 -1.661572 1.286515 2.950150
    25 6.028144 -0.000011 0.000002 1.918136 0.521827 -0.495442
    26 12.301971 -1.003936 0.937532 0.716407 -0.011960 -1.576809
    27 11.481657 0.000043 0.000019 -1.810850 0.440289 -0.292757
    28 3.854334 -0.131699 1.199994 0.390527 -0.101410 -0.916423
    29 1.312567 0.000000 0.000000 0.094358 -0.148302 -1.023361
    30 0.729362 0.000004 0.000003 0.246478 -0.201514 -1.343121
    31 3.941981 0.050872 0.435162 0.108940 0.058963 -0.470260
    32 1.539089 0.000008 0.000003 0.081999 -0.072597 -1.490925
    33 1.196316 0.000004 0.000005 0.030667 -0.074741 -1.027947
    34 3.880859 -0.047028 -0.427490 -0.079035 0.162996 -0.514648
    35 1.719567 0.000023 0.000016 -0.048600 0.058551 -1.498693
    36 1.209175 0.000008 0.000005 -0.038127 -0.010975 -1.196747
    37 3.867399 -0.148186 -1.324350 -0.424029 0.413272 -0.567318
    38 1.719419 -0.000008 -0.000008 -0.103004 0.275398 -0.995724
    39 1.099667 -0.000004 -0.000001 -0.048647 0.108807 -0.506629
    40 0.807129 -0.358643 -1.316406 1.391888 0.446144 -0.556730
    41 1.789783 -0.000002 -0.000002 0.030307 -0.047272 0.412865
    42 1.207001 0.000009 0.000000 -0.006740 -0.074456 -0.170110
    43 5.073761 -4.063510 -2.918343 3.826595 -0.063832 -1.771607
    44 0.000000 0.196712 0.000000 1.570797 0.000000 0.000001
    45 0.000002 2.032589 0.000000 0.003368 0.000000 0.000000
    46 0.000002 1.571991 0.000000 0.003344 0.000000 0.000000
    47 3.775905 -5.485672 -0.527956 -2.248292 -0.133225 -1.641886
  time 15
    0 -0.000003 -13.531250 -29.421875 1.570792 0.000003 -0.000003
    1 0.000000 3.345131 -2.981898 1.570796 0.083192 1.570795
    2 4.015625 0.000001 0.000000 0.000000 -0.000001 -0.028819
    3 3.520294 0.000005 -0.000006 0.000000 0.000000 0.097311
    4 8.929688 -0.000001 0.000000 0.000000 0.000001 0.186405
    5 2.035156 0.997070 1.937500 1.589735 -1.286517 2.950158
    6 6.028159 -0.000069 0.000009 -1.575890 0.049155 -1.169438
    7 11.692566 0.000046 0.000011 -0.000002 0.000000 -0.060376
    8 11.481682 0.000088 -0.000031 1.568292 -0.038710 0.036026
    9 3.857422 -0.139526 -1.191406 -0.363882 0.112047 -0.355498
    10 1.312565 -0.000008 0.000000 -0.000002 0.054404 -0.409012
    11 0.729366 0.000002 -0.000002 -0.000001 0.040754 -0.240990
    12 3.941406 0.046936 -0.435059 -0.101499 0.042182 -0.269683
    13 1.539091 0.000008 -0.000002 0.000000 0.003737 -0.247812
    14 1.196321 0.000000 -0.000002 -0.000001 0.006168 -0.430818
    15 3.880859 -0.043091 0.427490 0.090105 -0.011419 -0.132542
    16 1.719578 0.000023 -0.000021 -0.000005 -0.020423 -0.365964
    17 1.209181 -0.000004 -0.000001 0.000001 -0.011427 -0.216116
    18 3.863281 -0.136475 1.332031 0.320642 -0.041405 -0.125801
    19 1.719431 -0.000023 0.000019 0.000001 -0.106227 -0.347813
    20 1.099676 0.000000 0.000006 0.000004 -0.067955 -0.234890
    21 0.807129 -0.346924 1.320313 -1.243196 -0.551768 -0.740654
    22 1.789787 0.000006 0.000006 -0.000002 -0.003712 0.228604
    23 1.207012 0.000011 0.000000 -0.000001 -0.005667 0.362993
    24 2.035156 0.997070 -1.937500 -1.661572 1.286515 2.950150
    25 6.028144 -0.000011 0.000002 1.921073 0.524481 -0.494184
    26 12.301971 -1.003936 0.937532 0.739984 -0.006268 -1.589958
    27 11.481657 0.000043 0.000019 -1.806934 0.439613 -0.295226
    28 3.858240 -0.131699 1.199994 0.390527 -0.101410 -0.916423
    29 1.312567 0.000000 0.000000 0.094358 -0.148302 -1.023361
    30 0.729362 0.000004 0.000003 0.246478 -0.201514 -1.343121
    31 3.941981 0.050872 0.435162 0.108940 0.058963 -0.470260
    32 1.539089 0.000008 0.000003 0.081999 -0.072597 -1.490925
    33 1.196316 0.000004 0.000005 0.030667 -0.074741 -1.027947
    34 3.880859 -0.047028 -0.427490 -0.079035 0.162996 -0.514648
    35 1.719567 0.000023 0.000016 -0.048600 0.058551 -1.498659
    36 1.209175 0.000008 0.000005 -0.038127 -0.010975 -1.196747
    37 3.867399 -0.148186 -1.324350 -0.424029 0.413272 -0.567318
    38 1.719419 -0.000008 -0.000008 -0.103004 0.275398 -0.995724
    39 1.099667 -0.000004 -0.000001 -0.048647 0.108807 -0.506629
    40 0.807129 -0.358643 -1.316406 1.391888 0.446144 -0.556730
    41 1.789783 -0.000002 -0.000002 0.030307 -0.047272 0.412865
    42 1.207001 0.000009 0.000000 -0.006740 -0.074456 -0.170110
    43 5.073761 -4.063510 -2.918343 3.826595 -0.063832 -1.771607
    44 0.000000 0.196712 0.000000 1.570797 0.000000 0.000001
    45 0.000002 2.032589 0.000000 0.000000 0.000000 0.000000
    46 0.000002 1.571991 0.000000 0.000000 0.000000 0.000000
    47 3.775905 -5.485672 -0.527956 -2.248292 -0.133225 -1.641886
end
