// Created by Crowbar 0.74
version 1
nodes
  0 "root" -1
  1 "spine" 0
  2 "bip_collar_L" 1
  3 "bip_upperArm_L" 2
  4 "bip_lowerArm_L" 3
  5 "bip_hand_L" 4
  6 "bip_thumb_0_L" 5
  7 "bip_thumb_1_L" 6
  8 "bip_thumb_2_L" 7
  9 "bip_index_meta_0_L" 5
  10 "bip_index_0_L" 9
  11 "bip_index_1_L" 10
  12 "bip_index_2_L" 11
  13 "bip_middle_meta_0_L" 5
  14 "bip_middle_0_L" 13
  15 "bip_middle_1_L" 14
  16 "bip_middle_2_L" 15
  17 "bip_ring_meta_0_L" 5
  18 "bip_ring_0_L" 17
  19 "bip_ring_1_L" 18
  20 "bip_ring_2_L" 19
  21 "bip_pinky_meta_0_L" 5
  22 "bip_pinky_0_L" 21
  23 "bip_pinky_1_L" 22
  24 "bip_pinky_2_L" 23
  25 "bip_helper_L" 4
  26 "bip_collar_R" 1
  27 "bip_upperArm_R" 26
  28 "bip_lowerArm_R" 27
  29 "bip_hand_R" 28
  30 "bip_thumb_0_R" 29
  31 "bip_thumb_1_R" 30
  32 "bip_thumb_2_R" 31
  33 "bip_index_meta_0_R" 29
  34 "bip_index_0_R" 33
  35 "bip_index_1_R" 34
  36 "bip_index_2_R" 35
  37 "bip_middle_meta_0_R" 29
  38 "bip_middle_0_R" 37
  39 "bip_middle_1_R" 38
  40 "bip_middle_2_R" 39
  41 "bip_ring_meta_0_R" 29
  42 "bip_ring_0_R" 41
  43 "bip_ring_1_R" 42
  44 "bip_ring_2_R" 43
  45 "bip_pinky_meta_0_R" 29
  46 "bip_pinky_0_R" 45
  47 "bip_pinky_1_R" 46
  48 "bip_pinky_2_R" 47
  49 "bip_helper_R" 28
  50 "weapon_bone_L" 0
end
skeleton
  time 0
    0 -3.043062 -8.093997 -72.107669 1.570796 0.000000 0.000000
    1 0.000000 65.928001 -3.788860 0.000000 0.000000 0.000000
    2 2.328150 0.000000 0.000000 0.000000 0.000000 0.000000
    3 8.600150 -0.022797 -0.051090 -0.118690 0.048663 -2.754282
    4 0.000000 10.075568 -0.000001 0.494195 -0.191051 -0.051355
    5 0.000002 17.373682 0.000000 -0.398738 0.000000 -0.387177
    6 0.679043 0.802172 1.783102 0.791590 0.071443 2.826561
    7 0.000000 -0.000002 2.508970 0.072756 -0.055066 0.003400
    8 0.000000 0.000001 1.809536 -0.111299 0.000383 -0.005249
    9 0.219777 1.615330 1.611036 -0.507118 1.408360 1.183619
    10 0.000000 -0.000002 3.981597 0.133173 0.103205 0.057575
    11 0.000000 0.000000 2.375985 0.224937 -0.017328 -0.006860
    12 0.000001 -0.000001 1.603097 0.127704 0.070387 0.010803
    13 -0.091869 1.886059 0.634829 2.654201 1.561694 -1.957970
    14 0.000000 0.000000 3.698122 0.152287 0.016828 0.008921
    15 0.000000 0.000001 2.366730 0.175839 -0.002247 -0.000783
    16 0.000001 -0.000001 2.035123 -0.089638 -0.006525 -0.001049
    17 -0.156257 1.870642 -0.501948 2.771319 1.427761 -1.957975
    18 0.000000 0.000001 3.281008 0.086127 -0.023234 -0.009021
    19 0.000000 0.000001 2.688646 0.064973 -0.027356 -0.007994
    20 0.000001 0.000000 1.713443 0.047790 -0.006322 -0.001410
    21 0.146424 1.721204 -1.673858 2.857094 1.366213 -1.957974
    22 -0.000001 0.000000 3.209387 0.040434 0.078585 0.023030
    23 0.000000 0.000001 1.943288 0.247981 -0.029962 -0.007493
    24 0.000000 -0.000001 1.241907 -0.036137 0.049495 -0.000144
    25 0.000000 10.746529 0.000000 0.000000 0.000000 0.000000
    26 -2.328150 0.000000 0.000000 3.141593 0.000000 0.000000
    27 -8.600150 0.022796 0.051090 3.527956 0.461256 -3.289447
    28 0.000021 10.075568 0.000001 1.155444 0.157279 0.114152
    29 0.000001 17.373682 0.000001 -1.849756 -1.163810 1.862561
    30 -0.679044 0.802172 1.783101 1.088990 -0.652079 -2.442862
    31 0.000001 -0.000001 2.508970 0.072756 0.055066 -0.003400
    32 0.000000 -0.000002 1.809535 0.179447 -0.031042 -0.272878
    33 -0.219778 1.615330 1.611036 -0.507118 -1.408360 -1.183618
    34 -0.000001 -0.000002 3.981597 0.151191 -0.161620 -0.065498
    35 0.000001 0.000000 2.375986 0.234800 0.017327 0.006859
    36 0.000000 0.000000 1.603096 0.491378 -0.070386 -0.010803
    37 0.091868 1.886060 0.634828 0.225459 -1.479420 4.565582
    38 0.000000 0.000000 3.698122 0.748955 0.000067 -0.105910
    39 -0.000001 0.000001 2.366730 1.076290 -0.170774 0.211724
    40 0.000001 0.000001 2.035123 0.812749 0.006524 0.001049
    41 0.156257 1.870642 -0.501948 0.843336 -1.484879 4.089479
    42 -0.000001 -0.000001 3.281011 1.257854 0.086285 0.083553
    43 -0.000001 0.000000 2.688646 1.593630 0.027354 0.007994
    44 -0.000001 0.000000 1.713443 0.702341 0.006321 0.001410
    45 -0.146424 1.721204 -1.673859 0.805608 -1.397840 4.487546
    46 0.000000 0.000001 3.209387 1.326255 -0.108319 0.040200
    47 0.000000 0.000000 1.943288 1.790948 0.029962 0.007493
    48 0.000000 0.000000 1.241909 0.398957 -0.049494 0.000143
    49 0.000002 10.746529 0.000001 0.000000 0.000000 0.000000
    50 3.617298 49.113068 18.645876 0.837737 0.308951 -1.446247
  time 1
    0 -2.836024 -7.429914 -72.107669 1.570796 0.000000 0.000000
    1 0.000000 65.928001 -3.788860 0.000000 0.000000 0.000000
    2 2.328150 0.000000 0.000000 0.000000 0.000000 0.000000
    3 8.600150 -0.022797 -0.051090 -0.118690 0.048663 -2.754282
    4 0.000000 10.075568 -0.000001 0.494195 -0.191051 -0.051355
    5 0.000002 17.373682 0.000000 -0.398738 0.000000 -0.387177
    6 0.679043 0.802172 1.783102 0.791590 0.071443 2.826561
    7 0.000000 -0.000002 2.508970 0.072756 -0.055066 0.003400
    8 0.000000 0.000001 1.809536 -0.111299 0.000383 -0.005249
    9 0.219777 1.615330 1.611036 -0.507118 1.408360 1.183619
    10 0.000000 -0.000002 3.981597 0.133173 0.103205 0.057575
    11 0.000000 0.000000 2.375985 0.224937 -0.017328 -0.006860
    12 0.000001 -0.000001 1.603097 0.127704 0.070387 0.010803
    13 -0.091869 1.886059 0.634829 2.654201 1.561694 -1.957970
    14 0.000000 0.000000 3.698122 0.152287 0.016828 0.008921
    15 0.000000 0.000001 2.366730 0.175839 -0.002247 -0.000783
    16 0.000001 -0.000001 2.035123 -0.089638 -0.006525 -0.001049
    17 -0.156257 1.870642 -0.501948 2.771319 1.427761 -1.957975
    18 0.000000 0.000001 3.281008 0.086127 -0.023234 -0.009021
    19 0.000000 0.000001 2.688646 0.064973 -0.027356 -0.007994
    20 0.000001 0.000000 1.713443 0.047790 -0.006322 -0.001410
    21 0.146424 1.721204 -1.673858 2.857094 1.366213 -1.957974
    22 -0.000001 0.000000 3.209387 0.040434 0.078585 0.023030
    23 0.000000 0.000001 1.943288 0.247981 -0.029962 -0.007493
    24 0.000000 -0.000001 1.241907 -0.036137 0.049495 -0.000144
    25 0.000000 10.746529 0.000000 0.000000 0.000000 0.000000
    26 -2.328150 0.000000 0.000000 3.141593 0.000000 0.000000
    27 -8.600150 0.022796 0.051090 3.455015 0.456484 -3.195111
    28 0.000021 10.075568 0.000001 1.305060 0.149536 0.128294
    29 0.000001 17.373682 0.000001 -1.365301 -1.131275 1.268993
    30 -0.679044 0.802172 1.783101 1.098493 -0.645735 -2.452090
    31 0.000001 -0.000001 2.508970 0.076747 0.055066 -0.003400
    32 0.000000 -0.000002 1.809535 0.179447 -0.031042 -0.272878
    33 -0.219778 1.615330 1.611036 -0.507118 -1.408360 -1.183618
    34 -0.000001 -0.000002 3.981597 0.151191 -0.161620 -0.065498
    35 0.000001 0.000000 2.375986 0.234800 0.017327 0.006859
    36 0.000000 0.000000 1.603096 0.491378 -0.070386 -0.010803
    37 0.091868 1.886060 0.634828 0.225459 -1.479420 4.565582
    38 0.000000 0.000000 3.698122 0.748955 0.000067 -0.105910
    39 -0.000001 0.000001 2.366730 1.076290 -0.170774 0.211724
    40 0.000001 0.000001 2.035123 0.812749 0.006524 0.001049
    41 0.156257 1.870642 -0.501948 0.843336 -1.484879 4.089479
    42 -0.000001 -0.000001 3.281011 1.257819 0.086285 0.083553
    43 -0.000001 0.000000 2.688646 1.593630 0.027354 0.007994
    44 -0.000001 0.000000 1.713443 0.702341 0.006321 0.001410
    45 -0.146424 1.721204 -1.673859 0.805608 -1.397840 4.487546
    46 0.000000 0.000001 3.209387 1.326215 -0.108319 0.040200
    47 0.000000 0.000000 1.943288 1.790995 0.029962 0.007493
    48 0.000000 0.000000 1.241909 0.398957 -0.049494 0.000143
    49 0.000002 10.746529 0.000001 0.000000 0.000000 0.000000
    50 2.390698 49.628708 18.470090 1.012834 0.343514 -1.290094
  time 2
    0 -2.269601 -5.863460 -72.107669 1.570796 0.000000 0.000000
    1 0.000000 65.928001 -3.788860 0.000000 0.000000 0.000000
    2 2.328150 0.000000 0.000000 0.000000 0.000000 0.000000
    3 8.600150 -0.022797 -0.051090 -0.118690 0.048663 -2.754282
    4 0.000000 10.075568 -0.000001 0.494195 -0.191051 -0.051355
    5 0.000002 17.373682 0.000000 -0.398738 0.000000 -0.387177
    6 0.679043 0.802172 1.783102 0.791590 0.071443 2.826561
    7 0.000000 -0.000002 2.508970 0.072756 -0.055066 0.003400
    8 0.000000 0.000001 1.809536 -0.111299 0.000383 -0.005249
    9 0.219777 1.615330 1.611036 -0.507118 1.408360 1.183619
    10 0.000000 -0.000002 3.981597 0.133173 0.103205 0.057575
    11 0.000000 0.000000 2.375985 0.224937 -0.017328 -0.006860
    12 0.000001 -0.000001 1.603097 0.127704 0.070387 0.010803
    13 -0.091869 1.886059 0.634829 2.654201 1.561694 -1.957970
    14 0.000000 0.000000 3.698122 0.152287 0.016828 0.008921
    15 0.000000 0.000001 2.366730 0.175839 -0.002247 -0.000783
    16 0.000001 -0.000001 2.035123 -0.089638 -0.006525 -0.001049
    17 -0.156257 1.870642 -0.501948 2.771319 1.427761 -1.957975
    18 0.000000 0.000001 3.281008 0.086127 -0.023234 -0.009021
    19 0.000000 0.000001 2.688646 0.064973 -0.027356 -0.007994
    20 0.000001 0.000000 1.713443 0.047790 -0.006322 -0.001410
    21 0.146424 1.721204 -1.673858 2.857094 1.366213 -1.957974
    22 -0.000001 0.000000 3.209387 0.040434 0.078585 0.023030
    23 0.000000 0.000001 1.943288 0.247981 -0.029962 -0.007493
    24 0.000000 -0.000001 1.241907 -0.036137 0.049495 -0.000144
    25 0.000000 10.746529 0.000000 0.000000 0.000000 0.000000
    26 -2.328150 0.000000 0.000000 3.141593 0.000000 0.000000
    27 -8.600150 0.022796 0.051090 3.479207 0.413293 -2.931680
    28 0.000021 10.075568 0.000001 1.396515 0.144791 0.136923
    29 0.000001 17.373682 0.000001 -0.543501 -0.887588 0.543887
    30 -0.679044 0.802172 1.783101 1.123919 -0.628334 -2.476875
    31 0.000001 -0.000001 2.508970 0.087653 0.055066 -0.003400
    32 0.000000 -0.000002 1.809535 0.179447 -0.031042 -0.272878
    33 -0.219778 1.615330 1.611036 -0.507118 -1.408360 -1.183618
    34 -0.000001 -0.000002 3.981597 0.151191 -0.161620 -0.065498
    35 0.000001 0.000000 2.375986 0.234800 0.017327 0.006859
    36 0.000000 0.000000 1.603096 0.491378 -0.070386 -0.010803
    37 0.091868 1.886060 0.634828 0.225459 -1.479420 4.565582
    38 0.000000 0.000000 3.698122 0.748955 0.000067 -0.105910
    39 -0.000001 0.000001 2.366730 1.076290 -0.170774 0.211724
    40 0.000001 0.000001 2.035123 0.812749 0.006524 0.001049
    41 0.156257 1.870642 -0.501948 0.843336 -1.484879 4.089479
    42 -0.000001 -0.000001 3.281011 1.257854 0.086285 0.083553
    43 -0.000001 0.000000 2.688646 1.593630 0.027354 0.007994
    44 -0.000001 0.000000 1.713443 0.702341 0.006321 0.001410
    45 -0.146424 1.721204 -1.673859 0.805608 -1.397840 4.487546
    46 0.000000 0.000001 3.209387 1.326215 -0.108319 0.040200
    47 0.000000 0.000000 1.943288 1.790948 0.029962 0.007493
    48 0.000000 0.000000 1.241909 0.398957 -0.049494 0.000143
    49 0.000002 10.746529 0.000001 0.000000 0.000000 0.000000
    50 1.011750 51.913934 19.313865 1.031726 0.298656 -1.021704
  time 3
    0 -1.445357 -4.050905 -72.107669 1.570796 0.000000 0.000000
    1 0.000000 65.928001 -3.788860 0.000000 0.000000 0.000000
    2 2.328150 0.000000 0.000000 0.000000 0.000000 0.000000
    3 8.600150 -0.022797 -0.051090 -0.118690 0.048663 -2.754282
    4 0.000000 10.075568 -0.000001 0.494195 -0.191051 -0.051355
    5 0.000002 17.373682 0.000000 -0.398738 0.000000 -0.387177
    6 0.679043 0.802172 1.783102 0.791590 0.071443 2.826561
    7 0.000000 -0.000002 2.508970 0.072756 -0.055066 0.003400
    8 0.000000 0.000001 1.809536 -0.111299 0.000383 -0.005249
    9 0.219777 1.615330 1.611036 -0.507118 1.408360 1.183619
    10 0.000000 -0.000002 3.981597 0.133173 0.103205 0.057575
    11 0.000000 0.000000 2.375985 0.224937 -0.017328 -0.006860
    12 0.000001 -0.000001 1.603097 0.127704 0.070387 0.010803
    13 -0.091869 1.886059 0.634829 2.654201 1.561694 -1.957970
    14 0.000000 0.000000 3.698122 0.152287 0.016828 0.008921
    15 0.000000 0.000001 2.366730 0.175839 -0.002247 -0.000783
    16 0.000001 -0.000001 2.035123 -0.089638 -0.006525 -0.001049
    17 -0.156257 1.870642 -0.501948 2.771319 1.427761 -1.957975
    18 0.000000 0.000001 3.281008 0.086127 -0.023234 -0.009021
    19 0.000000 0.000001 2.688646 0.064973 -0.027356 -0.007994
    20 0.000001 0.000000 1.713443 0.047790 -0.006322 -0.001410
    21 0.146424 1.721204 -1.673858 2.857094 1.366213 -1.957974
    22 -0.000001 0.000000 3.209387 0.040434 0.078585 0.023030
    23 0.000000 0.000001 1.943288 0.247981 -0.029962 -0.007493
    24 0.000000 -0.000001 1.241907 -0.036137 0.049495 -0.000144
    25 0.000000 10.746529 0.000000 0.000000 0.000000 0.000000
    26 -2.328150 0.000000 0.000000 3.141593 0.000000 0.000000
    27 -8.600150 0.022796 0.051090 3.677881 0.348028 -2.645165
    28 0.000021 10.075568 0.000001 1.244641 0.152664 0.122589
    29 0.000001 17.373682 0.000001 0.123343 -0.592720 0.274444
    30 -0.679044 0.802172 1.783101 1.159960 -0.602535 -2.512205
    31 0.000001 -0.000001 2.508970 0.103605 0.055066 -0.003400
    32 0.000000 -0.000002 1.809535 0.179447 -0.031042 -0.272878
    33 -0.219778 1.615330 1.611036 -0.507118 -1.408360 -1.183618
    34 -0.000001 -0.000002 3.981597 0.151191 -0.161620 -0.065498
    35 0.000001 0.000000 2.375986 0.234800 0.017327 0.006859
    36 0.000000 0.000000 1.603096 0.491378 -0.070386 -0.010803
    37 0.091868 1.886060 0.634828 0.225459 -1.479420 4.565582
    38 0.000000 0.000000 3.698122 0.748955 0.000067 -0.105910
    39 -0.000001 0.000001 2.366730 1.076290 -0.170774 0.211724
    40 0.000001 0.000001 2.035123 0.812749 0.006524 0.001049
    41 0.156257 1.870642 -0.501948 0.843336 -1.484879 4.089479
    42 -0.000001 -0.000001 3.281011 1.257854 0.086285 0.083553
    43 -0.000001 0.000000 2.688646 1.593630 0.027354 0.007994
    44 -0.000001 0.000000 1.713443 0.702341 0.006321 0.001410
    45 -0.146424 1.721204 -1.673859 0.805608 -1.397840 4.487546
    46 0.000000 0.000001 3.209387 1.326215 -0.108319 0.040200
    47 0.000000 0.000000 1.943288 1.790995 0.029962 0.007493
    48 0.000000 0.000000 1.241909 0.398957 -0.049494 0.000143
    49 0.000002 10.746529 0.000001 0.000000 0.000000 0.000000
    50 0.726585 55.312475 20.212330 0.703823 0.264632 -0.866610
  time 4
    0 -0.441420 -2.613361 -72.107669 1.570796 0.000000 0.000000
    1 0.000000 65.928001 -3.788860 0.000000 0.000000 0.000000
    2 2.328150 0.000000 0.000000 0.000000 0.000000 0.000000
    3 8.600150 -0.022797 -0.051090 -0.118690 0.048663 -2.754282
    4 0.000000 10.075568 -0.000001 0.494195 -0.191051 -0.051355
    5 0.000002 17.373682 0.000000 -0.398738 0.000000 -0.387177
    6 0.679043 0.802172 1.783102 0.791590 0.071443 2.826561
    7 0.000000 -0.000002 2.508970 0.072756 -0.055066 0.003400
    8 0.000000 0.000001 1.809536 -0.111299 0.000383 -0.005249
    9 0.219777 1.615330 1.611036 -0.507118 1.408360 1.183619
    10 0.000000 -0.000002 3.981597 0.133173 0.103205 0.057575
    11 0.000000 0.000000 2.375985 0.224937 -0.017328 -0.006860
    12 0.000001 -0.000001 1.603097 0.127704 0.070387 0.010803
    13 -0.091869 1.886059 0.634829 2.654201 1.561694 -1.957970
    14 0.000000 0.000000 3.698122 0.152287 0.016828 0.008921
    15 0.000000 0.000001 2.366730 0.175839 -0.002247 -0.000783
    16 0.000001 -0.000001 2.035123 -0.089638 -0.006525 -0.001049
    17 -0.156257 1.870642 -0.501948 2.771319 1.427761 -1.957975
    18 0.000000 0.000001 3.281008 0.086127 -0.023234 -0.009021
    19 0.000000 0.000001 2.688646 0.064973 -0.027356 -0.007994
    20 0.000001 0.000000 1.713443 0.047790 -0.006322 -0.001410
    21 0.146424 1.721204 -1.673858 2.857094 1.366213 -1.957974
    22 -0.000001 0.000000 3.209387 0.040434 0.078585 0.023030
    23 0.000000 0.000001 1.943288 0.247981 -0.029962 -0.007493
    24 0.000000 -0.000001 1.241907 -0.036137 0.049495 -0.000144
    25 0.000000 10.746529 0.000000 0.000000 0.000000 0.000000
    26 -2.328150 0.000000 0.000000 3.141593 0.000000 0.000000
    27 -8.600150 0.022796 0.051090 3.877052 0.312959 -2.449861
    28 0.000021 10.075568 0.000001 1.063356 0.162036 0.105439
    29 0.000001 17.373682 0.000001 0.555751 -0.355497 0.093054
    30 -0.679044 0.802172 1.783101 1.202079 -0.570604 -2.553852
    31 0.000001 -0.000001 2.508970 0.123032 0.055066 -0.003400
    32 0.000000 -0.000002 1.809535 0.179447 -0.031042 -0.272878
    33 -0.219778 1.615330 1.611036 -0.507118 -1.408360 -1.183618
    34 -0.000001 -0.000002 3.981597 0.151191 -0.161620 -0.065498
    35 0.000001 0.000000 2.375986 0.234800 0.017327 0.006859
    36 0.000000 0.000000 1.603096 0.491378 -0.070386 -0.010803
    37 0.091868 1.886060 0.634828 0.225459 -1.479420 4.565582
    38 0.000000 0.000000 3.698122 0.748955 0.000067 -0.105910
    39 -0.000001 0.000001 2.366730 1.076290 -0.170774 0.211724
    40 0.000001 0.000001 2.035123 0.812749 0.006524 0.001049
    41 0.156257 1.870642 -0.501948 0.843277 -1.484879 4.089479
    42 -0.000001 -0.000001 3.281011 1.257854 0.086285 0.083553
    43 -0.000001 0.000000 2.688646 1.593630 0.027354 0.007994
    44 -0.000001 0.000000 1.713443 0.702341 0.006321 0.001410
    45 -0.146424 1.721204 -1.673859 0.805545 -1.397840 4.487546
    46 0.000000 0.000001 3.209387 1.326215 -0.108319 0.040200
    47 0.000000 0.000000 1.943288 1.790995 0.029962 0.007493
    48 0.000000 0.000000 1.241909 0.398957 -0.049494 0.000143
    49 0.000002 10.746529 0.000001 0.000000 0.000000 0.000000
    50 0.871120 58.410226 20.833443 0.431085 0.205308 -0.743603
  time 5
    0 0.652364 -1.761773 -72.107669 1.570796 0.000000 0.000000
    1 0.000000 65.928001 -3.788860 0.000000 0.000000 0.000000
    2 2.328150 0.000000 0.000000 0.000000 0.000000 0.000000
    3 8.600150 -0.022797 -0.051090 -0.118690 0.048663 -2.754282
    4 0.000000 10.075568 -0.000001 0.494195 -0.191051 -0.051355
    5 0.000002 17.373682 0.000000 -0.398738 0.000000 -0.387177
    6 0.679043 0.802172 1.783102 0.791590 0.071443 2.826561
    7 0.000000 -0.000002 2.508970 0.072756 -0.055066 0.003400
    8 0.000000 0.000001 1.809536 -0.111299 0.000383 -0.005249
    9 0.219777 1.615330 1.611036 -0.507118 1.408360 1.183619
    10 0.000000 -0.000002 3.981597 0.133173 0.103205 0.057575
    11 0.000000 0.000000 2.375985 0.224937 -0.017328 -0.006860
    12 0.000001 -0.000001 1.603097 0.127704 0.070387 0.010803
    13 -0.091869 1.886059 0.634829 2.654201 1.561694 -1.957970
    14 0.000000 0.000000 3.698122 0.152287 0.016828 0.008921
    15 0.000000 0.000001 2.366730 0.175839 -0.002247 -0.000783
    16 0.000001 -0.000001 2.035123 -0.089638 -0.006525 -0.001049
    17 -0.156257 1.870642 -0.501948 2.771319 1.427761 -1.957975
    18 0.000000 0.000001 3.281008 0.086127 -0.023234 -0.009021
    19 0.000000 0.000001 2.688646 0.064973 -0.027356 -0.007994
    20 0.000001 0.000000 1.713443 0.047790 -0.006322 -0.001410
    21 0.146424 1.721204 -1.673858 2.857094 1.366213 -1.957974
    22 -0.000001 0.000000 3.209387 0.040434 0.078585 0.023030
    23 0.000000 0.000001 1.943288 0.247981 -0.029962 -0.007493
    24 0.000000 -0.000001 1.241907 -0.036137 0.049495 -0.000144
    25 0.000000 10.746529 0.000000 0.000000 0.000000 0.000000
    26 -2.328150 0.000000 0.000000 3.141593 0.000000 0.000000
    27 -8.600150 0.022796 0.051090 4.013589 0.278960 -2.321775
    28 0.000021 10.075568 0.000001 0.959757 0.167358 0.095624
    29 0.000001 17.373682 0.000001 0.644716 -0.158764 -0.039052
    30 -0.679044 0.802172 1.783101 1.245938 -0.535236 -2.597751
    31 0.000001 -0.000001 2.508970 0.144232 0.055066 -0.003400
    32 0.000000 -0.000002 1.809535 0.179447 -0.031042 -0.272878
    33 -0.219778 1.615330 1.611036 -0.507118 -1.408360 -1.183618
    34 -0.000001 -0.000002 3.981597 0.151191 -0.161620 -0.065498
    35 0.000001 0.000000 2.375986 0.234800 0.017327 0.006859
    36 0.000000 0.000000 1.603096 0.491378 -0.070386 -0.010803
    37 0.091868 1.886060 0.634828 0.225459 -1.479420 4.565582
    38 0.000000 0.000000 3.698122 0.748955 0.000067 -0.105910
    39 -0.000001 0.000001 2.366730 1.076330 -0.170774 0.211724
    40 0.000001 0.000001 2.035123 0.812749 0.006524 0.001049
    41 0.156257 1.870642 -0.501948 0.843336 -1.484879 4.089479
    42 -0.000001 -0.000001 3.281011 1.257854 0.086285 0.083553
    43 -0.000001 0.000000 2.688646 1.593630 0.027354 0.007994
    44 -0.000001 0.000000 1.713443 0.702341 0.006321 0.001410
    45 -0.146424 1.721204 -1.673859 0.805608 -1.397840 4.487546
    46 0.000000 0.000001 3.209387 1.326255 -0.108319 0.040200
    47 0.000000 0.000000 1.943288 1.790948 0.029962 0.007493
    48 0.000000 0.000000 1.241909 0.398957 -0.049494 0.000143
    49 0.000002 10.746529 0.000001 0.000000 0.000000 0.000000
    50 0.800806 60.863426 22.216298 0.380643 0.108916 -0.639133
  time 6
    0 1.742241 -1.226600 -72.107669 1.570796 0.000000 0.000000
    1 0.000000 65.928001 -3.788860 0.000000 0.000000 0.000000
    2 2.328150 0.000000 0.000000 0.000000 0.000000 0.000000
    3 8.600150 -0.022797 -0.051090 -0.118690 0.048663 -2.754282
    4 0.000000 10.075568 -0.000001 0.494195 -0.191051 -0.051355
    5 0.000002 17.373682 0.000000 -0.398738 0.000000 -0.387177
    6 0.679043 0.802172 1.783102 0.791590 0.071443 2.826561
    7 0.000000 -0.000002 2.508970 0.072756 -0.055066 0.003400
    8 0.000000 0.000001 1.809536 -0.111299 0.000383 -0.005249
    9 0.219777 1.615330 1.611036 -0.507118 1.408360 1.183619
    10 0.000000 -0.000002 3.981597 0.133173 0.103205 0.057575
    11 0.000000 0.000000 2.375985 0.224937 -0.017328 -0.006860
    12 0.000001 -0.000001 1.603097 0.127704 0.070387 0.010803
    13 -0.091869 1.886059 0.634829 2.654201 1.561694 -1.957970
    14 0.000000 0.000000 3.698122 0.152287 0.016828 0.008921
    15 0.000000 0.000001 2.366730 0.175839 -0.002247 -0.000783
    16 0.000001 -0.000001 2.035123 -0.089638 -0.006525 -0.001049
    17 -0.156257 1.870642 -0.501948 2.771319 1.427761 -1.957975
    18 0.000000 0.000001 3.281008 0.086127 -0.023234 -0.009021
    19 0.000000 0.000001 2.688646 0.064973 -0.027356 -0.007994
    20 0.000001 0.000000 1.713443 0.047790 -0.006322 -0.001410
    21 0.146424 1.721204 -1.673858 2.857094 1.366213 -1.957974
    22 -0.000001 0.000000 3.209387 0.040434 0.078585 0.023030
    23 0.000000 0.000001 1.943288 0.247981 -0.029962 -0.007493
    24 0.000000 -0.000001 1.241907 -0.036137 0.049495 -0.000144
    25 0.000000 10.746529 0.000000 0.000000 0.000000 0.000000
    26 -2.328150 0.000000 0.000000 3.141593 0.000000 0.000000
    27 -8.600150 0.022796 0.051090 4.090838 0.244445 -2.259932
    28 0.000021 10.075568 0.000001 0.922057 0.169287 0.092041
    29 0.000001 17.373682 0.000001 0.452786 0.001456 -0.153480
    30 -0.679044 0.802172 1.783101 1.287483 -0.499602 -2.639961
    31 0.000001 -0.000001 2.508970 0.165301 0.055066 -0.003400
    32 0.000000 -0.000002 1.809535 0.179447 -0.031042 -0.272878
    33 -0.219778 1.615330 1.611036 -0.507118 -1.408360 -1.183618
    34 -0.000001 -0.000002 3.981597 0.151191 -0.161620 -0.065498
    35 0.000001 0.000000 2.375986 0.234800 0.017327 0.006859
    36 0.000000 0.000000 1.603096 0.491378 -0.070386 -0.010803
    37 0.091868 1.886060 0.634828 0.225459 -1.479420 4.565582
    38 0.000000 0.000000 3.698122 0.748955 0.000067 -0.105910
    39 -0.000001 0.000001 2.366730 1.076290 -0.170774 0.211724
    40 0.000001 0.000001 2.035123 0.812749 0.006524 0.001049
    41 0.156257 1.870642 -0.501948 0.843336 -1.484879 4.089479
    42 -0.000001 -0.000001 3.281011 1.257854 0.086285 0.083553
    43 -0.000001 0.000000 2.688646 1.593630 0.027354 0.007994
    44 -0.000001 0.000000 1.713443 0.702341 0.006321 0.001410
    45 -0.146424 1.721204 -1.673859 0.805545 -1.397840 4.487546
    46 0.000000 0.000001 3.209387 1.326215 -0.108319 0.040200
    47 0.000000 0.000000 1.943288 1.790995 0.029962 0.007493
    48 0.000000 0.000000 1.241909 0.398957 -0.049494 0.000143
    49 0.000002 10.746529 0.000001 0.000000 0.000000 0.000000
    50 0.324229 62.898644 24.528868 0.544689 -0.012728 -0.524644
  time 7
    0 2.746178 -0.933622 -72.107669 1.570796 0.000000 0.000000
    1 0.000000 65.928001 -3.788860 0.000000 0.000000 0.000000
    2 2.328150 0.000000 0.000000 0.000000 0.000000 0.000000
    3 8.600150 -0.022797 -0.051090 -0.118690 0.048663 -2.754282
    4 0.000000 10.075568 -0.000001 0.494195 -0.191051 -0.051355
    5 0.000002 17.373682 0.000000 -0.398738 0.000000 -0.387177
    6 0.679043 0.802172 1.783102 0.791590 0.071443 2.826561
    7 0.000000 -0.000002 2.508970 0.072756 -0.055066 0.003400
    8 0.000000 0.000001 1.809536 -0.111299 0.000383 -0.005249
    9 0.219777 1.615330 1.611036 -0.507118 1.408360 1.183619
    10 0.000000 -0.000002 3.981597 0.133173 0.103205 0.057575
    11 0.000000 0.000000 2.375985 0.224937 -0.017328 -0.006860
    12 0.000001 -0.000001 1.603097 0.127704 0.070387 0.010803
    13 -0.091869 1.886059 0.634829 2.654201 1.561694 -1.957970
    14 0.000000 0.000000 3.698122 0.152287 0.016828 0.008921
    15 0.000000 0.000001 2.366730 0.175839 -0.002247 -0.000783
    16 0.000001 -0.000001 2.035123 -0.089638 -0.006525 -0.001049
    17 -0.156257 1.870642 -0.501948 2.771319 1.427761 -1.957975
    18 0.000000 0.000001 3.281008 0.086127 -0.023234 -0.009021
    19 0.000000 0.000001 2.688646 0.064973 -0.027356 -0.007994
    20 0.000001 0.000000 1.713443 0.047790 -0.006322 -0.001410
    21 0.146424 1.721204 -1.673858 2.857094 1.366213 -1.957974
    22 -0.000001 0.000000 3.209387 0.040434 0.078585 0.023030
    23 0.000000 0.000001 1.943288 0.247981 -0.029962 -0.007493
    24 0.000000 -0.000001 1.241907 -0.036137 0.049495 -0.000144
    25 0.000000 10.746529 0.000000 0.000000 0.000000 0.000000
    26 -2.328150 0.000000 0.000000 3.141593 0.000000 0.000000
    27 -8.600150 0.022796 0.051090 4.108767 0.223265 -2.341767
    28 0.000021 10.075568 0.000001 0.899917 0.170426 0.089943
    29 0.000001 17.373682 0.000001 0.244767 0.066844 -0.236700
    30 -0.679044 0.802172 1.783101 1.324098 -0.466413 -2.677760
    31 0.000001 -0.000001 2.508970 0.184728 0.055066 -0.003400
    32 0.000000 -0.000002 1.809535 0.179447 -0.031042 -0.272878
    33 -0.219778 1.615330 1.611036 -0.507118 -1.408360 -1.183618
    34 -0.000001 -0.000002 3.981597 0.151191 -0.161620 -0.065498
    35 0.000001 0.000000 2.375986 0.234800 0.017327 0.006859
    36 0.000000 0.000000 1.603096 0.491378 -0.070386 -0.010803
    37 0.091868 1.886060 0.634828 0.225384 -1.479420 4.565582
    38 0.000000 0.000000 3.698122 0.748955 0.000067 -0.105910
    39 -0.000001 0.000001 2.366730 1.076330 -0.170774 0.211724
    40 0.000001 0.000001 2.035123 0.812749 0.006524 0.001049
    41 0.156257 1.870642 -0.501948 0.843336 -1.484879 4.089479
    42 -0.000001 -0.000001 3.281011 1.257854 0.086285 0.083553
    43 -0.000001 0.000000 2.688646 1.593630 0.027354 0.007994
    44 -0.000001 0.000000 1.713443 0.702341 0.006321 0.001410
    45 -0.146424 1.721204 -1.673859 0.805545 -1.397840 4.487546
    46 0.000000 0.000001 3.209387 1.326255 -0.108319 0.040200
    47 0.000000 0.000000 1.943288 1.790948 0.029962 0.007493
    48 0.000000 0.000000 1.241909 0.398957 -0.049494 0.000143
    49 0.000002 10.746529 0.000001 0.000000 0.000000 0.000000
    50 -0.738304 64.207278 26.489866 0.739781 -0.120169 -0.378069
  time 8
    0 3.574328 -0.808618 -72.107669 1.570796 0.000000 0.000000
    1 0.000000 65.928001 -3.788860 0.000000 0.000000 0.000000
    2 2.328150 0.000000 0.000000 0.000000 0.000000 0.000000
    3 8.600150 -0.022797 -0.051090 -0.118690 0.048663 -2.754282
    4 0.000000 10.075568 -0.000001 0.494195 -0.191051 -0.051355
    5 0.000002 17.373682 0.000000 -0.398738 0.000000 -0.387177
    6 0.679043 0.802172 1.783102 0.791590 0.071443 2.826561
    7 0.000000 -0.000002 2.508970 0.072756 -0.055066 0.003400
    8 0.000000 0.000001 1.809536 -0.111299 0.000383 -0.005249
    9 0.219777 1.615330 1.611036 -0.507118 1.408360 1.183619
    10 0.000000 -0.000002 3.981597 0.133173 0.103205 0.057575
    11 0.000000 0.000000 2.375985 0.224937 -0.017328 -0.006860
    12 0.000001 -0.000001 1.603097 0.127704 0.070387 0.010803
    13 -0.091869 1.886059 0.634829 2.654201 1.561694 -1.957970
    14 0.000000 0.000000 3.698122 0.152287 0.016828 0.008921
    15 0.000000 0.000001 2.366730 0.175839 -0.002247 -0.000783
    16 0.000001 -0.000001 2.035123 -0.089638 -0.006525 -0.001049
    17 -0.156257 1.870642 -0.501948 2.771319 1.427761 -1.957975
    18 0.000000 0.000001 3.281008 0.086127 -0.023234 -0.009021
    19 0.000000 0.000001 2.688646 0.064973 -0.027356 -0.007994
    20 0.000001 0.000000 1.713443 0.047790 -0.006322 -0.001410
    21 0.146424 1.721204 -1.673858 2.857094 1.366213 -1.957974
    22 -0.000001 0.000000 3.209387 0.040434 0.078585 0.023030
    23 0.000000 0.000001 1.943288 0.247981 -0.029962 -0.007493
    24 0.000000 -0.000001 1.241907 -0.036137 0.049495 -0.000144
    25 0.000000 10.746529 0.000000 0.000000 0.000000 0.000000
    26 -2.328150 0.000000 0.000000 3.141593 0.000000 0.000000
    27 -8.600150 0.022796 0.051090 4.093291 0.210119 -2.449993
    28 0.000021 10.075568 0.000001 0.870588 0.171924 0.087163
    29 0.000001 17.373682 0.000001 0.136666 0.055692 -0.253469
    30 -0.679044 0.802172 1.783101 1.353146 -0.438823 -2.708237
    31 0.000001 -0.000001 2.508970 0.200764 0.055066 -0.003400
    32 0.000000 -0.000002 1.809535 0.179447 -0.031042 -0.272878
    33 -0.219778 1.615330 1.611036 -0.507118 -1.408360 -1.183618
    34 -0.000001 -0.000002 3.981597 0.151191 -0.161620 -0.065498
    35 0.000001 0.000000 2.375986 0.234800 0.017327 0.006859
    36 0.000000 0.000000 1.603096 0.491378 -0.070386 -0.010803
    37 0.091868 1.886060 0.634828 0.225459 -1.479420 4.565582
    38 0.000000 0.000000 3.698122 0.748955 0.000067 -0.105910
    39 -0.000001 0.000001 2.366730 1.076330 -0.170774 0.211724
    40 0.000001 0.000001 2.035123 0.812749 0.006524 0.001049
    41 0.156257 1.870642 -0.501948 0.843336 -1.484879 4.089479
    42 -0.000001 -0.000001 3.281011 1.257854 0.086285 0.083553
    43 -0.000001 0.000000 2.688646 1.593630 0.027354 0.007994
    44 -0.000001 0.000000 1.713443 0.702341 0.006321 0.001410
    45 -0.146424 1.721204 -1.673859 0.805608 -1.397840 4.487546
    46 0.000000 0.000001 3.209387 1.326255 -0.108319 0.040200
    47 0.000000 0.000000 1.943288 1.790948 0.029962 0.007493
    48 0.000000 0.000000 1.241909 0.398957 -0.049494 0.000143
    49 0.000002 10.746529 0.000001 0.000000 0.000000 0.000000
    50 -1.925840 63.984615 27.618806 0.882007 -0.176305 -0.302949
  time 9
    0 4.132939 -0.785180 -72.107669 1.570796 0.000000 0.000000
    1 0.000000 65.928001 -3.788860 0.000000 0.000000 0.000000
    2 2.328150 0.000000 0.000000 0.000000 0.000000 0.000000
    3 8.600150 -0.022797 -0.051090 -0.118690 0.048663 -2.754282
    4 0.000000 10.075568 -0.000001 0.494195 -0.191051 -0.051355
    5 0.000002 17.373682 0.000000 -0.398738 0.000000 -0.387177
    6 0.679043 0.802172 1.783102 0.791590 0.071443 2.826561
    7 0.000000 -0.000002 2.508970 0.072756 -0.055066 0.003400
    8 0.000000 0.000001 1.809536 -0.111299 0.000383 -0.005249
    9 0.219777 1.615330 1.611036 -0.507118 1.408360 1.183619
    10 0.000000 -0.000002 3.981597 0.133173 0.103205 0.057575
    11 0.000000 0.000000 2.375985 0.224937 -0.017328 -0.006860
    12 0.000001 -0.000001 1.603097 0.127704 0.070387 0.010803
    13 -0.091869 1.886059 0.634829 2.654201 1.561694 -1.957970
    14 0.000000 0.000000 3.698122 0.152287 0.016828 0.008921
    15 0.000000 0.000001 2.366730 0.175839 -0.002247 -0.000783
    16 0.000001 -0.000001 2.035123 -0.089638 -0.006525 -0.001049
    17 -0.156257 1.870642 -0.501948 2.771319 1.427761 -1.957975
    18 0.000000 0.000001 3.281008 0.086127 -0.023234 -0.009021
    19 0.000000 0.000001 2.688646 0.064973 -0.027356 -0.007994
    20 0.000001 0.000000 1.713443 0.047790 -0.006322 -0.001410
    21 0.146424 1.721204 -1.673858 2.857094 1.366213 -1.957974
    22 -0.000001 0.000000 3.209387 0.040434 0.078585 0.023030
    23 0.000000 0.000001 1.943288 0.247981 -0.029962 -0.007493
    24 0.000000 -0.000001 1.241907 -0.036137 0.049495 -0.000144
    25 0.000000 10.746529 0.000000 0.000000 0.000000 0.000000
    26 -2.328150 0.000000 0.000000 3.141593 0.000000 0.000000
    27 -8.600150 0.022796 0.051090 4.070059 0.192314 -2.431738
    28 0.000021 10.075568 0.000001 0.852744 0.172835 0.085473
    29 0.000001 17.373682 0.000001 0.082078 0.050684 -0.206857
    30 -0.679044 0.802172 1.783101 1.372188 -0.420094 -2.728479
    31 0.000001 -0.000001 2.508970 0.211586 0.055066 -0.003400
    32 0.000000 -0.000002 1.809535 0.179447 -0.031042 -0.272878
    33 -0.219778 1.615330 1.611036 -0.507118 -1.408360 -1.183618
    34 -0.000001 -0.000002 3.981597 0.151191 -0.161620 -0.065498
    35 0.000001 0.000000 2.375986 0.234800 0.017327 0.006859
    36 0.000000 0.000000 1.603096 0.491378 -0.070386 -0.010803
    37 0.091868 1.886060 0.634828 0.225459 -1.479420 4.565582
    38 0.000000 0.000000 3.698122 0.748955 0.000067 -0.105910
    39 -0.000001 0.000001 2.366730 1.076290 -0.170774 0.211724
    40 0.000001 0.000001 2.035123 0.812749 0.006524 0.001049
    41 0.156257 1.870642 -0.501948 0.843336 -1.484879 4.089479
    42 -0.000001 -0.000001 3.281011 1.257854 0.086285 0.083553
    43 -0.000001 0.000000 2.688646 1.593630 0.027354 0.007994
    44 -0.000001 0.000000 1.713443 0.702341 0.006321 0.001410
    45 -0.146424 1.721204 -1.673859 0.805608 -1.397840 4.487546
    46 0.000000 0.000001 3.209387 1.326215 -0.108319 0.040200
    47 0.000000 0.000000 1.943288 1.790948 0.029962 0.007493
    48 0.000000 0.000000 1.241909 0.398957 -0.049494 0.000143
    49 0.000002 10.746529 0.000001 0.000000 0.000000 0.000000
    50 -2.968841 62.672075 27.978192 0.975995 -0.166250 -0.355824
  time 10
    0 4.339976 -0.792993 -72.107669 1.570796 0.000000 0.000000
    1 0.000000 65.928001 -3.788860 0.000000 0.000000 0.000000
    2 2.328150 0.000000 0.000000 0.000000 0.000000 0.000000
    3 8.600150 -0.022797 -0.051090 -0.118690 0.048663 -2.754282
    4 0.000000 10.075568 -0.000001 0.494195 -0.191051 -0.051355
    5 0.000002 17.373682 0.000000 -0.398738 0.000000 -0.387177
    6 0.679043 0.802172 1.783102 0.791590 0.071443 2.826561
    7 0.000000 -0.000002 2.508970 0.072756 -0.055066 0.003400
    8 0.000000 0.000001 1.809536 -0.111299 0.000383 -0.005249
    9 0.219777 1.615330 1.611036 -0.507118 1.408360 1.183619
    10 0.000000 -0.000002 3.981597 0.133173 0.103205 0.057575
    11 0.000000 0.000000 2.375985 0.224937 -0.017328 -0.006860
    12 0.000001 -0.000001 1.603097 0.127704 0.070387 0.010803
    13 -0.091869 1.886059 0.634829 2.654201 1.561694 -1.957970
    14 0.000000 0.000000 3.698122 0.152287 0.016828 0.008921
    15 0.000000 0.000001 2.366730 0.175839 -0.002247 -0.000783
    16 0.000001 -0.000001 2.035123 -0.089638 -0.006525 -0.001049
    17 -0.156257 1.870642 -0.501948 2.771319 1.427761 -1.957975
    18 0.000000 0.000001 3.281008 0.086127 -0.023234 -0.009021
    19 0.000000 0.000001 2.688646 0.064973 -0.027356 -0.007994
    20 0.000001 0.000000 1.713443 0.047790 -0.006322 -0.001410
    21 0.146424 1.721204 -1.673858 2.857094 1.366213 -1.957974
    22 -0.000001 0.000000 3.209387 0.040434 0.078585 0.023030
    23 0.000000 0.000001 1.943288 0.247981 -0.029962 -0.007493
    24 0.000000 -0.000001 1.241907 -0.036137 0.049495 -0.000144
    25 0.000000 10.746529 0.000000 0.000000 0.000000 0.000000
    26 -2.328150 0.000000 0.000000 3.141593 0.000000 0.000000
    27 -8.600150 0.022796 0.051090 4.054848 0.180968 -2.420180
    28 0.000021 10.075568 0.000001 0.843573 0.173314 0.084598
    29 0.000001 17.373682 0.000001 0.062321 0.031930 -0.165076
    30 -0.679044 0.802172 1.783101 1.379110 -0.413165 -2.735910
    31 0.000001 -0.000001 2.508970 0.215589 0.055066 -0.003400
    32 0.000000 -0.000002 1.809535 0.179447 -0.031042 -0.272878
    33 -0.219778 1.615330 1.611036 -0.507118 -1.408360 -1.183618
    34 -0.000001 -0.000002 3.981597 0.151191 -0.161620 -0.065498
    35 0.000001 0.000000 2.375986 0.234800 0.017327 0.006859
    36 0.000000 0.000000 1.603096 0.491378 -0.070386 -0.010803
    37 0.091868 1.886060 0.634828 0.225459 -1.479420 4.565582
    38 0.000000 0.000000 3.698122 0.748955 0.000067 -0.105910
    39 -0.000001 0.000001 2.366730 1.076290 -0.170774 0.211724
    40 0.000001 0.000001 2.035123 0.812749 0.006524 0.001049
    41 0.156257 1.870642 -0.501948 0.843336 -1.484879 4.089479
    42 -0.000001 -0.000001 3.281011 1.257854 0.086285 0.083553
    43 -0.000001 0.000000 2.688646 1.593630 0.027354 0.007994
    44 -0.000001 0.000000 1.713443 0.702341 0.006321 0.001410
    45 -0.146424 1.721204 -1.673859 0.805608 -1.397840 4.487546
    46 0.000000 0.000001 3.209387 1.326255 -0.108319 0.040200
    47 0.000000 0.000000 1.943288 1.790948 0.029962 0.007493
    48 0.000000 0.000000 1.241909 0.398957 -0.049494 0.000143
    49 0.000002 10.746529 0.000001 0.000000 0.000000 0.000000
    50 -3.539171 61.820487 28.032881 1.020675 -0.147650 -0.403138
end
