// Created by Crowbar 0.74
version 1
nodes
  0 "root" -1
  1 "spine" 0
  2 "bip_collar_L" 1
  3 "bip_upperArm_L" 2
  4 "bip_lowerArm_L" 3
  5 "bip_hand_L" 4
  6 "bip_thumb_0_L" 5
  7 "bip_thumb_1_L" 6
  8 "bip_thumb_2_L" 7
  9 "bip_index_meta_0_L" 5
  10 "bip_index_0_L" 9
  11 "bip_index_1_L" 10
  12 "bip_index_2_L" 11
  13 "bip_middle_meta_0_L" 5
  14 "bip_middle_0_L" 13
  15 "bip_middle_1_L" 14
  16 "bip_middle_2_L" 15
  17 "bip_ring_meta_0_L" 5
  18 "bip_ring_0_L" 17
  19 "bip_ring_1_L" 18
  20 "bip_ring_2_L" 19
  21 "bip_pinky_meta_0_L" 5
  22 "bip_pinky_0_L" 21
  23 "bip_pinky_1_L" 22
  24 "bip_pinky_2_L" 23
  25 "bip_helper_L" 4
  26 "bip_collar_R" 1
  27 "bip_upperArm_R" 26
  28 "bip_lowerArm_R" 27
  29 "bip_hand_R" 28
  30 "bip_thumb_0_R" 29
  31 "bip_thumb_1_R" 30
  32 "bip_thumb_2_R" 31
  33 "bip_index_meta_0_R" 29
  34 "bip_index_0_R" 33
  35 "bip_index_1_R" 34
  36 "bip_index_2_R" 35
  37 "bip_middle_meta_0_R" 29
  38 "bip_middle_0_R" 37
  39 "bip_middle_1_R" 38
  40 "bip_middle_2_R" 39
  41 "bip_ring_meta_0_R" 29
  42 "bip_ring_0_R" 41
  43 "bip_ring_1_R" 42
  44 "bip_ring_2_R" 43
  45 "bip_pinky_meta_0_R" 29
  46 "bip_pinky_0_R" 45
  47 "bip_pinky_1_R" 46
  48 "bip_pinky_2_R" 47
  49 "bip_helper_R" 28
  50 "weapon_bone_L" 0
end
skeleton
  time 0
    0 -0.000001 17.062500 -9.492188 0.000000 0.000000 -1.570796
    1 0.000000 0.000000 0.000000 0.000000 0.000000 0.000000
    2 0.000000 0.000000 0.000000 0.000000 0.000000 0.000000
    3 0.000000 0.000000 0.000000 0.000000 0.000000 0.000000
    4 0.000000 0.000000 0.000000 0.000000 0.000000 0.000000
    5 0.000000 0.000000 0.000000 0.000000 0.000000 0.000000
    6 0.000000 0.000000 0.000000 0.000000 0.000000 0.000000
    7 0.000000 0.000000 0.000000 0.000000 0.000000 0.000000
    8 0.000000 0.000000 0.000000 0.000000 0.000000 0.000000
    9 0.000000 0.000000 0.000000 0.000000 0.000000 0.000000
    10 0.000000 0.000000 0.000000 0.000000 0.000000 0.000000
    11 0.000000 0.000000 0.000000 0.000000 0.000000 0.000000
    12 0.000000 0.000000 0.000000 0.000000 0.000000 0.000000
    13 0.000000 0.000000 0.000000 0.000000 0.000000 0.000000
    14 0.000000 0.000000 0.000000 0.000000 0.000000 0.000000
    15 0.000000 0.000000 0.000000 0.000000 0.000000 0.000000
    16 0.000000 0.000000 0.000000 0.000000 0.000000 0.000000
    17 0.000000 0.000000 0.000000 0.000000 0.000000 0.000000
    18 0.000000 0.000000 0.000000 0.000000 0.000000 0.000000
    19 0.000000 0.000000 0.000000 0.000000 0.000000 0.000000
    20 0.000000 0.000000 0.000000 0.000000 0.000000 0.000000
    21 0.000000 0.000000 0.000000 0.000000 0.000000 0.000000
    22 0.000000 0.000000 0.000000 0.000000 0.000000 0.000000
    23 0.000000 0.000000 0.000000 0.000000 0.000000 0.000000
    24 0.000000 0.000000 0.000000 0.000000 0.000000 0.000000
    25 0.000000 0.000000 0.000000 0.000000 0.000000 0.000000
    26 0.000000 0.000000 0.000000 0.000000 0.000000 0.000000
    27 0.000000 0.000000 0.000000 0.477177 -0.043794 -0.541843
    28 0.000000 0.000000 0.000000 -0.107289 -0.008469 -0.007967
    29 0.000000 0.000000 0.000000 -0.500313 0.253558 -0.396899
    30 0.000000 0.000000 0.000000 0.000000 0.000000 0.000000
    31 0.000000 0.000000 0.000000 0.000000 0.000000 0.000000
    32 0.000000 0.000000 0.000000 0.000000 0.000000 0.000000
    33 0.000000 0.000000 0.000000 0.000000 0.000000 0.000000
    34 0.000000 0.000000 0.000000 0.000000 0.000000 0.000000
    35 0.000000 0.000000 0.000000 0.000000 0.000000 0.000000
    36 0.000000 0.000000 0.000000 0.000000 0.000000 0.000000
    37 0.000000 0.000000 0.000000 0.000000 0.000000 0.000000
    38 0.000000 0.000000 0.000000 0.000000 0.000000 0.000000
    39 0.000000 0.000000 0.000000 0.000000 0.000000 0.000000
    40 0.000000 0.000000 0.000000 0.000000 0.000000 0.000000
    41 0.000000 0.000000 0.000000 0.000000 0.000000 0.000000
    42 0.000000 0.000000 0.000000 0.000000 0.000000 0.000000
    43 0.000000 0.000000 0.000000 0.000000 0.000000 0.000000
    44 0.000000 0.000000 0.000000 0.000000 0.000000 0.000000
    45 0.000000 0.000000 0.000000 0.000000 0.000000 0.000000
    46 0.000000 0.000000 0.000000 0.000000 0.000000 0.000000
    47 0.000000 0.000000 0.000000 0.000000 0.000000 0.000000
    48 0.000000 0.000000 0.000000 0.000000 0.000000 0.000000
    49 0.000000 0.000000 0.000000 0.000000 0.000000 0.000000
    50 -0.613281 10.453125 -1.612305 0.000000 0.000000 0.000000
end
