// Created by Crowbar 0.74
version 1
nodes
  0 "root" -1
  1 "spine" 0
  2 "bip_collar_L" 1
  3 "bip_upperArm_L" 2
  4 "bip_lowerArm_L" 3
  5 "bip_hand_L" 4
  6 "bip_thumb_0_L" 5
  7 "bip_thumb_1_L" 6
  8 "bip_thumb_2_L" 7
  9 "bip_index_meta_0_L" 5
  10 "bip_index_0_L" 9
  11 "bip_index_1_L" 10
  12 "bip_index_2_L" 11
  13 "bip_middle_meta_0_L" 5
  14 "bip_middle_0_L" 13
  15 "bip_middle_1_L" 14
  16 "bip_middle_2_L" 15
  17 "bip_ring_meta_0_L" 5
  18 "bip_ring_0_L" 17
  19 "bip_ring_1_L" 18
  20 "bip_ring_2_L" 19
  21 "bip_pinky_meta_0_L" 5
  22 "bip_pinky_0_L" 21
  23 "bip_pinky_1_L" 22
  24 "bip_pinky_2_L" 23
  25 "bip_helper_L" 4
  26 "bip_collar_R" 1
  27 "bip_upperArm_R" 26
  28 "bip_lowerArm_R" 27
  29 "bip_hand_R" 28
  30 "bip_thumb_0_R" 29
  31 "bip_thumb_1_R" 30
  32 "bip_thumb_2_R" 31
  33 "bip_index_meta_0_R" 29
  34 "bip_index_0_R" 33
  35 "bip_index_1_R" 34
  36 "bip_index_2_R" 35
  37 "bip_middle_meta_0_R" 29
  38 "bip_middle_0_R" 37
  39 "bip_middle_1_R" 38
  40 "bip_middle_2_R" 39
  41 "bip_ring_meta_0_R" 29
  42 "bip_ring_0_R" 41
  43 "bip_ring_1_R" 42
  44 "bip_ring_2_R" 43
  45 "bip_pinky_meta_0_R" 29
  46 "bip_pinky_0_R" 45
  47 "bip_pinky_1_R" 46
  48 "bip_pinky_2_R" 47
  49 "bip_helper_R" 28
  50 "weapon_bone_L" 0
end
skeleton
  time 0
    0 4.339844 -0.796875 -72.062500 1.570792 0.000005 -0.000005
    1 0.000000 65.928001 -3.788860 0.000000 0.000000 0.000000
    2 2.328150 0.000000 0.000000 0.000000 0.000000 0.000000
    3 8.600150 -0.022797 -0.051090 -0.118690 0.048663 -2.754282
    4 0.000000 10.075568 -0.000001 0.494195 -0.191051 -0.051355
    5 0.000002 17.373682 0.000000 -0.398738 0.000000 -0.387177
    6 0.679043 0.802172 1.783102 0.791590 0.071443 2.826561
    7 0.000000 -0.000002 2.508970 0.072756 -0.055066 0.003400
    8 0.000000 0.000001 1.809536 -0.111299 0.000383 -0.005249
    9 0.219777 1.615330 1.611036 -0.507118 1.408360 1.183619
    10 0.000000 -0.000002 3.981597 0.133173 0.103205 0.057575
    11 0.000000 0.000000 2.375985 0.224937 -0.017328 -0.006860
    12 0.000001 -0.000001 1.603097 0.127704 0.070387 0.010803
    13 -0.091869 1.886059 0.634829 2.654201 1.561694 -1.957970
    14 0.000000 0.000000 3.698122 0.152287 0.016828 0.008921
    15 0.000000 0.000001 2.366730 0.175839 -0.002247 -0.000783
    16 0.000001 -0.000001 2.035123 -0.089638 -0.006525 -0.001049
    17 -0.156257 1.870642 -0.501948 2.771319 1.427761 -1.957975
    18 0.000000 0.000001 3.281008 0.086127 -0.023234 -0.009021
    19 0.000000 0.000001 2.688646 0.064973 -0.027356 -0.007994
    20 0.000001 0.000000 1.713443 0.047790 -0.006322 -0.001410
    21 0.146424 1.721204 -1.673858 2.857094 1.366213 -1.957974
    22 -0.000001 0.000000 3.209387 0.040434 0.078585 0.023030
    23 0.000000 0.000001 1.943288 0.247981 -0.029962 -0.007493
    24 0.000000 -0.000001 1.241907 -0.036137 0.049495 -0.000144
    25 0.000000 10.746529 0.000000 0.000000 0.000000 0.000000
    26 -2.328150 0.000000 0.000000 3.141593 0.000000 0.000000
    27 -8.600150 0.022796 0.051090 4.054848 0.180981 -2.420180
    28 0.000021 10.075568 0.000001 0.843601 0.173314 0.084598
    29 0.000001 17.373682 0.000001 0.062321 0.031930 -0.165076
    30 -0.679044 0.802172 1.783101 1.379125 -0.413168 -2.735892
    31 0.000001 -0.000001 2.508970 0.215589 0.055065 -0.003400
    32 0.000000 -0.000002 1.809535 0.179447 -0.031042 -0.272878
    33 -0.219778 1.615330 1.611036 -0.507118 -1.408360 -1.183618
    34 -0.000001 -0.000002 3.981597 0.151191 -0.161620 -0.065498
    35 0.000001 0.000000 2.375986 0.234800 0.017327 0.006859
    36 0.000000 0.000000 1.603096 0.491378 -0.070386 -0.010803
    37 0.091868 1.886060 0.634828 0.225351 -1.479415 -1.717487
    38 0.000000 0.000000 3.698122 0.748955 0.000067 -0.105910
    39 -0.000001 0.000001 2.366730 1.076290 -0.170774 0.211724
    40 0.000001 0.000001 2.035123 0.812749 0.006524 0.001049
    41 0.156257 1.870642 -0.501948 0.843336 -1.484879 4.089479
    42 -0.000001 -0.000001 3.281011 1.257853 0.086288 0.083556
    43 -0.000001 0.000000 2.688646 1.593630 0.027354 0.007994
    44 -0.000001 0.000000 1.713443 0.702341 0.006321 0.001410
    45 -0.146424 1.721204 -1.673859 0.805537 -1.397850 -1.795553
    46 0.000000 0.000001 3.209387 1.326215 -0.108319 0.040200
    47 0.000000 0.000000 1.943288 1.790995 0.029962 0.007493
    48 0.000000 0.000000 1.241909 0.398957 -0.049494 0.000143
    49 0.000002 10.746529 0.000001 0.000000 0.000000 0.000000
    50 -3.539171 61.820487 28.032881 1.020675 -0.147650 -0.403138
  time 1
    0 4.339844 -0.796875 -72.062500 1.570792 0.000005 -0.000005
    1 0.000000 65.928001 -3.788860 0.000000 0.000000 0.000000
    2 2.328150 0.000000 0.000000 0.000000 0.000000 0.000000
    3 8.600150 -0.022797 -0.051090 -0.118690 0.048663 -2.754282
    4 0.000000 10.075568 -0.000001 0.494195 -0.191051 -0.051355
    5 0.000002 17.373682 0.000000 -0.398738 0.000000 -0.387177
    6 0.679043 0.802172 1.783102 0.791590 0.071443 2.826561
    7 0.000000 -0.000002 2.508970 0.072756 -0.055066 0.003400
    8 0.000000 0.000001 1.809536 -0.111299 0.000383 -0.005249
    9 0.219777 1.615330 1.611036 -0.507118 1.408360 1.183619
    10 0.000000 -0.000002 3.981597 0.133173 0.103205 0.057575
    11 0.000000 0.000000 2.375985 0.224937 -0.017328 -0.006860
    12 0.000001 -0.000001 1.603097 0.127704 0.070387 0.010803
    13 -0.091869 1.886059 0.634829 2.654201 1.561694 -1.957970
    14 0.000000 0.000000 3.698122 0.152287 0.016828 0.008921
    15 0.000000 0.000001 2.366730 0.175839 -0.002247 -0.000783
    16 0.000001 -0.000001 2.035123 -0.089638 -0.006525 -0.001049
    17 -0.156257 1.870642 -0.501948 2.771319 1.427761 -1.957975
    18 0.000000 0.000001 3.281008 0.086127 -0.023234 -0.009021
    19 0.000000 0.000001 2.688646 0.064973 -0.027356 -0.007994
    20 0.000001 0.000000 1.713443 0.047790 -0.006322 -0.001410
    21 0.146424 1.721204 -1.673858 2.857094 1.366213 -1.957974
    22 -0.000001 0.000000 3.209387 0.040434 0.078585 0.023030
    23 0.000000 0.000001 1.943288 0.247981 -0.029962 -0.007493
    24 0.000000 -0.000001 1.241907 -0.036137 0.049495 -0.000144
    25 0.000000 10.746529 0.000000 0.000000 0.000000 0.000000
    26 -2.328150 0.000000 0.000000 3.141593 0.000000 0.000000
    27 -8.600150 0.022796 0.051090 4.054848 0.180968 -2.420180
    28 0.000021 10.075568 0.000001 0.843628 0.173302 0.084598
    29 0.000001 17.373682 0.000001 0.062264 0.031930 -0.165076
    30 -0.679044 0.802172 1.783101 1.379125 -0.413168 -2.735892
    31 0.000001 -0.000001 2.508970 0.215589 0.055065 -0.003400
    32 0.000000 -0.000002 1.809535 0.179447 -0.031042 -0.272878
    33 -0.219778 1.615330 1.611036 -0.507118 -1.408360 -1.183618
    34 -0.000001 -0.000002 3.981597 0.151191 -0.161620 -0.065498
    35 0.000001 0.000000 2.375986 0.234800 0.017327 0.006859
    36 0.000000 0.000000 1.603096 0.491378 -0.070386 -0.010803
    37 0.091868 1.886060 0.634828 0.225351 -1.479415 -1.717487
    38 0.000000 0.000000 3.698122 0.748955 0.000067 -0.105910
    39 -0.000001 0.000001 2.366730 1.076330 -0.170774 0.211724
    40 0.000001 0.000001 2.035123 0.812749 0.006524 0.001049
    41 0.156257 1.870642 -0.501948 0.843336 -1.484879 4.089479
    42 -0.000001 -0.000001 3.281011 1.257853 0.086288 0.083556
    43 -0.000001 0.000000 2.688646 1.593630 0.027354 0.007994
    44 -0.000001 0.000000 1.713443 0.702341 0.006321 0.001410
    45 -0.146424 1.721204 -1.673859 0.805537 -1.397850 -1.795553
    46 0.000000 0.000001 3.209387 1.326215 -0.108319 0.040200
    47 0.000000 0.000000 1.943288 1.790948 0.029962 0.007493
    48 0.000000 0.000000 1.241909 0.398957 -0.049494 0.000143
    49 0.000002 10.746529 0.000001 0.000000 0.000000 0.000000
    50 -3.539171 61.824393 28.032881 1.020675 -0.147650 -0.403138
  time 2
    0 4.339844 -0.796875 -72.062500 1.570792 0.000005 -0.000005
    1 0.000000 65.928001 -3.788860 0.000000 0.000000 0.000000
    2 2.328150 0.000000 0.000000 0.000000 0.000000 0.000000
    3 8.600150 -0.022797 -0.051090 -0.118690 0.048663 -2.754282
    4 0.000000 10.075568 -0.000001 0.494195 -0.191051 -0.051355
    5 0.000002 17.373682 0.000000 -0.398738 0.000000 -0.387177
    6 0.679043 0.802172 1.783102 0.791590 0.071443 2.826561
    7 0.000000 -0.000002 2.508970 0.072756 -0.055066 0.003400
    8 0.000000 0.000001 1.809536 -0.111299 0.000383 -0.005249
    9 0.219777 1.615330 1.611036 -0.507118 1.408360 1.183619
    10 0.000000 -0.000002 3.981597 0.133173 0.103205 0.057575
    11 0.000000 0.000000 2.375985 0.224937 -0.017328 -0.006860
    12 0.000001 -0.000001 1.603097 0.127704 0.070387 0.010803
    13 -0.091869 1.886059 0.634829 2.654201 1.561694 -1.957970
    14 0.000000 0.000000 3.698122 0.152287 0.016828 0.008921
    15 0.000000 0.000001 2.366730 0.175839 -0.002247 -0.000783
    16 0.000001 -0.000001 2.035123 -0.089638 -0.006525 -0.001049
    17 -0.156257 1.870642 -0.501948 2.771319 1.427761 -1.957975
    18 0.000000 0.000001 3.281008 0.086127 -0.023234 -0.009021
    19 0.000000 0.000001 2.688646 0.064973 -0.027356 -0.007994
    20 0.000001 0.000000 1.713443 0.047790 -0.006322 -0.001410
    21 0.146424 1.721204 -1.673858 2.857094 1.366213 -1.957974
    22 -0.000001 0.000000 3.209387 0.040434 0.078585 0.023030
    23 0.000000 0.000001 1.943288 0.247981 -0.029962 -0.007493
    24 0.000000 -0.000001 1.241907 -0.036137 0.049495 -0.000144
    25 0.000000 10.746529 0.000000 0.000000 0.000000 0.000000
    26 -2.328150 0.000000 0.000000 3.141593 0.000000 0.000000
    27 -8.600150 0.022796 0.051090 4.054815 0.180968 -2.420180
    28 0.000021 10.075568 0.000001 0.843711 0.173302 0.084610
    29 0.000001 17.373682 0.000001 0.062208 0.031966 -0.165076
    30 -0.679044 0.802172 1.783101 1.379125 -0.413168 -2.735892
    31 0.000001 -0.000001 2.508970 0.215589 0.055065 -0.003400
    32 0.000000 -0.000002 1.809535 0.179447 -0.031042 -0.272878
    33 -0.219778 1.615330 1.611036 -0.507118 -1.408360 -1.183618
    34 -0.000001 -0.000002 3.981597 0.151191 -0.161620 -0.065498
    35 0.000001 0.000000 2.375986 0.234800 0.017327 0.006859
    36 0.000000 0.000000 1.603096 0.491378 -0.070386 -0.010803
    37 0.091868 1.886060 0.634828 0.225351 -1.479415 -1.717487
    38 0.000000 0.000000 3.698122 0.748955 0.000067 -0.105910
    39 -0.000001 0.000001 2.366730 1.076330 -0.170774 0.211724
    40 0.000001 0.000001 2.035123 0.812749 0.006524 0.001049
    41 0.156257 1.870642 -0.501948 0.843336 -1.484879 4.089479
    42 -0.000001 -0.000001 3.281011 1.257853 0.086288 0.083556
    43 -0.000001 0.000000 2.688646 1.593630 0.027354 0.007994
    44 -0.000001 0.000000 1.713443 0.702341 0.006321 0.001410
    45 -0.146424 1.721204 -1.673859 0.805537 -1.397850 -1.795553
    46 0.000000 0.000001 3.209387 1.326255 -0.108319 0.040200
    47 0.000000 0.000000 1.943288 1.790948 0.029962 0.007493
    48 0.000000 0.000000 1.241909 0.398957 -0.049494 0.000143
    49 0.000002 10.746529 0.000001 0.000000 0.000000 0.000000
    50 -3.539171 61.824393 28.032881 1.020675 -0.147650 -0.403094
  time 3
    0 4.339844 -0.796875 -72.062500 1.570792 0.000005 -0.000005
    1 0.000000 65.928001 -3.788860 0.000000 0.000000 0.000000
    2 2.328150 0.000000 0.000000 0.000000 0.000000 0.000000
    3 8.600150 -0.022797 -0.051090 -0.118690 0.048663 -2.754282
    4 0.000000 10.075568 -0.000001 0.494195 -0.191051 -0.051355
    5 0.000002 17.373682 0.000000 -0.398738 0.000000 -0.387177
    6 0.679043 0.802172 1.783102 0.791590 0.071443 2.826561
    7 0.000000 -0.000002 2.508970 0.072756 -0.055066 0.003400
    8 0.000000 0.000001 1.809536 -0.111299 0.000383 -0.005249
    9 0.219777 1.615330 1.611036 -0.507118 1.408360 1.183619
    10 0.000000 -0.000002 3.981597 0.133173 0.103205 0.057575
    11 0.000000 0.000000 2.375985 0.224937 -0.017328 -0.006860
    12 0.000001 -0.000001 1.603097 0.127704 0.070387 0.010803
    13 -0.091869 1.886059 0.634829 2.654201 1.561694 -1.957970
    14 0.000000 0.000000 3.698122 0.152287 0.016828 0.008921
    15 0.000000 0.000001 2.366730 0.175839 -0.002247 -0.000783
    16 0.000001 -0.000001 2.035123 -0.089638 -0.006525 -0.001049
    17 -0.156257 1.870642 -0.501948 2.771319 1.427761 -1.957975
    18 0.000000 0.000001 3.281008 0.086127 -0.023234 -0.009021
    19 0.000000 0.000001 2.688646 0.064973 -0.027356 -0.007994
    20 0.000001 0.000000 1.713443 0.047790 -0.006322 -0.001410
    21 0.146424 1.721204 -1.673858 2.857094 1.366213 -1.957974
    22 -0.000001 0.000000 3.209387 0.040434 0.078585 0.023030
    23 0.000000 0.000001 1.943288 0.247981 -0.029962 -0.007493
    24 0.000000 -0.000001 1.241907 -0.036137 0.049495 -0.000144
    25 0.000000 10.746529 0.000000 0.000000 0.000000 0.000000
    26 -2.328150 0.000000 0.000000 3.141593 0.000000 0.000000
    27 -8.600150 0.022796 0.051090 4.054749 0.180956 -2.420163
    28 0.000021 10.075568 0.000001 0.843849 0.173290 0.084622
    29 0.000001 17.373682 0.000001 0.062152 0.032037 -0.165133
    30 -0.679044 0.802172 1.783101 1.379125 -0.413168 -2.735892
    31 0.000001 -0.000001 2.508970 0.215589 0.055065 -0.003400
    32 0.000000 -0.000002 1.809535 0.179447 -0.031042 -0.272878
    33 -0.219778 1.615330 1.611036 -0.507118 -1.408360 -1.183618
    34 -0.000001 -0.000002 3.981597 0.151191 -0.161620 -0.065498
    35 0.000001 0.000000 2.375986 0.234800 0.017327 0.006859
    36 0.000000 0.000000 1.603096 0.491378 -0.070386 -0.010803
    37 0.091868 1.886060 0.634828 0.225351 -1.479415 -1.717487
    38 0.000000 0.000000 3.698122 0.748955 0.000067 -0.105910
    39 -0.000001 0.000001 2.366730 1.076330 -0.170774 0.211724
    40 0.000001 0.000001 2.035123 0.812749 0.006524 0.001049
    41 0.156257 1.870642 -0.501948 0.843336 -1.484879 4.089479
    42 -0.000001 -0.000001 3.281011 1.257853 0.086288 0.083556
    43 -0.000001 0.000000 2.688646 1.593630 0.027354 0.007994
    44 -0.000001 0.000000 1.713443 0.702341 0.006321 0.001410
    45 -0.146424 1.721204 -1.673859 0.805537 -1.397850 -1.795553
    46 0.000000 0.000001 3.209387 1.326255 -0.108319 0.040200
    47 0.000000 0.000000 1.943288 1.790948 0.029962 0.007493
    48 0.000000 0.000000 1.241909 0.398957 -0.049494 0.000143
    49 0.000002 10.746529 0.000001 0.000000 0.000000 0.000000
    50 -3.539171 61.824393 28.032881 1.020675 -0.147650 -0.403050
  time 4
    0 4.339844 -0.796875 -72.062500 1.570792 0.000005 -0.000005
    1 0.000000 65.928001 -3.788860 0.000000 0.000000 0.000000
    2 2.328150 0.000000 0.000000 0.000000 0.000000 0.000000
    3 8.600150 -0.022797 -0.051090 -0.118690 0.048663 -2.754282
    4 0.000000 10.075568 -0.000001 0.494195 -0.191051 -0.051355
    5 0.000002 17.373682 0.000000 -0.398738 0.000000 -0.387177
    6 0.679043 0.802172 1.783102 0.791590 0.071443 2.826561
    7 0.000000 -0.000002 2.508970 0.072756 -0.055066 0.003400
    8 0.000000 0.000001 1.809536 -0.111299 0.000383 -0.005249
    9 0.219777 1.615330 1.611036 -0.507118 1.408360 1.183619
    10 0.000000 -0.000002 3.981597 0.133173 0.103205 0.057575
    11 0.000000 0.000000 2.375985 0.224937 -0.017328 -0.006860
    12 0.000001 -0.000001 1.603097 0.127704 0.070387 0.010803
    13 -0.091869 1.886059 0.634829 2.654201 1.561694 -1.957970
    14 0.000000 0.000000 3.698122 0.152287 0.016828 0.008921
    15 0.000000 0.000001 2.366730 0.175839 -0.002247 -0.000783
    16 0.000001 -0.000001 2.035123 -0.089638 -0.006525 -0.001049
    17 -0.156257 1.870642 -0.501948 2.771319 1.427761 -1.957975
    18 0.000000 0.000001 3.281008 0.086127 -0.023234 -0.009021
    19 0.000000 0.000001 2.688646 0.064973 -0.027356 -0.007994
    20 0.000001 0.000000 1.713443 0.047790 -0.006322 -0.001410
    21 0.146424 1.721204 -1.673858 2.857094 1.366213 -1.957974
    22 -0.000001 0.000000 3.209387 0.040434 0.078585 0.023030
    23 0.000000 0.000001 1.943288 0.247981 -0.029962 -0.007493
    24 0.000000 -0.000001 1.241907 -0.036137 0.049495 -0.000144
    25 0.000000 10.746529 0.000000 0.000000 0.000000 0.000000
    26 -2.328150 0.000000 0.000000 3.141593 0.000000 0.000000
    27 -8.600150 0.022796 0.051090 4.054649 0.180943 -2.420146
    28 0.000021 10.075568 0.000001 0.843986 0.173290 0.084634
    29 0.000001 17.373682 0.000001 0.062095 0.032108 -0.165133
    30 -0.679044 0.802172 1.783101 1.379125 -0.413168 -2.735892
    31 0.000001 -0.000001 2.508970 0.215589 0.055065 -0.003400
    32 0.000000 -0.000002 1.809535 0.179447 -0.031042 -0.272878
    33 -0.219778 1.615330 1.611036 -0.507118 -1.408360 -1.183618
    34 -0.000001 -0.000002 3.981597 0.151191 -0.161620 -0.065498
    35 0.000001 0.000000 2.375986 0.234800 0.017327 0.006859
    36 0.000000 0.000000 1.603096 0.491378 -0.070386 -0.010803
    37 0.091868 1.886060 0.634828 0.225351 -1.479415 -1.717487
    38 0.000000 0.000000 3.698122 0.748955 0.000067 -0.105910
    39 -0.000001 0.000001 2.366730 1.076330 -0.170774 0.211724
    40 0.000001 0.000001 2.035123 0.812749 0.006524 0.001049
    41 0.156257 1.870642 -0.501948 0.843336 -1.484879 4.089479
    42 -0.000001 -0.000001 3.281011 1.257853 0.086288 0.083556
    43 -0.000001 0.000000 2.688646 1.593630 0.027354 0.007994
    44 -0.000001 0.000000 1.713443 0.702341 0.006321 0.001410
    45 -0.146424 1.721204 -1.673859 0.805537 -1.397850 -1.795553
    46 0.000000 0.000001 3.209387 1.326215 -0.108319 0.040200
    47 0.000000 0.000000 1.943288 1.790948 0.029962 0.007493
    48 0.000000 0.000000 1.241909 0.398957 -0.049494 0.000143
    49 0.000002 10.746529 0.000001 0.000000 0.000000 0.000000
    50 -3.539171 61.824393 28.032881 1.020675 -0.147650 -0.402961
  time 5
    0 4.339844 -0.796875 -72.062500 1.570792 0.000005 -0.000005
    1 0.000000 65.928001 -3.788860 0.000000 0.000000 0.000000
    2 2.328150 0.000000 0.000000 0.000000 0.000000 0.000000
    3 8.600150 -0.022797 -0.051090 -0.118690 0.048663 -2.754282
    4 0.000000 10.075568 -0.000001 0.494195 -0.191051 -0.051355
    5 0.000002 17.373682 0.000000 -0.398738 0.000000 -0.387177
    6 0.679043 0.802172 1.783102 0.791590 0.071443 2.826561
    7 0.000000 -0.000002 2.508970 0.072756 -0.055066 0.003400
    8 0.000000 0.000001 1.809536 -0.111299 0.000383 -0.005249
    9 0.219777 1.615330 1.611036 -0.507118 1.408360 1.183619
    10 0.000000 -0.000002 3.981597 0.133173 0.103205 0.057575
    11 0.000000 0.000000 2.375985 0.224937 -0.017328 -0.006860
    12 0.000001 -0.000001 1.603097 0.127704 0.070387 0.010803
    13 -0.091869 1.886059 0.634829 2.654201 1.561694 -1.957970
    14 0.000000 0.000000 3.698122 0.152287 0.016828 0.008921
    15 0.000000 0.000001 2.366730 0.175839 -0.002247 -0.000783
    16 0.000001 -0.000001 2.035123 -0.089638 -0.006525 -0.001049
    17 -0.156257 1.870642 -0.501948 2.771319 1.427761 -1.957975
    18 0.000000 0.000001 3.281008 0.086127 -0.023234 -0.009021
    19 0.000000 0.000001 2.688646 0.064973 -0.027356 -0.007994
    20 0.000001 0.000000 1.713443 0.047790 -0.006322 -0.001410
    21 0.146424 1.721204 -1.673858 2.857094 1.366213 -1.957974
    22 -0.000001 0.000000 3.209387 0.040434 0.078585 0.023030
    23 0.000000 0.000001 1.943288 0.247981 -0.029962 -0.007493
    24 0.000000 -0.000001 1.241907 -0.036137 0.049495 -0.000144
    25 0.000000 10.746529 0.000000 0.000000 0.000000 0.000000
    26 -2.328150 0.000000 0.000000 3.141593 0.000000 0.000000
    27 -8.600150 0.022796 0.051090 4.054583 0.180930 -2.420130
    28 0.000021 10.075568 0.000001 0.844179 0.173278 0.084658
    29 0.000001 17.373682 0.000001 0.061982 0.032179 -0.165133
    30 -0.679044 0.802172 1.783101 1.379125 -0.413168 -2.735892
    31 0.000001 -0.000001 2.508970 0.215589 0.055065 -0.003400
    32 0.000000 -0.000002 1.809535 0.179447 -0.031042 -0.272878
    33 -0.219778 1.615330 1.611036 -0.507118 -1.408360 -1.183618
    34 -0.000001 -0.000002 3.981597 0.151191 -0.161620 -0.065498
    35 0.000001 0.000000 2.375986 0.234800 0.017327 0.006859
    36 0.000000 0.000000 1.603096 0.491378 -0.070386 -0.010803
    37 0.091868 1.886060 0.634828 0.225351 -1.479415 -1.717487
    38 0.000000 0.000000 3.698122 0.748955 0.000067 -0.105910
    39 -0.000001 0.000001 2.366730 1.076330 -0.170774 0.211724
    40 0.000001 0.000001 2.035123 0.812749 0.006524 0.001049
    41 0.156257 1.870642 -0.501948 0.843336 -1.484879 4.089479
    42 -0.000001 -0.000001 3.281011 1.257853 0.086288 0.083556
    43 -0.000001 0.000000 2.688646 1.593630 0.027354 0.007994
    44 -0.000001 0.000000 1.713443 0.702341 0.006321 0.001410
    45 -0.146424 1.721204 -1.673859 0.805537 -1.397850 -1.795553
    46 0.000000 0.000001 3.209387 1.326255 -0.108319 0.040200
    47 0.000000 0.000000 1.943288 1.790948 0.029962 0.007493
    48 0.000000 0.000000 1.241909 0.398957 -0.049494 0.000143
    49 0.000002 10.746529 0.000001 0.000000 0.000000 0.000000
    50 -3.539171 61.828299 28.028975 1.020675 -0.147650 -0.402917
  time 6
    0 4.339844 -0.796875 -72.062500 1.570792 0.000005 -0.000005
    1 0.000000 65.928001 -3.788860 0.000000 0.000000 0.000000
    2 2.328150 0.000000 0.000000 0.000000 0.000000 0.000000
    3 8.600150 -0.022797 -0.051090 -0.118690 0.048663 -2.754282
    4 0.000000 10.075568 -0.000001 0.494195 -0.191051 -0.051355
    5 0.000002 17.373682 0.000000 -0.398738 0.000000 -0.387177
    6 0.679043 0.802172 1.783102 0.791590 0.071443 2.826561
    7 0.000000 -0.000002 2.508970 0.072756 -0.055066 0.003400
    8 0.000000 0.000001 1.809536 -0.111299 0.000383 -0.005249
    9 0.219777 1.615330 1.611036 -0.507118 1.408360 1.183619
    10 0.000000 -0.000002 3.981597 0.133173 0.103205 0.057575
    11 0.000000 0.000000 2.375985 0.224937 -0.017328 -0.006860
    12 0.000001 -0.000001 1.603097 0.127704 0.070387 0.010803
    13 -0.091869 1.886059 0.634829 2.654201 1.561694 -1.957970
    14 0.000000 0.000000 3.698122 0.152287 0.016828 0.008921
    15 0.000000 0.000001 2.366730 0.175839 -0.002247 -0.000783
    16 0.000001 -0.000001 2.035123 -0.089638 -0.006525 -0.001049
    17 -0.156257 1.870642 -0.501948 2.771319 1.427761 -1.957975
    18 0.000000 0.000001 3.281008 0.086127 -0.023234 -0.009021
    19 0.000000 0.000001 2.688646 0.064973 -0.027356 -0.007994
    20 0.000001 0.000000 1.713443 0.047790 -0.006322 -0.001410
    21 0.146424 1.721204 -1.673858 2.857094 1.366213 -1.957974
    22 -0.000001 0.000000 3.209387 0.040434 0.078585 0.023030
    23 0.000000 0.000001 1.943288 0.247981 -0.029962 -0.007493
    24 0.000000 -0.000001 1.241907 -0.036137 0.049495 -0.000144
    25 0.000000 10.746529 0.000000 0.000000 0.000000 0.000000
    26 -2.328150 0.000000 0.000000 3.141593 0.000000 0.000000
    27 -8.600150 0.022796 0.051090 4.054484 0.180918 -2.420130
    28 0.000021 10.075568 0.000001 0.844372 0.173266 0.084670
    29 0.000001 17.373682 0.000001 0.061869 0.032250 -0.165133
    30 -0.679044 0.802172 1.783101 1.379125 -0.413168 -2.735892
    31 0.000001 -0.000001 2.508970 0.215589 0.055065 -0.003400
    32 0.000000 -0.000002 1.809535 0.179447 -0.031042 -0.272878
    33 -0.219778 1.615330 1.611036 -0.507118 -1.408360 -1.183618
    34 -0.000001 -0.000002 3.981597 0.151191 -0.161620 -0.065498
    35 0.000001 0.000000 2.375986 0.234800 0.017327 0.006859
    36 0.000000 0.000000 1.603096 0.491378 -0.070386 -0.010803
    37 0.091868 1.886060 0.634828 0.225351 -1.479415 -1.717487
    38 0.000000 0.000000 3.698122 0.748955 0.000067 -0.105910
    39 -0.000001 0.000001 2.366730 1.076290 -0.170774 0.211724
    40 0.000001 0.000001 2.035123 0.812749 0.006524 0.001049
    41 0.156257 1.870642 -0.501948 0.843336 -1.484879 4.089479
    42 -0.000001 -0.000001 3.281011 1.257853 0.086288 0.083556
    43 -0.000001 0.000000 2.688646 1.593630 0.027354 0.007994
    44 -0.000001 0.000000 1.713443 0.702341 0.006321 0.001410
    45 -0.146424 1.721204 -1.673859 0.805537 -1.397850 -1.795553
    46 0.000000 0.000001 3.209387 1.326255 -0.108319 0.040200
    47 0.000000 0.000000 1.943288 1.790948 0.029962 0.007493
    48 0.000000 0.000000 1.241909 0.398957 -0.049494 0.000143
    49 0.000002 10.746529 0.000001 0.000000 0.000000 0.000000
    50 -3.539171 61.828299 28.028975 1.020675 -0.147650 -0.402829
  time 7
    0 4.339844 -0.796875 -72.062500 1.570792 0.000005 -0.000005
    1 0.000000 65.928001 -3.788860 0.000000 0.000000 0.000000
    2 2.328150 0.000000 0.000000 0.000000 0.000000 0.000000
    3 8.600150 -0.022797 -0.051090 -0.118690 0.048663 -2.754282
    4 0.000000 10.075568 -0.000001 0.494195 -0.191051 -0.051355
    5 0.000002 17.373682 0.000000 -0.398738 0.000000 -0.387177
    6 0.679043 0.802172 1.783102 0.791590 0.071443 2.826561
    7 0.000000 -0.000002 2.508970 0.072756 -0.055066 0.003400
    8 0.000000 0.000001 1.809536 -0.111299 0.000383 -0.005249
    9 0.219777 1.615330 1.611036 -0.507118 1.408360 1.183619
    10 0.000000 -0.000002 3.981597 0.133173 0.103205 0.057575
    11 0.000000 0.000000 2.375985 0.224937 -0.017328 -0.006860
    12 0.000001 -0.000001 1.603097 0.127704 0.070387 0.010803
    13 -0.091869 1.886059 0.634829 2.654201 1.561694 -1.957970
    14 0.000000 0.000000 3.698122 0.152287 0.016828 0.008921
    15 0.000000 0.000001 2.366730 0.175839 -0.002247 -0.000783
    16 0.000001 -0.000001 2.035123 -0.089638 -0.006525 -0.001049
    17 -0.156257 1.870642 -0.501948 2.771319 1.427761 -1.957975
    18 0.000000 0.000001 3.281008 0.086127 -0.023234 -0.009021
    19 0.000000 0.000001 2.688646 0.064973 -0.027356 -0.007994
    20 0.000001 0.000000 1.713443 0.047790 -0.006322 -0.001410
    21 0.146424 1.721204 -1.673858 2.857094 1.366213 -1.957974
    22 -0.000001 0.000000 3.209387 0.040434 0.078585 0.023030
    23 0.000000 0.000001 1.943288 0.247981 -0.029962 -0.007493
    24 0.000000 -0.000001 1.241907 -0.036137 0.049495 -0.000144
    25 0.000000 10.746529 0.000000 0.000000 0.000000 0.000000
    26 -2.328150 0.000000 0.000000 3.141593 0.000000 0.000000
    27 -8.600150 0.022796 0.051090 4.054351 0.180918 -2.420113
    28 0.000021 10.075568 0.000001 0.844565 0.173254 0.084694
    29 0.000001 17.373682 0.000001 0.061813 0.032357 -0.165133
    30 -0.679044 0.802172 1.783101 1.379125 -0.413168 -2.735892
    31 0.000001 -0.000001 2.508970 0.215589 0.055065 -0.003400
    32 0.000000 -0.000002 1.809535 0.179447 -0.031042 -0.272878
    33 -0.219778 1.615330 1.611036 -0.507118 -1.408360 -1.183618
    34 -0.000001 -0.000002 3.981597 0.151191 -0.161620 -0.065498
    35 0.000001 0.000000 2.375986 0.234800 0.017327 0.006859
    36 0.000000 0.000000 1.603096 0.491378 -0.070386 -0.010803
    37 0.091868 1.886060 0.634828 0.225351 -1.479415 -1.717487
    38 0.000000 0.000000 3.698122 0.748955 0.000067 -0.105910
    39 -0.000001 0.000001 2.366730 1.076290 -0.170774 0.211724
    40 0.000001 0.000001 2.035123 0.812749 0.006524 0.001049
    41 0.156257 1.870642 -0.501948 0.843336 -1.484879 4.089479
    42 -0.000001 -0.000001 3.281011 1.257853 0.086288 0.083556
    43 -0.000001 0.000000 2.688646 1.593630 0.027354 0.007994
    44 -0.000001 0.000000 1.713443 0.702341 0.006321 0.001410
    45 -0.146424 1.721204 -1.673859 0.805537 -1.397850 -1.795553
    46 0.000000 0.000001 3.209387 1.326215 -0.108319 0.040200
    47 0.000000 0.000000 1.943288 1.790948 0.029962 0.007493
    48 0.000000 0.000000 1.241909 0.398957 -0.049494 0.000143
    49 0.000002 10.746529 0.000001 0.000000 0.000000 0.000000
    50 -3.539171 61.832206 28.028975 1.020675 -0.147650 -0.402697
  time 8
    0 4.339844 -0.796875 -72.062500 1.570792 0.000005 -0.000005
    1 0.000000 65.928001 -3.788860 0.000000 0.000000 0.000000
    2 2.328150 0.000000 0.000000 0.000000 0.000000 0.000000
    3 8.600150 -0.022797 -0.051090 -0.118690 0.048663 -2.754282
    4 0.000000 10.075568 -0.000001 0.494195 -0.191051 -0.051355
    5 0.000002 17.373682 0.000000 -0.398738 0.000000 -0.387177
    6 0.679043 0.802172 1.783102 0.791590 0.071443 2.826561
    7 0.000000 -0.000002 2.508970 0.072756 -0.055066 0.003400
    8 0.000000 0.000001 1.809536 -0.111299 0.000383 -0.005249
    9 0.219777 1.615330 1.611036 -0.507118 1.408360 1.183619
    10 0.000000 -0.000002 3.981597 0.133173 0.103205 0.057575
    11 0.000000 0.000000 2.375985 0.224937 -0.017328 -0.006860
    12 0.000001 -0.000001 1.603097 0.127704 0.070387 0.010803
    13 -0.091869 1.886059 0.634829 2.654201 1.561694 -1.957970
    14 0.000000 0.000000 3.698122 0.152287 0.016828 0.008921
    15 0.000000 0.000001 2.366730 0.175839 -0.002247 -0.000783
    16 0.000001 -0.000001 2.035123 -0.089638 -0.006525 -0.001049
    17 -0.156257 1.870642 -0.501948 2.771319 1.427761 -1.957975
    18 0.000000 0.000001 3.281008 0.086127 -0.023234 -0.009021
    19 0.000000 0.000001 2.688646 0.064973 -0.027356 -0.007994
    20 0.000001 0.000000 1.713443 0.047790 -0.006322 -0.001410
    21 0.146424 1.721204 -1.673858 2.857094 1.366213 -1.957974
    22 -0.000001 0.000000 3.209387 0.040434 0.078585 0.023030
    23 0.000000 0.000001 1.943288 0.247981 -0.029962 -0.007493
    24 0.000000 -0.000001 1.241907 -0.036137 0.049495 -0.000144
    25 0.000000 10.746529 0.000000 0.000000 0.000000 0.000000
    26 -2.328150 0.000000 0.000000 3.141593 0.000000 0.000000
    27 -8.600150 0.022796 0.051090 4.054252 0.180930 -2.420130
    28 0.000021 10.075568 0.000001 0.844757 0.173254 0.084706
    29 0.000001 17.373682 0.000001 0.061756 0.032428 -0.165190
    30 -0.679044 0.802172 1.783101 1.379125 -0.413168 -2.735892
    31 0.000001 -0.000001 2.508970 0.215589 0.055065 -0.003400
    32 0.000000 -0.000002 1.809535 0.179447 -0.031042 -0.272878
    33 -0.219778 1.615330 1.611036 -0.507118 -1.408360 -1.183618
    34 -0.000001 -0.000002 3.981597 0.151191 -0.161620 -0.065498
    35 0.000001 0.000000 2.375986 0.234800 0.017327 0.006859
    36 0.000000 0.000000 1.603096 0.491378 -0.070386 -0.010803
    37 0.091868 1.886060 0.634828 0.225351 -1.479415 -1.717487
    38 0.000000 0.000000 3.698122 0.748955 0.000067 -0.105910
    39 -0.000001 0.000001 2.366730 1.076290 -0.170774 0.211724
    40 0.000001 0.000001 2.035123 0.812749 0.006524 0.001049
    41 0.156257 1.870642 -0.501948 0.843336 -1.484879 4.089479
    42 -0.000001 -0.000001 3.281011 1.257853 0.086288 0.083556
    43 -0.000001 0.000000 2.688646 1.593630 0.027354 0.007994
    44 -0.000001 0.000000 1.713443 0.702341 0.006321 0.001410
    45 -0.146424 1.721204 -1.673859 0.805537 -1.397850 -1.795553
    46 0.000000 0.000001 3.209387 1.326255 -0.108319 0.040200
    47 0.000000 0.000000 1.943288 1.790948 0.029962 0.007493
    48 0.000000 0.000000 1.241909 0.398957 -0.049494 0.000143
    49 0.000002 10.746529 0.000001 0.000000 0.000000 0.000000
    50 -3.539171 61.832206 28.028975 1.020675 -0.147650 -0.402608
  time 9
    0 4.339844 -0.796875 -72.062500 1.570792 0.000005 -0.000005
    1 0.000000 65.928001 -3.788860 0.000000 0.000000 0.000000
    2 2.328150 0.000000 0.000000 0.000000 0.000000 0.000000
    3 8.600150 -0.022797 -0.051090 -0.118690 0.048663 -2.754282
    4 0.000000 10.075568 -0.000001 0.494195 -0.191051 -0.051355
    5 0.000002 17.373682 0.000000 -0.398738 0.000000 -0.387177
    6 0.679043 0.802172 1.783102 0.791590 0.071443 2.826561
    7 0.000000 -0.000002 2.508970 0.072756 -0.055066 0.003400
    8 0.000000 0.000001 1.809536 -0.111299 0.000383 -0.005249
    9 0.219777 1.615330 1.611036 -0.507118 1.408360 1.183619
    10 0.000000 -0.000002 3.981597 0.133173 0.103205 0.057575
    11 0.000000 0.000000 2.375985 0.224937 -0.017328 -0.006860
    12 0.000001 -0.000001 1.603097 0.127704 0.070387 0.010803
    13 -0.091869 1.886059 0.634829 2.654201 1.561694 -1.957970
    14 0.000000 0.000000 3.698122 0.152287 0.016828 0.008921
    15 0.000000 0.000001 2.366730 0.175839 -0.002247 -0.000783
    16 0.000001 -0.000001 2.035123 -0.089638 -0.006525 -0.001049
    17 -0.156257 1.870642 -0.501948 2.771319 1.427761 -1.957975
    18 0.000000 0.000001 3.281008 0.086127 -0.023234 -0.009021
    19 0.000000 0.000001 2.688646 0.064973 -0.027356 -0.007994
    20 0.000001 0.000000 1.713443 0.047790 -0.006322 -0.001410
    21 0.146424 1.721204 -1.673858 2.857094 1.366213 -1.957974
    22 -0.000001 0.000000 3.209387 0.040434 0.078585 0.023030
    23 0.000000 0.000001 1.943288 0.247981 -0.029962 -0.007493
    24 0.000000 -0.000001 1.241907 -0.036137 0.049495 -0.000144
    25 0.000000 10.746529 0.000000 0.000000 0.000000 0.000000
    26 -2.328150 0.000000 0.000000 3.141593 0.000000 0.000000
    27 -8.600150 0.022796 0.051090 4.054119 0.180943 -2.420130
    28 0.000021 10.075568 0.000001 0.844923 0.173242 0.084730
    29 0.000001 17.373682 0.000001 0.061700 0.032499 -0.165190
    30 -0.679044 0.802172 1.783101 1.379125 -0.413168 -2.735892
    31 0.000001 -0.000001 2.508970 0.215589 0.055065 -0.003400
    32 0.000000 -0.000002 1.809535 0.179447 -0.031042 -0.272878
    33 -0.219778 1.615330 1.611036 -0.507118 -1.408360 -1.183618
    34 -0.000001 -0.000002 3.981597 0.151191 -0.161620 -0.065498
    35 0.000001 0.000000 2.375986 0.234800 0.017327 0.006859
    36 0.000000 0.000000 1.603096 0.491378 -0.070386 -0.010803
    37 0.091868 1.886060 0.634828 0.225351 -1.479415 -1.717487
    38 0.000000 0.000000 3.698122 0.748955 0.000067 -0.105910
    39 -0.000001 0.000001 2.366730 1.076290 -0.170774 0.211724
    40 0.000001 0.000001 2.035123 0.812749 0.006524 0.001049
    41 0.156257 1.870642 -0.501948 0.843336 -1.484879 4.089479
    42 -0.000001 -0.000001 3.281011 1.257853 0.086288 0.083556
    43 -0.000001 0.000000 2.688646 1.593630 0.027354 0.007994
    44 -0.000001 0.000000 1.713443 0.702341 0.006321 0.001410
    45 -0.146424 1.721204 -1.673859 0.805537 -1.397850 -1.795553
    46 0.000000 0.000001 3.209387 1.326255 -0.108319 0.040200
    47 0.000000 0.000000 1.943288 1.790948 0.029962 0.007493
    48 0.000000 0.000000 1.241909 0.398957 -0.049494 0.000143
    49 0.000002 10.746529 0.000001 0.000000 0.000000 0.000000
    50 -3.539171 61.832206 28.028975 1.020675 -0.147650 -0.402520
  time 10
    0 4.339844 -0.796875 -72.062500 1.570792 0.000005 -0.000005
    1 0.000000 65.928001 -3.788860 0.000000 0.000000 0.000000
    2 2.328150 0.000000 0.000000 0.000000 0.000000 0.000000
    3 8.600150 -0.022797 -0.051090 -0.118690 0.048663 -2.754282
    4 0.000000 10.075568 -0.000001 0.494195 -0.191051 -0.051355
    5 0.000002 17.373682 0.000000 -0.398738 0.000000 -0.387177
    6 0.679043 0.802172 1.783102 0.791590 0.071443 2.826561
    7 0.000000 -0.000002 2.508970 0.072756 -0.055066 0.003400
    8 0.000000 0.000001 1.809536 -0.111299 0.000383 -0.005249
    9 0.219777 1.615330 1.611036 -0.507118 1.408360 1.183619
    10 0.000000 -0.000002 3.981597 0.133173 0.103205 0.057575
    11 0.000000 0.000000 2.375985 0.224937 -0.017328 -0.006860
    12 0.000001 -0.000001 1.603097 0.127704 0.070387 0.010803
    13 -0.091869 1.886059 0.634829 2.654201 1.561694 -1.957970
    14 0.000000 0.000000 3.698122 0.152287 0.016828 0.008921
    15 0.000000 0.000001 2.366730 0.175839 -0.002247 -0.000783
    16 0.000001 -0.000001 2.035123 -0.089638 -0.006525 -0.001049
    17 -0.156257 1.870642 -0.501948 2.771319 1.427761 -1.957975
    18 0.000000 0.000001 3.281008 0.086127 -0.023234 -0.009021
    19 0.000000 0.000001 2.688646 0.064973 -0.027356 -0.007994
    20 0.000001 0.000000 1.713443 0.047790 -0.006322 -0.001410
    21 0.146424 1.721204 -1.673858 2.857094 1.366213 -1.957974
    22 -0.000001 0.000000 3.209387 0.040434 0.078585 0.023030
    23 0.000000 0.000001 1.943288 0.247981 -0.029962 -0.007493
    24 0.000000 -0.000001 1.241907 -0.036137 0.049495 -0.000144
    25 0.000000 10.746529 0.000000 0.000000 0.000000 0.000000
    26 -2.328150 0.000000 0.000000 3.141593 0.000000 0.000000
    27 -8.600150 0.022796 0.051090 4.054020 0.180956 -2.420146
    28 0.000021 10.075568 0.000001 0.845088 0.173230 0.084742
    29 0.000001 17.373682 0.000001 0.061643 0.032605 -0.165246
    30 -0.679044 0.802172 1.783101 1.379125 -0.413168 -2.735892
    31 0.000001 -0.000001 2.508970 0.215589 0.055065 -0.003400
    32 0.000000 -0.000002 1.809535 0.179447 -0.031042 -0.272878
    33 -0.219778 1.615330 1.611036 -0.507118 -1.408360 -1.183618
    34 -0.000001 -0.000002 3.981597 0.151191 -0.161620 -0.065498
    35 0.000001 0.000000 2.375986 0.234800 0.017327 0.006859
    36 0.000000 0.000000 1.603096 0.491378 -0.070386 -0.010803
    37 0.091868 1.886060 0.634828 0.225351 -1.479415 -1.717487
    38 0.000000 0.000000 3.698122 0.748955 0.000067 -0.105910
    39 -0.000001 0.000001 2.366730 1.076290 -0.170774 0.211724
    40 0.000001 0.000001 2.035123 0.812749 0.006524 0.001049
    41 0.156257 1.870642 -0.501948 0.843336 -1.484879 4.089479
    42 -0.000001 -0.000001 3.281011 1.257853 0.086288 0.083556
    43 -0.000001 0.000000 2.688646 1.593630 0.027354 0.007994
    44 -0.000001 0.000000 1.713443 0.702341 0.006321 0.001410
    45 -0.146424 1.721204 -1.673859 0.805537 -1.397850 -1.795553
    46 0.000000 0.000001 3.209387 1.326215 -0.108319 0.040200
    47 0.000000 0.000000 1.943288 1.790995 0.029962 0.007493
    48 0.000000 0.000000 1.241909 0.398957 -0.049494 0.000143
    49 0.000002 10.746529 0.000001 0.000000 0.000000 0.000000
    50 -3.539171 61.832206 28.025069 1.020675 -0.147650 -0.402432
  time 11
    0 4.339844 -0.796875 -72.062500 1.570792 0.000005 -0.000005
    1 0.000000 65.928001 -3.788860 0.000000 0.000000 0.000000
    2 2.328150 0.000000 0.000000 0.000000 0.000000 0.000000
    3 8.600150 -0.022797 -0.051090 -0.118690 0.048663 -2.754282
    4 0.000000 10.075568 -0.000001 0.494195 -0.191051 -0.051355
    5 0.000002 17.373682 0.000000 -0.398738 0.000000 -0.387177
    6 0.679043 0.802172 1.783102 0.791590 0.071443 2.826561
    7 0.000000 -0.000002 2.508970 0.072756 -0.055066 0.003400
    8 0.000000 0.000001 1.809536 -0.111299 0.000383 -0.005249
    9 0.219777 1.615330 1.611036 -0.507118 1.408360 1.183619
    10 0.000000 -0.000002 3.981597 0.133173 0.103205 0.057575
    11 0.000000 0.000000 2.375985 0.224937 -0.017328 -0.006860
    12 0.000001 -0.000001 1.603097 0.127704 0.070387 0.010803
    13 -0.091869 1.886059 0.634829 2.654201 1.561694 -1.957970
    14 0.000000 0.000000 3.698122 0.152287 0.016828 0.008921
    15 0.000000 0.000001 2.366730 0.175839 -0.002247 -0.000783
    16 0.000001 -0.000001 2.035123 -0.089638 -0.006525 -0.001049
    17 -0.156257 1.870642 -0.501948 2.771319 1.427761 -1.957975
    18 0.000000 0.000001 3.281008 0.086127 -0.023234 -0.009021
    19 0.000000 0.000001 2.688646 0.064973 -0.027356 -0.007994
    20 0.000001 0.000000 1.713443 0.047790 -0.006322 -0.001410
    21 0.146424 1.721204 -1.673858 2.857094 1.366213 -1.957974
    22 -0.000001 0.000000 3.209387 0.040434 0.078585 0.023030
    23 0.000000 0.000001 1.943288 0.247981 -0.029962 -0.007493
    24 0.000000 -0.000001 1.241907 -0.036137 0.049495 -0.000144
    25 0.000000 10.746529 0.000000 0.000000 0.000000 0.000000
    26 -2.328150 0.000000 0.000000 3.141593 0.000000 0.000000
    27 -8.600150 0.022796 0.051090 4.053920 0.180968 -2.420163
    28 0.000021 10.075568 0.000001 0.845226 0.173230 0.084754
    29 0.000001 17.373682 0.000001 0.061587 0.032676 -0.165246
    30 -0.679044 0.802172 1.783101 1.379125 -0.413168 -2.735892
    31 0.000001 -0.000001 2.508970 0.215589 0.055065 -0.003400
    32 0.000000 -0.000002 1.809535 0.179447 -0.031042 -0.272878
    33 -0.219778 1.615330 1.611036 -0.507118 -1.408360 -1.183618
    34 -0.000001 -0.000002 3.981597 0.151191 -0.161620 -0.065498
    35 0.000001 0.000000 2.375986 0.234800 0.017327 0.006859
    36 0.000000 0.000000 1.603096 0.491378 -0.070386 -0.010803
    37 0.091868 1.886060 0.634828 0.225351 -1.479415 -1.717487
    38 0.000000 0.000000 3.698122 0.748955 0.000067 -0.105910
    39 -0.000001 0.000001 2.366730 1.076330 -0.170774 0.211724
    40 0.000001 0.000001 2.035123 0.812749 0.006524 0.001049
    41 0.156257 1.870642 -0.501948 0.843336 -1.484879 4.089479
    42 -0.000001 -0.000001 3.281011 1.257853 0.086288 0.083556
    43 -0.000001 0.000000 2.688646 1.593630 0.027354 0.007994
    44 -0.000001 0.000000 1.713443 0.702341 0.006321 0.001410
    45 -0.146424 1.721204 -1.673859 0.805537 -1.397850 -1.795553
    46 0.000000 0.000001 3.209387 1.326215 -0.108319 0.040200
    47 0.000000 0.000000 1.943288 1.790948 0.029962 0.007493
    48 0.000000 0.000000 1.241909 0.398957 -0.049494 0.000143
    49 0.000002 10.746529 0.000001 0.000000 0.000000 0.000000
    50 -3.539171 61.832206 28.025069 1.020675 -0.147650 -0.402299
  time 12
    0 4.339844 -0.796875 -72.062500 1.570792 0.000005 -0.000005
    1 0.000000 65.928001 -3.788860 0.000000 0.000000 0.000000
    2 2.328150 0.000000 0.000000 0.000000 0.000000 0.000000
    3 8.600150 -0.022797 -0.051090 -0.118690 0.048663 -2.754282
    4 0.000000 10.075568 -0.000001 0.494195 -0.191051 -0.051355
    5 0.000002 17.373682 0.000000 -0.398738 0.000000 -0.387177
    6 0.679043 0.802172 1.783102 0.791590 0.071443 2.826561
    7 0.000000 -0.000002 2.508970 0.072756 -0.055066 0.003400
    8 0.000000 0.000001 1.809536 -0.111299 0.000383 -0.005249
    9 0.219777 1.615330 1.611036 -0.507118 1.408360 1.183619
    10 0.000000 -0.000002 3.981597 0.133173 0.103205 0.057575
    11 0.000000 0.000000 2.375985 0.224937 -0.017328 -0.006860
    12 0.000001 -0.000001 1.603097 0.127704 0.070387 0.010803
    13 -0.091869 1.886059 0.634829 2.654201 1.561694 -1.957970
    14 0.000000 0.000000 3.698122 0.152287 0.016828 0.008921
    15 0.000000 0.000001 2.366730 0.175839 -0.002247 -0.000783
    16 0.000001 -0.000001 2.035123 -0.089638 -0.006525 -0.001049
    17 -0.156257 1.870642 -0.501948 2.771319 1.427761 -1.957975
    18 0.000000 0.000001 3.281008 0.086127 -0.023234 -0.009021
    19 0.000000 0.000001 2.688646 0.064973 -0.027356 -0.007994
    20 0.000001 0.000000 1.713443 0.047790 -0.006322 -0.001410
    21 0.146424 1.721204 -1.673858 2.857094 1.366213 -1.957974
    22 -0.000001 0.000000 3.209387 0.040434 0.078585 0.023030
    23 0.000000 0.000001 1.943288 0.247981 -0.029962 -0.007493
    24 0.000000 -0.000001 1.241907 -0.036137 0.049495 -0.000144
    25 0.000000 10.746529 0.000000 0.000000 0.000000 0.000000
    26 -2.328150 0.000000 0.000000 3.141593 0.000000 0.000000
    27 -8.600150 0.022796 0.051090 4.053821 0.180981 -2.420163
    28 0.000021 10.075568 0.000001 0.845363 0.173218 0.084766
    29 0.000001 17.373682 0.000001 0.061587 0.032747 -0.165303
    30 -0.679044 0.802172 1.783101 1.379125 -0.413168 -2.735892
    31 0.000001 -0.000001 2.508970 0.215589 0.055065 -0.003400
    32 0.000000 -0.000002 1.809535 0.179447 -0.031042 -0.272878
    33 -0.219778 1.615330 1.611036 -0.507118 -1.408360 -1.183618
    34 -0.000001 -0.000002 3.981597 0.151191 -0.161620 -0.065498
    35 0.000001 0.000000 2.375986 0.234800 0.017327 0.006859
    36 0.000000 0.000000 1.603096 0.491378 -0.070386 -0.010803
    37 0.091868 1.886060 0.634828 0.225351 -1.479415 -1.717487
    38 0.000000 0.000000 3.698122 0.748955 0.000067 -0.105910
    39 -0.000001 0.000001 2.366730 1.076290 -0.170774 0.211724
    40 0.000001 0.000001 2.035123 0.812749 0.006524 0.001049
    41 0.156257 1.870642 -0.501948 0.843336 -1.484879 4.089479
    42 -0.000001 -0.000001 3.281011 1.257853 0.086288 0.083556
    43 -0.000001 0.000000 2.688646 1.593630 0.027354 0.007994
    44 -0.000001 0.000000 1.713443 0.702341 0.006321 0.001410
    45 -0.146424 1.721204 -1.673859 0.805537 -1.397850 -1.795553
    46 0.000000 0.000001 3.209387 1.326215 -0.108319 0.040200
    47 0.000000 0.000000 1.943288 1.790948 0.029962 0.007493
    48 0.000000 0.000000 1.241909 0.398957 -0.049494 0.000143
    49 0.000002 10.746529 0.000001 0.000000 0.000000 0.000000
    50 -3.539171 61.836112 28.025069 1.020675 -0.147662 -0.402255
  time 13
    0 4.339844 -0.796875 -72.062500 1.570792 0.000005 -0.000005
    1 0.000000 65.928001 -3.788860 0.000000 0.000000 0.000000
    2 2.328150 0.000000 0.000000 0.000000 0.000000 0.000000
    3 8.600150 -0.022797 -0.051090 -0.118690 0.048663 -2.754282
    4 0.000000 10.075568 -0.000001 0.494195 -0.191051 -0.051355
    5 0.000002 17.373682 0.000000 -0.398738 0.000000 -0.387177
    6 0.679043 0.802172 1.783102 0.791590 0.071443 2.826561
    7 0.000000 -0.000002 2.508970 0.072756 -0.055066 0.003400
    8 0.000000 0.000001 1.809536 -0.111299 0.000383 -0.005249
    9 0.219777 1.615330 1.611036 -0.507118 1.408360 1.183619
    10 0.000000 -0.000002 3.981597 0.133173 0.103205 0.057575
    11 0.000000 0.000000 2.375985 0.224937 -0.017328 -0.006860
    12 0.000001 -0.000001 1.603097 0.127704 0.070387 0.010803
    13 -0.091869 1.886059 0.634829 2.654201 1.561694 -1.957970
    14 0.000000 0.000000 3.698122 0.152287 0.016828 0.008921
    15 0.000000 0.000001 2.366730 0.175839 -0.002247 -0.000783
    16 0.000001 -0.000001 2.035123 -0.089638 -0.006525 -0.001049
    17 -0.156257 1.870642 -0.501948 2.771319 1.427761 -1.957975
    18 0.000000 0.000001 3.281008 0.086127 -0.023234 -0.009021
    19 0.000000 0.000001 2.688646 0.064973 -0.027356 -0.007994
    20 0.000001 0.000000 1.713443 0.047790 -0.006322 -0.001410
    21 0.146424 1.721204 -1.673858 2.857094 1.366213 -1.957974
    22 -0.000001 0.000000 3.209387 0.040434 0.078585 0.023030
    23 0.000000 0.000001 1.943288 0.247981 -0.029962 -0.007493
    24 0.000000 -0.000001 1.241907 -0.036137 0.049495 -0.000144
    25 0.000000 10.746529 0.000000 0.000000 0.000000 0.000000
    26 -2.328150 0.000000 0.000000 3.141593 0.000000 0.000000
    27 -8.600150 0.022796 0.051090 4.053755 0.180993 -2.420180
    28 0.000021 10.075568 0.000001 0.845446 0.173218 0.084778
    29 0.000001 17.373682 0.000001 0.061587 0.032783 -0.165303
    30 -0.679044 0.802172 1.783101 1.379125 -0.413168 -2.735892
    31 0.000001 -0.000001 2.508970 0.215589 0.055065 -0.003400
    32 0.000000 -0.000002 1.809535 0.179447 -0.031042 -0.272878
    33 -0.219778 1.615330 1.611036 -0.507118 -1.408360 -1.183618
    34 -0.000001 -0.000002 3.981597 0.151191 -0.161620 -0.065498
    35 0.000001 0.000000 2.375986 0.234800 0.017327 0.006859
    36 0.000000 0.000000 1.603096 0.491378 -0.070386 -0.010803
    37 0.091868 1.886060 0.634828 0.225351 -1.479415 -1.717487
    38 0.000000 0.000000 3.698122 0.748955 0.000067 -0.105910
    39 -0.000001 0.000001 2.366730 1.076330 -0.170774 0.211724
    40 0.000001 0.000001 2.035123 0.812749 0.006524 0.001049
    41 0.156257 1.870642 -0.501948 0.843336 -1.484879 4.089479
    42 -0.000001 -0.000001 3.281011 1.257853 0.086288 0.083556
    43 -0.000001 0.000000 2.688646 1.593630 0.027354 0.007994
    44 -0.000001 0.000000 1.713443 0.702341 0.006321 0.001410
    45 -0.146424 1.721204 -1.673859 0.805537 -1.397850 -1.795553
    46 0.000000 0.000001 3.209387 1.326255 -0.108319 0.040200
    47 0.000000 0.000000 1.943288 1.790948 0.029962 0.007493
    48 0.000000 0.000000 1.241909 0.398957 -0.049494 0.000143
    49 0.000002 10.746529 0.000001 0.000000 0.000000 0.000000
    50 -3.539171 61.836112 28.025069 1.020675 -0.147662 -0.402167
  time 14
    0 4.339844 -0.796875 -72.062500 1.570792 0.000005 -0.000005
    1 0.000000 65.928001 -3.788860 0.000000 0.000000 0.000000
    2 2.328150 0.000000 0.000000 0.000000 0.000000 0.000000
    3 8.600150 -0.022797 -0.051090 -0.118690 0.048663 -2.754282
    4 0.000000 10.075568 -0.000001 0.494195 -0.191051 -0.051355
    5 0.000002 17.373682 0.000000 -0.398738 0.000000 -0.387177
    6 0.679043 0.802172 1.783102 0.791590 0.071443 2.826561
    7 0.000000 -0.000002 2.508970 0.072756 -0.055066 0.003400
    8 0.000000 0.000001 1.809536 -0.111299 0.000383 -0.005249
    9 0.219777 1.615330 1.611036 -0.507118 1.408360 1.183619
    10 0.000000 -0.000002 3.981597 0.133173 0.103205 0.057575
    11 0.000000 0.000000 2.375985 0.224937 -0.017328 -0.006860
    12 0.000001 -0.000001 1.603097 0.127704 0.070387 0.010803
    13 -0.091869 1.886059 0.634829 2.654201 1.561694 -1.957970
    14 0.000000 0.000000 3.698122 0.152287 0.016828 0.008921
    15 0.000000 0.000001 2.366730 0.175839 -0.002247 -0.000783
    16 0.000001 -0.000001 2.035123 -0.089638 -0.006525 -0.001049
    17 -0.156257 1.870642 -0.501948 2.771319 1.427761 -1.957975
    18 0.000000 0.000001 3.281008 0.086127 -0.023234 -0.009021
    19 0.000000 0.000001 2.688646 0.064973 -0.027356 -0.007994
    20 0.000001 0.000000 1.713443 0.047790 -0.006322 -0.001410
    21 0.146424 1.721204 -1.673858 2.857094 1.366213 -1.957974
    22 -0.000001 0.000000 3.209387 0.040434 0.078585 0.023030
    23 0.000000 0.000001 1.943288 0.247981 -0.029962 -0.007493
    24 0.000000 -0.000001 1.241907 -0.036137 0.049495 -0.000144
    25 0.000000 10.746529 0.000000 0.000000 0.000000 0.000000
    26 -2.328150 0.000000 0.000000 3.141593 0.000000 0.000000
    27 -8.600150 0.022796 0.051090 4.053721 0.181006 -2.420196
    28 0.000021 10.075568 0.000001 0.845501 0.173206 0.084778
    29 0.000001 17.373682 0.000001 0.061531 0.032854 -0.165303
    30 -0.679044 0.802172 1.783101 1.379125 -0.413168 -2.735892
    31 0.000001 -0.000001 2.508970 0.215589 0.055065 -0.003400
    32 0.000000 -0.000002 1.809535 0.179447 -0.031042 -0.272878
    33 -0.219778 1.615330 1.611036 -0.507118 -1.408360 -1.183618
    34 -0.000001 -0.000002 3.981597 0.151191 -0.161620 -0.065498
    35 0.000001 0.000000 2.375986 0.234800 0.017327 0.006859
    36 0.000000 0.000000 1.603096 0.491378 -0.070386 -0.010803
    37 0.091868 1.886060 0.634828 0.225351 -1.479415 -1.717487
    38 0.000000 0.000000 3.698122 0.748955 0.000067 -0.105910
    39 -0.000001 0.000001 2.366730 1.076330 -0.170774 0.211724
    40 0.000001 0.000001 2.035123 0.812749 0.006524 0.001049
    41 0.156257 1.870642 -0.501948 0.843336 -1.484879 4.089479
    42 -0.000001 -0.000001 3.281011 1.257853 0.086288 0.083556
    43 -0.000001 0.000000 2.688646 1.593630 0.027354 0.007994
    44 -0.000001 0.000000 1.713443 0.702341 0.006321 0.001410
    45 -0.146424 1.721204 -1.673859 0.805537 -1.397850 -1.795553
    46 0.000000 0.000001 3.209387 1.326215 -0.108319 0.040200
    47 0.000000 0.000000 1.943288 1.790948 0.029962 0.007493
    48 0.000000 0.000000 1.241909 0.398957 -0.049494 0.000143
    49 0.000002 10.746529 0.000001 0.000000 0.000000 0.000000
    50 -3.539171 61.836112 28.025069 1.020675 -0.147662 -0.402079
  time 15
    0 4.339844 -0.796875 -72.062500 1.570792 0.000005 -0.000005
    1 0.000000 65.928001 -3.788860 0.000000 0.000000 0.000000
    2 2.328150 0.000000 0.000000 0.000000 0.000000 0.000000
    3 8.600150 -0.022797 -0.051090 -0.118690 0.048663 -2.754282
    4 0.000000 10.075568 -0.000001 0.494195 -0.191051 -0.051355
    5 0.000002 17.373682 0.000000 -0.398738 0.000000 -0.387177
    6 0.679043 0.802172 1.783102 0.791590 0.071443 2.826561
    7 0.000000 -0.000002 2.508970 0.072756 -0.055066 0.003400
    8 0.000000 0.000001 1.809536 -0.111299 0.000383 -0.005249
    9 0.219777 1.615330 1.611036 -0.507118 1.408360 1.183619
    10 0.000000 -0.000002 3.981597 0.133173 0.103205 0.057575
    11 0.000000 0.000000 2.375985 0.224937 -0.017328 -0.006860
    12 0.000001 -0.000001 1.603097 0.127704 0.070387 0.010803
    13 -0.091869 1.886059 0.634829 2.654201 1.561694 -1.957970
    14 0.000000 0.000000 3.698122 0.152287 0.016828 0.008921
    15 0.000000 0.000001 2.366730 0.175839 -0.002247 -0.000783
    16 0.000001 -0.000001 2.035123 -0.089638 -0.006525 -0.001049
    17 -0.156257 1.870642 -0.501948 2.771319 1.427761 -1.957975
    18 0.000000 0.000001 3.281008 0.086127 -0.023234 -0.009021
    19 0.000000 0.000001 2.688646 0.064973 -0.027356 -0.007994
    20 0.000001 0.000000 1.713443 0.047790 -0.006322 -0.001410
    21 0.146424 1.721204 -1.673858 2.857094 1.366213 -1.957974
    22 -0.000001 0.000000 3.209387 0.040434 0.078585 0.023030
    23 0.000000 0.000001 1.943288 0.247981 -0.029962 -0.007493
    24 0.000000 -0.000001 1.241907 -0.036137 0.049495 -0.000144
    25 0.000000 10.746529 0.000000 0.000000 0.000000 0.000000
    26 -2.328150 0.000000 0.000000 3.141593 0.000000 0.000000
    27 -8.600150 0.022796 0.051090 4.053688 0.181019 -2.420196
    28 0.000021 10.075568 0.000001 0.845501 0.173206 0.084778
    29 0.000001 17.373682 0.000001 0.061587 0.032889 -0.165303
    30 -0.679044 0.802172 1.783101 1.379125 -0.413168 -2.735892
    31 0.000001 -0.000001 2.508970 0.215589 0.055065 -0.003400
    32 0.000000 -0.000002 1.809535 0.179447 -0.031042 -0.272878
    33 -0.219778 1.615330 1.611036 -0.507118 -1.408360 -1.183618
    34 -0.000001 -0.000002 3.981597 0.151191 -0.161620 -0.065498
    35 0.000001 0.000000 2.375986 0.234800 0.017327 0.006859
    36 0.000000 0.000000 1.603096 0.491378 -0.070386 -0.010803
    37 0.091868 1.886060 0.634828 0.225351 -1.479415 -1.717487
    38 0.000000 0.000000 3.698122 0.748955 0.000067 -0.105910
    39 -0.000001 0.000001 2.366730 1.076330 -0.170774 0.211724
    40 0.000001 0.000001 2.035123 0.812749 0.006524 0.001049
    41 0.156257 1.870642 -0.501948 0.843336 -1.484879 4.089544
    42 -0.000001 -0.000001 3.281011 1.257853 0.086288 0.083556
    43 -0.000001 0.000000 2.688646 1.593630 0.027354 0.007994
    44 -0.000001 0.000000 1.713443 0.702341 0.006321 0.001410
    45 -0.146424 1.721204 -1.673859 0.805537 -1.397850 -1.795553
    46 0.000000 0.000001 3.209387 1.326255 -0.108319 0.040200
    47 0.000000 0.000000 1.943288 1.790948 0.029962 0.007493
    48 0.000000 0.000000 1.241909 0.398957 -0.049494 0.000143
    49 0.000002 10.746529 0.000001 0.000000 0.000000 0.000000
    50 -3.539171 61.836112 28.025069 1.020675 -0.147662 -0.402035
  time 16
    0 4.339844 -0.796875 -72.062500 1.570792 0.000005 -0.000005
    1 0.000000 65.928001 -3.788860 0.000000 0.000000 0.000000
    2 2.328150 0.000000 0.000000 0.000000 0.000000 0.000000
    3 8.600150 -0.022797 -0.051090 -0.118690 0.048663 -2.754282
    4 0.000000 10.075568 -0.000001 0.494195 -0.191051 -0.051355
    5 0.000002 17.373682 0.000000 -0.398738 0.000000 -0.387177
    6 0.679043 0.802172 1.783102 0.791590 0.071443 2.826561
    7 0.000000 -0.000002 2.508970 0.072756 -0.055066 0.003400
    8 0.000000 0.000001 1.809536 -0.111299 0.000383 -0.005249
    9 0.219777 1.615330 1.611036 -0.507118 1.408360 1.183619
    10 0.000000 -0.000002 3.981597 0.133173 0.103205 0.057575
    11 0.000000 0.000000 2.375985 0.224937 -0.017328 -0.006860
    12 0.000001 -0.000001 1.603097 0.127704 0.070387 0.010803
    13 -0.091869 1.886059 0.634829 2.654201 1.561694 -1.957970
    14 0.000000 0.000000 3.698122 0.152287 0.016828 0.008921
    15 0.000000 0.000001 2.366730 0.175839 -0.002247 -0.000783
    16 0.000001 -0.000001 2.035123 -0.089638 -0.006525 -0.001049
    17 -0.156257 1.870642 -0.501948 2.771319 1.427761 -1.957975
    18 0.000000 0.000001 3.281008 0.086127 -0.023234 -0.009021
    19 0.000000 0.000001 2.688646 0.064973 -0.027356 -0.007994
    20 0.000001 0.000000 1.713443 0.047790 -0.006322 -0.001410
    21 0.146424 1.721204 -1.673858 2.857094 1.366213 -1.957974
    22 -0.000001 0.000000 3.209387 0.040434 0.078585 0.023030
    23 0.000000 0.000001 1.943288 0.247981 -0.029962 -0.007493
    24 0.000000 -0.000001 1.241907 -0.036137 0.049495 -0.000144
    25 0.000000 10.746529 0.000000 0.000000 0.000000 0.000000
    26 -2.328150 0.000000 0.000000 3.141593 0.000000 0.000000
    27 -8.600150 0.022796 0.051090 4.053721 0.181031 -2.420213
    28 0.000021 10.075568 0.000001 0.845473 0.173218 0.084778
    29 0.000001 17.373682 0.000001 0.061587 0.032925 -0.165360
    30 -0.679044 0.802172 1.783101 1.379125 -0.413168 -2.735892
    31 0.000001 -0.000001 2.508970 0.215589 0.055065 -0.003400
    32 0.000000 -0.000002 1.809535 0.179447 -0.031042 -0.272878
    33 -0.219778 1.615330 1.611036 -0.507118 -1.408360 -1.183618
    34 -0.000001 -0.000002 3.981597 0.151191 -0.161620 -0.065498
    35 0.000001 0.000000 2.375986 0.234800 0.017327 0.006859
    36 0.000000 0.000000 1.603096 0.491378 -0.070386 -0.010803
    37 0.091868 1.886060 0.634828 0.225351 -1.479415 -1.717487
    38 0.000000 0.000000 3.698122 0.748955 0.000067 -0.105910
    39 -0.000001 0.000001 2.366730 1.076290 -0.170774 0.211724
    40 0.000001 0.000001 2.035123 0.812749 0.006524 0.001049
    41 0.156257 1.870642 -0.501948 0.843336 -1.484879 4.089479
    42 -0.000001 -0.000001 3.281011 1.257853 0.086288 0.083556
    43 -0.000001 0.000000 2.688646 1.593630 0.027354 0.007994
    44 -0.000001 0.000000 1.713443 0.702341 0.006321 0.001410
    45 -0.146424 1.721204 -1.673859 0.805537 -1.397850 -1.795553
    46 0.000000 0.000001 3.209387 1.326255 -0.108319 0.040200
    47 0.000000 0.000000 1.943288 1.790948 0.029962 0.007493
    48 0.000000 0.000000 1.241909 0.398957 -0.049494 0.000143
    49 0.000002 10.746529 0.000001 0.000000 0.000000 0.000000
    50 -3.539171 61.836112 28.025069 1.020675 -0.147662 -0.402035
  time 17
    0 4.339844 -0.796875 -72.062500 1.570792 0.000005 -0.000005
    1 0.000000 65.928001 -3.788860 0.000000 0.000000 0.000000
    2 2.328150 0.000000 0.000000 0.000000 0.000000 0.000000
    3 8.600150 -0.022797 -0.051090 -0.118690 0.048663 -2.754282
    4 0.000000 10.075568 -0.000001 0.494195 -0.191051 -0.051355
    5 0.000002 17.373682 0.000000 -0.398738 0.000000 -0.387177
    6 0.679043 0.802172 1.783102 0.791590 0.071443 2.826561
    7 0.000000 -0.000002 2.508970 0.072756 -0.055066 0.003400
    8 0.000000 0.000001 1.809536 -0.111299 0.000383 -0.005249
    9 0.219777 1.615330 1.611036 -0.507118 1.408360 1.183619
    10 0.000000 -0.000002 3.981597 0.133173 0.103205 0.057575
    11 0.000000 0.000000 2.375985 0.224937 -0.017328 -0.006860
    12 0.000001 -0.000001 1.603097 0.127704 0.070387 0.010803
    13 -0.091869 1.886059 0.634829 2.654201 1.561694 -1.957970
    14 0.000000 0.000000 3.698122 0.152287 0.016828 0.008921
    15 0.000000 0.000001 2.366730 0.175839 -0.002247 -0.000783
    16 0.000001 -0.000001 2.035123 -0.089638 -0.006525 -0.001049
    17 -0.156257 1.870642 -0.501948 2.771319 1.427761 -1.957975
    18 0.000000 0.000001 3.281008 0.086127 -0.023234 -0.009021
    19 0.000000 0.000001 2.688646 0.064973 -0.027356 -0.007994
    20 0.000001 0.000000 1.713443 0.047790 -0.006322 -0.001410
    21 0.146424 1.721204 -1.673858 2.857094 1.366213 -1.957974
    22 -0.000001 0.000000 3.209387 0.040434 0.078585 0.023030
    23 0.000000 0.000001 1.943288 0.247981 -0.029962 -0.007493
    24 0.000000 -0.000001 1.241907 -0.036137 0.049495 -0.000144
    25 0.000000 10.746529 0.000000 0.000000 0.000000 0.000000
    26 -2.328150 0.000000 0.000000 3.141593 0.000000 0.000000
    27 -8.600150 0.022796 0.051090 4.053755 0.181031 -2.420213
    28 0.000021 10.075568 0.000001 0.845363 0.173218 0.084766
    29 0.000001 17.373682 0.000001 0.061643 0.032925 -0.165360
    30 -0.679044 0.802172 1.783101 1.379125 -0.413168 -2.735892
    31 0.000001 -0.000001 2.508970 0.215589 0.055065 -0.003400
    32 0.000000 -0.000002 1.809535 0.179447 -0.031042 -0.272878
    33 -0.219778 1.615330 1.611036 -0.507118 -1.408360 -1.183618
    34 -0.000001 -0.000002 3.981597 0.151191 -0.161620 -0.065498
    35 0.000001 0.000000 2.375986 0.234800 0.017327 0.006859
    36 0.000000 0.000000 1.603096 0.491378 -0.070386 -0.010803
    37 0.091868 1.886060 0.634828 0.225351 -1.479415 -1.717487
    38 0.000000 0.000000 3.698122 0.748955 0.000067 -0.105910
    39 -0.000001 0.000001 2.366730 1.076290 -0.170774 0.211724
    40 0.000001 0.000001 2.035123 0.812749 0.006524 0.001049
    41 0.156257 1.870642 -0.501948 0.843336 -1.484879 4.089479
    42 -0.000001 -0.000001 3.281011 1.257853 0.086288 0.083556
    43 -0.000001 0.000000 2.688646 1.593630 0.027354 0.007994
    44 -0.000001 0.000000 1.713443 0.702341 0.006321 0.001410
    45 -0.146424 1.721204 -1.673859 0.805537 -1.397850 -1.795553
    46 0.000000 0.000001 3.209387 1.326215 -0.108319 0.040200
    47 0.000000 0.000000 1.943288 1.790948 0.029962 0.007493
    48 0.000000 0.000000 1.241909 0.398957 -0.049494 0.000143
    49 0.000002 10.746529 0.000001 0.000000 0.000000 0.000000
    50 -3.539171 61.832206 28.025069 1.020675 -0.147662 -0.402035
  time 18
    0 4.339844 -0.796875 -72.062500 1.570792 0.000005 -0.000005
    1 0.000000 65.928001 -3.788860 0.000000 0.000000 0.000000
    2 2.328150 0.000000 0.000000 0.000000 0.000000 0.000000
    3 8.600150 -0.022797 -0.051090 -0.118690 0.048663 -2.754282
    4 0.000000 10.075568 -0.000001 0.494195 -0.191051 -0.051355
    5 0.000002 17.373682 0.000000 -0.398738 0.000000 -0.387177
    6 0.679043 0.802172 1.783102 0.791590 0.071443 2.826561
    7 0.000000 -0.000002 2.508970 0.072756 -0.055066 0.003400
    8 0.000000 0.000001 1.809536 -0.111299 0.000383 -0.005249
    9 0.219777 1.615330 1.611036 -0.507118 1.408360 1.183619
    10 0.000000 -0.000002 3.981597 0.133173 0.103205 0.057575
    11 0.000000 0.000000 2.375985 0.224937 -0.017328 -0.006860
    12 0.000001 -0.000001 1.603097 0.127704 0.070387 0.010803
    13 -0.091869 1.886059 0.634829 2.654201 1.561694 -1.957970
    14 0.000000 0.000000 3.698122 0.152287 0.016828 0.008921
    15 0.000000 0.000001 2.366730 0.175839 -0.002247 -0.000783
    16 0.000001 -0.000001 2.035123 -0.089638 -0.006525 -0.001049
    17 -0.156257 1.870642 -0.501948 2.771319 1.427761 -1.957975
    18 0.000000 0.000001 3.281008 0.086127 -0.023234 -0.009021
    19 0.000000 0.000001 2.688646 0.064973 -0.027356 -0.007994
    20 0.000001 0.000000 1.713443 0.047790 -0.006322 -0.001410
    21 0.146424 1.721204 -1.673858 2.857094 1.366213 -1.957974
    22 -0.000001 0.000000 3.209387 0.040434 0.078585 0.023030
    23 0.000000 0.000001 1.943288 0.247981 -0.029962 -0.007493
    24 0.000000 -0.000001 1.241907 -0.036137 0.049495 -0.000144
    25 0.000000 10.746529 0.000000 0.000000 0.000000 0.000000
    26 -2.328150 0.000000 0.000000 3.141593 0.000000 0.000000
    27 -8.600150 0.022796 0.051090 4.053821 0.181031 -2.420213
    28 0.000021 10.075568 0.000001 0.845253 0.173218 0.084754
    29 0.000001 17.373682 0.000001 0.061700 0.032889 -0.165303
    30 -0.679044 0.802172 1.783101 1.379125 -0.413168 -2.735892
    31 0.000001 -0.000001 2.508970 0.215589 0.055065 -0.003400
    32 0.000000 -0.000002 1.809535 0.179447 -0.031042 -0.272878
    33 -0.219778 1.615330 1.611036 -0.507118 -1.408360 -1.183618
    34 -0.000001 -0.000002 3.981597 0.151191 -0.161620 -0.065498
    35 0.000001 0.000000 2.375986 0.234800 0.017327 0.006859
    36 0.000000 0.000000 1.603096 0.491378 -0.070386 -0.010803
    37 0.091868 1.886060 0.634828 0.225351 -1.479415 -1.717487
    38 0.000000 0.000000 3.698122 0.748955 0.000067 -0.105910
    39 -0.000001 0.000001 2.366730 1.076290 -0.170774 0.211724
    40 0.000001 0.000001 2.035123 0.812749 0.006524 0.001049
    41 0.156257 1.870642 -0.501948 0.843336 -1.484879 4.089479
    42 -0.000001 -0.000001 3.281011 1.257853 0.086288 0.083556
    43 -0.000001 0.000000 2.688646 1.593630 0.027354 0.007994
    44 -0.000001 0.000000 1.713443 0.702341 0.006321 0.001410
    45 -0.146424 1.721204 -1.673859 0.805537 -1.397850 -1.795553
    46 0.000000 0.000001 3.209387 1.326255 -0.108319 0.040200
    47 0.000000 0.000000 1.943288 1.790948 0.029962 0.007493
    48 0.000000 0.000000 1.241909 0.398957 -0.049494 0.000143
    49 0.000002 10.746529 0.000001 0.000000 0.000000 0.000000
    50 -3.539171 61.832206 28.025069 1.020675 -0.147662 -0.402035
  time 19
    0 4.339844 -0.796875 -72.062500 1.570792 0.000005 -0.000005
    1 0.000000 65.928001 -3.788860 0.000000 0.000000 0.000000
    2 2.328150 0.000000 0.000000 0.000000 0.000000 0.000000
    3 8.600150 -0.022797 -0.051090 -0.118690 0.048663 -2.754282
    4 0.000000 10.075568 -0.000001 0.494195 -0.191051 -0.051355
    5 0.000002 17.373682 0.000000 -0.398738 0.000000 -0.387177
    6 0.679043 0.802172 1.783102 0.791590 0.071443 2.826561
    7 0.000000 -0.000002 2.508970 0.072756 -0.055066 0.003400
    8 0.000000 0.000001 1.809536 -0.111299 0.000383 -0.005249
    9 0.219777 1.615330 1.611036 -0.507118 1.408360 1.183619
    10 0.000000 -0.000002 3.981597 0.133173 0.103205 0.057575
    11 0.000000 0.000000 2.375985 0.224937 -0.017328 -0.006860
    12 0.000001 -0.000001 1.603097 0.127704 0.070387 0.010803
    13 -0.091869 1.886059 0.634829 2.654201 1.561694 -1.957970
    14 0.000000 0.000000 3.698122 0.152287 0.016828 0.008921
    15 0.000000 0.000001 2.366730 0.175839 -0.002247 -0.000783
    16 0.000001 -0.000001 2.035123 -0.089638 -0.006525 -0.001049
    17 -0.156257 1.870642 -0.501948 2.771319 1.427761 -1.957975
    18 0.000000 0.000001 3.281008 0.086127 -0.023234 -0.009021
    19 0.000000 0.000001 2.688646 0.064973 -0.027356 -0.007994
    20 0.000001 0.000000 1.713443 0.047790 -0.006322 -0.001410
    21 0.146424 1.721204 -1.673858 2.857094 1.366213 -1.957974
    22 -0.000001 0.000000 3.209387 0.040434 0.078585 0.023030
    23 0.000000 0.000001 1.943288 0.247981 -0.029962 -0.007493
    24 0.000000 -0.000001 1.241907 -0.036137 0.049495 -0.000144
    25 0.000000 10.746529 0.000000 0.000000 0.000000 0.000000
    26 -2.328150 0.000000 0.000000 3.141593 0.000000 0.000000
    27 -8.600150 0.022796 0.051090 4.053920 0.181031 -2.420213
    28 0.000021 10.075568 0.000001 0.845088 0.173230 0.084742
    29 0.000001 17.373682 0.000001 0.061756 0.032854 -0.165303
    30 -0.679044 0.802172 1.783101 1.379125 -0.413168 -2.735892
    31 0.000001 -0.000001 2.508970 0.215589 0.055065 -0.003400
    32 0.000000 -0.000002 1.809535 0.179447 -0.031042 -0.272878
    33 -0.219778 1.615330 1.611036 -0.507118 -1.408360 -1.183618
    34 -0.000001 -0.000002 3.981597 0.151191 -0.161620 -0.065498
    35 0.000001 0.000000 2.375986 0.234800 0.017327 0.006859
    36 0.000000 0.000000 1.603096 0.491378 -0.070386 -0.010803
    37 0.091868 1.886060 0.634828 0.225351 -1.479415 -1.717487
    38 0.000000 0.000000 3.698122 0.748955 0.000067 -0.105910
    39 -0.000001 0.000001 2.366730 1.076330 -0.170774 0.211724
    40 0.000001 0.000001 2.035123 0.812749 0.006524 0.001049
    41 0.156257 1.870642 -0.501948 0.843336 -1.484879 4.089479
    42 -0.000001 -0.000001 3.281011 1.257853 0.086288 0.083556
    43 -0.000001 0.000000 2.688646 1.593630 0.027354 0.007994
    44 -0.000001 0.000000 1.713443 0.702341 0.006321 0.001410
    45 -0.146424 1.721204 -1.673859 0.805537 -1.397850 -1.795553
    46 0.000000 0.000001 3.209387 1.326255 -0.108319 0.040200
    47 0.000000 0.000000 1.943288 1.790948 0.029962 0.007493
    48 0.000000 0.000000 1.241909 0.398957 -0.049494 0.000143
    49 0.000002 10.746529 0.000001 0.000000 0.000000 0.000000
    50 -3.539171 61.832206 28.025069 1.020675 -0.147662 -0.402123
  time 20
    0 4.339844 -0.796875 -72.062500 1.570792 0.000005 -0.000005
    1 0.000000 65.928001 -3.788860 0.000000 0.000000 0.000000
    2 2.328150 0.000000 0.000000 0.000000 0.000000 0.000000
    3 8.600150 -0.022797 -0.051090 -0.118690 0.048663 -2.754282
    4 0.000000 10.075568 -0.000001 0.494195 -0.191051 -0.051355
    5 0.000002 17.373682 0.000000 -0.398738 0.000000 -0.387177
    6 0.679043 0.802172 1.783102 0.791590 0.071443 2.826561
    7 0.000000 -0.000002 2.508970 0.072756 -0.055066 0.003400
    8 0.000000 0.000001 1.809536 -0.111299 0.000383 -0.005249
    9 0.219777 1.615330 1.611036 -0.507118 1.408360 1.183619
    10 0.000000 -0.000002 3.981597 0.133173 0.103205 0.057575
    11 0.000000 0.000000 2.375985 0.224937 -0.017328 -0.006860
    12 0.000001 -0.000001 1.603097 0.127704 0.070387 0.010803
    13 -0.091869 1.886059 0.634829 2.654201 1.561694 -1.957970
    14 0.000000 0.000000 3.698122 0.152287 0.016828 0.008921
    15 0.000000 0.000001 2.366730 0.175839 -0.002247 -0.000783
    16 0.000001 -0.000001 2.035123 -0.089638 -0.006525 -0.001049
    17 -0.156257 1.870642 -0.501948 2.771319 1.427761 -1.957975
    18 0.000000 0.000001 3.281008 0.086127 -0.023234 -0.009021
    19 0.000000 0.000001 2.688646 0.064973 -0.027356 -0.007994
    20 0.000001 0.000000 1.713443 0.047790 -0.006322 -0.001410
    21 0.146424 1.721204 -1.673858 2.857094 1.366213 -1.957974
    22 -0.000001 0.000000 3.209387 0.040434 0.078585 0.023030
    23 0.000000 0.000001 1.943288 0.247981 -0.029962 -0.007493
    24 0.000000 -0.000001 1.241907 -0.036137 0.049495 -0.000144
    25 0.000000 10.746529 0.000000 0.000000 0.000000 0.000000
    26 -2.328150 0.000000 0.000000 3.141593 0.000000 0.000000
    27 -8.600150 0.022796 0.051090 4.054020 0.181019 -2.420213
    28 0.000021 10.075568 0.000001 0.844923 0.173242 0.084730
    29 0.000001 17.373682 0.000001 0.061813 0.032747 -0.165303
    30 -0.679044 0.802172 1.783101 1.379125 -0.413168 -2.735892
    31 0.000001 -0.000001 2.508970 0.215589 0.055065 -0.003400
    32 0.000000 -0.000002 1.809535 0.179447 -0.031042 -0.272878
    33 -0.219778 1.615330 1.611036 -0.507118 -1.408360 -1.183618
    34 -0.000001 -0.000002 3.981597 0.151191 -0.161620 -0.065498
    35 0.000001 0.000000 2.375986 0.234800 0.017327 0.006859
    36 0.000000 0.000000 1.603096 0.491378 -0.070386 -0.010803
    37 0.091868 1.886060 0.634828 0.225351 -1.479415 -1.717487
    38 0.000000 0.000000 3.698122 0.748955 0.000067 -0.105910
    39 -0.000001 0.000001 2.366730 1.076290 -0.170774 0.211724
    40 0.000001 0.000001 2.035123 0.812749 0.006524 0.001049
    41 0.156257 1.870642 -0.501948 0.843336 -1.484879 4.089479
    42 -0.000001 -0.000001 3.281011 1.257853 0.086288 0.083556
    43 -0.000001 0.000000 2.688646 1.593630 0.027354 0.007994
    44 -0.000001 0.000000 1.713443 0.702341 0.006321 0.001410
    45 -0.146424 1.721204 -1.673859 0.805537 -1.397850 -1.795553
    46 0.000000 0.000001 3.209387 1.326215 -0.108319 0.040200
    47 0.000000 0.000000 1.943288 1.790995 0.029962 0.007493
    48 0.000000 0.000000 1.241909 0.398957 -0.049494 0.000143
    49 0.000002 10.746529 0.000001 0.000000 0.000000 0.000000
    50 -3.539171 61.832206 28.025069 1.020675 -0.147662 -0.402211
  time 21
    0 4.339844 -0.796875 -72.062500 1.570792 0.000005 -0.000005
    1 0.000000 65.928001 -3.788860 0.000000 0.000000 0.000000
    2 2.328150 0.000000 0.000000 0.000000 0.000000 0.000000
    3 8.600150 -0.022797 -0.051090 -0.118690 0.048663 -2.754282
    4 0.000000 10.075568 -0.000001 0.494195 -0.191051 -0.051355
    5 0.000002 17.373682 0.000000 -0.398738 0.000000 -0.387177
    6 0.679043 0.802172 1.783102 0.791590 0.071443 2.826561
    7 0.000000 -0.000002 2.508970 0.072756 -0.055066 0.003400
    8 0.000000 0.000001 1.809536 -0.111299 0.000383 -0.005249
    9 0.219777 1.615330 1.611036 -0.507118 1.408360 1.183619
    10 0.000000 -0.000002 3.981597 0.133173 0.103205 0.057575
    11 0.000000 0.000000 2.375985 0.224937 -0.017328 -0.006860
    12 0.000001 -0.000001 1.603097 0.127704 0.070387 0.010803
    13 -0.091869 1.886059 0.634829 2.654201 1.561694 -1.957970
    14 0.000000 0.000000 3.698122 0.152287 0.016828 0.008921
    15 0.000000 0.000001 2.366730 0.175839 -0.002247 -0.000783
    16 0.000001 -0.000001 2.035123 -0.089638 -0.006525 -0.001049
    17 -0.156257 1.870642 -0.501948 2.771319 1.427761 -1.957975
    18 0.000000 0.000001 3.281008 0.086127 -0.023234 -0.009021
    19 0.000000 0.000001 2.688646 0.064973 -0.027356 -0.007994
    20 0.000001 0.000000 1.713443 0.047790 -0.006322 -0.001410
    21 0.146424 1.721204 -1.673858 2.857094 1.366213 -1.957974
    22 -0.000001 0.000000 3.209387 0.040434 0.078585 0.023030
    23 0.000000 0.000001 1.943288 0.247981 -0.029962 -0.007493
    24 0.000000 -0.000001 1.241907 -0.036137 0.049495 -0.000144
    25 0.000000 10.746529 0.000000 0.000000 0.000000 0.000000
    26 -2.328150 0.000000 0.000000 3.141593 0.000000 0.000000
    27 -8.600150 0.022796 0.051090 4.054152 0.181019 -2.420213
    28 0.000021 10.075568 0.000001 0.844730 0.173254 0.084706
    29 0.000001 17.373682 0.000001 0.061869 0.032641 -0.165246
    30 -0.679044 0.802172 1.783101 1.379125 -0.413168 -2.735892
    31 0.000001 -0.000001 2.508970 0.215589 0.055065 -0.003400
    32 0.000000 -0.000002 1.809535 0.179447 -0.031042 -0.272878
    33 -0.219778 1.615330 1.611036 -0.507118 -1.408360 -1.183618
    34 -0.000001 -0.000002 3.981597 0.151191 -0.161620 -0.065498
    35 0.000001 0.000000 2.375986 0.234800 0.017327 0.006859
    36 0.000000 0.000000 1.603096 0.491378 -0.070386 -0.010803
    37 0.091868 1.886060 0.634828 0.225351 -1.479415 -1.717487
    38 0.000000 0.000000 3.698122 0.748955 0.000067 -0.105910
    39 -0.000001 0.000001 2.366730 1.076330 -0.170774 0.211724
    40 0.000001 0.000001 2.035123 0.812749 0.006524 0.001049
    41 0.156257 1.870642 -0.501948 0.843336 -1.484879 4.089479
    42 -0.000001 -0.000001 3.281011 1.257853 0.086288 0.083556
    43 -0.000001 0.000000 2.688646 1.593630 0.027354 0.007994
    44 -0.000001 0.000000 1.713443 0.702341 0.006321 0.001410
    45 -0.146424 1.721204 -1.673859 0.805537 -1.397850 -1.795553
    46 0.000000 0.000001 3.209387 1.326215 -0.108319 0.040200
    47 0.000000 0.000000 1.943288 1.790948 0.029962 0.007493
    48 0.000000 0.000000 1.241909 0.398957 -0.049494 0.000143
    49 0.000002 10.746529 0.000001 0.000000 0.000000 0.000000
    50 -3.539171 61.828299 28.028975 1.020675 -0.147650 -0.402299
  time 22
    0 4.339844 -0.796875 -72.062500 1.570792 0.000005 -0.000005
    1 0.000000 65.928001 -3.788860 0.000000 0.000000 0.000000
    2 2.328150 0.000000 0.000000 0.000000 0.000000 0.000000
    3 8.600150 -0.022797 -0.051090 -0.118690 0.048663 -2.754282
    4 0.000000 10.075568 -0.000001 0.494195 -0.191051 -0.051355
    5 0.000002 17.373682 0.000000 -0.398738 0.000000 -0.387177
    6 0.679043 0.802172 1.783102 0.791590 0.071443 2.826561
    7 0.000000 -0.000002 2.508970 0.072756 -0.055066 0.003400
    8 0.000000 0.000001 1.809536 -0.111299 0.000383 -0.005249
    9 0.219777 1.615330 1.611036 -0.507118 1.408360 1.183619
    10 0.000000 -0.000002 3.981597 0.133173 0.103205 0.057575
    11 0.000000 0.000000 2.375985 0.224937 -0.017328 -0.006860
    12 0.000001 -0.000001 1.603097 0.127704 0.070387 0.010803
    13 -0.091869 1.886059 0.634829 2.654201 1.561694 -1.957970
    14 0.000000 0.000000 3.698122 0.152287 0.016828 0.008921
    15 0.000000 0.000001 2.366730 0.175839 -0.002247 -0.000783
    16 0.000001 -0.000001 2.035123 -0.089638 -0.006525 -0.001049
    17 -0.156257 1.870642 -0.501948 2.771319 1.427761 -1.957975
    18 0.000000 0.000001 3.281008 0.086127 -0.023234 -0.009021
    19 0.000000 0.000001 2.688646 0.064973 -0.027356 -0.007994
    20 0.000001 0.000000 1.713443 0.047790 -0.006322 -0.001410
    21 0.146424 1.721204 -1.673858 2.857094 1.366213 -1.957974
    22 -0.000001 0.000000 3.209387 0.040434 0.078585 0.023030
    23 0.000000 0.000001 1.943288 0.247981 -0.029962 -0.007493
    24 0.000000 -0.000001 1.241907 -0.036137 0.049495 -0.000144
    25 0.000000 10.746529 0.000000 0.000000 0.000000 0.000000
    26 -2.328150 0.000000 0.000000 3.141593 0.000000 0.000000
    27 -8.600150 0.022796 0.051090 4.054285 0.181006 -2.420213
    28 0.000021 10.075568 0.000001 0.844537 0.173266 0.084694
    29 0.000001 17.373682 0.000001 0.061982 0.032534 -0.165246
    30 -0.679044 0.802172 1.783101 1.379125 -0.413168 -2.735892
    31 0.000001 -0.000001 2.508970 0.215589 0.055065 -0.003400
    32 0.000000 -0.000002 1.809535 0.179447 -0.031042 -0.272878
    33 -0.219778 1.615330 1.611036 -0.507118 -1.408360 -1.183618
    34 -0.000001 -0.000002 3.981597 0.151191 -0.161620 -0.065498
    35 0.000001 0.000000 2.375986 0.234800 0.017327 0.006859
    36 0.000000 0.000000 1.603096 0.491378 -0.070386 -0.010803
    37 0.091868 1.886060 0.634828 0.225351 -1.479415 -1.717487
    38 0.000000 0.000000 3.698122 0.748955 0.000067 -0.105910
    39 -0.000001 0.000001 2.366730 1.076290 -0.170774 0.211724
    40 0.000001 0.000001 2.035123 0.812749 0.006524 0.001049
    41 0.156257 1.870642 -0.501948 0.843336 -1.484879 4.089479
    42 -0.000001 -0.000001 3.281011 1.257853 0.086288 0.083556
    43 -0.000001 0.000000 2.688646 1.593630 0.027354 0.007994
    44 -0.000001 0.000000 1.713443 0.702341 0.006321 0.001410
    45 -0.146424 1.721204 -1.673859 0.805537 -1.397850 -1.795553
    46 0.000000 0.000001 3.209387 1.326215 -0.108319 0.040200
    47 0.000000 0.000000 1.943288 1.790995 0.029962 0.007493
    48 0.000000 0.000000 1.241909 0.398957 -0.049494 0.000143
    49 0.000002 10.746529 0.000001 0.000000 0.000000 0.000000
    50 -3.539171 61.828299 28.028975 1.020675 -0.147650 -0.402432
  time 23
    0 4.339844 -0.796875 -72.062500 1.570792 0.000005 -0.000005
    1 0.000000 65.928001 -3.788860 0.000000 0.000000 0.000000
    2 2.328150 0.000000 0.000000 0.000000 0.000000 0.000000
    3 8.600150 -0.022797 -0.051090 -0.118690 0.048663 -2.754282
    4 0.000000 10.075568 -0.000001 0.494195 -0.191051 -0.051355
    5 0.000002 17.373682 0.000000 -0.398738 0.000000 -0.387177
    6 0.679043 0.802172 1.783102 0.791590 0.071443 2.826561
    7 0.000000 -0.000002 2.508970 0.072756 -0.055066 0.003400
    8 0.000000 0.000001 1.809536 -0.111299 0.000383 -0.005249
    9 0.219777 1.615330 1.611036 -0.507118 1.408360 1.183619
    10 0.000000 -0.000002 3.981597 0.133173 0.103205 0.057575
    11 0.000000 0.000000 2.375985 0.224937 -0.017328 -0.006860
    12 0.000001 -0.000001 1.603097 0.127704 0.070387 0.010803
    13 -0.091869 1.886059 0.634829 2.654201 1.561694 -1.957970
    14 0.000000 0.000000 3.698122 0.152287 0.016828 0.008921
    15 0.000000 0.000001 2.366730 0.175839 -0.002247 -0.000783
    16 0.000001 -0.000001 2.035123 -0.089638 -0.006525 -0.001049
    17 -0.156257 1.870642 -0.501948 2.771319 1.427761 -1.957975
    18 0.000000 0.000001 3.281008 0.086127 -0.023234 -0.009021
    19 0.000000 0.000001 2.688646 0.064973 -0.027356 -0.007994
    20 0.000001 0.000000 1.713443 0.047790 -0.006322 -0.001410
    21 0.146424 1.721204 -1.673858 2.857094 1.366213 -1.957974
    22 -0.000001 0.000000 3.209387 0.040434 0.078585 0.023030
    23 0.000000 0.000001 1.943288 0.247981 -0.029962 -0.007493
    24 0.000000 -0.000001 1.241907 -0.036137 0.049495 -0.000144
    25 0.000000 10.746529 0.000000 0.000000 0.000000 0.000000
    26 -2.328150 0.000000 0.000000 3.141593 0.000000 0.000000
    27 -8.600150 0.022796 0.051090 4.054384 0.181006 -2.420196
    28 0.000021 10.075568 0.000001 0.844317 0.173266 0.084670
    29 0.000001 17.373682 0.000001 0.062039 0.032428 -0.165190
    30 -0.679044 0.802172 1.783101 1.379125 -0.413168 -2.735892
    31 0.000001 -0.000001 2.508970 0.215589 0.055065 -0.003400
    32 0.000000 -0.000002 1.809535 0.179447 -0.031042 -0.272878
    33 -0.219778 1.615330 1.611036 -0.507118 -1.408360 -1.183618
    34 -0.000001 -0.000002 3.981597 0.151191 -0.161620 -0.065498
    35 0.000001 0.000000 2.375986 0.234800 0.017327 0.006859
    36 0.000000 0.000000 1.603096 0.491378 -0.070386 -0.010803
    37 0.091868 1.886060 0.634828 0.225351 -1.479415 -1.717487
    38 0.000000 0.000000 3.698122 0.748955 0.000067 -0.105910
    39 -0.000001 0.000001 2.366730 1.076330 -0.170774 0.211724
    40 0.000001 0.000001 2.035123 0.812749 0.006524 0.001049
    41 0.156257 1.870642 -0.501948 0.843336 -1.484879 4.089479
    42 -0.000001 -0.000001 3.281011 1.257853 0.086288 0.083556
    43 -0.000001 0.000000 2.688646 1.593630 0.027354 0.007994
    44 -0.000001 0.000000 1.713443 0.702341 0.006321 0.001410
    45 -0.146424 1.721204 -1.673859 0.805537 -1.397850 -1.795553
    46 0.000000 0.000001 3.209387 1.326215 -0.108319 0.040200
    47 0.000000 0.000000 1.943288 1.790948 0.029962 0.007493
    48 0.000000 0.000000 1.241909 0.398957 -0.049494 0.000143
    49 0.000002 10.746529 0.000001 0.000000 0.000000 0.000000
    50 -3.539171 61.828299 28.028975 1.020675 -0.147650 -0.402564
  time 24
    0 4.339844 -0.796875 -72.062500 1.570792 0.000005 -0.000005
    1 0.000000 65.928001 -3.788860 0.000000 0.000000 0.000000
    2 2.328150 0.000000 0.000000 0.000000 0.000000 0.000000
    3 8.600150 -0.022797 -0.051090 -0.118690 0.048663 -2.754282
    4 0.000000 10.075568 -0.000001 0.494195 -0.191051 -0.051355
    5 0.000002 17.373682 0.000000 -0.398738 0.000000 -0.387177
    6 0.679043 0.802172 1.783102 0.791590 0.071443 2.826561
    7 0.000000 -0.000002 2.508970 0.072756 -0.055066 0.003400
    8 0.000000 0.000001 1.809536 -0.111299 0.000383 -0.005249
    9 0.219777 1.615330 1.611036 -0.507118 1.408360 1.183619
    10 0.000000 -0.000002 3.981597 0.133173 0.103205 0.057575
    11 0.000000 0.000000 2.375985 0.224937 -0.017328 -0.006860
    12 0.000001 -0.000001 1.603097 0.127704 0.070387 0.010803
    13 -0.091869 1.886059 0.634829 2.654201 1.561694 -1.957970
    14 0.000000 0.000000 3.698122 0.152287 0.016828 0.008921
    15 0.000000 0.000001 2.366730 0.175839 -0.002247 -0.000783
    16 0.000001 -0.000001 2.035123 -0.089638 -0.006525 -0.001049
    17 -0.156257 1.870642 -0.501948 2.771319 1.427761 -1.957975
    18 0.000000 0.000001 3.281008 0.086127 -0.023234 -0.009021
    19 0.000000 0.000001 2.688646 0.064973 -0.027356 -0.007994
    20 0.000001 0.000000 1.713443 0.047790 -0.006322 -0.001410
    21 0.146424 1.721204 -1.673858 2.857094 1.366213 -1.957974
    22 -0.000001 0.000000 3.209387 0.040434 0.078585 0.023030
    23 0.000000 0.000001 1.943288 0.247981 -0.029962 -0.007493
    24 0.000000 -0.000001 1.241907 -0.036137 0.049495 -0.000144
    25 0.000000 10.746529 0.000000 0.000000 0.000000 0.000000
    26 -2.328150 0.000000 0.000000 3.141593 0.000000 0.000000
    27 -8.600150 0.022796 0.051090 4.054517 0.180993 -2.420196
    28 0.000021 10.075568 0.000001 0.844124 0.173278 0.084646
    29 0.000001 17.373682 0.000001 0.062095 0.032286 -0.165190
    30 -0.679044 0.802172 1.783101 1.379125 -0.413168 -2.735892
    31 0.000001 -0.000001 2.508970 0.215589 0.055065 -0.003400
    32 0.000000 -0.000002 1.809535 0.179447 -0.031042 -0.272878
    33 -0.219778 1.615330 1.611036 -0.507118 -1.408360 -1.183618
    34 -0.000001 -0.000002 3.981597 0.151191 -0.161620 -0.065498
    35 0.000001 0.000000 2.375986 0.234800 0.017327 0.006859
    36 0.000000 0.000000 1.603096 0.491378 -0.070386 -0.010803
    37 0.091868 1.886060 0.634828 0.225351 -1.479415 -1.717487
    38 0.000000 0.000000 3.698122 0.748955 0.000067 -0.105910
    39 -0.000001 0.000001 2.366730 1.076290 -0.170774 0.211724
    40 0.000001 0.000001 2.035123 0.812749 0.006524 0.001049
    41 0.156257 1.870642 -0.501948 0.843336 -1.484879 4.089479
    42 -0.000001 -0.000001 3.281011 1.257853 0.086288 0.083556
    43 -0.000001 0.000000 2.688646 1.593630 0.027354 0.007994
    44 -0.000001 0.000000 1.713443 0.702341 0.006321 0.001410
    45 -0.146424 1.721204 -1.673859 0.805537 -1.397850 -1.795553
    46 0.000000 0.000001 3.209387 1.326215 -0.108319 0.040200
    47 0.000000 0.000000 1.943288 1.790948 0.029962 0.007493
    48 0.000000 0.000000 1.241909 0.398957 -0.049494 0.000143
    49 0.000002 10.746529 0.000001 0.000000 0.000000 0.000000
    50 -3.539171 61.824393 28.028975 1.020675 -0.147650 -0.402741
  time 25
    0 4.339844 -0.796875 -72.062500 1.570792 0.000005 -0.000005
    1 0.000000 65.928001 -3.788860 0.000000 0.000000 0.000000
    2 2.328150 0.000000 0.000000 0.000000 0.000000 0.000000
    3 8.600150 -0.022797 -0.051090 -0.118690 0.048663 -2.754282
    4 0.000000 10.075568 -0.000001 0.494195 -0.191051 -0.051355
    5 0.000002 17.373682 0.000000 -0.398738 0.000000 -0.387177
    6 0.679043 0.802172 1.783102 0.791590 0.071443 2.826561
    7 0.000000 -0.000002 2.508970 0.072756 -0.055066 0.003400
    8 0.000000 0.000001 1.809536 -0.111299 0.000383 -0.005249
    9 0.219777 1.615330 1.611036 -0.507118 1.408360 1.183619
    10 0.000000 -0.000002 3.981597 0.133173 0.103205 0.057575
    11 0.000000 0.000000 2.375985 0.224937 -0.017328 -0.006860
    12 0.000001 -0.000001 1.603097 0.127704 0.070387 0.010803
    13 -0.091869 1.886059 0.634829 2.654201 1.561694 -1.957970
    14 0.000000 0.000000 3.698122 0.152287 0.016828 0.008921
    15 0.000000 0.000001 2.366730 0.175839 -0.002247 -0.000783
    16 0.000001 -0.000001 2.035123 -0.089638 -0.006525 -0.001049
    17 -0.156257 1.870642 -0.501948 2.771319 1.427761 -1.957975
    18 0.000000 0.000001 3.281008 0.086127 -0.023234 -0.009021
    19 0.000000 0.000001 2.688646 0.064973 -0.027356 -0.007994
    20 0.000001 0.000000 1.713443 0.047790 -0.006322 -0.001410
    21 0.146424 1.721204 -1.673858 2.857094 1.366213 -1.957974
    22 -0.000001 0.000000 3.209387 0.040434 0.078585 0.023030
    23 0.000000 0.000001 1.943288 0.247981 -0.029962 -0.007493
    24 0.000000 -0.000001 1.241907 -0.036137 0.049495 -0.000144
    25 0.000000 10.746529 0.000000 0.000000 0.000000 0.000000
    26 -2.328150 0.000000 0.000000 3.141593 0.000000 0.000000
    27 -8.600150 0.022796 0.051090 4.054616 0.180993 -2.420196
    28 0.000021 10.075568 0.000001 0.843959 0.173290 0.084634
    29 0.000001 17.373682 0.000001 0.062152 0.032179 -0.165133
    30 -0.679044 0.802172 1.783101 1.379125 -0.413168 -2.735892
    31 0.000001 -0.000001 2.508970 0.215589 0.055065 -0.003400
    32 0.000000 -0.000002 1.809535 0.179447 -0.031042 -0.272878
    33 -0.219778 1.615330 1.611036 -0.507118 -1.408360 -1.183618
    34 -0.000001 -0.000002 3.981597 0.151191 -0.161620 -0.065498
    35 0.000001 0.000000 2.375986 0.234800 0.017327 0.006859
    36 0.000000 0.000000 1.603096 0.491378 -0.070386 -0.010803
    37 0.091868 1.886060 0.634828 0.225351 -1.479415 -1.717487
    38 0.000000 0.000000 3.698122 0.748955 0.000067 -0.105910
    39 -0.000001 0.000001 2.366730 1.076330 -0.170774 0.211724
    40 0.000001 0.000001 2.035123 0.812749 0.006524 0.001049
    41 0.156257 1.870642 -0.501948 0.843336 -1.484879 4.089479
    42 -0.000001 -0.000001 3.281011 1.257853 0.086288 0.083556
    43 -0.000001 0.000000 2.688646 1.593630 0.027354 0.007994
    44 -0.000001 0.000000 1.713443 0.702341 0.006321 0.001410
    45 -0.146424 1.721204 -1.673859 0.805537 -1.397850 -1.795553
    46 0.000000 0.000001 3.209387 1.326255 -0.108319 0.040200
    47 0.000000 0.000000 1.943288 1.790948 0.029962 0.007493
    48 0.000000 0.000000 1.241909 0.398957 -0.049494 0.000143
    49 0.000002 10.746529 0.000001 0.000000 0.000000 0.000000
    50 -3.539171 61.824393 28.032881 1.020675 -0.147650 -0.402873
  time 26
    0 4.339844 -0.796875 -72.062500 1.570792 0.000005 -0.000005
    1 0.000000 65.928001 -3.788860 0.000000 0.000000 0.000000
    2 2.328150 0.000000 0.000000 0.000000 0.000000 0.000000
    3 8.600150 -0.022797 -0.051090 -0.118690 0.048663 -2.754282
    4 0.000000 10.075568 -0.000001 0.494195 -0.191051 -0.051355
    5 0.000002 17.373682 0.000000 -0.398738 0.000000 -0.387177
    6 0.679043 0.802172 1.783102 0.791590 0.071443 2.826561
    7 0.000000 -0.000002 2.508970 0.072756 -0.055066 0.003400
    8 0.000000 0.000001 1.809536 -0.111299 0.000383 -0.005249
    9 0.219777 1.615330 1.611036 -0.507118 1.408360 1.183619
    10 0.000000 -0.000002 3.981597 0.133173 0.103205 0.057575
    11 0.000000 0.000000 2.375985 0.224937 -0.017328 -0.006860
    12 0.000001 -0.000001 1.603097 0.127704 0.070387 0.010803
    13 -0.091869 1.886059 0.634829 2.654201 1.561694 -1.957970
    14 0.000000 0.000000 3.698122 0.152287 0.016828 0.008921
    15 0.000000 0.000001 2.366730 0.175839 -0.002247 -0.000783
    16 0.000001 -0.000001 2.035123 -0.089638 -0.006525 -0.001049
    17 -0.156257 1.870642 -0.501948 2.771319 1.427761 -1.957975
    18 0.000000 0.000001 3.281008 0.086127 -0.023234 -0.009021
    19 0.000000 0.000001 2.688646 0.064973 -0.027356 -0.007994
    20 0.000001 0.000000 1.713443 0.047790 -0.006322 -0.001410
    21 0.146424 1.721204 -1.673858 2.857094 1.366213 -1.957974
    22 -0.000001 0.000000 3.209387 0.040434 0.078585 0.023030
    23 0.000000 0.000001 1.943288 0.247981 -0.029962 -0.007493
    24 0.000000 -0.000001 1.241907 -0.036137 0.049495 -0.000144
    25 0.000000 10.746529 0.000000 0.000000 0.000000 0.000000
    26 -2.328150 0.000000 0.000000 3.141593 0.000000 0.000000
    27 -8.600150 0.022796 0.051090 4.054716 0.180981 -2.420196
    28 0.000021 10.075568 0.000001 0.843821 0.173302 0.084622
    29 0.000001 17.373682 0.000001 0.062208 0.032073 -0.165133
    30 -0.679044 0.802172 1.783101 1.379125 -0.413168 -2.735892
    31 0.000001 -0.000001 2.508970 0.215589 0.055065 -0.003400
    32 0.000000 -0.000002 1.809535 0.179447 -0.031042 -0.272878
    33 -0.219778 1.615330 1.611036 -0.507118 -1.408360 -1.183618
    34 -0.000001 -0.000002 3.981597 0.151191 -0.161620 -0.065498
    35 0.000001 0.000000 2.375986 0.234800 0.017327 0.006859
    36 0.000000 0.000000 1.603096 0.491378 -0.070386 -0.010803
    37 0.091868 1.886060 0.634828 0.225351 -1.479415 -1.717487
    38 0.000000 0.000000 3.698122 0.748955 0.000067 -0.105910
    39 -0.000001 0.000001 2.366730 1.076330 -0.170774 0.211724
    40 0.000001 0.000001 2.035123 0.812749 0.006524 0.001049
    41 0.156257 1.870642 -0.501948 0.843336 -1.484879 4.089479
    42 -0.000001 -0.000001 3.281011 1.257853 0.086288 0.083556
    43 -0.000001 0.000000 2.688646 1.593630 0.027354 0.007994
    44 -0.000001 0.000000 1.713443 0.702341 0.006321 0.001410
    45 -0.146424 1.721204 -1.673859 0.805537 -1.397850 -1.795553
    46 0.000000 0.000001 3.209387 1.326255 -0.108319 0.040200
    47 0.000000 0.000000 1.943288 1.790948 0.029962 0.007493
    48 0.000000 0.000000 1.241909 0.398957 -0.049494 0.000143
    49 0.000002 10.746529 0.000001 0.000000 0.000000 0.000000
    50 -3.539171 61.824393 28.032881 1.020675 -0.147650 -0.402961
  time 27
    0 4.339844 -0.796875 -72.062500 1.570792 0.000005 -0.000005
    1 0.000000 65.928001 -3.788860 0.000000 0.000000 0.000000
    2 2.328150 0.000000 0.000000 0.000000 0.000000 0.000000
    3 8.600150 -0.022797 -0.051090 -0.118690 0.048663 -2.754282
    4 0.000000 10.075568 -0.000001 0.494195 -0.191051 -0.051355
    5 0.000002 17.373682 0.000000 -0.398738 0.000000 -0.387177
    6 0.679043 0.802172 1.783102 0.791590 0.071443 2.826561
    7 0.000000 -0.000002 2.508970 0.072756 -0.055066 0.003400
    8 0.000000 0.000001 1.809536 -0.111299 0.000383 -0.005249
    9 0.219777 1.615330 1.611036 -0.507118 1.408360 1.183619
    10 0.000000 -0.000002 3.981597 0.133173 0.103205 0.057575
    11 0.000000 0.000000 2.375985 0.224937 -0.017328 -0.006860
    12 0.000001 -0.000001 1.603097 0.127704 0.070387 0.010803
    13 -0.091869 1.886059 0.634829 2.654201 1.561694 -1.957970
    14 0.000000 0.000000 3.698122 0.152287 0.016828 0.008921
    15 0.000000 0.000001 2.366730 0.175839 -0.002247 -0.000783
    16 0.000001 -0.000001 2.035123 -0.089638 -0.006525 -0.001049
    17 -0.156257 1.870642 -0.501948 2.771319 1.427761 -1.957975
    18 0.000000 0.000001 3.281008 0.086127 -0.023234 -0.009021
    19 0.000000 0.000001 2.688646 0.064973 -0.027356 -0.007994
    20 0.000001 0.000000 1.713443 0.047790 -0.006322 -0.001410
    21 0.146424 1.721204 -1.673858 2.857094 1.366213 -1.957974
    22 -0.000001 0.000000 3.209387 0.040434 0.078585 0.023030
    23 0.000000 0.000001 1.943288 0.247981 -0.029962 -0.007493
    24 0.000000 -0.000001 1.241907 -0.036137 0.049495 -0.000144
    25 0.000000 10.746529 0.000000 0.000000 0.000000 0.000000
    26 -2.328150 0.000000 0.000000 3.141593 0.000000 0.000000
    27 -8.600150 0.022796 0.051090 4.054782 0.180981 -2.420196
    28 0.000021 10.075568 0.000001 0.843684 0.173302 0.084610
    29 0.000001 17.373682 0.000001 0.062264 0.032001 -0.165133
    30 -0.679044 0.802172 1.783101 1.379125 -0.413168 -2.735892
    31 0.000001 -0.000001 2.508970 0.215589 0.055065 -0.003400
    32 0.000000 -0.000002 1.809535 0.179447 -0.031042 -0.272878
    33 -0.219778 1.615330 1.611036 -0.507118 -1.408360 -1.183618
    34 -0.000001 -0.000002 3.981597 0.151191 -0.161620 -0.065498
    35 0.000001 0.000000 2.375986 0.234800 0.017327 0.006859
    36 0.000000 0.000000 1.603096 0.491378 -0.070386 -0.010803
    37 0.091868 1.886060 0.634828 0.225351 -1.479415 -1.717487
    38 0.000000 0.000000 3.698122 0.748955 0.000067 -0.105910
    39 -0.000001 0.000001 2.366730 1.076330 -0.170774 0.211724
    40 0.000001 0.000001 2.035123 0.812749 0.006524 0.001049
    41 0.156257 1.870642 -0.501948 0.843336 -1.484879 4.089479
    42 -0.000001 -0.000001 3.281011 1.257853 0.086288 0.083556
    43 -0.000001 0.000000 2.688646 1.593630 0.027354 0.007994
    44 -0.000001 0.000000 1.713443 0.702341 0.006321 0.001410
    45 -0.146424 1.721204 -1.673859 0.805537 -1.397850 -1.795553
    46 0.000000 0.000001 3.209387 1.326215 -0.108319 0.040200
    47 0.000000 0.000000 1.943288 1.790948 0.029962 0.007493
    48 0.000000 0.000000 1.241909 0.398957 -0.049494 0.000143
    49 0.000002 10.746529 0.000001 0.000000 0.000000 0.000000
    50 -3.539171 61.824393 28.032881 1.020675 -0.147650 -0.403050
  time 28
    0 4.339844 -0.796875 -72.062500 1.570792 0.000005 -0.000005
    1 0.000000 65.928001 -3.788860 0.000000 0.000000 0.000000
    2 2.328150 0.000000 0.000000 0.000000 0.000000 0.000000
    3 8.600150 -0.022797 -0.051090 -0.118690 0.048663 -2.754282
    4 0.000000 10.075568 -0.000001 0.494195 -0.191051 -0.051355
    5 0.000002 17.373682 0.000000 -0.398738 0.000000 -0.387177
    6 0.679043 0.802172 1.783102 0.791590 0.071443 2.826561
    7 0.000000 -0.000002 2.508970 0.072756 -0.055066 0.003400
    8 0.000000 0.000001 1.809536 -0.111299 0.000383 -0.005249
    9 0.219777 1.615330 1.611036 -0.507118 1.408360 1.183619
    10 0.000000 -0.000002 3.981597 0.133173 0.103205 0.057575
    11 0.000000 0.000000 2.375985 0.224937 -0.017328 -0.006860
    12 0.000001 -0.000001 1.603097 0.127704 0.070387 0.010803
    13 -0.091869 1.886059 0.634829 2.654201 1.561694 -1.957970
    14 0.000000 0.000000 3.698122 0.152287 0.016828 0.008921
    15 0.000000 0.000001 2.366730 0.175839 -0.002247 -0.000783
    16 0.000001 -0.000001 2.035123 -0.089638 -0.006525 -0.001049
    17 -0.156257 1.870642 -0.501948 2.771319 1.427761 -1.957975
    18 0.000000 0.000001 3.281008 0.086127 -0.023234 -0.009021
    19 0.000000 0.000001 2.688646 0.064973 -0.027356 -0.007994
    20 0.000001 0.000000 1.713443 0.047790 -0.006322 -0.001410
    21 0.146424 1.721204 -1.673858 2.857094 1.366213 -1.957974
    22 -0.000001 0.000000 3.209387 0.040434 0.078585 0.023030
    23 0.000000 0.000001 1.943288 0.247981 -0.029962 -0.007493
    24 0.000000 -0.000001 1.241907 -0.036137 0.049495 -0.000144
    25 0.000000 10.746529 0.000000 0.000000 0.000000 0.000000
    26 -2.328150 0.000000 0.000000 3.141593 0.000000 0.000000
    27 -8.600150 0.022796 0.051090 4.054848 0.180981 -2.420180
    28 0.000021 10.075568 0.000001 0.843628 0.173302 0.084598
    29 0.000001 17.373682 0.000001 0.062321 0.031966 -0.165133
    30 -0.679044 0.802172 1.783101 1.379125 -0.413168 -2.735892
    31 0.000001 -0.000001 2.508970 0.215589 0.055065 -0.003400
    32 0.000000 -0.000002 1.809535 0.179447 -0.031042 -0.272878
    33 -0.219778 1.615330 1.611036 -0.507118 -1.408360 -1.183618
    34 -0.000001 -0.000002 3.981597 0.151191 -0.161620 -0.065498
    35 0.000001 0.000000 2.375986 0.234800 0.017327 0.006859
    36 0.000000 0.000000 1.603096 0.491378 -0.070386 -0.010803
    37 0.091868 1.886060 0.634828 0.225351 -1.479415 -1.717487
    38 0.000000 0.000000 3.698122 0.748955 0.000067 -0.105910
    39 -0.000001 0.000001 2.366730 1.076330 -0.170774 0.211724
    40 0.000001 0.000001 2.035123 0.812749 0.006524 0.001049
    41 0.156257 1.870642 -0.501948 0.843336 -1.484879 4.089479
    42 -0.000001 -0.000001 3.281011 1.257853 0.086288 0.083556
    43 -0.000001 0.000000 2.688646 1.593630 0.027354 0.007994
    44 -0.000001 0.000000 1.713443 0.702341 0.006321 0.001410
    45 -0.146424 1.721204 -1.673859 0.805537 -1.397850 -1.795553
    46 0.000000 0.000001 3.209387 1.326215 -0.108319 0.040200
    47 0.000000 0.000000 1.943288 1.790948 0.029962 0.007493
    48 0.000000 0.000000 1.241909 0.398957 -0.049494 0.000143
    49 0.000002 10.746529 0.000001 0.000000 0.000000 0.000000
    50 -3.539171 61.824393 28.032881 1.020675 -0.147650 -0.403138
  time 29
    0 4.339844 -0.796875 -72.062500 1.570792 0.000005 -0.000005
    1 0.000000 65.928001 -3.788860 0.000000 0.000000 0.000000
    2 2.328150 0.000000 0.000000 0.000000 0.000000 0.000000
    3 8.600150 -0.022797 -0.051090 -0.118690 0.048663 -2.754282
    4 0.000000 10.075568 -0.000001 0.494195 -0.191051 -0.051355
    5 0.000002 17.373682 0.000000 -0.398738 0.000000 -0.387177
    6 0.679043 0.802172 1.783102 0.791590 0.071443 2.826561
    7 0.000000 -0.000002 2.508970 0.072756 -0.055066 0.003400
    8 0.000000 0.000001 1.809536 -0.111299 0.000383 -0.005249
    9 0.219777 1.615330 1.611036 -0.507118 1.408360 1.183619
    10 0.000000 -0.000002 3.981597 0.133173 0.103205 0.057575
    11 0.000000 0.000000 2.375985 0.224937 -0.017328 -0.006860
    12 0.000001 -0.000001 1.603097 0.127704 0.070387 0.010803
    13 -0.091869 1.886059 0.634829 2.654201 1.561694 -1.957970
    14 0.000000 0.000000 3.698122 0.152287 0.016828 0.008921
    15 0.000000 0.000001 2.366730 0.175839 -0.002247 -0.000783
    16 0.000001 -0.000001 2.035123 -0.089638 -0.006525 -0.001049
    17 -0.156257 1.870642 -0.501948 2.771319 1.427761 -1.957975
    18 0.000000 0.000001 3.281008 0.086127 -0.023234 -0.009021
    19 0.000000 0.000001 2.688646 0.064973 -0.027356 -0.007994
    20 0.000001 0.000000 1.713443 0.047790 -0.006322 -0.001410
    21 0.146424 1.721204 -1.673858 2.857094 1.366213 -1.957974
    22 -0.000001 0.000000 3.209387 0.040434 0.078585 0.023030
    23 0.000000 0.000001 1.943288 0.247981 -0.029962 -0.007493
    24 0.000000 -0.000001 1.241907 -0.036137 0.049495 -0.000144
    25 0.000000 10.746529 0.000000 0.000000 0.000000 0.000000
    26 -2.328150 0.000000 0.000000 3.141593 0.000000 0.000000
    27 -8.600150 0.022796 0.051090 4.054848 0.180981 -2.420180
    28 0.000021 10.075568 0.000001 0.843601 0.173314 0.084598
    29 0.000001 17.373682 0.000001 0.062321 0.031930 -0.165076
    30 -0.679044 0.802172 1.783101 1.379125 -0.413168 -2.735892
    31 0.000001 -0.000001 2.508970 0.215589 0.055065 -0.003400
    32 0.000000 -0.000002 1.809535 0.179447 -0.031042 -0.272878
    33 -0.219778 1.615330 1.611036 -0.507118 -1.408360 -1.183618
    34 -0.000001 -0.000002 3.981597 0.151191 -0.161620 -0.065498
    35 0.000001 0.000000 2.375986 0.234800 0.017327 0.006859
    36 0.000000 0.000000 1.603096 0.491378 -0.070386 -0.010803
    37 0.091868 1.886060 0.634828 0.225351 -1.479415 -1.717487
    38 0.000000 0.000000 3.698122 0.748955 0.000067 -0.105910
    39 -0.000001 0.000001 2.366730 1.076290 -0.170774 0.211724
    40 0.000001 0.000001 2.035123 0.812749 0.006524 0.001049
    41 0.156257 1.870642 -0.501948 0.843336 -1.484879 4.089479
    42 -0.000001 -0.000001 3.281011 1.257853 0.086288 0.083556
    43 -0.000001 0.000000 2.688646 1.593630 0.027354 0.007994
    44 -0.000001 0.000000 1.713443 0.702341 0.006321 0.001410
    45 -0.146424 1.721204 -1.673859 0.805537 -1.397850 -1.795553
    46 0.000000 0.000001 3.209387 1.326215 -0.108319 0.040200
    47 0.000000 0.000000 1.943288 1.790995 0.029962 0.007493
    48 0.000000 0.000000 1.241909 0.398957 -0.049494 0.000143
    49 0.000002 10.746529 0.000001 0.000000 0.000000 0.000000
    50 -3.539171 61.820487 28.032881 1.020675 -0.147650 -0.403138
end
