// Created by Crowbar 0.74
version 1
nodes
  0 "moustrap_base" -1
  1 "bracket1" 0
  2 "spring" 0
  3 "snapper" 0
  4 "snapper_lip" 3
  5 "snapper_pin" 0
  6 "bracket4" 0
  7 "bracket5" 0
  8 "cheeze" 0
end
skeleton
  time 0
    0 0.000000 0.000000 0.000000 0.000000 0.000000 0.000000
    1 0.000000 0.000000 0.000000 0.000000 0.000000 0.000000
    2 0.000000 0.000000 0.000000 0.000000 0.000000 0.000000
    3 0.000000 0.000000 0.000000 0.000000 0.000000 0.000000
    4 0.000000 0.000000 0.000000 0.000000 0.000000 0.000000
    5 0.000000 0.000000 0.000000 0.000000 0.000000 0.000000
    6 0.000000 0.000000 0.000000 0.000000 0.000000 0.000000
    7 0.000000 0.000000 0.000000 0.000000 0.000000 0.000000
    8 0.000000 0.000000 0.000000 0.000000 0.000000 0.000000
end
triangles
  phy
    0 -3.612869 -7.583527 0.000000 0.039238 0.996035 -0.079841 0 0
    0 -3.612869 -7.583526 0.596730 0.039238 -0.996035 -0.079841 0 0
    0 -3.612892 7.563960 0.596730 -0.039238 -0.996035 -0.079841 0 0
  phy
    0 -3.612869 -7.583527 0.000000 0.039238 0.996035 -0.079841 0 0
    0 -3.612892 7.563960 0.596730 -0.039238 -0.996035 -0.079841 0 0
    0 -3.612892 7.563960 0.000000 -0.039238 0.996035 -0.079841 0 0
  phy
    0 3.831461 -7.583516 0.000000 0.038869 0.986645 0.158177 0 0
    0 -3.612869 -7.583527 0.000000 0.039238 0.996035 -0.079841 0 0
    0 3.831438 7.563971 0.000000 -0.039333 0.998425 0.040016 0 0
  phy
    0 3.831438 7.563971 0.000000 -0.039333 0.998425 0.040016 0 0
    0 -3.612869 -7.583527 0.000000 0.039238 0.996035 -0.079841 0 0
    0 -3.612892 7.563960 0.000000 -0.039238 0.996035 -0.079841 0 0
  phy
    0 3.831461 -7.583515 0.596730 0.039333 -0.998425 0.040016 0 0
    0 -3.612869 -7.583526 0.596730 0.039238 -0.996035 -0.079841 0 0
    0 -3.612869 -7.583527 0.000000 0.039238 0.996035 -0.079841 0 0
  phy
    0 -3.612869 -7.583527 0.000000 0.039238 0.996035 -0.079841 0 0
    0 3.831461 -7.583516 0.000000 0.038869 0.986645 0.158177 0 0
    0 3.831461 -7.583515 0.596730 0.039333 -0.998425 0.040016 0 0
  phy
    0 3.831461 -7.583515 0.596730 0.039333 -0.998425 0.040016 0 0
    0 -3.612892 7.563960 0.596730 -0.039238 -0.996035 -0.079841 0 0
    0 -3.612869 -7.583526 0.596730 0.039238 -0.996035 -0.079841 0 0
  phy
    0 3.831461 -7.583515 0.596730 0.039333 -0.998425 0.040016 0 0
    0 3.831438 7.563971 0.596730 -0.038869 -0.986645 0.158177 0 0
    0 -3.612892 7.563960 0.596730 -0.039238 -0.996035 -0.079841 0 0
  phy
    0 3.831461 -7.583516 0.000000 0.038869 0.986645 0.158177 0 0
    0 3.831438 7.563971 0.596730 -0.038869 -0.986645 0.158177 0 0
    0 3.831461 -7.583515 0.596730 0.039333 -0.998425 0.040016 0 0
  phy
    0 3.831461 -7.583516 0.000000 0.038869 0.986645 0.158177 0 0
    0 3.831438 7.563971 0.000000 -0.039333 0.998425 0.040016 0 0
    0 3.831438 7.563971 0.596730 -0.038869 -0.986645 0.158177 0 0
  phy
    0 3.831438 7.563971 0.596730 -0.038869 -0.986645 0.158177 0 0
    0 3.831438 7.563971 0.000000 -0.039333 0.998425 0.040016 0 0
    0 -3.612892 7.563960 0.596730 -0.039238 -0.996035 -0.079841 0 0
  phy
    0 -3.612892 7.563960 0.596730 -0.039238 -0.996035 -0.079841 0 0
    0 3.831438 7.563971 0.000000 -0.039333 0.998425 0.040016 0 0
    0 -3.612892 7.563960 0.000000 -0.039238 0.996035 -0.079841 0 0
  phy
    0 -3.385961 -2.129638 1.711626 0.122587 -0.990586 -0.060925 0 0
    0 -3.385966 1.312784 1.711626 -0.079009 -0.974060 -0.212049 0 0
    0 -3.612869 -7.583526 0.596730 0.227006 -0.916216 -0.330176 0 0
  phy
    0 -3.612869 -7.583526 0.596730 0.227006 -0.916216 -0.330176 0 0
    0 -3.385966 1.312784 1.711626 -0.079009 -0.974060 -0.212049 0 0
    0 -3.612892 7.563960 0.596730 -0.242571 -0.908400 -0.340541 0 0
  phy
    0 -3.612869 -7.583527 0.000000 0.039238 0.996035 -0.079841 0 0
    0 -3.612869 -7.583526 0.596730 0.227006 -0.916216 -0.330176 0 0
    0 -3.612892 7.563960 0.596730 -0.242571 -0.908400 -0.340541 0 0
  phy
    0 -3.612869 -7.583527 0.000000 0.039238 0.996035 -0.079841 0 0
    0 -3.612892 7.563960 0.596730 -0.242571 -0.908400 -0.340541 0 0
    0 -3.612892 7.563960 0.000000 -0.039238 0.996035 -0.079841 0 0
  phy
    0 -3.612869 -7.583526 0.596730 0.227006 -0.916216 -0.330176 0 0
    0 3.540545 -2.129627 1.711626 0.119516 -0.980721 0.154604 0 0
    0 -3.385961 -2.129638 1.711626 0.122587 -0.990586 -0.060925 0 0
  phy
    0 3.831461 -7.583515 0.596730 0.314098 -0.822655 0.473900 0 0
    0 3.540545 -2.129627 1.711626 0.119516 -0.980721 0.154604 0 0
    0 -3.612869 -7.583526 0.596730 0.227006 -0.916216 -0.330176 0 0
  phy
    0 -3.612869 -7.583526 0.596730 0.227006 -0.916216 -0.330176 0 0
    0 -3.612869 -7.583527 0.000000 0.039238 0.996035 -0.079841 0 0
    0 3.831461 -7.583515 0.596730 0.314098 -0.822655 0.473900 0 0
  phy
    0 3.831461 -7.583516 0.000000 0.038869 0.986645 0.158177 0 0
    0 -3.612869 -7.583527 0.000000 0.039238 0.996035 -0.079841 0 0
    0 3.831438 7.563971 0.000000 -0.039333 0.998425 0.040016 0 0
  phy
    0 3.831438 7.563971 0.000000 -0.039333 0.998425 0.040016 0 0
    0 -3.612869 -7.583527 0.000000 0.039238 0.996035 -0.079841 0 0
    0 -3.612892 7.563960 0.000000 -0.039238 0.996035 -0.079841 0 0
  phy
    0 3.831438 7.563971 0.596730 -0.192833 -0.786103 0.587245 0 0
    0 3.831438 7.563971 0.000000 -0.039333 0.998425 0.040016 0 0
    0 -3.612892 7.563960 0.596730 -0.242571 -0.908400 -0.340541 0 0
  phy
    0 -3.612892 7.563960 0.596730 -0.242571 -0.908400 -0.340541 0 0
    0 3.831438 7.563971 0.000000 -0.039333 0.998425 0.040016 0 0
    0 -3.612892 7.563960 0.000000 -0.039238 0.996035 -0.079841 0 0
  phy
    0 3.831438 7.563971 0.000000 -0.039333 0.998425 0.040016 0 0
    0 3.831438 7.563971 0.596730 -0.192833 -0.786103 0.587245 0 0
    0 3.831461 -7.583516 0.000000 0.038869 0.986645 0.158177 0 0
  phy
    0 3.540540 1.312794 1.711626 -0.138291 -0.989838 0.033126 0 0
    0 3.540545 -2.129627 1.711626 0.119516 -0.980721 0.154604 0 0
    0 3.831438 7.563971 0.596730 -0.192833 -0.786103 0.587245 0 0
  phy
    0 3.540545 -2.129627 1.711626 0.119516 -0.980721 0.154604 0 0
    0 3.831461 -7.583515 0.596730 0.314098 -0.822655 0.473900 0 0
    0 3.831438 7.563971 0.596730 -0.192833 -0.786103 0.587245 0 0
  phy
    0 3.831461 -7.583516 0.000000 0.038869 0.986645 0.158177 0 0
    0 3.831438 7.563971 0.596730 -0.192833 -0.786103 0.587245 0 0
    0 3.831461 -7.583515 0.596730 0.314098 -0.822655 0.473900 0 0
  phy
    0 3.831461 -7.583515 0.596730 0.314098 -0.822655 0.473900 0 0
    0 -3.612869 -7.583527 0.000000 0.039238 0.996035 -0.079841 0 0
    0 3.831461 -7.583516 0.000000 0.038869 0.986645 0.158177 0 0
  phy
    0 -3.612892 7.563960 0.596730 -0.242571 -0.908400 -0.340541 0 0
    0 -3.385966 1.312784 1.711626 -0.079009 -0.974060 -0.212049 0 0
    0 3.540540 1.312794 1.711626 -0.138291 -0.989838 0.033126 0 0
  phy
    0 3.540540 1.312794 1.711626 -0.138291 -0.989838 0.033126 0 0
    0 3.831438 7.563971 0.596730 -0.192833 -0.786103 0.587245 0 0
    0 -3.612892 7.563960 0.596730 -0.242571 -0.908400 -0.340541 0 0
  phy
    0 -3.385961 -2.129638 1.711626 0.122587 -0.990586 -0.060925 0 0
    0 3.540545 -2.129627 1.711626 0.119516 -0.980721 0.154604 0 0
    0 -3.385966 1.312784 1.711626 -0.079009 -0.974060 -0.212049 0 0
  phy
    0 -3.385966 1.312784 1.711626 -0.079009 -0.974060 -0.212049 0 0
    0 3.540545 -2.129627 1.711626 0.119516 -0.980721 0.154604 0 0
    0 3.540540 1.312794 1.711626 -0.138291 -0.989838 0.033126 0 0
end
