// Created by Crowbar 0.74
version 1
nodes
  0 "static_prop" -1
end
skeleton
  time 0
    0 0.000000 0.000000 0.000000 0.000000 0.000000 0.000000
end
triangles
photo_backside01
  0 10.000000 0.000000 8.000000 0.000000 0.000000 1.000000 1.000000 0.999645 1 0 1.000000
  0 11.000000 -0.021432 8.000000 0.000000 0.000000 1.000000 0.992688 1.000000 1 0 1.000000
  0 11.000000 0.000000 8.000000 0.000000 0.000000 1.000000 0.992688 0.999645 1 0 1.000000
photo_backside01
  0 10.000000 0.000000 8.000000 0.000000 0.000000 1.000000 1.000000 0.999645 1 0 1.000000
  0 10.000000 -0.021432 8.000000 0.000000 0.000000 1.000000 1.000000 1.000000 1 0 1.000000
  0 11.000000 -0.021432 8.000000 0.000000 0.000000 1.000000 0.992688 1.000000 1 0 1.000000
photo_backside01
  0 11.000000 0.000000 7.003347 0.000000 1.000000 0.000000 0.000000 0.937709 1 0 1.000000
  0 10.000000 0.000000 8.000000 0.000000 1.000000 0.000000 0.045455 1.000000 1 0 1.000000
  0 11.000000 0.000000 8.000000 0.000000 1.000000 0.000000 0.000000 1.000000 1 0 1.000000
photo_backside01
  0 -10.000000 0.000000 -8.000000 0.000000 1.000000 0.000000 0.954545 0.000000 1 0 1.000000
  0 -11.000000 0.000000 -8.000000 0.000000 1.000000 0.000000 1.000000 0.000000 1 0 1.000000
  0 -11.000000 0.000000 -7.003347 0.000000 1.000000 0.000000 1.000000 0.062291 1 0 1.000000
photo_backside01
  0 -10.000000 0.000000 -8.000000 0.000000 1.000000 0.000000 0.954545 0.000000 1 0 1.000000
  0 -11.000000 0.000000 -7.003347 0.000000 1.000000 0.000000 1.000000 0.062291 1 0 1.000000
  0 -10.000000 0.000000 -7.003347 0.000000 1.000000 0.000000 0.954545 0.062291 1 0 1.000000
photo_backside01
  0 10.000000 0.000000 -8.000000 0.000000 1.000000 0.000000 0.045455 0.000000 1 0 1.000000
  0 -10.000000 0.000000 -8.000000 0.000000 1.000000 0.000000 0.954545 0.000000 1 0 1.000000
  0 -10.000000 0.000000 -7.003347 0.000000 1.000000 0.000000 0.954545 0.062291 1 0 1.000000
photo_backside01
  0 10.000000 0.000000 -8.000000 0.000000 1.000000 0.000000 0.045455 0.000000 1 0 1.000000
  0 -10.000000 0.000000 -7.003347 0.000000 1.000000 0.000000 0.954545 0.062291 1 0 1.000000
  0 10.000000 0.000000 -7.003347 0.000000 1.000000 0.000000 0.045455 0.062291 1 0 1.000000
photo_backside01
  0 11.000000 0.000000 -8.000000 0.000000 1.000000 0.000000 0.000000 0.000000 1 0 1.000000
  0 10.000000 0.000000 -8.000000 0.000000 1.000000 0.000000 0.045455 0.000000 1 0 1.000000
  0 10.000000 0.000000 -7.003347 0.000000 1.000000 0.000000 0.045455 0.062291 1 0 1.000000
photo_backside01
  0 11.000000 0.000000 -8.000000 0.000000 1.000000 0.000000 0.000000 0.000000 1 0 1.000000
  0 10.000000 0.000000 -7.003347 0.000000 1.000000 0.000000 0.045455 0.062291 1 0 1.000000
  0 11.000000 0.000000 -7.003347 0.000000 1.000000 0.000000 0.000000 0.062291 1 0 1.000000
photo_backside01
  0 10.000000 0.000000 -7.003347 0.000000 1.000000 0.000000 0.045455 0.062291 1 0 1.000000
  0 11.000000 0.000000 7.003347 0.000000 1.000000 0.000000 0.000000 0.937709 1 0 1.000000
  0 11.000000 0.000000 -7.003347 0.000000 1.000000 0.000000 0.000000 0.062291 1 0 1.000000
photo_backside01
  0 10.000000 0.000000 -7.003347 0.000000 1.000000 0.000000 0.045455 0.062291 1 0 1.000000
  0 10.000000 0.000000 7.003347 0.000000 1.000000 0.000000 0.045455 0.937709 1 0 1.000000
  0 11.000000 0.000000 7.003347 0.000000 1.000000 0.000000 0.000000 0.937709 1 0 1.000000
photo_backside01
  0 11.000000 0.000000 7.003347 0.000000 1.000000 0.000000 0.000000 0.937709 1 0 1.000000
  0 10.000000 0.000000 7.003347 0.000000 1.000000 0.000000 0.045455 0.937709 1 0 1.000000
  0 10.000000 0.000000 8.000000 0.000000 1.000000 0.000000 0.045455 1.000000 1 0 1.000000
photo_backside01
  0 10.000000 0.000000 7.003347 0.000000 1.000000 0.000000 0.045455 0.937709 1 0 1.000000
  0 -10.000000 0.000000 8.000000 0.000000 1.000000 0.000000 0.954545 1.000000 1 0 1.000000
  0 10.000000 0.000000 8.000000 0.000000 1.000000 0.000000 0.045455 1.000000 1 0 1.000000
photo_backside01
  0 10.000000 0.000000 7.003347 0.000000 1.000000 0.000000 0.045455 0.937709 1 0 1.000000
  0 -10.000000 0.000000 7.003347 0.000000 1.000000 0.000000 0.954545 0.937709 1 0 1.000000
  0 -10.000000 0.000000 8.000000 0.000000 1.000000 0.000000 0.954545 1.000000 1 0 1.000000
photo_backside01
  0 -10.000000 0.000000 7.003347 0.000000 1.000000 0.000000 0.954545 0.937709 1 0 1.000000
  0 -11.000000 0.000000 8.000000 0.000000 1.000000 0.000000 1.000000 1.000000 1 0 1.000000
  0 -10.000000 0.000000 8.000000 0.000000 1.000000 0.000000 0.954545 1.000000 1 0 1.000000
photo_backside01
  0 -10.000000 0.000000 7.003347 0.000000 1.000000 0.000000 0.954545 0.937709 1 0 1.000000
  0 -11.000000 0.000000 7.003347 0.000000 1.000000 0.000000 1.000000 0.937709 1 0 1.000000
  0 -11.000000 0.000000 8.000000 0.000000 1.000000 0.000000 1.000000 1.000000 1 0 1.000000
photo_backside01
  0 -11.000000 0.000000 -7.003347 0.000000 1.000000 0.000000 1.000000 0.062291 1 0 1.000000
  0 -11.000000 0.000000 7.003347 0.000000 1.000000 0.000000 1.000000 0.937709 1 0 1.000000
  0 -10.000000 0.000000 7.003347 0.000000 1.000000 0.000000 0.954545 0.937709 1 0 1.000000
photo_backside01
  0 -11.000000 0.000000 -7.003347 0.000000 1.000000 0.000000 1.000000 0.062291 1 0 1.000000
  0 -10.000000 0.000000 7.003347 0.000000 1.000000 0.000000 0.954545 0.937709 1 0 1.000000
  0 -10.000000 0.000000 -7.003347 0.000000 1.000000 0.000000 0.954545 0.062291 1 0 1.000000
photo_backside01
  0 10.000000 0.000000 -7.003347 0.000000 1.000000 0.000000 0.045455 0.062291 1 0 1.000000
  0 -10.000000 0.000000 -7.003347 0.000000 1.000000 0.000000 0.954545 0.062291 1 0 1.000000
  0 -10.000000 0.000000 7.003347 0.000000 1.000000 0.000000 0.954545 0.937709 1 0 1.000000
photo_backside01
  0 10.000000 0.000000 -7.003347 0.000000 1.000000 0.000000 0.045455 0.062291 1 0 1.000000
  0 -10.000000 0.000000 7.003347 0.000000 1.000000 0.000000 0.954545 0.937709 1 0 1.000000
  0 10.000000 0.000000 7.003347 0.000000 1.000000 0.000000 0.045455 0.937709 1 0 1.000000
photo_backside01
  0 -11.000000 -0.021432 8.000000 0.000000 0.000000 1.000000 0.292536 1.000000 1 0 1.000000
  0 -10.000000 0.000000 8.000000 0.000000 0.000000 1.000000 0.285223 0.999645 1 0 1.000000
  0 -11.000000 0.000000 8.000000 0.000000 0.000000 1.000000 0.292536 0.999645 1 0 1.000000
photo_backside01
  0 -11.000000 -0.021432 8.000000 0.000000 0.000000 1.000000 0.292536 1.000000 1 0 1.000000
  0 -10.000000 -0.021432 8.000000 0.000000 0.000000 1.000000 0.285223 1.000000 1 0 1.000000
  0 -10.000000 0.000000 8.000000 0.000000 0.000000 1.000000 0.285223 0.999645 1 0 1.000000
photo_backside01
  0 -10.000000 0.000000 8.000000 0.000000 0.000000 1.000000 0.285223 0.999645 1 0 1.000000
  0 -10.000000 -0.021432 8.000000 0.000000 0.000000 1.000000 0.285223 1.000000 1 0 1.000000
  0 10.000000 -0.021432 8.000000 0.000000 0.000000 1.000000 0.000000 1.000000 1 0 1.000000
photo_backside01
  0 -10.000000 0.000000 8.000000 0.000000 0.000000 1.000000 0.285223 0.999645 1 0 1.000000
  0 10.000000 -0.021432 8.000000 0.000000 0.000000 1.000000 0.000000 1.000000 1 0 1.000000
  0 10.000000 0.000000 8.000000 0.000000 0.000000 1.000000 0.000000 0.999645 1 0 1.000000
photo_backside01
  0 -11.000000 0.000000 7.003347 -1.000000 0.000000 0.000000 0.302379 0.999645 1 0 1.000000
  0 -11.000000 -0.021432 8.000000 -1.000000 0.000000 0.000000 0.292536 1.000000 1 0 1.000000
  0 -11.000000 0.000000 8.000000 -1.000000 0.000000 0.000000 0.292536 0.999645 1 0 1.000000
photo_backside01
  0 -11.000000 0.000000 7.003347 -1.000000 0.000000 0.000000 0.302379 0.999645 1 0 1.000000
  0 -11.000000 -0.021432 7.003347 -1.000000 0.000000 0.000000 0.302379 1.000000 1 0 1.000000
  0 -11.000000 -0.021432 8.000000 -1.000000 0.000000 0.000000 0.292536 1.000000 1 0 1.000000
photo_backside01
  0 -11.000000 0.000000 -7.003347 -1.000000 0.000000 0.000000 0.482844 0.999645 1 0 1.000000
  0 -11.000000 -0.021432 7.003347 -1.000000 0.000000 0.000000 0.302379 1.000000 1 0 1.000000
  0 -11.000000 0.000000 7.003347 -1.000000 0.000000 0.000000 0.302379 0.999645 1 0 1.000000
photo_backside01
  0 -11.000000 0.000000 -7.003347 -1.000000 0.000000 0.000000 0.482844 0.999645 1 0 1.000000
  0 -11.000000 -0.021432 -7.003347 -1.000000 0.000000 0.000000 0.482844 1.000000 1 0 1.000000
  0 -11.000000 -0.021432 7.003347 -1.000000 0.000000 0.000000 0.302379 1.000000 1 0 1.000000
photo_backside01
  0 -11.000000 0.000000 -8.000000 -1.000000 0.000000 0.000000 0.492688 0.999645 1 0 1.000000
  0 -11.000000 -0.021432 -7.003347 -1.000000 0.000000 0.000000 0.482844 1.000000 1 0 1.000000
  0 -11.000000 0.000000 -7.003347 -1.000000 0.000000 0.000000 0.482844 0.999645 1 0 1.000000
photo_backside01
  0 -11.000000 0.000000 -8.000000 -1.000000 0.000000 0.000000 0.492688 0.999645 1 0 1.000000
  0 -11.000000 -0.021432 -8.000000 -1.000000 0.000000 0.000000 0.492688 1.000000 1 0 1.000000
  0 -11.000000 -0.021432 -7.003347 -1.000000 0.000000 0.000000 0.482844 1.000000 1 0 1.000000
photo_backside01
  0 11.000000 -0.021432 -7.003347 1.000000 0.000000 0.000000 0.802379 1.000000 1 0 1.000000
  0 11.000000 -0.021432 -8.000000 1.000000 0.000000 0.000000 0.792536 1.000000 1 0 1.000000
  0 11.000000 0.000000 -8.000000 1.000000 0.000000 0.000000 0.792536 0.999645 1 0 1.000000
photo_backside01
  0 11.000000 -0.021432 -7.003347 1.000000 0.000000 0.000000 0.802379 1.000000 1 0 1.000000
  0 11.000000 0.000000 -8.000000 1.000000 0.000000 0.000000 0.792536 0.999645 1 0 1.000000
  0 11.000000 0.000000 -7.003347 1.000000 0.000000 0.000000 0.802379 0.999645 1 0 1.000000
photo_backside01
  0 11.000000 0.000000 -7.003347 1.000000 0.000000 0.000000 0.802379 0.999645 1 0 1.000000
  0 11.000000 -0.021432 7.003347 1.000000 0.000000 0.000000 0.982844 1.000000 1 0 1.000000
  0 11.000000 -0.021432 -7.003347 1.000000 0.000000 0.000000 0.802379 1.000000 1 0 1.000000
photo_backside01
  0 11.000000 0.000000 -7.003347 1.000000 0.000000 0.000000 0.802379 0.999645 1 0 1.000000
  0 11.000000 0.000000 7.003347 1.000000 0.000000 0.000000 0.982844 0.999645 1 0 1.000000
  0 11.000000 -0.021432 7.003347 1.000000 0.000000 0.000000 0.982844 1.000000 1 0 1.000000
photo_backside01
  0 11.000000 0.000000 7.003347 1.000000 0.000000 0.000000 0.982844 0.999645 1 0 1.000000
  0 11.000000 -0.021432 8.000000 1.000000 0.000000 0.000000 0.992688 1.000000 1 0 1.000000
  0 11.000000 -0.021432 7.003347 1.000000 0.000000 0.000000 0.982844 1.000000 1 0 1.000000
photo_backside01
  0 11.000000 0.000000 7.003347 1.000000 0.000000 0.000000 0.982844 0.999645 1 0 1.000000
  0 11.000000 0.000000 8.000000 1.000000 0.000000 0.000000 0.992688 0.999645 1 0 1.000000
  0 11.000000 -0.021432 8.000000 1.000000 0.000000 0.000000 0.992688 1.000000 1 0 1.000000
photo_backside01
  0 -11.000000 0.000000 -8.000000 0.000000 0.000000 -1.000000 0.492688 0.999645 1 0 1.000000
  0 -10.000000 -0.021432 -8.000000 0.000000 0.000000 -1.000000 0.500000 1.000000 1 0 1.000000
  0 -11.000000 -0.021432 -8.000000 0.000000 0.000000 -1.000000 0.492688 1.000000 1 0 1.000000
photo_backside01
  0 -11.000000 0.000000 -8.000000 0.000000 0.000000 -1.000000 0.492688 0.999645 1 0 1.000000
  0 -10.000000 0.000000 -8.000000 0.000000 0.000000 -1.000000 0.500000 0.999645 1 0 1.000000
  0 -10.000000 -0.021432 -8.000000 0.000000 0.000000 -1.000000 0.500000 1.000000 1 0 1.000000
photo_backside01
  0 10.000000 0.000000 -8.000000 0.000000 0.000000 -1.000000 0.785223 0.999645 1 0 1.000000
  0 -10.000000 -0.021432 -8.000000 0.000000 0.000000 -1.000000 0.500000 1.000000 1 0 1.000000
  0 -10.000000 0.000000 -8.000000 0.000000 0.000000 -1.000000 0.500000 0.999645 1 0 1.000000
photo_backside01
  0 10.000000 0.000000 -8.000000 0.000000 0.000000 -1.000000 0.785223 0.999645 1 0 1.000000
  0 10.000000 -0.021432 -8.000000 0.000000 0.000000 -1.000000 0.785223 1.000000 1 0 1.000000
  0 -10.000000 -0.021432 -8.000000 0.000000 0.000000 -1.000000 0.500000 1.000000 1 0 1.000000
photo_backside01
  0 11.000000 0.000000 -8.000000 0.000000 0.000000 -1.000000 0.792536 0.999645 1 0 1.000000
  0 10.000000 -0.021432 -8.000000 0.000000 0.000000 -1.000000 0.785223 1.000000 1 0 1.000000
  0 10.000000 0.000000 -8.000000 0.000000 0.000000 -1.000000 0.785223 0.999645 1 0 1.000000
photo_backside01
  0 11.000000 0.000000 -8.000000 0.000000 0.000000 -1.000000 0.792536 0.999645 1 0 1.000000
  0 11.000000 -0.021432 -8.000000 0.000000 0.000000 -1.000000 0.792536 1.000000 1 0 1.000000
  0 10.000000 -0.021432 -8.000000 0.000000 0.000000 -1.000000 0.785223 1.000000 1 0 1.000000
photo_capture02
  0 10.000000 -0.021432 8.000000 0.000000 -1.000000 0.000000 0.954545 1.000000 1 0 1.000000
  0 11.000000 -0.021432 7.003347 0.000000 -1.000000 0.000000 1.000000 0.937709 1 0 1.000000
  0 11.000000 -0.021432 8.000000 0.000000 -1.000000 0.000000 1.000000 1.000000 1 0 1.000000
photo_capture02
  0 -10.000000 -0.021432 7.003347 0.000000 -1.000000 0.000000 0.045455 0.937709 1 0 1.000000
  0 10.000000 -0.021432 8.000000 0.000000 -1.000000 0.000000 0.954545 1.000000 1 0 1.000000
  0 -10.000000 -0.021432 8.000000 0.000000 -1.000000 0.000000 0.045455 1.000000 1 0 1.000000
photo_capture02
  0 -11.000000 -0.021432 7.003347 0.000000 -1.000000 0.000000 0.000000 0.937709 1 0 1.000000
  0 -10.000000 -0.021432 7.003347 0.000000 -1.000000 0.000000 0.045455 0.937709 1 0 1.000000
  0 -10.000000 -0.021432 8.000000 0.000000 -1.000000 0.000000 0.045455 1.000000 1 0 1.000000
photo_capture02
  0 -10.000000 -0.021432 7.003347 0.000000 -1.000000 0.000000 0.045455 0.937709 1 0 1.000000
  0 -11.000000 -0.021432 7.003347 0.000000 -1.000000 0.000000 0.000000 0.937709 1 0 1.000000
  0 -11.000000 -0.021432 -7.003347 0.000000 -1.000000 0.000000 0.000000 0.062291 1 0 1.000000
photo_capture02
  0 -10.000000 -0.021432 7.003347 0.000000 -1.000000 0.000000 0.045455 0.937709 1 0 1.000000
  0 -11.000000 -0.021432 -7.003347 0.000000 -1.000000 0.000000 0.000000 0.062291 1 0 1.000000
  0 -10.000000 -0.021432 -7.003347 0.000000 -1.000000 0.000000 0.045455 0.062291 1 0 1.000000
photo_capture02
  0 -11.000000 -0.021432 -8.000000 0.000000 -1.000000 0.000000 0.000000 0.000000 1 0 1.000000
  0 -10.000000 -0.021432 -7.003347 0.000000 -1.000000 0.000000 0.045455 0.062291 1 0 1.000000
  0 -11.000000 -0.021432 -7.003347 0.000000 -1.000000 0.000000 0.000000 0.062291 1 0 1.000000
photo_capture02
  0 -11.000000 -0.021432 -8.000000 0.000000 -1.000000 0.000000 0.000000 0.000000 1 0 1.000000
  0 -10.000000 -0.021432 -8.000000 0.000000 -1.000000 0.000000 0.045455 0.000000 1 0 1.000000
  0 -10.000000 -0.021432 -7.003347 0.000000 -1.000000 0.000000 0.045455 0.062291 1 0 1.000000
photo_capture02
  0 -10.000000 -0.021432 -8.000000 0.000000 -1.000000 0.000000 0.045455 0.000000 1 0 1.000000
  0 10.000000 -0.021432 -7.003347 0.000000 -1.000000 0.000000 0.954545 0.062291 1 0 1.000000
  0 -10.000000 -0.021432 -7.003347 0.000000 -1.000000 0.000000 0.045455 0.062291 1 0 1.000000
photo_capture02
  0 -10.000000 -0.021432 -8.000000 0.000000 -1.000000 0.000000 0.045455 0.000000 1 0 1.000000
  0 10.000000 -0.021432 -8.000000 0.000000 -1.000000 0.000000 0.954545 0.000000 1 0 1.000000
  0 10.000000 -0.021432 -7.003347 0.000000 -1.000000 0.000000 0.954545 0.062291 1 0 1.000000
photo_capture02
  0 11.000000 -0.021432 -8.000000 0.000000 -1.000000 0.000000 1.000000 0.000000 1 0 1.000000
  0 10.000000 -0.021432 -7.003347 0.000000 -1.000000 0.000000 0.954545 0.062291 1 0 1.000000
  0 10.000000 -0.021432 -8.000000 0.000000 -1.000000 0.000000 0.954545 0.000000 1 0 1.000000
photo_capture02
  0 11.000000 -0.021432 -8.000000 0.000000 -1.000000 0.000000 1.000000 0.000000 1 0 1.000000
  0 11.000000 -0.021432 -7.003347 0.000000 -1.000000 0.000000 1.000000 0.062291 1 0 1.000000
  0 10.000000 -0.021432 -7.003347 0.000000 -1.000000 0.000000 0.954545 0.062291 1 0 1.000000
photo_capture02
  0 10.000000 -0.021432 -7.003347 0.000000 -1.000000 0.000000 0.954545 0.062291 1 0 1.000000
  0 11.000000 -0.021432 -7.003347 0.000000 -1.000000 0.000000 1.000000 0.062291 1 0 1.000000
  0 11.000000 -0.021432 7.003347 0.000000 -1.000000 0.000000 1.000000 0.937709 1 0 1.000000
photo_capture02
  0 10.000000 -0.021432 -7.003347 0.000000 -1.000000 0.000000 0.954545 0.062291 1 0 1.000000
  0 11.000000 -0.021432 7.003347 0.000000 -1.000000 0.000000 1.000000 0.937709 1 0 1.000000
  0 10.000000 -0.021432 7.003347 0.000000 -1.000000 0.000000 0.954545 0.937709 1 0 1.000000
photo_capture02
  0 10.000000 -0.021432 8.000000 0.000000 -1.000000 0.000000 0.954545 1.000000 1 0 1.000000
  0 10.000000 -0.021432 7.003347 0.000000 -1.000000 0.000000 0.954545 0.937709 1 0 1.000000
  0 11.000000 -0.021432 7.003347 0.000000 -1.000000 0.000000 1.000000 0.937709 1 0 1.000000
photo_capture02
  0 -10.000000 -0.021432 7.003347 0.000000 -1.000000 0.000000 0.045455 0.937709 1 0 1.000000
  0 10.000000 -0.021432 7.003347 0.000000 -1.000000 0.000000 0.954545 0.937709 1 0 1.000000
  0 10.000000 -0.021432 8.000000 0.000000 -1.000000 0.000000 0.954545 1.000000 1 0 1.000000
photo_capture02
  0 -10.000000 -0.021432 -7.003347 0.000000 -1.000000 0.000000 0.045455 0.062291 1 0 1.000000
  0 10.000000 -0.021432 7.003347 0.000000 -1.000000 0.000000 0.954545 0.937709 1 0 1.000000
  0 -10.000000 -0.021432 7.003347 0.000000 -1.000000 0.000000 0.045455 0.937709 1 0 1.000000
photo_capture02
  0 -10.000000 -0.021432 -7.003347 0.000000 -1.000000 0.000000 0.045455 0.062291 1 0 1.000000
  0 10.000000 -0.021432 -7.003347 0.000000 -1.000000 0.000000 0.954545 0.062291 1 0 1.000000
  0 10.000000 -0.021432 7.003347 0.000000 -1.000000 0.000000 0.954545 0.937709 1 0 1.000000
photo_capture02
  0 -11.000000 -0.021432 7.003347 0.000000 -1.000000 0.000000 0.000000 0.937709 1 0 1.000000
  0 -10.000000 -0.021432 8.000000 0.000000 -1.000000 0.000000 0.045455 1.000000 1 0 1.000000
  0 -11.000000 -0.021432 8.000000 0.000000 -1.000000 0.000000 0.000000 1.000000 1 0 1.000000
end
