// Created by Crowbar 0.74
version 1
nodes
  0 "static_prop" -1
end
skeleton
  time 0
    0 0.000000 0.000000 0.000000 0.000000 0.000000 0.000000
end
triangles
  phy
    0 -11.000000 0.282483 -2.666667 -0.999535 0.024757 -0.017781 0 0
    0 11.000000 0.282483 -2.666667 -0.998618 0.049469 0.017765 0 0
    0 -11.000000 -0.113813 -8.000000 -0.983085 0.181259 -0.026233 0 0
  phy
    0 -11.000000 -0.113813 -8.000000 -0.983085 0.181259 -0.026233 0 0
    0 11.000000 0.282483 -2.666667 -0.998618 0.049469 0.017765 0 0
    0 11.000000 -0.113813 -8.000000 0.989187 0.144262 0.026396 0 0
  phy
    0 11.000000 0.282483 -2.666667 -0.998618 0.049469 0.017765 0 0
    0 -11.000000 0.282483 -2.666667 -0.999535 0.024757 -0.017781 0 0
    0 11.000000 0.282483 2.666667 -0.999338 -0.024752 0.026667 0 0
  phy
    0 11.000000 0.282483 2.666667 -0.999338 -0.024752 0.026667 0 0
    0 -11.000000 0.282483 -2.666667 -0.999535 0.024757 -0.017781 0 0
    0 -11.000000 0.282483 2.666667 -0.998421 -0.049459 -0.026642 0 0
  phy
    0 11.000000 0.282483 2.666667 -0.999338 -0.024752 0.026667 0 0
    0 11.000000 -0.304569 -2.666667 0.999040 0.017866 0.039988 0 0
    0 11.000000 0.282483 -2.666667 -0.998618 0.049469 0.017765 0 0
  phy
    0 11.000000 0.282483 2.666667 -0.999338 -0.024752 0.026667 0 0
    0 11.000000 -0.304570 2.666667 0.999771 -0.011919 0.017785 0 0
    0 11.000000 -0.304569 -2.666667 0.999040 0.017866 0.039988 0 0
  phy
    0 11.000000 0.282483 2.666667 -0.999338 -0.024752 0.026667 0 0
    0 11.000000 -0.113814 8.000000 0.000000 -0.992734 0.120331 0 0
    0 11.000000 -0.304570 2.666667 0.999771 -0.011919 0.017785 0 0
  phy
    0 11.000000 -0.304569 -2.666667 0.999040 0.017866 0.039988 0 0
    0 11.000000 -0.113813 -8.000000 0.989187 0.144262 0.026396 0 0
    0 11.000000 0.282483 -2.666667 -0.998618 0.049469 0.017765 0 0
  phy
    0 -11.000000 -0.304569 -2.666667 0.999640 0.017877 -0.020006 0 0
    0 -11.000000 -0.304570 2.666667 0.999558 -0.023834 -0.017782 0 0
    0 -11.000000 0.282483 2.666667 -0.998421 -0.049459 -0.026642 0 0
  phy
    0 -11.000000 -0.304569 -2.666667 0.999640 0.017877 -0.020006 0 0
    0 -11.000000 0.282483 2.666667 -0.998421 -0.049459 -0.026642 0 0
    0 -11.000000 0.282483 -2.666667 -0.999535 0.024757 -0.017781 0 0
  phy
    0 -11.000000 -0.304569 -2.666667 0.999640 0.017877 -0.020006 0 0
    0 -11.000000 0.282483 -2.666667 -0.999535 0.024757 -0.017781 0 0
    0 -11.000000 -0.113813 -8.000000 -0.983085 0.181259 -0.026233 0 0
  phy
    0 -11.000000 0.282483 2.666667 -0.998421 -0.049459 -0.026642 0 0
    0 -11.000000 -0.304570 2.666667 0.999558 -0.023834 -0.017782 0 0
    0 -11.000000 -0.113814 8.000000 0.000000 -0.971850 -0.235600 0 0
  phy
    0 -11.000000 -0.113814 8.000000 0.000000 -0.971850 -0.235600 0 0
    0 11.000000 -0.113814 8.000000 0.000000 -0.992734 0.120331 0 0
    0 -11.000000 0.282483 2.666667 -0.998421 -0.049459 -0.026642 0 0
  phy
    0 -11.000000 0.282483 2.666667 -0.998421 -0.049459 -0.026642 0 0
    0 11.000000 -0.113814 8.000000 0.000000 -0.992734 0.120331 0 0
    0 11.000000 0.282483 2.666667 -0.999338 -0.024752 0.026667 0 0
  phy
    0 -11.000000 -0.304570 2.666667 0.999558 -0.023834 -0.017782 0 0
    0 11.000000 -0.113814 8.000000 0.000000 -0.992734 0.120331 0 0
    0 -11.000000 -0.113814 8.000000 0.000000 -0.971850 -0.235600 0 0
  phy
    0 -11.000000 -0.304570 2.666667 0.999558 -0.023834 -0.017782 0 0
    0 11.000000 -0.304570 2.666667 0.999771 -0.011919 0.017785 0 0
    0 11.000000 -0.113814 8.000000 0.000000 -0.992734 0.120331 0 0
  phy
    0 11.000000 -0.304570 2.666667 0.999771 -0.011919 0.017785 0 0
    0 -11.000000 -0.304569 -2.666667 0.999640 0.017877 -0.020006 0 0
    0 11.000000 -0.304569 -2.666667 0.999040 0.017866 0.039988 0 0
  phy
    0 11.000000 -0.304570 2.666667 0.999771 -0.011919 0.017785 0 0
    0 -11.000000 -0.304570 2.666667 0.999558 -0.023834 -0.017782 0 0
    0 -11.000000 -0.304569 -2.666667 0.999640 0.017877 -0.020006 0 0
  phy
    0 -11.000000 -0.304569 -2.666667 0.999640 0.017877 -0.020006 0 0
    0 11.000000 -0.113813 -8.000000 0.989187 0.144262 0.026396 0 0
    0 11.000000 -0.304569 -2.666667 0.999040 0.017866 0.039988 0 0
  phy
    0 -11.000000 -0.304569 -2.666667 0.999640 0.017877 -0.020006 0 0
    0 -11.000000 -0.113813 -8.000000 -0.983085 0.181259 -0.026233 0 0
    0 11.000000 -0.113813 -8.000000 0.989187 0.144262 0.026396 0 0
end
