// Created by Crowbar 0.74
version 1
nodes
  0 "ValveBiped.Bip01" -1
  1 "ValveBiped.Bip01_Spine" 0
  2 "ValveBiped.Bip01_Spine1" 1
  3 "ValveBiped.Bip01_Spine2" 2
  4 "ValveBiped.Bip01_Spine4" 3
  5 "ValveBiped.Bip01_L_Clavicle" 4
  6 "ValveBiped.Bip01_L_UpperArm" 5
  7 "ValveBiped.Bip01_L_Forearm" 6
  8 "ValveBiped.Bip01_L_Hand" 7
  9 "ValveBiped.Bip01_L_Finger4" 8
  10 "ValveBiped.Bip01_L_Finger41" 9
  11 "ValveBiped.Bip01_L_Finger42" 10
  12 "ValveBiped.Bip01_L_Finger3" 8
  13 "ValveBiped.Bip01_L_Finger31" 12
  14 "ValveBiped.Bip01_L_Finger32" 13
  15 "ValveBiped.Bip01_L_Finger2" 8
  16 "ValveBiped.Bip01_L_Finger21" 15
  17 "ValveBiped.Bip01_L_Finger22" 16
  18 "ValveBiped.Bip01_L_Finger1" 8
  19 "ValveBiped.Bip01_L_Finger11" 18
  20 "ValveBiped.Bip01_L_Finger12" 19
  21 "ValveBiped.Bip01_L_Finger0" 8
  22 "ValveBiped.Bip01_L_Finger01" 21
  23 "ValveBiped.Bip01_L_Finger02" 22
  24 "ValveBiped.Bip01_R_Clavicle" 4
  25 "ValveBiped.Bip01_R_UpperArm" 24
  26 "ValveBiped.Bip01_R_Forearm" 25
  27 "ValveBiped.Bip01_R_Hand" 26
  28 "ValveBiped.Bip01_R_Finger4" 27
  29 "ValveBiped.Bip01_R_Finger41" 28
  30 "ValveBiped.Bip01_R_Finger42" 29
  31 "ValveBiped.Bip01_R_Finger3" 27
  32 "ValveBiped.Bip01_R_Finger31" 31
  33 "ValveBiped.Bip01_R_Finger32" 32
  34 "ValveBiped.Bip01_R_Finger2" 27
  35 "ValveBiped.Bip01_R_Finger21" 34
  36 "ValveBiped.Bip01_R_Finger22" 35
  37 "ValveBiped.Bip01_R_Finger1" 27
  38 "ValveBiped.Bip01_R_Finger11" 37
  39 "ValveBiped.Bip01_R_Finger12" 38
  40 "ValveBiped.Bip01_R_Finger0" 27
  41 "ValveBiped.Bip01_R_Finger01" 40
  42 "ValveBiped.Bip01_R_Finger02" 41
  43 "ValveBiped.Camera" 27
end
skeleton
  time 0
    0 -0.000003 -13.531250 -29.421875 1.570788 0.000007 -0.000007
    1 0.000000 3.345131 -2.981898 1.570789 0.086301 1.570789
    2 4.015625 0.000001 0.000000 0.000000 0.000000 -0.029241
    3 3.520294 0.000014 -0.000001 0.000000 0.000000 0.100332
    4 8.929688 0.000000 0.000000 0.000000 0.000000 0.194095
    5 2.035156 0.997070 1.937500 1.596487 -1.284993 2.943127
    6 6.028151 -0.000031 0.000004 -1.430219 -0.434668 -0.750191
    7 11.692549 0.000005 0.000011 0.225428 0.335149 -1.279152
    8 11.481670 0.000049 -0.000031 1.105689 -0.672081 0.070524
    9 3.858219 -0.135628 -1.192198 -0.462168 -0.183015 -1.143494
    10 1.312561 -0.000008 0.000000 0.000000 0.054403 -0.409014
    11 0.729362 0.000004 -0.000003 -0.000002 0.040753 -0.240990
    12 3.938059 0.050857 -0.435178 -0.058906 -0.190477 -1.052198
    13 1.539095 0.000004 -0.000002 0.000000 0.003735 -0.247814
    14 1.196325 0.000000 -0.000004 -0.000001 0.006169 -0.430818
    15 3.880859 -0.043091 0.427490 -0.476763 -0.093580 -0.824965
    16 1.719580 0.000011 -0.000015 -0.039460 -0.167701 -0.315837
    17 1.209179 -0.000004 0.000000 0.312038 0.209821 -0.320126
    18 3.863281 -0.136475 1.332031 0.316549 -0.532806 -0.147558
    19 1.719426 -0.000004 0.000007 -0.008714 -0.308204 -1.257834
    20 1.099669 -0.000004 0.000000 -0.000002 0.002587 -0.283860
    21 0.807581 -0.343248 1.320585 -1.196779 -0.522011 -0.922299
    22 1.789783 0.000002 0.000006 -0.000002 -0.003712 0.228604
    23 1.207008 0.000009 -0.000002 0.068240 -0.043107 0.237799
    24 2.035156 0.997070 -1.937500 -1.667267 1.282923 2.944210
    25 6.028140 -0.000004 0.000001 1.325310 0.549878 -0.981497
    26 11.692560 0.000021 -0.000004 -0.079966 -0.228929 -1.350667
    27 11.481653 0.000064 0.000015 -1.175917 0.518188 0.154928
    28 3.854337 -0.131714 1.199996 1.185711 -0.224301 -1.641700
    29 1.312565 0.000000 -0.000002 0.122434 -0.179429 -0.573229
    30 0.729366 0.000004 0.000003 0.000000 -0.000110 -0.248950
    31 3.941984 0.050857 0.435164 -0.031435 -0.126224 -1.323235
    32 1.539099 0.000004 0.000002 -0.245476 0.386205 -0.367027
    33 1.196320 0.000008 0.000004 0.000000 -0.000162 -0.332870
    34 3.880859 -0.047028 -0.427490 0.125580 0.221647 -0.416549
    35 1.719571 0.000019 0.000015 -0.311136 -0.043741 -1.054644
    36 1.209175 0.000004 0.000003 0.172210 -0.116519 -0.543375
    37 3.863496 -0.144303 -1.324347 -0.141219 0.635538 -0.479029
    38 1.719421 -0.000008 -0.000008 -0.052815 0.006926 -0.449862
    39 1.099667 -0.000004 0.000000 0.156990 -0.328270 -0.887119
    40 0.807596 -0.358881 -1.316682 1.243202 0.551772 -0.740648
    41 1.789776 0.000000 0.000002 -0.000008 0.003711 0.228604
    42 1.207008 0.000007 0.000000 0.000000 0.005667 0.362991
    43 3.772911 -5.489323 -0.527648 4.034818 -0.133223 -1.641906
  time 1
    0 -0.000003 -13.531250 -29.421875 1.570788 0.000007 -0.000007
    1 0.000000 3.345131 -2.981898 1.570789 0.086301 1.570789
    2 4.015625 0.000001 0.000000 0.000000 0.000000 -0.029241
    3 3.520294 0.000014 -0.000001 0.000000 0.000000 0.100332
    4 8.929688 0.000000 0.000000 0.000000 0.000000 0.194095
    5 2.035156 0.997070 1.937500 1.596487 -1.284993 2.943127
    6 6.028151 -0.000031 0.000004 -1.432859 -0.442671 -0.751162
    7 11.692549 0.000005 0.000011 0.222995 0.332956 -1.284982
    8 11.481670 0.000049 -0.000031 1.108219 -0.670187 0.072478
    9 3.854313 -0.135628 -1.192198 -0.462168 -0.183015 -1.143494
    10 1.312561 -0.000008 0.000000 0.000000 0.054403 -0.409014
    11 0.729362 0.000004 -0.000003 -0.000002 0.040753 -0.240990
    12 3.938059 0.050857 -0.435178 -0.058906 -0.190477 -1.052198
    13 1.539095 0.000004 -0.000002 0.000000 0.003735 -0.247814
    14 1.196325 0.000000 -0.000004 -0.000001 0.006169 -0.430818
    15 3.880859 -0.043091 0.427490 -0.476763 -0.093580 -0.824965
    16 1.719580 0.000011 -0.000015 -0.039460 -0.167701 -0.315837
    17 1.209179 -0.000004 0.000000 0.312038 0.209821 -0.320126
    18 3.863281 -0.136475 1.332031 0.316549 -0.532806 -0.147558
    19 1.719426 -0.000004 0.000007 -0.008714 -0.308204 -1.257834
    20 1.099669 -0.000004 0.000000 -0.000002 0.002587 -0.283860
    21 0.807581 -0.343248 1.320585 -1.196779 -0.521292 -0.922536
    22 1.789783 0.000002 0.000006 -0.000002 -0.003712 0.228604
    23 1.207008 0.000009 -0.000002 0.068240 -0.043107 0.237799
    24 2.035156 0.997070 -1.937500 -1.667267 1.282923 2.944210
    25 6.028140 -0.000004 0.000001 1.328917 0.553718 -0.979232
    26 11.692560 0.000021 -0.000004 -0.078744 -0.226101 -1.357848
    27 11.481653 0.000064 0.000015 -1.175159 0.519054 0.155288
    28 3.854337 -0.131714 1.199996 1.185711 -0.224301 -1.641700
    29 1.312565 0.000000 -0.000002 0.122434 -0.179429 -0.573229
    30 0.729366 0.000004 0.000003 0.000000 -0.000110 -0.248950
    31 3.941984 0.050857 0.435164 -0.031435 -0.126224 -1.323235
    32 1.539099 0.000004 0.000002 -0.245476 0.386205 -0.367027
    33 1.196320 0.000008 0.000004 0.000000 -0.000162 -0.332870
    34 3.880859 -0.047028 -0.427490 0.125580 0.221647 -0.416549
    35 1.719571 0.000019 0.000015 -0.311136 -0.043741 -1.054644
    36 1.209175 0.000004 0.000003 0.172210 -0.116519 -0.543375
    37 3.863496 -0.144303 -1.324347 -0.141219 0.635538 -0.479029
    38 1.719421 -0.000008 -0.000008 -0.052815 0.006926 -0.449862
    39 1.099667 -0.000004 0.000000 0.156990 -0.328270 -0.887119
    40 0.811503 -0.358881 -1.312776 1.243202 0.551772 -0.740648
    41 1.789776 0.000000 0.000002 -0.000008 0.003711 0.228604
    42 1.207008 0.000007 0.000000 0.000000 0.005667 0.362991
    43 3.772911 -5.489323 -0.527648 4.034894 -0.133223 -1.641906
  time 2
    0 -0.000003 -13.531250 -29.421875 1.570788 0.000007 -0.000007
    1 0.000000 3.345131 -2.981898 1.570789 0.086301 1.570789
    2 4.015625 0.000001 0.000000 0.000000 0.000000 -0.029241
    3 3.520294 0.000014 -0.000001 0.000000 0.000000 0.100332
    4 8.929688 0.000000 0.000000 0.000000 0.000000 0.194095
    5 2.035156 0.997070 1.937500 1.596487 -1.284993 2.943127
    6 6.028151 -0.000031 0.000004 -1.440762 -0.466846 -0.754194
    7 11.692549 0.000005 0.000011 0.215601 0.326328 -1.302790
    8 11.481670 0.000049 -0.000031 1.115811 -0.664466 0.078406
    9 3.858219 -0.135628 -1.192198 -0.462168 -0.183015 -1.143494
    10 1.312561 -0.000008 0.000000 0.000000 0.054403 -0.409014
    11 0.729362 0.000004 -0.000003 -0.000002 0.040753 -0.240990
    12 3.938059 0.050857 -0.435178 -0.058906 -0.190477 -1.052198
    13 1.539095 0.000004 -0.000002 0.000000 0.003735 -0.247814
    14 1.196325 0.000000 -0.000004 -0.000001 0.006169 -0.430818
    15 3.880859 -0.043091 0.427490 -0.476763 -0.093580 -0.824965
    16 1.719580 0.000011 -0.000015 -0.039460 -0.167701 -0.315837
    17 1.209179 -0.000004 0.000000 0.312038 0.209821 -0.320126
    18 3.863281 -0.136475 1.332031 0.316549 -0.532806 -0.147558
    19 1.719426 -0.000004 0.000007 -0.008714 -0.308204 -1.257834
    20 1.099669 -0.000004 0.000000 -0.000002 0.002587 -0.283860
    21 0.807581 -0.343248 1.320585 -1.196767 -0.519111 -0.923259
    22 1.789783 0.000002 0.000006 -0.000002 -0.003712 0.228604
    23 1.207008 0.000009 -0.000002 0.068240 -0.043107 0.237799
    24 2.035156 0.997070 -1.937500 -1.667267 1.282923 2.944210
    25 6.028140 -0.000004 0.000001 1.339907 0.565366 -0.972402
    26 11.692560 0.000021 -0.000004 -0.075041 -0.217532 -1.379442
    27 11.481653 0.000064 0.000015 -1.172843 0.521669 0.156390
    28 3.854337 -0.131714 1.199996 1.185686 -0.224301 -1.641700
    29 1.312565 0.000000 -0.000002 0.122434 -0.179429 -0.573229
    30 0.729366 0.000004 0.000003 0.000000 -0.000110 -0.248950
    31 3.941984 0.050857 0.435164 -0.031435 -0.126224 -1.323267
    32 1.539099 0.000004 0.000002 -0.245476 0.386205 -0.367027
    33 1.196320 0.000008 0.000004 0.000000 -0.000162 -0.332870
    34 3.880859 -0.047028 -0.427490 0.125580 0.221647 -0.416549
    35 1.719571 0.000019 0.000015 -0.311136 -0.043741 -1.054644
    36 1.209175 0.000004 0.000003 0.172210 -0.116519 -0.543375
    37 3.863496 -0.144303 -1.324347 -0.141219 0.635538 -0.479029
    38 1.719421 -0.000008 -0.000008 -0.052815 0.006926 -0.449862
    39 1.099667 -0.000004 0.000000 0.156990 -0.328270 -0.887119
    40 0.811503 -0.358881 -1.316682 1.243202 0.551772 -0.740648
    41 1.789776 0.000000 0.000002 -0.000008 0.003711 0.228604
    42 1.207008 0.000007 0.000000 0.000000 0.005667 0.362991
    43 3.772911 -5.489323 -0.527648 4.034818 -0.133223 -1.641906
  time 3
    0 -0.000003 -13.531250 -29.421875 1.570788 0.000007 -0.000007
    1 0.000000 3.345131 -2.981898 1.570789 0.086301 1.570789
    2 4.015625 0.000001 0.000000 0.000000 0.000000 -0.029241
    3 3.520294 0.000014 -0.000001 0.000000 0.000000 0.100332
    4 8.929688 0.000000 0.000000 0.000000 0.000000 0.194095
    5 2.035156 0.997070 1.937500 1.596487 -1.284993 2.943127
    6 6.028151 -0.000031 0.000004 -1.453387 -0.506666 -0.759623
    7 11.692549 0.000005 0.000011 0.203365 0.315410 -1.332363
    8 11.481670 0.000049 -0.000031 1.128464 -0.654994 0.088176
    9 3.858219 -0.135628 -1.192198 -0.462168 -0.183015 -1.143494
    10 1.312561 -0.000008 0.000000 0.000000 0.054403 -0.409014
    11 0.729362 0.000004 -0.000003 -0.000002 0.040753 -0.240990
    12 3.938059 0.050857 -0.435178 -0.058906 -0.190477 -1.052198
    13 1.539095 0.000004 -0.000002 0.000000 0.003735 -0.247814
    14 1.196325 0.000000 -0.000004 -0.000001 0.006169 -0.430818
    15 3.880859 -0.043091 0.427490 -0.476763 -0.093580 -0.824965
    16 1.719580 0.000011 -0.000015 -0.039460 -0.167701 -0.315837
    17 1.209179 -0.000004 0.000000 0.312038 0.209821 -0.320126
    18 3.863281 -0.136475 1.332031 0.316549 -0.532806 -0.147558
    19 1.719426 -0.000004 0.000007 -0.008714 -0.308204 -1.257834
    20 1.099669 -0.000004 0.000000 -0.000002 0.002587 -0.283860
    21 0.807581 -0.347154 1.316678 -1.196743 -0.515540 -0.924457
    22 1.789783 0.000002 0.000006 -0.000002 -0.003712 0.228604
    23 1.207008 0.000009 -0.000002 0.068240 -0.043107 0.237799
    24 2.035156 0.997070 -1.937500 -1.667267 1.282923 2.944210
    25 6.028140 -0.000004 0.000001 1.358387 0.584645 -0.961056
    26 11.692560 0.000021 -0.000004 -0.068952 -0.203414 -1.415021
    27 11.481653 0.000064 0.000015 -1.169025 0.525985 0.158212
    28 3.854337 -0.131714 1.199996 1.185711 -0.224301 -1.641700
    29 1.312565 0.000000 -0.000002 0.122434 -0.179429 -0.573229
    30 0.729366 0.000004 0.000003 0.000000 -0.000110 -0.248950
    31 3.941984 0.050857 0.435164 -0.031435 -0.126224 -1.323235
    32 1.539099 0.000004 0.000002 -0.245476 0.386205 -0.367027
    33 1.196320 0.000008 0.000004 0.000000 -0.000162 -0.332870
    34 3.880859 -0.047028 -0.427490 0.125580 0.221647 -0.416549
    35 1.719571 0.000019 0.000015 -0.311136 -0.043741 -1.054644
    36 1.209175 0.000004 0.000003 0.172210 -0.116519 -0.543375
    37 3.867402 -0.144303 -1.324347 -0.141219 0.635538 -0.479029
    38 1.719421 -0.000008 -0.000008 -0.052815 0.006926 -0.449862
    39 1.099667 -0.000004 0.000000 0.156990 -0.328270 -0.887119
    40 0.811503 -0.358881 -1.312776 1.243202 0.551772 -0.740648
    41 1.789776 0.000000 0.000002 -0.000008 0.003711 0.228604
    42 1.207008 0.000007 0.000000 0.000000 0.005667 0.362991
    43 3.772911 -5.489323 -0.527648 4.034818 -0.133223 -1.641906
  time 4
    0 -0.000003 -13.531250 -29.421875 1.570788 0.000007 -0.000007
    1 0.000000 3.345131 -2.981898 1.570789 0.086301 1.570789
    2 4.015625 0.000001 0.000000 0.000000 0.000000 -0.029241
    3 3.520294 0.000014 -0.000001 0.000000 0.000000 0.100332
    4 8.929688 0.000000 0.000000 0.000000 0.000000 0.194095
    5 2.035156 0.997070 1.937500 1.596487 -1.284993 2.943127
    6 6.028151 -0.000031 0.000004 -1.469539 -0.560296 -0.767857
    7 11.692549 0.000005 0.000011 0.186754 0.300669 -1.372908
    8 11.481670 0.000049 -0.000031 1.145788 -0.642141 0.101379
    9 3.858219 -0.135628 -1.192198 -0.462168 -0.183015 -1.143494
    10 1.312561 -0.000008 0.000000 0.000000 0.054403 -0.409014
    11 0.729362 0.000004 -0.000003 -0.000002 0.040753 -0.240990
    12 3.938059 0.050857 -0.435178 -0.058906 -0.190477 -1.052198
    13 1.539095 0.000004 -0.000002 0.000000 0.003735 -0.247814
    14 1.196325 0.000000 -0.000004 -0.000001 0.006169 -0.430818
    15 3.880859 -0.043091 0.427490 -0.476763 -0.093580 -0.824965
    16 1.719580 0.000011 -0.000015 -0.039460 -0.167701 -0.315837
    17 1.209179 -0.000004 0.000000 0.312038 0.209821 -0.320126
    18 3.863281 -0.136475 1.332031 0.316549 -0.532806 -0.147558
    19 1.719426 -0.000004 0.000007 -0.008714 -0.308204 -1.257834
    20 1.099669 -0.000004 0.000000 -0.000002 0.002587 -0.283860
    21 0.807581 -0.343248 1.316678 -1.196743 -0.510710 -0.926054
    22 1.789783 0.000002 0.000006 -0.000002 -0.003712 0.228604
    23 1.207008 0.000009 -0.000002 0.068240 -0.043107 0.237799
    24 2.035156 0.997070 -1.937500 -1.667267 1.282923 2.944210
    25 6.028140 -0.000004 0.000001 1.384094 0.610782 -0.945529
    26 11.692560 0.000021 -0.000004 -0.060731 -0.184347 -1.463139
    27 11.481653 0.000064 0.000015 -1.163825 0.531788 0.160705
    28 3.854337 -0.131714 1.199996 1.185711 -0.224301 -1.641700
    29 1.312565 0.000000 -0.000002 0.122434 -0.179429 -0.573229
    30 0.729366 0.000004 0.000003 0.000000 -0.000110 -0.248950
    31 3.941984 0.050857 0.435164 -0.031435 -0.126224 -1.323235
    32 1.539099 0.000004 0.000002 -0.245476 0.386205 -0.367027
    33 1.196320 0.000008 0.000004 0.000000 -0.000162 -0.332870
    34 3.880859 -0.047028 -0.427490 0.125580 0.221647 -0.416549
    35 1.719571 0.000019 0.000015 -0.311136 -0.043741 -1.054644
    36 1.209175 0.000004 0.000003 0.172210 -0.116519 -0.543375
    37 3.867402 -0.144303 -1.324347 -0.141219 0.635538 -0.479029
    38 1.719421 -0.000008 -0.000008 -0.052815 0.006926 -0.449862
    39 1.099667 -0.000004 0.000000 0.156990 -0.328270 -0.887119
    40 0.811503 -0.358881 -1.312776 1.243202 0.551772 -0.740648
    41 1.789776 0.000000 0.000002 -0.000008 0.003711 0.228604
    42 1.207008 0.000007 0.000000 0.000000 0.005667 0.362991
    43 3.772911 -5.489323 -0.527648 4.034818 -0.133223 -1.641906
  time 5
    0 -0.000003 -13.531250 -29.421875 1.570788 0.000007 -0.000007
    1 0.000000 3.345131 -2.981898 1.570789 0.086301 1.570789
    2 4.015625 0.000001 0.000000 0.000000 0.000000 -0.029241
    3 3.520294 0.000014 -0.000001 0.000000 0.000000 0.100332
    4 8.929688 0.000000 0.000000 0.000000 0.000000 0.194095
    5 2.035156 0.997070 1.937500 1.596487 -1.284993 2.943127
    6 6.028151 -0.000031 0.000004 -1.487349 -0.624357 -0.779314
    7 11.692549 0.000005 0.000011 0.166704 0.283028 -1.422304
    8 11.481670 0.000049 -0.000031 1.166860 -0.626658 0.117192
    9 3.858219 -0.135628 -1.192198 -0.462168 -0.183015 -1.143494
    10 1.312561 -0.000008 0.000000 0.000000 0.054403 -0.409014
    11 0.729362 0.000004 -0.000003 -0.000002 0.040753 -0.240990
    12 3.938059 0.050857 -0.435178 -0.058906 -0.190477 -1.052198
    13 1.539095 0.000004 -0.000002 0.000000 0.003735 -0.247814
    14 1.196325 0.000000 -0.000004 -0.000001 0.006169 -0.430818
    15 3.880859 -0.043091 0.427490 -0.476763 -0.093580 -0.824965
    16 1.719580 0.000011 -0.000015 -0.039460 -0.167701 -0.315837
    17 1.209179 -0.000004 0.000000 0.312038 0.209821 -0.320126
    18 3.863281 -0.136475 1.332031 0.316549 -0.532806 -0.147558
    19 1.719426 -0.000004 0.000007 -0.008714 -0.308204 -1.257834
    20 1.099669 -0.000004 0.000000 -0.000002 0.002587 -0.283860
    21 0.807581 -0.343248 1.320585 -1.196779 -0.504921 -0.927975
    22 1.789783 0.000002 0.000006 -0.000002 -0.003712 0.228604
    23 1.207008 0.000009 -0.000002 0.068240 -0.043107 0.237799
    24 2.035156 0.997070 -1.937500 -1.667267 1.282923 2.944210
    25 6.028140 -0.000004 0.000001 1.416081 0.642257 -0.926545
    26 11.692560 0.000021 -0.000004 -0.050880 -0.161516 -1.520688
    27 11.481653 0.000064 0.000015 -1.157555 0.538751 0.163701
    28 3.854337 -0.131714 1.199996 1.185686 -0.224301 -1.641700
    29 1.312565 0.000000 -0.000002 0.122434 -0.179429 -0.573229
    30 0.729366 0.000004 0.000003 0.000000 -0.000110 -0.248950
    31 3.938077 0.050857 0.435164 -0.031435 -0.126224 -1.323235
    32 1.539099 0.000004 0.000002 -0.245476 0.386205 -0.367027
    33 1.196320 0.000008 0.000004 0.000000 -0.000162 -0.332870
    34 3.880859 -0.047028 -0.427490 0.125580 0.221647 -0.416549
    35 1.719571 0.000019 0.000015 -0.311136 -0.043741 -1.054644
    36 1.209175 0.000004 0.000003 0.172210 -0.116519 -0.543375
    37 3.863496 -0.144303 -1.324347 -0.141219 0.635538 -0.479029
    38 1.719421 -0.000008 -0.000008 -0.052815 0.006926 -0.449862
    39 1.099667 -0.000004 0.000000 0.156990 -0.328270 -0.887119
    40 0.807596 -0.358881 -1.312776 1.243202 0.551772 -0.740648
    41 1.789776 0.000000 0.000002 -0.000008 0.003711 0.228604
    42 1.207008 0.000007 0.000000 0.000000 0.005667 0.362991
    43 3.772911 -5.489323 -0.527648 4.034818 -0.133223 -1.641906
  time 6
    0 -0.000003 -13.531250 -29.421875 1.570788 0.000007 -0.000007
    1 0.000000 3.345131 -2.981898 1.570789 0.086301 1.570789
    2 4.015625 0.000001 0.000000 0.000000 0.000000 -0.029241
    3 3.520294 0.000014 -0.000001 0.000000 0.000000 0.100332
    4 8.929688 0.000000 0.000000 0.000000 0.000000 0.194095
    5 2.035156 0.997070 1.937500 1.596487 -1.284993 2.943127
    6 6.028151 -0.000031 0.000004 -1.504407 -0.693961 -0.794199
    7 11.692549 0.000005 0.000011 0.144616 0.263793 -1.477423
    8 11.481670 0.000049 -0.000031 1.190219 -0.609649 0.134565
    9 3.858219 -0.135628 -1.192198 -0.462168 -0.183015 -1.143494
    10 1.312561 -0.000008 0.000000 0.000000 0.054403 -0.409014
    11 0.729362 0.000004 -0.000003 -0.000002 0.040753 -0.240990
    12 3.941966 0.050857 -0.435178 -0.058906 -0.190477 -1.052198
    13 1.539095 0.000004 -0.000002 0.000000 0.003735 -0.247814
    14 1.196325 0.000000 -0.000004 -0.000001 0.006169 -0.430818
    15 3.880859 -0.043091 0.427490 -0.476763 -0.093580 -0.824965
    16 1.719580 0.000011 -0.000015 -0.039460 -0.167701 -0.315837
    17 1.209179 -0.000004 0.000000 0.312038 0.209821 -0.320126
    18 3.863281 -0.136475 1.332031 0.316549 -0.532806 -0.147558
    19 1.719426 -0.000004 0.000007 -0.008714 -0.308204 -1.257834
    20 1.099669 -0.000004 0.000000 -0.000002 0.002587 -0.283860
    21 0.807581 -0.343248 1.320585 -1.196839 -0.498629 -0.930058
    22 1.789783 0.000002 0.000006 -0.000002 -0.003712 0.228604
    23 1.207008 0.000009 -0.000002 0.068240 -0.043107 0.237799
    24 2.035156 0.997070 -1.937500 -1.667267 1.282923 2.944210
    25 6.028140 -0.000004 0.000001 1.452490 0.676725 -0.905273
    26 11.692560 0.000021 -0.000004 -0.040141 -0.136648 -1.583434
    27 11.481653 0.000064 0.000015 -1.150676 0.546319 0.167009
    28 3.854337 -0.131714 1.199996 1.185711 -0.224301 -1.641700
    29 1.312565 0.000000 -0.000002 0.122434 -0.179429 -0.573229
    30 0.729366 0.000004 0.000003 0.000000 -0.000110 -0.248950
    31 3.938077 0.050857 0.435164 -0.031435 -0.126224 -1.323235
    32 1.539099 0.000004 0.000002 -0.245476 0.386205 -0.367027
    33 1.196320 0.000008 0.000004 0.000000 -0.000162 -0.332870
    34 3.880859 -0.047028 -0.427490 0.125580 0.221647 -0.416549
    35 1.719571 0.000019 0.000015 -0.311136 -0.043741 -1.054644
    36 1.209175 0.000004 0.000003 0.172210 -0.116519 -0.543375
    37 3.863496 -0.144303 -1.324347 -0.141219 0.635538 -0.479029
    38 1.719421 -0.000008 -0.000008 -0.052815 0.006926 -0.449862
    39 1.099667 -0.000004 0.000000 0.156990 -0.328270 -0.887119
    40 0.807596 -0.358881 -1.312776 1.243202 0.551772 -0.740648
    41 1.789776 0.000000 0.000002 -0.000008 0.003711 0.228604
    42 1.207008 0.000007 0.000000 0.000000 0.005667 0.362991
    43 3.772911 -5.489323 -0.527648 4.034818 -0.133223 -1.641906
  time 7
    0 -0.000003 -13.531250 -29.421875 1.570788 0.000007 -0.000007
    1 0.000000 3.345131 -2.981898 1.570789 0.086301 1.570789
    2 4.015625 0.000001 0.000000 0.000000 0.000000 -0.029241
    3 3.520294 0.000014 -0.000001 0.000000 0.000000 0.100332
    4 8.929688 0.000000 0.000000 0.000000 0.000000 0.194095
    5 2.035156 0.997070 1.937500 1.596487 -1.284993 2.943127
    6 6.028151 -0.000031 0.000004 -1.518343 -0.763204 -0.812212
    7 11.692549 0.000005 0.000011 0.122217 0.244557 -1.534397
    8 11.481670 0.000049 -0.000031 1.213919 -0.592504 0.152234
    9 3.858219 -0.135628 -1.192198 -0.462168 -0.183015 -1.143494
    10 1.312561 -0.000008 0.000000 0.000000 0.054403 -0.409014
    11 0.729362 0.000004 -0.000003 -0.000002 0.040753 -0.240990
    12 3.938059 0.050857 -0.435178 -0.058906 -0.190477 -1.052198
    13 1.539095 0.000004 -0.000002 0.000000 0.003735 -0.247814
    14 1.196325 0.000000 -0.000004 -0.000001 0.006169 -0.430818
    15 3.880859 -0.043091 0.427490 -0.476763 -0.093580 -0.824965
    16 1.719580 0.000011 -0.000015 -0.039460 -0.167701 -0.315837
    17 1.209179 -0.000004 0.000000 0.312038 0.209821 -0.320126
    18 3.863281 -0.136475 1.332031 0.316549 -0.532806 -0.147558
    19 1.719426 -0.000004 0.000007 -0.008714 -0.308204 -1.257834
    20 1.099669 -0.000004 0.000000 -0.000002 0.002587 -0.283860
    21 0.807581 -0.343248 1.320585 -1.196935 -0.492337 -0.932129
    22 1.789783 0.000002 0.000006 -0.000002 -0.003712 0.228604
    23 1.207008 0.000009 -0.000002 0.068240 -0.043107 0.237799
    24 2.035156 0.997070 -1.937500 -1.667267 1.282923 2.944210
    25 6.028140 -0.000004 0.000001 1.490649 0.711317 -0.883254
    26 11.692560 0.000021 -0.000004 -0.029415 -0.111768 -1.646180
    27 11.481653 0.000064 0.000015 -1.143730 0.553871 0.170352
    28 3.854337 -0.131714 1.199996 1.185711 -0.224301 -1.641700
    29 1.312565 0.000000 -0.000002 0.122434 -0.179429 -0.573229
    30 0.729366 0.000004 0.000003 0.000000 -0.000110 -0.248950
    31 3.938077 0.050857 0.435164 -0.031435 -0.126224 -1.323235
    32 1.539099 0.000004 0.000002 -0.245476 0.386205 -0.367027
    33 1.196320 0.000008 0.000004 0.000000 -0.000162 -0.332870
    34 3.880859 -0.047028 -0.427490 0.125580 0.221647 -0.416549
    35 1.719571 0.000019 0.000015 -0.311136 -0.043741 -1.054644
    36 1.209175 0.000004 0.000003 0.172210 -0.116519 -0.543375
    37 3.863496 -0.144303 -1.324347 -0.141219 0.635538 -0.479029
    38 1.719421 -0.000008 -0.000008 -0.052815 0.006926 -0.449862
    39 1.099667 -0.000004 0.000000 0.156990 -0.328270 -0.887119
    40 0.811503 -0.358881 -1.312776 1.243202 0.551772 -0.740648
    41 1.789776 0.000000 0.000002 -0.000008 0.003711 0.228604
    42 1.207008 0.000007 0.000000 0.000000 0.005667 0.362991
    43 3.772911 -5.489323 -0.527648 4.034818 -0.133223 -1.641906
  time 8
    0 -0.000003 -13.531250 -29.421875 1.570788 0.000007 -0.000007
    1 0.000000 3.345131 -2.981898 1.570789 0.086301 1.570789
    2 4.015625 0.000001 0.000000 0.000000 0.000000 -0.029241
    3 3.520294 0.000014 -0.000001 0.000000 0.000000 0.100332
    4 8.929688 0.000000 0.000000 0.000000 0.000000 0.194095
    5 2.035156 0.997070 1.937500 1.596487 -1.284993 2.943127
    6 6.028151 -0.000031 0.000004 -1.527575 -0.826346 -0.832322
    7 11.692549 0.000005 0.000011 0.101220 0.226904 -1.589093
    8 11.481670 0.000049 -0.000031 1.235769 -0.576615 0.169048
    9 3.858219 -0.135628 -1.192198 -0.462168 -0.183015 -1.143494
    10 1.312561 -0.000008 0.000000 0.000000 0.054403 -0.409014
    11 0.729362 0.000004 -0.000003 -0.000002 0.040753 -0.240990
    12 3.938059 0.050857 -0.435178 -0.058906 -0.190477 -1.052198
    13 1.539095 0.000004 -0.000002 0.000000 0.003735 -0.247814
    14 1.196325 0.000000 -0.000004 -0.000001 0.006169 -0.430818
    15 3.880859 -0.043091 0.427490 -0.476763 -0.093580 -0.824965
    16 1.719580 0.000011 -0.000015 -0.039460 -0.167701 -0.315837
    17 1.209179 -0.000004 0.000000 0.312038 0.209821 -0.320126
    18 3.863281 -0.136475 1.332031 0.316549 -0.532806 -0.147558
    19 1.719426 -0.000004 0.000007 -0.008714 -0.308204 -1.257834
    20 1.099669 -0.000004 0.000000 -0.000002 0.002587 -0.283860
    21 0.807581 -0.343248 1.316678 -1.197054 -0.486561 -0.934025
    22 1.789783 0.000002 0.000006 -0.000002 -0.003712 0.228604
    23 1.207008 0.000009 -0.000002 0.068240 -0.043107 0.237799
    24 2.035156 0.997070 -1.937500 -1.667267 1.282923 2.944210
    25 6.028140 -0.000004 0.000001 1.527310 0.743116 -0.862246
    26 11.692560 0.000021 -0.000004 -0.019564 -0.088937 -1.703729
    27 11.481653 0.000064 0.000015 -1.137298 0.560802 0.173456
    28 3.854337 -0.131714 1.199996 1.185686 -0.224301 -1.641700
    29 1.312565 0.000000 -0.000002 0.122434 -0.179429 -0.573229
    30 0.729366 0.000004 0.000003 0.000000 -0.000110 -0.248950
    31 3.941984 0.050857 0.435164 -0.031435 -0.126224 -1.323235
    32 1.539099 0.000004 0.000002 -0.245476 0.386205 -0.367027
    33 1.196320 0.000008 0.000004 0.000000 -0.000162 -0.332870
    34 3.880859 -0.047028 -0.427490 0.125580 0.221647 -0.416549
    35 1.719571 0.000019 0.000015 -0.311136 -0.043741 -1.054644
    36 1.209175 0.000004 0.000003 0.172210 -0.116519 -0.543375
    37 3.863496 -0.144303 -1.324347 -0.141219 0.635538 -0.479029
    38 1.719421 -0.000008 -0.000008 -0.052815 0.006926 -0.449862
    39 1.099667 -0.000004 0.000000 0.156990 -0.328270 -0.887119
    40 0.811503 -0.358881 -1.312776 1.243202 0.551772 -0.740648
    41 1.789776 0.000000 0.000002 -0.000008 0.003711 0.228604
    42 1.207008 0.000007 0.000000 0.000000 0.005667 0.362991
    43 3.772911 -5.489323 -0.527648 4.034818 -0.133223 -1.641906
  time 9
    0 -0.000003 -13.531250 -29.421875 1.570788 0.000007 -0.000007
    1 0.000000 3.345131 -2.981898 1.570789 0.086301 1.570789
    2 4.015625 0.000001 0.000000 0.000000 0.000000 -0.029241
    3 3.520294 0.000014 -0.000001 0.000000 0.000000 0.100332
    4 8.929688 0.000000 0.000000 0.000000 0.000000 0.194095
    5 2.035156 0.997070 1.937500 1.596487 -1.284993 2.943127
    6 6.028151 -0.000031 0.000004 -1.531835 -0.878664 -0.852588
    7 11.692549 0.000005 0.000011 0.083087 0.212175 -1.638117
    8 11.481670 0.000049 -0.000031 1.253823 -0.563221 0.184090
    9 3.858219 -0.135628 -1.192198 -0.462168 -0.183015 -1.143494
    10 1.312561 -0.000008 0.000000 0.000000 0.054403 -0.409014
    11 0.729362 0.000004 -0.000003 -0.000002 0.040753 -0.240990
    12 3.938059 0.050857 -0.435178 -0.058906 -0.190477 -1.052198
    13 1.539095 0.000004 -0.000002 0.000000 0.003735 -0.247814
    14 1.196325 0.000000 -0.000004 -0.000001 0.006169 -0.430818
    15 3.880859 -0.043091 0.427490 -0.476763 -0.093580 -0.824965
    16 1.719580 0.000011 -0.000015 -0.039460 -0.167701 -0.315837
    17 1.209179 -0.000004 0.000000 0.312038 0.209821 -0.320126
    18 3.863281 -0.136475 1.332031 0.316549 -0.532806 -0.147558
    19 1.719426 -0.000004 0.000007 -0.008714 -0.308204 -1.257834
    20 1.099669 -0.000004 0.000000 -0.000002 0.002587 -0.283860
    21 0.807581 -0.343248 1.316678 -1.197186 -0.481743 -0.935609
    22 1.789783 0.000002 0.000006 -0.000002 -0.003712 0.228604
    23 1.207008 0.000009 -0.000002 0.068240 -0.043107 0.237799
    24 2.035156 0.997070 -1.937500 -1.667267 1.282923 2.944210
    25 6.028140 -0.000004 0.000001 1.559237 0.769728 -0.844021
    26 11.692560 0.000021 -0.000004 -0.011342 -0.069882 -1.751794
    27 11.481653 0.000064 0.000015 -1.131895 0.566589 0.176069
    28 3.854337 -0.127808 1.199996 1.185711 -0.224301 -1.641700
    29 1.312565 0.000000 -0.000002 0.122434 -0.179429 -0.573229
    30 0.729366 0.000004 0.000003 0.000000 -0.000110 -0.248950
    31 3.938077 0.050857 0.435164 -0.031435 -0.126224 -1.323235
    32 1.539099 0.000004 0.000002 -0.245476 0.386205 -0.367027
    33 1.196320 0.000008 0.000004 0.000000 -0.000162 -0.332870
    34 3.880859 -0.047028 -0.427490 0.125580 0.221647 -0.416549
    35 1.719571 0.000019 0.000015 -0.311136 -0.043741 -1.054644
    36 1.209175 0.000004 0.000003 0.172210 -0.116519 -0.543375
    37 3.863496 -0.144303 -1.324347 -0.141219 0.635538 -0.479029
    38 1.719421 -0.000008 -0.000008 -0.052815 0.006926 -0.449862
    39 1.099667 -0.000004 0.000000 0.156990 -0.328270 -0.887119
    40 0.807596 -0.358881 -1.312776 1.243202 0.551772 -0.740648
    41 1.789776 0.000000 0.000002 -0.000008 0.003711 0.228604
    42 1.207008 0.000007 0.000000 0.000000 0.005667 0.362991
    43 3.772911 -5.489323 -0.527648 4.034818 -0.133223 -1.641906
  time 10
    0 -0.000003 -13.531250 -29.421875 1.570788 0.000007 -0.000007
    1 0.000000 3.345131 -2.981898 1.570789 0.086301 1.570789
    2 4.015625 0.000001 0.000000 0.000000 0.000000 -0.029241
    3 3.520294 0.000014 -0.000001 0.000000 0.000000 0.100332
    4 8.929688 0.000000 0.000000 0.000000 0.000000 0.194095
    5 2.035156 0.997070 1.937500 1.596487 -1.284993 2.943127
    6 6.028151 -0.000031 0.000004 -1.532240 -0.917107 -0.870445
    7 11.692549 0.000005 0.000011 0.068861 0.201257 -1.678927
    8 11.481670 0.000049 -0.000031 1.266622 -0.553131 0.196734
    9 3.858219 -0.135628 -1.192198 -0.462168 -0.183015 -1.143494
    10 1.312561 -0.000008 0.000000 0.000000 0.054403 -0.409014
    11 0.729362 0.000004 -0.000003 -0.000002 0.040753 -0.240990
    12 3.941966 0.050857 -0.435178 -0.058906 -0.190477 -1.052198
    13 1.539095 0.000004 -0.000002 0.000000 0.003735 -0.247814
    14 1.196325 0.000000 -0.000004 -0.000001 0.006169 -0.430818
    15 3.880859 -0.043091 0.427490 -0.476763 -0.093580 -0.824965
    16 1.719580 0.000011 -0.000015 -0.039460 -0.167701 -0.315837
    17 1.209179 -0.000004 0.000000 0.312038 0.209821 -0.320126
    18 3.863281 -0.136475 1.332031 0.316549 -0.532806 -0.147558
    19 1.719426 -0.000004 0.000007 -0.008714 -0.308204 -1.257834
    20 1.099669 -0.000004 0.000000 -0.000002 0.002587 -0.283860
    21 0.807581 -0.343248 1.320585 -1.197294 -0.478172 -0.936782
    22 1.789783 0.000002 0.000006 -0.000002 -0.003712 0.228604
    23 1.207008 0.000009 -0.000002 0.068240 -0.043107 0.237799
    24 2.035156 0.997070 -1.937500 -1.667267 1.282923 2.944210
    25 6.028140 -0.000004 0.000001 1.583697 0.789431 -0.830048
    26 11.692560 0.000021 -0.000004 -0.005242 -0.055752 -1.787427
    27 11.481653 0.000064 0.000015 -1.127873 0.570855 0.178022
    28 3.854337 -0.131714 1.199996 1.185686 -0.224301 -1.641700
    29 1.312565 0.000000 -0.000002 0.122434 -0.179429 -0.573229
    30 0.729366 0.000004 0.000003 0.000000 -0.000110 -0.248950
    31 3.941984 0.050857 0.435164 -0.031435 -0.126224 -1.323235
    32 1.539099 0.000004 0.000002 -0.245476 0.386205 -0.367027
    33 1.196320 0.000008 0.000004 0.000000 -0.000162 -0.332870
    34 3.880859 -0.047028 -0.427490 0.125580 0.221647 -0.416549
    35 1.719571 0.000019 0.000015 -0.311136 -0.043741 -1.054644
    36 1.209175 0.000004 0.000003 0.172210 -0.116519 -0.543375
    37 3.863496 -0.144303 -1.324347 -0.141219 0.635538 -0.479029
    38 1.719421 -0.000008 -0.000008 -0.052815 0.006926 -0.449862
    39 1.099667 -0.000004 0.000000 0.156990 -0.328270 -0.887119
    40 0.811503 -0.358881 -1.312776 1.243202 0.551772 -0.740648
    41 1.789776 0.000000 0.000002 -0.000008 0.003711 0.228604
    42 1.207008 0.000007 0.000000 0.000000 0.005667 0.362991
    43 3.772911 -5.489323 -0.527648 4.034818 -0.133223 -1.641906
  time 11
    0 -0.000003 -13.531250 -29.421875 1.570788 0.000007 -0.000007
    1 0.000000 3.345131 -2.981898 1.570789 0.086301 1.570789
    2 4.015625 0.000001 0.000000 0.000000 0.000000 -0.029241
    3 3.520294 0.000014 -0.000001 0.000000 0.000000 0.100332
    4 8.929688 0.000000 0.000000 0.000000 0.000000 0.194095
    5 2.035156 0.997070 1.937500 1.596487 -1.284993 2.943127
    6 6.028151 -0.000031 0.000004 -1.530621 -0.940166 -0.883256
    7 11.692549 0.000005 0.000011 0.059106 0.194630 -1.709985
    8 11.481670 0.000049 -0.000031 1.273338 -0.546810 0.206668
    9 3.858219 -0.135628 -1.192198 -0.462168 -0.183015 -1.143494
    10 1.312561 -0.000008 0.000000 0.000000 0.054403 -0.409014
    11 0.729362 0.000004 -0.000003 -0.000002 0.040753 -0.240990
    12 3.941966 0.050857 -0.435178 -0.058906 -0.190477 -1.052198
    13 1.539095 0.000004 -0.000002 0.000000 0.003735 -0.247814
    14 1.196325 0.000000 -0.000004 -0.000001 0.006169 -0.430818
    15 3.880859 -0.043091 0.427490 -0.476763 -0.093580 -0.824965
    16 1.719580 0.000011 -0.000015 -0.039460 -0.167701 -0.315837
    17 1.209179 -0.000004 0.000000 0.312038 0.209821 -0.320126
    18 3.863281 -0.136475 1.332031 0.316549 -0.532806 -0.147558
    19 1.719426 -0.000004 0.000007 -0.008714 -0.308204 -1.257834
    20 1.099669 -0.000004 0.000000 -0.000002 0.002587 -0.283860
    21 0.807581 -0.343248 1.320585 -1.197366 -0.476002 -0.937493
    22 1.789783 0.000002 0.000006 -0.000002 -0.003712 0.228604
    23 1.207008 0.000009 -0.000002 0.068240 -0.043107 0.237799
    24 2.035156 0.997070 -1.937500 -1.667267 1.282923 2.944210
    25 6.028140 -0.000004 0.000001 1.598894 0.801377 -0.821364
    26 11.692560 0.000021 -0.000004 -0.001551 -0.047195 -1.809021
    27 11.481653 0.000064 0.000015 -1.125422 0.573454 0.179221
    28 3.854337 -0.127808 1.199996 1.185711 -0.224301 -1.641700
    29 1.312565 0.000000 -0.000002 0.122434 -0.179429 -0.573229
    30 0.729366 0.000004 0.000003 0.000000 -0.000110 -0.248950
    31 3.941984 0.050857 0.435164 -0.031435 -0.126224 -1.323235
    32 1.539099 0.000004 0.000002 -0.245476 0.386205 -0.367027
    33 1.196320 0.000008 0.000004 0.000000 -0.000162 -0.332870
    34 3.880859 -0.047028 -0.427490 0.125580 0.221647 -0.416549
    35 1.719571 0.000019 0.000015 -0.311136 -0.043741 -1.054644
    36 1.209175 0.000004 0.000003 0.172210 -0.116519 -0.543375
    37 3.863496 -0.144303 -1.324347 -0.141219 0.635538 -0.479029
    38 1.719421 -0.000008 -0.000008 -0.052815 0.006926 -0.449862
    39 1.099667 -0.000004 0.000000 0.156990 -0.328270 -0.887119
    40 0.807596 -0.358881 -1.312776 1.243202 0.551772 -0.740648
    41 1.789776 0.000000 0.000002 -0.000008 0.003711 0.228604
    42 1.207008 0.000007 0.000000 0.000000 0.005667 0.362991
    43 3.772911 -5.489323 -0.527648 4.034818 -0.133223 -1.641906
  time 12
    0 -0.000003 -13.531250 -29.421875 1.570788 0.000007 -0.000007
    1 0.000000 3.345131 -2.981898 1.570789 0.086301 1.570789
    2 4.015625 0.000001 0.000000 0.000000 0.000000 -0.029241
    3 3.520294 0.000014 -0.000001 0.000000 0.000000 0.100332
    4 8.929688 0.000000 0.000000 0.000000 0.000000 0.194095
    5 2.035156 0.997070 1.937500 1.596487 -1.284993 2.943127
    6 6.028151 -0.000031 0.000004 -1.528674 -0.947579 -0.889189
    7 11.692549 0.000005 0.000011 0.054001 0.192436 -1.730866
    8 11.481670 0.000049 -0.000031 1.273581 -0.544394 0.213828
    9 3.858219 -0.135628 -1.192198 -0.462168 -0.183015 -1.143494
    10 1.312561 -0.000008 0.000000 0.000000 0.054403 -0.409014
    11 0.729362 0.000004 -0.000003 -0.000002 0.040753 -0.240990
    12 3.941966 0.050857 -0.435178 -0.058906 -0.190477 -1.052198
    13 1.539095 0.000004 -0.000002 0.000000 0.003735 -0.247814
    14 1.196325 0.000000 -0.000004 -0.000001 0.006169 -0.430818
    15 3.880859 -0.043091 0.427490 -0.476763 -0.093580 -0.824965
    16 1.719580 0.000011 -0.000015 -0.039460 -0.167701 -0.315837
    17 1.209179 -0.000004 0.000000 0.312038 0.209821 -0.320126
    18 3.863281 -0.136475 1.332031 0.316549 -0.532806 -0.147558
    19 1.719426 -0.000004 0.000007 -0.008714 -0.308204 -1.257834
    20 1.099669 -0.000004 0.000000 -0.000002 0.002587 -0.283860
    21 0.807581 -0.343248 1.320585 -1.197390 -0.475295 -0.937730
    22 1.789783 0.000002 0.000006 -0.000002 -0.003712 0.228604
    23 1.207008 0.000009 -0.000002 0.068240 -0.043107 0.237799
    24 2.035156 0.997070 -1.937500 -1.667267 1.282923 2.944210
    25 6.028140 -0.000004 0.000001 1.603987 0.805343 -0.818449
    26 11.692560 0.000021 -0.000004 -0.000329 -0.044355 -1.816201
    27 11.481653 0.000064 0.000015 -1.124596 0.574320 0.179616
    28 3.854337 -0.127808 1.199996 1.185686 -0.224301 -1.641700
    29 1.312565 0.000000 -0.000002 0.122434 -0.179429 -0.573229
    30 0.729366 0.000004 0.000003 0.000000 -0.000110 -0.248950
    31 3.938077 0.050857 0.435164 -0.031435 -0.126224 -1.323235
    32 1.539099 0.000004 0.000002 -0.245476 0.386205 -0.367027
    33 1.196320 0.000008 0.000004 0.000000 -0.000162 -0.332870
    34 3.880859 -0.047028 -0.427490 0.125580 0.221647 -0.416549
    35 1.719571 0.000019 0.000015 -0.311136 -0.043741 -1.054644
    36 1.209175 0.000004 0.000003 0.172210 -0.116519 -0.543375
    37 3.863496 -0.144303 -1.324347 -0.141219 0.635538 -0.479029
    38 1.719421 -0.000008 -0.000008 -0.052815 0.006926 -0.449862
    39 1.099667 -0.000004 0.000000 0.156990 -0.328270 -0.887119
    40 0.807596 -0.358881 -1.312776 1.243202 0.551772 -0.740648
    41 1.789776 0.000000 0.000002 -0.000008 0.003711 0.228604
    42 1.207008 0.000007 0.000000 0.000000 0.005667 0.362991
    43 3.772911 -5.489323 -0.527648 4.034818 -0.133223 -1.641906
  time 13
    0 -0.000003 -13.531250 -29.421875 1.570788 0.000007 -0.000007
    1 0.000000 3.345131 -2.981898 1.570789 0.086301 1.570789
    2 4.015625 0.000001 0.000000 0.000000 0.000000 -0.029241
    3 3.520294 0.000014 -0.000001 0.000000 0.000000 0.100332
    4 8.929688 0.000000 0.000000 0.000000 0.000000 0.194095
    5 2.035156 0.997070 1.937500 1.596487 -1.284993 2.943127
    6 6.028151 -0.000031 0.000004 -1.530293 -0.937739 -0.887043
    7 11.692549 0.000005 0.000011 0.051520 0.192472 -1.744805
    8 11.481670 0.000049 -0.000031 1.268325 -0.547583 0.219362
    9 3.858219 -0.135628 -1.192198 -0.462168 -0.183015 -1.143494
    10 1.312561 -0.000008 0.000000 0.000000 0.054403 -0.409014
    11 0.729362 0.000004 -0.000003 -0.000002 0.040753 -0.240990
    12 3.938059 0.050857 -0.435178 -0.058906 -0.190477 -1.052198
    13 1.539095 0.000004 -0.000002 0.000000 0.003735 -0.247814
    14 1.196325 0.000000 -0.000004 -0.000001 0.006169 -0.430818
    15 3.880859 -0.043091 0.427490 -0.476763 -0.093580 -0.824965
    16 1.719580 0.000011 -0.000015 -0.039460 -0.167701 -0.315837
    17 1.209179 -0.000004 0.000000 0.312038 0.209821 -0.320126
    18 3.863281 -0.136475 1.332031 0.316549 -0.532806 -0.147558
    19 1.719426 -0.000004 0.000007 -0.008714 -0.308204 -1.257834
    20 1.099669 -0.000004 0.000000 -0.000002 0.002587 -0.283860
    21 0.807581 -0.343248 1.320585 -1.197390 -0.475295 -0.937730
    22 1.789783 0.000002 0.000006 -0.000002 -0.003712 0.228604
    23 1.207008 0.000009 -0.000002 0.068240 -0.043107 0.237799
    24 2.035156 0.997070 -1.937500 -1.667267 1.282923 2.944210
    25 6.028140 -0.000004 0.000001 1.600416 0.804271 -0.820701
    26 11.692560 0.000021 -0.000004 -0.000329 -0.046368 -1.815772
    27 11.481653 0.000064 0.000015 -1.129999 0.569547 0.177435
    28 3.854337 -0.127808 1.199996 1.185711 -0.224301 -1.641700
    29 1.312565 0.000000 -0.000002 0.122434 -0.179429 -0.573229
    30 0.729366 0.000004 0.000003 0.000000 -0.000110 -0.248950
    31 3.938077 0.050857 0.435164 -0.031435 -0.126224 -1.323235
    32 1.539099 0.000004 0.000002 -0.245476 0.386205 -0.367027
    33 1.196320 0.000008 0.000004 0.000000 -0.000162 -0.332870
    34 3.880859 -0.047028 -0.427490 0.125580 0.221647 -0.416549
    35 1.719571 0.000019 0.000015 -0.311136 -0.043741 -1.054644
    36 1.209175 0.000004 0.000003 0.172210 -0.116519 -0.543375
    37 3.863496 -0.144303 -1.324347 -0.141219 0.635538 -0.479029
    38 1.719421 -0.000008 -0.000008 -0.052815 0.006926 -0.449862
    39 1.099667 -0.000004 0.000000 0.156990 -0.328270 -0.887119
    40 0.811503 -0.358881 -1.312776 1.243202 0.551772 -0.740648
    41 1.789776 0.000000 0.000002 -0.000008 0.003711 0.228604
    42 1.207008 0.000007 0.000000 0.000000 0.005667 0.362991
    43 3.772911 -5.489323 -0.527648 4.034818 -0.133223 -1.641906
  time 14
    0 -0.000003 -13.531250 -29.421875 1.570788 0.000007 -0.000007
    1 0.000000 3.345131 -2.981898 1.570789 0.086301 1.570789
    2 4.015625 0.000001 0.000000 0.000000 0.000000 -0.029241
    3 3.520294 0.000014 -0.000001 0.000000 0.000000 0.100332
    4 8.929688 0.000000 0.000000 0.000000 0.000000 0.194095
    5 2.035156 0.997070 1.937500 1.596487 -1.284993 2.943127
    6 6.028151 -0.000031 0.000004 -1.537598 -0.910580 -0.877492
    7 11.692549 0.000005 0.000011 0.049794 0.192544 -1.754557
    8 11.481670 0.000049 -0.000031 1.259128 -0.557441 0.224156
    9 3.858219 -0.135628 -1.192198 -0.462168 -0.183015 -1.143494
    10 1.312561 -0.000008 0.000000 0.000000 0.054403 -0.409014
    11 0.729362 0.000004 -0.000003 -0.000002 0.040753 -0.240990
    12 3.938059 0.050857 -0.435178 -0.058906 -0.190477 -1.052198
    13 1.539095 0.000004 -0.000002 0.000000 0.003735 -0.247814
    14 1.196325 0.000000 -0.000004 -0.000001 0.006169 -0.430818
    15 3.880859 -0.043091 0.427490 -0.476763 -0.093580 -0.824965
    16 1.719580 0.000011 -0.000015 -0.039460 -0.167701 -0.315837
    17 1.209179 -0.000004 0.000000 0.312038 0.209821 -0.320126
    18 3.863281 -0.136475 1.332031 0.316549 -0.532806 -0.147558
    19 1.719426 -0.000004 0.000007 -0.008714 -0.308204 -1.257834
    20 1.099669 -0.000004 0.000000 -0.000002 0.002587 -0.283860
    21 0.807581 -0.343248 1.320585 -1.197390 -0.475295 -0.937730
    22 1.789783 0.000002 0.000006 -0.000002 -0.003712 0.228604
    23 1.207008 0.000009 -0.000002 0.068240 -0.043107 0.237799
    24 2.035156 0.997070 -1.937500 -1.667267 1.282923 2.944210
    25 6.028140 -0.000004 0.000001 1.590373 0.801278 -0.827025
    26 11.692560 0.000021 -0.000004 -0.000353 -0.052025 -1.814754
    27 11.481653 0.000064 0.000015 -1.145043 0.556111 0.171407
    28 3.854337 -0.131714 1.199996 1.185686 -0.224301 -1.641700
    29 1.312565 0.000000 -0.000002 0.122434 -0.179429 -0.573229
    30 0.729366 0.000004 0.000003 0.000000 -0.000110 -0.248950
    31 3.938077 0.050857 0.435164 -0.031435 -0.126224 -1.323235
    32 1.539099 0.000004 0.000002 -0.245476 0.386205 -0.367027
    33 1.196320 0.000008 0.000004 0.000000 -0.000162 -0.332870
    34 3.880859 -0.047028 -0.427490 0.125580 0.221647 -0.416549
    35 1.719571 0.000019 0.000015 -0.311136 -0.043741 -1.054644
    36 1.209175 0.000004 0.000003 0.172210 -0.116519 -0.543375
    37 3.863496 -0.144303 -1.324347 -0.141219 0.635538 -0.479029
    38 1.719421 -0.000008 -0.000008 -0.052815 0.006926 -0.449862
    39 1.099667 -0.000004 0.000000 0.156990 -0.328270 -0.887119
    40 0.807596 -0.358881 -1.312776 1.243202 0.551772 -0.740648
    41 1.789776 0.000000 0.000002 -0.000008 0.003711 0.228604
    42 1.207008 0.000007 0.000000 0.000000 0.005667 0.362991
    43 3.772911 -5.489323 -0.527648 4.034818 -0.133223 -1.641906
  time 15
    0 -0.000003 -13.531250 -29.421875 1.570788 0.000007 -0.000007
    1 0.000000 3.345131 -2.981898 1.570789 0.086301 1.570789
    2 4.015625 0.000001 0.000000 0.000000 0.000000 -0.029241
    3 3.520294 0.000014 -0.000001 0.000000 0.000000 0.100332
    4 8.929688 0.000000 0.000000 0.000000 0.000000 0.194095
    5 2.035156 0.997070 1.937500 1.596487 -1.284993 2.943127
    6 6.028151 -0.000031 0.000004 -1.546542 -0.875778 -0.865543
    7 11.692549 0.000005 0.000011 0.048883 0.192652 -1.759645
    8 11.481670 0.000049 -0.000031 1.248616 -0.570334 0.227670
    9 3.858219 -0.135628 -1.192198 -0.462168 -0.183015 -1.143494
    10 1.312561 -0.000008 0.000000 0.000000 0.054403 -0.409014
    11 0.729362 0.000004 -0.000003 -0.000002 0.040753 -0.240990
    12 3.941966 0.050857 -0.435178 -0.058906 -0.190477 -1.052198
    13 1.539095 0.000004 -0.000002 0.000000 0.003735 -0.247814
    14 1.196325 0.000000 -0.000004 -0.000001 0.006169 -0.430818
    15 3.880859 -0.043091 0.427490 -0.476763 -0.093580 -0.824965
    16 1.719580 0.000011 -0.000015 -0.039460 -0.167701 -0.315837
    17 1.209179 -0.000004 0.000000 0.312038 0.209821 -0.320126
    18 3.863281 -0.136475 1.332031 0.316549 -0.532806 -0.147558
    19 1.719426 -0.000004 0.000007 -0.008714 -0.308204 -1.257834
    20 1.099669 -0.000004 0.000000 -0.000002 0.002587 -0.283860
    21 0.807581 -0.343248 1.320585 -1.197390 -0.475295 -0.937730
    22 1.789783 0.000002 0.000006 -0.000002 -0.003712 0.228604
    23 1.207008 0.000009 -0.000002 0.068240 -0.043107 0.237799
    24 2.035156 0.997070 -1.937500 -1.667267 1.282923 2.944210
    25 6.028140 -0.000004 0.000001 1.577549 0.797437 -0.835083
    26 11.692560 0.000021 -0.000004 -0.000377 -0.059288 -1.813361
    27 11.481653 0.000064 0.000015 -1.164096 0.538833 0.163833
    28 3.854337 -0.127808 1.199996 1.185686 -0.224301 -1.641700
    29 1.312565 0.000000 -0.000002 0.122434 -0.179429 -0.573229
    30 0.729366 0.000004 0.000003 0.000000 -0.000110 -0.248950
    31 3.938077 0.050857 0.435164 -0.031435 -0.126224 -1.323235
    32 1.539099 0.000004 0.000002 -0.245476 0.386205 -0.367027
    33 1.196320 0.000008 0.000004 0.000000 -0.000162 -0.332870
    34 3.880859 -0.047028 -0.427490 0.125580 0.221647 -0.416549
    35 1.719571 0.000019 0.000015 -0.311136 -0.043741 -1.054644
    36 1.209175 0.000004 0.000003 0.172210 -0.116519 -0.543375
    37 3.863496 -0.144303 -1.324347 -0.141219 0.635538 -0.479029
    38 1.719421 -0.000008 -0.000008 -0.052815 0.006926 -0.449862
    39 1.099667 -0.000004 0.000000 0.156990 -0.328270 -0.887119
    40 0.807596 -0.358881 -1.312776 1.243202 0.551772 -0.740648
    41 1.789776 0.000000 0.000002 -0.000008 0.003711 0.228604
    42 1.207008 0.000007 0.000000 0.000000 0.005667 0.362991
    43 3.772911 -5.489323 -0.527648 4.034818 -0.133223 -1.641906
  time 16
    0 -0.000003 -13.531250 -29.421875 1.570788 0.000007 -0.000007
    1 0.000000 3.345131 -2.981898 1.570789 0.086301 1.570789
    2 4.015625 0.000001 0.000000 0.000000 0.000000 -0.029241
    3 3.520294 0.000014 -0.000001 0.000000 0.000000 0.100332
    4 8.929688 0.000000 0.000000 0.000000 0.000000 0.194095
    5 2.035156 0.997070 1.937500 1.596487 -1.284993 2.943127
    6 6.028151 -0.000031 0.000004 -1.552845 -0.848618 -0.856854
    7 11.692549 0.000005 0.000011 0.048596 0.192736 -1.761288
    8 11.481670 0.000049 -0.000031 1.240830 -0.580423 0.229592
    9 3.858219 -0.135628 -1.192198 -0.462168 -0.183015 -1.143494
    10 1.312561 -0.000008 0.000000 0.000000 0.054403 -0.409014
    11 0.729362 0.000004 -0.000003 -0.000002 0.040753 -0.240990
    12 3.938059 0.050857 -0.435178 -0.058906 -0.190477 -1.052198
    13 1.539095 0.000004 -0.000002 0.000000 0.003735 -0.247814
    14 1.196325 0.000000 -0.000004 -0.000001 0.006169 -0.430818
    15 3.880859 -0.043091 0.427490 -0.476763 -0.093580 -0.824965
    16 1.719580 0.000011 -0.000015 -0.039460 -0.167701 -0.315837
    17 1.209179 -0.000004 0.000000 0.312038 0.209821 -0.320126
    18 3.863281 -0.136475 1.332031 0.316549 -0.532806 -0.147558
    19 1.719426 -0.000004 0.000007 -0.008714 -0.308204 -1.257834
    20 1.099669 -0.000004 0.000000 -0.000002 0.002587 -0.283860
    21 0.807581 -0.343248 1.320585 -1.197390 -0.475295 -0.937730
    22 1.789783 0.000002 0.000006 -0.000002 -0.003712 0.228604
    23 1.207008 0.000009 -0.000002 0.068240 -0.043107 0.237799
    24 2.035156 0.997070 -1.937500 -1.667267 1.282923 2.944210
    25 6.028140 -0.000004 0.000001 1.567614 0.794394 -0.841323
    26 11.692560 0.000021 -0.000004 -0.000388 -0.064944 -1.812289
    27 11.481653 0.000064 0.000015 -1.178720 0.525331 0.158080
    28 3.854337 -0.131714 1.199996 1.185686 -0.224301 -1.641700
    29 1.312565 0.000000 -0.000002 0.122434 -0.179429 -0.573229
    30 0.729366 0.000004 0.000003 0.000000 -0.000110 -0.248950
    31 3.941984 0.050857 0.435164 -0.031435 -0.126224 -1.323235
    32 1.539099 0.000004 0.000002 -0.245476 0.386205 -0.367027
    33 1.196320 0.000008 0.000004 0.000000 -0.000162 -0.332870
    34 3.880859 -0.047028 -0.427490 0.125580 0.221647 -0.416549
    35 1.719571 0.000019 0.000015 -0.311136 -0.043741 -1.054644
    36 1.209175 0.000004 0.000003 0.172210 -0.116519 -0.543375
    37 3.863496 -0.144303 -1.324347 -0.141219 0.635538 -0.479029
    38 1.719421 -0.000008 -0.000008 -0.052815 0.006926 -0.449862
    39 1.099667 -0.000004 0.000000 0.156990 -0.328270 -0.887119
    40 0.807596 -0.358881 -1.312776 1.243202 0.551772 -0.740648
    41 1.789776 0.000000 0.000002 -0.000008 0.003711 0.228604
    42 1.207008 0.000007 0.000000 0.000000 0.005667 0.362991
    43 3.772911 -5.489323 -0.527648 4.034818 -0.133223 -1.641906
  time 17
    0 -0.000003 -13.531250 -29.421875 1.570788 0.000007 -0.000007
    1 0.000000 3.345131 -2.981898 1.570789 0.086301 1.570789
    2 4.015625 0.000001 0.000000 0.000000 0.000000 -0.029241
    3 3.520294 0.000014 -0.000001 0.000000 0.000000 0.100332
    4 8.929688 0.000000 0.000000 0.000000 0.000000 0.194095
    5 2.035156 0.997070 1.937500 1.596487 -1.284993 2.943127
    6 6.028151 -0.000031 0.000004 -1.554965 -0.838975 -0.853906
    7 11.692549 0.000005 0.000011 0.048560 0.192772 -1.761500
    8 11.481670 0.000049 -0.000031 1.238153 -0.584038 0.230134
    9 3.858219 -0.135628 -1.192198 -0.462168 -0.183015 -1.143494
    10 1.312561 -0.000008 0.000000 0.000000 0.054403 -0.409014
    11 0.729362 0.000004 -0.000003 -0.000002 0.040753 -0.240990
    12 3.938059 0.050857 -0.435178 -0.058906 -0.190477 -1.052198
    13 1.539095 0.000004 -0.000002 0.000000 0.003735 -0.247814
    14 1.196325 0.000000 -0.000004 -0.000001 0.006169 -0.430818
    15 3.880859 -0.043091 0.427490 -0.476763 -0.093580 -0.824965
    16 1.719580 0.000011 -0.000015 -0.039460 -0.167701 -0.315837
    17 1.209179 -0.000004 0.000000 0.312038 0.209821 -0.320126
    18 3.863281 -0.136475 1.332031 0.316549 -0.532806 -0.147558
    19 1.719426 -0.000004 0.000007 -0.008714 -0.308204 -1.257834
    20 1.099669 -0.000004 0.000000 -0.000002 0.002587 -0.283860
    21 0.807581 -0.343248 1.320585 -1.197390 -0.475295 -0.937730
    22 1.789783 0.000002 0.000006 -0.000002 -0.003712 0.228604
    23 1.207008 0.000009 -0.000002 0.068240 -0.043107 0.237799
    24 2.035156 0.997070 -1.937500 -1.667267 1.282923 2.944210
    25 6.028140 -0.000004 0.000001 1.564103 0.793322 -0.843527
    26 11.692560 0.000021 -0.000004 -0.000388 -0.066958 -1.811914
    27 11.481653 0.000064 0.000015 -1.183866 0.520525 0.156055
    28 3.854337 -0.131714 1.199996 1.185686 -0.224301 -1.641700
    29 1.312565 0.000000 -0.000002 0.122434 -0.179429 -0.573229
    30 0.729366 0.000004 0.000003 0.000000 -0.000110 -0.248950
    31 3.938077 0.050857 0.435164 -0.031435 -0.126224 -1.323235
    32 1.539099 0.000004 0.000002 -0.245476 0.386205 -0.367027
    33 1.196320 0.000008 0.000004 0.000000 -0.000162 -0.332870
    34 3.880859 -0.047028 -0.427490 0.125580 0.221647 -0.416549
    35 1.719571 0.000019 0.000015 -0.311136 -0.043741 -1.054644
    36 1.209175 0.000004 0.000003 0.172210 -0.116519 -0.543375
    37 3.863496 -0.144303 -1.324347 -0.141219 0.635538 -0.479029
    38 1.719421 -0.000008 -0.000008 -0.052815 0.006926 -0.449862
    39 1.099667 -0.000004 0.000000 0.156990 -0.328270 -0.887119
    40 0.811503 -0.358881 -1.312776 1.243202 0.551772 -0.740648
    41 1.789776 0.000000 0.000002 -0.000008 0.003711 0.228604
    42 1.207008 0.000007 0.000000 0.000000 0.005667 0.362991
    43 3.772911 -5.489323 -0.527648 4.034818 -0.133223 -1.641906
end
