// Created by Crowbar 0.74
version 1
nodes
  0 "ValveBiped.Bip01" -1
  1 "ValveBiped.Bip01_Spine" 0
  2 "ValveBiped.Bip01_Spine1" 1
  3 "ValveBiped.Bip01_Spine2" 2
  4 "ValveBiped.Bip01_Spine4" 3
  5 "ValveBiped.Bip01_L_Clavicle" 4
  6 "ValveBiped.Bip01_L_UpperArm" 5
  7 "ValveBiped.Bip01_L_Forearm" 6
  8 "ValveBiped.Bip01_L_Hand" 7
  9 "ValveBiped.Bip01_L_Finger4" 8
  10 "ValveBiped.Bip01_L_Finger41" 9
  11 "ValveBiped.Bip01_L_Finger42" 10
  12 "ValveBiped.Bip01_L_Finger3" 8
  13 "ValveBiped.Bip01_L_Finger31" 12
  14 "ValveBiped.Bip01_L_Finger32" 13
  15 "ValveBiped.Bip01_L_Finger2" 8
  16 "ValveBiped.Bip01_L_Finger21" 15
  17 "ValveBiped.Bip01_L_Finger22" 16
  18 "ValveBiped.Bip01_L_Finger1" 8
  19 "ValveBiped.Bip01_L_Finger11" 18
  20 "ValveBiped.Bip01_L_Finger12" 19
  21 "ValveBiped.Bip01_L_Finger0" 8
  22 "ValveBiped.Bip01_L_Finger01" 21
  23 "ValveBiped.Bip01_L_Finger02" 22
  24 "ValveBiped.Bip01_R_Clavicle" 4
  25 "ValveBiped.Bip01_R_UpperArm" 24
  26 "ValveBiped.Bip01_R_Forearm" 25
  27 "ValveBiped.Bip01_R_Hand" 26
  28 "ValveBiped.Bip01_R_Finger4" 27
  29 "ValveBiped.Bip01_R_Finger41" 28
  30 "ValveBiped.Bip01_R_Finger42" 29
  31 "ValveBiped.Bip01_R_Finger3" 27
  32 "ValveBiped.Bip01_R_Finger31" 31
  33 "ValveBiped.Bip01_R_Finger32" 32
  34 "ValveBiped.Bip01_R_Finger2" 27
  35 "ValveBiped.Bip01_R_Finger21" 34
  36 "ValveBiped.Bip01_R_Finger22" 35
  37 "ValveBiped.Bip01_R_Finger1" 27
  38 "ValveBiped.Bip01_R_Finger11" 37
  39 "ValveBiped.Bip01_R_Finger12" 38
  40 "ValveBiped.Bip01_R_Finger0" 27
  41 "ValveBiped.Bip01_R_Finger01" 40
  42 "ValveBiped.Bip01_R_Finger02" 41
  43 "ValveBiped.Camera" 27
end
skeleton
  time 0
    0 -0.000003 -13.531250 -29.421875 1.570788 0.000007 -0.000007
    1 0.000000 3.345131 -2.981898 1.570789 0.086301 1.570789
    2 4.015625 0.000001 0.000000 0.000000 0.000000 -0.029241
    3 3.520294 0.000014 -0.000001 0.000000 0.000000 0.100332
    4 8.929688 0.000000 0.000000 0.000000 0.000000 0.194095
    5 2.035156 0.997070 1.937500 1.596487 -1.284993 2.943127
    6 6.028151 -0.000031 0.000004 -1.554965 -0.838975 -0.853906
    7 11.692549 0.000005 0.000011 0.048560 0.192772 -1.761500
    8 11.481670 0.000049 -0.000031 1.238153 -0.584038 0.230134
    9 3.858219 -0.135628 -1.192198 -0.462168 -0.183015 -1.143494
    10 1.312561 -0.000008 0.000000 0.000000 0.054403 -0.409014
    11 0.729362 0.000004 -0.000003 -0.000002 0.040753 -0.240990
    12 3.938059 0.050857 -0.435178 -0.058906 -0.190477 -1.052198
    13 1.539095 0.000004 -0.000002 0.000000 0.003735 -0.247814
    14 1.196325 0.000000 -0.000004 -0.000001 0.006169 -0.430818
    15 3.880859 -0.043091 0.427490 -0.476763 -0.093580 -0.824965
    16 1.719580 0.000011 -0.000015 -0.039460 -0.167701 -0.315837
    17 1.209179 -0.000004 0.000000 0.312038 0.209821 -0.320126
    18 3.863281 -0.136475 1.332031 0.316547 -0.532806 -0.147558
    19 1.719426 -0.000004 0.000007 -0.008714 -0.308204 -1.257834
    20 1.099669 -0.000004 0.000000 -0.000002 0.002587 -0.283860
    21 0.807581 -0.343248 1.320585 -1.197390 -0.475295 -0.937730
    22 1.789783 0.000002 0.000006 -0.000002 -0.003712 0.228604
    23 1.207008 0.000009 -0.000002 0.068240 -0.043107 0.237799
    24 2.035156 0.997070 -1.937500 -1.667267 1.282923 2.944210
    25 6.028140 -0.000004 0.000001 1.564103 0.793322 -0.843527
    26 11.692560 0.000021 -0.000004 -0.000388 -0.066958 -1.811914
    27 11.481653 0.000064 0.000015 -1.183866 0.520525 0.156055
    28 3.854337 -0.131714 1.199996 1.185686 -0.224301 -1.641700
    29 1.312565 0.000000 -0.000002 0.122434 -0.179429 -0.573229
    30 0.729366 0.000004 0.000003 0.000000 -0.000110 -0.248950
    31 3.938077 0.050857 0.435164 -0.031435 -0.126224 -1.323235
    32 1.539099 0.000004 0.000002 -0.245476 0.386205 -0.367027
    33 1.196320 0.000008 0.000004 0.000000 -0.000162 -0.332870
    34 3.880859 -0.047028 -0.427490 0.125580 0.221647 -0.416549
    35 1.719571 0.000019 0.000015 -0.311136 -0.043741 -1.054644
    36 1.209175 0.000004 0.000003 0.172210 -0.116519 -0.543375
    37 3.863496 -0.144303 -1.324347 -0.141219 0.635538 -0.479029
    38 1.719421 -0.000008 -0.000008 -0.052815 0.006926 -0.449862
    39 1.099667 -0.000004 0.000000 0.156990 -0.328270 -0.887119
    40 0.811503 -0.358881 -1.312776 1.243202 0.551772 -0.740648
    41 1.789776 0.000000 0.000002 -0.000008 0.003711 0.228604
    42 1.207008 0.000007 0.000000 0.000000 0.005667 0.362991
    43 3.772911 -5.489323 -0.527648 4.034818 -0.133223 -1.641906
  time 1
    0 -0.000003 -13.531250 -29.421875 1.570788 0.000007 -0.000007
    1 0.000000 3.345131 -2.981898 1.570789 0.086301 1.570789
    2 4.015625 0.000001 0.000000 0.000000 0.000000 -0.029241
    3 3.520294 0.000014 -0.000001 0.000000 0.000000 0.100332
    4 8.929688 0.000000 0.000000 0.000000 0.000000 0.194095
    5 2.035156 0.997070 1.937500 1.596487 -1.284993 2.943127
    6 6.028151 -0.000031 0.000004 -1.554502 -0.835957 -0.852636
    7 11.692549 0.000005 0.000011 0.049914 0.193851 -1.757790
    8 11.481670 0.000049 -0.000031 1.236986 -0.584734 0.228984
    9 3.858219 -0.135628 -1.192198 -0.462168 -0.183015 -1.143494
    10 1.312561 -0.000008 0.000000 0.000000 0.054403 -0.409014
    11 0.729362 0.000004 -0.000003 -0.000002 0.040753 -0.240990
    12 3.938059 0.050857 -0.435178 -0.058906 -0.190477 -1.052198
    13 1.539095 0.000004 -0.000002 0.000000 0.003735 -0.247814
    14 1.196325 0.000000 -0.000004 -0.000001 0.006169 -0.430818
    15 3.880859 -0.043091 0.427490 -0.476763 -0.093580 -0.824965
    16 1.719580 0.000011 -0.000015 -0.039460 -0.167701 -0.315837
    17 1.209179 -0.000004 0.000000 0.312038 0.209821 -0.320126
    18 3.863281 -0.136475 1.332031 0.316547 -0.532806 -0.147558
    19 1.719426 -0.000004 0.000007 -0.008714 -0.308204 -1.257834
    20 1.099669 -0.000004 0.000000 -0.000002 0.002587 -0.283860
    21 0.807581 -0.343248 1.320585 -1.197378 -0.475643 -0.937605
    22 1.789783 0.000002 0.000006 -0.000002 -0.003712 0.228604
    23 1.207008 0.000009 -0.000002 0.068240 -0.043107 0.237799
    24 2.035156 0.997070 -1.937500 -1.667267 1.282923 2.944210
    25 6.028140 -0.000004 0.000001 1.561957 0.791451 -0.844732
    26 11.692560 0.000021 -0.000004 -0.001000 -0.068192 -1.808378
    27 11.481653 0.000064 0.000015 -1.183798 0.520509 0.156043
    28 3.854337 -0.131714 1.199996 1.185711 -0.224301 -1.641700
    29 1.312565 0.000000 -0.000002 0.122434 -0.179429 -0.573229
    30 0.729366 0.000004 0.000003 0.000000 -0.000110 -0.248950
    31 3.938077 0.050857 0.435164 -0.031435 -0.126224 -1.323235
    32 1.539099 0.000004 0.000002 -0.245476 0.386205 -0.367027
    33 1.196320 0.000008 0.000004 0.000000 -0.000162 -0.332870
    34 3.880859 -0.047028 -0.427490 0.125580 0.221647 -0.416549
    35 1.719571 0.000019 0.000015 -0.311136 -0.043741 -1.054644
    36 1.209175 0.000004 0.000003 0.172210 -0.116519 -0.543375
    37 3.863496 -0.144303 -1.324347 -0.141219 0.635538 -0.479029
    38 1.719421 -0.000008 -0.000008 -0.052815 0.006926 -0.449862
    39 1.099667 -0.000004 0.000000 0.156990 -0.328270 -0.887119
    40 0.807596 -0.358881 -1.312776 1.243202 0.551772 -0.740648
    41 1.789776 0.000000 0.000002 -0.000008 0.003711 0.228604
    42 1.207008 0.000007 0.000000 0.000000 0.005667 0.362991
    43 3.772911 -5.489323 -0.527648 4.034818 -0.133223 -1.641906
  time 2
    0 -0.000003 -13.531250 -29.421875 1.570788 0.000007 -0.000007
    1 0.000000 3.345131 -2.981898 1.570789 0.086301 1.570789
    2 4.015625 0.000001 0.000000 0.000000 0.000000 -0.029241
    3 3.520294 0.000014 -0.000001 0.000000 0.000000 0.100332
    4 8.929688 0.000000 0.000000 0.000000 0.000000 0.194095
    5 2.035156 0.997070 1.937500 1.596487 -1.284993 2.943127
    6 6.028151 -0.000031 0.000004 -1.553037 -0.826773 -0.848896
    7 11.692549 0.000005 0.000011 0.053989 0.197146 -1.746660
    8 11.481670 0.000049 -0.000031 1.233579 -0.586879 0.225503
    9 3.858219 -0.135628 -1.192198 -0.462168 -0.183015 -1.143494
    10 1.312561 -0.000008 0.000000 0.000000 0.054403 -0.409014
    11 0.729362 0.000004 -0.000003 -0.000002 0.040753 -0.240990
    12 3.941966 0.050857 -0.435178 -0.058906 -0.190477 -1.052198
    13 1.539095 0.000004 -0.000002 0.000000 0.003735 -0.247814
    14 1.196325 0.000000 -0.000004 -0.000001 0.006169 -0.430818
    15 3.880859 -0.043091 0.427490 -0.476763 -0.093580 -0.824965
    16 1.719580 0.000011 -0.000015 -0.039460 -0.167701 -0.315837
    17 1.209179 -0.000004 0.000000 0.312038 0.209821 -0.320126
    18 3.863281 -0.136475 1.332031 0.316547 -0.532806 -0.147558
    19 1.719426 -0.000004 0.000007 -0.008714 -0.308204 -1.257834
    20 1.099669 -0.000004 0.000000 -0.000002 0.002587 -0.283860
    21 0.807581 -0.343248 1.320585 -1.197342 -0.476722 -0.937256
    22 1.789783 0.000002 0.000006 -0.000002 -0.003712 0.228604
    23 1.207008 0.000009 -0.000002 0.068240 -0.043107 0.237799
    24 2.035156 0.997070 -1.937500 -1.667267 1.282923 2.944210
    25 6.028140 -0.000004 0.000001 1.555510 0.785765 -0.848333
    26 11.692560 0.000021 -0.000004 -0.002833 -0.071931 -1.797768
    27 11.481653 0.000064 0.000015 -1.183622 0.520460 0.156019
    28 3.854337 -0.127808 1.199996 1.185686 -0.224301 -1.641700
    29 1.312565 0.000000 -0.000002 0.122434 -0.179429 -0.573229
    30 0.729366 0.000004 0.000003 0.000000 -0.000110 -0.248950
    31 3.938077 0.050857 0.435164 -0.031435 -0.126224 -1.323235
    32 1.539099 0.000004 0.000002 -0.245476 0.386205 -0.367027
    33 1.196320 0.000008 0.000004 0.000000 -0.000162 -0.332870
    34 3.880859 -0.047028 -0.427490 0.125580 0.221647 -0.416549
    35 1.719571 0.000019 0.000015 -0.311136 -0.043741 -1.054644
    36 1.209175 0.000004 0.000003 0.172210 -0.116519 -0.543375
    37 3.863496 -0.144303 -1.324347 -0.141219 0.635538 -0.479029
    38 1.719421 -0.000008 -0.000008 -0.052815 0.006926 -0.449862
    39 1.099667 -0.000004 0.000000 0.156990 -0.328270 -0.887119
    40 0.807596 -0.358881 -1.312776 1.243202 0.551772 -0.740648
    41 1.789776 0.000000 0.000002 -0.000008 0.003711 0.228604
    42 1.207008 0.000007 0.000000 0.000000 0.005667 0.362991
    43 3.772911 -5.489323 -0.527648 4.034818 -0.133223 -1.641906
  time 3
    0 -0.000003 -13.531250 -29.421875 1.570788 0.000007 -0.000007
    1 0.000000 3.345131 -2.981898 1.570789 0.086301 1.570789
    2 4.015625 0.000001 0.000000 0.000000 0.000000 -0.029241
    3 3.520294 0.000014 -0.000001 0.000000 0.000000 0.100332
    4 8.929688 0.000000 0.000000 0.000000 0.000000 0.194095
    5 2.035156 0.997070 1.937500 1.596487 -1.284993 2.943127
    6 6.028151 -0.000031 0.000004 -1.550397 -0.811487 -0.842856
    7 11.692549 0.000005 0.000011 0.060808 0.202623 -1.728058
    8 11.481670 0.000049 -0.000031 1.227934 -0.590416 0.219690
    9 3.858219 -0.135628 -1.192198 -0.462168 -0.183015 -1.143494
    10 1.312561 -0.000008 0.000000 0.000000 0.054403 -0.409014
    11 0.729362 0.000004 -0.000003 -0.000002 0.040753 -0.240990
    12 3.938059 0.050857 -0.435178 -0.058906 -0.190477 -1.052198
    13 1.539095 0.000004 -0.000002 0.000000 0.003735 -0.247814
    14 1.196325 0.000000 -0.000004 -0.000001 0.006169 -0.430818
    15 3.880859 -0.043091 0.427490 -0.476763 -0.093580 -0.824965
    16 1.719580 0.000011 -0.000015 -0.039460 -0.167701 -0.315837
    17 1.209179 -0.000004 0.000000 0.312038 0.209821 -0.320126
    18 3.863281 -0.136475 1.332031 0.316547 -0.532806 -0.147558
    19 1.719426 -0.000004 0.000007 -0.008714 -0.308204 -1.257834
    20 1.099669 -0.000004 0.000000 -0.000002 0.002587 -0.283860
    21 0.807581 -0.343248 1.320585 -1.197282 -0.478519 -0.936670
    22 1.789783 0.000002 0.000006 -0.000002 -0.003712 0.228604
    23 1.207008 0.000009 -0.000002 0.068240 -0.043107 0.237799
    24 2.035156 0.997070 -1.937500 -1.667267 1.282923 2.944210
    25 6.028140 -0.000004 0.000001 1.544867 0.776262 -0.854296
    26 11.692560 0.000021 -0.000004 -0.005901 -0.078175 -1.779979
    27 11.481653 0.000064 0.000015 -1.183310 0.520362 0.155983
    28 3.854337 -0.127808 1.199996 1.185686 -0.224301 -1.641700
    29 1.312565 0.000000 -0.000002 0.122434 -0.179429 -0.573229
    30 0.729366 0.000004 0.000003 0.000000 -0.000110 -0.248950
    31 3.941984 0.050857 0.435164 -0.031435 -0.126224 -1.323235
    32 1.539099 0.000004 0.000002 -0.245476 0.386205 -0.367027
    33 1.196320 0.000008 0.000004 0.000000 -0.000162 -0.332870
    34 3.880859 -0.047028 -0.427490 0.125580 0.221647 -0.416549
    35 1.719571 0.000019 0.000015 -0.311136 -0.043741 -1.054644
    36 1.209175 0.000004 0.000003 0.172210 -0.116519 -0.543375
    37 3.863496 -0.144303 -1.324347 -0.141219 0.635538 -0.479029
    38 1.719421 -0.000008 -0.000008 -0.052815 0.006926 -0.449862
    39 1.099667 -0.000004 0.000000 0.156990 -0.328270 -0.887119
    40 0.811503 -0.358881 -1.316682 1.243202 0.551772 -0.740648
    41 1.789776 0.000000 0.000002 -0.000008 0.003711 0.228604
    42 1.207008 0.000007 0.000000 0.000000 0.005667 0.362991
    43 3.772911 -5.489323 -0.527648 4.034818 -0.133223 -1.641906
  time 4
    0 -0.000003 -13.531250 -29.421875 1.570788 0.000007 -0.000007
    1 0.000000 3.345131 -2.981898 1.570789 0.086301 1.570789
    2 4.015625 0.000001 0.000000 0.000000 0.000000 -0.029241
    3 3.520294 0.000014 -0.000001 0.000000 0.000000 0.100332
    4 8.929688 0.000000 0.000000 0.000000 0.000000 0.194095
    5 2.035156 0.997070 1.937500 1.596487 -1.284993 2.943127
    6 6.028151 -0.000031 0.000004 -1.546291 -0.790167 -0.834898
    7 11.692549 0.000005 0.000011 0.070264 0.210234 -1.702300
    8 11.481670 0.000049 -0.000031 1.220099 -0.595345 0.211562
    9 3.858219 -0.135628 -1.192198 -0.462168 -0.183015 -1.143494
    10 1.312561 -0.000008 0.000000 0.000000 0.054403 -0.409014
    11 0.729362 0.000004 -0.000003 -0.000002 0.040753 -0.240990
    12 3.941966 0.050857 -0.435178 -0.058906 -0.190477 -1.052198
    13 1.539095 0.000004 -0.000002 0.000000 0.003735 -0.247814
    14 1.196325 0.000000 -0.000004 -0.000001 0.006169 -0.430818
    15 3.880859 -0.043091 0.427490 -0.476763 -0.093580 -0.824965
    16 1.719580 0.000011 -0.000015 -0.039460 -0.167701 -0.315837
    17 1.209179 -0.000004 0.000000 0.312038 0.209821 -0.320126
    18 3.863281 -0.136475 1.332031 0.316547 -0.532806 -0.147558
    19 1.719426 -0.000004 0.000007 -0.008714 -0.308204 -1.257834
    20 1.099669 -0.000004 0.000000 -0.000002 0.002587 -0.283860
    21 0.807581 -0.343248 1.320585 -1.197210 -0.481012 -0.935846
    22 1.789783 0.000002 0.000006 -0.000002 -0.003712 0.228604
    23 1.207008 0.000009 -0.000002 0.068240 -0.043107 0.237799
    24 2.035156 0.997070 -1.937500 -1.667267 1.282923 2.944210
    25 6.028140 -0.000004 0.000001 1.530354 0.763119 -0.862427
    26 11.692560 0.000021 -0.000004 -0.010156 -0.086828 -1.755330
    27 11.481653 0.000064 0.000015 -1.182891 0.520231 0.155923
    28 3.854337 -0.131714 1.199996 1.185686 -0.224301 -1.641700
    29 1.312565 0.000000 -0.000002 0.122434 -0.179429 -0.573229
    30 0.729366 0.000004 0.000003 0.000000 -0.000110 -0.248950
    31 3.941984 0.050857 0.435164 -0.031435 -0.126224 -1.323235
    32 1.539099 0.000004 0.000002 -0.245476 0.386205 -0.367027
    33 1.196320 0.000008 0.000004 0.000000 -0.000162 -0.332870
    34 3.880859 -0.047028 -0.427490 0.125580 0.221647 -0.416549
    35 1.719571 0.000019 0.000015 -0.311136 -0.043741 -1.054644
    36 1.209175 0.000004 0.000003 0.172210 -0.116519 -0.543375
    37 3.863496 -0.144303 -1.324347 -0.141219 0.635538 -0.479029
    38 1.719421 -0.000008 -0.000008 -0.052815 0.006926 -0.449862
    39 1.099667 -0.000004 0.000000 0.156990 -0.328270 -0.887119
    40 0.811503 -0.358881 -1.312776 1.243202 0.551772 -0.740648
    41 1.789776 0.000000 0.000002 -0.000008 0.003711 0.228604
    42 1.207008 0.000007 0.000000 0.000000 0.005667 0.362991
    43 3.772911 -5.489323 -0.527648 4.034818 -0.133223 -1.641906
  time 5
    0 -0.000003 -13.531250 -29.421875 1.570788 0.000007 -0.000007
    1 0.000000 3.345131 -2.981898 1.570789 0.086301 1.570789
    2 4.015625 0.000001 0.000000 0.000000 0.000000 -0.029241
    3 3.520294 0.000014 -0.000001 0.000000 0.000000 0.100332
    4 8.929688 0.000000 0.000000 0.000000 0.000000 0.194095
    5 2.035156 0.997070 1.937500 1.596487 -1.284993 2.943127
    6 6.028151 -0.000031 0.000004 -1.540451 -0.763303 -0.825515
    7 11.692549 0.000005 0.000011 0.082152 0.219809 -1.669864
    8 11.481670 0.000049 -0.000031 1.210463 -0.601492 0.201282
    9 3.858219 -0.135628 -1.192198 -0.462168 -0.183015 -1.143494
    10 1.312561 -0.000008 0.000000 0.000000 0.054403 -0.409014
    11 0.729362 0.000004 -0.000003 -0.000002 0.040753 -0.240990
    12 3.938059 0.050857 -0.435178 -0.058906 -0.190477 -1.052198
    13 1.539095 0.000004 -0.000002 0.000000 0.003735 -0.247814
    14 1.196325 0.000000 -0.000004 -0.000001 0.006169 -0.430818
    15 3.880859 -0.043091 0.427490 -0.476763 -0.093580 -0.824965
    16 1.719580 0.000011 -0.000015 -0.039460 -0.167701 -0.315837
    17 1.209179 -0.000004 0.000000 0.312038 0.209821 -0.320126
    18 3.863281 -0.136475 1.332031 0.316547 -0.532806 -0.147558
    19 1.719426 -0.000004 0.000007 -0.008714 -0.308204 -1.257834
    20 1.099669 -0.000004 0.000000 -0.000002 0.002587 -0.283860
    21 0.807581 -0.343248 1.320585 -1.197114 -0.484152 -0.934823
    22 1.789783 0.000002 0.000006 -0.000002 -0.003712 0.228604
    23 1.207008 0.000009 -0.000002 0.068240 -0.043107 0.237799
    24 2.035156 0.997070 -1.937500 -1.667267 1.282923 2.944210
    25 6.028140 -0.000004 0.000001 1.512461 0.746583 -0.872461
    26 11.692560 0.000021 -0.000004 -0.015513 -0.097722 -1.724305
    27 11.481653 0.000064 0.000015 -1.182349 0.520084 0.155839
    28 3.854337 -0.131714 1.199996 1.185686 -0.224301 -1.641700
    29 1.312565 0.000000 -0.000002 0.122434 -0.179429 -0.573229
    30 0.729366 0.000004 0.000003 0.000000 -0.000110 -0.248950
    31 3.938077 0.050857 0.435164 -0.031435 -0.126224 -1.323235
    32 1.539099 0.000004 0.000002 -0.245476 0.386205 -0.367027
    33 1.196320 0.000008 0.000004 0.000000 -0.000162 -0.332870
    34 3.880859 -0.047028 -0.427490 0.125580 0.221647 -0.416549
    35 1.719571 0.000019 0.000015 -0.311136 -0.043741 -1.054644
    36 1.209175 0.000004 0.000003 0.172210 -0.116519 -0.543375
    37 3.863496 -0.144303 -1.324347 -0.141219 0.635538 -0.479029
    38 1.719421 -0.000008 -0.000008 -0.052815 0.006926 -0.449862
    39 1.099667 -0.000004 0.000000 0.156990 -0.328270 -0.887119
    40 0.807596 -0.358881 -1.312776 1.243202 0.551772 -0.740648
    41 1.789776 0.000000 0.000002 -0.000008 0.003711 0.228604
    42 1.207008 0.000007 0.000000 0.000000 0.005667 0.362991
    43 3.772911 -5.489323 -0.527648 4.034818 -0.133223 -1.641906
  time 6
    0 -0.000003 -13.531250 -29.421875 1.570788 0.000007 -0.000007
    1 0.000000 3.345131 -2.981898 1.570789 0.086301 1.570789
    2 4.015625 0.000001 0.000000 0.000000 0.000000 -0.029241
    3 3.520294 0.000014 -0.000001 0.000000 0.000000 0.100332
    4 8.929688 0.000000 0.000000 0.000000 0.000000 0.194095
    5 2.035156 0.997070 1.937500 1.596487 -1.284993 2.943127
    6 6.028151 -0.000031 0.000004 -1.532722 -0.731551 -0.815304
    7 11.692549 0.000005 0.000011 0.096162 0.231087 -1.631704
    8 11.481670 0.000049 -0.000031 1.199222 -0.608682 0.189065
    9 3.858219 -0.135628 -1.192198 -0.462168 -0.183015 -1.143494
    10 1.312561 -0.000008 0.000000 0.000000 0.054403 -0.409014
    11 0.729362 0.000004 -0.000003 -0.000002 0.040753 -0.240990
    12 3.938059 0.050857 -0.435178 -0.058906 -0.190477 -1.052198
    13 1.539095 0.000004 -0.000002 0.000000 0.003735 -0.247814
    14 1.196325 0.000000 -0.000004 -0.000001 0.006169 -0.430818
    15 3.880859 -0.043091 0.427490 -0.476763 -0.093580 -0.824965
    16 1.719580 0.000011 -0.000015 -0.039460 -0.167701 -0.315837
    17 1.209179 -0.000004 0.000000 0.312038 0.209821 -0.320126
    18 3.863281 -0.136475 1.332031 0.316547 -0.532806 -0.147558
    19 1.719426 -0.000004 0.000007 -0.008714 -0.308204 -1.257834
    20 1.099669 -0.000004 0.000000 -0.000002 0.002587 -0.283860
    21 0.807581 -0.343248 1.320585 -1.197030 -0.487843 -0.933613
    22 1.789783 0.000002 0.000006 -0.000002 -0.003712 0.228604
    23 1.207008 0.000009 -0.000002 0.068240 -0.043107 0.237799
    24 2.035156 0.997070 -1.937500 -1.667267 1.282923 2.944210
    25 6.028140 -0.000004 0.000001 1.491919 0.727130 -0.884000
    26 11.692560 0.000021 -0.000004 -0.021805 -0.110546 -1.687815
    27 11.481653 0.000064 0.000015 -1.181726 0.519904 0.155755
    28 3.854337 -0.131714 1.199996 1.185686 -0.224301 -1.641700
    29 1.312565 0.000000 -0.000002 0.122434 -0.179429 -0.573229
    30 0.729366 0.000004 0.000003 0.000000 -0.000110 -0.248950
    31 3.941984 0.050857 0.435164 -0.031435 -0.126224 -1.323235
    32 1.539099 0.000004 0.000002 -0.245476 0.386205 -0.367027
    33 1.196320 0.000008 0.000004 0.000000 -0.000162 -0.332870
    34 3.880859 -0.047028 -0.427490 0.125580 0.221647 -0.416549
    35 1.719571 0.000019 0.000015 -0.311136 -0.043741 -1.054644
    36 1.209175 0.000004 0.000003 0.172210 -0.116519 -0.543375
    37 3.867402 -0.144303 -1.324347 -0.141219 0.635538 -0.479029
    38 1.719421 -0.000008 -0.000008 -0.052815 0.006926 -0.449862
    39 1.099667 -0.000004 0.000000 0.156990 -0.328270 -0.887119
    40 0.811503 -0.358881 -1.312776 1.243202 0.551772 -0.740648
    41 1.789776 0.000000 0.000002 -0.000008 0.003711 0.228604
    42 1.207008 0.000007 0.000000 0.000000 0.005667 0.362991
    43 3.772911 -5.489323 -0.527648 4.034818 -0.133223 -1.641906
  time 7
    0 -0.000003 -13.531250 -29.421875 1.570788 0.000007 -0.000007
    1 0.000000 3.345131 -2.981898 1.570789 0.086301 1.570789
    2 4.015625 0.000001 0.000000 0.000000 0.000000 -0.029241
    3 3.520294 0.000014 -0.000001 0.000000 0.000000 0.100332
    4 8.929688 0.000000 0.000000 0.000000 0.000000 0.194095
    5 2.035156 0.997070 1.937500 1.596487 -1.284993 2.943127
    6 6.028151 -0.000031 0.000004 -1.523084 -0.695962 -0.804841
    7 11.692549 0.000005 0.000011 0.111802 0.243671 -1.589040
    8 11.481670 0.000049 -0.000031 1.186959 -0.616646 0.175288
    9 3.858219 -0.135628 -1.192198 -0.462168 -0.183015 -1.143494
    10 1.312561 -0.000008 0.000000 0.000000 0.054403 -0.409014
    11 0.729362 0.000004 -0.000003 -0.000002 0.040753 -0.240990
    12 3.941966 0.050857 -0.435178 -0.058906 -0.190477 -1.052198
    13 1.539095 0.000004 -0.000002 0.000000 0.003735 -0.247814
    14 1.196325 0.000000 -0.000004 -0.000001 0.006169 -0.430818
    15 3.880859 -0.043091 0.427490 -0.476763 -0.093580 -0.824965
    16 1.719580 0.000011 -0.000015 -0.039460 -0.167701 -0.315837
    17 1.209179 -0.000004 0.000000 0.312038 0.209821 -0.320126
    18 3.863281 -0.136475 1.332031 0.316547 -0.532806 -0.147558
    19 1.719426 -0.000004 0.000007 -0.008714 -0.308204 -1.257834
    20 1.099669 -0.000004 0.000000 -0.000002 0.002587 -0.283860
    21 0.807581 -0.343248 1.320585 -1.196947 -0.491978 -0.932254
    22 1.789783 0.000002 0.000006 -0.000002 -0.003712 0.228604
    23 1.207008 0.000009 -0.000002 0.068240 -0.043107 0.237799
    24 2.035156 0.997070 -1.937500 -1.667267 1.282923 2.944210
    25 6.028140 -0.000004 0.000001 1.469616 0.705431 -0.896588
    26 11.692560 0.000021 -0.000004 -0.028840 -0.124867 -1.647038
    27 11.481653 0.000064 0.000015 -1.181022 0.519691 0.155647
    28 3.854337 -0.131714 1.199996 1.185711 -0.224301 -1.641700
    29 1.312565 0.000000 -0.000002 0.122434 -0.179429 -0.573229
    30 0.729366 0.000004 0.000003 0.000000 -0.000110 -0.248950
    31 3.938077 0.050857 0.435164 -0.031435 -0.126224 -1.323235
    32 1.539099 0.000004 0.000002 -0.245476 0.386205 -0.367027
    33 1.196320 0.000008 0.000004 0.000000 -0.000162 -0.332870
    34 3.880859 -0.047028 -0.427490 0.125580 0.221647 -0.416549
    35 1.719571 0.000019 0.000015 -0.311136 -0.043741 -1.054644
    36 1.209175 0.000004 0.000003 0.172210 -0.116519 -0.543375
    37 3.863496 -0.144303 -1.324347 -0.141219 0.635538 -0.479029
    38 1.719421 -0.000008 -0.000008 -0.052815 0.006926 -0.449862
    39 1.099667 -0.000004 0.000000 0.156990 -0.328270 -0.887119
    40 0.807596 -0.358881 -1.312776 1.243202 0.551772 -0.740648
    41 1.789776 0.000000 0.000002 -0.000008 0.003711 0.228604
    42 1.207008 0.000007 0.000000 0.000000 0.005667 0.362991
    43 3.772911 -5.489323 -0.527648 4.034894 -0.133223 -1.641906
  time 8
    0 -0.000003 -13.531250 -29.421875 1.570788 0.000007 -0.000007
    1 0.000000 3.345131 -2.981898 1.570789 0.086301 1.570789
    2 4.015625 0.000001 0.000000 0.000000 0.000000 -0.029241
    3 3.520294 0.000014 -0.000001 0.000000 0.000000 0.100332
    4 8.929688 0.000000 0.000000 0.000000 0.000000 0.194095
    5 2.035156 0.997070 1.937500 1.596487 -1.284993 2.943127
    6 6.028151 -0.000031 0.000004 -1.511789 -0.657880 -0.794654
    7 11.692549 0.000005 0.000011 0.128473 0.257093 -1.543566
    8 11.481670 0.000049 -0.000031 1.174160 -0.625054 0.160428
    9 3.858219 -0.135628 -1.192198 -0.462168 -0.183015 -1.143494
    10 1.312561 -0.000008 0.000000 0.000000 0.054403 -0.409014
    11 0.729362 0.000004 -0.000003 -0.000002 0.040753 -0.240990
    12 3.938059 0.050857 -0.435178 -0.058906 -0.190477 -1.052198
    13 1.539095 0.000004 -0.000002 0.000000 0.003735 -0.247814
    14 1.196325 0.000000 -0.000004 -0.000001 0.006169 -0.430818
    15 3.880859 -0.043091 0.427490 -0.476763 -0.093580 -0.824965
    16 1.719580 0.000011 -0.000015 -0.039460 -0.167701 -0.315837
    17 1.209179 -0.000004 0.000000 0.312038 0.209821 -0.320126
    18 3.863281 -0.136475 1.332031 0.316547 -0.532806 -0.147558
    19 1.719426 -0.000004 0.000007 -0.008714 -0.308204 -1.257834
    20 1.099669 -0.000004 0.000000 -0.000002 0.002587 -0.283860
    21 0.807581 -0.343248 1.320585 -1.196863 -0.496376 -0.930794
    22 1.789783 0.000002 0.000006 -0.000002 -0.003712 0.228604
    23 1.207008 0.000009 -0.000002 0.068240 -0.043107 0.237799
    24 2.035156 0.997070 -1.937500 -1.667267 1.282923 2.944210
    25 6.028140 -0.000004 0.000001 1.446546 0.682361 -0.909705
    26 11.692560 0.000021 -0.000004 -0.036342 -0.140148 -1.603528
    27 11.481653 0.000064 0.000015 -1.180277 0.519463 0.155539
    28 3.854337 -0.131714 1.199996 1.185711 -0.224301 -1.641700
    29 1.312565 0.000000 -0.000002 0.122434 -0.179429 -0.573229
    30 0.729366 0.000004 0.000003 0.000000 -0.000110 -0.248950
    31 3.938077 0.050857 0.435164 -0.031435 -0.126224 -1.323267
    32 1.539099 0.000004 0.000002 -0.245476 0.386205 -0.367027
    33 1.196320 0.000008 0.000004 0.000000 -0.000162 -0.332870
    34 3.880859 -0.047028 -0.427490 0.125580 0.221647 -0.416549
    35 1.719571 0.000019 0.000015 -0.311136 -0.043741 -1.054644
    36 1.209175 0.000004 0.000003 0.172210 -0.116519 -0.543375
    37 3.863496 -0.144303 -1.324347 -0.141219 0.635538 -0.479029
    38 1.719421 -0.000008 -0.000008 -0.052815 0.006926 -0.449862
    39 1.099667 -0.000004 0.000000 0.156990 -0.328270 -0.887119
    40 0.811503 -0.358881 -1.316682 1.243202 0.551772 -0.740648
    41 1.789776 0.000000 0.000002 -0.000008 0.003711 0.228604
    42 1.207008 0.000007 0.000000 0.000000 0.005667 0.362991
    43 3.772911 -5.489323 -0.527648 4.034818 -0.133223 -1.641906
  time 9
    0 -0.000003 -13.531250 -29.421875 1.570788 0.000007 -0.000007
    1 0.000000 3.345131 -2.981898 1.570789 0.086301 1.570789
    2 4.015625 0.000001 0.000000 0.000000 0.000000 -0.029241
    3 3.520294 0.000014 -0.000001 0.000000 0.000000 0.100332
    4 8.929688 0.000000 0.000000 0.000000 0.000000 0.194095
    5 2.035156 0.997070 1.937500 1.596487 -1.284993 2.943127
    6 6.028151 -0.000031 0.000004 -1.499261 -0.618879 -0.785162
    7 11.692549 0.000005 0.000011 0.145515 0.270816 -1.497086
    8 11.481670 0.000049 -0.000031 1.161361 -0.633559 0.145074
    9 3.858219 -0.135628 -1.192198 -0.462168 -0.183015 -1.143494
    10 1.312561 -0.000008 0.000000 0.000000 0.054403 -0.409014
    11 0.729362 0.000004 -0.000003 -0.000002 0.040753 -0.240990
    12 3.941966 0.050857 -0.435178 -0.058906 -0.190477 -1.052198
    13 1.539095 0.000004 -0.000002 0.000000 0.003735 -0.247814
    14 1.196325 0.000000 -0.000004 -0.000001 0.006169 -0.430818
    15 3.880859 -0.043091 0.427490 -0.476763 -0.093580 -0.824965
    16 1.719580 0.000011 -0.000015 -0.039460 -0.167701 -0.315837
    17 1.209179 -0.000004 0.000000 0.312038 0.209821 -0.320126
    18 3.863281 -0.136475 1.332031 0.316547 -0.532806 -0.147558
    19 1.719426 -0.000004 0.000007 -0.008714 -0.308204 -1.257834
    20 1.099669 -0.000004 0.000000 -0.000002 0.002587 -0.283860
    21 0.807581 -0.343248 1.320585 -1.196815 -0.500882 -0.929309
    22 1.789783 0.000002 0.000006 -0.000002 -0.003712 0.228604
    23 1.207008 0.000009 -0.000002 0.068240 -0.043107 0.237799
    24 2.035156 0.997070 -1.937500 -1.667267 1.282923 2.944210
    25 6.028140 -0.000004 0.000001 1.423691 0.658868 -0.922811
    26 11.692560 0.000021 -0.000004 -0.044012 -0.155740 -1.559107
    27 11.481653 0.000064 0.000015 -1.179505 0.519250 0.155431
    28 3.854337 -0.131714 1.199996 1.185711 -0.224301 -1.641700
    29 1.312565 0.000000 -0.000002 0.122434 -0.179429 -0.573229
    30 0.729366 0.000004 0.000003 0.000000 -0.000110 -0.248950
    31 3.941984 0.050857 0.435164 -0.031435 -0.126224 -1.323235
    32 1.539099 0.000004 0.000002 -0.245476 0.386205 -0.367027
    33 1.196320 0.000008 0.000004 0.000000 -0.000162 -0.332870
    34 3.880859 -0.047028 -0.427490 0.125580 0.221647 -0.416549
    35 1.719571 0.000019 0.000015 -0.311136 -0.043741 -1.054644
    36 1.209175 0.000004 0.000003 0.172210 -0.116519 -0.543375
    37 3.863496 -0.144303 -1.324347 -0.141219 0.635538 -0.479029
    38 1.719421 -0.000008 -0.000008 -0.052815 0.006926 -0.449862
    39 1.099667 -0.000004 0.000000 0.156990 -0.328270 -0.887119
    40 0.811503 -0.358881 -1.312776 1.243202 0.551772 -0.740648
    41 1.789776 0.000000 0.000002 -0.000008 0.003711 0.228604
    42 1.207008 0.000007 0.000000 0.000000 0.005667 0.362991
    43 3.772911 -5.489323 -0.527648 4.034818 -0.133223 -1.641906
  time 10
    0 -0.000003 -13.531250 -29.421875 1.570788 0.000007 -0.000007
    1 0.000000 3.345131 -2.981898 1.570789 0.086301 1.570789
    2 4.015625 0.000001 0.000000 0.000000 0.000000 -0.029241
    3 3.520294 0.000014 -0.000001 0.000000 0.000000 0.100332
    4 8.929688 0.000000 0.000000 0.000000 0.000000 0.194095
    5 2.035156 0.997070 1.937500 1.596487 -1.284993 2.943127
    6 6.028151 -0.000031 0.000004 -1.486154 -0.580600 -0.776653
    7 11.692549 0.000005 0.000011 0.162197 0.284238 -1.451612
    8 11.481670 0.000049 -0.000031 1.149195 -0.641793 0.129869
    9 3.858219 -0.135628 -1.192198 -0.462168 -0.183015 -1.143494
    10 1.312561 -0.000008 0.000000 0.000000 0.054403 -0.409014
    11 0.729362 0.000004 -0.000003 -0.000002 0.040753 -0.240990
    12 3.938059 0.050857 -0.435178 -0.058906 -0.190477 -1.052198
    13 1.539095 0.000004 -0.000002 0.000000 0.003735 -0.247814
    14 1.196325 0.000000 -0.000004 -0.000001 0.006169 -0.430818
    15 3.880859 -0.043091 0.427490 -0.476763 -0.093580 -0.824965
    16 1.719580 0.000011 -0.000015 -0.039460 -0.167701 -0.315837
    17 1.209179 -0.000004 0.000000 0.312038 0.209821 -0.320126
    18 3.863281 -0.136475 1.332031 0.316547 -0.532806 -0.147558
    19 1.719426 -0.000004 0.000007 -0.008714 -0.308204 -1.257834
    20 1.099669 -0.000004 0.000000 -0.000002 0.002587 -0.283860
    21 0.807581 -0.343248 1.320585 -1.196767 -0.505281 -0.927850
    22 1.789783 0.000002 0.000006 -0.000002 -0.003712 0.228604
    23 1.207008 0.000009 -0.000002 0.068240 -0.043107 0.237799
    24 2.035156 0.997070 -1.937500 -1.667267 1.282923 2.944210
    25 6.028140 -0.000004 0.000001 1.401987 0.635922 -0.935399
    26 11.692560 0.000021 -0.000004 -0.051515 -0.171020 -1.515597
    27 11.481653 0.000064 0.000015 -1.178761 0.519021 0.155324
    28 3.854337 -0.127808 1.199996 1.185711 -0.224301 -1.641700
    29 1.312565 0.000000 -0.000002 0.122434 -0.179429 -0.573229
    30 0.729366 0.000004 0.000003 0.000000 -0.000110 -0.248950
    31 3.938077 0.050857 0.435164 -0.031435 -0.126224 -1.323235
    32 1.539099 0.000004 0.000002 -0.245476 0.386205 -0.367027
    33 1.196320 0.000008 0.000004 0.000000 -0.000162 -0.332870
    34 3.880859 -0.047028 -0.427490 0.125580 0.221647 -0.416549
    35 1.719571 0.000019 0.000015 -0.311136 -0.043741 -1.054644
    36 1.209175 0.000004 0.000003 0.172210 -0.116519 -0.543375
    37 3.863496 -0.144303 -1.324347 -0.141219 0.635538 -0.479029
    38 1.719421 -0.000008 -0.000008 -0.052815 0.006926 -0.449862
    39 1.099667 -0.000004 0.000000 0.156990 -0.328270 -0.887119
    40 0.807596 -0.358881 -1.312776 1.243202 0.551772 -0.740648
    41 1.789776 0.000000 0.000002 -0.000008 0.003711 0.228604
    42 1.207008 0.000007 0.000000 0.000000 0.005667 0.362991
    43 3.772911 -5.489323 -0.527648 4.034894 -0.133223 -1.641906
  time 11
    0 -0.000003 -13.531250 -29.421875 1.570788 0.000007 -0.000007
    1 0.000000 3.345131 -2.981898 1.570789 0.086301 1.570789
    2 4.015625 0.000001 0.000000 0.000000 0.000000 -0.029241
    3 3.520294 0.000014 -0.000001 0.000000 0.000000 0.100332
    4 8.929688 0.000000 0.000000 0.000000 0.000000 0.194095
    5 2.035156 0.997070 1.937500 1.596487 -1.284993 2.943127
    6 6.028151 -0.000031 0.000004 -1.473182 -0.544617 -0.769331
    7 11.692549 0.000005 0.000011 0.177837 0.296822 -1.408948
    8 11.481670 0.000049 -0.000031 1.138002 -0.649428 0.115435
    9 3.858219 -0.135628 -1.192198 -0.462168 -0.183015 -1.143494
    10 1.312561 -0.000008 0.000000 0.000000 0.054403 -0.409014
    11 0.729362 0.000004 -0.000003 -0.000002 0.040753 -0.240990
    12 3.938059 0.050857 -0.435178 -0.058906 -0.190477 -1.052198
    13 1.539095 0.000004 -0.000002 0.000000 0.003735 -0.247814
    14 1.196325 0.000000 -0.000004 -0.000001 0.006169 -0.430818
    15 3.880859 -0.043091 0.427490 -0.476763 -0.093580 -0.824965
    16 1.719580 0.000011 -0.000015 -0.039460 -0.167701 -0.315837
    17 1.209179 -0.000004 0.000000 0.312038 0.209821 -0.320126
    18 3.863281 -0.136475 1.332031 0.316547 -0.532806 -0.147558
    19 1.719426 -0.000004 0.000007 -0.008714 -0.308204 -1.257834
    20 1.099669 -0.000004 0.000000 -0.000002 0.002587 -0.283860
    21 0.807581 -0.343248 1.320585 -1.196755 -0.509415 -0.926490
    22 1.789783 0.000002 0.000006 -0.000002 -0.003712 0.228604
    23 1.207008 0.000009 -0.000002 0.068240 -0.043107 0.237799
    24 2.035156 0.997070 -1.937500 -1.667267 1.282923 2.944210
    25 6.028140 -0.000004 0.000001 1.382224 0.614498 -0.947011
    26 11.692560 0.000021 -0.000004 -0.058550 -0.185341 -1.474820
    27 11.481653 0.000064 0.000015 -1.178056 0.518825 0.155228
    28 3.858243 -0.131714 1.199996 1.185711 -0.224301 -1.641700
    29 1.312565 0.000000 -0.000002 0.122434 -0.179429 -0.573229
    30 0.729366 0.000004 0.000003 0.000000 -0.000110 -0.248950
    31 3.941984 0.050857 0.435164 -0.031435 -0.126224 -1.323235
    32 1.539099 0.000004 0.000002 -0.245476 0.386205 -0.367027
    33 1.196320 0.000008 0.000004 0.000000 -0.000162 -0.332870
    34 3.880859 -0.047028 -0.427490 0.125580 0.221647 -0.416549
    35 1.719571 0.000019 0.000015 -0.311136 -0.043741 -1.054644
    36 1.209175 0.000004 0.000003 0.172210 -0.116519 -0.543375
    37 3.867402 -0.144303 -1.324347 -0.141219 0.635538 -0.479029
    38 1.719421 -0.000008 -0.000008 -0.052815 0.006926 -0.449862
    39 1.099667 -0.000004 0.000000 0.156990 -0.328270 -0.887119
    40 0.811503 -0.358881 -1.312776 1.243202 0.551772 -0.740648
    41 1.789776 0.000000 0.000002 -0.000008 0.003711 0.228604
    42 1.207008 0.000007 0.000000 0.000000 0.005667 0.362991
    43 3.772911 -5.489323 -0.527648 4.034818 -0.133223 -1.641906
  time 12
    0 -0.000003 -13.531250 -29.421875 1.570788 0.000007 -0.000007
    1 0.000000 3.345131 -2.981898 1.570789 0.086301 1.570789
    2 4.015625 0.000001 0.000000 0.000000 0.000000 -0.029241
    3 3.520294 0.000014 -0.000001 0.000000 0.000000 0.100332
    4 8.929688 0.000000 0.000000 0.000000 0.000000 0.194095
    5 2.035156 0.997070 1.937500 1.596487 -1.284993 2.943127
    6 6.028151 -0.000031 0.000004 -1.461058 -0.512308 -0.763231
    7 11.692549 0.000005 0.000011 0.191835 0.308100 -1.370788
    8 11.481670 0.000049 -0.000031 1.128221 -0.656173 0.102380
    9 3.858219 -0.135628 -1.192198 -0.462168 -0.183015 -1.143494
    10 1.312561 -0.000008 0.000000 0.000000 0.054403 -0.409014
    11 0.729362 0.000004 -0.000003 -0.000002 0.040753 -0.240990
    12 3.938059 0.050857 -0.435178 -0.058906 -0.190477 -1.052198
    13 1.539095 0.000004 -0.000002 0.000000 0.003735 -0.247814
    14 1.196325 0.000000 -0.000004 -0.000001 0.006169 -0.430818
    15 3.880859 -0.043091 0.427490 -0.476763 -0.093580 -0.824965
    16 1.719580 0.000011 -0.000015 -0.039460 -0.167701 -0.315837
    17 1.209179 -0.000004 0.000000 0.312038 0.209821 -0.320126
    18 3.863281 -0.136475 1.332031 0.316547 -0.532806 -0.147558
    19 1.719426 -0.000004 0.000007 -0.008714 -0.308204 -1.257834
    20 1.099669 -0.000004 0.000000 -0.000002 0.002587 -0.283860
    21 0.807581 -0.343248 1.320585 -1.196743 -0.513119 -0.925255
    22 1.789783 0.000002 0.000006 -0.000002 -0.003712 0.228604
    23 1.207008 0.000009 -0.000002 0.068240 -0.043107 0.237799
    24 2.035156 0.997070 -1.937500 -1.667267 1.282923 2.944210
    25 6.028140 -0.000004 0.000001 1.364979 0.595394 -0.957273
    26 11.692560 0.000021 -0.000004 -0.064854 -0.198165 -1.438276
    27 11.481653 0.000064 0.000015 -1.177434 0.518629 0.155144
    28 3.854337 -0.131714 1.199996 1.185711 -0.224301 -1.641700
    29 1.312565 0.000000 -0.000002 0.122434 -0.179429 -0.573229
    30 0.729366 0.000004 0.000003 0.000000 -0.000110 -0.248950
    31 3.941984 0.050857 0.435164 -0.031435 -0.126224 -1.323235
    32 1.539099 0.000004 0.000002 -0.245476 0.386205 -0.367027
    33 1.196320 0.000008 0.000004 0.000000 -0.000162 -0.332870
    34 3.880859 -0.047028 -0.427490 0.125580 0.221647 -0.416549
    35 1.719571 0.000019 0.000015 -0.311136 -0.043741 -1.054644
    36 1.209175 0.000004 0.000003 0.172210 -0.116519 -0.543375
    37 3.863496 -0.144303 -1.324347 -0.141219 0.635538 -0.479029
    38 1.719421 -0.000008 -0.000008 -0.052815 0.006926 -0.449862
    39 1.099667 -0.000004 0.000000 0.156990 -0.328270 -0.887119
    40 0.811503 -0.358881 -1.312776 1.243202 0.551772 -0.740648
    41 1.789776 0.000000 0.000002 -0.000008 0.003711 0.228604
    42 1.207008 0.000007 0.000000 0.000000 0.005667 0.362991
    43 3.772911 -5.489323 -0.527648 4.034818 -0.133223 -1.641906
  time 13
    0 -0.000003 -13.531250 -29.421875 1.570788 0.000007 -0.000007
    1 0.000000 3.345131 -2.981898 1.570789 0.086301 1.570789
    2 4.015625 0.000001 0.000000 0.000000 0.000000 -0.029241
    3 3.520294 0.000014 -0.000001 0.000000 0.000000 0.100332
    4 8.929688 0.000000 0.000000 0.000000 0.000000 0.194095
    5 2.035156 0.997070 1.937500 1.596487 -1.284993 2.943127
    6 6.028151 -0.000031 0.000004 -1.450399 -0.484854 -0.758377
    7 11.692549 0.000005 0.000011 0.203724 0.317675 -1.338352
    8 11.481670 0.000049 -0.000031 1.120094 -0.661856 0.091198
    9 3.858219 -0.135628 -1.192198 -0.462168 -0.183015 -1.143494
    10 1.312561 -0.000008 0.000000 0.000000 0.054403 -0.409014
    11 0.729362 0.000004 -0.000003 -0.000002 0.040753 -0.240990
    12 3.938059 0.050857 -0.435178 -0.058906 -0.190477 -1.052198
    13 1.539095 0.000004 -0.000002 0.000000 0.003735 -0.247814
    14 1.196325 0.000000 -0.000004 -0.000001 0.006169 -0.430818
    15 3.880859 -0.043091 0.427490 -0.476763 -0.093580 -0.824965
    16 1.719580 0.000011 -0.000015 -0.039460 -0.167701 -0.315837
    17 1.209179 -0.000004 0.000000 0.312038 0.209821 -0.320126
    18 3.863281 -0.136475 1.332031 0.316547 -0.532806 -0.147558
    19 1.719426 -0.000004 0.000007 -0.008714 -0.308204 -1.257834
    20 1.099669 -0.000004 0.000000 -0.000002 0.002587 -0.283860
    21 0.807581 -0.343248 1.316678 -1.196743 -0.516271 -0.924207
    22 1.789783 0.000002 0.000006 -0.000002 -0.003712 0.228604
    23 1.207008 0.000009 -0.000002 0.068240 -0.043107 0.237799
    24 2.035156 0.997070 -1.937500 -1.667267 1.282923 2.944210
    25 6.028140 -0.000004 0.000001 1.350669 0.579233 -0.965898
    26 11.692560 0.000021 -0.000004 -0.070199 -0.209059 -1.407252
    27 11.481653 0.000064 0.000015 -1.176892 0.518482 0.155060
    28 3.854337 -0.131714 1.199996 1.185711 -0.224301 -1.641700
    29 1.312565 0.000000 -0.000002 0.122434 -0.179429 -0.573229
    30 0.729366 0.000004 0.000003 0.000000 -0.000110 -0.248950
    31 3.941984 0.050857 0.435164 -0.031435 -0.126224 -1.323235
    32 1.539099 0.000004 0.000002 -0.245476 0.386205 -0.367027
    33 1.196320 0.000008 0.000004 0.000000 -0.000162 -0.332870
    34 3.880859 -0.047028 -0.427490 0.125580 0.221647 -0.416549
    35 1.719571 0.000019 0.000015 -0.311136 -0.043741 -1.054644
    36 1.209175 0.000004 0.000003 0.172210 -0.116519 -0.543375
    37 3.863496 -0.144303 -1.324347 -0.141219 0.635538 -0.479029
    38 1.719421 -0.000008 -0.000008 -0.052815 0.006926 -0.449862
    39 1.099667 -0.000004 0.000000 0.156990 -0.328270 -0.887119
    40 0.807596 -0.358881 -1.312776 1.243202 0.551772 -0.740648
    41 1.789776 0.000000 0.000002 -0.000008 0.003711 0.228604
    42 1.207008 0.000007 0.000000 0.000000 0.005667 0.362991
    43 3.772911 -5.489323 -0.527648 4.034818 -0.133223 -1.641906
  time 14
    0 -0.000003 -13.531250 -29.421875 1.570788 0.000007 -0.000007
    1 0.000000 3.345131 -2.981898 1.570789 0.086301 1.570789
    2 4.015625 0.000001 0.000000 0.000000 0.000000 -0.029241
    3 3.520294 0.000014 -0.000001 0.000000 0.000000 0.100332
    4 8.929688 0.000000 0.000000 0.000000 0.000000 0.194095
    5 2.035156 0.997070 1.937500 1.596487 -1.284993 2.943127
    6 6.028151 -0.000031 0.000004 -1.441726 -0.463008 -0.754710
    7 11.692549 0.000005 0.000011 0.213180 0.325286 -1.312542
    8 11.481670 0.000049 -0.000031 1.113767 -0.666340 0.082232
    9 3.858219 -0.135628 -1.192198 -0.462168 -0.183015 -1.143494
    10 1.312561 -0.000008 0.000000 0.000000 0.054403 -0.409014
    11 0.729362 0.000004 -0.000003 -0.000002 0.040753 -0.240990
    12 3.938059 0.050857 -0.435178 -0.058906 -0.190477 -1.052198
    13 1.539095 0.000004 -0.000002 0.000000 0.003735 -0.247814
    14 1.196325 0.000000 -0.000004 -0.000001 0.006169 -0.430818
    15 3.880859 -0.043091 0.427490 -0.476763 -0.093580 -0.824965
    16 1.719580 0.000011 -0.000015 -0.039460 -0.167701 -0.315837
    17 1.209179 -0.000004 0.000000 0.312038 0.209821 -0.320126
    18 3.863281 -0.136475 1.332031 0.316547 -0.532806 -0.147558
    19 1.719426 -0.000004 0.000007 -0.008714 -0.308204 -1.257834
    20 1.099669 -0.000004 0.000000 -0.000002 0.002587 -0.283860
    21 0.807581 -0.343248 1.316678 -1.196755 -0.518763 -0.923372
    22 1.789783 0.000002 0.000006 -0.000002 -0.003712 0.228604
    23 1.207008 0.000009 -0.000002 0.068240 -0.043107 0.237799
    24 2.035156 0.997070 -1.937500 -1.667267 1.282923 2.944210
    25 6.028140 -0.000004 0.000001 1.339499 0.566413 -0.972716
    26 11.692560 0.000021 -0.000004 -0.074453 -0.217712 -1.382603
    27 11.481653 0.000064 0.000015 -1.176472 0.518351 0.155000
    28 3.854337 -0.131714 1.199996 1.185711 -0.224301 -1.641700
    29 1.312565 0.000000 -0.000002 0.122434 -0.179429 -0.573229
    30 0.729366 0.000004 0.000003 0.000000 -0.000110 -0.248950
    31 3.938077 0.050857 0.435164 -0.031435 -0.126224 -1.323235
    32 1.539099 0.000004 0.000002 -0.245476 0.386205 -0.367027
    33 1.196320 0.000008 0.000004 0.000000 -0.000162 -0.332870
    34 3.880859 -0.047028 -0.427490 0.125580 0.221647 -0.416549
    35 1.719571 0.000019 0.000015 -0.311136 -0.043741 -1.054644
    36 1.209175 0.000004 0.000003 0.172210 -0.116519 -0.543375
    37 3.863496 -0.144303 -1.324347 -0.141219 0.635538 -0.479029
    38 1.719421 -0.000008 -0.000008 -0.052815 0.006926 -0.449862
    39 1.099667 -0.000004 0.000000 0.156990 -0.328270 -0.887119
    40 0.807596 -0.358881 -1.316682 1.243202 0.551772 -0.740648
    41 1.789776 0.000000 0.000002 -0.000008 0.003711 0.228604
    42 1.207008 0.000007 0.000000 0.000000 0.005667 0.362991
    43 3.772911 -5.489323 -0.527648 4.034818 -0.133223 -1.641906
  time 15
    0 -0.000003 -13.531250 -29.421875 1.570788 0.000007 -0.000007
    1 0.000000 3.345131 -2.981898 1.570789 0.086301 1.570789
    2 4.015625 0.000001 0.000000 0.000000 0.000000 -0.029241
    3 3.520294 0.000014 -0.000001 0.000000 0.000000 0.100332
    4 8.929688 0.000000 0.000000 0.000000 0.000000 0.194095
    5 2.035156 0.997070 1.937500 1.596487 -1.284993 2.943127
    6 6.028151 -0.000031 0.000004 -1.435346 -0.447231 -0.752169
    7 11.692549 0.000005 0.000011 0.219999 0.330775 -1.293992
    8 11.481670 0.000049 -0.000031 1.109241 -0.669530 0.075729
    9 3.854313 -0.135628 -1.192198 -0.462168 -0.183015 -1.143494
    10 1.312561 -0.000008 0.000000 0.000000 0.054403 -0.409014
    11 0.729362 0.000004 -0.000003 -0.000002 0.040753 -0.240990
    12 3.938059 0.050857 -0.435178 -0.058906 -0.190477 -1.052198
    13 1.539095 0.000004 -0.000002 0.000000 0.003735 -0.247814
    14 1.196325 0.000000 -0.000004 -0.000001 0.006169 -0.430818
    15 3.880859 -0.043091 0.427490 -0.476763 -0.093580 -0.824965
    16 1.719580 0.000011 -0.000015 -0.039460 -0.167701 -0.315837
    17 1.209179 -0.000004 0.000000 0.312038 0.209821 -0.320126
    18 3.863281 -0.136475 1.332031 0.316547 -0.532806 -0.147558
    19 1.719426 -0.000004 0.000007 -0.008714 -0.308204 -1.257834
    20 1.099669 -0.000004 0.000000 -0.000002 0.002587 -0.283860
    21 0.807581 -0.343248 1.320585 -1.196767 -0.520573 -0.922773
    22 1.789783 0.000002 0.000006 -0.000002 -0.003712 0.228604
    23 1.207008 0.000009 -0.000002 0.068240 -0.043107 0.237799
    24 2.035156 0.997070 -1.937500 -1.667267 1.282923 2.944210
    25 6.028140 -0.000004 0.000001 1.331578 0.557210 -0.977606
    26 11.692560 0.000021 -0.000004 -0.077521 -0.223956 -1.364867
    27 11.481653 0.000064 0.000015 -1.176174 0.518253 0.154964
    28 3.854337 -0.131714 1.199996 1.185711 -0.224301 -1.641700
    29 1.312565 0.000000 -0.000002 0.122434 -0.179429 -0.573229
    30 0.729366 0.000004 0.000003 0.000000 -0.000110 -0.248950
    31 3.941984 0.050857 0.435164 -0.031435 -0.126224 -1.323235
    32 1.539099 0.000004 0.000002 -0.245476 0.386205 -0.367027
    33 1.196320 0.000008 0.000004 0.000000 -0.000162 -0.332870
    34 3.880859 -0.047028 -0.427490 0.125580 0.221647 -0.416549
    35 1.719571 0.000019 0.000015 -0.311136 -0.043741 -1.054644
    36 1.209175 0.000004 0.000003 0.172210 -0.116519 -0.543375
    37 3.863496 -0.144303 -1.324347 -0.141219 0.635538 -0.479029
    38 1.719421 -0.000008 -0.000008 -0.052815 0.006926 -0.449862
    39 1.099667 -0.000004 0.000000 0.156990 -0.328270 -0.887119
    40 0.807596 -0.358881 -1.312776 1.243202 0.551772 -0.740648
    41 1.789776 0.000000 0.000002 -0.000008 0.003711 0.228604
    42 1.207008 0.000007 0.000000 0.000000 0.005667 0.362991
    43 3.772911 -5.489323 -0.527648 4.034818 -0.133223 -1.641906
  time 16
    0 -0.000003 -13.531250 -29.421875 1.570788 0.000007 -0.000007
    1 0.000000 3.345131 -2.981898 1.570789 0.086301 1.570789
    2 4.015625 0.000001 0.000000 0.000000 0.000000 -0.029241
    3 3.520294 0.000014 -0.000001 0.000000 0.000000 0.100332
    4 8.929688 0.000000 0.000000 0.000000 0.000000 0.194095
    5 2.035156 0.997070 1.937500 1.596487 -1.284993 2.943127
    6 6.028151 -0.000031 0.000004 -1.431491 -0.437784 -0.750683
    7 11.692549 0.000005 0.000011 0.224086 0.334058 -1.282862
    8 11.481670 0.000049 -0.000031 1.106565 -0.671443 0.071821
    9 3.858219 -0.135628 -1.192198 -0.462168 -0.183015 -1.143494
    10 1.312561 -0.000008 0.000000 0.000000 0.054403 -0.409014
    11 0.729362 0.000004 -0.000003 -0.000002 0.040753 -0.240990
    12 3.938059 0.050857 -0.435178 -0.058906 -0.190477 -1.052198
    13 1.539095 0.000004 -0.000002 0.000000 0.003735 -0.247814
    14 1.196325 0.000000 -0.000004 -0.000001 0.006169 -0.430818
    15 3.880859 -0.043091 0.427490 -0.476763 -0.093580 -0.824965
    16 1.719580 0.000011 -0.000015 -0.039460 -0.167701 -0.315837
    17 1.209179 -0.000004 0.000000 0.312038 0.209821 -0.320126
    18 3.863281 -0.136475 1.332031 0.316547 -0.532806 -0.147558
    19 1.719426 -0.000004 0.000007 -0.008714 -0.308204 -1.257834
    20 1.099669 -0.000004 0.000000 -0.000002 0.002587 -0.283860
    21 0.807581 -0.343248 1.320585 -1.196779 -0.521652 -0.922411
    22 1.789783 0.000002 0.000006 -0.000002 -0.003712 0.228604
    23 1.207008 0.000009 -0.000002 0.068240 -0.043107 0.237799
    24 2.035156 0.997070 -1.937500 -1.667267 1.282923 2.944210
    25 6.028140 -0.000004 0.000001 1.326868 0.551698 -0.980521
    26 11.692560 0.000021 -0.000004 -0.079355 -0.227695 -1.354204
    27 11.481653 0.000064 0.000015 -1.175985 0.518204 0.154928
    28 3.854337 -0.131714 1.199996 1.185711 -0.224301 -1.641700
    29 1.312565 0.000000 -0.000002 0.122434 -0.179429 -0.573229
    30 0.729366 0.000004 0.000003 0.000000 -0.000110 -0.248950
    31 3.941984 0.050857 0.435164 -0.031435 -0.126224 -1.323235
    32 1.539099 0.000004 0.000002 -0.245476 0.386205 -0.367027
    33 1.196320 0.000008 0.000004 0.000000 -0.000162 -0.332870
    34 3.880859 -0.047028 -0.427490 0.125580 0.221647 -0.416549
    35 1.719571 0.000019 0.000015 -0.311136 -0.043741 -1.054644
    36 1.209175 0.000004 0.000003 0.172210 -0.116519 -0.543375
    37 3.863496 -0.144303 -1.324347 -0.141219 0.635538 -0.479029
    38 1.719421 -0.000008 -0.000008 -0.052815 0.006926 -0.449862
    39 1.099667 -0.000004 0.000000 0.156990 -0.328270 -0.887119
    40 0.807596 -0.358881 -1.316682 1.243202 0.551772 -0.740648
    41 1.789776 0.000000 0.000002 -0.000008 0.003711 0.228604
    42 1.207008 0.000007 0.000000 0.000000 0.005667 0.362991
    43 3.772911 -5.489323 -0.527648 4.034818 -0.133223 -1.641906
  time 17
    0 -0.000003 -13.531250 -29.421875 1.570788 0.000007 -0.000007
    1 0.000000 3.345131 -2.981898 1.570789 0.086301 1.570789
    2 4.015625 0.000001 0.000000 0.000000 0.000000 -0.029241
    3 3.520294 0.000014 -0.000001 0.000000 0.000000 0.100332
    4 8.929688 0.000000 0.000000 0.000000 0.000000 0.194095
    5 2.035156 0.997070 1.937500 1.596487 -1.284993 2.943127
    6 6.028151 -0.000031 0.000004 -1.430219 -0.434668 -0.750191
    7 11.692549 0.000005 0.000011 0.225428 0.335149 -1.279152
    8 11.481670 0.000049 -0.000031 1.105689 -0.672081 0.070524
    9 3.858219 -0.135628 -1.192198 -0.462168 -0.183015 -1.143494
    10 1.312561 -0.000008 0.000000 0.000000 0.054403 -0.409014
    11 0.729362 0.000004 -0.000003 -0.000002 0.040753 -0.240990
    12 3.938059 0.050857 -0.435178 -0.058906 -0.190477 -1.052198
    13 1.539095 0.000004 -0.000002 0.000000 0.003735 -0.247814
    14 1.196325 0.000000 -0.000004 -0.000001 0.006169 -0.430818
    15 3.880859 -0.043091 0.427490 -0.476763 -0.093580 -0.824965
    16 1.719580 0.000011 -0.000015 -0.039460 -0.167701 -0.315837
    17 1.209179 -0.000004 0.000000 0.312038 0.209821 -0.320126
    18 3.863281 -0.136475 1.332031 0.316547 -0.532806 -0.147558
    19 1.719426 -0.000004 0.000007 -0.008714 -0.308204 -1.257834
    20 1.099669 -0.000004 0.000000 -0.000002 0.002587 -0.283860
    21 0.807581 -0.343248 1.320585 -1.196779 -0.522011 -0.922299
    22 1.789783 0.000002 0.000006 -0.000002 -0.003712 0.228604
    23 1.207008 0.000009 -0.000002 0.068240 -0.043107 0.237799
    24 2.035156 0.997070 -1.937500 -1.667267 1.282923 2.944210
    25 6.028140 -0.000004 0.000001 1.325310 0.549878 -0.981497
    26 11.692560 0.000021 -0.000004 -0.079966 -0.228929 -1.350667
    27 11.481653 0.000064 0.000015 -1.175917 0.518188 0.154928
    28 3.854337 -0.131714 1.199996 1.185711 -0.224301 -1.641700
    29 1.312565 0.000000 -0.000002 0.122434 -0.179429 -0.573229
    30 0.729366 0.000004 0.000003 0.000000 -0.000110 -0.248950
    31 3.941984 0.050857 0.435164 -0.031435 -0.126224 -1.323235
    32 1.539099 0.000004 0.000002 -0.245476 0.386205 -0.367027
    33 1.196320 0.000008 0.000004 0.000000 -0.000162 -0.332870
    34 3.880859 -0.047028 -0.427490 0.125580 0.221647 -0.416549
    35 1.719571 0.000019 0.000015 -0.311136 -0.043741 -1.054644
    36 1.209175 0.000004 0.000003 0.172210 -0.116519 -0.543375
    37 3.863496 -0.144303 -1.324347 -0.141219 0.635538 -0.479029
    38 1.719421 -0.000008 -0.000008 -0.052815 0.006926 -0.449862
    39 1.099667 -0.000004 0.000000 0.156990 -0.328270 -0.887119
    40 0.807596 -0.358881 -1.316682 1.243202 0.551772 -0.740648
    41 1.789776 0.000000 0.000002 -0.000008 0.003711 0.228604
    42 1.207008 0.000007 0.000000 0.000000 0.005667 0.362991
    43 3.772911 -5.489323 -0.527648 4.034818 -0.133223 -1.641906
end
