// Created by Crowbar 0.74
version 1
nodes
  0 "ValveBiped.Bip01" -1
  1 "ValveBiped.Bip01_Spine" 0
  2 "ValveBiped.Bip01_Spine1" 1
  3 "ValveBiped.Bip01_Spine2" 2
  4 "ValveBiped.Bip01_Spine4" 3
  5 "ValveBiped.Bip01_L_Clavicle" 4
  6 "ValveBiped.Bip01_L_UpperArm" 5
  7 "ValveBiped.Bip01_L_Forearm" 6
  8 "ValveBiped.Bip01_L_Hand" 7
  9 "ValveBiped.Bip01_L_Finger4" 8
  10 "ValveBiped.Bip01_L_Finger41" 9
  11 "ValveBiped.Bip01_L_Finger42" 10
  12 "ValveBiped.Bip01_L_Finger3" 8
  13 "ValveBiped.Bip01_L_Finger31" 12
  14 "ValveBiped.Bip01_L_Finger32" 13
  15 "ValveBiped.Bip01_L_Finger2" 8
  16 "ValveBiped.Bip01_L_Finger21" 15
  17 "ValveBiped.Bip01_L_Finger22" 16
  18 "ValveBiped.Bip01_L_Finger1" 8
  19 "ValveBiped.Bip01_L_Finger11" 18
  20 "ValveBiped.Bip01_L_Finger12" 19
  21 "ValveBiped.Bip01_L_Finger0" 8
  22 "ValveBiped.Bip01_L_Finger01" 21
  23 "ValveBiped.Bip01_L_Finger02" 22
  24 "ValveBiped.Bip01_R_Clavicle" 4
  25 "ValveBiped.Bip01_R_UpperArm" 24
  26 "ValveBiped.Bip01_R_Forearm" 25
  27 "ValveBiped.Bip01_R_Hand" 26
  28 "ValveBiped.Bip01_R_Finger4" 27
  29 "ValveBiped.Bip01_R_Finger41" 28
  30 "ValveBiped.Bip01_R_Finger42" 29
  31 "ValveBiped.Bip01_R_Finger3" 27
  32 "ValveBiped.Bip01_R_Finger31" 31
  33 "ValveBiped.Bip01_R_Finger32" 32
  34 "ValveBiped.Bip01_R_Finger2" 27
  35 "ValveBiped.Bip01_R_Finger21" 34
  36 "ValveBiped.Bip01_R_Finger22" 35
  37 "ValveBiped.Bip01_R_Finger1" 27
  38 "ValveBiped.Bip01_R_Finger11" 37
  39 "ValveBiped.Bip01_R_Finger12" 38
  40 "ValveBiped.Bip01_R_Finger0" 27
  41 "ValveBiped.Bip01_R_Finger01" 40
  42 "ValveBiped.Bip01_R_Finger02" 41
  43 "ValveBiped.Camera" 27
end
skeleton
  time 0
    0 0.000000 -0.533203 38.562500 1.570792 0.000003 -0.000003
    1 0.000000 3.345131 -2.981898 1.570796 0.083192 1.570795
    2 3.995834 -0.000004 -0.000003 0.000000 0.000000 -0.028821
    3 3.520294 0.000014 -0.000001 0.000000 0.000000 0.097313
    4 8.921478 -0.000016 -0.000001 0.000000 0.000000 0.186410
    5 2.059521 0.977922 1.937662 1.589738 -1.286516 2.950151
    6 6.028151 -0.000031 0.000004 -1.573854 0.051609 -0.584888
    7 11.692549 0.000005 0.000011 -0.000002 0.000000 -0.060376
    8 11.481670 0.000049 -0.000031 1.568293 -0.038710 0.036024
    9 3.850407 0.126099 -1.223449 -0.363882 0.112046 -0.355497
    10 1.312561 -0.000008 0.000000 0.000000 0.054403 -0.409014
    11 0.729362 0.000004 -0.000003 -0.000002 0.040753 -0.240990
    12 3.926340 0.316490 -0.462523 -0.101499 0.042180 -0.269682
    13 1.539095 0.000004 -0.000002 0.000000 0.003735 -0.247814
    14 1.196325 0.000000 -0.000004 -0.000001 0.006169 -0.430818
    15 3.881374 0.214699 0.400250 0.090106 -0.011418 -0.132538
    16 1.719580 0.000011 -0.000015 -0.000004 -0.020425 -0.365965
    17 1.209179 -0.000004 0.000000 0.000000 -0.011430 -0.216120
    18 3.871290 0.117420 1.300894 0.320640 -0.041411 -0.125809
    19 1.719426 -0.000004 0.000007 0.000002 -0.106222 -0.347808
    20 1.099669 -0.000004 0.000000 0.000002 -0.067956 -0.234890
    21 0.838832 -0.300278 1.312772 -1.243195 -0.551769 -0.740654
    22 1.789783 0.000002 0.000006 -0.000002 -0.003712 0.228604
    23 1.207008 0.000009 -0.000002 0.000000 -0.005667 0.362993
    24 2.059521 0.977923 -1.937661 -1.661571 1.286516 2.950147
    25 6.028140 -0.000004 0.000001 1.633733 -0.011882 -0.586789
    26 11.692560 0.000021 -0.000004 0.000007 0.000000 -0.060376
    27 11.481653 0.000064 0.000015 -1.568298 0.038705 0.036029
    28 3.850430 0.126106 1.223434 0.363880 -0.112041 -0.355494
    29 1.312565 0.000000 -0.000002 0.000001 -0.054403 -0.409012
    30 0.729366 0.000004 0.000003 0.000002 -0.040753 -0.240990
    31 3.926358 0.316490 0.462509 0.101498 -0.042176 -0.269679
    32 1.539099 0.000004 0.000002 0.000000 -0.003735 -0.247811
    33 1.196320 0.000008 0.000004 0.000002 -0.006168 -0.430819
    34 3.881389 0.214699 -0.400265 -0.090105 0.011421 -0.132533
    35 1.719571 0.000019 0.000015 0.000003 0.020427 -0.365968
    36 1.209175 0.000004 0.000003 0.000001 0.011428 -0.216118
    37 3.871308 0.117424 -1.300909 -0.320640 0.041414 -0.125807
    38 1.719421 -0.000008 -0.000008 -0.000002 0.106222 -0.347806
    39 1.099667 -0.000004 0.000000 -0.000002 0.067956 -0.234889
    40 0.838847 -0.300285 -1.312776 1.243202 0.551772 -0.740648
    41 1.789776 0.000000 0.000002 -0.000008 0.003711 0.228604
    42 1.207008 0.000007 0.000000 0.000000 0.005667 0.362991
    43 -1.754601 -6.090904 0.038776 1.555190 -0.016469 -2.311233
end
