// Created by Crowbar 0.74
version 1
nodes
  0 "ValveBiped.Bip01" -1
  1 "ValveBiped.Bip01_Spine" 0
  2 "ValveBiped.Bip01_Spine1" 1
  3 "ValveBiped.Bip01_Spine2" 2
  4 "ValveBiped.Bip01_Spine4" 3
  5 "ValveBiped.Bip01_L_Clavicle" 4
  6 "ValveBiped.Bip01_L_UpperArm" 5
  7 "ValveBiped.Bip01_L_Forearm" 6
  8 "ValveBiped.Bip01_L_Hand" 7
  9 "ValveBiped.Bip01_L_Finger4" 8
  10 "ValveBiped.Bip01_L_Finger41" 9
  11 "ValveBiped.Bip01_L_Finger42" 10
  12 "ValveBiped.Bip01_L_Finger3" 8
  13 "ValveBiped.Bip01_L_Finger31" 12
  14 "ValveBiped.Bip01_L_Finger32" 13
  15 "ValveBiped.Bip01_L_Finger2" 8
  16 "ValveBiped.Bip01_L_Finger21" 15
  17 "ValveBiped.Bip01_L_Finger22" 16
  18 "ValveBiped.Bip01_L_Finger1" 8
  19 "ValveBiped.Bip01_L_Finger11" 18
  20 "ValveBiped.Bip01_L_Finger12" 19
  21 "ValveBiped.Bip01_L_Finger0" 8
  22 "ValveBiped.Bip01_L_Finger01" 21
  23 "ValveBiped.Bip01_L_Finger02" 22
  24 "ValveBiped.Bip01_R_Clavicle" 4
  25 "ValveBiped.Bip01_R_UpperArm" 24
  26 "ValveBiped.Bip01_R_Forearm" 25
  27 "ValveBiped.Bip01_R_Hand" 26
  28 "ValveBiped.Bip01_R_Finger4" 27
  29 "ValveBiped.Bip01_R_Finger41" 28
  30 "ValveBiped.Bip01_R_Finger42" 29
  31 "ValveBiped.Bip01_R_Finger3" 27
  32 "ValveBiped.Bip01_R_Finger31" 31
  33 "ValveBiped.Bip01_R_Finger32" 32
  34 "ValveBiped.Bip01_R_Finger2" 27
  35 "ValveBiped.Bip01_R_Finger21" 34
  36 "ValveBiped.Bip01_R_Finger22" 35
  37 "ValveBiped.Bip01_R_Finger1" 27
  38 "ValveBiped.Bip01_R_Finger11" 37
  39 "ValveBiped.Bip01_R_Finger12" 38
  40 "ValveBiped.Bip01_R_Finger0" 27
  41 "ValveBiped.Bip01_R_Finger01" 40
  42 "ValveBiped.Bip01_R_Finger02" 41
  43 "ValveBiped.Camera" 27
end
skeleton
  time 0
    0 -0.000003 -13.531250 -29.421875 1.570788 0.000007 -0.000007
    1 0.000000 3.345131 -2.981898 1.570789 0.086301 1.570789
    2 4.015625 0.000001 0.000000 0.000000 0.000000 -0.029241
    3 3.520294 0.000014 -0.000001 0.000000 0.000000 0.100332
    4 8.929688 0.000000 0.000000 0.000000 0.000000 0.194095
    5 2.035156 0.997070 1.937500 1.596487 -1.284993 2.943127
    6 6.028151 -0.000031 0.000004 -1.554965 -0.838975 -0.853906
    7 11.692549 0.000005 0.000011 0.048560 0.192772 -1.761500
    8 11.481670 0.000049 -0.000031 1.238153 -0.584038 0.230134
    9 3.858219 -0.135628 -1.192198 -0.462168 -0.183015 -1.143494
    10 1.312561 -0.000008 0.000000 0.000000 0.054403 -0.409014
    11 0.729362 0.000004 -0.000003 -0.000002 0.040753 -0.240990
    12 3.938059 0.050857 -0.435178 -0.058906 -0.190477 -1.052198
    13 1.539095 0.000004 -0.000002 0.000000 0.003735 -0.247814
    14 1.196325 0.000000 -0.000004 -0.000001 0.006169 -0.430818
    15 3.880859 -0.043091 0.427490 -0.476763 -0.093580 -0.824965
    16 1.719580 0.000011 -0.000015 -0.039460 -0.167701 -0.315837
    17 1.209179 -0.000004 0.000000 0.312038 0.209821 -0.320126
    18 3.863281 -0.136475 1.332031 0.316547 -0.532806 -0.147558
    19 1.719426 -0.000004 0.000007 -0.008714 -0.308204 -1.257834
    20 1.099669 -0.000004 0.000000 -0.000002 0.002587 -0.283860
    21 0.807581 -0.343248 1.320585 -1.197390 -0.475295 -0.937730
    22 1.789783 0.000002 0.000006 -0.000002 -0.003712 0.228604
    23 1.207008 0.000009 -0.000002 0.068240 -0.043107 0.237799
    24 2.035156 0.997070 -1.937500 -1.667267 1.282923 2.944210
    25 6.028140 -0.000004 0.000001 1.564103 0.793322 -0.843527
    26 11.692560 0.000021 -0.000004 -0.000388 -0.066958 -1.811914
    27 11.481653 0.000064 0.000015 -1.183866 0.520525 0.156055
    28 3.854337 -0.131714 1.199996 1.185686 -0.224301 -1.641700
    29 1.312565 0.000000 -0.000002 0.122434 -0.179429 -0.573229
    30 0.729366 0.000004 0.000003 0.000000 -0.000110 -0.248950
    31 3.938077 0.050857 0.435164 -0.031435 -0.126224 -1.323235
    32 1.539099 0.000004 0.000002 -0.245476 0.386205 -0.367027
    33 1.196320 0.000008 0.000004 0.000000 -0.000162 -0.332870
    34 3.880859 -0.047028 -0.427490 0.125580 0.221647 -0.416549
    35 1.719571 0.000019 0.000015 -0.311136 -0.043741 -1.054644
    36 1.209175 0.000004 0.000003 0.172210 -0.116519 -0.543375
    37 3.863496 -0.144303 -1.324347 0.010614 0.689601 -0.225135
    38 1.719421 -0.000008 -0.000008 -0.052806 0.006930 -0.449855
    39 1.099667 -0.000004 0.000000 0.205773 -0.352710 -0.942334
    40 0.811503 -0.358881 -1.312776 1.243202 0.551772 -0.740648
    41 1.789776 0.000000 0.000002 -0.000008 0.003711 0.228604
    42 1.207008 0.000007 0.000000 0.000000 0.005667 0.362991
    43 3.775391 -5.484375 -0.527832 -2.248284 -0.133216 -1.641882
  time 1
    0 -0.000003 -13.531250 -29.421875 1.570788 0.000007 -0.000007
    1 0.000000 3.345131 -2.981898 1.570789 0.086301 1.570789
    2 4.015625 0.000001 0.000000 0.000000 0.000000 -0.029241
    3 3.520294 0.000014 -0.000001 0.000000 0.000000 0.100332
    4 8.929688 0.000000 0.000000 0.000000 0.000000 0.194095
    5 2.035156 0.997070 1.937500 1.596487 -1.284993 2.943127
    6 6.028151 -0.000031 0.000004 -1.554387 -0.837925 -0.854122
    7 11.692549 0.000005 0.000011 0.048811 0.193227 -1.760069
    8 11.481670 0.000049 -0.000031 1.238105 -0.584038 0.230134
    9 3.858219 -0.135628 -1.192198 -0.462168 -0.183015 -1.143494
    10 1.312561 -0.000008 0.000000 0.000000 0.054403 -0.409014
    11 0.729362 0.000004 -0.000003 -0.000002 0.040753 -0.240990
    12 3.941966 0.050857 -0.435178 -0.058906 -0.190477 -1.052198
    13 1.539095 0.000004 -0.000002 0.000000 0.003735 -0.247814
    14 1.196325 0.000000 -0.000004 -0.000001 0.006169 -0.430818
    15 3.880859 -0.043091 0.427490 -0.476763 -0.093580 -0.824965
    16 1.719580 0.000011 -0.000015 -0.039460 -0.167701 -0.315837
    17 1.209179 -0.000004 0.000000 0.312038 0.209821 -0.320126
    18 3.863281 -0.136475 1.332031 0.316547 -0.532806 -0.147558
    19 1.719426 -0.000004 0.000007 -0.008714 -0.308204 -1.257834
    20 1.099669 -0.000004 0.000000 -0.000002 0.002587 -0.283860
    21 0.807581 -0.343248 1.320585 -1.197390 -0.475295 -0.937730
    22 1.789783 0.000002 0.000006 -0.000002 -0.003712 0.228604
    23 1.207008 0.000009 -0.000002 0.068240 -0.043107 0.237799
    24 2.035156 0.997070 -1.937500 -1.667267 1.282923 2.944210
    25 6.028140 -0.000004 0.000001 1.563827 0.793147 -0.843696
    26 11.692560 0.000021 -0.000004 -0.000472 -0.067137 -1.810468
    27 11.481653 0.000064 0.000015 -1.183839 0.520509 0.156055
    28 3.854337 -0.131714 1.199996 1.185686 -0.224301 -1.641700
    29 1.312565 0.000000 -0.000002 0.122434 -0.179429 -0.573229
    30 0.729366 0.000004 0.000003 0.000000 -0.000110 -0.248950
    31 3.938077 0.050857 0.435164 -0.031435 -0.126224 -1.323235
    32 1.539099 0.000004 0.000002 -0.245476 0.386205 -0.367027
    33 1.196320 0.000008 0.000004 0.000000 -0.000162 -0.332870
    34 3.880859 -0.047028 -0.427490 0.125580 0.221647 -0.416549
    35 1.719571 0.000019 0.000015 -0.311136 -0.043741 -1.054644
    36 1.209175 0.000004 0.000003 0.172210 -0.116519 -0.543375
    37 3.863496 -0.144303 -1.324347 -0.047032 0.669958 -0.318183
    38 1.719421 -0.000008 -0.000008 -0.058906 0.007565 -0.577994
    39 1.099667 -0.000004 0.000000 0.175608 -0.337857 -0.786933
    40 0.811503 -0.358881 -1.312776 1.243202 0.551772 -0.740648
    41 1.789776 0.000000 0.000002 -0.000008 0.003711 0.228604
    42 1.207008 0.000007 0.000000 0.000000 0.005667 0.362991
    43 3.775391 -5.484375 -0.527832 -2.248284 -0.133216 -1.641882
  time 2
    0 -0.000003 -13.531250 -29.421875 1.570788 0.000007 -0.000007
    1 0.000000 3.345131 -2.981898 1.570789 0.086301 1.570789
    2 4.015625 0.000001 0.000000 0.000000 0.000000 -0.029241
    3 3.520294 0.000014 -0.000001 0.000000 0.000000 0.100332
    4 8.929688 0.000000 0.000000 0.000000 0.000000 0.194095
    5 2.035156 0.997070 1.937500 1.596487 -1.284993 2.943127
    6 6.028151 -0.000031 0.000004 -1.553808 -0.836876 -0.854349
    7 11.692549 0.000005 0.000011 0.049051 0.193695 -1.758691
    8 11.481670 0.000049 -0.000031 1.238105 -0.584018 0.230134
    9 3.854313 -0.135628 -1.192198 -0.462168 -0.183015 -1.143494
    10 1.312561 -0.000008 0.000000 0.000000 0.054403 -0.409014
    11 0.729362 0.000004 -0.000003 -0.000002 0.040753 -0.240990
    12 3.938059 0.050857 -0.435178 -0.058906 -0.190477 -1.052198
    13 1.539095 0.000004 -0.000002 0.000000 0.003735 -0.247814
    14 1.196325 0.000000 -0.000004 -0.000001 0.006169 -0.430818
    15 3.880859 -0.043091 0.427490 -0.476763 -0.093580 -0.824965
    16 1.719580 0.000011 -0.000015 -0.039460 -0.167701 -0.315837
    17 1.209179 -0.000004 0.000000 0.312038 0.209821 -0.320126
    18 3.863281 -0.136475 1.332031 0.316547 -0.532806 -0.147558
    19 1.719426 -0.000004 0.000007 -0.008714 -0.308204 -1.257834
    20 1.099669 -0.000004 0.000000 -0.000002 0.002587 -0.283860
    21 0.807581 -0.343248 1.320585 -1.197390 -0.475295 -0.937730
    22 1.789783 0.000002 0.000006 -0.000002 -0.003712 0.228604
    23 1.207008 0.000009 -0.000002 0.068240 -0.043107 0.237799
    24 2.035156 0.997070 -1.937500 -1.667267 1.282923 2.944210
    25 6.028140 -0.000004 0.000001 1.563539 0.792948 -0.843865
    26 11.692560 0.000021 -0.000004 -0.000544 -0.067317 -1.808967
    27 11.481653 0.000064 0.000015 -1.183825 0.520492 0.156043
    28 3.854337 -0.127808 1.199996 1.185711 -0.224301 -1.641700
    29 1.312565 0.000000 -0.000002 0.122434 -0.179429 -0.573229
    30 0.729366 0.000004 0.000003 0.000000 -0.000110 -0.248950
    31 3.941984 0.050857 0.435164 -0.031435 -0.126224 -1.323235
    32 1.539099 0.000004 0.000002 -0.245476 0.386205 -0.367027
    33 1.196320 0.000008 0.000004 0.000000 -0.000162 -0.332870
    34 3.880859 -0.047028 -0.427490 0.125580 0.221647 -0.416549
    35 1.719571 0.000019 0.000015 -0.311136 -0.043741 -1.054644
    36 1.209175 0.000004 0.000003 0.172210 -0.116519 -0.543375
    37 3.863496 -0.144303 -1.324347 -0.106979 0.648356 -0.419142
    38 1.719421 -0.000008 -0.000008 -0.064611 0.006498 -0.706157
    39 1.099667 -0.000004 0.000000 0.146294 -0.323723 -0.631639
    40 0.811503 -0.358881 -1.312776 1.243202 0.551772 -0.740648
    41 1.789776 0.000000 0.000002 -0.000008 0.003711 0.228604
    42 1.207008 0.000007 0.000000 0.000000 0.005667 0.362991
    43 3.775391 -5.484375 -0.527832 -2.248284 -0.133216 -1.641882
  time 3
    0 -0.000003 -13.531250 -29.421875 1.570788 0.000007 -0.000007
    1 0.000000 3.345131 -2.981898 1.570789 0.086301 1.570789
    2 4.015625 0.000001 0.000000 0.000000 0.000000 -0.029241
    3 3.520294 0.000014 -0.000001 0.000000 0.000000 0.100332
    4 8.929688 0.000000 0.000000 0.000000 0.000000 0.194095
    5 2.035156 0.997070 1.937500 1.596487 -1.284993 2.943127
    6 6.028151 -0.000031 0.000004 -1.553828 -0.836941 -0.854337
    7 11.692549 0.000005 0.000011 0.049039 0.193671 -1.758744
    8 11.481670 0.000049 -0.000031 1.238105 -0.584018 0.230134
    9 3.858219 -0.135628 -1.192198 -0.462168 -0.183015 -1.143494
    10 1.312561 -0.000008 0.000000 0.000000 0.054403 -0.409014
    11 0.729362 0.000004 -0.000003 -0.000002 0.040753 -0.240990
    12 3.938059 0.050857 -0.435178 -0.058906 -0.190477 -1.052198
    13 1.539095 0.000004 -0.000002 0.000000 0.003735 -0.247814
    14 1.196325 0.000000 -0.000004 -0.000001 0.006169 -0.430818
    15 3.880859 -0.043091 0.427490 -0.476763 -0.093580 -0.824965
    16 1.719580 0.000011 -0.000015 -0.039460 -0.167701 -0.315837
    17 1.209179 -0.000004 0.000000 0.312038 0.209821 -0.320126
    18 3.863281 -0.136475 1.332031 0.316547 -0.532806 -0.147558
    19 1.719426 -0.000004 0.000007 -0.008714 -0.308204 -1.257834
    20 1.099669 -0.000004 0.000000 -0.000002 0.002587 -0.283860
    21 0.807581 -0.343248 1.320585 -1.197390 -0.475295 -0.937730
    22 1.789783 0.000002 0.000006 -0.000002 -0.003712 0.228604
    23 1.207008 0.000009 -0.000002 0.068240 -0.043107 0.237799
    24 2.035156 0.997070 -1.937500 -1.667267 1.282923 2.944210
    25 6.028140 -0.000004 0.000001 1.563551 0.792973 -0.843865
    26 11.692560 0.000021 -0.000004 -0.000544 -0.067305 -1.809021
    27 11.481653 0.000064 0.000015 -1.183825 0.520492 0.156043
    28 3.854337 -0.131714 1.199996 1.185711 -0.224301 -1.641700
    29 1.312565 0.000000 -0.000002 0.122434 -0.179429 -0.573229
    30 0.729366 0.000004 0.000003 0.000000 -0.000110 -0.248950
    31 3.941984 0.050857 0.435164 -0.031435 -0.126224 -1.323235
    32 1.539099 0.000004 0.000002 -0.245476 0.386205 -0.367027
    33 1.196320 0.000008 0.000004 0.000000 -0.000162 -0.332870
    34 3.880859 -0.047028 -0.427490 0.125580 0.221647 -0.416549
    35 1.719571 0.000019 0.000015 -0.311136 -0.043741 -1.054644
    36 1.209175 0.000004 0.000003 0.172210 -0.116519 -0.543375
    37 3.863496 -0.144303 -1.324347 -0.116303 0.644894 -0.435285
    38 1.719421 -0.000008 -0.000008 -0.064311 0.006594 -0.699134
    39 1.099667 -0.000004 0.000000 0.146570 -0.322760 -0.638678
    40 0.811503 -0.358881 -1.312776 1.243202 0.551772 -0.740648
    41 1.789776 0.000000 0.000002 -0.000008 0.003711 0.228604
    42 1.207008 0.000007 0.000000 0.000000 0.005667 0.362991
    43 3.775391 -5.484375 -0.527832 -2.248284 -0.133216 -1.641882
  time 4
    0 -0.000003 -13.531250 -29.421875 1.570788 0.000007 -0.000007
    1 0.000000 3.345131 -2.981898 1.570789 0.086301 1.570789
    2 4.015625 0.000001 0.000000 0.000000 0.000000 -0.029241
    3 3.520294 0.000014 -0.000001 0.000000 0.000000 0.100332
    4 8.929688 0.000000 0.000000 0.000000 0.000000 0.194095
    5 2.035156 0.997070 1.937500 1.596487 -1.284993 2.943127
    6 6.028151 -0.000031 0.000004 -1.553924 -0.837105 -0.854302
    7 11.692549 0.000005 0.000011 0.049003 0.193599 -1.759009
    8 11.481670 0.000049 -0.000031 1.238105 -0.584018 0.230134
    9 3.858219 -0.135628 -1.192198 -0.462168 -0.183015 -1.143494
    10 1.312561 -0.000008 0.000000 0.000000 0.054403 -0.409014
    11 0.729362 0.000004 -0.000003 -0.000002 0.040753 -0.240990
    12 3.938059 0.050857 -0.435178 -0.058906 -0.190477 -1.052198
    13 1.539095 0.000004 -0.000002 0.000000 0.003735 -0.247814
    14 1.196325 0.000000 -0.000004 -0.000001 0.006169 -0.430818
    15 3.880859 -0.043091 0.427490 -0.476763 -0.093580 -0.824965
    16 1.719580 0.000011 -0.000015 -0.039460 -0.167701 -0.315837
    17 1.209179 -0.000004 0.000000 0.312038 0.209821 -0.320126
    18 3.863281 -0.136475 1.332031 0.316547 -0.532806 -0.147558
    19 1.719426 -0.000004 0.000007 -0.008714 -0.308204 -1.257834
    20 1.099669 -0.000004 0.000000 -0.000002 0.002587 -0.283860
    21 0.807581 -0.343248 1.316678 -1.197390 -0.475295 -0.937730
    22 1.789783 0.000002 0.000006 -0.000002 -0.003712 0.228604
    23 1.207008 0.000009 -0.000002 0.068240 -0.043107 0.237799
    24 2.035156 0.997070 -1.937500 -1.667267 1.282923 2.944210
    25 6.028140 -0.000004 0.000001 1.563599 0.792997 -0.843828
    26 11.692560 0.000021 -0.000004 -0.000532 -0.067281 -1.809289
    27 11.481653 0.000064 0.000015 -1.183825 0.520492 0.156043
    28 3.854337 -0.127808 1.199996 1.185686 -0.224301 -1.641700
    29 1.312565 0.000000 -0.000002 0.122434 -0.179429 -0.573229
    30 0.729366 0.000004 0.000003 0.000000 -0.000110 -0.248950
    31 3.941984 0.050857 0.435164 -0.031435 -0.126224 -1.323235
    32 1.539099 0.000004 0.000002 -0.245476 0.386205 -0.367027
    33 1.196320 0.000008 0.000004 0.000000 -0.000162 -0.332870
    34 3.880859 -0.047028 -0.427490 0.125580 0.221647 -0.416549
    35 1.719571 0.000019 0.000015 -0.311136 -0.043741 -1.054644
    36 1.209175 0.000004 0.000003 0.172210 -0.116519 -0.543375
    37 3.863496 -0.144303 -1.324347 -0.124249 0.641927 -0.449127
    38 1.719421 -0.000008 -0.000008 -0.063400 0.006870 -0.678065
    39 1.099667 -0.000004 0.000000 0.147373 -0.322349 -0.659663
    40 0.811503 -0.358881 -1.316682 1.243202 0.551772 -0.740648
    41 1.789776 0.000000 0.000002 -0.000008 0.003711 0.228604
    42 1.207008 0.000007 0.000000 0.000000 0.005667 0.362991
    43 3.775391 -5.484375 -0.527832 -2.248284 -0.133216 -1.641882
  time 5
    0 -0.000003 -13.531250 -29.421875 1.570788 0.000007 -0.000007
    1 0.000000 3.345131 -2.981898 1.570789 0.086301 1.570789
    2 4.015625 0.000001 0.000000 0.000000 0.000000 -0.029241
    3 3.520294 0.000014 -0.000001 0.000000 0.000000 0.100332
    4 8.929688 0.000000 0.000000 0.000000 0.000000 0.194095
    5 2.035156 0.997070 1.937500 1.596487 -1.284993 2.943127
    6 6.028151 -0.000031 0.000004 -1.554078 -0.837400 -0.854242
    7 11.692549 0.000005 0.000011 0.048931 0.193467 -1.759380
    8 11.481670 0.000049 -0.000031 1.238105 -0.584018 0.230134
    9 3.858219 -0.135628 -1.192198 -0.462168 -0.183015 -1.143494
    10 1.312561 -0.000008 0.000000 0.000000 0.054403 -0.409014
    11 0.729362 0.000004 -0.000003 -0.000002 0.040753 -0.240990
    12 3.938059 0.050857 -0.435178 -0.058906 -0.190477 -1.052198
    13 1.539095 0.000004 -0.000002 0.000000 0.003735 -0.247814
    14 1.196325 0.000000 -0.000004 -0.000001 0.006169 -0.430818
    15 3.880859 -0.043091 0.427490 -0.476763 -0.093580 -0.824965
    16 1.719580 0.000011 -0.000015 -0.039460 -0.167701 -0.315837
    17 1.209179 -0.000004 0.000000 0.312038 0.209821 -0.320126
    18 3.863281 -0.136475 1.332031 0.316547 -0.532806 -0.147558
    19 1.719426 -0.000004 0.000007 -0.008714 -0.308204 -1.257834
    20 1.099669 -0.000004 0.000000 -0.000002 0.002587 -0.283860
    21 0.807581 -0.343248 1.320585 -1.197390 -0.475295 -0.937730
    22 1.789783 0.000002 0.000006 -0.000002 -0.003712 0.228604
    23 1.207008 0.000009 -0.000002 0.068240 -0.043107 0.237799
    24 2.035156 0.997070 -1.937500 -1.667267 1.282923 2.944210
    25 6.028140 -0.000004 0.000001 1.563671 0.793047 -0.843780
    26 11.692560 0.000021 -0.000004 -0.000508 -0.067233 -1.809664
    27 11.481653 0.000064 0.000015 -1.183825 0.520509 0.156043
    28 3.854337 -0.131714 1.199996 1.185686 -0.224301 -1.641700
    29 1.312565 0.000000 -0.000002 0.122434 -0.179429 -0.573229
    30 0.729366 0.000004 0.000003 0.000000 -0.000110 -0.248950
    31 3.941984 0.050857 0.435164 -0.031435 -0.126224 -1.323235
    32 1.539099 0.000004 0.000002 -0.245476 0.386205 -0.367027
    33 1.196320 0.000008 0.000004 0.000000 -0.000162 -0.332870
    34 3.880859 -0.047028 -0.427490 0.125580 0.221647 -0.416549
    35 1.719571 0.000019 0.000015 -0.311136 -0.043741 -1.054644
    36 1.209175 0.000004 0.000003 0.172210 -0.116519 -0.543375
    37 3.863496 -0.144303 -1.324347 -0.130612 0.639553 -0.460273
    38 1.719421 -0.000008 -0.000008 -0.061914 0.007217 -0.644233
    39 1.099667 -0.000004 0.000000 0.148679 -0.322541 -0.693364
    40 0.807596 -0.358881 -1.312776 1.243202 0.551772 -0.740648
    41 1.789776 0.000000 0.000002 -0.000008 0.003711 0.228604
    42 1.207008 0.000007 0.000000 0.000000 0.005667 0.362991
    43 3.775391 -5.484375 -0.527832 -2.248284 -0.133216 -1.641882
  time 6
    0 -0.000003 -13.531250 -29.421875 1.570788 0.000007 -0.000007
    1 0.000000 3.345131 -2.981898 1.570789 0.086301 1.570789
    2 4.015625 0.000001 0.000000 0.000000 0.000000 -0.029241
    3 3.520294 0.000014 -0.000001 0.000000 0.000000 0.100332
    4 8.929688 0.000000 0.000000 0.000000 0.000000 0.194095
    5 2.035156 0.997070 1.937500 1.596487 -1.284993 2.943127
    6 6.028151 -0.000031 0.000004 -1.554271 -0.837728 -0.854170
    7 11.692549 0.000005 0.000011 0.048847 0.193311 -1.759857
    8 11.481670 0.000049 -0.000031 1.238105 -0.584038 0.230134
    9 3.858219 -0.135628 -1.192198 -0.462168 -0.183015 -1.143494
    10 1.312561 -0.000008 0.000000 0.000000 0.054403 -0.409014
    11 0.729362 0.000004 -0.000003 -0.000002 0.040753 -0.240990
    12 3.938059 0.050857 -0.435178 -0.058906 -0.190477 -1.052198
    13 1.539095 0.000004 -0.000002 0.000000 0.003735 -0.247814
    14 1.196325 0.000000 -0.000004 -0.000001 0.006169 -0.430818
    15 3.880859 -0.043091 0.427490 -0.476763 -0.093580 -0.824965
    16 1.719580 0.000011 -0.000015 -0.039460 -0.167701 -0.315837
    17 1.209179 -0.000004 0.000000 0.312038 0.209821 -0.320126
    18 3.863281 -0.136475 1.332031 0.316547 -0.532806 -0.147558
    19 1.719426 -0.000004 0.000007 -0.008714 -0.308204 -1.257834
    20 1.099669 -0.000004 0.000000 -0.000002 0.002587 -0.283860
    21 0.807581 -0.343248 1.320585 -1.197390 -0.475295 -0.937730
    22 1.789783 0.000002 0.000006 -0.000002 -0.003712 0.228604
    23 1.207008 0.000009 -0.000002 0.068240 -0.043107 0.237799
    24 2.035156 0.997070 -1.937500 -1.667267 1.282923 2.944210
    25 6.028140 -0.000004 0.000001 1.563767 0.793097 -0.843732
    26 11.692560 0.000021 -0.000004 -0.000484 -0.067173 -1.810200
    27 11.481653 0.000064 0.000015 -1.183839 0.520509 0.156055
    28 3.854337 -0.131714 1.199996 1.185686 -0.224301 -1.641700
    29 1.312565 0.000000 -0.000002 0.122434 -0.179429 -0.573229
    30 0.729366 0.000004 0.000003 0.000000 -0.000110 -0.248950
    31 3.941984 0.050857 0.435164 -0.031435 -0.126224 -1.323235
    32 1.539099 0.000004 0.000002 -0.245476 0.386205 -0.367027
    33 1.196320 0.000008 0.000004 0.000000 -0.000162 -0.332870
    34 3.880859 -0.047028 -0.427490 0.125580 0.221647 -0.416549
    35 1.719571 0.000019 0.000015 -0.311136 -0.043741 -1.054644
    36 1.209175 0.000004 0.000003 0.172210 -0.116519 -0.543375
    37 3.863496 -0.144303 -1.324347 -0.135286 0.637793 -0.468530
    38 1.719421 -0.000008 -0.000008 -0.059973 0.007493 -0.601208
    39 1.099667 -0.000004 0.000000 0.150405 -0.323325 -0.736219
    40 0.811503 -0.358881 -1.312776 1.243202 0.551772 -0.740648
    41 1.789776 0.000000 0.000002 -0.000008 0.003711 0.228604
    42 1.207008 0.000007 0.000000 0.000000 0.005667 0.362991
    43 3.775391 -5.484375 -0.527832 -2.248284 -0.133216 -1.641882
  time 7
    0 -0.000003 -13.531250 -29.421875 1.570788 0.000007 -0.000007
    1 0.000000 3.345131 -2.981898 1.570789 0.086301 1.570789
    2 4.015625 0.000001 0.000000 0.000000 0.000000 -0.029241
    3 3.520294 0.000014 -0.000001 0.000000 0.000000 0.100332
    4 8.929688 0.000000 0.000000 0.000000 0.000000 0.194095
    5 2.035156 0.997070 1.937500 1.596487 -1.284993 2.943127
    6 6.028151 -0.000031 0.000004 -1.554483 -0.838122 -0.854086
    7 11.692549 0.000005 0.000011 0.048763 0.193144 -1.760334
    8 11.481670 0.000049 -0.000031 1.238105 -0.584038 0.230134
    9 3.854313 -0.135628 -1.192198 -0.462168 -0.183015 -1.143494
    10 1.312561 -0.000008 0.000000 0.000000 0.054403 -0.409014
    11 0.729362 0.000004 -0.000003 -0.000002 0.040753 -0.240990
    12 3.938059 0.050857 -0.435178 -0.058906 -0.190477 -1.052198
    13 1.539095 0.000004 -0.000002 0.000000 0.003735 -0.247814
    14 1.196325 0.000000 -0.000004 -0.000001 0.006169 -0.430818
    15 3.880859 -0.043091 0.427490 -0.476763 -0.093580 -0.824965
    16 1.719580 0.000011 -0.000015 -0.039460 -0.167701 -0.315837
    17 1.209179 -0.000004 0.000000 0.312038 0.209821 -0.320126
    18 3.863281 -0.136475 1.332031 0.316547 -0.532806 -0.147558
    19 1.719426 -0.000004 0.000007 -0.008714 -0.308204 -1.257834
    20 1.099669 -0.000004 0.000000 -0.000002 0.002587 -0.283860
    21 0.807581 -0.343248 1.316678 -1.197390 -0.475295 -0.937730
    22 1.789783 0.000002 0.000006 -0.000002 -0.003712 0.228604
    23 1.207008 0.000009 -0.000002 0.068240 -0.043107 0.237799
    24 2.035156 0.997070 -1.937500 -1.667267 1.282923 2.944210
    25 6.028140 -0.000004 0.000001 1.563875 0.793172 -0.843672
    26 11.692560 0.000021 -0.000004 -0.000460 -0.067102 -1.810736
    27 11.481653 0.000064 0.000015 -1.183839 0.520509 0.156055
    28 3.854337 -0.127808 1.199996 1.185686 -0.224301 -1.641700
    29 1.312565 0.000000 -0.000002 0.122434 -0.179429 -0.573229
    30 0.729366 0.000004 0.000003 0.000000 -0.000110 -0.248950
    31 3.938077 0.050857 0.435164 -0.031435 -0.126224 -1.323235
    32 1.539099 0.000004 0.000002 -0.245476 0.386205 -0.367027
    33 1.196320 0.000008 0.000004 0.000000 -0.000162 -0.332870
    34 3.880859 -0.047028 -0.427490 0.125580 0.221647 -0.416549
    35 1.719571 0.000019 0.000015 -0.311136 -0.043741 -1.054644
    36 1.209175 0.000004 0.000003 0.172210 -0.116519 -0.543375
    37 3.863496 -0.144303 -1.324347 -0.138378 0.636626 -0.473983
    38 1.719421 -0.000008 -0.000008 -0.057828 0.007577 -0.554780
    39 1.099667 -0.000004 0.000000 0.152334 -0.324531 -0.782485
    40 0.807596 -0.358881 -1.312776 1.243202 0.551772 -0.740648
    41 1.789776 0.000000 0.000002 -0.000008 0.003711 0.228604
    42 1.207008 0.000007 0.000000 0.000000 0.005667 0.362991
    43 3.775391 -5.484375 -0.527832 -2.248284 -0.133216 -1.641882
  time 8
    0 -0.000003 -13.531250 -29.421875 1.570788 0.000007 -0.000007
    1 0.000000 3.345131 -2.981898 1.570789 0.086301 1.570789
    2 4.015625 0.000001 0.000000 0.000000 0.000000 -0.029241
    3 3.520294 0.000014 -0.000001 0.000000 0.000000 0.100332
    4 8.929688 0.000000 0.000000 0.000000 0.000000 0.194095
    5 2.035156 0.997070 1.937500 1.596487 -1.284993 2.943127
    6 6.028151 -0.000031 0.000004 -1.554676 -0.838483 -0.854014
    7 11.692549 0.000005 0.000011 0.048679 0.192988 -1.760811
    8 11.481670 0.000049 -0.000031 1.238153 -0.584038 0.230134
    9 3.858219 -0.135628 -1.192198 -0.462168 -0.183015 -1.143494
    10 1.312561 -0.000008 0.000000 0.000000 0.054403 -0.409014
    11 0.729362 0.000004 -0.000003 -0.000002 0.040753 -0.240990
    12 3.938059 0.050857 -0.435178 -0.058906 -0.190477 -1.052198
    13 1.539095 0.000004 -0.000002 0.000000 0.003735 -0.247814
    14 1.196325 0.000000 -0.000004 -0.000001 0.006169 -0.430818
    15 3.880859 -0.043091 0.427490 -0.476763 -0.093580 -0.824965
    16 1.719580 0.000011 -0.000015 -0.039460 -0.167701 -0.315837
    17 1.209179 -0.000004 0.000000 0.312038 0.209821 -0.320126
    18 3.863281 -0.136475 1.332031 0.316547 -0.532806 -0.147558
    19 1.719426 -0.000004 0.000007 -0.008714 -0.308204 -1.257834
    20 1.099669 -0.000004 0.000000 -0.000002 0.002587 -0.283860
    21 0.807581 -0.343248 1.316678 -1.197390 -0.475295 -0.937730
    22 1.789783 0.000002 0.000006 -0.000002 -0.003712 0.228604
    23 1.207008 0.000009 -0.000002 0.068240 -0.043107 0.237799
    24 2.035156 0.997070 -1.937500 -1.667267 1.282923 2.944210
    25 6.028140 -0.000004 0.000001 1.563971 0.793247 -0.843612
    26 11.692560 0.000021 -0.000004 -0.000436 -0.067042 -1.811218
    27 11.481653 0.000064 0.000015 -1.183852 0.520525 0.156055
    28 3.854337 -0.131714 1.199996 1.185686 -0.224301 -1.641700
    29 1.312565 0.000000 -0.000002 0.122434 -0.179429 -0.573229
    30 0.729366 0.000004 0.000003 0.000000 -0.000110 -0.248950
    31 3.941984 0.050857 0.435164 -0.031435 -0.126224 -1.323235
    32 1.539099 0.000004 0.000002 -0.245476 0.386205 -0.367027
    33 1.196320 0.000008 0.000004 0.000000 -0.000162 -0.332870
    34 3.880859 -0.047028 -0.427490 0.125580 0.221647 -0.416549
    35 1.719571 0.000019 0.000015 -0.311136 -0.043741 -1.054644
    36 1.209175 0.000004 0.000003 0.172210 -0.116519 -0.543375
    37 3.863496 -0.144303 -1.324347 -0.140128 0.635953 -0.477075
    38 1.719421 -0.000008 -0.000008 -0.055790 0.007457 -0.511755
    39 1.099667 -0.000004 0.000000 0.154192 -0.325918 -0.825362
    40 0.811503 -0.358881 -1.312776 1.243202 0.551772 -0.740648
    41 1.789776 0.000000 0.000002 -0.000008 0.003711 0.228604
    42 1.207008 0.000007 0.000000 0.000000 0.005667 0.362991
    43 3.775391 -5.484375 -0.527832 -2.248284 -0.133216 -1.641882
  time 9
    0 -0.000003 -13.531250 -29.421875 1.570788 0.000007 -0.000007
    1 0.000000 3.345131 -2.981898 1.570789 0.086301 1.570789
    2 4.015625 0.000001 0.000000 0.000000 0.000000 -0.029241
    3 3.520294 0.000014 -0.000001 0.000000 0.000000 0.100332
    4 8.929688 0.000000 0.000000 0.000000 0.000000 0.194095
    5 2.035156 0.997070 1.937500 1.596487 -1.284993 2.943127
    6 6.028151 -0.000031 0.000004 -1.554830 -0.838745 -0.853954
    7 11.692549 0.000005 0.000011 0.048607 0.192868 -1.761182
    8 11.481670 0.000049 -0.000031 1.238153 -0.584038 0.230134
    9 3.858219 -0.135628 -1.192198 -0.462168 -0.183015 -1.143494
    10 1.312561 -0.000008 0.000000 0.000000 0.054403 -0.409014
    11 0.729362 0.000004 -0.000003 -0.000002 0.040753 -0.240990
    12 3.938059 0.050857 -0.435178 -0.058906 -0.190477 -1.052198
    13 1.539095 0.000004 -0.000002 0.000000 0.003735 -0.247814
    14 1.196325 0.000000 -0.000004 -0.000001 0.006169 -0.430818
    15 3.880859 -0.043091 0.427490 -0.476763 -0.093580 -0.824965
    16 1.719580 0.000011 -0.000015 -0.039460 -0.167701 -0.315837
    17 1.209179 -0.000004 0.000000 0.312038 0.209821 -0.320126
    18 3.863281 -0.136475 1.332031 0.316547 -0.532806 -0.147558
    19 1.719426 -0.000004 0.000007 -0.008714 -0.308204 -1.257834
    20 1.099669 -0.000004 0.000000 -0.000002 0.002587 -0.283860
    21 0.807581 -0.343248 1.320585 -1.197390 -0.475295 -0.937730
    22 1.789783 0.000002 0.000006 -0.000002 -0.003712 0.228604
    23 1.207008 0.000009 -0.000002 0.068240 -0.043107 0.237799
    24 2.035156 0.997070 -1.937500 -1.667267 1.282923 2.944210
    25 6.028140 -0.000004 0.000001 1.564043 0.793297 -0.843563
    26 11.692560 0.000021 -0.000004 -0.000412 -0.066994 -1.811593
    27 11.481653 0.000064 0.000015 -1.183852 0.520525 0.156055
    28 3.854337 -0.127808 1.199996 1.185686 -0.224301 -1.641700
    29 1.312565 0.000000 -0.000002 0.122434 -0.179429 -0.573229
    30 0.729366 0.000004 0.000003 0.000000 -0.000110 -0.248950
    31 3.941984 0.050857 0.435164 -0.031435 -0.126224 -1.323235
    32 1.539099 0.000004 0.000002 -0.245476 0.386205 -0.367027
    33 1.196320 0.000008 0.000004 0.000000 -0.000162 -0.332870
    34 3.880859 -0.047028 -0.427490 0.125580 0.221647 -0.416549
    35 1.719571 0.000019 0.000015 -0.311136 -0.043741 -1.054644
    36 1.209175 0.000004 0.000003 0.172210 -0.116519 -0.543375
    37 3.863496 -0.144303 -1.324347 -0.140931 0.635656 -0.478501
    38 1.719421 -0.000008 -0.000008 -0.054172 0.007217 -0.477935
    39 1.099667 -0.000004 0.000000 0.155702 -0.327150 -0.859107
    40 0.811503 -0.358881 -1.312776 1.243202 0.551772 -0.740648
    41 1.789776 0.000000 0.000002 -0.000008 0.003711 0.228604
    42 1.207008 0.000007 0.000000 0.000000 0.005667 0.362991
    43 3.775391 -5.484375 -0.527832 -2.248284 -0.133216 -1.641882
  time 10
    0 -0.000003 -13.531250 -29.421875 1.570788 0.000007 -0.000007
    1 0.000000 3.345131 -2.981898 1.570789 0.086301 1.570789
    2 4.015625 0.000001 0.000000 0.000000 0.000000 -0.029241
    3 3.520294 0.000014 -0.000001 0.000000 0.000000 0.100332
    4 8.929688 0.000000 0.000000 0.000000 0.000000 0.194095
    5 2.035156 0.997070 1.937500 1.596487 -1.284993 2.943127
    6 6.028151 -0.000031 0.000004 -1.554926 -0.838909 -0.853918
    7 11.692549 0.000005 0.000011 0.048572 0.192796 -1.761394
    8 11.481670 0.000049 -0.000031 1.238153 -0.584038 0.230134
    9 3.858219 -0.135628 -1.192198 -0.462168 -0.183015 -1.143494
    10 1.312561 -0.000008 0.000000 0.000000 0.054403 -0.409014
    11 0.729362 0.000004 -0.000003 -0.000002 0.040753 -0.240990
    12 3.938059 0.050857 -0.435178 -0.058906 -0.190477 -1.052198
    13 1.539095 0.000004 -0.000002 0.000000 0.003735 -0.247814
    14 1.196325 0.000000 -0.000004 -0.000001 0.006169 -0.430818
    15 3.880859 -0.043091 0.427490 -0.476763 -0.093580 -0.824965
    16 1.719580 0.000011 -0.000015 -0.039460 -0.167701 -0.315837
    17 1.209179 -0.000004 0.000000 0.312038 0.209821 -0.320126
    18 3.863281 -0.136475 1.332031 0.316547 -0.532806 -0.147558
    19 1.719426 -0.000004 0.000007 -0.008714 -0.308204 -1.257834
    20 1.099669 -0.000004 0.000000 -0.000002 0.002587 -0.283860
    21 0.807581 -0.343248 1.320585 -1.197390 -0.475295 -0.937730
    22 1.789783 0.000002 0.000006 -0.000002 -0.003712 0.228604
    23 1.207008 0.000009 -0.000002 0.068240 -0.043107 0.237799
    24 2.035156 0.997070 -1.937500 -1.667267 1.282923 2.944210
    25 6.028140 -0.000004 0.000001 1.564091 0.793322 -0.843539
    26 11.692560 0.000021 -0.000004 -0.000400 -0.066958 -1.811861
    27 11.481653 0.000064 0.000015 -1.183866 0.520525 0.156055
    28 3.854337 -0.127808 1.199996 1.185686 -0.224301 -1.641700
    29 1.312565 0.000000 -0.000002 0.122434 -0.179429 -0.573229
    30 0.729366 0.000004 0.000003 0.000000 -0.000110 -0.248950
    31 3.941984 0.050857 0.435164 -0.031435 -0.126224 -1.323235
    32 1.539099 0.000004 0.000002 -0.245476 0.386205 -0.367027
    33 1.196320 0.000008 0.000004 0.000000 -0.000162 -0.332870
    34 3.880859 -0.047028 -0.427490 0.125580 0.221647 -0.416549
    35 1.719571 0.000019 0.000015 -0.311136 -0.043741 -1.054644
    36 1.209175 0.000004 0.000003 0.172210 -0.116519 -0.543375
    37 3.863496 -0.144303 -1.324347 -0.141183 0.635557 -0.478969
    38 1.719421 -0.000008 -0.000008 -0.053154 0.007014 -0.456878
    39 1.099667 -0.000004 0.000000 0.156661 -0.327972 -0.880113
    40 0.807596 -0.358881 -1.312776 1.243202 0.551772 -0.740648
    41 1.789776 0.000000 0.000002 -0.000008 0.003711 0.228604
    42 1.207008 0.000007 0.000000 0.000000 0.005667 0.362991
    43 3.775391 -5.484375 -0.527832 -2.248284 -0.133216 -1.641882
  time 11
    0 -0.000003 -13.531250 -29.421875 1.570788 0.000007 -0.000007
    1 0.000000 3.345131 -2.981898 1.570789 0.086301 1.570789
    2 4.015625 0.000001 0.000000 0.000000 0.000000 -0.029241
    3 3.520294 0.000014 -0.000001 0.000000 0.000000 0.100332
    4 8.929688 0.000000 0.000000 0.000000 0.000000 0.194095
    5 2.035156 0.997070 1.937500 1.596487 -1.284993 2.943127
    6 6.028151 -0.000031 0.000004 -1.554965 -0.838975 -0.853906
    7 11.692549 0.000005 0.000011 0.048560 0.192772 -1.761500
    8 11.481670 0.000049 -0.000031 1.238153 -0.584038 0.230134
    9 3.858219 -0.135628 -1.192198 -0.462168 -0.183015 -1.143494
    10 1.312561 -0.000008 0.000000 0.000000 0.054403 -0.409014
    11 0.729362 0.000004 -0.000003 -0.000002 0.040753 -0.240990
    12 3.938059 0.050857 -0.435178 -0.058906 -0.190477 -1.052198
    13 1.539095 0.000004 -0.000002 0.000000 0.003735 -0.247814
    14 1.196325 0.000000 -0.000004 -0.000001 0.006169 -0.430818
    15 3.880859 -0.043091 0.427490 -0.476763 -0.093580 -0.824965
    16 1.719580 0.000011 -0.000015 -0.039460 -0.167701 -0.315837
    17 1.209179 -0.000004 0.000000 0.312038 0.209821 -0.320126
    18 3.863281 -0.136475 1.332031 0.316547 -0.532806 -0.147558
    19 1.719426 -0.000004 0.000007 -0.008714 -0.308204 -1.257834
    20 1.099669 -0.000004 0.000000 -0.000002 0.002587 -0.283860
    21 0.807581 -0.343248 1.320585 -1.197390 -0.475295 -0.937730
    22 1.789783 0.000002 0.000006 -0.000002 -0.003712 0.228604
    23 1.207008 0.000009 -0.000002 0.068240 -0.043107 0.237799
    24 2.035156 0.997070 -1.937500 -1.667267 1.282923 2.944210
    25 6.028140 -0.000004 0.000001 1.564103 0.793322 -0.843527
    26 11.692560 0.000021 -0.000004 -0.000388 -0.066958 -1.811914
    27 11.481653 0.000064 0.000015 -1.183866 0.520525 0.156055
    28 3.854337 -0.131714 1.199996 1.185686 -0.224301 -1.641700
    29 1.312565 0.000000 -0.000002 0.122434 -0.179429 -0.573229
    30 0.729366 0.000004 0.000003 0.000000 -0.000110 -0.248950
    31 3.938077 0.050857 0.435164 -0.031435 -0.126224 -1.323235
    32 1.539099 0.000004 0.000002 -0.245476 0.386205 -0.367027
    33 1.196320 0.000008 0.000004 0.000000 -0.000162 -0.332870
    34 3.880859 -0.047028 -0.427490 0.125580 0.221647 -0.416549
    35 1.719571 0.000019 0.000015 -0.311136 -0.043741 -1.054644
    36 1.209175 0.000004 0.000003 0.172210 -0.116519 -0.543375
    37 3.863496 -0.144303 -1.324347 -0.141219 0.635538 -0.479029
    38 1.719421 -0.000008 -0.000008 -0.052806 0.006930 -0.449855
    39 1.099667 -0.000004 0.000000 0.156984 -0.328267 -0.887108
    40 0.811503 -0.358881 -1.312776 1.243202 0.551772 -0.740648
    41 1.789776 0.000000 0.000002 -0.000008 0.003711 0.228604
    42 1.207008 0.000007 0.000000 0.000000 0.005667 0.362991
    43 3.775391 -5.484375 -0.527832 -2.248284 -0.133216 -1.641882
end
