// Created by Crowbar 0.74
version 1
nodes
  0 "moustrap_base" -1
  1 "bracket1" 0
  2 "spring" 0
  3 "snapper" 0
  4 "snapper_lip" 3
  5 "snapper_pin" 0
  6 "bracket4" 0
  7 "bracket5" 0
  8 "cheeze" 0
end
skeleton
  time 0
    0 0.000000 0.000000 0.000000 1.570795 0.000000 -1.570796
    1 0.000000 0.000000 0.000000 0.000000 0.000000 0.000000
    2 0.000000 0.000000 0.000000 0.000000 0.000000 0.000000
    3 0.000000 0.000000 0.000000 0.000000 0.000000 0.000000
    4 0.000000 0.000000 0.000000 0.000000 0.000000 0.000000
    5 0.000000 0.000000 0.000000 0.000000 0.000000 0.000000
    6 0.000000 0.000000 0.000000 0.000000 0.000000 0.000000
    7 0.000000 0.000000 0.000000 0.000000 0.000000 0.000000
    8 0.000000 0.000000 0.000000 0.000000 0.000000 0.000000
end
