// Created by Crowbar 0.74
version 1
nodes
  0 "moustrap_base" -1
  1 "bracket1" 0
  2 "spring" 0
  3 "snapper" 0
  4 "snapper_lip" 3
  5 "snapper_pin" 0
  6 "bracket4" 0
  7 "bracket5" 0
  8 "cheeze" 0
end
skeleton
  time 0
    0 0.000000 0.000000 0.000000 1.570795 0.000000 -1.570796
    1 0.000000 0.000000 0.000000 0.000000 0.000000 0.000000
    2 0.000000 0.000000 0.000000 0.000000 0.000000 0.000000
    3 0.000000 0.000000 0.000000 0.000000 0.000000 0.000000
    4 0.000000 0.000000 0.000000 0.000000 0.000000 0.000000
    5 0.000000 0.000000 0.000000 0.000000 0.000000 0.000000
    6 0.000000 0.000000 0.000000 0.000000 0.000000 0.000000
    7 0.000000 0.000000 0.000000 0.000000 0.000000 0.000000
    8 0.000000 0.000000 0.000000 0.000000 0.000000 0.000000
  time 1
    0 0.000000 0.000000 0.000000 1.570795 0.000000 -1.570796
    1 0.000000 0.000000 0.000000 0.000000 0.000000 0.000000
    2 0.000000 0.000000 0.000000 0.000000 0.000000 0.000000
    3 -0.285165 0.136723 0.000000 0.000000 0.000000 -0.386047
    4 0.000000 0.000000 0.000000 0.000000 0.000000 0.000000
    5 -5.882992 7.687735 0.000000 0.000000 0.000000 1.580110
    6 0.000000 0.000000 0.000000 0.000000 0.000000 0.000000
    7 0.000000 0.000000 0.000000 0.000000 0.000000 0.000000
    8 -0.121097 0.140629 0.000000 0.000000 0.000000 -0.163122
  time 2
    0 0.000000 0.000000 0.000000 1.570795 0.000000 -1.570796
    1 0.000000 0.000000 0.000000 0.000000 0.000000 0.000000
    2 0.000000 0.000000 0.000000 0.000000 0.000000 0.000000
    3 -0.476577 1.257851 0.000000 0.000000 0.000000 -1.925036
    4 0.000000 0.000000 0.000000 0.000000 0.000000 0.000000
    5 -13.547288 1.687551 0.000000 0.000000 0.000000 -3.114597
    6 0.000000 0.000000 0.000000 0.000000 0.000000 0.000000
    7 0.000000 0.000000 0.000000 0.000000 0.000000 0.000000
    8 -0.156255 0.199225 0.000000 0.000000 0.000000 -0.222913
  time 3
    0 0.000000 0.000000 0.000000 1.570795 0.000000 -1.570796
    1 0.000000 0.000000 0.000000 0.000000 0.000000 0.000000
    2 0.000000 0.000000 0.000000 0.000000 0.000000 0.000000
    3 0.382824 1.605518 0.000000 0.000000 0.000000 -3.097450
    4 0.000000 0.000000 0.000000 0.000000 0.000000 0.000000
    5 -13.367595 2.668050 0.000000 0.000000 0.000000 3.022588
    6 0.000000 0.000000 0.000000 0.000000 0.000000 0.000000
    7 0.000000 0.000000 0.000000 0.000000 0.000000 0.000000
    8 -0.156255 0.199225 0.000000 0.000000 0.000000 -0.222913
  time 4
    0 0.000000 0.000000 0.000000 1.570795 0.000000 -1.570796
    1 0.000000 0.000000 0.000000 0.000000 0.000000 0.000000
    2 0.000000 0.000000 0.000000 0.000000 0.000000 0.000000
    3 0.382824 1.605518 0.000000 0.000000 0.000000 -3.097450
    4 0.000000 0.000000 0.000000 0.000000 0.000000 0.000000
    5 -12.074587 5.226722 0.000000 0.000000 0.000000 2.599521
    6 0.000000 0.000000 0.000000 0.000000 0.000000 0.000000
    7 0.000000 0.000000 0.000000 0.000000 0.000000 0.000000
    8 -0.156255 0.199225 0.000000 0.000000 0.000000 -0.222913
  time 5
    0 0.000000 0.000000 0.000000 1.570795 0.000000 -1.570796
    1 0.000000 0.000000 0.000000 0.000000 0.000000 0.000000
    2 0.000000 0.000000 0.000000 0.000000 0.000000 0.000000
    3 0.382824 1.605518 0.000000 0.000000 0.000000 -3.097450
    4 0.000000 0.000000 0.000000 0.000000 0.000000 0.000000
    5 -11.090182 6.215033 0.000000 0.000000 0.000000 2.395069
    6 0.000000 0.000000 0.000000 0.000000 0.000000 0.000000
    7 0.000000 0.000000 0.000000 0.000000 0.000000 0.000000
    8 -0.156255 0.199225 0.000000 0.000000 0.000000 -0.222913
  time 6
    0 0.000000 0.000000 0.000000 1.570795 0.000000 -1.570796
    1 0.000000 0.000000 0.000000 0.000000 0.000000 0.000000
    2 0.000000 0.000000 0.000000 0.000000 0.000000 0.000000
    3 0.382824 1.605518 0.000000 0.000000 0.000000 -3.097450
    4 0.000000 0.000000 0.000000 0.000000 0.000000 0.000000
    5 -10.875332 6.386914 0.000000 0.000000 0.000000 2.354482
    6 0.000000 0.000000 0.000000 0.000000 0.000000 0.000000
    7 0.000000 0.000000 0.000000 0.000000 0.000000 0.000000
    8 -0.156255 0.199225 0.000000 0.000000 0.000000 -0.222913
  time 7
    0 0.000000 0.000000 0.000000 1.570795 0.000000 -1.570796
    1 0.000000 0.000000 0.000000 0.000000 0.000000 0.000000
    2 0.000000 0.000000 0.000000 0.000000 0.000000 0.000000
    3 0.382824 1.605518 0.000000 0.000000 0.000000 -3.097450
    4 0.000000 0.000000 0.000000 0.000000 0.000000 0.000000
    5 -11.644887 5.695486 0.238289 -0.227449 -0.000072 2.499053
    6 0.000000 0.000000 0.000000 0.000000 0.000000 0.000000
    7 0.000000 0.000000 0.000000 0.000000 0.000000 0.000000
    8 -0.156255 0.199225 0.000000 0.000000 0.000000 -0.222913
  time 8
    0 0.000000 0.000000 0.000000 1.570795 0.000000 -1.570796
    1 0.000000 0.000000 0.000000 0.000000 0.000000 0.000000
    2 0.000000 0.000000 0.000000 0.000000 0.000000 0.000000
    3 0.382824 1.605518 0.000000 0.000000 0.000000 -3.097450
    4 0.000000 0.000000 0.000000 0.000000 0.000000 0.000000
    5 -12.820704 4.043092 0.457045 -0.453846 0.000000 2.783918
    6 0.000000 0.000000 0.000000 0.000000 0.000000 0.000000
    7 0.000000 0.000000 0.000000 0.000000 0.000000 0.000000
    8 -0.156255 0.199225 0.000000 0.000000 0.000000 -0.222913
  time 9
    0 0.000000 0.000000 0.000000 1.570795 0.000000 -1.570796
    1 0.000000 0.000000 0.000000 0.000000 0.000000 0.000000
    2 0.000000 0.000000 0.000000 0.000000 0.000000 0.000000
    3 0.382824 1.605518 0.000000 0.000000 0.000000 -3.097450
    4 0.000000 0.000000 0.000000 0.000000 0.000000 0.000000
    5 -13.453536 2.117252 0.652364 -0.680742 0.000000 3.063460
    6 0.000000 0.000000 0.000000 0.000000 0.000000 0.000000
    7 0.000000 0.000000 0.000000 0.000000 0.000000 0.000000
    8 -0.156255 0.199225 0.000000 0.000000 0.000000 -0.222913
  time 10
    0 0.000000 0.000000 0.000000 1.570795 0.000000 -1.570796
    1 0.000000 0.000000 0.000000 0.000000 0.000000 0.000000
    2 0.000000 0.000000 0.000000 0.000000 0.000000 0.000000
    3 0.382824 1.605518 0.000000 0.000000 0.000000 -3.097450
    4 0.000000 0.000000 0.000000 0.000000 0.000000 0.000000
    5 -13.539476 1.097690 0.816431 -0.907692 0.000000 -3.093591
    6 0.000000 0.000000 0.000000 0.000000 0.000000 0.000000
    7 0.000000 0.000000 0.000000 0.000000 0.000000 0.000000
    8 -0.156255 0.199225 0.000000 0.000000 0.000000 -0.222913
  time 11
    0 0.000000 0.000000 0.000000 1.570795 0.000000 -1.570796
    1 0.000000 0.000000 0.000000 0.000000 0.000000 0.000000
    2 0.000000 0.000000 0.000000 0.000000 0.000000 0.000000
    3 0.382824 1.605518 0.000000 0.000000 0.000000 -3.097450
    4 0.000000 0.000000 0.000000 0.000000 0.000000 0.000000
    5 -13.539476 1.097690 0.816431 -0.907692 0.000000 -3.093591
    6 0.000000 0.000000 0.000000 0.000000 0.000000 0.000000
    7 0.000000 0.000000 0.000000 0.000000 0.000000 0.000000
    8 -0.156255 0.199225 0.000000 0.000000 0.000000 -0.222913
  time 12
    0 0.000000 0.000000 0.000000 1.570795 0.000000 -1.570796
    1 0.000000 0.000000 0.000000 0.000000 0.000000 0.000000
    2 0.000000 0.000000 0.000000 0.000000 0.000000 0.000000
    3 0.382824 1.605518 0.000000 0.000000 0.000000 -3.097450
    4 0.000000 0.000000 0.000000 0.000000 0.000000 0.000000
    5 -13.539476 1.097690 0.816431 -0.907692 0.000000 -3.093591
    6 0.000000 0.000000 0.000000 0.000000 0.000000 0.000000
    7 0.000000 0.000000 0.000000 0.000000 0.000000 0.000000
    8 -0.156255 0.199225 0.000000 0.000000 0.000000 -0.222913
  time 13
    0 0.000000 0.000000 0.000000 1.570795 0.000000 -1.570796
    1 0.000000 0.000000 0.000000 0.000000 0.000000 0.000000
    2 0.000000 0.000000 0.000000 0.000000 0.000000 0.000000
    3 0.382824 1.605518 0.000000 0.000000 0.000000 -3.097450
    4 0.000000 0.000000 0.000000 0.000000 0.000000 0.000000
    5 -13.539476 1.097690 0.816431 -0.907692 0.000000 -3.093591
    6 0.000000 0.000000 0.000000 0.000000 0.000000 0.000000
    7 0.000000 0.000000 0.000000 0.000000 0.000000 0.000000
    8 -0.156255 0.199225 0.000000 0.000000 0.000000 -0.222913
  time 14
    0 0.000000 0.000000 0.000000 1.570795 0.000000 -1.570796
    1 0.000000 0.000000 0.000000 0.000000 0.000000 0.000000
    2 0.000000 0.000000 0.000000 0.000000 0.000000 0.000000
    3 0.382824 1.605518 0.000000 0.000000 0.000000 -3.097450
    4 0.000000 0.000000 0.000000 0.000000 0.000000 0.000000
    5 -13.539476 1.097690 0.816431 -0.907692 0.000000 -3.093591
    6 0.000000 0.000000 0.000000 0.000000 0.000000 0.000000
    7 0.000000 0.000000 0.000000 0.000000 0.000000 0.000000
    8 -0.156255 0.199225 0.000000 0.000000 0.000000 -0.222913
  time 15
    0 0.000000 0.000000 0.000000 1.570795 0.000000 -1.570796
    1 0.000000 0.000000 0.000000 0.000000 0.000000 0.000000
    2 0.000000 0.000000 0.000000 0.000000 0.000000 0.000000
    3 0.382824 1.605518 0.000000 0.000000 0.000000 -3.097450
    4 0.000000 0.000000 0.000000 0.000000 0.000000 0.000000
    5 -13.539476 1.097690 0.816431 -0.907692 0.000000 -3.093591
    6 0.000000 0.000000 0.000000 0.000000 0.000000 0.000000
    7 0.000000 0.000000 0.000000 0.000000 0.000000 0.000000
    8 -0.156255 0.199225 0.000000 0.000000 0.000000 -0.222913
  time 16
    0 0.000000 0.000000 0.000000 1.570795 0.000000 -1.570796
    1 0.000000 0.000000 0.000000 0.000000 0.000000 0.000000
    2 0.000000 0.000000 0.000000 0.000000 0.000000 0.000000
    3 0.382824 1.605518 0.000000 0.000000 0.000000 -3.097450
    4 0.000000 0.000000 0.000000 0.000000 0.000000 0.000000
    5 -13.539476 1.097690 0.816431 -0.907692 0.000000 -3.093591
    6 0.000000 0.000000 0.000000 0.000000 0.000000 0.000000
    7 0.000000 0.000000 0.000000 0.000000 0.000000 0.000000
    8 -0.156255 0.199225 0.000000 0.000000 0.000000 -0.222913
  time 17
    0 0.000000 0.000000 0.000000 1.570795 0.000000 -1.570796
    1 0.000000 0.000000 0.000000 0.000000 0.000000 0.000000
    2 0.000000 0.000000 0.000000 0.000000 0.000000 0.000000
    3 0.382824 1.605518 0.000000 0.000000 0.000000 -3.097450
    4 0.000000 0.000000 0.000000 0.000000 0.000000 0.000000
    5 -13.539476 1.097690 0.816431 -0.907692 0.000000 -3.093591
    6 0.000000 0.000000 0.000000 0.000000 0.000000 0.000000
    7 0.000000 0.000000 0.000000 0.000000 0.000000 0.000000
    8 -0.156255 0.199225 0.000000 0.000000 0.000000 -0.222913
  time 18
    0 0.000000 0.000000 0.000000 1.570795 0.000000 -1.570796
    1 0.000000 0.000000 0.000000 0.000000 0.000000 0.000000
    2 0.000000 0.000000 0.000000 0.000000 0.000000 0.000000
    3 0.382824 1.605518 0.000000 0.000000 0.000000 -3.097450
    4 0.000000 0.000000 0.000000 0.000000 0.000000 0.000000
    5 -13.539476 1.097690 0.816431 -0.907692 0.000000 -3.093591
    6 0.000000 0.000000 0.000000 0.000000 0.000000 0.000000
    7 0.000000 0.000000 0.000000 0.000000 0.000000 0.000000
    8 -0.156255 0.199225 0.000000 0.000000 0.000000 -0.222913
  time 19
    0 0.000000 0.000000 0.000000 1.570795 0.000000 -1.570796
    1 0.000000 0.000000 0.000000 0.000000 0.000000 0.000000
    2 0.000000 0.000000 0.000000 0.000000 0.000000 0.000000
    3 0.382824 1.605518 0.000000 0.000000 0.000000 -3.097450
    4 0.000000 0.000000 0.000000 0.000000 0.000000 0.000000
    5 -13.539476 1.097690 0.816431 -0.907692 0.000000 -3.093591
    6 0.000000 0.000000 0.000000 0.000000 0.000000 0.000000
    7 0.000000 0.000000 0.000000 0.000000 0.000000 0.000000
    8 -0.156255 0.199225 0.000000 0.000000 0.000000 -0.222913
  time 20
    0 0.000000 0.000000 0.000000 1.570795 0.000000 -1.570796
    1 0.000000 0.000000 0.000000 0.000000 0.000000 0.000000
    2 0.000000 0.000000 0.000000 0.000000 0.000000 0.000000
    3 0.382824 1.605518 0.000000 0.000000 0.000000 -3.097450
    4 0.000000 0.000000 0.000000 0.000000 0.000000 0.000000
    5 -13.539476 1.097690 0.816431 -0.907692 0.000000 -3.093591
    6 0.000000 0.000000 0.000000 0.000000 0.000000 0.000000
    7 0.000000 0.000000 0.000000 0.000000 0.000000 0.000000
    8 -0.156255 0.199225 0.000000 0.000000 0.000000 -0.222913
  time 21
    0 0.000000 0.000000 0.000000 1.570795 0.000000 -1.570796
    1 0.000000 0.000000 0.000000 0.000000 0.000000 0.000000
    2 0.000000 0.000000 0.000000 0.000000 0.000000 0.000000
    3 0.382824 1.605518 0.000000 0.000000 0.000000 -3.097450
    4 0.000000 0.000000 0.000000 0.000000 0.000000 0.000000
    5 -13.539476 1.097690 0.816431 -0.907692 0.000000 -3.093591
    6 0.000000 0.000000 0.000000 0.000000 0.000000 0.000000
    7 0.000000 0.000000 0.000000 0.000000 0.000000 0.000000
    8 -0.156255 0.199225 0.000000 0.000000 0.000000 -0.222913
  time 22
    0 0.000000 0.000000 0.000000 1.570795 0.000000 -1.570796
    1 0.000000 0.000000 0.000000 0.000000 0.000000 0.000000
    2 0.000000 0.000000 0.000000 0.000000 0.000000 0.000000
    3 0.382824 1.605518 0.000000 0.000000 0.000000 -3.097450
    4 0.000000 0.000000 0.000000 0.000000 0.000000 0.000000
    5 -13.539476 1.097690 0.816431 -0.907692 0.000000 -3.093591
    6 0.000000 0.000000 0.000000 0.000000 0.000000 0.000000
    7 0.000000 0.000000 0.000000 0.000000 0.000000 0.000000
    8 -0.156255 0.199225 0.000000 0.000000 0.000000 -0.222913
  time 23
    0 0.000000 0.000000 0.000000 1.570795 0.000000 -1.570796
    1 0.000000 0.000000 0.000000 0.000000 0.000000 0.000000
    2 0.000000 0.000000 0.000000 0.000000 0.000000 0.000000
    3 0.382824 1.605518 0.000000 0.000000 0.000000 -3.097450
    4 0.000000 0.000000 0.000000 0.000000 0.000000 0.000000
    5 -13.539476 1.097690 0.816431 -0.907692 0.000000 -3.093591
    6 0.000000 0.000000 0.000000 0.000000 0.000000 0.000000
    7 0.000000 0.000000 0.000000 0.000000 0.000000 0.000000
    8 -0.156255 0.199225 0.000000 0.000000 0.000000 -0.222913
end
