// Created by Crowbar 0.74
version 1
nodes
  0 "ValveBiped.Bip01" -1
  1 "ValveBiped.Bip01_Spine" 0
  2 "ValveBiped.Bip01_Spine1" 1
  3 "ValveBiped.Bip01_Spine2" 2
  4 "ValveBiped.Bip01_Spine4" 3
  5 "ValveBiped.Bip01_L_Clavicle" 4
  6 "ValveBiped.Bip01_L_UpperArm" 5
  7 "ValveBiped.Bip01_L_Forearm" 6
  8 "ValveBiped.Bip01_L_Hand" 7
  9 "ValveBiped.Bip01_L_Finger4" 8
  10 "ValveBiped.Bip01_L_Finger41" 9
  11 "ValveBiped.Bip01_L_Finger42" 10
  12 "ValveBiped.Bip01_L_Finger3" 8
  13 "ValveBiped.Bip01_L_Finger31" 12
  14 "ValveBiped.Bip01_L_Finger32" 13
  15 "ValveBiped.Bip01_L_Finger2" 8
  16 "ValveBiped.Bip01_L_Finger21" 15
  17 "ValveBiped.Bip01_L_Finger22" 16
  18 "ValveBiped.Bip01_L_Finger1" 8
  19 "ValveBiped.Bip01_L_Finger11" 18
  20 "ValveBiped.Bip01_L_Finger12" 19
  21 "ValveBiped.Bip01_L_Finger0" 8
  22 "ValveBiped.Bip01_L_Finger01" 21
  23 "ValveBiped.Bip01_L_Finger02" 22
  24 "ValveBiped.Bip01_R_Clavicle" 4
  25 "ValveBiped.Bip01_R_UpperArm" 24
  26 "ValveBiped.Bip01_R_Forearm" 25
  27 "ValveBiped.Bip01_R_Hand" 26
  28 "ValveBiped.Bip01_R_Finger4" 27
  29 "ValveBiped.Bip01_R_Finger41" 28
  30 "ValveBiped.Bip01_R_Finger42" 29
  31 "ValveBiped.Bip01_R_Finger3" 27
  32 "ValveBiped.Bip01_R_Finger31" 31
  33 "ValveBiped.Bip01_R_Finger32" 32
  34 "ValveBiped.Bip01_R_Finger2" 27
  35 "ValveBiped.Bip01_R_Finger21" 34
  36 "ValveBiped.Bip01_R_Finger22" 35
  37 "ValveBiped.Bip01_R_Finger1" 27
  38 "ValveBiped.Bip01_R_Finger11" 37
  39 "ValveBiped.Bip01_R_Finger12" 38
  40 "ValveBiped.Bip01_R_Finger0" 27
  41 "ValveBiped.Bip01_R_Finger01" 40
  42 "ValveBiped.Bip01_R_Finger02" 41
  43 "ValveBiped.Camera" 27
end
skeleton
  time 0
    0 -0.000003 -13.531250 -29.421875 1.570788 0.000007 -0.000007
    1 0.000000 3.345131 -2.981898 1.570789 0.086301 1.570789
    2 4.015625 0.000003 0.000000 0.000000 0.000000 -0.029241
    3 3.520294 0.000005 -0.000006 0.000000 0.000000 0.100332
    4 8.929688 0.000001 0.000000 0.000000 0.000000 0.194095
    5 2.035156 0.997070 1.937500 1.596487 -1.284993 2.943127
    6 6.028159 -0.000069 0.000009 -1.515842 -0.850478 -0.883018
    7 12.188675 0.312555 -0.257809 -0.280969 0.544745 -0.926313
    8 11.481682 0.000088 -0.000031 1.230761 -0.562402 0.146359
    9 3.858219 -0.135628 -1.192206 -0.251095 0.104185 -0.118801
    10 1.312565 -0.000008 0.000000 -0.000002 0.054404 -0.409012
    11 0.729366 0.000002 -0.000002 -0.000001 0.040754 -0.240990
    12 3.938059 0.050853 -0.435186 -0.379709 -0.016674 -0.393832
    13 1.539091 0.000008 -0.000002 0.153287 0.085275 -0.278802
    14 1.196321 0.000000 -0.000002 0.180294 0.096657 -0.752368
    15 3.880859 -0.043091 0.427490 0.173079 -0.231527 -0.230358
    16 1.719578 0.000023 -0.000021 -0.117992 -0.078122 -0.544672
    17 1.209181 -0.000004 -0.000001 0.107099 -0.099114 -1.066322
    18 3.863479 -0.132591 1.332139 0.122645 -0.490081 0.180207
    19 1.719431 -0.000023 0.000019 -0.064567 -0.187936 -1.115688
    20 1.099676 0.000000 0.000006 -0.031266 0.008359 -0.587033
    21 0.807586 -0.343252 1.320583 -1.342788 -0.268033 -0.682746
    22 1.789787 0.000006 0.000006 0.075450 -0.418764 0.038983
    23 1.207012 0.000011 0.000000 0.091043 0.020179 0.085889
    24 2.035156 0.997070 -1.937500 -1.667267 1.282923 2.944210
    25 6.028144 -0.000011 0.000002 1.564095 0.793333 -0.843532
    26 11.161311 -0.253913 -0.257817 0.274131 -0.416397 -0.910847
    27 11.481657 0.000043 0.000019 -1.183853 0.520532 0.156063
    28 3.858240 -0.131699 1.199994 0.887977 0.041686 -0.500120
    29 1.312567 0.000000 0.000000 -0.076006 -0.203868 -0.258727
    30 0.729362 0.000004 0.000003 -0.250341 -0.135455 -0.179419
    31 3.941981 0.050872 0.435162 0.216346 -0.007336 -0.093776
    32 1.539089 0.000008 0.000003 -0.605562 0.126574 -1.244849
    33 1.196316 0.000004 0.000005 0.000000 -0.000162 -0.332870
    34 3.880859 -0.047028 -0.427490 0.051056 0.262892 -0.068599
    35 1.719567 0.000023 0.000016 -0.461231 0.032293 -1.105404
    36 1.209175 0.000008 0.000005 0.175617 0.055179 -0.367832
    37 3.867399 -0.148186 -1.324350 -0.134961 0.400676 -0.397685
    38 1.719419 -0.000008 -0.000008 -0.082106 -0.002364 -0.236718
    39 1.099667 -0.000004 -0.000001 -0.188224 0.009145 -1.119518
    40 0.807129 -0.358887 -1.316406 1.243203 0.551773 -0.740643
    41 1.789783 -0.000002 -0.000002 -0.000009 0.003711 0.228604
    42 1.207001 0.000009 0.000000 -0.023897 -0.040066 0.269693
    43 3.772941 -5.489335 -0.527645 4.034818 -0.133223 -1.641906
  time 1
    0 -0.000003 -13.531250 -29.421875 1.570788 0.000007 -0.000007
    1 0.000000 3.345131 -2.981898 1.570789 0.086301 1.570789
    2 4.015625 0.000003 0.000000 0.000000 0.000000 -0.029241
    3 3.520294 0.000005 -0.000006 0.000000 0.000000 0.100332
    4 8.929688 0.000001 0.000000 0.000000 0.000000 0.194095
    5 2.035156 0.997070 1.937500 1.596487 -1.284993 2.943127
    6 6.028159 -0.000069 0.000009 -1.516388 -0.849611 -0.882610
    7 12.184768 0.308649 -0.257809 -0.277685 0.541071 -0.933431
    8 11.481682 0.000088 -0.000031 1.230761 -0.562402 0.146359
    9 3.858219 -0.135628 -1.192206 -0.251095 0.104185 -0.118801
    10 1.312565 -0.000008 0.000000 -0.000002 0.054404 -0.409012
    11 0.729366 0.000002 -0.000002 -0.000001 0.040754 -0.240990
    12 3.938059 0.050853 -0.435186 -0.379709 -0.016674 -0.393832
    13 1.539091 0.000008 -0.000002 0.153287 0.085275 -0.278802
    14 1.196321 0.000000 -0.000002 0.180294 0.096657 -0.752368
    15 3.880859 -0.043091 0.427490 0.173079 -0.231527 -0.230358
    16 1.719578 0.000023 -0.000021 -0.117992 -0.078122 -0.544672
    17 1.209181 -0.000004 -0.000001 0.107099 -0.099114 -1.066322
    18 3.863479 -0.132591 1.332139 0.122645 -0.490081 0.180207
    19 1.719431 -0.000023 0.000019 -0.064567 -0.187936 -1.115688
    20 1.099676 0.000000 0.000006 -0.031266 0.008359 -0.587033
    21 0.807586 -0.343252 1.320583 -1.342788 -0.268033 -0.682746
    22 1.789787 0.000006 0.000006 0.075450 -0.418764 0.038983
    23 1.207012 0.000011 0.000000 0.091043 0.020179 0.085889
    24 2.035156 0.997070 -1.937500 -1.667267 1.282923 2.944210
    25 6.028144 -0.000011 0.000002 1.564095 0.793333 -0.843532
    26 11.165218 -0.250006 -0.253910 0.272033 -0.413729 -0.917758
    27 11.481657 0.000043 0.000019 -1.183853 0.520532 0.156063
    28 3.858240 -0.131699 1.199994 0.887977 0.041686 -0.500120
    29 1.312567 0.000000 0.000000 -0.076006 -0.203868 -0.258727
    30 0.729362 0.000004 0.000003 -0.250341 -0.135455 -0.179419
    31 3.938074 0.050872 0.435162 0.216346 -0.007336 -0.093776
    32 1.539089 0.000008 0.000003 -0.605562 0.126574 -1.244849
    33 1.196316 0.000004 0.000005 0.000000 -0.000162 -0.332870
    34 3.880859 -0.047028 -0.427490 0.051056 0.262892 -0.068599
    35 1.719567 0.000023 0.000016 -0.461231 0.032293 -1.105404
    36 1.209175 0.000008 0.000005 0.175617 0.055179 -0.367832
    37 3.867399 -0.148186 -1.324350 -0.134961 0.400676 -0.397685
    38 1.719419 -0.000008 -0.000008 -0.082106 -0.002364 -0.236718
    39 1.099667 -0.000004 -0.000001 -0.188224 0.009145 -1.119518
    40 0.807129 -0.358887 -1.316406 1.243203 0.551773 -0.740643
    41 1.789783 -0.000002 -0.000002 -0.000009 0.003711 0.228604
    42 1.207001 0.000009 0.000000 -0.023897 -0.040066 0.269693
    43 3.772941 -5.489335 -0.527645 4.034818 -0.133223 -1.641906
  time 2
    0 -0.000003 -13.531250 -29.421875 1.570788 0.000007 -0.000007
    1 0.000000 3.345131 -2.981898 1.570789 0.086301 1.570789
    2 4.015625 0.000003 0.000000 0.000000 0.000000 -0.029241
    3 3.520294 0.000005 -0.000006 0.000000 0.000000 0.100332
    4 8.929688 0.000001 0.000000 0.000000 0.000000 0.194095
    5 2.035156 0.997070 1.937500 1.596487 -1.284993 2.943127
    6 6.028159 -0.000069 0.000009 -1.518024 -0.847043 -0.881376
    7 12.161330 0.296930 -0.246090 -0.266923 0.529084 -0.957508
    8 11.481682 0.000088 -0.000031 1.230761 -0.562402 0.146359
    9 3.858219 -0.135628 -1.192206 -0.251095 0.104185 -0.118801
    10 1.312565 -0.000008 0.000000 -0.000002 0.054404 -0.409012
    11 0.729366 0.000002 -0.000002 -0.000001 0.040754 -0.240990
    12 3.941966 0.050853 -0.435186 -0.379709 -0.016674 -0.393832
    13 1.539091 0.000008 -0.000002 0.153287 0.085275 -0.278802
    14 1.196321 0.000000 -0.000002 0.180294 0.096657 -0.752368
    15 3.880859 -0.043091 0.427490 0.173079 -0.231527 -0.230358
    16 1.719578 0.000023 -0.000021 -0.117992 -0.078122 -0.544672
    17 1.209181 -0.000004 -0.000001 0.107099 -0.099114 -1.066322
    18 3.863479 -0.132591 1.332139 0.122645 -0.490081 0.180207
    19 1.719431 -0.000023 0.000019 -0.064567 -0.187936 -1.115688
    20 1.099676 0.000000 0.000006 -0.031266 0.008359 -0.587033
    21 0.807586 -0.343252 1.320583 -1.342788 -0.268033 -0.682746
    22 1.789787 0.000006 0.000006 0.075450 -0.418764 0.038983
    23 1.207012 0.000011 0.000000 0.091043 0.020179 0.085889
    24 2.035156 0.997070 -1.937500 -1.667267 1.282923 2.944210
    25 6.028144 -0.000011 0.000002 1.564095 0.793333 -0.843532
    26 11.176937 -0.246100 -0.250004 0.265705 -0.405659 -0.938545
    27 11.481657 0.000043 0.000019 -1.183853 0.520532 0.156063
    28 3.858240 -0.131699 1.199994 0.887977 0.041686 -0.500120
    29 1.312567 0.000000 0.000000 -0.076006 -0.203868 -0.258727
    30 0.729362 0.000004 0.000003 -0.250341 -0.135455 -0.179419
    31 3.941981 0.050872 0.435162 0.216346 -0.007336 -0.093776
    32 1.539089 0.000008 0.000003 -0.605562 0.126574 -1.244849
    33 1.196316 0.000004 0.000005 0.000000 -0.000162 -0.332870
    34 3.880859 -0.047028 -0.427490 0.051056 0.262892 -0.068599
    35 1.719567 0.000023 0.000016 -0.461231 0.032293 -1.105404
    36 1.209175 0.000008 0.000005 0.175617 0.055179 -0.367832
    37 3.867399 -0.148186 -1.324350 -0.134961 0.400676 -0.397685
    38 1.719419 -0.000008 -0.000008 -0.082106 -0.002364 -0.236718
    39 1.099667 -0.000004 -0.000001 -0.188224 0.009145 -1.119518
    40 0.807129 -0.358887 -1.316406 1.243203 0.551773 -0.740643
    41 1.789783 -0.000002 -0.000002 -0.000009 0.003711 0.228604
    42 1.207001 0.000009 0.000000 -0.023897 -0.040066 0.269693
    43 3.772941 -5.489335 -0.527645 4.034818 -0.133223 -1.641906
  time 3
    0 -0.000003 -13.531250 -29.421875 1.570788 0.000007 -0.000007
    1 0.000000 3.345131 -2.981898 1.570789 0.086301 1.570789
    2 4.015625 0.000003 0.000000 0.000000 0.000000 -0.029241
    3 3.520294 0.000005 -0.000006 0.000000 0.000000 0.100332
    4 8.929688 0.000001 0.000000 0.000000 0.000000 0.194095
    5 2.035156 0.997070 1.937500 1.596487 -1.284993 2.943127
    6 6.028159 -0.000069 0.000009 -1.520676 -0.842836 -0.879386
    7 12.130079 0.277398 -0.230464 -0.249102 0.509234 -0.998806
    8 11.481682 0.000088 -0.000031 1.230761 -0.562402 0.146359
    9 3.858219 -0.135628 -1.192206 -0.251095 0.104185 -0.118801
    10 1.312565 -0.000008 0.000000 -0.000002 0.054404 -0.409012
    11 0.729366 0.000002 -0.000002 -0.000001 0.040754 -0.240990
    12 3.938059 0.050853 -0.435186 -0.379709 -0.016674 -0.393832
    13 1.539091 0.000008 -0.000002 0.153287 0.085275 -0.278802
    14 1.196321 0.000000 -0.000002 0.180294 0.096657 -0.752368
    15 3.880859 -0.043091 0.427490 0.173079 -0.231527 -0.230358
    16 1.719578 0.000023 -0.000021 -0.117992 -0.078122 -0.544672
    17 1.209181 -0.000004 -0.000001 0.107099 -0.099114 -1.066322
    18 3.867386 -0.132591 1.332139 0.122645 -0.490081 0.180207
    19 1.719431 -0.000023 0.000019 -0.064567 -0.187936 -1.115688
    20 1.099676 0.000000 0.000006 -0.031266 0.008359 -0.587033
    21 0.807586 -0.343252 1.320583 -1.342788 -0.268033 -0.682746
    22 1.789787 0.000006 0.000006 0.075450 -0.418764 0.038983
    23 1.207012 0.000011 0.000000 0.091043 0.020179 0.085889
    24 2.035156 0.997070 -1.937500 -1.667267 1.282923 2.944210
    25 6.028144 -0.000011 0.000002 1.564095 0.793333 -0.843532
    26 11.196468 -0.234381 -0.238285 0.255123 -0.392189 -0.973260
    27 11.481657 0.000043 0.000019 -1.183853 0.520532 0.156063
    28 3.858240 -0.131699 1.199994 0.887977 0.041686 -0.500120
    29 1.312567 0.000000 0.000000 -0.076006 -0.203868 -0.258727
    30 0.729362 0.000004 0.000003 -0.250341 -0.135455 -0.179419
    31 3.941981 0.050872 0.435162 0.216346 -0.007336 -0.093776
    32 1.539089 0.000008 0.000003 -0.605562 0.126574 -1.244849
    33 1.196316 0.000004 0.000005 0.000000 -0.000162 -0.332870
    34 3.880859 -0.047028 -0.427490 0.051056 0.262892 -0.068599
    35 1.719567 0.000023 0.000016 -0.461231 0.032293 -1.105404
    36 1.209175 0.000008 0.000005 0.175617 0.055179 -0.367832
    37 3.863493 -0.148186 -1.324350 -0.134961 0.400676 -0.397685
    38 1.719419 -0.000008 -0.000008 -0.082106 -0.002364 -0.236718
    39 1.099667 -0.000004 -0.000001 -0.188224 0.009145 -1.119518
    40 0.807129 -0.358887 -1.316406 1.243203 0.551773 -0.740643
    41 1.789783 -0.000002 -0.000002 -0.000009 0.003711 0.228604
    42 1.207001 0.000009 0.000000 -0.023897 -0.040066 0.269693
    43 3.772941 -5.489335 -0.527645 4.034818 -0.133223 -1.641906
  time 4
    0 -0.000003 -13.531250 -29.421875 1.570788 0.000007 -0.000007
    1 0.000000 3.345131 -2.981898 1.570789 0.086301 1.570789
    2 4.015625 0.000003 0.000000 0.000000 0.000000 -0.029241
    3 3.520294 0.000005 -0.000006 0.000000 0.000000 0.100332
    4 8.929688 0.000001 0.000000 0.000000 0.000000 0.194095
    5 2.035156 0.997070 1.937500 1.596487 -1.284993 2.943127
    6 6.028159 -0.000069 0.000009 -1.524119 -0.837346 -0.876822
    7 12.094922 0.253960 -0.210932 -0.227446 0.485079 -1.051356
    8 11.481682 0.000088 -0.000031 1.230761 -0.562402 0.146359
    9 3.858219 -0.135628 -1.192206 -0.251095 0.104185 -0.118801
    10 1.312565 -0.000008 0.000000 -0.000002 0.054404 -0.409012
    11 0.729366 0.000002 -0.000002 -0.000001 0.040754 -0.240990
    12 3.941966 0.050853 -0.435186 -0.379709 -0.016674 -0.393832
    13 1.539091 0.000008 -0.000002 0.153287 0.085275 -0.278802
    14 1.196321 0.000000 -0.000002 0.180294 0.096657 -0.752368
    15 3.880859 -0.043091 0.427490 0.173079 -0.231527 -0.230358
    16 1.719578 0.000023 -0.000021 -0.117992 -0.078122 -0.544672
    17 1.209181 -0.000004 -0.000001 0.107099 -0.099114 -1.066322
    18 3.863479 -0.132591 1.332139 0.122645 -0.490081 0.180207
    19 1.719431 -0.000023 0.000019 -0.064567 -0.187936 -1.115688
    20 1.099676 0.000000 0.000006 -0.031266 0.008359 -0.587033
    21 0.807586 -0.343252 1.320583 -1.342788 -0.268033 -0.682746
    22 1.789787 0.000006 0.000006 0.075450 -0.418764 0.038983
    23 1.207012 0.000011 0.000000 0.091043 0.020179 0.085889
    24 2.035156 0.997070 -1.937500 -1.667267 1.282923 2.944210
    25 6.028144 -0.000011 0.000002 1.564095 0.793333 -0.843532
    26 11.227719 -0.222662 -0.226566 0.240454 -0.373510 -1.021422
    27 11.481657 0.000043 0.000019 -1.183853 0.520532 0.156063
    28 3.854334 -0.131699 1.199994 0.887977 0.041686 -0.500120
    29 1.312567 0.000000 0.000000 -0.076006 -0.203868 -0.258727
    30 0.729362 0.000004 0.000003 -0.250341 -0.135455 -0.179419
    31 3.941981 0.050872 0.435162 0.216346 -0.007336 -0.093776
    32 1.539089 0.000008 0.000003 -0.605562 0.126574 -1.244849
    33 1.196316 0.000004 0.000005 0.000000 -0.000162 -0.332870
    34 3.880859 -0.047028 -0.427490 0.051056 0.262892 -0.068599
    35 1.719567 0.000023 0.000016 -0.461231 0.032293 -1.105404
    36 1.209175 0.000008 0.000005 0.175617 0.055179 -0.367832
    37 3.867399 -0.148186 -1.324350 -0.134961 0.400676 -0.397685
    38 1.719419 -0.000008 -0.000008 -0.082106 -0.002364 -0.236718
    39 1.099667 -0.000004 -0.000001 -0.188224 0.009145 -1.119518
    40 0.807129 -0.358887 -1.316406 1.243203 0.551773 -0.740643
    41 1.789783 -0.000002 -0.000002 -0.000009 0.003711 0.228604
    42 1.207001 0.000009 0.000000 -0.023897 -0.040066 0.269693
    43 3.772941 -5.489335 -0.527645 4.034818 -0.133223 -1.641906
  time 5
    0 -0.000003 -13.531250 -29.421875 1.570788 0.000007 -0.000007
    1 0.000000 3.345131 -2.981898 1.570789 0.086301 1.570789
    2 4.015625 0.000003 0.000000 0.000000 0.000000 -0.029241
    3 3.520294 0.000005 -0.000006 0.000000 0.000000 0.100332
    4 8.929688 0.000001 0.000000 0.000000 0.000000 0.194095
    5 2.035156 0.997070 1.937500 1.596487 -1.284993 2.943127
    6 6.028159 -0.000069 0.000009 -1.527956 -0.831116 -0.873969
    7 12.059765 0.230521 -0.191401 -0.205610 0.460707 -1.107048
    8 11.481682 0.000088 -0.000031 1.230761 -0.562402 0.146359
    9 3.854313 -0.135628 -1.192206 -0.251095 0.104185 -0.118801
    10 1.312565 -0.000008 0.000000 -0.000002 0.054404 -0.409012
    11 0.729366 0.000002 -0.000002 -0.000001 0.040754 -0.240990
    12 3.941966 0.050853 -0.435186 -0.379709 -0.016674 -0.393832
    13 1.539091 0.000008 -0.000002 0.153287 0.085275 -0.278802
    14 1.196321 0.000000 -0.000002 0.180294 0.096657 -0.752368
    15 3.880859 -0.043091 0.427490 0.173079 -0.231527 -0.230358
    16 1.719578 0.000023 -0.000021 -0.117992 -0.078122 -0.544672
    17 1.209181 -0.000004 -0.000001 0.107099 -0.099114 -1.066322
    18 3.863479 -0.132591 1.332139 0.122645 -0.490081 0.180207
    19 1.719431 -0.000023 0.000019 -0.064567 -0.187936 -1.115688
    20 1.099676 0.000000 0.000006 -0.031266 0.008359 -0.587033
    21 0.807586 -0.343252 1.320583 -1.342788 -0.268033 -0.682746
    22 1.789787 0.000006 0.000006 0.075450 -0.418764 0.038983
    23 1.207012 0.000011 0.000000 0.091043 0.020179 0.085889
    24 2.035156 0.997070 -1.937500 -1.667267 1.282923 2.944210
    25 6.028144 -0.000011 0.000002 1.564095 0.793333 -0.843532
    26 11.262877 -0.203130 -0.207034 0.221986 -0.350013 -1.082013
    27 11.481657 0.000043 0.000019 -1.183853 0.520532 0.156063
    28 3.854334 -0.131699 1.199994 0.887977 0.041686 -0.500120
    29 1.312567 0.000000 0.000000 -0.076006 -0.203868 -0.258727
    30 0.729362 0.000004 0.000003 -0.250341 -0.135455 -0.179419
    31 3.938074 0.050872 0.435162 0.216346 -0.007336 -0.093776
    32 1.539089 0.000008 0.000003 -0.605562 0.126574 -1.244849
    33 1.196316 0.000004 0.000005 0.000000 -0.000162 -0.332870
    34 3.880859 -0.047028 -0.427490 0.051056 0.262892 -0.068599
    35 1.719567 0.000023 0.000016 -0.461231 0.032293 -1.105404
    36 1.209175 0.000008 0.000005 0.175617 0.055179 -0.367832
    37 3.867399 -0.148186 -1.324350 -0.134961 0.400676 -0.397685
    38 1.719419 -0.000008 -0.000008 -0.082106 -0.002364 -0.236718
    39 1.099667 -0.000004 -0.000001 -0.188224 0.009145 -1.119518
    40 0.807129 -0.358887 -1.316406 1.243203 0.551773 -0.740643
    41 1.789783 -0.000002 -0.000002 -0.000009 0.003711 0.228604
    42 1.207001 0.000009 0.000000 -0.023897 -0.040066 0.269693
    43 3.772941 -5.489335 -0.527645 4.034818 -0.133223 -1.641886
  time 6
    0 -0.000003 -13.531250 -29.421875 1.570788 0.000007 -0.000007
    1 0.000000 3.345131 -2.981898 1.570789 0.086301 1.570789
    2 4.015625 0.000003 0.000000 0.000000 0.000000 -0.029241
    3 3.520294 0.000005 -0.000006 0.000000 0.000000 0.100332
    4 8.929688 0.000001 0.000000 0.000000 0.000000 0.194095
    5 2.035156 0.997070 1.937500 1.596487 -1.284993 2.943127
    6 6.028159 -0.000069 0.000009 -1.531737 -0.824887 -0.871165
    7 12.020701 0.207083 -0.171869 -0.181856 0.433974 -1.170747
    8 11.481682 0.000088 -0.000031 1.230761 -0.562402 0.146359
    9 3.858219 -0.135628 -1.192206 -0.251095 0.104185 -0.118801
    10 1.312565 -0.000008 0.000000 -0.000002 0.054404 -0.409012
    11 0.729366 0.000002 -0.000002 -0.000001 0.040754 -0.240990
    12 3.938059 0.050853 -0.435186 -0.379709 -0.016674 -0.393832
    13 1.539091 0.000008 -0.000002 0.153287 0.085275 -0.278802
    14 1.196321 0.000000 -0.000002 0.180294 0.096657 -0.752368
    15 3.880859 -0.043091 0.427490 0.173079 -0.231527 -0.230358
    16 1.719578 0.000023 -0.000021 -0.117992 -0.078122 -0.544672
    17 1.209181 -0.000004 -0.000001 0.107099 -0.099114 -1.066322
    18 3.863479 -0.132591 1.332139 0.122645 -0.490081 0.180207
    19 1.719431 -0.000023 0.000019 -0.064567 -0.187936 -1.115688
    20 1.099676 0.000000 0.000006 -0.031266 0.008359 -0.587033
    21 0.807586 -0.343252 1.320583 -1.342788 -0.268033 -0.682746
    22 1.789787 0.000006 0.000006 0.075450 -0.418764 0.038983
    23 1.207012 0.000011 0.000000 0.091043 0.020179 0.085889
    24 2.035156 0.997070 -1.937500 -1.667267 1.282923 2.944210
    25 6.028144 -0.000011 0.000002 1.564095 0.793333 -0.843532
    26 11.305847 -0.183598 -0.187502 0.200258 -0.322349 -1.153372
    27 11.481657 0.000043 0.000019 -1.183853 0.520532 0.156063
    28 3.854334 -0.131699 1.199994 0.887977 0.041686 -0.500120
    29 1.312567 0.000000 0.000000 -0.076006 -0.203868 -0.258727
    30 0.729362 0.000004 0.000003 -0.250341 -0.135455 -0.179419
    31 3.941981 0.050872 0.435162 0.216346 -0.007336 -0.093776
    32 1.539089 0.000008 0.000003 -0.605562 0.126574 -1.244879
    33 1.196316 0.000004 0.000005 0.000000 -0.000162 -0.332870
    34 3.880859 -0.047028 -0.427490 0.051056 0.262892 -0.068599
    35 1.719567 0.000023 0.000016 -0.461231 0.032293 -1.105404
    36 1.209175 0.000008 0.000005 0.175617 0.055179 -0.367832
    37 3.863493 -0.148186 -1.324350 -0.134961 0.400676 -0.397685
    38 1.719419 -0.000008 -0.000008 -0.082106 -0.002364 -0.236718
    39 1.099667 -0.000004 -0.000001 -0.188224 0.009145 -1.119518
    40 0.807129 -0.358887 -1.316406 1.243203 0.551773 -0.740643
    41 1.789783 -0.000002 -0.000002 -0.000009 0.003711 0.228604
    42 1.207001 0.000009 0.000000 -0.023897 -0.040066 0.269693
    43 3.772941 -5.489335 -0.527645 4.034818 -0.133223 -1.641906
  time 7
    0 -0.000003 -13.531250 -29.421875 1.570788 0.000007 -0.000007
    1 0.000000 3.345131 -2.981898 1.570789 0.086301 1.570789
    2 4.015625 0.000003 0.000000 0.000000 0.000000 -0.029241
    3 3.520294 0.000005 -0.000006 0.000000 0.000000 0.100332
    4 8.929688 0.000001 0.000000 0.000000 0.000000 0.194095
    5 2.035156 0.997070 1.937500 1.596487 -1.284993 2.943127
    6 6.028159 -0.000069 0.000009 -1.535028 -0.819364 -0.868732
    7 11.977731 0.179739 -0.148431 -0.153345 0.401888 -1.249573
    8 11.481682 0.000088 -0.000031 1.230761 -0.562402 0.146359
    9 3.858219 -0.135628 -1.192206 -0.251095 0.104185 -0.118801
    10 1.312565 -0.000008 0.000000 -0.000002 0.054404 -0.409012
    11 0.729366 0.000002 -0.000002 -0.000001 0.040754 -0.240990
    12 3.938059 0.050853 -0.435186 -0.379709 -0.016674 -0.393832
    13 1.539091 0.000008 -0.000002 0.153287 0.085275 -0.278802
    14 1.196321 0.000000 -0.000002 0.180294 0.096657 -0.752368
    15 3.880859 -0.043091 0.427490 0.173079 -0.231527 -0.230358
    16 1.719578 0.000023 -0.000021 -0.117992 -0.078122 -0.544672
    17 1.209181 -0.000004 -0.000001 0.107099 -0.099114 -1.066322
    18 3.863479 -0.132591 1.332139 0.122645 -0.490081 0.180207
    19 1.719431 -0.000023 0.000019 -0.064567 -0.187936 -1.115688
    20 1.099676 0.000000 0.000006 -0.031266 0.008359 -0.587033
    21 0.807586 -0.343252 1.320583 -1.342788 -0.268021 -0.682746
    22 1.789787 0.000006 0.000006 0.075450 -0.418764 0.038983
    23 1.207012 0.000011 0.000000 0.091043 0.020179 0.085889
    24 2.035156 0.997070 -1.937500 -1.667267 1.282923 2.944210
    25 6.028144 -0.000011 0.000002 1.564095 0.793333 -0.843532
    26 11.352723 -0.164066 -0.164064 0.175977 -0.291458 -1.233035
    27 11.481657 0.000043 0.000019 -1.183853 0.520532 0.156063
    28 3.854334 -0.131699 1.199994 0.887977 0.041686 -0.500120
    29 1.312567 0.000000 0.000000 -0.076006 -0.203868 -0.258727
    30 0.729362 0.000004 0.000003 -0.250341 -0.135455 -0.179419
    31 3.938074 0.050872 0.435162 0.216346 -0.007336 -0.093776
    32 1.539089 0.000008 0.000003 -0.605562 0.126574 -1.244849
    33 1.196316 0.000004 0.000005 0.000000 -0.000162 -0.332870
    34 3.880859 -0.047028 -0.427490 0.051056 0.262892 -0.068599
    35 1.719567 0.000023 0.000016 -0.461231 0.032293 -1.105404
    36 1.209175 0.000008 0.000005 0.175617 0.055179 -0.367832
    37 3.867399 -0.148186 -1.324350 -0.134961 0.400676 -0.397685
    38 1.719419 -0.000008 -0.000008 -0.082106 -0.002364 -0.236718
    39 1.099667 -0.000004 -0.000001 -0.188224 0.009145 -1.119518
    40 0.807129 -0.358887 -1.316406 1.243203 0.551773 -0.740643
    41 1.789783 -0.000002 -0.000002 -0.000009 0.003711 0.228604
    42 1.207001 0.000009 0.000000 -0.023897 -0.040066 0.269693
    43 3.772941 -5.489335 -0.527645 4.034818 -0.133223 -1.641906
  time 8
    0 -0.000003 -13.531250 -29.421875 1.570788 0.000007 -0.000007
    1 0.000000 3.345131 -2.981898 1.570789 0.086301 1.570789
    2 4.015625 0.000003 0.000000 0.000000 0.000000 -0.029241
    3 3.520294 0.000005 -0.000006 0.000000 0.000000 0.100332
    4 8.929688 0.000001 0.000000 0.000000 0.000000 0.194095
    5 2.035156 0.997070 1.937500 1.596487 -1.284993 2.943127
    6 6.028159 -0.000069 0.000009 -1.537530 -0.815158 -0.866898
    7 11.938667 0.156300 -0.128899 -0.124150 0.369603 -1.330022
    8 11.481682 0.000088 -0.000031 1.230761 -0.562402 0.146359
    9 3.858219 -0.139534 -1.192206 -0.251095 0.104185 -0.118801
    10 1.312565 -0.000008 0.000000 -0.000002 0.054404 -0.409012
    11 0.729366 0.000002 -0.000002 -0.000001 0.040754 -0.240990
    12 3.941966 0.050853 -0.435186 -0.379709 -0.016674 -0.393832
    13 1.539091 0.000008 -0.000002 0.153287 0.085275 -0.278802
    14 1.196321 0.000000 -0.000002 0.180294 0.096657 -0.752368
    15 3.880859 -0.043091 0.427490 0.173079 -0.231527 -0.230358
    16 1.719578 0.000023 -0.000021 -0.117992 -0.078122 -0.544672
    17 1.209181 -0.000004 -0.000001 0.107099 -0.099114 -1.066322
    18 3.863479 -0.132591 1.332139 0.122645 -0.490081 0.180207
    19 1.719431 -0.000023 0.000019 -0.064567 -0.187936 -1.115688
    20 1.099676 0.000000 0.000006 -0.031266 0.008359 -0.587033
    21 0.807586 -0.343252 1.320583 -1.342788 -0.268033 -0.682746
    22 1.789787 0.000006 0.000006 0.075450 -0.418764 0.038983
    23 1.207012 0.000011 0.000000 0.091043 0.020179 0.085889
    24 2.035156 0.997070 -1.937500 -1.667267 1.282923 2.944210
    25 6.028144 -0.000011 0.000002 1.564095 0.793333 -0.843532
    26 11.403506 -0.136722 -0.140625 0.150090 -0.258495 -1.318002
    27 11.481657 0.000043 0.000019 -1.183853 0.520532 0.156063
    28 3.858240 -0.131699 1.199994 0.887977 0.041686 -0.500120
    29 1.312567 0.000000 0.000000 -0.076006 -0.203868 -0.258727
    30 0.729362 0.000004 0.000003 -0.250341 -0.135455 -0.179419
    31 3.941981 0.050872 0.435162 0.216346 -0.007336 -0.093776
    32 1.539089 0.000008 0.000003 -0.605562 0.126574 -1.244849
    33 1.196316 0.000004 0.000005 0.000000 -0.000162 -0.332870
    34 3.880859 -0.047028 -0.427490 0.051056 0.262892 -0.068599
    35 1.719567 0.000023 0.000016 -0.461231 0.032293 -1.105426
    36 1.209175 0.000008 0.000005 0.175617 0.055179 -0.367832
    37 3.867399 -0.148186 -1.324350 -0.134961 0.400676 -0.397685
    38 1.719419 -0.000008 -0.000008 -0.082106 -0.002364 -0.236718
    39 1.099667 -0.000004 -0.000001 -0.188224 0.009145 -1.119518
    40 0.807129 -0.358887 -1.316406 1.243203 0.551773 -0.740643
    41 1.789783 -0.000002 -0.000002 -0.000009 0.003711 0.228604
    42 1.207001 0.000009 0.000000 -0.023897 -0.040066 0.269693
    43 3.772941 -5.489335 -0.527645 4.034818 -0.133223 -1.641906
  time 9
    0 -0.000003 -13.531250 -29.421875 1.570788 0.000007 -0.000007
    1 0.000000 3.345131 -2.981898 1.570789 0.086301 1.570789
    2 4.015625 0.000003 0.000000 0.000000 0.000000 -0.029241
    3 3.520294 0.000005 -0.000006 0.000000 0.000000 0.100332
    4 8.929688 0.000001 0.000000 0.000000 0.000000 0.194095
    5 2.035156 0.997070 1.937500 1.596487 -1.284993 2.943127
    6 6.028159 -0.000069 0.000009 -1.539054 -0.812557 -0.865784
    7 11.899603 0.132862 -0.109367 -0.092823 0.335937 -1.414815
    8 11.481682 0.000088 -0.000031 1.230761 -0.562402 0.146359
    9 3.854313 -0.135628 -1.192206 -0.251095 0.104185 -0.118801
    10 1.312565 -0.000008 0.000000 -0.000002 0.054404 -0.409012
    11 0.729366 0.000002 -0.000002 -0.000001 0.040754 -0.240990
    12 3.938059 0.050853 -0.435186 -0.379709 -0.016674 -0.393832
    13 1.539091 0.000008 -0.000002 0.153287 0.085275 -0.278802
    14 1.196321 0.000000 -0.000002 0.180294 0.096657 -0.752368
    15 3.880859 -0.043091 0.427490 0.173079 -0.231527 -0.230358
    16 1.719578 0.000023 -0.000021 -0.117992 -0.078122 -0.544672
    17 1.209181 -0.000004 -0.000001 0.107099 -0.099114 -1.066322
    18 3.863479 -0.132591 1.332139 0.122645 -0.490081 0.180207
    19 1.719431 -0.000023 0.000019 -0.064567 -0.187936 -1.115688
    20 1.099676 0.000000 0.000006 -0.031266 0.008359 -0.587033
    21 0.807586 -0.343252 1.316677 -1.342788 -0.268021 -0.682746
    22 1.789787 0.000006 0.000006 0.075450 -0.418764 0.038983
    23 1.207012 0.000011 0.000000 0.091043 0.020179 0.085889
    24 2.035156 0.997070 -1.937500 -1.667267 1.282923 2.944210
    25 6.028144 -0.000011 0.000002 1.564095 0.793333 -0.843532
    26 11.454289 -0.113284 -0.113281 0.123640 -0.224845 -1.404790
    27 11.481657 0.000043 0.000019 -1.183853 0.520532 0.156063
    28 3.854334 -0.131699 1.199994 0.887977 0.041686 -0.500120
    29 1.312567 0.000000 0.000000 -0.076006 -0.203868 -0.258727
    30 0.729362 0.000004 0.000003 -0.250341 -0.135455 -0.179419
    31 3.938074 0.050872 0.435162 0.216346 -0.007336 -0.093776
    32 1.539089 0.000008 0.000003 -0.605562 0.126574 -1.244849
    33 1.196316 0.000004 0.000005 0.000000 -0.000162 -0.332870
    34 3.880859 -0.047028 -0.427490 0.051056 0.262892 -0.068599
    35 1.719567 0.000023 0.000016 -0.461231 0.032293 -1.105404
    36 1.209175 0.000008 0.000005 0.175617 0.055179 -0.367832
    37 3.863493 -0.148186 -1.324350 -0.134961 0.400676 -0.397685
    38 1.719419 -0.000008 -0.000008 -0.082106 -0.002364 -0.236718
    39 1.099667 -0.000004 -0.000001 -0.188224 0.009145 -1.119518
    40 0.807129 -0.358887 -1.316406 1.243203 0.551773 -0.740643
    41 1.789783 -0.000002 -0.000002 -0.000009 0.003711 0.228604
    42 1.207001 0.000009 0.000000 -0.023897 -0.040066 0.269681
    43 3.772941 -5.489335 -0.527645 4.034818 -0.133223 -1.641906
  time 10
    0 -0.000003 -13.531250 -29.421875 1.570788 0.000007 -0.000007
    1 0.000000 3.345131 -2.981898 1.570789 0.086301 1.570789
    2 4.015625 0.000003 0.000000 0.000000 0.000000 -0.029241
    3 3.520294 0.000005 -0.000006 0.000000 0.000000 0.100332
    4 8.929688 0.000001 0.000000 0.000000 0.000000 0.194095
    5 2.035156 0.997070 1.937500 1.596487 -1.284993 2.943127
    6 6.028159 -0.000069 0.000009 -1.539562 -0.811690 -0.865412
    7 11.868353 0.109424 -0.089835 -0.065474 0.306877 -1.489768
    8 11.481682 0.000088 -0.000031 1.230761 -0.562402 0.146359
    9 3.854313 -0.135628 -1.192206 -0.251095 0.104185 -0.118801
    10 1.312565 -0.000008 0.000000 -0.000002 0.054404 -0.409012
    11 0.729366 0.000002 -0.000002 -0.000001 0.040754 -0.240990
    12 3.941966 0.050853 -0.435186 -0.379709 -0.016674 -0.393832
    13 1.539091 0.000008 -0.000002 0.153287 0.085275 -0.278802
    14 1.196321 0.000000 -0.000002 0.180294 0.096657 -0.752368
    15 3.880859 -0.043091 0.427490 0.173079 -0.231527 -0.230358
    16 1.719578 0.000023 -0.000021 -0.117992 -0.078122 -0.544672
    17 1.209181 -0.000004 -0.000001 0.107099 -0.099114 -1.066322
    18 3.863479 -0.132591 1.332139 0.122645 -0.490081 0.180207
    19 1.719431 -0.000023 0.000019 -0.064567 -0.187936 -1.115688
    20 1.099676 0.000000 0.000006 -0.031266 0.008359 -0.587033
    21 0.807586 -0.343252 1.320583 -1.342788 -0.268033 -0.682746
    22 1.789787 0.000006 0.000006 0.075450 -0.418764 0.038983
    23 1.207012 0.000011 0.000000 0.091043 0.020179 0.085889
    24 2.035156 0.997070 -1.937500 -1.667267 1.282923 2.944210
    25 6.028144 -0.000011 0.000002 1.564095 0.793333 -0.843532
    26 11.505072 -0.089845 -0.089843 0.097753 -0.191882 -1.489757
    27 11.481657 0.000043 0.000019 -1.183853 0.520532 0.156063
    28 3.854334 -0.131699 1.199994 0.887977 0.041686 -0.500120
    29 1.312567 0.000000 0.000000 -0.076006 -0.203868 -0.258727
    30 0.729362 0.000004 0.000003 -0.250341 -0.135455 -0.179419
    31 3.941981 0.050872 0.435162 0.216346 -0.007336 -0.093776
    32 1.539089 0.000008 0.000003 -0.605562 0.126574 -1.244849
    33 1.196316 0.000004 0.000005 0.000000 -0.000162 -0.332870
    34 3.880859 -0.047028 -0.427490 0.051056 0.262892 -0.068599
    35 1.719567 0.000023 0.000016 -0.461231 0.032293 -1.105404
    36 1.209175 0.000008 0.000005 0.175617 0.055179 -0.367832
    37 3.867399 -0.148186 -1.324350 -0.134961 0.400676 -0.397685
    38 1.719419 -0.000008 -0.000008 -0.082106 -0.002364 -0.236718
    39 1.099667 -0.000004 -0.000001 -0.188224 0.009145 -1.119518
    40 0.807129 -0.358887 -1.316406 1.243203 0.551773 -0.740643
    41 1.789783 -0.000002 -0.000002 -0.000009 0.003711 0.228604
    42 1.207001 0.000009 0.000000 -0.023897 -0.040066 0.269681
    43 3.772941 -5.489335 -0.527645 4.034818 -0.133223 -1.641906
  time 11
    0 -0.000003 -13.531250 -29.421875 1.570788 0.000007 -0.000007
    1 0.000000 3.345131 -2.981898 1.570789 0.086301 1.570789
    2 4.015625 0.000003 0.000000 0.000000 0.000000 -0.029241
    3 3.520294 0.000005 -0.000006 0.000000 0.000000 0.100332
    4 8.929688 0.000001 0.000000 0.000000 0.000000 0.194095
    5 2.035156 0.997070 1.937500 1.596487 -1.284993 2.943127
    6 6.028159 -0.000069 0.000009 -1.538527 -0.813456 -0.866167
    7 11.837102 0.089892 -0.074210 -0.043973 0.283769 -1.551060
    8 11.481682 0.000088 -0.000031 1.230761 -0.562402 0.146359
    9 3.858219 -0.135628 -1.192206 -0.251095 0.104185 -0.118801
    10 1.312565 -0.000008 0.000000 -0.000002 0.054404 -0.409012
    11 0.729366 0.000002 -0.000002 -0.000001 0.040754 -0.240990
    12 3.941966 0.050853 -0.435186 -0.379709 -0.016674 -0.393832
    13 1.539091 0.000008 -0.000002 0.153287 0.085275 -0.278802
    14 1.196321 0.000000 -0.000002 0.180294 0.096657 -0.752368
    15 3.880859 -0.043091 0.427490 0.173079 -0.231527 -0.230358
    16 1.719578 0.000023 -0.000021 -0.117992 -0.078122 -0.544672
    17 1.209181 -0.000004 -0.000001 0.107099 -0.099114 -1.066322
    18 3.863479 -0.132591 1.332139 0.122645 -0.490081 0.180207
    19 1.719431 -0.000023 0.000019 -0.064567 -0.187936 -1.115688
    20 1.099676 0.000000 0.000006 -0.031266 0.008359 -0.587033
    21 0.807586 -0.343252 1.320583 -1.342788 -0.268033 -0.682746
    22 1.789787 0.000006 0.000006 0.075450 -0.418764 0.038983
    23 1.207012 0.000011 0.000000 0.091043 0.020179 0.085889
    24 2.035156 0.997070 -1.937500 -1.667267 1.282923 2.944210
    25 6.028144 -0.000011 0.000002 1.564095 0.793333 -0.843532
    26 11.551948 -0.066407 -0.066404 0.073473 -0.160990 -1.569420
    27 11.481657 0.000043 0.000019 -1.183853 0.520532 0.156063
    28 3.858240 -0.131699 1.199994 0.887977 0.041686 -0.500120
    29 1.312567 0.000000 0.000000 -0.076006 -0.203868 -0.258727
    30 0.729362 0.000004 0.000003 -0.250341 -0.135455 -0.179419
    31 3.938074 0.050872 0.435162 0.216346 -0.007336 -0.093776
    32 1.539089 0.000008 0.000003 -0.605562 0.126574 -1.244849
    33 1.196316 0.000004 0.000005 0.000000 -0.000162 -0.332870
    34 3.880859 -0.047028 -0.427490 0.051056 0.262892 -0.068599
    35 1.719567 0.000023 0.000016 -0.461231 0.032293 -1.105404
    36 1.209175 0.000008 0.000005 0.175617 0.055179 -0.367832
    37 3.863493 -0.148186 -1.324350 -0.134961 0.400676 -0.397685
    38 1.719419 -0.000008 -0.000008 -0.082106 -0.002364 -0.236718
    39 1.099667 -0.000004 -0.000001 -0.188224 0.009145 -1.119518
    40 0.807129 -0.358887 -1.316406 1.243203 0.551773 -0.740643
    41 1.789783 -0.000002 -0.000002 -0.000009 0.003711 0.228604
    42 1.207001 0.000009 0.000000 -0.023897 -0.040066 0.269693
    43 3.772941 -5.489335 -0.527645 4.034818 -0.133223 -1.641906
  time 12
    0 -0.000003 -13.531250 -29.421875 1.570788 0.000007 -0.000007
    1 0.000000 3.345131 -2.981898 1.570789 0.086301 1.570789
    2 4.015625 0.000003 0.000000 0.000000 0.000000 -0.029241
    3 3.520294 0.000005 -0.000006 0.000000 0.000000 0.100332
    4 8.929688 0.000001 0.000000 0.000000 0.000000 0.194095
    5 2.035156 0.997070 1.937500 1.596487 -1.284993 2.943127
    6 6.028159 -0.000069 0.000009 -1.535442 -0.818690 -0.868432
    7 11.801944 0.066454 -0.054678 -0.023060 0.261226 -1.612300
    8 11.481682 0.000088 -0.000031 1.230761 -0.562402 0.146359
    9 3.858219 -0.135628 -1.192206 -0.251095 0.104185 -0.118801
    10 1.312565 -0.000008 0.000000 -0.000002 0.054404 -0.409012
    11 0.729366 0.000002 -0.000002 -0.000001 0.040754 -0.240990
    12 3.938059 0.050853 -0.435186 -0.379709 -0.016674 -0.393832
    13 1.539091 0.000008 -0.000002 0.153287 0.085275 -0.278802
    14 1.196321 0.000000 -0.000002 0.180294 0.096657 -0.752368
    15 3.880859 -0.043091 0.427490 0.173079 -0.231527 -0.230358
    16 1.719578 0.000023 -0.000021 -0.117992 -0.078122 -0.544672
    17 1.209181 -0.000004 -0.000001 0.107099 -0.099114 -1.066322
    18 3.863479 -0.132591 1.332139 0.122645 -0.490081 0.180207
    19 1.719431 -0.000023 0.000019 -0.064567 -0.187936 -1.115688
    20 1.099676 0.000000 0.000006 -0.031266 0.008359 -0.587033
    21 0.807586 -0.343252 1.320583 -1.342788 -0.268033 -0.682746
    22 1.789787 0.000006 0.000006 0.075450 -0.418764 0.038983
    23 1.207012 0.000011 0.000000 0.091043 0.020179 0.085889
    24 2.035156 0.997070 -1.937500 -1.667267 1.282923 2.944210
    25 6.028144 -0.000011 0.000002 1.564095 0.793333 -0.843532
    26 11.594918 -0.046875 -0.046873 0.051744 -0.133326 -1.640780
    27 11.481657 0.000043 0.000019 -1.183853 0.520532 0.156063
    28 3.854334 -0.131699 1.199994 0.887977 0.041686 -0.500120
    29 1.312567 0.000000 0.000000 -0.076006 -0.203868 -0.258727
    30 0.729362 0.000004 0.000003 -0.250341 -0.135455 -0.179419
    31 3.941981 0.050872 0.435162 0.216346 -0.007336 -0.093776
    32 1.539089 0.000008 0.000003 -0.605562 0.126574 -1.244849
    33 1.196316 0.000004 0.000005 0.000000 -0.000162 -0.332870
    34 3.880859 -0.047028 -0.427490 0.051056 0.262892 -0.068599
    35 1.719567 0.000023 0.000016 -0.461231 0.032293 -1.105404
    36 1.209175 0.000008 0.000005 0.175617 0.055179 -0.367832
    37 3.867399 -0.148186 -1.324350 -0.134961 0.400676 -0.397685
    38 1.719419 -0.000008 -0.000008 -0.082106 -0.002364 -0.236718
    39 1.099667 -0.000004 -0.000001 -0.188224 0.009145 -1.119518
    40 0.807129 -0.358887 -1.316406 1.243203 0.551773 -0.740643
    41 1.789783 -0.000002 -0.000002 -0.000009 0.003711 0.228604
    42 1.207001 0.000009 0.000000 -0.023897 -0.040066 0.269693
    43 3.772941 -5.489335 -0.527645 4.034818 -0.133223 -1.641906
  time 13
    0 -0.000003 -13.531250 -29.421875 1.570788 0.000007 -0.000007
    1 0.000000 3.345131 -2.981898 1.570789 0.086301 1.570789
    2 4.015625 0.000003 0.000000 0.000000 0.000000 -0.029241
    3 3.520294 0.000005 -0.000006 0.000000 0.000000 0.100332
    4 8.929688 0.000001 0.000000 0.000000 0.000000 0.194095
    5 2.035156 0.997070 1.937500 1.596487 -1.284993 2.943127
    6 6.028159 -0.000069 0.000009 -1.530683 -0.826621 -0.871944
    7 11.766787 0.046922 -0.039052 -0.004125 0.240744 -1.669247
    8 11.481682 0.000088 -0.000031 1.230761 -0.562402 0.146359
    9 3.858219 -0.135628 -1.192206 -0.251095 0.104185 -0.118801
    10 1.312565 -0.000008 0.000000 -0.000002 0.054404 -0.409012
    11 0.729366 0.000002 -0.000002 -0.000001 0.040754 -0.240990
    12 3.941966 0.050853 -0.435186 -0.379709 -0.016674 -0.393832
    13 1.539091 0.000008 -0.000002 0.153287 0.085275 -0.278802
    14 1.196321 0.000000 -0.000002 0.180294 0.096657 -0.752368
    15 3.880859 -0.043091 0.427490 0.173079 -0.231527 -0.230358
    16 1.719578 0.000023 -0.000021 -0.117992 -0.078122 -0.544672
    17 1.209181 -0.000004 -0.000001 0.107099 -0.099114 -1.066322
    18 3.863479 -0.132591 1.332139 0.122645 -0.490081 0.180207
    19 1.719431 -0.000023 0.000019 -0.064567 -0.187936 -1.115688
    20 1.099676 0.000000 0.000006 -0.031266 0.008359 -0.587033
    21 0.807586 -0.343252 1.320583 -1.342788 -0.268033 -0.682746
    22 1.789787 0.000006 0.000006 0.075450 -0.418764 0.038983
    23 1.207012 0.000011 0.000000 0.091043 0.020179 0.085889
    24 2.035156 0.997070 -1.937500 -1.667267 1.282923 2.944210
    25 6.028144 -0.000011 0.000002 1.564095 0.793333 -0.843532
    26 11.630075 -0.031250 -0.031247 0.033288 -0.109830 -1.701371
    27 11.481657 0.000043 0.000019 -1.183853 0.520532 0.156063
    28 3.854334 -0.131699 1.199994 0.887977 0.041686 -0.500120
    29 1.312567 0.000000 0.000000 -0.076006 -0.203868 -0.258727
    30 0.729362 0.000004 0.000003 -0.250341 -0.135455 -0.179419
    31 3.938074 0.050872 0.435162 0.216346 -0.007336 -0.093776
    32 1.539089 0.000008 0.000003 -0.605562 0.126574 -1.244849
    33 1.196316 0.000004 0.000005 0.000000 -0.000162 -0.332870
    34 3.880859 -0.047028 -0.427490 0.051056 0.262892 -0.068599
    35 1.719567 0.000023 0.000016 -0.461231 0.032293 -1.105404
    36 1.209175 0.000008 0.000005 0.175617 0.055179 -0.367832
    37 3.867399 -0.148186 -1.324350 -0.134961 0.400676 -0.397685
    38 1.719419 -0.000008 -0.000008 -0.082106 -0.002364 -0.236718
    39 1.099667 -0.000004 -0.000001 -0.188224 0.009145 -1.119518
    40 0.807129 -0.358887 -1.316406 1.243203 0.551773 -0.740643
    41 1.789783 -0.000002 -0.000002 -0.000009 0.003711 0.228604
    42 1.207001 0.000009 0.000000 -0.023897 -0.040066 0.269693
    43 3.772941 -5.489335 -0.527645 4.034818 -0.133223 -1.641906
  time 14
    0 -0.000003 -13.531250 -29.421875 1.570788 0.000007 -0.000007
    1 0.000000 3.345131 -2.981898 1.570789 0.086301 1.570789
    2 4.015625 0.000003 0.000000 0.000000 0.000000 -0.029241
    3 3.520294 0.000005 -0.000006 0.000000 0.000000 0.100332
    4 8.929688 0.000001 0.000000 0.000000 0.000000 0.194095
    5 2.035156 0.997070 1.937500 1.596487 -1.284993 2.943127
    6 6.028159 -0.000069 0.000009 -1.525191 -0.835612 -0.876031
    7 11.735536 0.023484 -0.019520 0.011240 0.224052 -1.716721
    8 11.481682 0.000088 -0.000031 1.230761 -0.562419 0.146359
    9 3.858219 -0.135628 -1.192206 -0.251095 0.104185 -0.118801
    10 1.312565 -0.000008 0.000000 -0.000002 0.054404 -0.409012
    11 0.729366 0.000002 -0.000002 -0.000001 0.040754 -0.240990
    12 3.941966 0.050853 -0.435186 -0.379709 -0.016674 -0.393832
    13 1.539091 0.000008 -0.000002 0.153287 0.085275 -0.278802
    14 1.196321 0.000000 -0.000002 0.180294 0.096657 -0.752368
    15 3.880859 -0.043091 0.427490 0.173079 -0.231527 -0.230358
    16 1.719578 0.000023 -0.000021 -0.117992 -0.078122 -0.544672
    17 1.209181 -0.000004 -0.000001 0.107099 -0.099114 -1.066322
    18 3.867386 -0.132591 1.332139 0.122645 -0.490081 0.180207
    19 1.719431 -0.000023 0.000019 -0.064567 -0.187936 -1.115688
    20 1.099676 0.000000 0.000006 -0.031266 0.008359 -0.587033
    21 0.807586 -0.343252 1.320583 -1.342788 -0.268033 -0.682746
    22 1.789787 0.000006 0.000006 0.075450 -0.418764 0.038983
    23 1.207012 0.000011 0.000000 0.091043 0.020179 0.085889
    24 2.035156 0.997070 -1.937500 -1.667267 1.282923 2.944210
    25 6.028144 -0.000011 0.000002 1.564095 0.793333 -0.843532
    26 11.657420 -0.015624 -0.015622 0.018607 -0.091150 -1.749533
    27 11.481657 0.000043 0.000019 -1.183853 0.520532 0.156063
    28 3.854334 -0.131699 1.199994 0.887977 0.041686 -0.500120
    29 1.312567 0.000000 0.000000 -0.076006 -0.203868 -0.258727
    30 0.729362 0.000004 0.000003 -0.250341 -0.135455 -0.179419
    31 3.941981 0.050872 0.435162 0.216346 -0.007336 -0.093776
    32 1.539089 0.000008 0.000003 -0.605562 0.126574 -1.244849
    33 1.196316 0.000004 0.000005 0.000000 -0.000162 -0.332870
    34 3.880859 -0.047028 -0.427490 0.051056 0.262892 -0.068599
    35 1.719567 0.000023 0.000016 -0.461231 0.032293 -1.105404
    36 1.209175 0.000008 0.000005 0.175617 0.055179 -0.367832
    37 3.863493 -0.148186 -1.324350 -0.134961 0.400676 -0.397685
    38 1.719419 -0.000008 -0.000008 -0.082106 -0.002364 -0.236718
    39 1.099667 -0.000004 -0.000001 -0.188224 0.009145 -1.119518
    40 0.807129 -0.358887 -1.316406 1.243203 0.551773 -0.740643
    41 1.789783 -0.000002 -0.000002 -0.000009 0.003711 0.228604
    42 1.207001 0.000009 0.000000 -0.023897 -0.040066 0.269693
    43 3.772941 -5.489335 -0.527645 4.034818 -0.133223 -1.641906
  time 15
    0 -0.000003 -13.531250 -29.421875 1.570788 0.000007 -0.000007
    1 0.000000 3.345131 -2.981898 1.570789 0.086301 1.570789
    2 4.015625 0.000003 0.000000 0.000000 0.000000 -0.029241
    3 3.520294 0.000005 -0.000006 0.000000 0.000000 0.100332
    4 8.929688 0.000001 0.000000 0.000000 0.000000 0.194095
    5 2.035156 0.997070 1.937500 1.596487 -1.284993 2.943127
    6 6.028159 -0.000069 0.000009 -1.520244 -0.843543 -0.879710
    7 11.708191 0.011765 -0.007801 0.021966 0.212398 -1.750533
    8 11.481682 0.000088 -0.000031 1.230761 -0.562402 0.146359
    9 3.858219 -0.135628 -1.192206 -0.251095 0.104185 -0.118801
    10 1.312565 -0.000008 0.000000 -0.000002 0.054404 -0.409012
    11 0.729366 0.000002 -0.000002 -0.000001 0.040754 -0.240990
    12 3.941966 0.050853 -0.435186 -0.379709 -0.016674 -0.393832
    13 1.539091 0.000008 -0.000002 0.153287 0.085275 -0.278802
    14 1.196321 0.000000 -0.000002 0.180294 0.096657 -0.752368
    15 3.880859 -0.043091 0.427490 0.173079 -0.231527 -0.230358
    16 1.719578 0.000023 -0.000021 -0.117992 -0.078122 -0.544672
    17 1.209181 -0.000004 -0.000001 0.107099 -0.099114 -1.066322
    18 3.863479 -0.132591 1.332139 0.122645 -0.490081 0.180207
    19 1.719431 -0.000023 0.000019 -0.064567 -0.187936 -1.115688
    20 1.099676 0.000000 0.000006 -0.031266 0.008359 -0.587033
    21 0.807586 -0.343252 1.320583 -1.342788 -0.268021 -0.682746
    22 1.789787 0.000006 0.000006 0.075450 -0.418764 0.038983
    23 1.207012 0.000011 0.000000 0.091043 0.020179 0.085889
    24 2.035156 0.997070 -1.937500 -1.667267 1.282923 2.944210
    25 6.028144 -0.000011 0.000002 1.564095 0.793333 -0.843532
    26 11.676952 -0.007812 -0.007809 0.008025 -0.077693 -1.784248
    27 11.481657 0.000043 0.000019 -1.183853 0.520532 0.156063
    28 3.854334 -0.131699 1.199994 0.887977 0.041686 -0.500120
    29 1.312567 0.000000 0.000000 -0.076006 -0.203868 -0.258727
    30 0.729362 0.000004 0.000003 -0.250341 -0.135455 -0.179419
    31 3.941981 0.050872 0.435162 0.216346 -0.007336 -0.093776
    32 1.539089 0.000008 0.000003 -0.605562 0.126574 -1.244849
    33 1.196316 0.000004 0.000005 0.000000 -0.000162 -0.332870
    34 3.880859 -0.047028 -0.427490 0.051056 0.262892 -0.068599
    35 1.719567 0.000023 0.000016 -0.461231 0.032293 -1.105426
    36 1.209175 0.000008 0.000005 0.175617 0.055179 -0.367832
    37 3.867399 -0.148186 -1.324350 -0.134961 0.400676 -0.397685
    38 1.719419 -0.000008 -0.000008 -0.082106 -0.002364 -0.236718
    39 1.099667 -0.000004 -0.000001 -0.188224 0.009145 -1.119518
    40 0.807129 -0.358887 -1.316406 1.243203 0.551773 -0.740643
    41 1.789783 -0.000002 -0.000002 -0.000009 0.003711 0.228604
    42 1.207001 0.000009 0.000000 -0.023897 -0.040066 0.269693
    43 3.772941 -5.489335 -0.527645 4.034818 -0.133223 -1.641906
  time 16
    0 -0.000003 -13.531250 -29.421875 1.570788 0.000007 -0.000007
    1 0.000000 3.345131 -2.981898 1.570789 0.086301 1.570789
    2 4.015625 0.000003 0.000000 0.000000 0.000000 -0.029241
    3 3.520294 0.000005 -0.000006 0.000000 0.000000 0.100332
    4 8.929688 0.000001 0.000000 0.000000 0.000000 0.194095
    5 2.035156 0.997070 1.937500 1.596487 -1.284993 2.943127
    6 6.028159 -0.000069 0.000009 -1.516952 -0.848712 -0.882179
    7 11.696472 0.000046 0.000011 0.027886 0.205931 -1.769638
    8 11.481682 0.000088 -0.000031 1.230761 -0.562402 0.146359
    9 3.854313 -0.135628 -1.192206 -0.251095 0.104185 -0.118801
    10 1.312565 -0.000008 0.000000 -0.000002 0.054404 -0.409012
    11 0.729366 0.000002 -0.000002 -0.000001 0.040754 -0.240990
    12 3.938059 0.050853 -0.435186 -0.379709 -0.016674 -0.393832
    13 1.539091 0.000008 -0.000002 0.153287 0.085275 -0.278802
    14 1.196321 0.000000 -0.000002 0.180294 0.096657 -0.752368
    15 3.880859 -0.043091 0.427490 0.173079 -0.231527 -0.230358
    16 1.719578 0.000023 -0.000021 -0.117992 -0.078122 -0.544672
    17 1.209181 -0.000004 -0.000001 0.107099 -0.099114 -1.066322
    18 3.863479 -0.132591 1.332139 0.122645 -0.490081 0.180207
    19 1.719431 -0.000023 0.000019 -0.064567 -0.187936 -1.115688
    20 1.099676 0.000000 0.000006 -0.031266 0.008359 -0.587033
    21 0.807586 -0.343252 1.320583 -1.342788 -0.268033 -0.682746
    22 1.789787 0.000006 0.000006 0.075450 -0.418764 0.038983
    23 1.207012 0.000011 0.000000 0.091043 0.020179 0.085889
    24 2.035156 0.997070 -1.937500 -1.667267 1.282923 2.944210
    25 6.028144 -0.000011 0.000002 1.564095 0.793333 -0.843532
    26 11.688671 0.000001 0.000004 0.001697 -0.069624 -1.805034
    27 11.481657 0.000043 0.000019 -1.183853 0.520532 0.156063
    28 3.854334 -0.131699 1.199994 0.887977 0.041686 -0.500120
    29 1.312567 0.000000 0.000000 -0.076006 -0.203868 -0.258727
    30 0.729362 0.000004 0.000003 -0.250341 -0.135455 -0.179419
    31 3.941981 0.050872 0.435162 0.216346 -0.007336 -0.093776
    32 1.539089 0.000008 0.000003 -0.605562 0.126574 -1.244879
    33 1.196316 0.000004 0.000005 0.000000 -0.000162 -0.332870
    34 3.880859 -0.047028 -0.427490 0.051056 0.262892 -0.068599
    35 1.719567 0.000023 0.000016 -0.461231 0.032293 -1.105404
    36 1.209175 0.000008 0.000005 0.175617 0.055179 -0.367832
    37 3.867399 -0.148186 -1.324350 -0.134961 0.400676 -0.397685
    38 1.719419 -0.000008 -0.000008 -0.082106 -0.002364 -0.236718
    39 1.099667 -0.000004 -0.000001 -0.188224 0.009145 -1.119518
    40 0.807129 -0.358887 -1.316406 1.243203 0.551773 -0.740643
    41 1.789783 -0.000002 -0.000002 -0.000009 0.003711 0.228604
    42 1.207001 0.000009 0.000000 -0.023897 -0.040066 0.269693
    43 3.772941 -5.489335 -0.527645 4.034818 -0.133223 -1.641906
  time 17
    0 -0.000003 -13.531250 -29.421875 1.570788 0.000007 -0.000007
    1 0.000000 3.345131 -2.981898 1.570789 0.086301 1.570789
    2 4.015625 0.000003 0.000000 0.000000 0.000000 -0.029241
    3 3.520294 0.000005 -0.000006 0.000000 0.000000 0.100332
    4 8.929688 0.000001 0.000000 0.000000 0.000000 0.194095
    5 2.035156 0.997070 1.937500 1.596487 -1.284993 2.943127
    6 6.028159 -0.000069 0.000009 -1.515842 -0.850478 -0.883018
    7 11.692566 0.000046 0.000011 0.029672 0.203986 -1.775448
    8 11.481682 0.000088 -0.000031 1.230761 -0.562402 0.146359
    9 3.858219 -0.135628 -1.192206 -0.251095 0.104185 -0.118801
    10 1.312565 -0.000008 0.000000 -0.000002 0.054404 -0.409012
    11 0.729366 0.000002 -0.000002 -0.000001 0.040754 -0.240990
    12 3.941966 0.050853 -0.435186 -0.379709 -0.016674 -0.393832
    13 1.539091 0.000008 -0.000002 0.153287 0.085275 -0.278802
    14 1.196321 0.000000 -0.000002 0.180294 0.096657 -0.752368
    15 3.880859 -0.043091 0.427490 0.173079 -0.231527 -0.230358
    16 1.719578 0.000023 -0.000021 -0.117992 -0.078122 -0.544672
    17 1.209181 -0.000004 -0.000001 0.107099 -0.099114 -1.066322
    18 3.863479 -0.132591 1.332139 0.122645 -0.490081 0.180207
    19 1.719431 -0.000023 0.000019 -0.064567 -0.187936 -1.115688
    20 1.099676 0.000000 0.000006 -0.031266 0.008359 -0.587033
    21 0.807586 -0.343252 1.320583 -1.342788 -0.268033 -0.682746
    22 1.789787 0.000006 0.000006 0.075450 -0.418764 0.038983
    23 1.207012 0.000011 0.000000 0.091043 0.020179 0.085889
    24 2.035156 0.997070 -1.937500 -1.667267 1.282923 2.944210
    25 6.028144 -0.000011 0.000002 1.564095 0.793333 -0.843532
    26 11.692577 0.000001 0.000004 -0.000388 -0.066955 -1.811945
    27 11.481657 0.000043 0.000019 -1.183853 0.520532 0.156063
    28 3.854334 -0.131699 1.199994 0.887977 0.041686 -0.500120
    29 1.312567 0.000000 0.000000 -0.076006 -0.203868 -0.258727
    30 0.729362 0.000004 0.000003 -0.250341 -0.135455 -0.179419
    31 3.941981 0.050872 0.435162 0.216346 -0.007336 -0.093776
    32 1.539089 0.000008 0.000003 -0.605562 0.126574 -1.244849
    33 1.196316 0.000004 0.000005 0.000000 -0.000162 -0.332870
    34 3.880859 -0.047028 -0.427490 0.051056 0.262892 -0.068599
    35 1.719567 0.000023 0.000016 -0.461231 0.032293 -1.105404
    36 1.209175 0.000008 0.000005 0.175617 0.055179 -0.367832
    37 3.863493 -0.148186 -1.324350 -0.134961 0.400676 -0.397685
    38 1.719419 -0.000008 -0.000008 -0.082106 -0.002364 -0.236718
    39 1.099667 -0.000004 -0.000001 -0.188224 0.009145 -1.119518
    40 0.807129 -0.358887 -1.316406 1.243203 0.551773 -0.740643
    41 1.789783 -0.000002 -0.000002 -0.000009 0.003711 0.228604
    42 1.207001 0.000009 0.000000 -0.023897 -0.040066 0.269681
    43 3.772941 -5.489335 -0.527645 4.034818 -0.133223 -1.641906
end
