// Created by Crowbar 0.74
version 1
nodes
  0 "ValveBiped.Bip01" -1
  1 "ValveBiped.Bip01_Spine" 0
  2 "ValveBiped.Bip01_Spine1" 1
  3 "ValveBiped.Bip01_Spine2" 2
  4 "ValveBiped.Bip01_Spine4" 3
  5 "ValveBiped.Bip01_L_Clavicle" 4
  6 "ValveBiped.Bip01_L_UpperArm" 5
  7 "ValveBiped.Bip01_L_Forearm" 6
  8 "ValveBiped.Bip01_L_Hand" 7
  9 "ValveBiped.Bip01_L_Finger4" 8
  10 "ValveBiped.Bip01_L_Finger41" 9
  11 "ValveBiped.Bip01_L_Finger42" 10
  12 "ValveBiped.Bip01_L_Finger3" 8
  13 "ValveBiped.Bip01_L_Finger31" 12
  14 "ValveBiped.Bip01_L_Finger32" 13
  15 "ValveBiped.Bip01_L_Finger2" 8
  16 "ValveBiped.Bip01_L_Finger21" 15
  17 "ValveBiped.Bip01_L_Finger22" 16
  18 "ValveBiped.Bip01_L_Finger1" 8
  19 "ValveBiped.Bip01_L_Finger11" 18
  20 "ValveBiped.Bip01_L_Finger12" 19
  21 "ValveBiped.Bip01_L_Finger0" 8
  22 "ValveBiped.Bip01_L_Finger01" 21
  23 "ValveBiped.Bip01_L_Finger02" 22
  24 "ValveBiped.Bip01_R_Clavicle" 4
  25 "ValveBiped.Bip01_R_UpperArm" 24
  26 "ValveBiped.Bip01_R_Forearm" 25
  27 "ValveBiped.Bip01_R_Hand" 26
  28 "ValveBiped.Bip01_R_Finger4" 27
  29 "ValveBiped.Bip01_R_Finger41" 28
  30 "ValveBiped.Bip01_R_Finger42" 29
  31 "ValveBiped.Bip01_R_Finger3" 27
  32 "ValveBiped.Bip01_R_Finger31" 31
  33 "ValveBiped.Bip01_R_Finger32" 32
  34 "ValveBiped.Bip01_R_Finger2" 27
  35 "ValveBiped.Bip01_R_Finger21" 34
  36 "ValveBiped.Bip01_R_Finger22" 35
  37 "ValveBiped.Bip01_R_Finger1" 27
  38 "ValveBiped.Bip01_R_Finger11" 37
  39 "ValveBiped.Bip01_R_Finger12" 38
  40 "ValveBiped.Bip01_R_Finger0" 27
  41 "ValveBiped.Bip01_R_Finger01" 40
  42 "ValveBiped.Bip01_R_Finger02" 41
  43 "ValveBiped.Camera" 27
end
skeleton
  time 0
    0 -0.000003 -13.531250 -29.421875 1.570788 0.000007 -0.000007
    1 0.000000 3.345131 -2.981898 1.570789 0.086301 1.570789
    2 4.015625 0.000003 0.000000 0.000000 0.000000 -0.029241
    3 3.520294 0.000005 -0.000006 0.000000 0.000000 0.100332
    4 8.929688 0.000001 0.000000 0.000000 0.000000 0.194095
    5 2.035156 0.997070 1.937500 1.596487 -1.284993 2.943127
    6 6.028159 -0.000069 0.000009 -1.515842 -0.850478 -0.883018
    7 11.692566 0.000046 0.000011 0.029672 0.203986 -1.775448
    8 11.481682 0.000088 -0.000031 1.230761 -0.562402 0.146359
    9 3.858219 -0.135628 -1.192206 -0.251095 0.104185 -0.118801
    10 1.312565 -0.000008 0.000000 -0.000002 0.054404 -0.409012
    11 0.729366 0.000002 -0.000002 -0.000001 0.040754 -0.240990
    12 3.938059 0.050853 -0.435186 -0.379709 -0.016674 -0.393832
    13 1.539091 0.000008 -0.000002 0.153287 0.085275 -0.278802
    14 1.196321 0.000000 -0.000002 0.180294 0.096657 -0.752368
    15 3.880859 -0.043091 0.427490 0.173079 -0.231527 -0.230358
    16 1.719578 0.000023 -0.000021 -0.117992 -0.078122 -0.544672
    17 1.209181 -0.000004 -0.000001 0.107095 -0.099106 -1.066298
    18 3.863479 -0.132591 1.332139 0.122645 -0.490081 0.180207
    19 1.719431 -0.000023 0.000019 -0.064567 -0.187936 -1.115688
    20 1.099676 0.000000 0.000006 -0.031266 0.008359 -0.587033
    21 0.807586 -0.343252 1.320583 -1.342788 -0.268033 -0.682746
    22 1.789787 0.000006 0.000006 0.075450 -0.418764 0.038983
    23 1.207012 0.000011 0.000000 0.091043 0.020179 0.085889
    24 2.035156 0.997070 -1.937500 -1.667267 1.282923 2.944210
    25 6.028144 -0.000011 0.000002 1.564095 0.793333 -0.843532
    26 11.692577 0.000001 0.000004 -0.000388 -0.066955 -1.811945
    27 11.481657 0.000043 0.000019 -1.183853 0.520532 0.156063
    28 3.854334 -0.131699 1.199994 0.887977 0.041686 -0.500120
    29 1.312567 0.000000 0.000000 -0.076006 -0.203868 -0.258727
    30 0.729362 0.000004 0.000003 -0.250341 -0.135455 -0.179419
    31 3.941981 0.050872 0.435162 0.216346 -0.007336 -0.093776
    32 1.539089 0.000008 0.000003 -0.605562 0.126574 -1.244849
    33 1.196316 0.000004 0.000005 0.000000 -0.000162 -0.332870
    34 3.880859 -0.047028 -0.427490 0.051056 0.262892 -0.068599
    35 1.719567 0.000023 0.000016 -0.461231 0.032293 -1.105404
    36 1.209175 0.000008 0.000005 0.175617 0.055179 -0.367832
    37 3.863493 -0.148186 -1.324350 -0.134961 0.400676 -0.397685
    38 1.719419 -0.000008 -0.000008 -0.082106 -0.002364 -0.236718
    39 1.099667 -0.000004 -0.000001 -0.188224 0.009145 -1.119518
    40 0.811502 -0.358881 -1.312777 1.243203 0.551773 -0.740643
    41 1.789783 -0.000002 -0.000002 -0.000009 0.003711 0.228604
    42 1.207001 0.000009 0.000000 -0.023897 -0.040066 0.269681
    43 3.775391 -5.484375 -0.527832 -2.248284 -0.133216 -1.641882
  time 1
    0 -0.000003 -13.531250 -29.421875 1.570788 0.000007 -0.000007
    1 0.000000 3.345131 -2.981898 1.570789 0.086301 1.570789
    2 4.015625 0.000003 0.000000 0.000000 0.000000 -0.029241
    3 3.520294 0.000005 -0.000006 0.000000 0.000000 0.100332
    4 8.929688 0.000001 0.000000 0.000000 0.000000 0.194095
    5 2.035156 0.997070 1.937500 1.596487 -1.284993 2.943127
    6 6.028159 -0.000069 0.000009 -1.516388 -0.849611 -0.882610
    7 11.692566 0.000046 0.000011 0.027575 0.206231 -1.769638
    8 11.481682 0.000088 -0.000031 1.230761 -0.562402 0.146359
    9 3.858219 -0.135628 -1.192206 -0.251095 0.104185 -0.118801
    10 1.312565 -0.000008 0.000000 -0.000002 0.054404 -0.409012
    11 0.729366 0.000002 -0.000002 -0.000001 0.040754 -0.240990
    12 3.941966 0.050853 -0.435186 -0.379709 -0.016674 -0.393832
    13 1.539091 0.000008 -0.000002 0.153287 0.085275 -0.278802
    14 1.196321 0.000000 -0.000002 0.180294 0.096657 -0.752368
    15 3.880859 -0.043091 0.427490 0.173079 -0.231527 -0.230358
    16 1.719578 0.000023 -0.000021 -0.117992 -0.078122 -0.544672
    17 1.209181 -0.000004 -0.000001 0.107095 -0.099106 -1.066298
    18 3.863479 -0.132591 1.332139 0.122645 -0.490081 0.180207
    19 1.719431 -0.000023 0.000019 -0.064567 -0.187936 -1.115688
    20 1.099676 0.000000 0.000006 -0.031266 0.008359 -0.587033
    21 0.807586 -0.343252 1.320583 -1.342788 -0.268021 -0.682746
    22 1.789787 0.000006 0.000006 0.075450 -0.418764 0.038983
    23 1.207012 0.000011 0.000000 0.091043 0.020179 0.085889
    24 2.035156 0.997070 -1.937500 -1.667267 1.282923 2.944210
    25 6.028144 -0.000011 0.000002 1.564095 0.793333 -0.843532
    26 11.692577 0.000001 0.000004 0.001469 -0.069332 -1.805784
    27 11.481657 0.000043 0.000019 -1.183853 0.520532 0.156063
    28 3.854334 -0.131699 1.199994 0.887977 0.041686 -0.500120
    29 1.312567 0.000000 0.000000 -0.076006 -0.203868 -0.258727
    30 0.729362 0.000004 0.000003 -0.250341 -0.135455 -0.179419
    31 3.941981 0.050872 0.435162 0.216346 -0.007336 -0.093776
    32 1.539089 0.000008 0.000003 -0.605562 0.126574 -1.244849
    33 1.196316 0.000004 0.000005 0.000000 -0.000162 -0.332870
    34 3.880859 -0.047028 -0.427490 0.051056 0.262892 -0.068599
    35 1.719567 0.000023 0.000016 -0.461231 0.032293 -1.105404
    36 1.209175 0.000008 0.000005 0.175617 0.055179 -0.367832
    37 3.867399 -0.148186 -1.324350 -0.134961 0.400676 -0.397685
    38 1.719419 -0.000008 -0.000008 -0.082106 -0.002364 -0.236718
    39 1.099667 -0.000004 -0.000001 -0.188224 0.009145 -1.119518
    40 0.811502 -0.358881 -1.312777 1.243203 0.551773 -0.740643
    41 1.789783 -0.000002 -0.000002 -0.000009 0.003711 0.228604
    42 1.207001 0.000009 0.000000 -0.023897 -0.040066 0.269693
    43 3.775391 -5.484375 -0.527832 -2.248284 -0.133216 -1.641882
  time 2
    0 -0.000003 -13.531250 -29.421875 1.570788 0.000007 -0.000007
    1 0.000000 3.345131 -2.981898 1.570789 0.086301 1.570789
    2 4.015625 0.000003 0.000000 0.000000 0.000000 -0.029241
    3 3.520294 0.000005 -0.000006 0.000000 0.000000 0.100332
    4 8.929688 0.000001 0.000000 0.000000 0.000000 0.194095
    5 2.035156 0.997070 1.937500 1.596487 -1.284993 2.943127
    6 6.028159 -0.000069 0.000009 -1.518024 -0.847043 -0.881376
    7 11.704285 0.007858 -0.003895 0.021223 0.213063 -1.752051
    8 11.481682 0.000088 -0.000031 1.230761 -0.562402 0.146359
    9 3.858219 -0.135628 -1.192206 -0.251095 0.104185 -0.118801
    10 1.312565 -0.000008 0.000000 -0.000002 0.054404 -0.409012
    11 0.729366 0.000002 -0.000002 -0.000001 0.040754 -0.240990
    12 3.938059 0.050853 -0.435186 -0.379709 -0.016674 -0.393832
    13 1.539091 0.000008 -0.000002 0.153287 0.085275 -0.278802
    14 1.196321 0.000000 -0.000002 0.180294 0.096657 -0.752368
    15 3.880859 -0.043091 0.427490 0.173079 -0.231527 -0.230358
    16 1.719578 0.000023 -0.000021 -0.117992 -0.078122 -0.544672
    17 1.209181 -0.000004 -0.000001 0.107095 -0.099106 -1.066298
    18 3.863479 -0.132591 1.332139 0.122645 -0.490081 0.180207
    19 1.719431 -0.000023 0.000019 -0.064567 -0.187936 -1.115688
    20 1.099676 0.000000 0.000006 -0.031266 0.008359 -0.587033
    21 0.807586 -0.343252 1.320583 -1.342788 -0.268021 -0.682746
    22 1.789787 0.000006 0.000006 0.075450 -0.418764 0.038983
    23 1.207012 0.000011 0.000000 0.091043 0.020179 0.085889
    24 2.035156 0.997070 -1.937500 -1.667267 1.282923 2.944210
    25 6.028144 -0.000011 0.000002 1.564095 0.793333 -0.843532
    26 11.680858 -0.003905 -0.003903 0.007114 -0.076524 -1.787248
    27 11.481657 0.000043 0.000019 -1.183853 0.520532 0.156063
    28 3.858240 -0.131699 1.199994 0.887977 0.041686 -0.500120
    29 1.312567 0.000000 0.000000 -0.076006 -0.203868 -0.258727
    30 0.729362 0.000004 0.000003 -0.250341 -0.135455 -0.179419
    31 3.941981 0.050872 0.435162 0.216346 -0.007336 -0.093776
    32 1.539089 0.000008 0.000003 -0.605562 0.126574 -1.244849
    33 1.196316 0.000004 0.000005 0.000000 -0.000162 -0.332870
    34 3.880859 -0.047028 -0.427490 0.051056 0.262892 -0.068599
    35 1.719567 0.000023 0.000016 -0.461231 0.032293 -1.105404
    36 1.209175 0.000008 0.000005 0.175617 0.055179 -0.367832
    37 3.867399 -0.148186 -1.324350 -0.134961 0.400676 -0.397685
    38 1.719419 -0.000008 -0.000008 -0.082106 -0.002364 -0.236718
    39 1.099667 -0.000004 -0.000001 -0.188224 0.009145 -1.119518
    40 0.811502 -0.358881 -1.312777 1.243203 0.551773 -0.740643
    41 1.789783 -0.000002 -0.000002 -0.000009 0.003711 0.228604
    42 1.207001 0.000009 0.000000 -0.023897 -0.040066 0.269693
    43 3.775391 -5.484375 -0.527832 -2.248284 -0.133216 -1.641882
  time 3
    0 -0.000003 -13.531250 -29.421875 1.570788 0.000007 -0.000007
    1 0.000000 3.345131 -2.981898 1.570789 0.086301 1.570789
    2 4.015625 0.000003 0.000000 0.000000 0.000000 -0.029241
    3 3.520294 0.000005 -0.000006 0.000000 0.000000 0.100332
    4 8.929688 0.000001 0.000000 0.000000 0.000000 0.194095
    5 2.035156 0.997070 1.937500 1.596487 -1.284993 2.943127
    6 6.028159 -0.000069 0.000009 -1.520676 -0.842836 -0.879386
    7 11.719911 0.015671 -0.015614 0.010604 0.224451 -1.722688
    8 11.481682 0.000088 -0.000031 1.230761 -0.562419 0.146359
    9 3.858219 -0.135628 -1.192206 -0.251095 0.104185 -0.118801
    10 1.312565 -0.000008 0.000000 -0.000002 0.054404 -0.409012
    11 0.729366 0.000002 -0.000002 -0.000001 0.040754 -0.240990
    12 3.941966 0.050853 -0.435186 -0.379709 -0.016674 -0.393832
    13 1.539091 0.000008 -0.000002 0.153287 0.085275 -0.278802
    14 1.196321 0.000000 -0.000002 0.180294 0.096657 -0.752368
    15 3.880859 -0.043091 0.427490 0.173079 -0.231527 -0.230358
    16 1.719578 0.000023 -0.000021 -0.117992 -0.078122 -0.544672
    17 1.209181 -0.000004 -0.000001 0.107095 -0.099106 -1.066324
    18 3.863479 -0.132591 1.332139 0.122645 -0.490081 0.180207
    19 1.719431 -0.000023 0.000019 -0.064567 -0.187936 -1.115688
    20 1.099676 0.000000 0.000006 -0.031266 0.008359 -0.587033
    21 0.807586 -0.343252 1.320583 -1.342788 -0.268021 -0.682746
    22 1.789787 0.000006 0.000006 0.075450 -0.418764 0.038983
    23 1.207012 0.000011 0.000000 0.091043 0.020179 0.085889
    24 2.035156 0.997070 -1.937500 -1.667267 1.282923 2.944210
    25 6.028144 -0.000011 0.000002 1.564095 0.793333 -0.843532
    26 11.661326 -0.015624 -0.015622 0.016558 -0.088533 -1.756283
    27 11.481657 0.000043 0.000019 -1.183853 0.520532 0.156063
    28 3.854334 -0.131699 1.199994 0.887977 0.041686 -0.500120
    29 1.312567 0.000000 0.000000 -0.076006 -0.203868 -0.258727
    30 0.729362 0.000004 0.000003 -0.250341 -0.135455 -0.179419
    31 3.941981 0.050872 0.435162 0.216346 -0.007336 -0.093776
    32 1.539089 0.000008 0.000003 -0.605562 0.126574 -1.244849
    33 1.196316 0.000004 0.000005 0.000000 -0.000162 -0.332870
    34 3.880859 -0.047028 -0.427490 0.051056 0.262892 -0.068599
    35 1.719567 0.000023 0.000016 -0.461231 0.032293 -1.105404
    36 1.209175 0.000008 0.000005 0.175617 0.055179 -0.367832
    37 3.863493 -0.148186 -1.324350 -0.134961 0.400676 -0.397685
    38 1.719419 -0.000008 -0.000008 -0.082106 -0.002364 -0.236718
    39 1.099667 -0.000004 -0.000001 -0.188224 0.009145 -1.119518
    40 0.811502 -0.358881 -1.312777 1.243203 0.551773 -0.740643
    41 1.789783 -0.000002 -0.000002 -0.000009 0.003711 0.228604
    42 1.207001 0.000009 0.000000 -0.023897 -0.040066 0.269693
    43 3.775391 -5.484375 -0.527832 -2.248284 -0.133216 -1.641882
  time 4
    0 -0.000003 -13.531250 -29.421875 1.570788 0.000007 -0.000007
    1 0.000000 3.345131 -2.981898 1.570789 0.086301 1.570789
    2 4.015625 0.000003 0.000000 0.000000 0.000000 -0.029241
    3 3.520294 0.000005 -0.000006 0.000000 0.000000 0.100332
    4 8.929688 0.000001 0.000000 0.000000 0.000000 0.194095
    5 2.035156 0.997070 1.937500 1.596487 -1.284993 2.943127
    6 6.028159 -0.000069 0.000009 -1.524119 -0.837346 -0.876822
    7 11.743349 0.031296 -0.027333 -0.004137 0.240278 -1.681809
    8 11.481682 0.000088 -0.000031 1.230761 -0.562402 0.146359
    9 3.858219 -0.135628 -1.192206 -0.251095 0.104185 -0.118801
    10 1.312565 -0.000008 0.000000 -0.000002 0.054404 -0.409012
    11 0.729366 0.000002 -0.000002 -0.000001 0.040754 -0.240990
    12 3.938059 0.050853 -0.435186 -0.379709 -0.016674 -0.393832
    13 1.539091 0.000008 -0.000002 0.153287 0.085275 -0.278802
    14 1.196321 0.000000 -0.000002 0.180294 0.096657 -0.752368
    15 3.880859 -0.043091 0.427490 0.173079 -0.231527 -0.230358
    16 1.719578 0.000023 -0.000021 -0.117992 -0.078122 -0.544672
    17 1.209181 -0.000004 -0.000001 0.107095 -0.099106 -1.066298
    18 3.863479 -0.132591 1.332139 0.122645 -0.490081 0.180207
    19 1.719431 -0.000023 0.000019 -0.064567 -0.187936 -1.115688
    20 1.099676 0.000000 0.000006 -0.031266 0.008359 -0.587033
    21 0.807586 -0.343252 1.320583 -1.342788 -0.268033 -0.682746
    22 1.789787 0.000006 0.000006 0.075450 -0.418764 0.038983
    23 1.207012 0.000011 0.000000 0.091043 0.020179 0.085889
    24 2.035156 0.997070 -1.937500 -1.667267 1.282923 2.944210
    25 6.028144 -0.000011 0.000002 1.564095 0.793333 -0.843532
    26 11.637888 -0.027343 -0.027341 0.029681 -0.105243 -1.713210
    27 11.481657 0.000043 0.000019 -1.183853 0.520532 0.156063
    28 3.858240 -0.131699 1.199994 0.887977 0.041686 -0.500120
    29 1.312567 0.000000 0.000000 -0.076006 -0.203868 -0.258727
    30 0.729362 0.000004 0.000003 -0.250341 -0.135455 -0.179419
    31 3.941981 0.050872 0.435162 0.216346 -0.007336 -0.093776
    32 1.539089 0.000008 0.000003 -0.605562 0.126574 -1.244849
    33 1.196316 0.000004 0.000005 0.000000 -0.000162 -0.332870
    34 3.880859 -0.047028 -0.427490 0.051056 0.262892 -0.068599
    35 1.719567 0.000023 0.000016 -0.461231 0.032293 -1.105404
    36 1.209175 0.000008 0.000005 0.175617 0.055179 -0.367832
    37 3.867399 -0.148186 -1.324350 -0.134961 0.400676 -0.397685
    38 1.719419 -0.000008 -0.000008 -0.082106 -0.002364 -0.236718
    39 1.099667 -0.000004 -0.000001 -0.188224 0.009145 -1.119518
    40 0.811502 -0.358881 -1.312777 1.243203 0.551773 -0.740643
    41 1.789783 -0.000002 -0.000002 -0.000009 0.003711 0.228604
    42 1.207001 0.000009 0.000000 -0.023897 -0.040066 0.269681
    43 3.775391 -5.484375 -0.527832 -2.248284 -0.133216 -1.641882
  time 5
    0 -0.000003 -13.531250 -29.421875 1.570788 0.000007 -0.000007
    1 0.000000 3.345131 -2.981898 1.570789 0.086301 1.570789
    2 4.015625 0.000003 0.000000 0.000000 0.000000 -0.029241
    3 3.520294 0.000005 -0.000006 0.000000 0.000000 0.100332
    4 8.929688 0.000001 0.000000 0.000000 0.000000 0.194095
    5 2.035156 0.997070 1.937500 1.596487 -1.284993 2.943127
    6 6.028159 -0.000069 0.000009 -1.527956 -0.831116 -0.873969
    7 11.774600 0.050828 -0.042959 -0.022773 0.260295 -1.630200
    8 11.481682 0.000088 -0.000031 1.230761 -0.562402 0.146359
    9 3.858219 -0.135628 -1.192206 -0.251095 0.104185 -0.118801
    10 1.312565 -0.000008 0.000000 -0.000002 0.054404 -0.409012
    11 0.729366 0.000002 -0.000002 -0.000001 0.040754 -0.240990
    12 3.941966 0.050853 -0.435186 -0.379709 -0.016674 -0.393832
    13 1.539091 0.000008 -0.000002 0.153287 0.085275 -0.278802
    14 1.196321 0.000000 -0.000002 0.180294 0.096657 -0.752368
    15 3.880859 -0.043091 0.427490 0.173079 -0.231527 -0.230358
    16 1.719578 0.000023 -0.000021 -0.117992 -0.078122 -0.544672
    17 1.209181 -0.000004 -0.000001 0.107095 -0.099106 -1.066298
    18 3.863479 -0.132591 1.332139 0.122645 -0.490081 0.180207
    19 1.719431 -0.000023 0.000019 -0.064567 -0.187936 -1.115688
    20 1.099676 0.000000 0.000006 -0.031266 0.008359 -0.587033
    21 0.807586 -0.343252 1.320583 -1.342788 -0.268033 -0.682746
    22 1.789787 0.000006 0.000006 0.075450 -0.418764 0.038983
    23 1.207012 0.000011 0.000000 0.091043 0.020179 0.085889
    24 2.035156 0.997070 -1.937500 -1.667267 1.282923 2.944210
    25 6.028144 -0.000011 0.000002 1.564095 0.793333 -0.843532
    26 11.602731 -0.042969 -0.042966 0.046268 -0.126350 -1.658780
    27 11.481657 0.000043 0.000019 -1.183853 0.520532 0.156063
    28 3.854334 -0.131699 1.199994 0.887977 0.041686 -0.500120
    29 1.312567 0.000000 0.000000 -0.076006 -0.203868 -0.258727
    30 0.729362 0.000004 0.000003 -0.250341 -0.135455 -0.179419
    31 3.941981 0.050872 0.435162 0.216346 -0.007336 -0.093776
    32 1.539089 0.000008 0.000003 -0.605562 0.126574 -1.244849
    33 1.196316 0.000004 0.000005 0.000000 -0.000162 -0.332870
    34 3.880859 -0.047028 -0.427490 0.051056 0.262892 -0.068599
    35 1.719567 0.000023 0.000016 -0.461231 0.032293 -1.105404
    36 1.209175 0.000008 0.000005 0.175617 0.055179 -0.367832
    37 3.867399 -0.148186 -1.324350 -0.134961 0.400676 -0.397685
    38 1.719419 -0.000008 -0.000008 -0.082106 -0.002364 -0.236718
    39 1.099667 -0.000004 -0.000001 -0.188224 0.009145 -1.119518
    40 0.811502 -0.358881 -1.312777 1.243203 0.551773 -0.740643
    41 1.789783 -0.000002 -0.000002 -0.000009 0.003711 0.228604
    42 1.207001 0.000009 0.000000 -0.023897 -0.040066 0.269693
    43 3.775391 -5.484375 -0.527832 -2.248284 -0.133216 -1.641882
  time 6
    0 -0.000003 -13.531250 -29.421875 1.570788 0.000007 -0.000007
    1 0.000000 3.345131 -2.981898 1.570789 0.086301 1.570789
    2 4.015625 0.000003 0.000000 0.000000 0.000000 -0.029241
    3 3.520294 0.000005 -0.000006 0.000000 0.000000 0.100332
    4 8.929688 0.000001 0.000000 0.000000 0.000000 0.194095
    5 2.035156 0.997070 1.937500 1.596487 -1.284993 2.943127
    6 6.028159 -0.000069 0.000009 -1.531737 -0.824887 -0.871165
    7 11.809757 0.074267 -0.062490 -0.044872 0.284002 -1.569013
    8 11.481682 0.000088 -0.000031 1.230761 -0.562419 0.146359
    9 3.858219 -0.135628 -1.192206 -0.251095 0.104185 -0.118801
    10 1.312565 -0.000008 0.000000 -0.000002 0.054404 -0.409012
    11 0.729366 0.000002 -0.000002 -0.000001 0.040754 -0.240990
    12 3.941966 0.050853 -0.435186 -0.379709 -0.016674 -0.393832
    13 1.539091 0.000008 -0.000002 0.153287 0.085275 -0.278802
    14 1.196321 0.000000 -0.000002 0.180294 0.096657 -0.752368
    15 3.880859 -0.043091 0.427490 0.173079 -0.231527 -0.230358
    16 1.719578 0.000023 -0.000021 -0.117992 -0.078122 -0.544672
    17 1.209181 -0.000004 -0.000001 0.107095 -0.099106 -1.066298
    18 3.863479 -0.132591 1.332139 0.122645 -0.490081 0.180207
    19 1.719431 -0.000023 0.000019 -0.064567 -0.187936 -1.115688
    20 1.099676 0.000000 0.000006 -0.031266 0.008359 -0.587033
    21 0.807586 -0.343252 1.316677 -1.342788 -0.268033 -0.682746
    22 1.789787 0.000006 0.000006 0.075450 -0.418764 0.038983
    23 1.207012 0.000011 0.000000 0.091043 0.020179 0.085889
    24 2.035156 0.997070 -1.937500 -1.667267 1.282923 2.944210
    25 6.028144 -0.000011 0.000002 1.564095 0.793333 -0.843532
    26 11.567574 -0.058594 -0.058592 0.065910 -0.151358 -1.594278
    27 11.481657 0.000043 0.000019 -1.183853 0.520532 0.156063
    28 3.858240 -0.131699 1.199994 0.887977 0.041686 -0.500120
    29 1.312567 0.000000 0.000000 -0.076006 -0.203868 -0.258727
    30 0.729362 0.000004 0.000003 -0.250341 -0.135455 -0.179419
    31 3.941981 0.050872 0.435162 0.216346 -0.007336 -0.093776
    32 1.539089 0.000008 0.000003 -0.605562 0.126574 -1.244849
    33 1.196316 0.000004 0.000005 0.000000 -0.000162 -0.332870
    34 3.880859 -0.047028 -0.427490 0.051056 0.262892 -0.068599
    35 1.719567 0.000023 0.000016 -0.461231 0.032293 -1.105404
    36 1.209175 0.000008 0.000005 0.175617 0.055179 -0.367832
    37 3.867399 -0.148186 -1.324350 -0.134961 0.400676 -0.397685
    38 1.719419 -0.000008 -0.000008 -0.082106 -0.002364 -0.236718
    39 1.099667 -0.000004 -0.000001 -0.188224 0.009145 -1.119518
    40 0.811502 -0.358881 -1.312777 1.243203 0.551773 -0.740643
    41 1.789783 -0.000002 -0.000002 -0.000009 0.003711 0.228604
    42 1.207001 0.000009 0.000000 -0.023897 -0.040066 0.269693
    43 3.775391 -5.484375 -0.527832 -2.248284 -0.133216 -1.641882
  time 7
    0 -0.000003 -13.531250 -29.421875 1.570788 0.000007 -0.000007
    1 0.000000 3.345131 -2.981898 1.570789 0.086301 1.570789
    2 4.015625 0.000003 0.000000 0.000000 0.000000 -0.029241
    3 3.520294 0.000005 -0.000006 0.000000 0.000000 0.100332
    4 8.929688 0.000001 0.000000 0.000000 0.000000 0.194095
    5 2.035156 0.997070 1.937500 1.596487 -1.284993 2.943127
    6 6.028159 -0.000069 0.000009 -1.535028 -0.819364 -0.868732
    7 11.852727 0.101611 -0.082022 -0.069776 0.310734 -1.500027
    8 11.481682 0.000088 -0.000031 1.230761 -0.562402 0.146359
    9 3.858219 -0.135628 -1.192206 -0.251095 0.104185 -0.118801
    10 1.312565 -0.000008 0.000000 -0.000002 0.054404 -0.409012
    11 0.729366 0.000002 -0.000002 -0.000001 0.040754 -0.240990
    12 3.941966 0.050853 -0.435186 -0.379709 -0.016674 -0.393832
    13 1.539091 0.000008 -0.000002 0.153287 0.085275 -0.278802
    14 1.196321 0.000000 -0.000002 0.180294 0.096657 -0.752368
    15 3.880859 -0.043091 0.427490 0.173079 -0.231527 -0.230358
    16 1.719578 0.000023 -0.000021 -0.117992 -0.078122 -0.544672
    17 1.209181 -0.000004 -0.000001 0.107095 -0.099106 -1.066298
    18 3.863479 -0.132591 1.332139 0.122645 -0.490081 0.180207
    19 1.719431 -0.000023 0.000019 -0.064567 -0.187936 -1.115688
    20 1.099676 0.000000 0.000006 -0.031266 0.008359 -0.587033
    21 0.807586 -0.343252 1.320583 -1.342788 -0.268033 -0.682746
    22 1.789787 0.000006 0.000006 0.075450 -0.418764 0.038983
    23 1.207012 0.000011 0.000000 0.091043 0.020179 0.085889
    24 2.035156 0.997070 -1.937500 -1.667267 1.282923 2.944210
    25 6.028144 -0.000011 0.000002 1.564095 0.793333 -0.843532
    26 11.520697 -0.082033 -0.082030 0.088070 -0.179556 -1.521580
    27 11.481657 0.000043 0.000019 -1.183853 0.520532 0.156063
    28 3.854334 -0.131699 1.199994 0.887977 0.041686 -0.500120
    29 1.312567 0.000000 0.000000 -0.076006 -0.203868 -0.258727
    30 0.729362 0.000004 0.000003 -0.250341 -0.135455 -0.179419
    31 3.941981 0.050872 0.435162 0.216346 -0.007336 -0.093776
    32 1.539089 0.000008 0.000003 -0.605562 0.126574 -1.244849
    33 1.196316 0.000004 0.000005 0.000000 -0.000162 -0.332870
    34 3.880859 -0.047028 -0.427490 0.051056 0.262892 -0.068599
    35 1.719567 0.000023 0.000016 -0.461231 0.032293 -1.105404
    36 1.209175 0.000008 0.000005 0.175617 0.055179 -0.367832
    37 3.867399 -0.148186 -1.324350 -0.134961 0.400676 -0.397685
    38 1.719419 -0.000008 -0.000008 -0.082106 -0.002364 -0.236718
    39 1.099667 -0.000004 -0.000001 -0.188224 0.009145 -1.119518
    40 0.811502 -0.358881 -1.312777 1.243203 0.551773 -0.740643
    41 1.789783 -0.000002 -0.000002 -0.000009 0.003711 0.228604
    42 1.207001 0.000009 0.000000 -0.023897 -0.040066 0.269693
    43 3.775391 -5.484375 -0.527832 -2.248284 -0.133216 -1.641882
  time 8
    0 -0.000003 -13.531250 -29.421875 1.570788 0.000007 -0.000007
    1 0.000000 3.345131 -2.981898 1.570789 0.086301 1.570789
    2 4.015625 0.000003 0.000000 0.000000 0.000000 -0.029241
    3 3.520294 0.000005 -0.000006 0.000000 0.000000 0.100332
    4 8.929688 0.000001 0.000000 0.000000 0.000000 0.194095
    5 2.035156 0.997070 1.937500 1.596487 -1.284993 2.943127
    6 6.028159 -0.000069 0.000009 -1.537530 -0.815158 -0.866898
    7 11.895697 0.128956 -0.105461 -0.096682 0.339612 -1.425493
    8 11.481682 0.000088 -0.000031 1.230761 -0.562402 0.146359
    9 3.854313 -0.135628 -1.192206 -0.251095 0.104185 -0.118801
    10 1.312565 -0.000008 0.000000 -0.000002 0.054404 -0.409012
    11 0.729366 0.000002 -0.000002 -0.000001 0.040754 -0.240990
    12 3.941966 0.050853 -0.435186 -0.379709 -0.016674 -0.393832
    13 1.539091 0.000008 -0.000002 0.153287 0.085275 -0.278802
    14 1.196321 0.000000 -0.000002 0.180294 0.096657 -0.752368
    15 3.880859 -0.043091 0.427490 0.173079 -0.231527 -0.230358
    16 1.719578 0.000023 -0.000021 -0.117992 -0.078122 -0.544672
    17 1.209181 -0.000004 -0.000001 0.107095 -0.099106 -1.066298
    18 3.863479 -0.132591 1.332139 0.122645 -0.490081 0.180207
    19 1.719431 -0.000023 0.000019 -0.064567 -0.187936 -1.115688
    20 1.099676 0.000000 0.000006 -0.031266 0.008359 -0.587033
    21 0.807586 -0.343252 1.320583 -1.342788 -0.268021 -0.682746
    22 1.789787 0.000006 0.000006 0.075450 -0.418764 0.038983
    23 1.207012 0.000011 0.000000 0.091043 0.020179 0.085889
    24 2.035156 0.997070 -1.937500 -1.667267 1.282923 2.944210
    25 6.028144 -0.000011 0.000002 1.564095 0.793333 -0.843532
    26 11.477727 -0.101564 -0.105468 0.112003 -0.210028 -1.442988
    27 11.481657 0.000043 0.000019 -1.183853 0.520532 0.156063
    28 3.854334 -0.131699 1.199994 0.887977 0.041686 -0.500120
    29 1.312567 0.000000 0.000000 -0.076006 -0.203868 -0.258727
    30 0.729362 0.000004 0.000003 -0.250341 -0.135455 -0.179419
    31 3.938074 0.050872 0.435162 0.216346 -0.007336 -0.093776
    32 1.539089 0.000008 0.000003 -0.605562 0.126574 -1.244849
    33 1.196316 0.000004 0.000005 0.000000 -0.000162 -0.332870
    34 3.880859 -0.047028 -0.427490 0.051056 0.262892 -0.068599
    35 1.719567 0.000023 0.000016 -0.461231 0.032293 -1.105404
    36 1.209175 0.000008 0.000005 0.175617 0.055179 -0.367832
    37 3.863493 -0.148186 -1.324350 -0.134961 0.400676 -0.397685
    38 1.719419 -0.000008 -0.000008 -0.082106 -0.002364 -0.236718
    39 1.099667 -0.000004 -0.000001 -0.188224 0.009145 -1.119518
    40 0.811502 -0.358881 -1.312777 1.243203 0.551773 -0.740643
    41 1.789783 -0.000002 -0.000002 -0.000009 0.003711 0.228604
    42 1.207001 0.000009 0.000000 -0.023897 -0.040066 0.269693
    43 3.775391 -5.484375 -0.527832 -2.248284 -0.133216 -1.641882
  time 9
    0 -0.000003 -13.531250 -29.421875 1.570788 0.000007 -0.000007
    1 0.000000 3.345131 -2.981898 1.570789 0.086301 1.570789
    2 4.015625 0.000003 0.000000 0.000000 0.000000 -0.029241
    3 3.520294 0.000005 -0.000006 0.000000 0.000000 0.100332
    4 8.929688 0.000001 0.000000 0.000000 0.000000 0.194095
    5 2.035156 0.997070 1.937500 1.596487 -1.284993 2.943127
    6 6.028159 -0.000069 0.000009 -1.539054 -0.812557 -0.865784
    7 11.938667 0.156300 -0.128899 -0.124630 0.369619 -1.348080
    8 11.481682 0.000088 -0.000031 1.230761 -0.562402 0.146359
    9 3.854313 -0.135628 -1.192206 -0.251095 0.104185 -0.118801
    10 1.312565 -0.000008 0.000000 -0.000002 0.054404 -0.409012
    11 0.729366 0.000002 -0.000002 -0.000001 0.040754 -0.240990
    12 3.941966 0.050853 -0.435186 -0.379709 -0.016674 -0.393832
    13 1.539091 0.000008 -0.000002 0.153287 0.085275 -0.278802
    14 1.196321 0.000000 -0.000002 0.180294 0.096657 -0.752368
    15 3.880859 -0.043091 0.427490 0.173079 -0.231527 -0.230358
    16 1.719578 0.000023 -0.000021 -0.117992 -0.078122 -0.544672
    17 1.209181 -0.000004 -0.000001 0.107095 -0.099106 -1.066298
    18 3.867386 -0.132591 1.332139 0.122645 -0.490081 0.180207
    19 1.719431 -0.000023 0.000019 -0.064567 -0.187936 -1.115688
    20 1.099676 0.000000 0.000006 -0.031266 0.008359 -0.587033
    21 0.807586 -0.343252 1.320583 -1.342788 -0.268021 -0.682746
    22 1.789787 0.000006 0.000006 0.075450 -0.418764 0.038983
    23 1.207012 0.000011 0.000000 0.091043 0.020179 0.085889
    24 2.035156 0.997070 -1.937500 -1.667267 1.282923 2.944210
    25 6.028144 -0.000011 0.000002 1.564095 0.793333 -0.843532
    26 11.426944 -0.125003 -0.128906 0.136859 -0.241670 -1.361396
    27 11.481657 0.000043 0.000019 -1.183853 0.520532 0.156063
    28 3.854334 -0.131699 1.199994 0.887977 0.041686 -0.500120
    29 1.312567 0.000000 0.000000 -0.076006 -0.203868 -0.258727
    30 0.729362 0.000004 0.000003 -0.250341 -0.135455 -0.179419
    31 3.941981 0.050872 0.435162 0.216346 -0.007336 -0.093776
    32 1.539089 0.000008 0.000003 -0.605562 0.126574 -1.244849
    33 1.196316 0.000004 0.000005 0.000000 -0.000162 -0.332870
    34 3.880859 -0.047028 -0.427490 0.051056 0.262892 -0.068599
    35 1.719567 0.000023 0.000016 -0.461231 0.032293 -1.105404
    36 1.209175 0.000008 0.000005 0.175617 0.055179 -0.367832
    37 3.863493 -0.148186 -1.324350 -0.134961 0.400676 -0.397685
    38 1.719419 -0.000008 -0.000008 -0.082106 -0.002364 -0.236718
    39 1.099667 -0.000004 -0.000001 -0.188224 0.009145 -1.119518
    40 0.811502 -0.358881 -1.312777 1.243203 0.551773 -0.740643
    41 1.789783 -0.000002 -0.000002 -0.000009 0.003711 0.228604
    42 1.207001 0.000009 0.000000 -0.023897 -0.040066 0.269693
    43 3.775391 -5.484375 -0.527832 -2.248284 -0.133216 -1.641882
  time 10
    0 -0.000003 -13.531250 -29.421875 1.570788 0.000007 -0.000007
    1 0.000000 3.345131 -2.981898 1.570789 0.086301 1.570789
    2 4.015625 0.000003 0.000000 0.000000 0.000000 -0.029241
    3 3.520294 0.000005 -0.000006 0.000000 0.000000 0.100332
    4 8.929688 0.000001 0.000000 0.000000 0.000000 0.194095
    5 2.035156 0.997070 1.937500 1.596487 -1.284993 2.943127
    6 6.028159 -0.000069 0.000009 -1.539562 -0.811690 -0.865412
    7 11.985544 0.183645 -0.152337 -0.152578 0.399627 -1.270667
    8 11.481682 0.000088 -0.000031 1.230761 -0.562402 0.146359
    9 3.858219 -0.135628 -1.192206 -0.251095 0.104185 -0.118801
    10 1.312565 -0.000008 0.000000 -0.000002 0.054404 -0.409012
    11 0.729366 0.000002 -0.000002 -0.000001 0.040754 -0.240990
    12 3.938059 0.050853 -0.435186 -0.379709 -0.016674 -0.393832
    13 1.539091 0.000008 -0.000002 0.153287 0.085275 -0.278802
    14 1.196321 0.000000 -0.000002 0.180294 0.096657 -0.752368
    15 3.880859 -0.043091 0.427490 0.173079 -0.231527 -0.230358
    16 1.719578 0.000023 -0.000021 -0.117992 -0.078122 -0.544672
    17 1.209181 -0.000004 -0.000001 0.107095 -0.099106 -1.066298
    18 3.863479 -0.132591 1.332139 0.122645 -0.490081 0.180207
    19 1.719431 -0.000023 0.000019 -0.064567 -0.187936 -1.115688
    20 1.099676 0.000000 0.000006 -0.031266 0.008359 -0.587033
    21 0.807586 -0.343252 1.320583 -1.342788 -0.268033 -0.682746
    22 1.789787 0.000006 0.000006 0.075450 -0.418764 0.038983
    23 1.207012 0.000011 0.000000 0.091043 0.020179 0.085889
    24 2.035156 0.997070 -1.937500 -1.667267 1.282923 2.944210
    25 6.028144 -0.000011 0.000002 1.564095 0.793333 -0.843532
    26 11.380068 -0.148441 -0.152345 0.161727 -0.273311 -1.279805
    27 11.481657 0.000043 0.000019 -1.183853 0.520532 0.156063
    28 3.854334 -0.131699 1.199994 0.887977 0.041686 -0.500120
    29 1.312567 0.000000 0.000000 -0.076006 -0.203868 -0.258727
    30 0.729362 0.000004 0.000003 -0.250341 -0.135455 -0.179419
    31 3.938074 0.050872 0.435162 0.216346 -0.007336 -0.093776
    32 1.539089 0.000008 0.000003 -0.605562 0.126574 -1.244849
    33 1.196316 0.000004 0.000005 0.000000 -0.000162 -0.332870
    34 3.880859 -0.047028 -0.427490 0.051056 0.262892 -0.068599
    35 1.719567 0.000023 0.000016 -0.461231 0.032293 -1.105404
    36 1.209175 0.000008 0.000005 0.175617 0.055179 -0.367832
    37 3.863493 -0.148186 -1.324350 -0.134961 0.400676 -0.397685
    38 1.719419 -0.000008 -0.000008 -0.082106 -0.002364 -0.236718
    39 1.099667 -0.000004 -0.000001 -0.188224 0.009145 -1.119518
    40 0.811502 -0.358881 -1.312777 1.243203 0.551773 -0.740643
    41 1.789783 -0.000002 -0.000002 -0.000009 0.003711 0.228604
    42 1.207001 0.000009 0.000000 -0.023897 -0.040066 0.269693
    43 3.775391 -5.484375 -0.527832 -2.248284 -0.133216 -1.641882
  time 11
    0 -0.000003 -13.531250 -29.421875 1.570788 0.000007 -0.000007
    1 0.000000 3.345131 -2.981898 1.570789 0.086301 1.570789
    2 4.015625 0.000003 0.000000 0.000000 0.000000 -0.029241
    3 3.520294 0.000005 -0.000006 0.000000 0.000000 0.100332
    4 8.929688 0.000001 0.000000 0.000000 0.000000 0.194095
    5 2.035156 0.997070 1.937500 1.596487 -1.284993 2.943127
    6 6.028159 -0.000069 0.000009 -1.538772 -0.813039 -0.866000
    7 12.028514 0.210989 -0.175775 -0.179495 0.428504 -1.196133
    8 11.481682 0.000088 -0.000031 1.230761 -0.562419 0.146359
    9 3.858219 -0.135628 -1.192206 -0.251095 0.104185 -0.118801
    10 1.312565 -0.000008 0.000000 -0.000002 0.054404 -0.409012
    11 0.729366 0.000002 -0.000002 -0.000001 0.040754 -0.240990
    12 3.941966 0.050853 -0.435186 -0.379709 -0.016674 -0.393832
    13 1.539091 0.000008 -0.000002 0.153287 0.085275 -0.278802
    14 1.196321 0.000000 -0.000002 0.180294 0.096657 -0.752368
    15 3.880859 -0.043091 0.427490 0.173079 -0.231527 -0.230358
    16 1.719578 0.000023 -0.000021 -0.117992 -0.078122 -0.544672
    17 1.209181 -0.000004 -0.000001 0.107095 -0.099106 -1.066298
    18 3.867386 -0.132591 1.332139 0.122645 -0.490081 0.180207
    19 1.719431 -0.000023 0.000019 -0.064567 -0.187936 -1.115688
    20 1.099676 0.000000 0.000006 -0.031266 0.008359 -0.587033
    21 0.807586 -0.343252 1.320583 -1.342788 -0.268033 -0.682746
    22 1.789787 0.000006 0.000006 0.075450 -0.418764 0.038983
    23 1.207012 0.000011 0.000000 0.091043 0.020179 0.085889
    24 2.035156 0.997070 -1.937500 -1.667267 1.282923 2.944210
    25 6.028144 -0.000011 0.000002 1.564095 0.793333 -0.843532
    26 11.333191 -0.171879 -0.171876 0.185660 -0.303784 -1.201213
    27 11.481657 0.000043 0.000019 -1.183853 0.520532 0.156063
    28 3.854334 -0.131699 1.199994 0.887977 0.041686 -0.500120
    29 1.312567 0.000000 0.000000 -0.076006 -0.203868 -0.258727
    30 0.729362 0.000004 0.000003 -0.250341 -0.135455 -0.179419
    31 3.938074 0.050872 0.435162 0.216346 -0.007336 -0.093776
    32 1.539089 0.000008 0.000003 -0.605562 0.126574 -1.244849
    33 1.196316 0.000004 0.000005 0.000000 -0.000162 -0.332870
    34 3.880859 -0.047028 -0.427490 0.051056 0.262892 -0.068599
    35 1.719567 0.000023 0.000016 -0.461231 0.032293 -1.105404
    36 1.209175 0.000008 0.000005 0.175617 0.055179 -0.367832
    37 3.867399 -0.148186 -1.324350 -0.134961 0.400676 -0.397685
    38 1.719419 -0.000008 -0.000008 -0.082106 -0.002364 -0.236718
    39 1.099667 -0.000004 -0.000001 -0.188224 0.009145 -1.119518
    40 0.811502 -0.358881 -1.312777 1.243203 0.551773 -0.740643
    41 1.789783 -0.000002 -0.000002 -0.000009 0.003711 0.228604
    42 1.207001 0.000009 0.000000 -0.023897 -0.040066 0.269693
    43 3.775391 -5.484375 -0.527832 -2.248284 -0.133216 -1.641882
  time 12
    0 -0.000003 -13.531250 -29.421875 1.570788 0.000007 -0.000007
    1 0.000000 3.345131 -2.981898 1.570789 0.086301 1.570789
    2 4.015625 0.000003 0.000000 0.000000 0.000000 -0.029241
    3 3.520294 0.000005 -0.000006 0.000000 0.000000 0.100332
    4 8.929688 0.000001 0.000000 0.000000 0.000000 0.194095
    5 2.035156 0.997070 1.937500 1.596487 -1.284993 2.943127
    6 6.028159 -0.000069 0.000009 -1.536401 -0.817085 -0.867737
    7 12.067577 0.238334 -0.195307 -0.204399 0.455237 -1.127147
    8 11.481682 0.000088 -0.000031 1.230761 -0.562402 0.146359
    9 3.858219 -0.135628 -1.192206 -0.251095 0.104185 -0.118801
    10 1.312565 -0.000008 0.000000 -0.000002 0.054404 -0.409012
    11 0.729366 0.000002 -0.000002 -0.000001 0.040754 -0.240990
    12 3.941966 0.050853 -0.435186 -0.379709 -0.016674 -0.393832
    13 1.539091 0.000008 -0.000002 0.153287 0.085275 -0.278802
    14 1.196321 0.000000 -0.000002 0.180294 0.096657 -0.752368
    15 3.880859 -0.043091 0.427490 0.173079 -0.231527 -0.230358
    16 1.719578 0.000023 -0.000021 -0.117992 -0.078122 -0.544672
    17 1.209181 -0.000004 -0.000001 0.107095 -0.099106 -1.066298
    18 3.863479 -0.132591 1.332139 0.122645 -0.490081 0.180207
    19 1.719431 -0.000023 0.000019 -0.064567 -0.187936 -1.115688
    20 1.099676 0.000000 0.000006 -0.031266 0.008359 -0.587033
    21 0.807586 -0.343252 1.320583 -1.342788 -0.268033 -0.682746
    22 1.789787 0.000006 0.000006 0.075450 -0.418764 0.038983
    23 1.207012 0.000011 0.000000 0.091043 0.020179 0.085889
    24 2.035156 0.997070 -1.937500 -1.667267 1.282923 2.944210
    25 6.028144 -0.000011 0.000002 1.564095 0.793333 -0.843532
    26 11.290221 -0.191411 -0.195315 0.207820 -0.331982 -1.128515
    27 11.481657 0.000043 0.000019 -1.183853 0.520532 0.156063
    28 3.854334 -0.131699 1.199994 0.887977 0.041686 -0.500120
    29 1.312567 0.000000 0.000000 -0.076006 -0.203868 -0.258727
    30 0.729362 0.000004 0.000003 -0.250341 -0.135455 -0.179419
    31 3.938074 0.050872 0.435162 0.216346 -0.007336 -0.093776
    32 1.539089 0.000008 0.000003 -0.605562 0.126574 -1.244879
    33 1.196316 0.000004 0.000005 0.000000 -0.000162 -0.332870
    34 3.880859 -0.047028 -0.427490 0.051056 0.262892 -0.068599
    35 1.719567 0.000023 0.000016 -0.461231 0.032293 -1.105426
    36 1.209175 0.000008 0.000005 0.175617 0.055179 -0.367832
    37 3.863493 -0.148186 -1.324350 -0.134961 0.400676 -0.397685
    38 1.719419 -0.000008 -0.000008 -0.082106 -0.002364 -0.236718
    39 1.099667 -0.000004 -0.000001 -0.188224 0.009145 -1.119518
    40 0.811502 -0.358881 -1.312777 1.243203 0.551773 -0.740643
    41 1.789783 -0.000002 -0.000002 -0.000009 0.003711 0.228604
    42 1.207001 0.000009 0.000000 -0.023897 -0.040066 0.269693
    43 3.775391 -5.484375 -0.527832 -2.248284 -0.133216 -1.641882
  time 13
    0 -0.000003 -13.531250 -29.421875 1.570788 0.000007 -0.000007
    1 0.000000 3.345131 -2.981898 1.570789 0.086301 1.570789
    2 4.015625 0.000003 0.000000 0.000000 0.000000 -0.029241
    3 3.520294 0.000005 -0.000006 0.000000 0.000000 0.100332
    4 8.929688 0.000001 0.000000 0.000000 0.000000 0.194095
    5 2.035156 0.997070 1.937500 1.596487 -1.284993 2.943127
    6 6.028159 -0.000069 0.000009 -1.532621 -0.823410 -0.870518
    7 12.102735 0.261772 -0.214839 -0.226487 0.478944 -1.066012
    8 11.481682 0.000088 -0.000031 1.230761 -0.562402 0.146359
    9 3.858219 -0.135628 -1.192206 -0.251095 0.104185 -0.118801
    10 1.312565 -0.000008 0.000000 -0.000002 0.054404 -0.409012
    11 0.729366 0.000002 -0.000002 -0.000001 0.040754 -0.240990
    12 3.941966 0.050853 -0.435186 -0.379709 -0.016674 -0.393832
    13 1.539091 0.000008 -0.000002 0.153287 0.085275 -0.278802
    14 1.196321 0.000000 -0.000002 0.180294 0.096657 -0.752368
    15 3.880859 -0.043091 0.427490 0.173079 -0.231527 -0.230358
    16 1.719578 0.000023 -0.000021 -0.117992 -0.078122 -0.544672
    17 1.209181 -0.000004 -0.000001 0.107095 -0.099106 -1.066298
    18 3.863479 -0.132591 1.332139 0.122645 -0.490081 0.180207
    19 1.719431 -0.000023 0.000019 -0.064567 -0.187936 -1.115688
    20 1.099676 0.000000 0.000006 -0.031266 0.008359 -0.587033
    21 0.807586 -0.343252 1.320583 -1.342788 -0.268021 -0.682746
    22 1.789787 0.000006 0.000006 0.075450 -0.418764 0.038983
    23 1.207012 0.000011 0.000000 0.091043 0.020179 0.085889
    24 2.035156 0.997070 -1.937500 -1.667267 1.282923 2.944210
    25 6.028144 -0.000011 0.000002 1.564095 0.793333 -0.843532
    26 11.251158 -0.210943 -0.210940 0.227463 -0.356990 -1.064013
    27 11.481657 0.000043 0.000019 -1.183853 0.520532 0.156063
    28 3.858240 -0.131699 1.199994 0.887977 0.041686 -0.500120
    29 1.312567 0.000000 0.000000 -0.076006 -0.203868 -0.258727
    30 0.729362 0.000004 0.000003 -0.250341 -0.135455 -0.179419
    31 3.938074 0.050872 0.435162 0.216346 -0.007336 -0.093776
    32 1.539089 0.000008 0.000003 -0.605562 0.126574 -1.244849
    33 1.196316 0.000004 0.000005 0.000000 -0.000162 -0.332870
    34 3.880859 -0.047028 -0.427490 0.051056 0.262892 -0.068599
    35 1.719567 0.000023 0.000016 -0.461231 0.032293 -1.105404
    36 1.209175 0.000008 0.000005 0.175617 0.055179 -0.367832
    37 3.867399 -0.148186 -1.324350 -0.134961 0.400676 -0.397685
    38 1.719419 -0.000008 -0.000008 -0.082106 -0.002364 -0.236718
    39 1.099667 -0.000004 -0.000001 -0.188224 0.009145 -1.119518
    40 0.811502 -0.358881 -1.312777 1.243203 0.551773 -0.740643
    41 1.789783 -0.000002 -0.000002 -0.000009 0.003711 0.228604
    42 1.207001 0.000009 0.000000 -0.023897 -0.040066 0.269693
    43 3.775391 -5.484375 -0.527832 -2.248284 -0.133216 -1.641882
  time 14
    0 -0.000003 -13.531250 -29.421875 1.570788 0.000007 -0.000007
    1 0.000000 3.345131 -2.981898 1.570789 0.086301 1.570789
    2 4.015625 0.000003 0.000000 0.000000 0.000000 -0.029241
    3 3.520294 0.000005 -0.000006 0.000000 0.000000 0.100332
    4 8.929688 0.000001 0.000000 0.000000 0.000000 0.194095
    5 2.035156 0.997070 1.937500 1.596487 -1.284993 2.943127
    6 6.028159 -0.000069 0.000009 -1.527956 -0.831116 -0.873969
    7 12.133986 0.277398 -0.230464 -0.245123 0.498960 -1.014351
    8 11.481682 0.000088 -0.000031 1.230761 -0.562419 0.146359
    9 3.858219 -0.135628 -1.192206 -0.251095 0.104185 -0.118801
    10 1.312565 -0.000008 0.000000 -0.000002 0.054404 -0.409012
    11 0.729366 0.000002 -0.000002 -0.000001 0.040754 -0.240990
    12 3.938059 0.050853 -0.435186 -0.379709 -0.016674 -0.393832
    13 1.539091 0.000008 -0.000002 0.153287 0.085275 -0.278802
    14 1.196321 0.000000 -0.000002 0.180294 0.096657 -0.752368
    15 3.880859 -0.043091 0.427490 0.173079 -0.231527 -0.230358
    16 1.719578 0.000023 -0.000021 -0.117992 -0.078122 -0.544672
    17 1.209181 -0.000004 -0.000001 0.107095 -0.099106 -1.066298
    18 3.863479 -0.132591 1.332139 0.122645 -0.490081 0.180207
    19 1.719431 -0.000023 0.000019 -0.064567 -0.187936 -1.115688
    20 1.099676 0.000000 0.000006 -0.031266 0.008359 -0.587033
    21 0.807586 -0.343252 1.320583 -1.342788 -0.268033 -0.682746
    22 1.789787 0.000006 0.000006 0.075450 -0.418764 0.038983
    23 1.207012 0.000011 0.000000 0.091043 0.020179 0.085889
    24 2.035156 0.997070 -1.937500 -1.667267 1.282923 2.944210
    25 6.028144 -0.000011 0.000002 1.564095 0.793333 -0.843532
    26 11.219907 -0.226568 -0.226566 0.244049 -0.378097 -1.009582
    27 11.481657 0.000043 0.000019 -1.183853 0.520532 0.156063
    28 3.858240 -0.131699 1.199994 0.887977 0.041686 -0.500120
    29 1.312567 0.000000 0.000000 -0.076006 -0.203868 -0.258727
    30 0.729362 0.000004 0.000003 -0.250341 -0.135455 -0.179419
    31 3.941981 0.050872 0.435162 0.216346 -0.007336 -0.093776
    32 1.539089 0.000008 0.000003 -0.605562 0.126574 -1.244849
    33 1.196316 0.000004 0.000005 0.000000 -0.000162 -0.332870
    34 3.880859 -0.047028 -0.427490 0.051056 0.262892 -0.068599
    35 1.719567 0.000023 0.000016 -0.461231 0.032293 -1.105404
    36 1.209175 0.000008 0.000005 0.175617 0.055179 -0.367832
    37 3.867399 -0.148186 -1.324350 -0.134961 0.400676 -0.397685
    38 1.719419 -0.000008 -0.000008 -0.082106 -0.002364 -0.236718
    39 1.099667 -0.000004 -0.000001 -0.188224 0.009145 -1.119518
    40 0.811502 -0.358881 -1.312777 1.243203 0.551773 -0.740643
    41 1.789783 -0.000002 -0.000002 -0.000009 0.003711 0.228604
    42 1.207001 0.000009 0.000000 -0.023897 -0.040066 0.269693
    43 3.775391 -5.484375 -0.527832 -2.248284 -0.133216 -1.641882
  time 15
    0 -0.000003 -13.531250 -29.421875 1.570788 0.000007 -0.000007
    1 0.000000 3.345131 -2.981898 1.570789 0.086301 1.570789
    2 4.015625 0.000003 0.000000 0.000000 0.000000 -0.029241
    3 3.520294 0.000005 -0.000006 0.000000 0.000000 0.100332
    4 8.929688 0.000001 0.000000 0.000000 0.000000 0.194095
    5 2.035156 0.997070 1.937500 1.596487 -1.284993 2.943127
    6 6.028159 -0.000069 0.000009 -1.523197 -0.838823 -0.877505
    7 12.157424 0.293023 -0.242183 -0.259888 0.514804 -0.973472
    8 11.481682 0.000088 -0.000031 1.230761 -0.562402 0.146359
    9 3.858219 -0.135628 -1.192206 -0.251095 0.104185 -0.118801
    10 1.312565 -0.000008 0.000000 -0.000002 0.054404 -0.409012
    11 0.729366 0.000002 -0.000002 -0.000001 0.040754 -0.240990
    12 3.941966 0.050853 -0.435186 -0.379709 -0.016674 -0.393832
    13 1.539091 0.000008 -0.000002 0.153287 0.085275 -0.278802
    14 1.196321 0.000000 -0.000002 0.180294 0.096657 -0.752368
    15 3.880859 -0.043091 0.427490 0.173079 -0.231527 -0.230358
    16 1.719578 0.000023 -0.000021 -0.117992 -0.078122 -0.544672
    17 1.209181 -0.000004 -0.000001 0.107095 -0.099106 -1.066298
    18 3.863479 -0.132591 1.332139 0.122645 -0.490081 0.180207
    19 1.719431 -0.000023 0.000019 -0.064567 -0.187936 -1.115688
    20 1.099676 0.000000 0.000006 -0.031266 0.008359 -0.587033
    21 0.807586 -0.343252 1.320583 -1.342788 -0.268021 -0.682746
    22 1.789787 0.000006 0.000006 0.075450 -0.418764 0.038983
    23 1.207012 0.000011 0.000000 0.091043 0.020179 0.085889
    24 2.035156 0.997070 -1.937500 -1.667267 1.282923 2.944210
    25 6.028144 -0.000011 0.000002 1.564095 0.793333 -0.843532
    26 11.192562 -0.238287 -0.242191 0.257172 -0.394807 -0.966510
    27 11.481657 0.000043 0.000019 -1.183853 0.520532 0.156063
    28 3.854334 -0.131699 1.199994 0.887977 0.041686 -0.500120
    29 1.312567 0.000000 0.000000 -0.076006 -0.203868 -0.258727
    30 0.729362 0.000004 0.000003 -0.250341 -0.135455 -0.179419
    31 3.938074 0.050872 0.435162 0.216346 -0.007336 -0.093776
    32 1.539089 0.000008 0.000003 -0.605562 0.126574 -1.244849
    33 1.196316 0.000004 0.000005 0.000000 -0.000162 -0.332870
    34 3.880859 -0.047028 -0.427490 0.051056 0.262892 -0.068599
    35 1.719567 0.000023 0.000016 -0.461231 0.032293 -1.105404
    36 1.209175 0.000008 0.000005 0.175617 0.055179 -0.367832
    37 3.867399 -0.148186 -1.324350 -0.134961 0.400676 -0.397685
    38 1.719419 -0.000008 -0.000008 -0.082106 -0.002364 -0.236718
    39 1.099667 -0.000004 -0.000001 -0.188224 0.009145 -1.119518
    40 0.811502 -0.358881 -1.312777 1.243203 0.551773 -0.740643
    41 1.789783 -0.000002 -0.000002 -0.000009 0.003711 0.228604
    42 1.207001 0.000009 0.000000 -0.023897 -0.040066 0.269693
    43 3.775391 -5.484375 -0.527832 -2.248284 -0.133216 -1.641882
  time 16
    0 -0.000003 -13.531250 -29.421875 1.570788 0.000007 -0.000007
    1 0.000000 3.345131 -2.981898 1.570789 0.086301 1.570789
    2 4.015625 0.000003 0.000000 0.000000 0.000000 -0.029241
    3 3.520294 0.000005 -0.000006 0.000000 0.000000 0.100332
    4 8.929688 0.000001 0.000000 0.000000 0.000000 0.194095
    5 2.035156 0.997070 1.937500 1.596487 -1.284993 2.943127
    6 6.028159 -0.000069 0.000009 -1.519247 -0.845116 -0.880465
    7 12.176956 0.304742 -0.253903 -0.270494 0.526192 -0.944109
    8 11.481682 0.000088 -0.000031 1.230761 -0.562402 0.146359
    9 3.854313 -0.135628 -1.192206 -0.251095 0.104185 -0.118801
    10 1.312565 -0.000008 0.000000 -0.000002 0.054404 -0.409012
    11 0.729366 0.000002 -0.000002 -0.000001 0.040754 -0.240990
    12 3.941966 0.050853 -0.435186 -0.379709 -0.016674 -0.393832
    13 1.539091 0.000008 -0.000002 0.153287 0.085275 -0.278802
    14 1.196321 0.000000 -0.000002 0.180294 0.096657 -0.752368
    15 3.880859 -0.043091 0.427490 0.173079 -0.231527 -0.230358
    16 1.719578 0.000023 -0.000021 -0.117992 -0.078122 -0.544672
    17 1.209181 -0.000004 -0.000001 0.107095 -0.099106 -1.066298
    18 3.867386 -0.132591 1.332139 0.122645 -0.490081 0.180207
    19 1.719431 -0.000023 0.000019 -0.064567 -0.187936 -1.115688
    20 1.099676 0.000000 0.000006 -0.031266 0.008359 -0.587033
    21 0.807586 -0.343252 1.320583 -1.342788 -0.268033 -0.682746
    22 1.789787 0.000006 0.000006 0.075450 -0.418764 0.038983
    23 1.207012 0.000011 0.000000 0.091043 0.020179 0.085889
    24 2.035156 0.997070 -1.937500 -1.667267 1.282923 2.944210
    25 6.028144 -0.000011 0.000002 1.564095 0.793333 -0.843532
    26 11.176937 -0.246100 -0.250004 0.266616 -0.406816 -0.935545
    27 11.481657 0.000043 0.000019 -1.183853 0.520532 0.156063
    28 3.858240 -0.131699 1.199994 0.887977 0.041686 -0.500120
    29 1.312567 0.000000 0.000000 -0.076006 -0.203868 -0.258727
    30 0.729362 0.000004 0.000003 -0.250341 -0.135455 -0.179419
    31 3.941981 0.050872 0.435162 0.216346 -0.007336 -0.093776
    32 1.539089 0.000008 0.000003 -0.605562 0.126574 -1.244849
    33 1.196316 0.000004 0.000005 0.000000 -0.000162 -0.332870
    34 3.880859 -0.047028 -0.427490 0.051056 0.262892 -0.068599
    35 1.719567 0.000023 0.000016 -0.461231 0.032293 -1.105404
    36 1.209175 0.000008 0.000005 0.175617 0.055179 -0.367832
    37 3.867399 -0.148186 -1.324350 -0.134961 0.400676 -0.397685
    38 1.719419 -0.000008 -0.000008 -0.082106 -0.002364 -0.236718
    39 1.099667 -0.000004 -0.000001 -0.188224 0.009145 -1.119518
    40 0.811502 -0.358881 -1.312777 1.243203 0.551773 -0.740643
    41 1.789783 -0.000002 -0.000002 -0.000009 0.003711 0.228604
    42 1.207001 0.000009 0.000000 -0.023897 -0.040066 0.269693
    43 3.775391 -5.484375 -0.527832 -2.248284 -0.133216 -1.641882
  time 17
    0 -0.000003 -13.531250 -29.421875 1.570788 0.000007 -0.000007
    1 0.000000 3.345131 -2.981898 1.570789 0.086301 1.570789
    2 4.015625 0.000003 0.000000 0.000000 0.000000 -0.029241
    3 3.520294 0.000005 -0.000006 0.000000 0.000000 0.100332
    4 8.929688 0.000001 0.000000 0.000000 0.000000 0.194095
    5 2.035156 0.997070 1.937500 1.596487 -1.284993 2.943127
    6 6.028159 -0.000069 0.000009 -1.516689 -0.849130 -0.882371
    7 12.184768 0.312555 -0.257809 -0.276846 0.533008 -0.926522
    8 11.481682 0.000088 -0.000031 1.230761 -0.562402 0.146359
    9 3.858219 -0.135628 -1.192206 -0.251095 0.104185 -0.118801
    10 1.312565 -0.000008 0.000000 -0.000002 0.054404 -0.409012
    11 0.729366 0.000002 -0.000002 -0.000001 0.040754 -0.240990
    12 3.938059 0.050853 -0.435186 -0.379709 -0.016674 -0.393832
    13 1.539091 0.000008 -0.000002 0.153287 0.085275 -0.278802
    14 1.196321 0.000000 -0.000002 0.180294 0.096657 -0.752368
    15 3.880859 -0.043091 0.427490 0.173079 -0.231527 -0.230358
    16 1.719578 0.000023 -0.000021 -0.117992 -0.078122 -0.544672
    17 1.209181 -0.000004 -0.000001 0.107095 -0.099106 -1.066298
    18 3.863479 -0.132591 1.332139 0.122645 -0.490081 0.180207
    19 1.719431 -0.000023 0.000019 -0.064567 -0.187936 -1.115688
    20 1.099676 0.000000 0.000006 -0.031266 0.008359 -0.587033
    21 0.807586 -0.343252 1.316677 -1.342788 -0.268021 -0.682746
    22 1.789787 0.000006 0.000006 0.075450 -0.418764 0.038983
    23 1.207012 0.000011 0.000000 0.091043 0.020179 0.085889
    24 2.035156 0.997070 -1.937500 -1.667267 1.282923 2.944210
    25 6.028144 -0.000011 0.000002 1.564095 0.793333 -0.843532
    26 11.165218 -0.250006 -0.253910 0.272261 -0.414008 -0.917008
    27 11.481657 0.000043 0.000019 -1.183853 0.520532 0.156063
    28 3.854334 -0.131699 1.199994 0.887977 0.041686 -0.500120
    29 1.312567 0.000000 0.000000 -0.076006 -0.203868 -0.258727
    30 0.729362 0.000004 0.000003 -0.250341 -0.135455 -0.179419
    31 3.941981 0.050872 0.435162 0.216346 -0.007336 -0.093776
    32 1.539089 0.000008 0.000003 -0.605562 0.126574 -1.244849
    33 1.196316 0.000004 0.000005 0.000000 -0.000162 -0.332870
    34 3.880859 -0.047028 -0.427490 0.051056 0.262892 -0.068599
    35 1.719567 0.000023 0.000016 -0.461231 0.032293 -1.105404
    36 1.209175 0.000008 0.000005 0.175617 0.055179 -0.367832
    37 3.863493 -0.148186 -1.324350 -0.134961 0.400676 -0.397685
    38 1.719419 -0.000008 -0.000008 -0.082106 -0.002364 -0.236718
    39 1.099667 -0.000004 -0.000001 -0.188224 0.009145 -1.119518
    40 0.807595 -0.358881 -1.312777 1.243203 0.551773 -0.740643
    41 1.789783 -0.000002 -0.000002 -0.000009 0.003711 0.228604
    42 1.207001 0.000009 0.000000 -0.023897 -0.040066 0.269693
    43 3.775391 -5.484375 -0.527832 -2.248284 -0.133216 -1.641882
  time 18
    0 -0.000003 -13.531250 -29.421875 1.570788 0.000007 -0.000007
    1 0.000000 3.345131 -2.981898 1.570789 0.086301 1.570789
    2 4.015625 0.000003 0.000000 0.000000 0.000000 -0.029241
    3 3.520294 0.000005 -0.000006 0.000000 0.000000 0.100332
    4 8.929688 0.000001 0.000000 0.000000 0.000000 0.194095
    5 2.035156 0.997070 1.937500 1.596487 -1.284993 2.943127
    6 6.028159 -0.000069 0.000009 -1.515842 -0.850478 -0.883018
    7 12.188675 0.312555 -0.257809 -0.278943 0.535252 -0.920712
    8 11.481682 0.000088 -0.000031 1.230761 -0.562402 0.146359
    9 3.858219 -0.135628 -1.192206 -0.251095 0.104185 -0.118801
    10 1.312565 -0.000008 0.000000 -0.000002 0.054404 -0.409012
    11 0.729366 0.000002 -0.000002 -0.000001 0.040754 -0.240990
    12 3.941966 0.050853 -0.435186 -0.379709 -0.016674 -0.393832
    13 1.539091 0.000008 -0.000002 0.153287 0.085275 -0.278802
    14 1.196321 0.000000 -0.000002 0.180294 0.096657 -0.752368
    15 3.880859 -0.043091 0.427490 0.173079 -0.231527 -0.230358
    16 1.719578 0.000023 -0.000021 -0.117992 -0.078122 -0.544672
    17 1.209181 -0.000004 -0.000001 0.107095 -0.099106 -1.066298
    18 3.863479 -0.132591 1.332139 0.122645 -0.490081 0.180207
    19 1.719431 -0.000023 0.000019 -0.064567 -0.187936 -1.115688
    20 1.099676 0.000000 0.000006 -0.031266 0.008359 -0.587033
    21 0.807586 -0.343252 1.320583 -1.342788 -0.268033 -0.682746
    22 1.789787 0.000006 0.000006 0.075450 -0.418764 0.038983
    23 1.207012 0.000011 0.000000 0.091043 0.020179 0.085889
    24 2.035156 0.997070 -1.937500 -1.667267 1.282923 2.944210
    25 6.028144 -0.000011 0.000002 1.564095 0.793333 -0.843532
    26 11.161311 -0.253913 -0.257817 0.274131 -0.416397 -0.910847
    27 11.481657 0.000043 0.000019 -1.183853 0.520532 0.156063
    28 3.858240 -0.131699 1.199994 0.887977 0.041686 -0.500120
    29 1.312567 0.000000 0.000000 -0.076006 -0.203868 -0.258727
    30 0.729362 0.000004 0.000003 -0.250341 -0.135455 -0.179419
    31 3.941981 0.050872 0.435162 0.216346 -0.007336 -0.093776
    32 1.539089 0.000008 0.000003 -0.605562 0.126574 -1.244849
    33 1.196316 0.000004 0.000005 0.000000 -0.000162 -0.332870
    34 3.880859 -0.047028 -0.427490 0.051056 0.262892 -0.068599
    35 1.719567 0.000023 0.000016 -0.461231 0.032293 -1.105404
    36 1.209175 0.000008 0.000005 0.175617 0.055179 -0.367832
    37 3.867399 -0.148186 -1.324350 -0.134961 0.400676 -0.397685
    38 1.719419 -0.000008 -0.000008 -0.082106 -0.002364 -0.236718
    39 1.099667 -0.000004 -0.000001 -0.188224 0.009145 -1.119518
    40 0.811502 -0.358881 -1.312777 1.243203 0.551773 -0.740643
    41 1.789783 -0.000002 -0.000002 -0.000009 0.003711 0.228604
    42 1.207001 0.000009 0.000000 -0.023897 -0.040066 0.269693
    43 3.775391 -5.484375 -0.527832 -2.248284 -0.133216 -1.641882
end
