// Created by Crowbar 0.74
version 1
nodes
  0 "ValveBiped.Bip01" -1
  1 "ValveBiped.Bip01_Spine" 0
  2 "ValveBiped.Bip01_Spine1" 1
  3 "ValveBiped.Bip01_Spine2" 2
  4 "ValveBiped.Bip01_Spine4" 3
  5 "ValveBiped.Bip01_L_Clavicle" 4
  6 "ValveBiped.Bip01_L_UpperArm" 5
  7 "ValveBiped.Bip01_L_Forearm" 6
  8 "ValveBiped.Bip01_L_Hand" 7
  9 "ValveBiped.Bip01_L_Finger4" 8
  10 "ValveBiped.Bip01_L_Finger41" 9
  11 "ValveBiped.Bip01_L_Finger42" 10
  12 "ValveBiped.Bip01_L_Finger3" 8
  13 "ValveBiped.Bip01_L_Finger31" 12
  14 "ValveBiped.Bip01_L_Finger32" 13
  15 "ValveBiped.Bip01_L_Finger2" 8
  16 "ValveBiped.Bip01_L_Finger21" 15
  17 "ValveBiped.Bip01_L_Finger22" 16
  18 "ValveBiped.Bip01_L_Finger1" 8
  19 "ValveBiped.Bip01_L_Finger11" 18
  20 "ValveBiped.Bip01_L_Finger12" 19
  21 "ValveBiped.Bip01_L_Finger0" 8
  22 "ValveBiped.Bip01_L_Finger01" 21
  23 "ValveBiped.Bip01_L_Finger02" 22
  24 "ValveBiped.Bip01_R_Clavicle" 4
  25 "ValveBiped.Bip01_R_UpperArm" 24
  26 "ValveBiped.Bip01_R_Forearm" 25
  27 "ValveBiped.Bip01_R_Hand" 26
  28 "ValveBiped.Bip01_R_Finger4" 27
  29 "ValveBiped.Bip01_R_Finger41" 28
  30 "ValveBiped.Bip01_R_Finger42" 29
  31 "ValveBiped.Bip01_R_Finger3" 27
  32 "ValveBiped.Bip01_R_Finger31" 31
  33 "ValveBiped.Bip01_R_Finger32" 32
  34 "ValveBiped.Bip01_R_Finger2" 27
  35 "ValveBiped.Bip01_R_Finger21" 34
  36 "ValveBiped.Bip01_R_Finger22" 35
  37 "ValveBiped.Bip01_R_Finger1" 27
  38 "ValveBiped.Bip01_R_Finger11" 37
  39 "ValveBiped.Bip01_R_Finger12" 38
  40 "ValveBiped.Bip01_R_Finger0" 27
  41 "ValveBiped.Bip01_R_Finger01" 40
  42 "ValveBiped.Bip01_R_Finger02" 41
  43 "ValveBiped.Camera" 27
end
skeleton
  time 0
    0 0.000000 -0.533203 38.562500 1.570792 0.000003 -0.000003
    1 0.000000 3.345131 -2.981898 1.570796 0.083192 1.570795
    2 3.995834 -0.000004 -0.000003 0.000000 -0.000001 -0.028819
    3 3.520294 0.000005 -0.000006 0.000000 0.000000 0.097311
    4 8.921486 -0.000023 -0.000014 0.000000 0.000001 0.186405
    5 2.059525 0.977930 1.937663 1.589735 -1.286517 2.950158
    6 6.028159 -0.000069 0.000009 -1.573852 0.051605 -0.584889
    7 11.692566 0.000046 0.000011 -0.000002 0.000000 -0.060376
    8 11.481682 0.000088 -0.000031 1.568292 -0.038710 0.036026
    9 3.850407 0.126099 -1.223457 -0.363882 0.112047 -0.355498
    10 1.312565 -0.000008 0.000000 -0.000002 0.054404 -0.409012
    11 0.729366 0.000002 -0.000002 -0.000001 0.040754 -0.240990
    12 3.926340 0.316486 -0.462530 -0.101499 0.042182 -0.269683
    13 1.539091 0.000008 -0.000002 0.000000 0.003737 -0.247812
    14 1.196321 0.000000 -0.000002 -0.000001 0.006168 -0.430818
    15 3.881376 0.214695 0.400243 0.090105 -0.011419 -0.132542
    16 1.719578 0.000023 -0.000021 -0.000005 -0.020423 -0.365964
    17 1.209181 -0.000004 -0.000001 0.000001 -0.011427 -0.216116
    18 3.871292 0.117416 1.300888 0.320642 -0.041405 -0.125801
    19 1.719431 -0.000023 0.000019 0.000001 -0.106227 -0.347813
    20 1.099676 0.000000 0.000006 0.000004 -0.067955 -0.234890
    21 0.838837 -0.300282 1.312771 -1.243196 -0.551768 -0.740654
    22 1.789787 0.000006 0.000006 -0.000002 -0.003712 0.228604
    23 1.207012 0.000011 0.000000 -0.000001 -0.005667 0.362993
    24 2.059525 0.977934 -1.937662 -1.661572 1.286515 2.950150
    25 6.028144 -0.000011 0.000002 1.633730 -0.011884 -0.586789
    26 11.692577 0.000001 0.000004 0.000007 0.000000 -0.060376
    27 11.481657 0.000043 0.000019 -1.568296 0.038700 0.036028
    28 3.850428 0.126122 1.223433 0.363879 -0.112040 -0.355490
    29 1.312567 0.000000 0.000000 0.000003 -0.054403 -0.409012
    30 0.729362 0.000004 0.000003 0.000003 -0.040753 -0.240989
    31 3.926355 0.316505 0.462507 0.101498 -0.042175 -0.269674
    32 1.539089 0.000008 0.000003 0.000000 -0.003734 -0.247812
    33 1.196316 0.000004 0.000005 0.000002 -0.006168 -0.430819
    34 3.881388 0.214710 -0.400268 -0.090106 0.011422 -0.132529
    35 1.719567 0.000023 0.000016 0.000005 0.020428 -0.365969
    36 1.209175 0.000008 0.000005 0.000001 0.011427 -0.216117
    37 3.871305 0.117447 -1.300912 -0.320638 0.041414 -0.125803
    38 1.719419 -0.000008 -0.000008 -0.000004 0.106221 -0.347806
    39 1.099667 -0.000004 -0.000001 -0.000004 0.067957 -0.234889
    40 0.838846 -0.300285 -1.312777 1.243203 0.551773 -0.740643
    41 1.789783 -0.000002 -0.000002 -0.000009 0.003711 0.228604
    42 1.207001 0.000009 0.000000 0.000000 0.005667 0.362993
    43 -1.754572 -6.090916 0.038778 1.555189 -0.016469 -2.311228
end
