// Created by Crowbar 0.74
version 1
nodes
  0 "ValveBiped.Bip01" -1
  1 "ValveBiped.Bip01_Spine" 0
  2 "ValveBiped.Bip01_Spine1" 1
  3 "ValveBiped.Bip01_Spine2" 2
  4 "ValveBiped.Bip01_Spine4" 3
  5 "ValveBiped.Bip01_L_Clavicle" 4
  6 "ValveBiped.Bip01_L_UpperArm" 5
  7 "ValveBiped.Bip01_L_Forearm" 6
  8 "ValveBiped.Bip01_L_Hand" 7
  9 "ValveBiped.Bip01_L_Finger4" 8
  10 "ValveBiped.Bip01_L_Finger41" 9
  11 "ValveBiped.Bip01_L_Finger42" 10
  12 "ValveBiped.Bip01_L_Finger3" 8
  13 "ValveBiped.Bip01_L_Finger31" 12
  14 "ValveBiped.Bip01_L_Finger32" 13
  15 "ValveBiped.Bip01_L_Finger2" 8
  16 "ValveBiped.Bip01_L_Finger21" 15
  17 "ValveBiped.Bip01_L_Finger22" 16
  18 "ValveBiped.Bip01_L_Finger1" 8
  19 "ValveBiped.Bip01_L_Finger11" 18
  20 "ValveBiped.Bip01_L_Finger12" 19
  21 "ValveBiped.Bip01_L_Finger0" 8
  22 "ValveBiped.Bip01_L_Finger01" 21
  23 "ValveBiped.Bip01_L_Finger02" 22
  24 "ValveBiped.Bip01_R_Clavicle" 4
  25 "ValveBiped.Bip01_R_UpperArm" 24
  26 "ValveBiped.Bip01_R_Forearm" 25
  27 "ValveBiped.Bip01_R_Hand" 26
  28 "ValveBiped.Bip01_R_Finger4" 27
  29 "ValveBiped.Bip01_R_Finger41" 28
  30 "ValveBiped.Bip01_R_Finger42" 29
  31 "ValveBiped.Bip01_R_Finger3" 27
  32 "ValveBiped.Bip01_R_Finger31" 31
  33 "ValveBiped.Bip01_R_Finger32" 32
  34 "ValveBiped.Bip01_R_Finger2" 27
  35 "ValveBiped.Bip01_R_Finger21" 34
  36 "ValveBiped.Bip01_R_Finger22" 35
  37 "ValveBiped.Bip01_R_Finger1" 27
  38 "ValveBiped.Bip01_R_Finger11" 37
  39 "ValveBiped.Bip01_R_Finger12" 38
  40 "ValveBiped.Bip01_R_Finger0" 27
  41 "ValveBiped.Bip01_R_Finger01" 40
  42 "ValveBiped.Bip01_R_Finger02" 41
  43 "ValveBiped.Camera" 27
end
skeleton
  time 0
    0 -0.000003 -13.531250 -29.421875 1.570788 0.000007 -0.000007
    1 0.000000 3.345131 -2.981898 1.570789 0.086301 1.570789
    2 4.015625 0.000003 0.000000 0.000000 0.000000 -0.029241
    3 3.520294 0.000005 -0.000006 0.000000 0.000000 0.100332
    4 8.929688 0.000001 0.000000 0.000000 0.000000 0.194095
    5 2.035156 0.997070 1.937500 1.596487 -1.284993 2.943127
    6 6.028159 -0.000069 0.000009 -1.515842 -0.850478 -0.883018
    7 11.692566 0.000046 0.000011 0.029672 0.203986 -1.775448
    8 11.481682 0.000088 -0.000031 1.230761 -0.562402 0.146359
    9 3.854313 -0.135628 -1.192206 -0.251095 0.104185 -0.118801
    10 1.312565 -0.000008 0.000000 -0.000002 0.054404 -0.409012
    11 0.729366 0.000002 -0.000002 -0.000001 0.040754 -0.240990
    12 3.938059 0.050853 -0.435186 -0.379709 -0.016674 -0.393832
    13 1.539091 0.000008 -0.000002 0.153287 0.085275 -0.278802
    14 1.196321 0.000000 -0.000002 0.180294 0.096657 -0.752368
    15 3.880859 -0.043091 0.427490 0.173079 -0.231527 -0.230358
    16 1.719578 0.000023 -0.000021 -0.117992 -0.078122 -0.544672
    17 1.209181 -0.000004 -0.000001 0.107099 -0.099114 -1.066322
    18 3.863281 -0.136475 1.332031 0.122642 -0.490092 0.180231
    19 1.719431 -0.000023 0.000019 -0.064560 -0.187926 -1.115688
    20 1.099676 0.000000 0.000006 -0.031264 0.008351 -0.587033
    21 0.807586 -0.343252 1.320583 -1.342788 -0.268033 -0.682746
    22 1.789787 0.000006 0.000006 0.075450 -0.418764 0.038983
    23 1.207012 0.000011 0.000000 0.091043 0.020179 0.085889
    24 2.035156 0.997070 -1.937500 -1.667267 1.282923 2.944210
    25 6.028144 -0.000011 0.000002 1.564100 0.793325 -0.843523
    26 11.692577 0.000001 0.000004 -0.000400 -0.066958 -1.811950
    27 11.481657 0.000043 0.000019 -1.183853 0.520532 0.156063
    28 3.858240 -0.131699 1.199994 0.887977 0.041686 -0.500120
    29 1.312567 0.000000 0.000000 -0.076006 -0.203868 -0.258727
    30 0.729362 0.000004 0.000003 -0.250341 -0.135455 -0.179419
    31 3.941406 0.050842 0.431152 0.216355 -0.007330 -0.093769
    32 1.539089 0.000008 0.000003 -0.605562 0.126574 -1.244849
    33 1.196316 0.000004 0.000005 0.000000 -0.000162 -0.332870
    34 3.880859 -0.047028 -0.427490 0.051056 0.262892 -0.068599
    35 1.719567 0.000023 0.000016 -0.461231 0.032293 -1.105404
    36 1.209175 0.000008 0.000005 0.175617 0.055179 -0.367832
    37 3.867399 -0.148186 -1.324350 -0.134961 0.400676 -0.397685
    38 1.719419 -0.000008 -0.000008 -0.082106 -0.002364 -0.236718
    39 1.099667 -0.000004 -0.000001 -0.188224 0.009145 -1.119518
    40 0.807129 -0.358887 -1.316406 1.243203 0.551773 -0.740643
    41 1.789783 -0.000002 -0.000002 -0.000009 0.003711 0.228604
    42 1.207001 0.000009 0.000000 -0.023897 -0.040066 0.269681
    43 3.772941 -5.489335 -0.527645 4.034818 -0.133223 -1.641906
  time 1
    0 -0.000003 -13.531250 -29.421875 1.570788 0.000007 -0.000007
    1 0.000000 3.345131 -2.981898 1.570789 0.086301 1.570789
    2 4.015625 0.000003 0.000000 0.000000 0.000000 -0.029241
    3 3.520294 0.000005 -0.000006 0.000000 0.000000 0.100332
    4 8.929688 0.000001 0.000000 0.000000 0.000000 0.194095
    5 2.035156 0.997070 1.937500 1.596487 -1.284993 2.943127
    6 6.028159 -0.000069 0.000009 -1.511159 -0.841905 -0.884480
    7 11.692566 0.000046 0.000011 0.029672 0.203986 -1.775448
    8 11.481682 0.000088 -0.000031 1.230761 -0.562402 0.146359
    9 3.858219 -0.135628 -1.192206 -0.251095 0.104185 -0.118801
    10 1.312565 -0.000008 0.000000 -0.000002 0.054404 -0.409012
    11 0.729366 0.000002 -0.000002 -0.000001 0.040754 -0.240990
    12 3.941966 0.050853 -0.435186 -0.379709 -0.016674 -0.393832
    13 1.539091 0.000008 -0.000002 0.153287 0.085275 -0.278802
    14 1.196321 0.000000 -0.000002 0.180294 0.096657 -0.752368
    15 3.880859 -0.043091 0.427490 0.173079 -0.231527 -0.230358
    16 1.719578 0.000023 -0.000021 -0.117992 -0.078122 -0.544672
    17 1.209181 -0.000004 -0.000001 0.107099 -0.099114 -1.066322
    18 3.863281 -0.136475 1.332031 0.122642 -0.490092 0.180231
    19 1.719431 -0.000023 0.000019 -0.046248 -0.183683 -1.208057
    20 1.099676 0.000000 0.000006 -0.031264 0.008351 -0.587033
    21 0.807586 -0.343252 1.320583 -1.342788 -0.268033 -0.682746
    22 1.789787 0.000006 0.000006 0.075450 -0.418764 0.038983
    23 1.207012 0.000011 0.000000 0.091043 0.020179 0.085889
    24 2.035156 0.997070 -1.937500 -1.667267 1.282923 2.944210
    25 6.028144 -0.000011 0.000002 1.558838 0.785149 -0.849455
    26 11.692577 0.000001 0.000004 -0.000400 -0.066958 -1.811950
    27 11.481657 0.000043 0.000019 -1.183853 0.520532 0.156063
    28 3.854334 -0.131699 1.199994 0.887977 0.041686 -0.500120
    29 1.312567 0.000000 0.000000 -0.076006 -0.203868 -0.258727
    30 0.729362 0.000004 0.000003 -0.250341 -0.135455 -0.179419
    31 3.941406 0.050842 0.431152 0.216355 -0.007330 -0.093769
    32 1.539089 0.000008 0.000003 -0.605562 0.126574 -1.244879
    33 1.196316 0.000004 0.000005 0.000000 -0.000162 -0.332870
    34 3.880859 -0.047028 -0.427490 0.051056 0.262892 -0.068599
    35 1.719567 0.000023 0.000016 -0.461231 0.032293 -1.105426
    36 1.209175 0.000008 0.000005 0.175617 0.055179 -0.367832
    37 3.863493 -0.148186 -1.324350 -0.134961 0.400676 -0.397685
    38 1.719419 -0.000008 -0.000008 -0.082106 -0.002364 -0.236718
    39 1.099667 -0.000004 -0.000001 -0.188224 0.009145 -1.119518
    40 0.807129 -0.358887 -1.316406 1.243203 0.551773 -0.740643
    41 1.789783 -0.000002 -0.000002 -0.000009 0.003711 0.228604
    42 1.207001 0.000009 0.000000 -0.023897 -0.040066 0.269693
    43 3.772941 -5.489335 -0.527645 4.034818 -0.133223 -1.641906
  time 2
    0 -0.000003 -13.531250 -29.421875 1.570788 0.000007 -0.000007
    1 0.000000 3.345131 -2.981898 1.570789 0.086301 1.570789
    2 4.015625 0.000003 0.000000 0.000000 0.000000 -0.029241
    3 3.520294 0.000005 -0.000006 0.000000 0.000000 0.100332
    4 8.929688 0.000001 0.000000 0.000000 0.000000 0.194095
    5 2.035156 0.997070 1.937500 1.596487 -1.284993 2.943127
    6 6.028159 -0.000069 0.000009 -1.501829 -0.828066 -0.893444
    7 11.692566 0.000046 0.000011 0.029672 0.203986 -1.775448
    8 11.481682 0.000088 -0.000031 1.230761 -0.562402 0.146359
    9 3.858219 -0.135628 -1.192206 -0.251095 0.104185 -0.118801
    10 1.312565 -0.000008 0.000000 -0.000002 0.054404 -0.409012
    11 0.729366 0.000002 -0.000002 -0.000001 0.040754 -0.240990
    12 3.941966 0.050853 -0.435186 -0.379709 -0.016674 -0.393832
    13 1.539091 0.000008 -0.000002 0.153287 0.085275 -0.278802
    14 1.196321 0.000000 -0.000002 0.180294 0.096657 -0.752368
    15 3.880859 -0.043091 0.427490 0.173079 -0.231527 -0.230358
    16 1.719578 0.000023 -0.000021 -0.117992 -0.078122 -0.544672
    17 1.209181 -0.000004 -0.000001 0.107099 -0.099114 -1.066322
    18 3.863281 -0.136475 1.332031 0.122642 -0.490092 0.180231
    19 1.719431 -0.000023 0.000019 -0.027827 -0.178602 -1.304558
    20 1.099676 0.000000 0.000006 -0.031264 0.008351 -0.587033
    21 0.807586 -0.343252 1.320583 -1.342788 -0.268021 -0.682746
    22 1.789787 0.000006 0.000006 0.075450 -0.418764 0.038983
    23 1.207012 0.000011 0.000000 0.091043 0.020179 0.085889
    24 2.035156 0.997070 -1.937500 -1.667267 1.282923 2.944210
    25 6.028144 -0.000011 0.000002 1.549718 0.771276 -0.854153
    26 11.692577 0.000001 0.000004 -0.000400 -0.066958 -1.811950
    27 11.481657 0.000043 0.000019 -1.183853 0.520532 0.156063
    28 3.854334 -0.131699 1.199994 0.887977 0.041686 -0.500120
    29 1.312567 0.000000 0.000000 -0.076006 -0.203868 -0.258727
    30 0.729362 0.000004 0.000003 -0.250341 -0.135455 -0.179419
    31 3.941406 0.050842 0.431152 0.216355 -0.007330 -0.093769
    32 1.539089 0.000008 0.000003 -0.605562 0.126574 -1.244879
    33 1.196316 0.000004 0.000005 0.000000 -0.000162 -0.332870
    34 3.880859 -0.047028 -0.427490 0.051056 0.262892 -0.068599
    35 1.719567 0.000023 0.000016 -0.461231 0.032293 -1.105404
    36 1.209175 0.000008 0.000005 0.175617 0.055179 -0.367832
    37 3.863493 -0.148186 -1.324350 -0.134961 0.400676 -0.397685
    38 1.719419 -0.000008 -0.000008 -0.082106 -0.002364 -0.236718
    39 1.099667 -0.000004 -0.000001 -0.188224 0.009145 -1.119518
    40 0.807129 -0.358887 -1.316406 1.243203 0.551773 -0.740643
    41 1.789783 -0.000002 -0.000002 -0.000009 0.003711 0.228604
    42 1.207001 0.000009 0.000000 -0.023897 -0.040066 0.269693
    43 3.772941 -5.489335 -0.527645 4.034818 -0.133223 -1.641906
  time 3
    0 -0.000003 -13.531250 -29.421875 1.570788 0.000007 -0.000007
    1 0.000000 3.345131 -2.981898 1.570789 0.086301 1.570789
    2 4.015625 0.000003 0.000000 0.000000 0.000000 -0.029241
    3 3.520294 0.000005 -0.000006 0.000000 0.000000 0.100332
    4 8.929688 0.000001 0.000000 0.000000 0.000000 0.194095
    5 2.035156 0.997070 1.937500 1.596487 -1.284993 2.943127
    6 6.059410 -0.121166 0.000009 -1.493891 -0.820617 -0.918181
    7 11.692566 0.000046 0.000011 0.029672 0.203986 -1.775448
    8 11.481682 0.000088 -0.000031 1.230761 -0.562419 0.146359
    9 3.858219 -0.135628 -1.192206 -0.251095 0.104185 -0.118801
    10 1.312565 -0.000008 0.000000 -0.000002 0.054404 -0.409012
    11 0.729366 0.000002 -0.000002 -0.000001 0.040754 -0.240990
    12 3.938059 0.050853 -0.435186 -0.379709 -0.016674 -0.393832
    13 1.539091 0.000008 -0.000002 0.153287 0.085275 -0.278802
    14 1.196321 0.000000 -0.000002 0.180294 0.096657 -0.752368
    15 3.880859 -0.043091 0.427490 0.173079 -0.231527 -0.230358
    16 1.719578 0.000023 -0.000021 -0.117992 -0.078122 -0.544672
    17 1.209181 -0.000004 -0.000001 0.107099 -0.099114 -1.066322
    18 3.863281 -0.136475 1.332031 0.122642 -0.490092 0.180231
    19 1.719431 -0.000023 0.000019 -0.027012 -0.178326 -1.308927
    20 1.099676 0.000000 0.000006 -0.031264 0.008351 -0.587033
    21 0.807586 -0.343252 1.320583 -1.342788 -0.268033 -0.682746
    22 1.789787 0.000006 0.000006 0.075450 -0.418764 0.038983
    23 1.207012 0.000011 0.000000 0.091043 0.020179 0.085889
    24 2.035156 0.997070 -1.937500 -1.667267 1.282923 2.944210
    25 5.992987 0.121086 0.007815 1.544325 0.761218 -0.839400
    26 11.692577 0.000001 0.000004 -0.000400 -0.066958 -1.811950
    27 11.481657 0.000043 0.000019 -1.183853 0.520532 0.156063
    28 3.858240 -0.131699 1.199994 0.887977 0.041686 -0.500120
    29 1.312567 0.000000 0.000000 -0.076006 -0.203868 -0.258727
    30 0.729362 0.000004 0.000003 -0.250341 -0.135455 -0.179419
    31 3.941406 0.050842 0.431152 0.216355 -0.007330 -0.093769
    32 1.539089 0.000008 0.000003 -0.605562 0.126574 -1.244849
    33 1.196316 0.000004 0.000005 0.000000 -0.000162 -0.332870
    34 3.880859 -0.047028 -0.427490 0.051056 0.262892 -0.068599
    35 1.719567 0.000023 0.000016 -0.461231 0.032293 -1.105404
    36 1.209175 0.000008 0.000005 0.175617 0.055179 -0.367832
    37 3.867399 -0.148186 -1.324350 -0.134961 0.400676 -0.397685
    38 1.719419 -0.000008 -0.000008 -0.082106 -0.002364 -0.236718
    39 1.099667 -0.000004 -0.000001 -0.188224 0.009145 -1.119518
    40 0.807129 -0.358887 -1.316406 1.243203 0.551773 -0.740643
    41 1.789783 -0.000002 -0.000002 -0.000009 0.003711 0.228604
    42 1.207001 0.000009 0.000000 -0.023897 -0.040066 0.269693
    43 3.772941 -5.489335 -0.527645 4.034818 -0.133223 -1.641906
  time 4
    0 -0.000003 -13.531250 -29.421875 1.570788 0.000007 -0.000007
    1 0.000000 3.345131 -2.981898 1.570789 0.086301 1.570789
    2 4.015625 0.000003 0.000000 0.000000 0.000000 -0.029241
    3 3.520294 0.000005 -0.000006 0.000000 0.000000 0.100332
    4 8.929688 0.000001 0.000000 0.000000 0.000000 0.194095
    5 2.035156 0.997070 1.937500 1.596487 -1.284993 2.943127
    6 6.094567 -0.246170 0.000009 -1.493007 -0.813874 -0.933677
    7 11.692566 0.000046 0.000011 0.029672 0.203986 -1.775448
    8 11.481682 0.000088 -0.000031 1.230761 -0.562402 0.146359
    9 3.858219 -0.135628 -1.192206 -0.251095 0.104185 -0.118801
    10 1.312565 -0.000008 0.000000 -0.000002 0.054404 -0.409012
    11 0.729366 0.000002 -0.000002 -0.000001 0.040754 -0.240990
    12 3.941966 0.050853 -0.435186 -0.379709 -0.016674 -0.393832
    13 1.539091 0.000008 -0.000002 0.153287 0.085275 -0.278802
    14 1.196321 0.000000 -0.000002 0.180294 0.096657 -0.752368
    15 3.880859 -0.043091 0.427490 0.173079 -0.231527 -0.230358
    16 1.719578 0.000023 -0.000021 -0.117992 -0.078122 -0.544672
    17 1.209181 -0.000004 -0.000001 0.107099 -0.099114 -1.066322
    18 3.863281 -0.136475 1.332031 0.122642 -0.490092 0.180231
    19 1.719431 -0.000023 0.000019 -0.026761 -0.178242 -1.310205
    20 1.099676 0.000000 0.000006 -0.031264 0.008351 -0.587033
    21 0.807586 -0.343252 1.320583 -1.342788 -0.268033 -0.682746
    22 1.789787 0.000006 0.000006 0.075450 -0.418764 0.038983
    23 1.207012 0.000011 0.000000 0.091043 0.020179 0.085889
    24 2.035156 0.997070 -1.937500 -1.667267 1.282923 2.944210
    25 5.953923 0.246090 0.015628 1.543282 0.755174 -0.825642
    26 11.692577 0.000001 0.000004 -0.000400 -0.066958 -1.811950
    27 11.481657 0.000043 0.000019 -1.183853 0.520532 0.156063
    28 3.854334 -0.131699 1.199994 0.887977 0.041686 -0.500120
    29 1.312567 0.000000 0.000000 -0.076006 -0.203868 -0.258727
    30 0.729362 0.000004 0.000003 -0.250341 -0.135455 -0.179419
    31 3.941406 0.050842 0.431152 0.216355 -0.007330 -0.093769
    32 1.539089 0.000008 0.000003 -0.605562 0.126574 -1.244879
    33 1.196316 0.000004 0.000005 0.000000 -0.000162 -0.332870
    34 3.880859 -0.047028 -0.427490 0.051056 0.262892 -0.068599
    35 1.719567 0.000023 0.000016 -0.461231 0.032293 -1.105404
    36 1.209175 0.000008 0.000005 0.175617 0.055179 -0.367832
    37 3.867399 -0.148186 -1.324350 -0.134961 0.400676 -0.397685
    38 1.719419 -0.000008 -0.000008 -0.082106 -0.002364 -0.236718
    39 1.099667 -0.000004 -0.000001 -0.188224 0.009145 -1.119518
    40 0.807129 -0.358887 -1.316406 1.243203 0.551773 -0.740643
    41 1.789783 -0.000002 -0.000002 -0.000009 0.003711 0.228604
    42 1.207001 0.000009 0.000000 -0.023897 -0.040066 0.269693
    43 3.772941 -5.489335 -0.527645 4.034818 -0.133223 -1.641906
  time 5
    0 -0.000003 -13.531250 -29.421875 1.570788 0.000007 -0.000007
    1 0.000000 3.345131 -2.981898 1.570789 0.086301 1.570789
    2 4.015625 0.000003 0.000000 0.000000 0.000000 -0.029241
    3 3.520294 0.000005 -0.000006 0.000000 0.000000 0.100332
    4 8.929688 0.000001 0.000000 0.000000 0.000000 0.194095
    5 2.035156 0.997070 1.937500 1.596487 -1.284993 2.943127
    6 6.043785 -0.058664 0.000009 -1.490092 -0.804947 -0.912871
    7 11.692566 0.000046 0.000011 0.029672 0.203986 -1.775448
    8 11.481682 0.000088 -0.000031 1.230761 -0.562402 0.146359
    9 3.854313 -0.139534 -1.192206 -0.251095 0.104185 -0.118801
    10 1.312565 -0.000008 0.000000 -0.000002 0.054404 -0.409012
    11 0.729366 0.000002 -0.000002 -0.000001 0.040754 -0.240990
    12 3.938059 0.050853 -0.435186 -0.379709 -0.016674 -0.393832
    13 1.539091 0.000008 -0.000002 0.153287 0.085275 -0.278802
    14 1.196321 0.000000 -0.000002 0.180294 0.096657 -0.752368
    15 3.880859 -0.043091 0.427490 0.173079 -0.231527 -0.230358
    16 1.719578 0.000023 -0.000021 -0.117992 -0.078122 -0.544672
    17 1.209181 -0.000004 -0.000001 0.107099 -0.099114 -1.066322
    18 3.863281 -0.136475 1.332031 0.122642 -0.490092 0.180231
    19 1.719431 -0.000023 0.000019 -0.026545 -0.178170 -1.311423
    20 1.099676 0.000000 0.000006 -0.031887 0.006949 -0.589849
    21 0.807586 -0.343252 1.320583 -1.342788 -0.268033 -0.682746
    22 1.789787 0.000006 0.000006 0.075450 -0.418764 0.038983
    23 1.207012 0.000011 0.000000 0.091043 0.020179 0.085889
    24 2.035156 0.997070 -1.937500 -1.667267 1.282923 2.944210
    25 5.992987 0.121086 0.007815 1.537062 0.751532 -0.844985
    26 11.692577 0.000001 0.000004 -0.000400 -0.066958 -1.811950
    27 11.481657 0.000043 0.000019 -1.183853 0.520532 0.156063
    28 3.854334 -0.131699 1.199994 0.887977 0.041686 -0.500120
    29 1.312567 0.000000 0.000000 -0.076006 -0.203868 -0.258727
    30 0.729362 0.000004 0.000003 -0.250341 -0.135455 -0.179419
    31 3.941406 0.050842 0.431152 0.216355 -0.007330 -0.093769
    32 1.539089 0.000008 0.000003 -0.605562 0.126574 -1.244849
    33 1.196316 0.000004 0.000005 0.000000 -0.000162 -0.332870
    34 3.880859 -0.047028 -0.427490 0.051056 0.262892 -0.068599
    35 1.719567 0.000023 0.000016 -0.461231 0.032293 -1.105404
    36 1.209175 0.000008 0.000005 0.175617 0.055179 -0.367832
    37 3.867399 -0.148186 -1.324350 -0.134961 0.400676 -0.397685
    38 1.719419 -0.000008 -0.000008 -0.082106 -0.002364 -0.236718
    39 1.099667 -0.000004 -0.000001 -0.188224 0.009145 -1.119518
    40 0.807129 -0.358887 -1.316406 1.243203 0.551773 -0.740643
    41 1.789783 -0.000002 -0.000002 -0.000009 0.003711 0.228604
    42 1.207001 0.000009 0.000000 -0.023897 -0.040066 0.269693
    43 3.772941 -5.489335 -0.527645 4.034818 -0.133223 -1.641906
  time 6
    0 -0.000003 -13.531250 -29.421875 1.570788 0.000007 -0.000007
    1 0.000000 3.345131 -2.981898 1.570789 0.086301 1.570789
    2 4.015625 0.000003 0.000000 0.000000 0.000000 -0.029241
    3 3.520294 0.000005 -0.000006 0.000000 0.000000 0.100332
    4 8.929688 0.000001 0.000000 0.000000 0.000000 0.194095
    5 2.035156 0.997070 1.937500 1.596487 -1.284993 2.943127
    6 6.028159 -0.000069 0.000009 -1.486894 -0.806103 -0.904674
    7 11.692566 0.000046 0.000011 0.029672 0.203986 -1.775448
    8 11.481682 0.000088 -0.000031 1.230761 -0.562402 0.146359
    9 3.858219 -0.135628 -1.192206 -0.251095 0.104185 -0.118801
    10 1.312565 -0.000008 0.000000 -0.000002 0.054404 -0.409012
    11 0.729366 0.000002 -0.000002 -0.000001 0.040754 -0.240990
    12 3.938059 0.050853 -0.435186 -0.379709 -0.016674 -0.393832
    13 1.539091 0.000008 -0.000002 0.153287 0.085275 -0.278802
    14 1.196321 0.000000 -0.000002 0.180294 0.096657 -0.752368
    15 3.880859 -0.043091 0.427490 0.173079 -0.231527 -0.230358
    16 1.719578 0.000023 -0.000021 -0.117992 -0.078122 -0.544672
    17 1.209181 -0.000004 -0.000001 0.107099 -0.099114 -1.066322
    18 3.863281 -0.136475 1.332031 0.122642 -0.490092 0.180231
    19 1.719431 -0.000023 0.000019 -0.026305 -0.178087 -1.312701
    20 1.099676 0.000000 0.000006 -0.024828 -0.012586 -0.435524
    21 0.807586 -0.343252 1.320583 -1.342788 -0.268021 -0.682746
    22 1.789787 0.000006 0.000006 0.075450 -0.418764 0.038983
    23 1.207012 0.000011 0.000000 0.091043 0.020179 0.085889
    24 2.035156 0.997070 -1.937500 -1.667267 1.282923 2.944210
    25 6.028144 -0.000011 0.000002 1.535924 0.749278 -0.864508
    26 11.692577 0.000001 0.000004 -0.000400 -0.066958 -1.811950
    27 11.481657 0.000043 0.000019 -1.183853 0.520532 0.156063
    28 3.858240 -0.131699 1.199994 0.887977 0.041686 -0.500120
    29 1.312567 0.000000 0.000000 -0.076006 -0.203868 -0.258727
    30 0.729362 0.000004 0.000003 -0.250341 -0.135455 -0.179419
    31 3.941406 0.050842 0.431152 0.216355 -0.007330 -0.093769
    32 1.539089 0.000008 0.000003 -0.605562 0.126574 -1.244849
    33 1.196316 0.000004 0.000005 0.000000 -0.000162 -0.332870
    34 3.880859 -0.047028 -0.427490 0.051056 0.262892 -0.068599
    35 1.719567 0.000023 0.000016 -0.461231 0.032293 -1.105404
    36 1.209175 0.000008 0.000005 0.175617 0.055179 -0.367832
    37 3.867399 -0.148186 -1.324350 -0.134961 0.400676 -0.397685
    38 1.719419 -0.000008 -0.000008 -0.082106 -0.002364 -0.236718
    39 1.099667 -0.000004 -0.000001 -0.188224 0.009145 -1.119518
    40 0.807129 -0.358887 -1.316406 1.243203 0.551773 -0.740643
    41 1.789783 -0.000002 -0.000002 -0.000009 0.003711 0.228604
    42 1.207001 0.000009 0.000000 -0.023897 -0.040066 0.269693
    43 3.772941 -5.489335 -0.527645 4.034818 -0.133223 -1.641906
  time 7
    0 -0.000003 -13.531250 -29.421875 1.570788 0.000007 -0.000007
    1 0.000000 3.345131 -2.981898 1.570789 0.086301 1.570789
    2 4.015625 0.000003 0.000000 0.000000 0.000000 -0.029241
    3 3.520294 0.000005 -0.000006 0.000000 0.000000 0.100332
    4 8.929688 0.000001 0.000000 0.000000 0.000000 0.194095
    5 2.035156 0.997070 1.937500 1.596487 -1.284993 2.943127
    6 6.028159 -0.000069 0.000009 -1.492631 -0.819396 -0.897303
    7 11.692566 0.000046 0.000011 0.029672 0.203986 -1.775500
    8 11.481682 0.000088 -0.000031 1.230761 -0.562402 0.146359
    9 3.858219 -0.135628 -1.192206 -0.251095 0.104185 -0.118801
    10 1.312565 -0.000008 0.000000 -0.000002 0.054404 -0.409012
    11 0.729366 0.000002 -0.000002 -0.000001 0.040754 -0.240990
    12 3.941966 0.050853 -0.435186 -0.379709 -0.016674 -0.393832
    13 1.539091 0.000008 -0.000002 0.153287 0.085275 -0.278802
    14 1.196321 0.000000 -0.000002 0.180294 0.096657 -0.752368
    15 3.880859 -0.043091 0.427490 0.173079 -0.231527 -0.230358
    16 1.719578 0.000023 -0.000021 -0.117992 -0.078122 -0.544672
    17 1.209181 -0.000004 -0.000001 0.107099 -0.099114 -1.066322
    18 3.863281 -0.136475 1.332031 0.122642 -0.490092 0.180231
    19 1.719431 -0.000023 0.000019 -0.025730 -0.177895 -1.315792
    20 1.099676 0.000000 0.000006 -0.023666 -0.015139 -0.398707
    21 0.807586 -0.343252 1.320583 -1.342788 -0.268033 -0.682746
    22 1.789787 0.000006 0.000006 0.075450 -0.418764 0.038983
    23 1.207012 0.000011 0.000000 0.091043 0.020179 0.085889
    24 2.035156 0.997070 -1.937500 -1.667267 1.282923 2.944210
    25 6.028144 -0.000011 0.000002 1.545535 0.760401 -0.860493
    26 11.692577 0.000001 0.000004 -0.000400 -0.066958 -1.811950
    27 11.481657 0.000043 0.000019 -1.183853 0.520532 0.156063
    28 3.858240 -0.131699 1.199994 0.887977 0.041686 -0.500120
    29 1.312567 0.000000 0.000000 -0.076006 -0.203868 -0.258727
    30 0.729362 0.000004 0.000003 -0.250341 -0.135455 -0.179419
    31 3.941406 0.050842 0.431152 0.216355 -0.007330 -0.093769
    32 1.539089 0.000008 0.000003 -0.605562 0.126574 -1.244849
    33 1.196316 0.000004 0.000005 0.000000 -0.000162 -0.332870
    34 3.880859 -0.047028 -0.427490 0.051056 0.262892 -0.068599
    35 1.719567 0.000023 0.000016 -0.461231 0.032293 -1.105404
    36 1.209175 0.000008 0.000005 0.175617 0.055179 -0.367832
    37 3.867399 -0.148186 -1.324350 -0.134961 0.400676 -0.397685
    38 1.719419 -0.000008 -0.000008 -0.082106 -0.002364 -0.236718
    39 1.099667 -0.000004 -0.000001 -0.188224 0.009145 -1.119518
    40 0.807129 -0.358887 -1.316406 1.243203 0.551773 -0.740643
    41 1.789783 -0.000002 -0.000002 -0.000009 0.003711 0.228604
    42 1.207001 0.000009 0.000000 -0.023897 -0.040066 0.269693
    43 3.772941 -5.489335 -0.527645 4.034818 -0.133223 -1.641906
  time 8
    0 -0.000003 -13.531250 -29.421875 1.570788 0.000007 -0.000007
    1 0.000000 3.345131 -2.981898 1.570789 0.086301 1.570789
    2 4.015625 0.000003 0.000000 0.000000 0.000000 -0.029241
    3 3.520294 0.000005 -0.000006 0.000000 0.000000 0.100332
    4 8.929688 0.000001 0.000000 0.000000 0.000000 0.194095
    5 2.035156 0.997070 1.937500 1.596487 -1.284993 2.943127
    6 6.028159 -0.000069 0.000009 -1.515767 -0.850575 -0.882946
    7 11.692566 0.000046 0.000011 0.029672 0.203986 -1.775448
    8 11.481682 0.000088 -0.000031 1.230761 -0.562402 0.146359
    9 3.854313 -0.135628 -1.192206 -0.251095 0.104185 -0.118801
    10 1.312565 -0.000008 0.000000 -0.000002 0.054404 -0.409012
    11 0.729366 0.000002 -0.000002 -0.000001 0.040754 -0.240990
    12 3.938059 0.050853 -0.435186 -0.379709 -0.016674 -0.393832
    13 1.539091 0.000008 -0.000002 0.153287 0.085275 -0.278802
    14 1.196321 0.000000 -0.000002 0.180294 0.096657 -0.752368
    15 3.880859 -0.043091 0.427490 0.173079 -0.231527 -0.230358
    16 1.719578 0.000023 -0.000021 -0.117992 -0.078122 -0.544672
    17 1.209181 -0.000004 -0.000001 0.107099 -0.099114 -1.066322
    18 3.863281 -0.136475 1.332031 0.122642 -0.490092 0.180231
    19 1.719431 -0.000023 0.000019 -0.024627 -0.177511 -1.321677
    20 1.099676 0.000000 0.000006 -0.024229 -0.010069 -0.382732
    21 0.807586 -0.343252 1.320583 -1.342788 -0.268033 -0.682746
    22 1.789787 0.000006 0.000006 0.075450 -0.418764 0.038983
    23 1.207012 0.000011 0.000000 0.091043 0.020179 0.085889
    24 2.035156 0.997070 -1.937500 -1.667267 1.282923 2.944210
    25 6.028144 -0.000011 0.000002 1.564255 0.793374 -0.843547
    26 11.692577 0.000001 0.000004 -0.000400 -0.066958 -1.811950
    27 11.481657 0.000043 0.000019 -1.183853 0.520532 0.156063
    28 3.854334 -0.131699 1.199994 0.887977 0.041686 -0.500120
    29 1.312567 0.000000 0.000000 -0.076006 -0.203868 -0.258727
    30 0.729362 0.000004 0.000003 -0.250341 -0.135455 -0.179419
    31 3.941406 0.050842 0.431152 0.216355 -0.007330 -0.093769
    32 1.539089 0.000008 0.000003 -0.605562 0.126574 -1.244849
    33 1.196316 0.000004 0.000005 0.000000 -0.000162 -0.332870
    34 3.880859 -0.047028 -0.427490 0.051056 0.262892 -0.068599
    35 1.719567 0.000023 0.000016 -0.461231 0.032293 -1.105404
    36 1.209175 0.000008 0.000005 0.175617 0.055179 -0.367832
    37 3.867399 -0.148186 -1.324350 -0.134961 0.400676 -0.397685
    38 1.719419 -0.000008 -0.000008 -0.082106 -0.002364 -0.236718
    39 1.099667 -0.000004 -0.000001 -0.188224 0.009145 -1.119518
    40 0.807129 -0.358887 -1.316406 1.243203 0.551773 -0.740643
    41 1.789783 -0.000002 -0.000002 -0.000009 0.003711 0.228604
    42 1.207001 0.000009 0.000000 -0.023897 -0.040066 0.269693
    43 3.772941 -5.489335 -0.527645 4.034818 -0.133223 -1.641906
  time 9
    0 -0.000003 -13.531250 -29.421875 1.570788 0.000007 -0.000007
    1 0.000000 3.345131 -2.981898 1.570789 0.086301 1.570789
    2 4.015625 0.000003 0.000000 0.000000 0.000000 -0.029241
    3 3.520294 0.000005 -0.000006 0.000000 0.000000 0.100332
    4 8.929688 0.000001 0.000000 0.000000 0.000000 0.194095
    5 2.035156 0.997070 1.937500 1.596487 -1.284993 2.943127
    6 6.028159 -0.000069 0.000009 -1.515842 -0.850543 -0.882958
    7 11.692566 0.000046 0.000011 0.029672 0.203986 -1.775448
    8 11.481682 0.000088 -0.000031 1.230761 -0.562419 0.146359
    9 3.858219 -0.135628 -1.192206 -0.251095 0.104185 -0.118801
    10 1.312565 -0.000008 0.000000 -0.000002 0.054404 -0.409012
    11 0.729366 0.000002 -0.000002 -0.000001 0.040754 -0.240990
    12 3.941966 0.050853 -0.435186 -0.379709 -0.016674 -0.393832
    13 1.539091 0.000008 -0.000002 0.153287 0.085275 -0.278802
    14 1.196321 0.000000 -0.000002 0.180294 0.096657 -0.752368
    15 3.880859 -0.043091 0.427490 0.173079 -0.231527 -0.230358
    16 1.719578 0.000023 -0.000021 -0.117992 -0.078122 -0.544672
    17 1.209181 -0.000004 -0.000001 0.107099 -0.099114 -1.066322
    18 3.863281 -0.136475 1.332031 0.122642 -0.490092 0.180231
    19 1.719431 -0.000023 0.000019 -0.031207 -0.179621 -1.286667
    20 1.099676 0.000000 0.000006 -0.024361 -0.008835 -0.387837
    21 0.807586 -0.343252 1.320583 -1.342788 -0.268033 -0.682746
    22 1.789787 0.000006 0.000006 0.075450 -0.418764 0.038983
    23 1.207012 0.000011 0.000000 0.091043 0.020179 0.085889
    24 2.035156 0.997070 -1.937500 -1.667267 1.282923 2.944210
    25 6.028144 -0.000011 0.000002 1.564219 0.793374 -0.843535
    26 11.692577 0.000001 0.000004 -0.000400 -0.066958 -1.811950
    27 11.481657 0.000043 0.000019 -1.183853 0.520532 0.156063
    28 3.858240 -0.131699 1.199994 0.887977 0.041686 -0.500120
    29 1.312567 0.000000 0.000000 -0.076006 -0.203868 -0.258727
    30 0.729362 0.000004 0.000003 -0.250341 -0.135455 -0.179419
    31 3.941406 0.050842 0.431152 0.216355 -0.007330 -0.093769
    32 1.539089 0.000008 0.000003 -0.605562 0.126574 -1.244849
    33 1.196316 0.000004 0.000005 0.000000 -0.000162 -0.332870
    34 3.880859 -0.047028 -0.427490 0.051056 0.262892 -0.068599
    35 1.719567 0.000023 0.000016 -0.461231 0.032293 -1.105404
    36 1.209175 0.000008 0.000005 0.175617 0.055179 -0.367832
    37 3.867399 -0.148186 -1.324350 -0.134961 0.400676 -0.397685
    38 1.719419 -0.000008 -0.000008 -0.082106 -0.002364 -0.236718
    39 1.099667 -0.000004 -0.000001 -0.188224 0.009145 -1.119518
    40 0.807129 -0.358887 -1.316406 1.243203 0.551773 -0.740643
    41 1.789783 -0.000002 -0.000002 -0.000009 0.003711 0.228604
    42 1.207001 0.000009 0.000000 -0.023897 -0.040066 0.269693
    43 3.772941 -5.489335 -0.527645 4.034894 -0.133223 -1.641906
  time 10
    0 -0.000003 -13.531250 -29.421875 1.570788 0.000007 -0.000007
    1 0.000000 3.345131 -2.981898 1.570789 0.086301 1.570789
    2 4.015625 0.000003 0.000000 0.000000 0.000000 -0.029241
    3 3.520294 0.000005 -0.000006 0.000000 0.000000 0.100332
    4 8.929688 0.000001 0.000000 0.000000 0.000000 0.194095
    5 2.035156 0.997070 1.937500 1.596487 -1.284993 2.943127
    6 6.028159 -0.000069 0.000009 -1.515842 -0.850510 -0.882994
    7 11.692566 0.000046 0.000011 0.029672 0.203986 -1.775448
    8 11.481682 0.000088 -0.000031 1.230761 -0.562402 0.146359
    9 3.858219 -0.135628 -1.192206 -0.251095 0.104185 -0.118801
    10 1.312565 -0.000008 0.000000 -0.000002 0.054404 -0.409012
    11 0.729366 0.000002 -0.000002 -0.000001 0.040754 -0.240990
    12 3.941966 0.050853 -0.435186 -0.379709 -0.016674 -0.393832
    13 1.539091 0.000008 -0.000002 0.153287 0.085275 -0.278802
    14 1.196321 0.000000 -0.000002 0.180294 0.096657 -0.752368
    15 3.880859 -0.043091 0.427490 0.173079 -0.231527 -0.230358
    16 1.719578 0.000023 -0.000021 -0.117992 -0.078122 -0.544672
    17 1.209181 -0.000004 -0.000001 0.107099 -0.099114 -1.066322
    18 3.863281 -0.136475 1.332031 0.122642 -0.490092 0.180231
    19 1.719431 -0.000023 0.000019 -0.045624 -0.183851 -1.211743
    20 1.099676 0.000000 0.000006 -0.024648 -0.008224 -0.398791
    21 0.807586 -0.343252 1.320583 -1.342788 -0.268021 -0.682746
    22 1.789787 0.000006 0.000006 0.075450 -0.418764 0.038983
    23 1.207012 0.000011 0.000000 0.091043 0.020179 0.085889
    24 2.035156 0.997070 -1.937500 -1.667267 1.282923 2.944210
    25 6.028144 -0.000011 0.000002 1.564136 0.793349 -0.843535
    26 11.692577 0.000001 0.000004 -0.000400 -0.066958 -1.811950
    27 11.481657 0.000043 0.000019 -1.183853 0.520532 0.156063
    28 3.854334 -0.131699 1.199994 0.887977 0.041686 -0.500120
    29 1.312567 0.000000 0.000000 -0.076006 -0.203868 -0.258727
    30 0.729362 0.000004 0.000003 -0.250341 -0.135455 -0.179419
    31 3.941406 0.050842 0.431152 0.216355 -0.007330 -0.093769
    32 1.539089 0.000008 0.000003 -0.605562 0.126574 -1.244879
    33 1.196316 0.000004 0.000005 0.000000 -0.000162 -0.332870
    34 3.880859 -0.047028 -0.427490 0.051056 0.262892 -0.068599
    35 1.719567 0.000023 0.000016 -0.461231 0.032293 -1.105404
    36 1.209175 0.000008 0.000005 0.175617 0.055179 -0.367832
    37 3.867399 -0.148186 -1.324350 -0.134961 0.400676 -0.397685
    38 1.719419 -0.000008 -0.000008 -0.082106 -0.002364 -0.236718
    39 1.099667 -0.000004 -0.000001 -0.188224 0.009145 -1.119518
    40 0.807129 -0.358887 -1.316406 1.243203 0.551773 -0.740643
    41 1.789783 -0.000002 -0.000002 -0.000009 0.003711 0.228604
    42 1.207001 0.000009 0.000000 -0.023897 -0.040066 0.269693
    43 3.772941 -5.489335 -0.527645 4.034894 -0.133223 -1.641906
  time 11
    0 -0.000003 -13.531250 -29.421875 1.570788 0.000007 -0.000007
    1 0.000000 3.345131 -2.981898 1.570789 0.086301 1.570789
    2 4.015625 0.000003 0.000000 0.000000 0.000000 -0.029241
    3 3.520294 0.000005 -0.000006 0.000000 0.000000 0.100332
    4 8.929688 0.000001 0.000000 0.000000 0.000000 0.194095
    5 2.035156 0.997070 1.937500 1.596487 -1.284993 2.943127
    6 6.028159 -0.000069 0.000009 -1.515842 -0.850478 -0.883018
    7 11.692566 0.000046 0.000011 0.029672 0.203986 -1.775448
    8 11.481682 0.000088 -0.000031 1.230761 -0.562402 0.146359
    9 3.858219 -0.135628 -1.192206 -0.251095 0.104185 -0.118801
    10 1.312565 -0.000008 0.000000 -0.000002 0.054404 -0.409012
    11 0.729366 0.000002 -0.000002 -0.000001 0.040754 -0.240990
    12 3.941966 0.050853 -0.435186 -0.379709 -0.016674 -0.393832
    13 1.539091 0.000008 -0.000002 0.153287 0.085275 -0.278802
    14 1.196321 0.000000 -0.000002 0.180294 0.096657 -0.752368
    15 3.880859 -0.043091 0.427490 0.173079 -0.231527 -0.230358
    16 1.719578 0.000023 -0.000021 -0.117992 -0.078122 -0.544672
    17 1.209181 -0.000004 -0.000001 0.107099 -0.099114 -1.066322
    18 3.863281 -0.136475 1.332031 0.122642 -0.490092 0.180231
    19 1.719431 -0.000023 0.000019 -0.052527 -0.185697 -1.176673
    20 1.099676 0.000000 0.000006 -0.024792 -0.008116 -0.403909
    21 0.807586 -0.343252 1.320583 -1.342788 -0.268033 -0.682746
    22 1.789787 0.000006 0.000006 0.075450 -0.418764 0.038983
    23 1.207012 0.000011 0.000000 0.091043 0.020179 0.085889
    24 2.035156 0.997070 -1.937500 -1.667267 1.282923 2.944210
    25 6.028144 -0.000011 0.000002 1.564100 0.793325 -0.843523
    26 11.692577 0.000001 0.000004 -0.000400 -0.066958 -1.811950
    27 11.481657 0.000043 0.000019 -1.183853 0.520532 0.156063
    28 3.854334 -0.131699 1.199994 0.887977 0.041686 -0.500120
    29 1.312567 0.000000 0.000000 -0.076006 -0.203868 -0.258727
    30 0.729362 0.000004 0.000003 -0.250341 -0.135455 -0.179419
    31 3.941406 0.050842 0.431152 0.216355 -0.007330 -0.093769
    32 1.539089 0.000008 0.000003 -0.605562 0.126574 -1.244849
    33 1.196316 0.000004 0.000005 0.000000 -0.000162 -0.332870
    34 3.880859 -0.047028 -0.427490 0.051056 0.262892 -0.068599
    35 1.719567 0.000023 0.000016 -0.461231 0.032293 -1.105404
    36 1.209175 0.000008 0.000005 0.175617 0.055179 -0.367832
    37 3.867399 -0.148186 -1.324350 -0.134961 0.400676 -0.397685
    38 1.719419 -0.000008 -0.000008 -0.082106 -0.002364 -0.236718
    39 1.099667 -0.000004 -0.000001 -0.188224 0.009145 -1.119518
    40 0.807129 -0.358887 -1.316406 1.243203 0.551773 -0.740643
    41 1.789783 -0.000002 -0.000002 -0.000009 0.003711 0.228604
    42 1.207001 0.000009 0.000000 -0.023897 -0.040066 0.269681
    43 3.772941 -5.489335 -0.527645 4.034818 -0.133223 -1.641906
end
